<svg id="Grupo_118988" data-name="Grupo 118988" xmlns="http://www.w3.org/2000/svg" xmlns:xlink="http://www.w3.org/1999/xlink" width="225.843" height="223.191" viewBox="0 0 225.843 223.191">
  <defs>
    <clipPath id="clip-path">
      <rect id="Rectángulo_43533" data-name="Rectángulo 43533" width="225.843" height="223.191" fill="none"/>
    </clipPath>
    <clipPath id="clip-path-3">
      <rect id="Rectángulo_43514" data-name="Rectángulo 43514" width="92.792" height="47.459" fill="none"/>
    </clipPath>
    <clipPath id="clip-path-4">
      <rect id="Rectángulo_43515" data-name="Rectángulo 43515" width="4.014" height="8.994" fill="none"/>
    </clipPath>
    <clipPath id="clip-path-5">
      <rect id="Rectángulo_43520" data-name="Rectángulo 43520" width="28.901" height="18.239" fill="none"/>
    </clipPath>
    <clipPath id="clip-path-6">
      <rect id="Rectángulo_43521" data-name="Rectángulo 43521" width="27.459" height="19.463" fill="none"/>
    </clipPath>
    <clipPath id="clip-path-7">
      <rect id="Rectángulo_43522" data-name="Rectángulo 43522" width="27.607" height="24.059" fill="none"/>
    </clipPath>
    <clipPath id="clip-path-8">
      <rect id="Rectángulo_43523" data-name="Rectángulo 43523" width="17.696" height="27.447" fill="none"/>
    </clipPath>
    <clipPath id="clip-path-9">
      <rect id="Rectángulo_43524" data-name="Rectángulo 43524" width="13.74" height="29.667" fill="none"/>
    </clipPath>
    <clipPath id="clip-path-10">
      <rect id="Rectángulo_43525" data-name="Rectángulo 43525" width="20.607" height="29.848" fill="none"/>
    </clipPath>
    <clipPath id="clip-path-11">
      <rect id="Rectángulo_43526" data-name="Rectángulo 43526" width="23.981" height="26.83" fill="none"/>
    </clipPath>
    <clipPath id="clip-path-12">
      <rect id="Rectángulo_43527" data-name="Rectángulo 43527" width="27.574" height="17.952" fill="none"/>
    </clipPath>
    <clipPath id="clip-path-13">
      <rect id="Rectángulo_43528" data-name="Rectángulo 43528" width="29.583" height="14.045" fill="none"/>
    </clipPath>
    <clipPath id="clip-path-14">
      <rect id="Rectángulo_43529" data-name="Rectángulo 43529" width="29.746" height="20.447" fill="none"/>
    </clipPath>
    <clipPath id="clip-path-15">
      <rect id="Rectángulo_43530" data-name="Rectángulo 43530" width="127.56" height="114.398" fill="none"/>
    </clipPath>
    <clipPath id="clip-path-16">
      <rect id="Rectángulo_43531" data-name="Rectángulo 43531" width="21.59" height="17.995" fill="none"/>
    </clipPath>
  </defs>
  <g id="Grupo_118987" data-name="Grupo 118987" clip-path="url(#clip-path)">
    <g id="Grupo_118986" data-name="Grupo 118986">
      <g id="Grupo_118985" data-name="Grupo 118985" clip-path="url(#clip-path)">
        <path id="Trazado_169413" data-name="Trazado 169413" d="M349.409,245.241c-.065,0-.117-6.23-.117-13.915s.052-13.916.117-13.916.117,6.229.117,13.916-.052,13.915-.117,13.915" transform="translate(-171.762 -106.911)" fill="#e1e1e1"/>
        <path id="Trazado_169414" data-name="Trazado 169414" d="M412.106,71.579l3.395,6.878,7.591,1.1L417.6,84.914l1.3,7.56-6.789-3.569-6.789,3.569,1.3-7.56L401.12,79.56l7.591-1.1Z" transform="translate(-197.248 -35.198)" fill="#febf10"/>
        <path id="Trazado_169415" data-name="Trazado 169415" d="M18.326,246.335l2.139,4.335,4.784.7-3.462,3.374L22.6,259.5l-4.279-2.25-4.279,2.25.817-4.764L11.4,251.365l4.784-.7Z" transform="translate(-5.607 -121.134)" fill="#febf10"/>
        <path id="Trazado_169416" data-name="Trazado 169416" d="M15.374,172.029l4.751,9.626L30.747,183.2l-7.687,7.493,1.814,10.58-9.5-5-9.5,5,1.814-10.58L0,183.2l10.623-1.544Z" transform="translate(0 -84.594)" fill="#febf10"/>
        <path id="Trazado_169417" data-name="Trazado 169417" d="M410.376,132.692l2.048,4.149,4.578.665-3.313,3.229.782,4.56-4.1-2.153-4.1,2.153.782-4.56-3.313-3.229,4.578-.665Z" transform="translate(-198.541 -65.25)" fill="#febf10"/>
        <path id="Trazado_169418" data-name="Trazado 169418" d="M278.153.436,280.2,4.585l4.578.665-3.313,3.229.782,4.56-4.1-2.153-4.1,2.153.782-4.56L271.527,5.25l4.578-.665Z" transform="translate(-133.522 -0.214)" fill="#febf10"/>
        <path id="Trazado_169419" data-name="Trazado 169419" d="M372.543,87.777l1.34,2.716,3,.436-2.168,2.113.512,2.985-2.681-1.409-2.681,1.409.512-2.985-2.169-2.113,3-.436Z" transform="translate(-181.063 -43.164)" fill="#febf10"/>
        <path id="Trazado_169420" data-name="Trazado 169420" d="M125.266,357.476l2.61,5.289,5.837.848-4.224,4.117,1,5.813-5.221-2.745-5.221,2.745,1-5.813-4.224-4.117,5.837-.848Z" transform="translate(-57.445 -175.786)" fill="#febf10"/>
        <path id="Trazado_169421" data-name="Trazado 169421" d="M143.62,347.132l1.079,2.185,2.412.351-1.745,1.7.412,2.4-2.157-1.134-2.157,1.134.412-2.4-1.745-1.7,2.412-.351Z" transform="translate(-68.908 -170.7)" fill="#febf10"/>
        <path id="Trazado_169422" data-name="Trazado 169422" d="M329.465,307.288l2.3,4.651,5.132.746-3.713,3.62.876,5.111L329.465,319l-4.59,2.413.877-5.111-3.714-3.62,5.132-.746Z" transform="translate(-158.36 -151.107)" fill="#febf10"/>
        <path id="Trazado_169423" data-name="Trazado 169423" d="M354.807,299.178l1.082,2.191,2.418.352-1.75,1.706.413,2.409-2.163-1.137-2.163,1.137.413-2.409-1.75-1.706,2.418-.352Z" transform="translate(-172.753 -147.119)" fill="#febf10"/>
        <path id="Trazado_169424" data-name="Trazado 169424" d="M329.923,31.137l1.795-5.621a17.522,17.522,0,1,1,14.112,9.642,16.464,16.464,0,0,1-10.081-4.372Z" transform="translate(-162.22 -0.119)" fill="#fafafa"/>
        <path id="Trazado_169425" data-name="Trazado 169425" d="M329.842,31.017s.135-.014.388-.033l1.12-.081,4.314-.3.024,0,.018.017a16.123,16.123,0,0,0,7.6,3.947,17.94,17.94,0,0,0,2.674.382l1.423.054c.482,0,.971-.054,1.468-.079a17.449,17.449,0,0,0,11.535-5.884,17.218,17.218,0,0,0,3.6-6.516,17.7,17.7,0,0,0,.433-7.883,15.548,15.548,0,0,0-.465-2,8.072,8.072,0,0,0-.334-.978c-.124-.323-.238-.651-.371-.972a17.871,17.871,0,0,0-2.149-3.61,16.23,16.23,0,0,0-1.376-1.6,8.934,8.934,0,0,0-.761-.721c-.263-.229-.51-.475-.784-.688l-.836-.617-.417-.306L356.5,2.89l-.882-.528c-.3-.169-.614-.3-.918-.447a17.408,17.408,0,0,0-23.672,9.6l-.25.7a4.6,4.6,0,0,0-.214.7l-.343,1.381a24.246,24.246,0,0,0-.312,2.681,17.42,17.42,0,0,0,1.778,8.4l.011.021-.007.022c-.594,1.811-1.052,3.2-1.364,4.154l-.357,1.077c-.081.243-.129.372-.129.372s.031-.116.1-.355.186-.605.328-1.07l1.308-4.214,0,.043a17.406,17.406,0,0,1-1.852-8.457,24.255,24.255,0,0,1,.3-2.711q.167-.687.341-1.4a4.618,4.618,0,0,1,.214-.7l.25-.706a17.584,17.584,0,0,1,23.972-9.768c.31.152.631.283.933.454l.9.535.45.268.423.311.848.626c.278.216.53.466.8.7a9.041,9.041,0,0,1,.772.731,16.4,16.4,0,0,1,1.4,1.623,18.105,18.105,0,0,1,2.181,3.665c.135.326.251.659.377.987a8.316,8.316,0,0,1,.338.994,15.768,15.768,0,0,1,.47,2.029,17.934,17.934,0,0,1-.447,8,17.431,17.431,0,0,1-3.658,6.6,17.626,17.626,0,0,1-11.7,5.926c-.5.024-1,.073-1.485.074l-1.438-.06a18.151,18.151,0,0,1-2.7-.4,16.146,16.146,0,0,1-7.642-4.034l.043.015-4.358.228L330.207,31c-.246.011-.365.013-.365.013" transform="translate(-162.139 0)" fill="#1a2e35"/>
        <path id="Trazado_169426" data-name="Trazado 169426" d="M344.822,27l2.883-2.5,4.855,4.983,10.885-9.066,2.3,2.869L351.8,34.645Z" transform="translate(-169.564 -10.041)" fill="#ff735d"/>
        <path id="Trazado_169427" data-name="Trazado 169427" d="M140.555,161.152,43.091,182.872a4.388,4.388,0,0,1-5.238-3.329L6.222,37.614a4.389,4.389,0,0,1,3.329-5.239l97.465-21.721a4.389,4.389,0,0,1,5.239,3.329l31.63,141.93a4.389,4.389,0,0,1-3.329,5.238" transform="translate(-3.008 -5.187)" fill="#687687"/>
        <path id="Trazado_169428" data-name="Trazado 169428" d="M140.458,161.061s.108-.034.323-.1a4.737,4.737,0,0,0,.913-.4,4.533,4.533,0,0,0,1.232-1.072,4.41,4.41,0,0,0,.891-2.058,4.186,4.186,0,0,0-.011-1.357c-.08-.473-.21-.966-.321-1.486l-.764-3.406c-.551-2.462-1.188-5.3-1.9-8.5-2.859-12.8-7-31.307-12.109-54.181l-8.352-37.417-4.651-20.845-2.432-10.9q-.62-2.761-1.247-5.558a4.275,4.275,0,0,0-4.136-3.226,6.043,6.043,0,0,0-1.415.2l-1.424.318-2.862.638-5.775,1.288-11.747,2.62-24.229,5.4L9.489,32.385a4.283,4.283,0,0,0-3.3,4.907c.46,2.163.959,4.33,1.434,6.483q1.44,6.466,2.861,12.843l5.594,25.11L26.654,129.2c3.368,15.127,6.568,29.5,9.563,42.954q.561,2.523,1.113,5c.188.824.358,1.655.558,2.462a4.263,4.263,0,0,0,1.259,2.069A4.354,4.354,0,0,0,41.3,182.74a4.621,4.621,0,0,0,1.2.038c.4-.052.795-.149,1.193-.238l4.73-1.053,17.957-3.995,54.193-12.043,14.736-3.264,3.833-.844c.864-.189,1.308-.281,1.308-.281s-.441.106-1.3.3l-3.829.864-14.727,3.3L66.421,177.637l-17.954,4.009-4.73,1.056c-.4.088-.794.186-1.211.241a4.78,4.78,0,0,1-1.251-.038,4.525,4.525,0,0,1-2.241-1.1,4.435,4.435,0,0,1-1.31-2.149c-.2-.821-.372-1.642-.561-2.469l-1.116-5-9.582-42.95c-3.373-15.126-6.914-31-10.584-47.466q-2.753-12.346-5.6-25.109L7.421,43.821c-.476-2.158-.972-4.31-1.436-6.493A4.494,4.494,0,0,1,9.443,32.18L60.394,20.827l24.23-5.4,11.748-2.617,5.775-1.286,2.862-.637,1.425-.317a6.247,6.247,0,0,1,1.458-.208,4.468,4.468,0,0,1,4.321,3.372l1.246,5.565,2.427,10.9,4.641,20.848c2.993,13.452,5.781,25.983,8.327,37.423l12.044,54.2c.709,3.2,1.339,6.041,1.886,8.5l.754,3.409c.11.521.237,1.011.316,1.49a4.225,4.225,0,0,1,.006,1.371,4.435,4.435,0,0,1-.908,2.072,4.521,4.521,0,0,1-1.246,1.071,4.571,4.571,0,0,1-.921.389c-.217.058-.326.085-.326.085" transform="translate(-2.91 -5.097)" fill="#1a2e35"/>
        <g id="Grupo_118945" data-name="Grupo 118945" transform="translate(41.036 125.201)" opacity="0.3">
          <g id="Grupo_118944" data-name="Grupo 118944">
            <g id="Grupo_118943" data-name="Grupo 118943" clip-path="url(#clip-path-3)">
              <path id="Trazado_169429" data-name="Trazado 169429" d="M84.729,293.794l88.8-20.3-2.81-17.406-5.033-9.753L80.74,279.7Z" transform="translate(-80.74 -246.335)"/>
            </g>
          </g>
        </g>
        <g id="Grupo_118948" data-name="Grupo 118948" transform="translate(82.1 10.672)" opacity="0.3">
          <g id="Grupo_118947" data-name="Grupo 118947">
            <g id="Grupo_118946" data-name="Grupo 118946" clip-path="url(#clip-path-4)">
              <path id="Trazado_169430" data-name="Trazado 169430" d="M161.532,21l3.359,5.547.655,2.938-2.28.508Z" transform="translate(-161.532 -20.998)"/>
            </g>
          </g>
        </g>
        <path id="Trazado_169431" data-name="Trazado 169431" d="M16.279,44.595,47.088,182.842l96.574-21.523-5.509-24.72-25.3-113.526Z" transform="translate(-8.005 -11.346)" fill="#fff"/>
        <path id="Trazado_169432" data-name="Trazado 169432" d="M16.279,44.5,112.834,22.89l.084-.019.018.084c8.568,38.419,19.26,86.362,30.827,138.23l0,.011.023.1-.1.023L47.11,182.837l-.1.021-.021-.095L16.279,44.5l30.9,138.225-.115-.074,96.572-21.531-.081.127,0-.011L112.769,22.992l.1.065L16.279,44.5" transform="translate(-8.005 -11.247)" fill="#1a2e35"/>
        <path id="Trazado_169433" data-name="Trazado 169433" d="M116.238,27.792,67.374,38.682,64.915,27.648a3.215,3.215,0,0,1,2.439-3.837l42.587-9.491a3.216,3.216,0,0,1,3.838,2.439Z" transform="translate(-31.883 -7.003)" fill="#1a2e35"/>
        <path id="Trazado_169434" data-name="Trazado 169434" d="M109.548,10.518,97.112,13.289l3.829,10.336,9.368-2.088Z" transform="translate(-47.754 -5.172)" fill="#1a2e35"/>
        <path id="Trazado_169435" data-name="Trazado 169435" d="M112.375,14.394c.013.057-9.511,2.227-21.269,4.848s-21.3,4.7-21.317,4.643S79.3,21.658,91.06,19.036s21.3-4.7,21.315-4.642" transform="translate(-34.318 -7.078)" fill="#375a64"/>
        <path id="Trazado_169436" data-name="Trazado 169436" d="M69.041,48.687c-.056.013-.549-1.982-1.1-4.454s-.952-4.488-.9-4.5.549,1.982,1.1,4.455.951,4.487.9,4.5" transform="translate(-32.967 -19.538)" fill="#375a64"/>
        <path id="Trazado_169437" data-name="Trazado 169437" d="M159.629,27.146a41.216,41.216,0,0,1-1.008-4.042,41.39,41.39,0,0,1-.8-4.088,41.332,41.332,0,0,1,1.008,4.042,41.361,41.361,0,0,1,.8,4.088" transform="translate(-77.603 -9.351)" fill="#375a64"/>
        <path id="Trazado_169438" data-name="Trazado 169438" d="M115.284,39.753c.013.056-9.764,2.284-21.833,4.973S71.583,49.552,71.57,49.5s9.762-2.283,21.835-4.974,21.866-4.825,21.879-4.768" transform="translate(-35.194 -19.548)" fill="#375a64"/>
        <path id="Trazado_169439" data-name="Trazado 169439" d="M78.425,118.88c.013.057-6.581,1.576-14.725,3.391s-14.76,3.241-14.773,3.183,6.579-1.575,14.727-3.391,14.759-3.24,14.771-3.183" transform="translate(-24.06 -58.458)" fill="#1a2e35"/>
        <path id="Trazado_169440" data-name="Trazado 169440" d="M129.177,107.989c.013.057-17.216,3.946-38.477,8.684s-38.514,8.534-38.527,8.477,17.213-3.945,38.481-8.685,38.51-8.534,38.523-8.476" transform="translate(-25.656 -53.103)" fill="#1a2e35"/>
        <path id="Trazado_169441" data-name="Trazado 169441" d="M131.26,117.337c.013.057-17.216,3.946-38.477,8.684S54.27,134.556,54.257,134.5s17.213-3.945,38.481-8.685,38.51-8.534,38.523-8.476" transform="translate(-26.681 -57.7)" fill="#1a2e35"/>
        <path id="Trazado_169442" data-name="Trazado 169442" d="M133.343,126.685c.013.057-17.216,3.946-38.477,8.684S56.353,143.9,56.34,143.846s17.213-3.945,38.481-8.685,38.51-8.534,38.523-8.476" transform="translate(-27.705 -62.296)" fill="#1a2e35"/>
        <path id="Trazado_169443" data-name="Trazado 169443" d="M135.426,136.032c.013.057-17.216,3.946-38.476,8.684s-38.514,8.534-38.527,8.477,17.213-3.945,38.481-8.685,38.51-8.534,38.523-8.476" transform="translate(-28.729 -66.893)" fill="#1a2e35"/>
        <path id="Trazado_169444" data-name="Trazado 169444" d="M137.51,145.38c.013.057-17.216,3.946-38.477,8.684S60.52,162.6,60.507,162.541s17.213-3.945,38.481-8.685,38.51-8.534,38.523-8.476" transform="translate(-29.754 -71.49)" fill="#1a2e35"/>
        <path id="Trazado_169445" data-name="Trazado 169445" d="M79.906,203.009a1.154,1.154,0,0,1-.046-.161l-.112-.453c-.1-.412-.233-.982-.4-1.7l-1.386-6,.11.07-8.333,1.872c-.019.027.152-.24.08-.126v.007l0,.009,0,.018.008.036.016.072.032.143.064.284.126.566q.125.563.248,1.115l.478,2.156.866,3.935-.11-.07,6.025-1.3,1.709-.356.457-.09a1.188,1.188,0,0,1,.165-.026.732.732,0,0,1-.141.042l-.436.108-1.678.4-6.062,1.4-.089.021-.021-.09-.886-3.93-.483-2.154q-.123-.551-.249-1.114-.063-.282-.126-.565l-.064-.285-.032-.143-.016-.072-.008-.036,0-.018,0-.009v-.007c-.072.113.1-.157.081-.129l8.339-1.844.09-.02.019.09c.538,2.5.988,4.594,1.308,6.082l.352,1.689.087.44a.738.738,0,0,1,.022.145" transform="translate(-34.22 -95.675)" fill="#1a2e35"/>
        <rect id="Rectángulo_43516" data-name="Rectángulo 43516" width="59.577" height="4.97" transform="matrix(0.976, -0.218, 0.218, 0.976, 49.495, 99.738)" fill="#e1e1e1"/>
        <path id="Trazado_169446" data-name="Trazado 169446" d="M86.247,231.461a1.152,1.152,0,0,1-.046-.161l-.112-.453c-.1-.412-.233-.982-.4-1.7-.339-1.47-.816-3.534-1.386-6l.11.07-8.333,1.872c-.019.027.152-.24.08-.126v.007l0,.009,0,.018.008.036.016.072.032.143.064.284q.063.284.126.566.125.563.248,1.115l.478,2.156L78,233.3l-.11-.07,6.025-1.3,1.709-.356.457-.09a1.193,1.193,0,0,1,.165-.026.731.731,0,0,1-.141.042l-.436.108-1.678.4-6.062,1.4-.09.021-.02-.09-.886-3.93-.483-2.154q-.123-.551-.249-1.114c-.042-.188-.084-.376-.126-.566l-.064-.284-.032-.143-.016-.072-.008-.036,0-.018,0-.009v-.007c-.072.113.1-.157.081-.129l8.339-1.843.09-.02.019.09c.538,2.5.988,4.594,1.308,6.082l.352,1.689.087.44a.735.735,0,0,1,.022.145" transform="translate(-37.338 -109.666)" fill="#1a2e35"/>
        <rect id="Rectángulo_43517" data-name="Rectángulo 43517" width="59.577" height="4.97" transform="translate(52.718 114.198) rotate(-12.564)" fill="#e1e1e1"/>
        <path id="Trazado_169447" data-name="Trazado 169447" d="M92.587,259.913a1.156,1.156,0,0,1-.046-.161l-.112-.453c-.1-.412-.233-.982-.4-1.7-.339-1.47-.816-3.534-1.386-6l.11.07-8.333,1.872c-.019.027.152-.24.08-.126v.007l0,.009,0,.018.008.036.016.072.032.143.064.284.126.566L83,255.66l.477,2.156.866,3.935-.11-.07,6.025-1.295,1.709-.356.457-.091a1.22,1.22,0,0,1,.165-.026.734.734,0,0,1-.141.042l-.436.108-1.678.4-6.062,1.4-.089.021-.021-.09-.886-3.93-.483-2.154q-.123-.551-.249-1.114c-.042-.188-.084-.376-.126-.566l-.064-.284-.032-.143-.016-.072-.008-.036,0-.018,0-.009v-.007c-.072.113.1-.157.081-.129l8.339-1.844.09-.02.019.09c.538,2.5.988,4.594,1.308,6.082l.352,1.689.087.44a.737.737,0,0,1,.022.145" transform="translate(-40.456 -123.657)" fill="#1a2e35"/>
        <rect id="Rectángulo_43518" data-name="Rectángulo 43518" width="59.577" height="4.97" transform="translate(55.941 128.659) rotate(-12.564)" fill="#e1e1e1"/>
        <path id="Trazado_169448" data-name="Trazado 169448" d="M74.131,200.492,75,199.118l2.6,1.443,3.342-5.041,1.294.891-4.313,6.353Z" transform="translate(-36.453 -96.146)" fill="#ff735d"/>
        <path id="Trazado_169449" data-name="Trazado 169449" d="M80.259,227.992l.873-1.374,2.6,1.443,3.342-5.041,1.294.891-4.313,6.353Z" transform="translate(-39.467 -109.669)" fill="#ff735d"/>
        <path id="Trazado_169450" data-name="Trazado 169450" d="M86.543,256.189l.873-1.374,2.6,1.443,3.342-5.041,1.294.891-4.313,6.353Z" transform="translate(-42.557 -123.534)" fill="#ff735d"/>
        <path id="Trazado_169451" data-name="Trazado 169451" d="M117.648,296.38c.013.057-4.9,1.2-10.965,2.552s-11,2.4-11.012,2.345,4.9-1.2,10.966-2.553,11-2.4,11.011-2.345" transform="translate(-47.046 -145.742)" fill="#1a2e35"/>
        <path id="Trazado_169452" data-name="Trazado 169452" d="M152.605,291.225a40.645,40.645,0,0,1-4.034,1.008,40.632,40.632,0,0,1-4.08.8,40.67,40.67,0,0,1,4.034-1.008,40.68,40.68,0,0,1,4.08-.8" transform="translate(-71.053 -143.205)" fill="#1a2e35"/>
        <path id="Trazado_169453" data-name="Trazado 169453" d="M212.66,268.775c.013.057-4.405,1.091-9.866,2.307s-9.9,2.158-9.913,2.1,4.4-1.091,9.867-2.308,9.9-2.158,9.912-2.1" transform="translate(-94.848 -132.167)" fill="#1a2e35"/>
        <path id="Trazado_169454" data-name="Trazado 169454" d="M206.443,286.108c-.012,0,.043-.139.1-.4a2.677,2.677,0,0,0-.061-1.174,10.776,10.776,0,0,0-.7-1.75,5.869,5.869,0,0,1-.7-2.423,3.732,3.732,0,0,1,1.288-2.735,3.537,3.537,0,0,1,3.377-.63,3.439,3.439,0,0,1,1.608,1.056,1.653,1.653,0,0,1,.382.951.887.887,0,0,1-.6.859,7.545,7.545,0,0,1-1,.248l-1.01.208c-.68.135-1.373.259-2.08.352a15.248,15.248,0,0,1-4.158.024,2.535,2.535,0,0,0-1.825.3,6.372,6.372,0,0,0-1.1,1.486,1.775,1.775,0,0,1-.709.633,1.3,1.3,0,0,1-.933.039,8.251,8.251,0,0,1-1.483-.854,1.818,1.818,0,0,0-.715-.271,1.02,1.02,0,0,0-.681.172,3.956,3.956,0,0,0-.861,1.128,2.685,2.685,0,0,1-2.146,1.238,2.529,2.529,0,0,1-1.78-.63,2.594,2.594,0,0,1-.7-.975,1.625,1.625,0,0,1-.115-.4c.011,0,.042.139.155.386a2.67,2.67,0,0,0,.718.929,2.454,2.454,0,0,0,1.719.575,2.565,2.565,0,0,0,2.026-1.2,4.025,4.025,0,0,1,.894-1.181,1.188,1.188,0,0,1,.792-.207,1.98,1.98,0,0,1,.786.288,8.417,8.417,0,0,0,1.451.829,1.109,1.109,0,0,0,.8-.036,1.588,1.588,0,0,0,.627-.572,6.371,6.371,0,0,1,1.138-1.534,1.906,1.906,0,0,1,.952-.358,4.77,4.77,0,0,1,1.015.016,15.158,15.158,0,0,0,4.11-.027c.7-.092,1.39-.215,2.067-.348l1.007-.206a7.624,7.624,0,0,0,.965-.235.675.675,0,0,0,.469-.663,1.462,1.462,0,0,0-.335-.829,3.257,3.257,0,0,0-1.507-.994,3.359,3.359,0,0,0-3.2.577,3.586,3.586,0,0,0-1.252,2.6,5.819,5.819,0,0,0,.654,2.372,10.305,10.305,0,0,1,.675,1.779,2.605,2.605,0,0,1,.022,1.2,1.836,1.836,0,0,1-.139.4" transform="translate(-93.352 -136.122)" fill="#1a2e35"/>
        <path id="Trazado_169455" data-name="Trazado 169455" d="M217.72,282.3a1.369,1.369,0,0,1-.265.079l-.77.186-2.835.657c-2.393.555-5.7,1.338-9.328,2.259s-6.91,1.808-9.279,2.461l-2.805.773-.764.2a.139.139,0,1,1-.012-.041l.753-.242c.656-.207,1.608-.494,2.787-.839,2.359-.69,5.631-1.6,9.268-2.522s6.945-1.682,9.348-2.2c1.2-.259,2.175-.461,2.85-.592l.778-.146a1.331,1.331,0,0,1,.274-.037" transform="translate(-94.122 -138.817)" fill="#1a2e35"/>
        <rect id="Rectángulo_43519" data-name="Rectángulo 43519" width="40.443" height="7.598" transform="translate(42.44 40.749) rotate(-12.564)" fill="#e1e1e1"/>
        <path id="Trazado_169456" data-name="Trazado 169456" d="M234.634,293.094l12.753,67.375,11.654-21.533,22.09,12.965-23.448-65.608Z" transform="translate(-115.38 -140.783)" fill="#ff004c"/>
        <g id="Grupo_118951" data-name="Grupo 118951" transform="translate(121.968 156.869)" opacity="0.3">
          <g id="Grupo_118950" data-name="Grupo 118950">
            <g id="Grupo_118949" data-name="Grupo 118949" clip-path="url(#clip-path-5)">
              <path id="Trazado_169457" data-name="Trazado 169457" d="M241.549,326.744a7.666,7.666,0,0,0,6.782-2.079c1.162-1.2,1.937-2.835,3.4-3.64a5.907,5.907,0,0,1,4.384-.221c1.447.4,2.808,1.07,4.261,1.446a11.134,11.134,0,0,0,8.5-1.261L265.2,310.774l-17.079-2.133-8.143,9.782Z" transform="translate(-239.974 -308.641)"/>
            </g>
          </g>
        </g>
        <path id="Trazado_169458" data-name="Trazado 169458" d="M273.059,354.3c-.071.018-1.97-6.979-4.241-15.627s-4.056-15.678-3.986-15.7,1.969,6.977,4.242,15.629,4.056,15.676,3.985,15.694" transform="translate(-130.229 -158.82)" fill="#1a2e35"/>
        <path id="Trazado_169459" data-name="Trazado 169459" d="M193.32,299.99l-12.753,67.375-11.654-21.533L146.823,358.8l23.448-65.608Z" transform="translate(-72.199 -144.174)" fill="#ff004c"/>
        <g id="Grupo_118954" data-name="Grupo 118954" transform="translate(91.059 157.878)" opacity="0.3">
          <g id="Grupo_118953" data-name="Grupo 118953">
            <g id="Grupo_118952" data-name="Grupo 118952" clip-path="url(#clip-path-6)">
              <path id="Trazado_169460" data-name="Trazado 169460" d="M179.159,321.387s3.627,2.986,7.954,1.61,7.014-1.665,9.355,0,8.679,7.093,8.679,7.093l1.471-7.774-8.511-11.689-8.888,1.794-6.331.632-2.353,4.455Z" transform="translate(-179.159 -310.628)"/>
            </g>
          </g>
        </g>
        <path id="Trazado_169461" data-name="Trazado 169461" d="M239.777,114.084c0,4.834-6.179,9-7.083,13.567-.931,4.707,3.166,10.913,1.37,15.244-1.827,4.407-9.131,5.889-11.753,9.806-2.643,3.947-1.234,11.258-4.58,14.6s-10.658,1.937-14.6,4.579c-3.917,2.622-5.4,9.926-9.806,11.753-4.331,1.8-10.536-2.3-15.244-1.371-4.569.9-8.733,7.083-13.567,7.083s-9-6.179-13.567-7.083c-4.707-.931-10.913,3.166-15.244,1.37-4.407-1.827-5.889-9.131-9.806-11.753-3.947-2.642-11.258-1.233-14.6-4.579s-1.937-10.658-4.579-14.6c-2.622-3.917-9.926-5.4-11.753-9.805-1.8-4.331,2.3-10.537,1.371-15.244-.9-4.569-7.083-8.733-7.083-13.567s6.179-9,7.083-13.567c.931-4.707-3.166-10.913-1.37-15.244,1.827-4.407,9.131-5.889,11.753-9.806,2.643-3.947,1.234-11.258,4.58-14.6s10.658-1.937,14.6-4.579c3.917-2.622,5.4-9.926,9.806-11.753,4.331-1.8,10.536,2.3,15.244,1.371,4.569-.9,8.733-7.083,13.567-7.083s9,6.179,13.567,7.083c4.707.931,10.913-3.166,15.244-1.37,4.407,1.827,5.889,9.131,9.806,11.753,3.947,2.642,11.258,1.233,14.6,4.579s1.937,10.658,4.579,14.6c2.622,3.917,9.926,5.4,11.753,9.805,1.8,4.331-2.3,10.537-1.371,15.244.9,4.569,7.083,8.733,7.083,13.567" transform="translate(-43.886 -19.089)" fill="#ff004c"/>
        <path id="Trazado_169462" data-name="Trazado 169462" d="M194.138,82a.894.894,0,0,1-.137-.208l-.346-.62c-.3-.54-.709-1.331-1.2-2.318-.982-1.974-2.251-4.746-3.475-7.88s-2.165-6.036-2.779-8.153c-.307-1.058-.541-1.919-.687-2.518l-.165-.69a.125.125,0,1,1,.051-.014l.212.677.767,2.491c.658,2.1,1.627,4.982,2.846,8.111s2.46,5.9,3.4,7.895l1.122,2.353.3.642a.887.887,0,0,1,.089.232" transform="translate(-91.124 -29.194)" fill="#1a2e35"/>
        <path id="Trazado_169463" data-name="Trazado 169463" d="M213.226,84.591a2.548,2.548,0,0,1-.194-.561c-.109-.365-.253-.9-.421-1.557-.335-1.319-.751-3.155-1.127-5.2s-.639-3.909-.794-5.262c-.078-.676-.132-1.224-.16-1.6a2.522,2.522,0,0,1-.018-.593,2.544,2.544,0,0,1,.12.58c.066.432.147.964.243,1.592.2,1.344.495,3.2.869,5.239s.761,3.876,1.049,5.2l.339,1.575a2.557,2.557,0,0,1,.094.586" transform="translate(-103.513 -34.331)" fill="#1a2e35"/>
        <path id="Trazado_169464" data-name="Trazado 169464" d="M238.526,71.932c-.073,0-.261-5.7-.42-12.732s-.229-12.738-.156-12.74.261,5.7.42,12.734.229,12.737.156,12.738" transform="translate(-116.996 -22.846)" fill="#1a2e35"/>
        <path id="Trazado_169465" data-name="Trazado 169465" d="M258.711,73.529c.07.022-.751,2.873-1.832,6.367s-2.016,6.31-2.085,6.289.75-2.872,1.832-6.367,2.016-6.309,2.085-6.288" transform="translate(-125.291 -36.157)" fill="#1a2e35"/>
        <path id="Trazado_169466" data-name="Trazado 169466" d="M272.053,80.779a.884.884,0,0,1,.064-.24l.232-.67c.2-.581.52-1.414.915-2.443.794-2.054,1.937-4.874,3.237-7.972s2.508-5.891,3.4-7.9l1.07-2.378.3-.641a.858.858,0,0,1,.123-.216.891.891,0,0,1-.074.237l-.259.66-.993,2.411-3.328,7.933-3.307,7.939-.993,2.41-.278.653a.9.9,0,0,1-.114.221" transform="translate(-133.78 -28.675)" fill="#1a2e35"/>
        <path id="Trazado_169467" data-name="Trazado 169467" d="M284.555,97.572a2.568,2.568,0,0,1,.29-.517c.2-.324.5-.785.884-1.349.763-1.128,1.859-2.658,3.137-4.3s2.5-3.074,3.405-4.089c.454-.508.827-.912,1.093-1.185a2.558,2.558,0,0,1,.432-.407,2.548,2.548,0,0,1-.354.475l-1.028,1.24c-.87,1.044-2.062,2.5-3.338,4.13s-2.391,3.144-3.192,4.242l-.952,1.3a2.565,2.565,0,0,1-.375.459" transform="translate(-139.927 -42.155)" fill="#1a2e35"/>
        <path id="Trazado_169468" data-name="Trazado 169468" d="M302.736,107.608c-.05-.053,3.971-3.876,8.981-8.536s9.112-8.4,9.162-8.343-3.971,3.875-8.982,8.537-9.112,8.4-9.161,8.342" transform="translate(-148.868 -44.615)" fill="#1a2e35"/>
        <path id="Trazado_169469" data-name="Trazado 169469" d="M324.276,127.042a14.069,14.069,0,0,1-1.532.835c-.953.5-2.253,1.216-3.686,2.021s-2.754,1.5-3.732,1.958c-.489.229-.888.406-1.169.516a1.608,1.608,0,0,1-.446.15,14.135,14.135,0,0,1,1.532-.834c.954-.5,2.254-1.217,3.687-2.022s2.754-1.5,3.732-1.958c.489-.228.888-.406,1.169-.516a1.612,1.612,0,0,1,.446-.15" transform="translate(-154.265 -62.471)" fill="#1a2e35"/>
        <path id="Trazado_169470" data-name="Trazado 169470" d="M343.131,139.24c.024.069-4.763,1.817-10.691,3.9s-10.755,3.723-10.78,3.655,4.762-1.817,10.692-3.9,10.754-3.723,10.779-3.654" transform="translate(-158.174 -68.469)" fill="#1a2e35"/>
        <path id="Trazado_169471" data-name="Trazado 169471" d="M350.8,190.562c-.007.073-5.209-.363-11.618-.973s-11.6-1.163-11.594-1.237,5.208.363,11.619.973,11.6,1.164,11.593,1.237" transform="translate(-161.091 -92.617)" fill="#1a2e35"/>
        <path id="Trazado_169472" data-name="Trazado 169472" d="M344.824,230.784c-.031.066-4.895-2.166-10.862-4.985s-10.782-5.159-10.75-5.225,4.894,2.166,10.863,4.986,10.78,5.158,10.749,5.224" transform="translate(-158.937 -108.465)" fill="#1a2e35"/>
        <path id="Trazado_169473" data-name="Trazado 169473" d="M319.29,268.543c-.056.047-3.564-4.022-7.835-9.087s-7.689-9.211-7.633-9.258,3.563,4.021,7.835,9.088,7.688,9.21,7.633,9.257" transform="translate(-149.402 -123.033)" fill="#1a2e35"/>
        <path id="Trazado_169474" data-name="Trazado 169474" d="M299.248,277.189a3.683,3.683,0,0,1-.424-.571c-.259-.377-.624-.93-1.065-1.618-.884-1.376-2.068-3.3-3.315-5.462s-2.321-4.151-3.07-5.605c-.375-.726-.671-1.318-.868-1.731a3.738,3.738,0,0,1-.283-.653,3.617,3.617,0,0,1,.374.605l.941,1.691c.791,1.43,1.888,3.4,3.134,5.561s2.4,4.1,3.245,5.5l.993,1.661a3.686,3.686,0,0,1,.337.627" transform="translate(-142.715 -128.615)" fill="#1a2e35"/>
        <path id="Trazado_169475" data-name="Trazado 169475" d="M283.669,293.357a.872.872,0,0,1-.132-.208l-.332-.621c-.286-.541-.679-1.334-1.147-2.323-.937-1.977-2.14-4.753-3.285-7.89s-2.007-6.04-2.562-8.155c-.278-1.058-.487-1.918-.617-2.516l-.145-.69a.9.9,0,0,1-.033-.244.85.85,0,0,1,.085.232c.053.184.116.408.193.677l.7,2.491c.6,2.1,1.49,4.983,2.63,8.114s2.315,5.909,3.207,7.9l1.069,2.356.288.642a.889.889,0,0,1,.084.232" transform="translate(-135.433 -133.12)" fill="#1a2e35"/>
        <path id="Trazado_169476" data-name="Trazado 169476" d="M256.65,287.591a14.751,14.751,0,0,1-.22-1.77c-.118-1.093-.3-2.6-.578-4.254s-.594-3.139-.839-4.211a14.535,14.535,0,0,1-.368-1.744,1.694,1.694,0,0,1,.177.447c.1.293.227.72.372,1.252.292,1.064.639,2.551.918,4.213s.434,3.18.5,4.281c.036.55.054,1,.056,1.305a1.681,1.681,0,0,1-.022.481" transform="translate(-125.218 -135.53)" fill="#1a2e35"/>
        <path id="Trazado_169477" data-name="Trazado 169477" d="M236.93,303.2a.965.965,0,0,1-.022-.261c0-.2-.007-.448-.012-.747-.007-.649,0-1.588.019-2.748.039-2.32.145-5.524.331-9.059s.411-6.734.6-9.046c.095-1.156.179-2.091.245-2.736.033-.3.061-.543.083-.743a.992.992,0,0,1,.047-.258.958.958,0,0,1,.006.262c-.009.2-.02.448-.034.747-.041.687-.1,1.614-.161,2.742-.135,2.352-.318,5.532-.52,9.047-.186,3.533-.322,6.733-.408,9.05-.042,1.129-.077,2.057-.1,2.745-.015.3-.028.545-.038.746a.969.969,0,0,1-.031.26" transform="translate(-116.491 -136.509)" fill="#1a2e35"/>
        <path id="Trazado_169478" data-name="Trazado 169478" d="M217.417,277.6a6.03,6.03,0,0,1-.152,1.3c-.132.794-.346,1.887-.626,3.084s-.575,2.271-.809,3.041a6.022,6.022,0,0,1-.44,1.229,6.8,6.8,0,0,1,.259-1.279l.732-3.053.7-3.06a6.856,6.856,0,0,1,.336-1.26" transform="translate(-105.913 -136.509)" fill="#1a2e35"/>
        <path id="Trazado_169479" data-name="Trazado 169479" d="M183.087,262.328a56.088,56.088,0,0,1-4.659,6.142,56.263,56.263,0,0,1,4.659-6.142" transform="translate(-87.74 -128.998)" fill="#1a2e35"/>
        <path id="Trazado_169480" data-name="Trazado 169480" d="M157.1,251.125c.055.048-3.1,3.752-7.044,8.271s-7.189,8.146-7.244,8.1,3.1-3.751,7.044-8.272,7.189-8.145,7.244-8.1" transform="translate(-70.225 -123.489)" fill="#1a2e35"/>
        <path id="Trazado_169481" data-name="Trazado 169481" d="M154.829,238.721a50.909,50.909,0,0,1-3.919,3.4,50.682,50.682,0,0,1-4.087,3.2,51.056,51.056,0,0,1,3.919-3.4,51.119,51.119,0,0,1,4.087-3.2" transform="translate(-72.198 -117.389)" fill="#1a2e35"/>
        <path id="Trazado_169482" data-name="Trazado 169482" d="M133.716,220.008c.032.066-4.361,2.249-9.811,4.875s-9.9,4.7-9.927,4.637,4.361-2.248,9.812-4.875,9.894-4.7,9.926-4.636" transform="translate(-56.048 -108.187)" fill="#1a2e35"/>
        <path id="Trazado_169483" data-name="Trazado 169483" d="M137.311,210.667a1.663,1.663,0,0,1-.456.135c-.3.071-.729.161-1.266.26-1.073.2-2.565.425-4.223.592s-3.166.239-4.257.257c-.545.009-.987.008-1.292,0a1.654,1.654,0,0,1-.474-.043,13.586,13.586,0,0,1,1.759-.141c1.087-.066,2.586-.168,4.238-.333s3.141-.362,4.219-.514a13.557,13.557,0,0,1,1.752-.21" transform="translate(-61.636 -103.59)" fill="#1a2e35"/>
        <path id="Trazado_169484" data-name="Trazado 169484" d="M123.891,188.563a5.736,5.736,0,0,1-.889-.019l-2.417-.125c-2.041-.1-4.862-.192-7.979-.177s-5.937.142-7.977.263l-2.416.15a5.67,5.67,0,0,1-.889.029,5.711,5.711,0,0,1,.88-.132c.568-.069,1.392-.15,2.412-.234,2.039-.169,4.865-.322,7.989-.34s5.95.108,7.991.255c1.021.073,1.845.145,2.414.208a5.676,5.676,0,0,1,.881.122" transform="translate(-49.825 -92.436)" fill="#1a2e35"/>
        <path id="Trazado_169485" data-name="Trazado 169485" d="M133.535,166.254c-.02.071-3.311-.786-7.35-1.914s-7.3-2.1-7.279-2.168,3.31.786,7.35,1.914,7.3,2.1,7.279,2.168" transform="translate(-58.471 -79.745)" fill="#1a2e35"/>
        <path id="Trazado_169486" data-name="Trazado 169486" d="M131.034,144.078a.865.865,0,0,1-.24-.054l-.672-.2c-.583-.18-1.419-.465-2.444-.838a80.41,80.41,0,0,1-15.27-7.52c-.921-.585-1.656-1.074-2.153-1.427l-.571-.409c-.129-.1-.194-.149-.189-.157a.864.864,0,0,1,.219.113l.6.367c.515.326,1.264.79,2.2,1.353,1.862,1.128,4.476,2.618,7.455,4.087s5.754,2.629,7.783,3.417c1.014.394,1.839.705,2.411.915l.656.251a.884.884,0,0,1,.223.1" transform="translate(-53.843 -65.633)" fill="#1a2e35"/>
        <path id="Trazado_169487" data-name="Trazado 169487" d="M150.315,130.665c-.042.06-2.615-1.68-5.746-3.885s-5.636-4.042-5.594-4.1,2.614,1.679,5.746,3.885,5.636,4.041,5.594,4.1" transform="translate(-68.34 -60.326)" fill="#1a2e35"/>
        <path id="Trazado_169488" data-name="Trazado 169488" d="M141.391,89.784a.831.831,0,0,1,.193.141l.517.442,1.872,1.659,6.156,5.493,6.182,5.466,1.868,1.663.5.461c.113.108.169.167.163.174a.8.8,0,0,1-.2-.134l-.533-.424c-.459-.372-1.117-.918-1.924-1.6-1.614-1.363-3.825-3.269-6.235-5.41s-4.564-4.11-6.107-5.552c-.772-.721-1.392-1.31-1.815-1.722l-.483-.479c-.109-.112-.163-.174-.157-.18" transform="translate(-69.528 -44.151)" fill="#1a2e35"/>
        <path id="Trazado_169489" data-name="Trazado 169489" d="M172.585,90.693c.014-.011.136.114.345.352s.5.589.856,1.03c.707.882,1.648,2.131,2.623,3.555s1.8,2.755,2.361,3.734c.283.489.5.89.65,1.172a1.812,1.812,0,0,1,.2.449,14.2,14.2,0,0,1-1.012-1.523c-.6-.952-1.449-2.262-2.42-3.682s-1.885-2.681-2.553-3.59a14.233,14.233,0,0,1-1.053-1.5" transform="translate(-84.867 -44.598)" fill="#1a2e35"/>
        <g id="Grupo_118957" data-name="Grupo 118957" transform="translate(67.404 37.075)" opacity="0.2">
          <g id="Grupo_118956" data-name="Grupo 118956">
            <g id="Grupo_118955" data-name="Grupo 118955" clip-path="url(#clip-path-7)">
              <path id="Trazado_169490" data-name="Trazado 169490" d="M132.619,77.645l22.111,19.36,5.5-4.4L147.4,72.947a12.16,12.16,0,0,1-3.537,1.453c-2.475.707-9.763.9-11.239,3.245" transform="translate(-132.619 -72.947)"/>
            </g>
          </g>
        </g>
        <g id="Grupo_118960" data-name="Grupo 118960" transform="translate(92.017 24.975)" opacity="0.2">
          <g id="Grupo_118959" data-name="Grupo 118959">
            <g id="Grupo_118958" data-name="Grupo 118958" clip-path="url(#clip-path-8)">
              <path id="Trazado_169491" data-name="Trazado 169491" d="M181.044,49.56l10.8,27.025,6.9-2.162-2.3-23.44a12.174,12.174,0,0,1-3.825-.056c-2.553-.324-8.751-2.748-11.573-1.367" transform="translate(-181.044 -49.138)"/>
            </g>
          </g>
        </g>
        <g id="Grupo_118963" data-name="Grupo 118963" transform="translate(120.805 19.729)" opacity="0.3">
          <g id="Grupo_118962" data-name="Grupo 118962">
            <g id="Grupo_118961" data-name="Grupo 118961" clip-path="url(#clip-path-9)">
              <path id="Trazado_169492" data-name="Trazado 169492" d="M237.686,38.826l.724,29.348,6.468.311,6.548-22.524a10.613,10.613,0,0,1-3.807-1.577c-2.24-1.431-6.8-5.791-9.932-5.557" transform="translate(-237.686 -38.817)"/>
            </g>
          </g>
        </g>
        <g id="Grupo_118966" data-name="Grupo 118966" transform="translate(138.274 25.282)" opacity="0.2">
          <g id="Grupo_118965" data-name="Grupo 118965">
            <g id="Grupo_118964" data-name="Grupo 118964" clip-path="url(#clip-path-10)">
              <path id="Trazado_169493" data-name="Trazado 169493" d="M282.784,49.743,272.054,76.8l5.842,2.793,14.765-18.227a13.1,13.1,0,0,1-2.8-3.3c-1.407-2.255-3.8-7.421-7.073-8.325" transform="translate(-272.054 -49.743)"/>
            </g>
          </g>
        </g>
        <g id="Grupo_118969" data-name="Grupo 118969" transform="translate(154.217 42.165)" opacity="0.2">
          <g id="Grupo_118968" data-name="Grupo 118968">
            <g id="Grupo_118967" data-name="Grupo 118967" clip-path="url(#clip-path-11)">
              <path id="Trazado_169494" data-name="Trazado 169494" d="M323.408,82.961l-19.986,20.827,4.454,6L327.4,96.757a11.679,11.679,0,0,1-1.284-3.8c-.47-2.531-.538-7.143-2.712-9.994" transform="translate(-303.422 -82.961)"/>
            </g>
          </g>
        </g>
        <g id="Grupo_118972" data-name="Grupo 118972" transform="translate(163.066 65.676)" opacity="0.2">
          <g id="Grupo_118971" data-name="Grupo 118971">
            <g id="Grupo_118970" data-name="Grupo 118970" clip-path="url(#clip-path-12)">
              <path id="Trazado_169495" data-name="Trazado 169495" d="M347.745,129.219,320.833,140.3l2.233,6.876,23.415-2.541a13.686,13.686,0,0,1,.161-3.363c.3-2.557,2.983-8.267,1.1-12.048" transform="translate(-320.833 -129.219)"/>
            </g>
          </g>
        </g>
        <g id="Grupo_118975" data-name="Grupo 118975" transform="translate(166.351 94.996)" opacity="0.2">
          <g id="Grupo_118974" data-name="Grupo 118974">
            <g id="Grupo_118973" data-name="Grupo 118973" clip-path="url(#clip-path-13)">
              <path id="Trazado_169496" data-name="Trazado 169496" d="M356.88,186.9l-29.339,1.027-.244,6.47,22.381,6.548a8.707,8.707,0,0,1,.888-2.671c1.647-3.116,6.314-7.509,6.314-11.374" transform="translate(-327.297 -186.905)"/>
            </g>
          </g>
        </g>
        <g id="Grupo_118978" data-name="Grupo 118978" transform="translate(160.783 112.209)" opacity="0.2">
          <g id="Grupo_118977" data-name="Grupo 118977">
            <g id="Grupo_118976" data-name="Grupo 118976" clip-path="url(#clip-path-14)">
              <path id="Trazado_169497" data-name="Trazado 169497" d="M346.089,231.3l-27.014-10.529-2.732,5.87,18.378,14.576a17.29,17.29,0,0,1,3.19-2.422c2.24-1.43,7.556-3.74,8.177-7.5" transform="translate(-316.343 -220.773)"/>
            </g>
          </g>
        </g>
        <g id="Grupo_118981" data-name="Grupo 118981" transform="translate(45.359 55.85)" opacity="0.2">
          <g id="Grupo_118980" data-name="Grupo 118980">
            <g id="Grupo_118979" data-name="Grupo 118979" clip-path="url(#clip-path-15)">
              <path id="Trazado_169498" data-name="Trazado 169498" d="M290.224,240.664l-6.687,5.612c.506.53,9.418,15.675,14.909,25.038.075-.055.146-.12.224-.172,3.617-2.421,10.051-1.451,13.678-3.845Z" transform="translate(-184.787 -174.195)"/>
              <path id="Trazado_169499" data-name="Trazado 169499" d="M262.859,261.549l-9.983,3.4,4.727,27.1a6.9,6.9,0,0,1,.94-.26c4.707-.931,10.913,3.166,15.244,1.37a6.3,6.3,0,0,0,1.636-1.022Z" transform="translate(-169.71 -184.465)"/>
              <path id="Trazado_169500" data-name="Trazado 169500" d="M223.63,298.594l1.6-35.406L216.595,261l-6.423,30.484c.079.013.159.023.238.039,4.459.882,8.533,6.786,13.22,7.069" transform="translate(-148.71 -184.196)"/>
              <path id="Trazado_169501" data-name="Trazado 169501" d="M177.146,253.477s-11.406,15.277-17.369,23.5a7.214,7.214,0,0,1,.8.46c3.917,2.622,5.4,9.926,9.805,11.753a5.484,5.484,0,0,0,.62.21l15.933-30.159Z" transform="translate(-123.929 -180.496)"/>
              <path id="Trazado_169502" data-name="Trazado 169502" d="M147.386,229.276,123.061,246c.093.12.195.236.278.362,2.642,3.947,1.234,11.258,4.58,14.6a5.887,5.887,0,0,0,1.028.8c8.6-9.688,24.026-27.078,24.585-27.682Z" transform="translate(-105.874 -168.595)"/>
              <path id="Trazado_169503" data-name="Trazado 169503" d="M130.264,205.791l-28.76,4.645c.458,4.613-3.178,10.44-1.467,14.567a5.752,5.752,0,0,0,.371.727c10.064-5.011,31.093-15.435,31.968-15.493Z" transform="translate(-94.326 -157.046)"/>
              <path id="Trazado_169504" data-name="Trazado 169504" d="M123.614,166.68l-27.187-7.846c-.022.236-.053.471-.1.7-.9,4.568-7.083,8.733-7.083,13.566a5.934,5.934,0,0,0,.082.964h33.185Z" transform="translate(-89.246 -133.955)"/>
              <path id="Trazado_169505" data-name="Trazado 169505" d="M100.7,120c10.159,5.445,30.027,16.458,30.027,16.458l4.889-9.285L112.65,109.885c-.1.179-.194.361-.306.529-2.577,3.851-9.667,5.354-11.643,9.59" transform="translate(-94.878 -109.885)"/>
            </g>
          </g>
        </g>
        <path id="Trazado_169506" data-name="Trazado 169506" d="M239.65,113.979s-.013-.108-.032-.322a4.954,4.954,0,0,0-.134-.945,10.179,10.179,0,0,0-1.523-3.407c-.873-1.4-2.2-2.971-3.575-4.96a11.936,11.936,0,0,1-1.745-3.484,9.93,9.93,0,0,1-.009-4.425c.281-1.55.742-3.146,1.147-4.839a12.965,12.965,0,0,0,.4-5.4,6.161,6.161,0,0,0-1.263-2.572,11.836,11.836,0,0,0-2.26-2.006c-1.687-1.2-3.625-2.155-5.482-3.4A12.537,12.537,0,0,1,222.58,76a8.373,8.373,0,0,1-1.588-3.144c-.654-2.311-.8-4.785-1.295-7.255a11.494,11.494,0,0,0-1.252-3.587,6.1,6.1,0,0,0-2.9-2.5,16.013,16.013,0,0,0-3.887-1.039c-1.348-.222-2.728-.379-4.114-.625a13.068,13.068,0,0,1-4.074-1.282,9.623,9.623,0,0,1-3.133-3.034c-.844-1.213-1.569-2.514-2.342-3.8a20.242,20.242,0,0,0-2.642-3.662,6.247,6.247,0,0,0-4.009-1.966,15.4,15.4,0,0,0-4.647.546c-1.545.371-3.092.822-4.694,1.123a9.935,9.935,0,0,1-4.908-.092,16.841,16.841,0,0,1-4.336-2.5c-1.353-1-2.675-2.056-4.124-2.937a7.909,7.909,0,0,0-4.8-1.37l-.318.025c-.1.018-.208.045-.312.067-.208.049-.418.087-.624.145a9.923,9.923,0,0,0-1.2.47,15.763,15.763,0,0,0-2.253,1.308c-1.447.987-2.812,2.12-4.294,3.127a15.972,15.972,0,0,1-2.339,1.352,7.92,7.92,0,0,1-2.647.669,18.569,18.569,0,0,1-5.422-.773,36.79,36.79,0,0,0-5.389-1.131,8.385,8.385,0,0,0-2.729.183,5.978,5.978,0,0,0-2.39,1.313,18.234,18.234,0,0,0-3.356,4.487A30.83,30.83,0,0,1,127.38,54.9a7.993,7.993,0,0,1-2.287,1.814,13.04,13.04,0,0,1-2.773.947c-1.911.419-3.862.6-5.786.947a9.951,9.951,0,0,0-5.291,2.253,7.178,7.178,0,0,0-1.5,2.486A15.9,15.9,0,0,0,109,66.22c-.356,1.96-.52,3.974-1,5.954a10.352,10.352,0,0,1-1.082,2.864,8.231,8.231,0,0,1-2.037,2.3,48.082,48.082,0,0,1-5.178,3.315,23.256,23.256,0,0,0-2.52,1.745,8.226,8.226,0,0,0-1.972,2.3,5.931,5.931,0,0,0-.707,2.929,15.16,15.16,0,0,0,.356,3.067c.43,2.032,1.075,4.033,1.419,6.121A10.651,10.651,0,0,1,96.388,100a8.6,8.6,0,0,1-1.062,3.013c-1.059,1.858-2.441,3.486-3.667,5.215a17.263,17.263,0,0,0-1.64,2.712A6.386,6.386,0,0,0,90.011,117a17.055,17.055,0,0,0,1.637,2.715c1.224,1.731,2.608,3.359,3.669,5.216a8.637,8.637,0,0,1,1.07,3.011,10.558,10.558,0,0,1-.1,3.182c-.342,2.09-.988,4.092-1.418,6.124a15.286,15.286,0,0,0-.361,3.067,5.954,5.954,0,0,0,.7,2.932,8.187,8.187,0,0,0,1.967,2.3A23.386,23.386,0,0,0,99.7,147.3a48.474,48.474,0,0,1,5.18,3.314,8.274,8.274,0,0,1,2.04,2.3A10.292,10.292,0,0,1,108,155.776c.477,1.98.64,3.994,1,5.956a15.906,15.906,0,0,0,.741,2.873,7.156,7.156,0,0,0,1.5,2.487,9.932,9.932,0,0,0,5.29,2.257c1.924.349,3.876.528,5.787.947a13.077,13.077,0,0,1,2.774.946,7.988,7.988,0,0,1,2.288,1.813,30.811,30.811,0,0,1,3.187,4.786,18.207,18.207,0,0,0,3.357,4.488,5.968,5.968,0,0,0,2.391,1.314,8.383,8.383,0,0,0,2.729.183,36.786,36.786,0,0,0,5.39-1.132,18.592,18.592,0,0,1,5.423-.772,7.922,7.922,0,0,1,2.647.67,16.022,16.022,0,0,1,2.339,1.353c1.483,1.007,2.847,2.141,4.3,3.128a15.688,15.688,0,0,0,2.254,1.307,10.035,10.035,0,0,0,1.2.47c.206.057.416.1.624.145.1.022.207.05.313.067l.318.024a7.915,7.915,0,0,0,4.8-1.372c1.45-.882,2.772-1.942,4.125-2.938a16.79,16.79,0,0,1,4.337-2.5,9.942,9.942,0,0,1,4.909-.089c1.6.3,3.149.753,4.694,1.124a15.368,15.368,0,0,0,4.648.544,6.246,6.246,0,0,0,4.007-1.97A20.221,20.221,0,0,0,198,178.221c.773-1.284,1.5-2.585,2.342-3.8a9.612,9.612,0,0,1,3.135-3.032,13.076,13.076,0,0,1,4.075-1.281c1.387-.245,2.765-.4,4.114-.625a15.982,15.982,0,0,0,3.886-1.041,6.093,6.093,0,0,0,2.892-2.507,11.523,11.523,0,0,0,1.25-3.588c.5-2.471.64-4.945,1.3-7.255a8.358,8.358,0,0,1,1.59-3.143,12.564,12.564,0,0,1,2.595-2.215c1.857-1.249,3.795-2.207,5.481-3.4a11.867,11.867,0,0,0,2.26-2.007,6.156,6.156,0,0,0,1.26-2.573,8.626,8.626,0,0,0,.078-2.769,22.343,22.343,0,0,0-.48-2.625c-.4-1.692-.866-3.288-1.147-4.838a9.934,9.934,0,0,1,.011-4.425,11.936,11.936,0,0,1,1.746-3.483c1.379-1.989,2.7-3.555,3.575-4.96a10.159,10.159,0,0,0,1.523-3.407,4.9,4.9,0,0,0,.134-.945c.019-.213.032-.322.032-.322s0,.108-.018.322a4.685,4.685,0,0,1-.121.95,10.076,10.076,0,0,1-1.5,3.43c-.868,1.412-2.186,2.988-3.555,4.975a11.889,11.889,0,0,0-1.723,3.463,9.842,9.842,0,0,0,0,4.383c.283,1.542.747,3.134,1.157,4.83a22.444,22.444,0,0,1,.487,2.638,8.743,8.743,0,0,1-.074,2.809,6.279,6.279,0,0,1-1.282,2.631,11.955,11.955,0,0,1-2.282,2.035c-1.7,1.208-3.634,2.171-5.477,3.415a12.426,12.426,0,0,0-2.56,2.191,8.2,8.2,0,0,0-1.555,3.089c-.645,2.287-.787,4.757-1.282,7.245a11.677,11.677,0,0,1-1.266,3.642,6.274,6.274,0,0,1-2.969,2.582,16.126,16.126,0,0,1-3.928,1.058c-1.355.225-2.733.383-4.111.629a12.9,12.9,0,0,0-4.015,1.264,9.423,9.423,0,0,0-3.067,2.977c-.835,1.2-1.558,2.5-2.331,3.788a20.427,20.427,0,0,1-2.667,3.7,6.46,6.46,0,0,1-4.134,2.034,15.567,15.567,0,0,1-4.716-.545c-1.552-.372-3.1-.821-4.684-1.118a9.742,9.742,0,0,0-4.8.086,16.61,16.61,0,0,0-4.274,2.474c-1.348.994-2.673,2.058-4.14,2.952-.378.2-.739.442-1.138.611-.2.09-.39.189-.591.271l-.615.218a6.23,6.23,0,0,1-2.6.306l-.33-.026c-.109-.017-.215-.046-.323-.069-.214-.05-.433-.09-.645-.15a10.227,10.227,0,0,1-1.232-.48A16.027,16.027,0,0,1,159,187.267c-1.459-.994-2.826-2.128-4.3-3.125a15.807,15.807,0,0,0-2.3-1.332,7.677,7.677,0,0,0-2.566-.648,18.37,18.37,0,0,0-5.348.768,36.961,36.961,0,0,1-5.428,1.141,8.641,8.641,0,0,1-2.814-.19,6.22,6.22,0,0,1-2.488-1.364,18.423,18.423,0,0,1-3.409-4.548,30.6,30.6,0,0,0-3.159-4.745,7.755,7.755,0,0,0-2.215-1.757,12.865,12.865,0,0,0-2.716-.924c-1.889-.414-3.837-.593-5.777-.943a15.992,15.992,0,0,1-2.874-.755A6.39,6.39,0,0,1,109.5,164.7a16.143,16.143,0,0,1-.753-2.918c-.359-1.977-.524-3.988-.995-5.939a10.042,10.042,0,0,0-1.057-2.794,8.009,8.009,0,0,0-1.98-2.232,48.419,48.419,0,0,0-5.152-3.294,23.69,23.69,0,0,1-2.551-1.768,8.449,8.449,0,0,1-2.031-2.38,6.222,6.222,0,0,1-.734-3.054,15.544,15.544,0,0,1,.366-3.124c.435-2.049,1.079-4.049,1.415-6.111a10.281,10.281,0,0,0,.1-3.1,8.373,8.373,0,0,0-1.039-2.919c-1.041-1.825-2.42-3.45-3.654-5.192a17.284,17.284,0,0,1-1.661-2.756,6.645,6.645,0,0,1,.01-6.283,17.485,17.485,0,0,1,1.663-2.753c1.235-1.74,2.612-3.366,3.652-5.191a8.337,8.337,0,0,0,1.031-2.92,10.4,10.4,0,0,0-.1-3.1c-.339-2.06-.982-4.06-1.417-6.109a15.42,15.42,0,0,1-.362-3.124,6.2,6.2,0,0,1,.74-3.051A8.5,8.5,0,0,1,97.019,82.2a23.559,23.559,0,0,1,2.551-1.767,48.09,48.09,0,0,0,5.15-3.293,7.967,7.967,0,0,0,1.977-2.234,10.09,10.09,0,0,0,1.054-2.794c.47-1.952.635-3.962.994-5.938a16.154,16.154,0,0,1,.754-2.918,6.384,6.384,0,0,1,4.116-4.144,15.942,15.942,0,0,1,2.873-.754c1.94-.35,3.888-.529,5.776-.943a12.811,12.811,0,0,0,2.715-.925,7.746,7.746,0,0,0,2.214-1.757,30.647,30.647,0,0,0,3.158-4.745,18.428,18.428,0,0,1,3.409-4.547,6.225,6.225,0,0,1,2.488-1.364,8.609,8.609,0,0,1,2.813-.19,36.882,36.882,0,0,1,5.427,1.141,18.385,18.385,0,0,0,5.348.768,7.68,7.68,0,0,0,2.566-.648,15.728,15.728,0,0,0,2.3-1.331c1.47-1,2.837-2.131,4.3-3.125a15.992,15.992,0,0,1,2.287-1.325,10.189,10.189,0,0,1,1.231-.481c.212-.06.43-.1.644-.15.108-.022.215-.05.323-.069l.33-.025a6.229,6.229,0,0,1,2.6.3l.615.218c.2.082.394.181.591.27.4.17.76.407,1.138.611,1.468.893,2.792,1.958,4.14,2.951a16.665,16.665,0,0,0,4.273,2.475,9.726,9.726,0,0,0,4.8.088c1.588-.3,3.132-.746,4.684-1.117a15.583,15.583,0,0,1,4.715-.547,6.454,6.454,0,0,1,4.136,2.03,20.36,20.36,0,0,1,2.668,3.7c.774,1.288,1.5,2.587,2.33,3.788a9.433,9.433,0,0,0,3.066,2.979,12.9,12.9,0,0,0,4.014,1.266c1.378.246,2.756.4,4.111.629a16.188,16.188,0,0,1,3.929,1.057,6.278,6.278,0,0,1,2.972,2.579,11.659,11.659,0,0,1,1.268,3.642c.5,2.487.637,4.958,1.281,7.245A8.232,8.232,0,0,0,222.7,75.9a12.427,12.427,0,0,0,2.559,2.193c1.843,1.245,3.782,2.207,5.478,3.415a11.937,11.937,0,0,1,2.283,2.035,6.284,6.284,0,0,1,1.285,2.63,8.747,8.747,0,0,1,.075,2.809,22.335,22.335,0,0,1-.487,2.638c-.409,1.7-.874,3.289-1.157,4.83a9.848,9.848,0,0,0,0,4.384,11.891,11.891,0,0,0,1.722,3.463c1.369,1.988,2.688,3.563,3.555,4.975a10.081,10.081,0,0,1,1.5,3.43,4.693,4.693,0,0,1,.121.95c.014.214.018.322.018.322" transform="translate(-43.758 -18.984)" fill="#1a2e35"/>
        <path id="Trazado_169507" data-name="Trazado 169507" d="M201.2,324.326c.071.018-1.805,7.624-4.19,16.987s-4.376,16.941-4.447,16.923,1.805-7.623,4.191-16.988,4.376-16.94,4.446-16.921" transform="translate(-94.69 -159.485)" fill="#1a2e35"/>
        <path id="Trazado_169508" data-name="Trazado 169508" d="M238.831,142.266a46.137,46.137,0,1,1-46.137-46.137,46.138,46.138,0,0,1,46.137,46.137" transform="translate(-72.068 -47.271)" fill="#fff"/>
        <path id="Trazado_169509" data-name="Trazado 169509" d="M177.053,138.64c-.636.636-4.135,7-4.453,12.246s.437,34.723.437,34.723l.136,1.953c8.306,9.713,38.495,24.167,65.688-.049l1.524-18.129L235.9,131.006l-15.586-3.817-3.655-5.924-24.359,5.7-2.172,5.136Z" transform="translate(-84.836 -59.631)" fill="#4c53b5"/>
        <path id="Trazado_169510" data-name="Trazado 169510" d="M252.8,63.247a71.754,71.754,0,0,0,2.5-12.115,25.043,25.043,0,0,0-1.608-12.152c-.248-.575-2.307-4.41-2.926-4.317-.443.067.89,3.675.685,4.073A21.235,21.235,0,0,0,249.7,51.224a55.912,55.912,0,0,0,3.1,12.023" transform="translate(-122.671 -17.045)" fill="#1a2e35"/>
        <path id="Trazado_169511" data-name="Trazado 169511" d="M222.094,42.1c-.2-10.353-6.386-18.868-16.729-18.385l-.953.1a18.512,18.512,0,0,0-16.569,18.861c.221,8.972.579,18.883,1.141,23.65,1.163,9.868,11.209,10.363,11.209,10.363.022,0,.46,6.49.46,6.49l4.245,4.611,19.675-12.186Z" transform="translate(-92.368 -11.654)" fill="#ffc09d"/>
        <path id="Trazado_169512" data-name="Trazado 169512" d="M212.146,123.124a24,24,0,0,0,12.464-5.16,12.31,12.31,0,0,1-12.029,9.1Z" transform="translate(-104.322 -58.008)" fill="#ff9b6c"/>
        <path id="Trazado_169513" data-name="Trazado 169513" d="M199.028,75.5a1.419,1.419,0,0,0,1.511,1.28,1.357,1.357,0,0,0,1.32-1.426,1.419,1.419,0,0,0-1.509-1.281,1.358,1.358,0,0,0-1.322,1.427" transform="translate(-97.869 -36.424)" fill="#1a2e35"/>
        <path id="Trazado_169514" data-name="Trazado 169514" d="M192.825,66.939c.194.166,1.18-.739,2.7-.895,1.515-.177,2.712.486,2.857.283.072-.09-.141-.4-.663-.706a3.9,3.9,0,0,0-2.312-.454,3.741,3.741,0,0,0-2.124.942c-.429.408-.552.757-.457.83" transform="translate(-94.806 -32.034)" fill="#1a2e35"/>
        <path id="Trazado_169515" data-name="Trazado 169515" d="M225.422,73.257a1.419,1.419,0,0,0,1.511,1.28,1.357,1.357,0,0,0,1.32-1.426,1.42,1.42,0,0,0-1.51-1.281,1.359,1.359,0,0,0-1.321,1.427" transform="translate(-110.848 -35.321)" fill="#1a2e35"/>
        <path id="Trazado_169516" data-name="Trazado 169516" d="M222.217,65.063c.195.165,1.182-.739,2.7-.895,1.515-.177,2.711.486,2.856.283.072-.09-.139-.4-.664-.705a3.891,3.891,0,0,0-2.311-.455,3.748,3.748,0,0,0-2.124.942c-.427.408-.551.757-.457.83" transform="translate(-109.26 -31.111)" fill="#1a2e35"/>
        <path id="Trazado_169517" data-name="Trazado 169517" d="M210.085,78.574a10.1,10.1,0,0,0-2.513-.185c-.392,0-.767-.038-.86-.3a1.984,1.984,0,0,1,.137-1.177l.836-3.073c1.149-4.372,1.938-7.95,1.762-7.994s-1.252,3.462-2.4,7.834q-.411,1.615-.785,3.086a2.258,2.258,0,0,0-.041,1.543.979.979,0,0,0,.7.5,2.644,2.644,0,0,0,.668.022,9.955,9.955,0,0,0,2.5-.26" transform="translate(-101.344 -32.381)" fill="#1a2e35"/>
        <path id="Trazado_169518" data-name="Trazado 169518" d="M218.687,92.025c-.249.012-.078,1.66-1.366,2.979s-3.061,1.322-3.05,1.554c-.012.106.425.279,1.169.221a4.132,4.132,0,0,0,2.556-1.2,3.594,3.594,0,0,0,1.039-2.486c-.01-.7-.237-1.085-.348-1.063" transform="translate(-105.367 -45.252)" fill="#1a2e35"/>
        <path id="Trazado_169519" data-name="Trazado 169519" d="M221.119,53.226c.193.4,1.689.042,3.493.069,1.8-.009,3.3.36,3.493-.035.087-.188-.2-.55-.828-.888a6.074,6.074,0,0,0-5.322-.026c-.626.332-.921.692-.836.881" transform="translate(-108.727 -25.445)" fill="#1a2e35"/>
        <path id="Trazado_169520" data-name="Trazado 169520" d="M192.988,56.8c.3.317,1.312-.151,2.568-.3,1.251-.194,2.348-.013,2.554-.4.089-.186-.115-.514-.614-.791a3.743,3.743,0,0,0-4.128.565c-.407.4-.515.772-.38.928" transform="translate(-94.874 -27.011)" fill="#1a2e35"/>
        <path id="Trazado_169521" data-name="Trazado 169521" d="M255.168,73.914c.161-.09,6.578-2.724,7.074,4.054s-6.411,5.878-6.437,5.685-.637-9.739-.637-9.739" transform="translate(-125.477 -36.062)" fill="#ffc09d"/>
        <path id="Trazado_169522" data-name="Trazado 169522" d="M260.12,83c.028-.024.124.074.33.15a1.182,1.182,0,0,0,.884-.046,2.929,2.929,0,0,0,1.16-2.72,3.921,3.921,0,0,0-.454-1.667,1.369,1.369,0,0,0-.954-.841.6.6,0,0,0-.673.375c-.077.2-.024.329-.059.343-.018.019-.154-.1-.12-.387a.755.755,0,0,1,.236-.444.894.894,0,0,1,.64-.22,1.663,1.663,0,0,1,1.31.96,4.021,4.021,0,0,1,.548,1.86,3.074,3.074,0,0,1-1.508,3.053,1.267,1.267,0,0,1-1.093-.1c-.222-.152-.269-.3-.246-.315" transform="translate(-127.91 -38.132)" fill="#ff9b6c"/>
        <path id="Trazado_169523" data-name="Trazado 169523" d="M194.823,29.915c-1.136-.535,1.929-4.3,4.547-5.7,3.958-2.112,10.11-3.651,13.937-2.827,4.608.992,8.513,3,11.05,6.974a26.731,26.731,0,0,1,3.871,13.428A8.121,8.121,0,0,1,227.54,46c-.851,1.56-2.608,2.622-2.395,4.685a2.847,2.847,0,0,1-.571,2.116c-1.156,1.4-2.754.257-3.532-.941-1.662-2.561-2.032-5.721-2.359-8.756a19.874,19.874,0,0,1,.014-6.478c.259-1.152.723-2.254.918-3.419a4.083,4.083,0,0,0-.7-3.355,4.214,4.214,0,0,0-.587-.521,7.087,7.087,0,0,0-7.1-.884c-3.732,1.6-10.124,4.035-11.911,2.848A10.485,10.485,0,0,1,196.08,28.4Z" transform="translate(-95.683 -10.406)" fill="#1a2e35"/>
        <path id="Trazado_169524" data-name="Trazado 169524" d="M168.289,155.45c-.393.543-5.949,2.388-8.056,5.9s-4.193,19.277-4.193,19.277L154.7,191.005c2.643,4.181,6.188,9.716,9.949,13.62Z" transform="translate(-76.072 -76.442)" fill="#4c53b5"/>
        <g id="Grupo_118984" data-name="Grupo 118984" transform="translate(133.957 94.231)" opacity="0.3">
          <g id="Grupo_118983" data-name="Grupo 118983">
            <g id="Grupo_118982" data-name="Grupo 118982" clip-path="url(#clip-path-16)">
              <path id="Trazado_169525" data-name="Trazado 169525" d="M263.563,185.4a26.766,26.766,0,0,0,1.2,6.254,9,9,0,0,0,3.866,4.908,11.015,11.015,0,0,1,2.313,1.323c.7.652,1.055,1.6,1.689,2.315a6.651,6.651,0,0,0,2.852,1.67,25.055,25.055,0,0,0,9.463,1.508c.1-1.088.107-5.084.206-6.172Z" transform="translate(-263.563 -185.401)"/>
            </g>
          </g>
        </g>
        <path id="Trazado_169526" data-name="Trazado 169526" d="M289.222,140.431s7,2.072,9.057,5.056,5.689,14.549,6.435,16.694.093,7.119-1.306,10.694-3.826,6.653-8.022,7.119-10.821-1.958-12.311-3.544-2.114-5.144-2.114-5.144a39.358,39.358,0,0,0,5.5-1.379" transform="translate(-138.16 -69.056)" fill="#4c53b5"/>
        <path id="Trazado_169527" data-name="Trazado 169527" d="M286.381,169.926a.367.367,0,0,1-.087.038l-.264.1c-.235.08-.585.2-1.047.335a37.513,37.513,0,0,1-4.088.979l.056-.08a17.282,17.282,0,0,0,.715,2.57,10.269,10.269,0,0,0,.606,1.374,4.853,4.853,0,0,0,.939,1.278,6.782,6.782,0,0,0,1.417.934,16.926,16.926,0,0,0,1.648.757A25.985,25.985,0,0,0,290,179.385a18.806,18.806,0,0,0,4.18.538c.364.016.727-.033,1.094-.051a9.746,9.746,0,0,0,1.092-.2,7.624,7.624,0,0,0,2.105-.817,9.512,9.512,0,0,0,3.339-3.259,17.269,17.269,0,0,0,1.984-4.5,25.869,25.869,0,0,0,.809-3.728,17.7,17.7,0,0,0,.182-3.686,6.466,6.466,0,0,0-.364-1.74l-.562-1.691-1.092-3.269c-.721-2.124-1.433-4.134-2.146-6a37.1,37.1,0,0,0-2.253-5.05,5.983,5.983,0,0,0-1.582-1.77A13.544,13.544,0,0,0,295,142.973a28.071,28.071,0,0,0-3.1-1.5c-.876-.363-1.568-.617-2.039-.783l-.536-.188a1.2,1.2,0,0,1-.181-.07.927.927,0,0,1,.189.044l.545.164c.477.15,1.176.388,2.06.738a26.882,26.882,0,0,1,3.139,1.468,13.539,13.539,0,0,1,1.813,1.191,6.143,6.143,0,0,1,1.637,1.8,36.755,36.755,0,0,1,2.3,5.068c.723,1.863,1.443,3.873,2.172,6l1.1,3.268.564,1.688a6.759,6.759,0,0,1,.38,1.8,17.917,17.917,0,0,1-.18,3.743,25.967,25.967,0,0,1-.816,3.765,17.47,17.47,0,0,1-2.018,4.572,9.752,9.752,0,0,1-3.434,3.341,7.892,7.892,0,0,1-2.172.837,9.879,9.879,0,0,1-1.123.2c-.377.019-.751.067-1.121.049a18.906,18.906,0,0,1-4.233-.558A26.078,26.078,0,0,1,286.2,178.4a17.088,17.088,0,0,1-1.664-.776,6.928,6.928,0,0,1-1.452-.973,5.007,5.007,0,0,1-.966-1.333,10.421,10.421,0,0,1-.6-1.4,17.091,17.091,0,0,1-.7-2.6l-.013-.069.069-.012c1.789-.305,3.163-.658,4.091-.912l1.056-.3.27-.077a.346.346,0,0,1,.093-.02" transform="translate(-138.082 -69.055)" fill="#1a2e35"/>
        <path id="Trazado_169528" data-name="Trazado 169528" d="M306.379,182.087c-.052.012-.211-.863-.8-2.152a14.727,14.727,0,0,0-3.16-4.487,10.35,10.35,0,0,0-2.456-1.749l-.62-.277a5.843,5.843,0,0,0-.607-.2,5.708,5.708,0,0,0-1.122-.232l-.254-.039h-.692a3.25,3.25,0,0,0-.714.062,2.848,2.848,0,0,1-.618.063,2.79,2.79,0,0,1,.6-.165,2.982,2.982,0,0,1,.724-.108l.459-.021.252-.01.262.031a5.581,5.581,0,0,1,1.163.206,5.7,5.7,0,0,1,.631.192l.643.274a10.123,10.123,0,0,1,2.532,1.776,13.813,13.813,0,0,1,3.15,4.6,8,8,0,0,1,.334.909,6.024,6.024,0,0,1,.2.7,2.789,2.789,0,0,1,.1.614" transform="translate(-145.23 -84.962)" fill="#1a2e35"/>
        <path id="Trazado_169529" data-name="Trazado 169529" d="M311.424,172.722a12.911,12.911,0,0,0-1.056-2.133,8.339,8.339,0,0,0-4.464-3.379,14.369,14.369,0,0,0-5.7-.313l-1.742.208a3.076,3.076,0,0,1-.643.053,2.987,2.987,0,0,1,.627-.155c.408-.081,1-.19,1.736-.293a13.575,13.575,0,0,1,5.8.246,7.974,7.974,0,0,1,2.824,1.543,8.343,8.343,0,0,1,1.719,1.988,7.2,7.2,0,0,1,.747,1.6,2.4,2.4,0,0,1,.151.63" transform="translate(-146.453 -81.881)" fill="#1a2e35"/>
        <path id="Trazado_169530" data-name="Trazado 169530" d="M306.176,163.287a15.572,15.572,0,0,0-8.284.326,4.128,4.128,0,0,1,1.147-.481,11.56,11.56,0,0,1,5.955-.234,4.128,4.128,0,0,1,1.182.389" transform="translate(-146.487 -79.965)" fill="#1a2e35"/>
        <path id="Trazado_169531" data-name="Trazado 169531" d="M291.447,143.871c.042.007-.059.715-.141,1.862a28.068,28.068,0,0,0,.754,8.766l-.184.058c-.208-.587-.372-1.064-.479-1.4a2.07,2.07,0,0,1-.14-.526,2.08,2.08,0,0,1,.24.488c.138.321.329.787.559,1.366l-.183.059a23.358,23.358,0,0,1-.754-8.833c.064-.576.139-1.039.2-1.357a1.859,1.859,0,0,1,.126-.488" transform="translate(-143.091 -70.748)" fill="#1a2e35"/>
        <path id="Trazado_169532" data-name="Trazado 169532" d="M265.463,118.214s-3.637,0-4.092,4.369a60.3,60.3,0,0,0,0,8.079c0,1.469-.647,6.692-.647,6.692s-2.481,2.2-2.439,4.844a3.706,3.706,0,0,0,1.931,3.468,4.484,4.484,0,0,0,1.049,4.827s-1.056,2.437-.188,4.077a3.9,3.9,0,0,0,2.182,1.694,2.479,2.479,0,0,0,1.5,3.41,10.819,10.819,0,0,0,3.778.464l2.713-.052,2.391,1.319s4.092-1.783,4.2-4.2l.1-2.413a49.061,49.061,0,0,1-1.259-5.246c-.105-1.259.944-4.3.315-5.666s-2.833-2.166-2.623-4.073a4.523,4.523,0,0,0-1.154-4.006c-.944-1.05-5.118-3.148-5.118-3.148a19.707,19.707,0,0,1-1.072-5.142c0-2.1,2.1-8.5-1.574-9.3" transform="translate(-127.01 -58.131)" fill="#ffc09d"/>
        <path id="Trazado_169533" data-name="Trazado 169533" d="M270.271,148.191a5.408,5.408,0,0,1-1.006.653c-.639.374-1.53.875-2.523,1.414s-1.9,1.014-2.561,1.346a5.412,5.412,0,0,1-1.1.489,5.436,5.436,0,0,1,1.008-.654c.638-.374,1.53-.875,2.522-1.413s1.9-1.013,2.56-1.345a5.458,5.458,0,0,1,1.1-.49" transform="translate(-129.369 -72.87)" fill="#ff9b6c"/>
        <path id="Trazado_169534" data-name="Trazado 169534" d="M272.314,164.357c.011.015-.1.115-.317.284s-.536.4-.946.665a18.776,18.776,0,0,1-7.093,2.715c-.483.076-.876.121-1.149.137a1.316,1.316,0,0,1-.426,0,15.594,15.594,0,0,1,1.541-.321,23.2,23.2,0,0,0,7.03-2.691,15.307,15.307,0,0,1,1.361-.789" transform="translate(-129.025 -80.82)" fill="#ff9b6c"/>
        <path id="Trazado_169535" data-name="Trazado 169535" d="M286.686,159.216c.066.023-.07.489-.5.879s-.905.485-.922.417.364-.261.744-.613.61-.716.68-.683" transform="translate(-140.276 -78.293)" fill="#ff9b6c"/>
        <path id="Trazado_169536" data-name="Trazado 169536" d="M274.626,178.513a7.9,7.9,0,0,1-1.521.557,29.729,29.729,0,0,1-7.706,1.24,7.871,7.871,0,0,1-1.619-.051,12.941,12.941,0,0,1,1.61-.136c.993-.07,2.362-.2,3.861-.44s2.839-.548,3.8-.793a12.92,12.92,0,0,1,1.572-.376" transform="translate(-129.712 -87.78)" fill="#ff9b6c"/>
        <path id="Trazado_169537" data-name="Trazado 169537" d="M291.046,172.276a6.965,6.965,0,0,1,.279-.778,4.4,4.4,0,0,0-.448-3.752,6.854,6.854,0,0,1-.454-.691c.02-.023.291.164.609.585a3.985,3.985,0,0,1,.469,3.923,1.667,1.667,0,0,1-.454.713" transform="translate(-142.812 -82.147)" fill="#ff9b6c"/>
        <path id="Trazado_169538" data-name="Trazado 169538" d="M276.809,192.958a5.271,5.271,0,0,1-1.292.3,19.871,19.871,0,0,1-6.389-.018,5.316,5.316,0,0,1-1.29-.312,8.631,8.631,0,0,1,1.316.127,28.114,28.114,0,0,0,6.338.018,8.751,8.751,0,0,1,1.317-.119" transform="translate(-131.708 -94.869)" fill="#ff9b6c"/>
        <path id="Trazado_169539" data-name="Trazado 169539" d="M269.269,136.208c.015.028-.165.165-.5.286a3.2,3.2,0,0,1-2.714-.323c-.3-.2-.444-.373-.423-.4a4.552,4.552,0,0,0,3.641.433" transform="translate(-130.62 -66.764)" fill="#ff9b6c"/>
        <path id="Trazado_169540" data-name="Trazado 169540" d="M291.793,177.934a1,1,0,0,1,.058.392,4.491,4.491,0,0,1-.126,1.072c-.1.445-.266.958-.426,1.525a4.311,4.311,0,0,0-.19,1.851c.087.643.569,1.165.645,1.818a2.421,2.421,0,0,1-.4,1.573,5.462,5.462,0,0,1-.656.855c-.173.184-.279.277-.292.265-.041-.03.35-.446.786-1.214a2.31,2.31,0,0,0,.321-1.444c-.061-.552-.548-1.072-.664-1.807a4.342,4.342,0,0,1,.217-1.964c.176-.574.36-1.074.479-1.5a9.524,9.524,0,0,0,.249-1.419" transform="translate(-142.804 -87.498)" fill="#ff9b6c"/>
        <path id="Trazado_169541" data-name="Trazado 169541" d="M291.452,184.215a1.8,1.8,0,0,1,.17.477c.091.313.213.768.328,1.34a12.02,12.02,0,0,1,.242,2.04,5.449,5.449,0,0,1-.459,2.49,7.125,7.125,0,0,1-1.562,1.99,14.267,14.267,0,0,1-1.614,1.267c-.482.327-.886.571-1.17.73a1.784,1.784,0,0,1-.456.222c-.022-.036.587-.419,1.518-1.1A16.771,16.771,0,0,0,290,192.374a7.212,7.212,0,0,0,1.491-1.928,5.4,5.4,0,0,0,.454-2.372,13.682,13.682,0,0,0-.183-2.01c-.187-1.14-.356-1.84-.314-1.85" transform="translate(-141.097 -90.587)" fill="#1a2e35"/>
        <path id="Trazado_169542" data-name="Trazado 169542" d="M211.887,146.935a3.931,3.931,0,0,1-.589-.44l-1.54-1.274-1.055-.89a3.024,3.024,0,0,0-.6-.43.745.745,0,0,0-.681-.023c-.439.229-.731.792-1.106,1.259l-1.12,1.509-1.75,2.341-.329.44.1-.538a26.488,26.488,0,0,1,1.265-4.434c.2-.531.385-.946.516-1.226a1.985,1.985,0,0,1,.225-.422,2.153,2.153,0,0,1-.148.454c-.107.29-.263.712-.446,1.247a31.143,31.143,0,0,0-1.165,4.427l-.224-.1,1.74-2.349,1.124-1.506.538-.716a1.968,1.968,0,0,1,.671-.609.985.985,0,0,1,.888.036,3.147,3.147,0,0,1,.64.473l1.034.914,1.485,1.338a3.932,3.932,0,0,1,.521.518" transform="translate(-99.883 -70.224)" fill="#1a2e35"/>
        <path id="Trazado_169543" data-name="Trazado 169543" d="M243.079,142.473a1.035,1.035,0,0,1-.2.177l-.6.468-2.239,1.685-7.478,5.5-.113.084-.076-.119-.185-.29-3.753-5.924.137.044a28,28,0,0,0-4.166,2.078c-.481.291-.851.532-1.1.7a2.473,2.473,0,0,1-.4.24,2.217,2.217,0,0,1,.356-.3c.241-.182.6-.441,1.074-.75a25.084,25.084,0,0,1,4.151-2.175l.086-.036.051.079,3.786,5.9.185.29-.19-.036,7.525-5.44,2.288-1.618.629-.428a1.042,1.042,0,0,1,.23-.135" transform="translate(-109.613 -70.06)" fill="#1a2e35"/>
        <path id="Trazado_169544" data-name="Trazado 169544" d="M172.789,182.243a1.857,1.857,0,0,1,.028.359c.007.262.016.6.028,1.029.017.924.041,2.208.071,3.783.06,3.194.188,7.6.354,12.477s.263,9.289.276,12.485c.006,1.6,0,2.891-.013,3.784-.009.425-.016.767-.022,1.029a1.813,1.813,0,0,1-.025.359,1.858,1.858,0,0,1-.028-.359c-.007-.261-.016-.6-.028-1.028-.017-.924-.041-2.208-.071-3.783-.061-3.194-.189-7.605-.354-12.479s-.263-9.287-.276-12.483c-.006-1.6,0-2.891.013-3.785.009-.425.016-.767.022-1.029a1.813,1.813,0,0,1,.025-.359" transform="translate(-84.937 -89.617)" fill="#1a2e35"/>
        <path id="Trazado_169545" data-name="Trazado 169545" d="M219.581,217.252a.622.622,0,0,1-.026-.146c-.013-.112-.028-.254-.049-.432-.039-.4-.094-.955-.163-1.662-.141-1.444-.3-3.536-.466-6.125s-.3-5.675-.389-9.1-.093-7.2-.012-11.157.274-7.726.5-11.149.506-6.5.785-9.078.528-4.663.731-6.1c.1-.7.178-1.256.235-1.653.028-.176.05-.318.068-.429a.618.618,0,0,1,.032-.145.6.6,0,0,1-.005.148c-.011.112-.024.255-.042.433-.045.4-.107.953-.186,1.659-.172,1.439-.4,3.525-.648,6.1s-.5,5.655-.728,9.075-.385,7.185-.476,11.139-.069,7.72-.009,11.146.191,6.51.333,9.1.272,4.682.382,6.127c.048.708.086,1.266.113,1.666.009.178.017.321.022.434a.6.6,0,0,1,0,.148" transform="translate(-107.408 -78.715)" fill="#1a2e35"/>
        <path id="Trazado_169546" data-name="Trazado 169546" d="M169,104.918s-.179.126-.537.36l-1.589,1.033c-.7.454-1.5,1.1-2.49,1.812-.485.367-.972.807-1.513,1.253l-.83.7c-.281.245-.551.519-.839.789a45.44,45.44,0,0,0-7.352,8.825l-.9,1.454c-.319.486-.566,1.024-.858,1.547-.277.531-.586,1.057-.849,1.616l-.781,1.711c-.129.291-.273.578-.391.878s-.23.6-.346.911c-.229.612-.475,1.228-.7,1.861-.376,1.289-.851,2.588-1.134,3.973a46.751,46.751,0,0,0-.715,18.334,46.016,46.016,0,0,0,73.372,29.139,48.483,48.483,0,0,0,4.546-3.965l1.031-1.077c.347-.354.683-.718,1-1.1l.967-1.116.909-1.154a45.656,45.656,0,0,0,8.94-20.26,46.525,46.525,0,0,0,.6-5.188c.054-.856.053-1.707.082-2.551-.016-.843-.062-1.68-.091-2.509q-.024-.622-.049-1.239c-.024-.411-.091-.816-.135-1.221q-.147-1.214-.291-2.407c-.126-.79-.309-1.564-.457-2.335a21.153,21.153,0,0,0-.53-2.272q-.32-1.111-.633-2.2a9.252,9.252,0,0,0-.359-1.067l-.392-1.043c-.271-.687-.492-1.387-.795-2.043l-.908-1.941a45.679,45.679,0,0,0-8.769-12.387,47.762,47.762,0,0,0-9.061-7.061l-1.94-1.114a8.924,8.924,0,0,0-.9-.466l-.856-.407-1.521-.725c-.458-.233-.908-.365-1.292-.526l-1.767-.685c-.4-.156-.6-.242-.6-.242s.207.069.608.216l1.777.661c.386.157.838.285,1.3.514l1.528.715.86.4a9.026,9.026,0,0,1,.908.46l1.95,1.106a47.514,47.514,0,0,1,9.113,7.045,45.7,45.7,0,0,1,8.832,12.409l.916,1.947c.305.658.53,1.36.8,2.049l.4,1.047a9.206,9.206,0,0,1,.362,1.071l.639,2.208a21.227,21.227,0,0,1,.536,2.281c.151.775.335,1.552.464,2.346q.146,1.2.3,2.418c.044.407.112.814.138,1.226s.034.828.051,1.245c.03.833.077,1.673.095,2.52-.028.848-.026,1.7-.079,2.564a46.747,46.747,0,0,1-.6,5.214,45.861,45.861,0,0,1-8.969,20.376l-.913,1.161-.972,1.122c-.319.381-.655.747-1,1.1l-1.036,1.083a48.743,48.743,0,0,1-4.569,3.989,46.25,46.25,0,0,1-73.747-29.311,46.855,46.855,0,0,1,.75-18.413c.288-1.39.767-2.693,1.148-3.986.227-.635.475-1.253.706-1.867q.177-.46.35-.913c.119-.3.265-.589.395-.88l.788-1.716c.266-.56.577-1.087.857-1.619.3-.523.545-1.062.866-1.549l.911-1.456a45.2,45.2,0,0,1,7.406-8.82c.29-.269.562-.543.845-.787l.836-.7c.544-.443,1.035-.881,1.524-1.246.992-.709,1.806-1.346,2.509-1.794l1.6-1.011c.362-.227.551-.337.551-.337" transform="translate(-71.972 -49.577)" fill="#1a2e35"/>
      </g>
    </g>
  </g>
</svg>
