<svg id="Grupo_118942" data-name="Grupo 118942" xmlns="http://www.w3.org/2000/svg" xmlns:xlink="http://www.w3.org/1999/xlink" width="229.147" height="223.864" viewBox="0 0 229.147 223.864">
  <defs>
    <clipPath id="clip-path">
      <rect id="Rectángulo_43513" data-name="Rectángulo 43513" width="229.147" height="223.864" fill="none"/>
    </clipPath>
    <clipPath id="clip-path-3">
      <rect id="Rectángulo_43507" data-name="Rectángulo 43507" width="1.706" height="1.702" fill="none"/>
    </clipPath>
    <clipPath id="clip-path-4">
      <rect id="Rectángulo_43508" data-name="Rectángulo 43508" width="21.912" height="1.755" fill="none"/>
    </clipPath>
    <clipPath id="clip-path-5">
      <rect id="Rectángulo_43509" data-name="Rectángulo 43509" width="12.486" height="13.335" fill="none"/>
    </clipPath>
    <clipPath id="clip-path-6">
      <rect id="Rectángulo_43510" data-name="Rectángulo 43510" width="1.807" height="1.826" fill="none"/>
    </clipPath>
    <clipPath id="clip-path-7">
      <rect id="Rectángulo_43511" data-name="Rectángulo 43511" width="18.942" height="18.546" fill="none"/>
    </clipPath>
  </defs>
  <g id="Grupo_118941" data-name="Grupo 118941" clip-path="url(#clip-path)">
    <g id="Grupo_118940" data-name="Grupo 118940">
      <g id="Grupo_118939" data-name="Grupo 118939" clip-path="url(#clip-path)">
        <path id="Trazado_169274" data-name="Trazado 169274" d="M201.889,411.147a4.091,4.091,0,0,1-1.125-5.016,4.464,4.464,0,0,1,2.371-1.67,9.646,9.646,0,0,0,2.6-1.347c1.41-1.2,1.8-3.19,2.733-4.79a5.987,5.987,0,0,1,5.2-3.115c2.425.11,4.447,2.091,5.365,4.349a19.457,19.457,0,0,1,.967,7.2c.011,1.349-.049,2.869-1.039,3.78a4.87,4.87,0,0,1-3.525.812l-13.252-.407" transform="translate(-103.412 -204.045)" fill="#f5f5f5"/>
        <path id="Trazado_169275" data-name="Trazado 169275" d="M218.793,352.822H183.94l6.278,37.436a4.18,4.18,0,0,0,2.976,3.333c.04.013.082.022.122.033.1.027.2.062.31.08a4.433,4.433,0,0,0,.709.082l.006.036.17-.027h15.535a4.354,4.354,0,0,0,.853-.085,4.2,4.2,0,0,0,3.526-3.659l3.026-25.794.136-1.025h-.016l1.2-10.215ZM212.218,376.7h-3.577L209,365.837h4.144Zm1.276-10.864h3.424L215.643,376.7h-3.078Zm-10.219,22.909-.217-9.439h5.15l-.313,9.439Zm-5.568-9.439h5l.217,9.439H198.44Zm.387,9.439h-4.2c-.4-2.549-.918-5.86-1.479-9.439h4.942ZM197.5,376.7l-.844-10.864H202.4l.251,10.864Zm5.493,0-.25-10.864h5.908L208.3,376.7Zm-.31-13.47-.232-10.062h6.621l-.334,10.062Zm-.346,0h-5.884l-.782-10.062h6.434Zm-6.23,0h-6.226c-.22-1.39-.429-2.705-.618-3.888-.649-4.068-.893-5.6-1.029-6.173h7.09Zm.2,2.606.844,10.864h-5.148c-.173-1.1-.348-2.217-.524-3.333-.4-2.565-.808-5.129-1.187-7.531ZM191.659,376.7H188.3l-1.822-10.864h3.474c.531,3.357,1.119,7.094,1.712,10.864m.409,2.606c.513,3.266,1.017,6.487,1.479,9.439h-3.232l-1.583-9.439Zm16.173,9.439.313-9.439H212l-.806,9.439Zm.847-25.514.334-10.062h4.806l-.86,10.062Zm-21.181-10.062c.138.727.774,4.686,1.627,10.062h-3.5l-1.687-10.062Zm26.322,35.576h-2.694l.806-9.439h2.995Zm2.994-25.514h-3.507l.86-10.062H218.4Z" transform="translate(-94.969 -182.164)" fill="#9da1d8"/>
        <rect id="Rectángulo_43494" data-name="Rectángulo 43494" width="17.228" height="34.149" transform="translate(0 39.961)" fill="#4c53b5"/>
        <rect id="Rectángulo_43495" data-name="Rectángulo 43495" width="18.614" height="34.149" transform="translate(17.89 39.961)" fill="#4c53b5"/>
        <rect id="Rectángulo_43496" data-name="Rectángulo 43496" width="18.614" height="32.995" transform="translate(17.89 76.496)" fill="#4c53b5"/>
        <path id="Trazado_169276" data-name="Trazado 169276" d="M80.4,48.343H100V18.051h.663V48.343H116.62V17.378H80.4Z" transform="translate(-41.512 -8.972)" fill="#4c53b5"/>
        <rect id="Rectángulo_43497" data-name="Rectángulo 43497" width="15.953" height="34.149" transform="translate(59.155 39.961)" fill="#4c53b5"/>
        <rect id="Rectángulo_43498" data-name="Rectángulo 43498" width="15.953" height="32.995" transform="translate(59.155 76.496)" fill="#4c53b5"/>
        <rect id="Rectángulo_43499" data-name="Rectángulo 43499" width="17.228" height="32.995" transform="translate(0 76.496)" fill="#4c53b5"/>
        <rect id="Rectángulo_43500" data-name="Rectángulo 43500" width="19.603" height="32.995" transform="translate(38.89 76.496)" fill="#4c53b5"/>
        <rect id="Rectángulo_43501" data-name="Rectángulo 43501" width="17.228" height="29.733" transform="translate(0 110.082)" fill="#4c53b5"/>
        <rect id="Rectángulo_43502" data-name="Rectángulo 43502" width="15.953" height="29.733" transform="translate(59.155 110.082)" fill="#4c53b5"/>
        <path id="Trazado_169277" data-name="Trazado 169277" d="M17.228,48.343V18.051h.662V48.343H36.5V17.378H0V48.343Z" transform="translate(0 -8.972)" fill="#4c53b5"/>
        <rect id="Rectángulo_43503" data-name="Rectángulo 43503" width="19.603" height="29.733" transform="translate(38.89 110.082)" fill="#4c53b5"/>
        <rect id="Rectángulo_43504" data-name="Rectángulo 43504" width="18.614" height="29.733" transform="translate(17.89 110.082)" fill="#4c53b5"/>
        <rect id="Rectángulo_43505" data-name="Rectángulo 43505" width="19.603" height="34.149" transform="translate(38.89 39.961)" fill="#4c53b5"/>
        <path id="Trazado_169278" data-name="Trazado 169278" d="M55.075,364.865a9.862,9.862,0,0,1,6.116-.743,5.087,5.087,0,0,1,3.022,1.349,2.174,2.174,0,0,1,.031,3.016,2.9,2.9,0,0,1-1.905.483c-1.617-.019-3.411-.3-4.7.669-.737.555-1.228,1.477-2.108,1.75a2.083,2.083,0,0,1-2.292-1.02,3.56,3.56,0,0,1-.259-2.627,4.011,4.011,0,0,1,2.1-2.878" transform="translate(-27.284 -187.909)" fill="#febf10"/>
        <path id="Trazado_169279" data-name="Trazado 169279" d="M47.5,330.822c1.138,1.625,3.349,1.087,4.374.1a8.264,8.264,0,0,0,1.853-3.8c.9-3.131,1.81-6.417,1.14-9.606a5.339,5.339,0,0,0-1.227-2.611A2.789,2.789,0,0,0,51,314.021a4.077,4.077,0,0,0-2.308,2.425,22.89,22.89,0,0,0-2.263,9.826,7.94,7.94,0,0,0,1.074,4.55" transform="translate(-23.969 -162.094)" fill="#febf10"/>
        <path id="Trazado_169280" data-name="Trazado 169280" d="M28.2,338.733a5.913,5.913,0,0,0,.92-5.44,10.484,10.484,0,0,0-3.222-4.674,17.345,17.345,0,0,0-5.77-3.4,6.154,6.154,0,0,0-2.6-.441,2.722,2.722,0,0,0-2.178,1.318c-.607,1.158-.025,2.563.6,3.708a44.014,44.014,0,0,0,3.79,5.771,10.259,10.259,0,0,0,4.168,3.571c1.731.662,3.53.584,4.447-.617" transform="translate(-7.797 -167.674)" fill="#febf10"/>
        <path id="Trazado_169281" data-name="Trazado 169281" d="M48.464,383.553a3.523,3.523,0,0,0,.1-.738c.052-.537.118-1.212.2-2.015a29.073,29.073,0,0,1,.453-2.955,22.822,22.822,0,0,1,1.074-3.488,12.851,12.851,0,0,1,1.781-3.156,6.655,6.655,0,0,1,2.252-1.872,6.292,6.292,0,0,1,1.9-.59,3.564,3.564,0,0,0,.735-.106,3.415,3.415,0,0,0-.748-.012,5.74,5.74,0,0,0-1.977.515,6.635,6.635,0,0,0-2.375,1.888,12.571,12.571,0,0,0-1.846,3.219,21.324,21.324,0,0,0-1.067,3.545,24.977,24.977,0,0,0-.393,2.993c-.064.856-.088,1.548-.1,2.027a3.462,3.462,0,0,0,.015.745" transform="translate(-25.011 -190.317)" fill="#febf10"/>
        <path id="Trazado_169282" data-name="Trazado 169282" d="M48.6,360.747a1.455,1.455,0,0,0,.02-.342c0-.258,0-.582,0-.98,0-.85,0-2.08.044-3.6.075-3.038.337-6.308.842-10.918.478-4.335,1.121-9.38,1.8-12.66.145-.746.292-1.417.43-2s.243-1.1.352-1.508c.093-.387.169-.7.229-.952a1.445,1.445,0,0,0,.06-.338,1.435,1.435,0,0,0-.119.321l-.284.938c-.126.407-.255.912-.4,1.5s-.315,1.255-.475,2A111.262,111.262,0,0,0,49.2,343.95c-.506,4.619-.734,8.826-.755,11.872-.018,1.523.015,2.756.053,3.606.025.4.045.722.06.979a1.428,1.428,0,0,0,.042.34" transform="translate(-25.011 -169.061)" fill="#febf10"/>
        <path id="Trazado_169283" data-name="Trazado 169283" d="M37.231,355.283a6.5,6.5,0,0,0-.007-1.024c-.038-.657-.128-1.608-.313-2.772a36.6,36.6,0,0,0-.9-4.039,33.053,33.053,0,0,0-1.689-4.779,25.447,25.447,0,0,0-4.96-7.724,12.6,12.6,0,0,0-1.167-1.085c-.179-.151-.337-.3-.5-.422l-.453-.312a6.407,6.407,0,0,0-.861-.551,30.45,30.45,0,0,1,2.824,2.519,26.825,26.825,0,0,1,4.836,7.7,37.832,37.832,0,0,1,1.7,4.736,40.98,40.98,0,0,1,.959,4c.211,1.153.334,2.093.408,2.745a6.567,6.567,0,0,0,.125,1.014" transform="translate(-13.619 -171.71)" fill="#febf10"/>
        <path id="Trazado_169284" data-name="Trazado 169284" d="M32.6,409.109l.813,11.137H47.724l.813-11.137Z" transform="translate(-16.833 -211.225)" fill="#febf10"/>
        <rect id="Rectángulo_43506" data-name="Rectángulo 43506" width="19.022" height="4.39" transform="translate(14.388 193.494)" fill="#febf10"/>
        <path id="Trazado_169285" data-name="Trazado 169285" d="M29.746,431.253v1.217H48.454v-1.217Z" transform="translate(-15.358 -222.658)" fill="#febf10"/>
        <path id="Trazado_169286" data-name="Trazado 169286" d="M48.529,414.964a.461.461,0,0,1-.067.1l-.214.283-.833,1.067-.037.047-.036-.05-2.047-2.832h.118L43.4,416.437l-.063.09-.071-.084L40.871,413.6l.137,0-.131.165-2.138,2.68-.072.089-.066-.093-2.017-2.854.118.006-2.484,2.83-.044.05-.033-.057-.778-1.307-.2-.348a.546.546,0,0,1-.061-.124.573.573,0,0,1,.083.11l.221.335.816,1.283-.078-.006,2.444-2.864.062-.073.056.078,2.035,2.841-.137,0,2.133-2.684.132-.165.068-.085.07.083,2.384,2.85-.134.005,2.036-2.84.059-.083.059.083,2,2.863-.073,0,.867-1.039.232-.269a.477.477,0,0,1,.086-.087" transform="translate(-17.091 -213.441)" fill="#febf10"/>
        <path id="Trazado_169287" data-name="Trazado 169287" d="M48.863,408.862c0,.049-3.585.089-8.006.089s-8.007-.04-8.007-.089,3.584-.089,8.007-.089,8.006.04,8.006.089" transform="translate(-16.961 -211.052)" fill="#febf10"/>
        <path id="Trazado_169288" data-name="Trazado 169288" d="M455.013,163.284h5.548S448.388,77.59,449.07,53.415l-.861,109.869Z" transform="translate(-231.413 -27.578)" fill="#e1e1e1"/>
        <path id="Trazado_169289" data-name="Trazado 169289" d="M353.682.107s20.733-1.274,20.178,21.681c-1.606,66.408,6.2,116.367,6.2,116.367H302.37V2.481Z" transform="translate(-156.115 -0.049)" fill="#ececec"/>
        <path id="Trazado_169290" data-name="Trazado 169290" d="M285.772,190l53.9-.032A11.74,11.74,0,0,0,351.4,178.223L351.378,43.1A11.74,11.74,0,0,0,339.63,31.361l-53.9.031A11.741,11.741,0,0,0,274,43.136l.027,135.124A11.741,11.741,0,0,0,285.772,190" transform="translate(-141.467 -16.192)" fill="#687687"/>
        <path id="Trazado_169291" data-name="Trazado 169291" d="M289.6,41.273l10.45-.006,30.52-.018,3.675,0,9.146-.005a8.223,8.223,0,0,1,8.227,8.221l.026,131.891a8.223,8.223,0,0,1-8.217,8.225l-53.791.031a8.223,8.223,0,0,1-8.227-8.221L281.385,49.5a8.223,8.223,0,0,1,8.218-8.224" transform="translate(-145.281 -21.293)" fill="#ececec"/>
        <path id="Trazado_169292" data-name="Trazado 169292" d="M299.254.094l51.582.479c-7.563-.353-9.166,2.659-10.407,4.577A9.264,9.264,0,0,0,341,16.387a10.732,10.732,0,0,0,6.125,3.6L290.606,20a10.766,10.766,0,0,1-3.487-9.761A12.208,12.208,0,0,1,299.254.094" transform="translate(-148.168 -0.049)" fill="#ececec"/>
        <path id="Trazado_169293" data-name="Trazado 169293" d="M411.773,3.209a2.184,2.184,0,0,1-.327-.2,8.991,8.991,0,0,0-.937-.552,12.533,12.533,0,0,0-3.8-1.189,13.441,13.441,0,0,0-5.859.312,9.392,9.392,0,0,0-5.4,4.506,10.044,10.044,0,0,0-1.128,6.968,8.009,8.009,0,0,0,1.295,2.844,10.132,10.132,0,0,0,1.872,2,12.741,12.741,0,0,0,3.437,2.01c.884.338,1.4.45,1.392.479a2.2,2.2,0,0,1-.374-.077,10.307,10.307,0,0,1-1.052-.311,12.242,12.242,0,0,1-3.515-1.963,10.172,10.172,0,0,1-1.93-2.022,8.156,8.156,0,0,1-1.35-2.912,10.208,10.208,0,0,1,1.134-7.144,9.569,9.569,0,0,1,5.551-4.6,13.409,13.409,0,0,1,5.955-.266,12.05,12.05,0,0,1,3.818,1.278,7.3,7.3,0,0,1,.921.6,2.185,2.185,0,0,1,.3.24" transform="translate(-203.359 -0.454)" fill="#1a2e35"/>
        <path id="Trazado_169294" data-name="Trazado 169294" d="M435.376,8.2a6.284,6.284,0,0,1,1.142.79,16.423,16.423,0,0,1,2.708,2.918,16.733,16.733,0,0,1,1.52,2.448,12.819,12.819,0,0,1,1.167,3.225,22.208,22.208,0,0,1,.216,3.933q.06,2.087.125,4.407c.1,3.088.244,6.471.411,10.1.011,1.823-.022,3.7-.032,5.637s0,3.928-.007,5.972c.02,8.172.176,17.156.525,26.58.683,18.857,2.078,35.887,3.3,48.188.627,6.149,1.185,11.121,1.588,14.553.2,1.711.36,3.041.467,3.953q.075.67.116,1.029c.024.232.03.352.03.352s-.023-.118-.056-.348-.079-.58-.14-1.026l-.514-3.947c-.434-3.43-1.018-8.4-1.668-14.547-1.267-12.3-2.691-29.333-3.374-48.2-.35-9.427-.5-18.414-.506-26.589.007-2.043-.007-4.037.017-5.972s.051-3.817.045-5.628c-.158-3.632-.287-7.015-.38-10.105-.046-1.545-.085-3.016-.107-4.409a22.151,22.151,0,0,0-.194-3.909,12.753,12.753,0,0,0-1.135-3.2,18.169,18.169,0,0,0-4.153-5.381c-.169-.152-.328-.274-.466-.377a3.954,3.954,0,0,0-.352-.253c-.194-.127-.292-.2-.292-.2" transform="translate(-224.787 -4.236)" fill="#1a2e35"/>
        <path id="Trazado_169295" data-name="Trazado 169295" d="M341.217,165.7s-.678,53.285-4.933,61.044l-75.049-.975,1.528-6.392L341.242,122.9Z" transform="translate(-134.877 -63.456)" fill="#e1e1e1"/>
        <path id="Trazado_169296" data-name="Trazado 169296" d="M339,58.238S337.66,176.3,330.086,186.629H256.951S273.777,98.037,268.77,58.273Z" transform="translate(-132.665 -30.069)" fill="#f5f5f5"/>
        <path id="Trazado_169297" data-name="Trazado 169297" d="M339.639,58.238S338.294,176.3,330.72,186.629H256.951s11.727-87.253,11.727-126.462" transform="translate(-132.665 -30.069)" fill="#fafafa"/>
        <path id="Trazado_169298" data-name="Trazado 169298" d="M268.53,60.167s0,.211,0,.626-.011,1.034-.02,1.843-.024,1.818-.04,3.009-.026,2.569-.1,4.122c-.207,6.214-.7,15.25-1.58,26.543-1.8,22.583-5.13,54.184-9.864,90.335l-.121-.139,37.876,0,35.893,0-.1.05a11.8,11.8,0,0,0,1.335-3.121c.312-1.1.586-2.2.812-3.313.464-2.22.816-4.444,1.128-6.652.62-4.417,1.069-8.775,1.461-13.047.772-8.544,1.292-16.745,1.727-24.514.85-15.539,1.329-29.355,1.684-40.864s.549-20.711.677-27.036c.061-3.16.108-5.6.14-7.258.016-.824.028-1.451.036-1.877s.019-.637.019-.637,0,.215,0,.638-.008,1.053-.015,1.877c-.023,1.656-.056,4.1-.1,7.259-.1,6.325-.279,15.529-.6,27.039s-.794,25.327-1.629,40.87c-.427,7.771-.942,15.974-1.708,24.523-.389,4.274-.837,8.635-1.455,13.059-.312,2.211-.664,4.439-1.128,6.668-.226,1.115-.5,2.226-.816,3.333a11.959,11.959,0,0,1-1.37,3.2l-.034.05h-.065l-35.893,0-37.876,0h-.14l.018-.139c4.747-36.144,8.106-67.74,9.951-90.315.9-11.289,1.418-20.322,1.652-26.534.084-1.552.1-2.929.123-4.12s.044-2.2.061-3.008.032-1.425.042-1.843.021-.626.021-.626" transform="translate(-132.516 -30.069)" fill="#1a2e35"/>
        <path id="Trazado_169299" data-name="Trazado 169299" d="M351.646,49.15s-.161-8.212-8.227-8.221-55.675,0-55.675,0a9.067,9.067,0,0,0-6.335,8.806l49.737,3.824Z" transform="translate(-145.293 -21.13)" fill="#fafafa"/>
        <path id="Trazado_169300" data-name="Trazado 169300" d="M299.02.046a.864.864,0,0,1-.135,0c-.089,0-.221-.006-.4,0a10.205,10.205,0,0,0-1.528.131A11.506,11.506,0,0,0,291.729,2.4,13.607,13.607,0,0,0,287,9.606a9.668,9.668,0,0,0,.214,5.235,10.794,10.794,0,0,0,1.209,2.575,11.6,11.6,0,0,0,1.874,2.29l-.077-.029,14.213.02,29.808.095,9.033.058,2.456.029.639.014c.144,0,.218.014.218.014s-.074.008-.218.012l-.639.012-2.456.018-9.033.023-29.808-.022-14.213-.035h-.046l-.031-.029a11.755,11.755,0,0,1-1.913-2.347A10.954,10.954,0,0,1,287,14.908a9.86,9.86,0,0,1-.2-5.348,13.7,13.7,0,0,1,4.838-7.276A10.877,10.877,0,0,1,294.553.7a10.691,10.691,0,0,1,2.4-.6A9.209,9.209,0,0,1,298.49,0a3.286,3.286,0,0,1,.53.043" transform="translate(-147.934 0)" fill="#1a2e35"/>
        <path id="Trazado_169301" data-name="Trazado 169301" d="M341.243,156.493s.008.143.012.421,0,.7.009,1.234c0,1.093,0,2.691,0,4.748-.009,4.123-.036,10.089-.118,17.46s-.2,16.15-.52,25.893c-.165,4.871-.4,9.987-.891,15.27s-1.176,10.738-2.121,16.286c-.371,2.17-.771,4.312-1.208,6.312l-.021.1h-.1c-21.033-.047-39.8-.393-53.3-.624l-15.939-.319-4.312-.1-1.118-.034c-.252-.009-.381-.02-.381-.02s.129-.006.381,0l1.119.01,4.313.059,15.94.241c13.5.185,32.267.5,53.3.544l-.122.1c.434-1.99.834-4.133,1.2-6.3.944-5.541,1.627-10.99,2.124-16.266s.734-10.386.9-15.255c.336-9.739.46-18.517.574-25.887.083-7.367.151-13.33.2-17.459.02-2.057.036-3.655.046-4.747q.011-.807.016-1.234c0-.278.014-.421.014-.421" transform="translate(-134.877 -80.798)" fill="#1a2e35"/>
        <path id="Trazado_169302" data-name="Trazado 169302" d="M409.141,68.827a47.647,47.647,0,0,1-6.906,0,47.644,47.644,0,0,1,6.906,0" transform="translate(-207.676 -35.471)" fill="#1a2e35"/>
        <path id="Trazado_169303" data-name="Trazado 169303" d="M409.141,65.1a47.465,47.465,0,0,1-6.906,0,47.647,47.647,0,0,1,6.906,0" transform="translate(-207.676 -33.546)" fill="#1a2e35"/>
        <path id="Trazado_169304" data-name="Trazado 169304" d="M409.141,61.369a47.644,47.644,0,0,1-6.906,0,47.648,47.648,0,0,1,6.906,0" transform="translate(-207.676 -31.621)" fill="#1a2e35"/>
        <path id="Trazado_169305" data-name="Trazado 169305" d="M297.778,64.99a1.161,1.161,0,0,1,.148-.01l.413-.014,1.524-.036-.042.043c-.005-.338-.011-.707-.018-1.105,0-.206-.017-.4,0-.636a.585.585,0,0,1,.512-.47c.246,0,.462-.016.728,0a.593.593,0,0,1,.5.589c.006.516.012,1.054.018,1.612l-.071-.07,1.923-.019-.073.074c-.007-.774-.014-1.575-.021-2.4,0-.2,0-.408-.005-.61a.619.619,0,0,0-.27-.454l-.841-.829-.811-.8L301,59.466c-.135-.13-.241-.265-.4-.3a.517.517,0,0,0-.441.085c-.117.1-.241.237-.358.352l-.69.7c-.434.451-.886.862-1.215,1.252a1.366,1.366,0,0,0-.1.718c0,.238,0,.464,0,.678q0,.623-.007,1.091c0,.279-.006.509-.008.7,0,.161-.006.248-.009.252a1.744,1.744,0,0,1-.013-.231c-.005-.186-.012-.413-.019-.687q-.011-.472-.025-1.1-.006-.326-.013-.691,0-.184-.006-.378a.794.794,0,0,1,.106-.4c.356-.436.78-.822,1.217-1.286l.685-.7c.123-.121.224-.241.371-.368a.654.654,0,0,1,.557-.11,1.036,1.036,0,0,1,.462.33l.395.386.813.8.843.827a1.642,1.642,0,0,1,.215.233.63.63,0,0,1,.1.324q0,.3.005.613c.006.82.013,1.621.018,2.4v.074h-.073l-1.923.012h-.071v-.07c0-.559-.006-1.1-.008-1.612a.464.464,0,0,0-.388-.467c-.222-.012-.482,0-.7,0a.472.472,0,0,0-.415.374c-.019.193,0,.419-.009.614,0,.4,0,.768,0,1.106v.043h-.042L298.314,65l-.4-.007a.728.728,0,0,1-.133-.008" transform="translate(-153.705 -30.469)" fill="#1a2e35"/>
        <path id="Trazado_169306" data-name="Trazado 169306" d="M340.242,64.1H339.3v-.686h2.74V64.1h-.935v2.373h-.865Z" transform="translate(-175.184 -32.74)" fill="#ff735d"/>
        <path id="Trazado_169307" data-name="Trazado 169307" d="M346.978,65.876h-1.293l-.241.594h-.882l1.35-3.058h.852l1.354,3.058h-.9Zm-.253-.638-.393-.979-.394.979Z" transform="translate(-177.899 -32.74)" fill="#ff735d"/>
        <path id="Trazado_169308" data-name="Trazado 169308" d="M351.979,66.13l.284-.638a1.932,1.932,0,0,0,1.01.3c.358,0,.5-.1.5-.249,0-.485-1.739-.131-1.739-1.267,0-.547.446-.992,1.355-.992a2.29,2.29,0,0,1,1.11.267l-.267.642a1.808,1.808,0,0,0-.848-.236c-.362,0-.493.122-.493.275,0,.468,1.735.118,1.735,1.246,0,.533-.446.987-1.355.987a2.412,2.412,0,0,1-1.289-.336" transform="translate(-181.729 -32.674)" fill="#ff735d"/>
        <path id="Trazado_169309" data-name="Trazado 169309" d="M359.449,65.36l-.324.345v.764h-.856V63.411h.856v1.272l1.184-1.272h.953l-1.25,1.354,1.315,1.7h-1Z" transform="translate(-184.976 -32.74)" fill="#ff735d"/>
        <path id="Trazado_169310" data-name="Trazado 169310" d="M364.485,66.13l.284-.638a1.93,1.93,0,0,0,1.009.3c.358,0,.5-.1.5-.249,0-.485-1.739-.131-1.739-1.267,0-.547.446-.992,1.355-.992a2.291,2.291,0,0,1,1.11.267l-.267.642a1.808,1.808,0,0,0-.848-.236c-.362,0-.493.122-.493.275,0,.468,1.735.118,1.735,1.246,0,.533-.446.987-1.355.987a2.412,2.412,0,0,1-1.289-.336" transform="translate(-188.185 -32.674)" fill="#ff735d"/>
        <path id="Trazado_169311" data-name="Trazado 169311" d="M350.136,85.3c0,.07-15.611.126-34.865.126S280.4,85.366,280.4,85.3s15.608-.126,34.868-.126,34.865.056,34.865.126" transform="translate(-144.774 -43.974)" fill="#e1e1e1"/>
        <path id="Trazado_169312" data-name="Trazado 169312" d="M351.38,135.093c0,.07-15.611.126-34.865.126s-34.868-.056-34.868-.126,15.608-.126,34.868-.126,34.865.056,34.865.126" transform="translate(-145.416 -69.684)" fill="#e1e1e1"/>
        <path id="Trazado_169313" data-name="Trazado 169313" d="M346.656,182.862c0,.07-16.267.126-36.327.126S274,182.931,274,182.862s16.263-.126,36.331-.126,36.327.056,36.327.126" transform="translate(-141.467 -94.348)" fill="#e1e1e1"/>
        <path id="Trazado_169314" data-name="Trazado 169314" d="M342.639,229.438c0,.07-16.684.126-37.259.126s-37.263-.056-37.263-.126,16.68-.126,37.263-.126,37.259.056,37.259.126" transform="translate(-138.43 -118.395)" fill="#e1e1e1"/>
        <path id="Trazado_169315" data-name="Trazado 169315" d="M337.489,281.829c0,.07-16.747.126-37.4.126s-37.4-.056-37.4-.126,16.743-.126,37.4-.126,37.4.056,37.4.126" transform="translate(-135.625 -145.445)" fill="#e1e1e1"/>
        <path id="Trazado_169316" data-name="Trazado 169316" d="M301.168,111.143a.931.931,0,0,1-.012-.16c0-.12-.008-.266-.013-.442-.007-.409-.016-.962-.028-1.65-.014-1.432-.033-3.426-.056-5.809l.109.109-8.06.017c-.029.027.238-.238.125-.125v1.1q0,.544,0,1.078,0,1.067,0,2.084c0,1.352-.009,2.628-.013,3.8l-.109-.109,5.809.055,1.649.029.442.013a.871.871,0,0,1,.16.012,4.6,4.6,0,0,1-.557.025l-1.625.028-5.878.056H293v-.11c0-1.174-.008-2.45-.013-3.8q0-1.016,0-2.084,0-.533,0-1.078v-1.1c-.113.112.153-.155.127-.127l8.06.017h.11v.108c-.023,2.411-.042,4.429-.056,5.878-.012.678-.021,1.222-.028,1.625a4.6,4.6,0,0,1-.025.557" transform="translate(-151.253 -53.156)" fill="#1a2e35"/>
        <path id="Trazado_169317" data-name="Trazado 169317" d="M361.955,110.284c0,.07-9.2.126-20.553.126s-20.555-.056-20.555-.126,9.2-.126,20.555-.126,20.553.056,20.553.126" transform="translate(-165.656 -56.875)" fill="#1a2e35"/>
        <path id="Trazado_169318" data-name="Trazado 169318" d="M342.055,116.891c0,.07-4.748.126-10.6.126s-10.6-.056-10.6-.126,4.747-.126,10.6-.126,10.6.056,10.6.126" transform="translate(-165.655 -60.286)" fill="#1a2e35"/>
        <path id="Trazado_169319" data-name="Trazado 169319" d="M303.783,94.409c.332.087-.3,3.6-1.72,7.756-.177.519-.356,1.023-.537,1.508l-.271.711-.135.343-.035.088c-.023.053-.047.1-.073.156a1.326,1.326,0,0,1-.213.276,1.191,1.191,0,0,1-1.227.256,1.158,1.158,0,0,1-.5-.36l-.085-.122-.044-.077-.079-.144c-.207-.381-.381-.74-.531-1.07-.594-1.325-.826-2.194-.674-2.269s.678.654,1.454,1.84l.641.954.088.125.042.059a.027.027,0,0,1,.011.009.06.06,0,0,0,.037.007c.025,0,.059-.021.054-.031s0-.006,0-.009,0-.006,0-.008l.028-.083.115-.347.239-.715.508-1.5c1.4-4.107,2.572-7.44,2.912-7.35" transform="translate(-153.657 -48.743)" fill="#ff004c"/>
        <path id="Trazado_169320" data-name="Trazado 169320" d="M299.345,161.35a.881.881,0,0,1-.012-.16c0-.12-.008-.266-.013-.442-.007-.409-.016-.962-.028-1.65-.014-1.432-.033-3.426-.056-5.809l.109.109-8.06.017c-.029.027.237-.238.125-.125v1.1q0,.544,0,1.078,0,1.067,0,2.084c0,1.352-.009,2.628-.013,3.8l-.109-.109,5.809.056,1.649.028.442.013a.876.876,0,0,1,.16.012,4.7,4.7,0,0,1-.557.025l-1.625.029-5.878.056h-.108v-.11c0-1.174-.008-2.45-.013-3.8q0-1.016,0-2.084,0-.533,0-1.078v-1.1c-.113.112.153-.155.127-.127l8.06.017h.11v.109c-.023,2.411-.042,4.429-.056,5.878-.012.678-.021,1.222-.029,1.625a4.55,4.55,0,0,1-.025.557" transform="translate(-150.312 -79.078)" fill="#1a2e35"/>
        <path id="Trazado_169321" data-name="Trazado 169321" d="M360.132,160.491c0,.07-9.2.126-20.553.126s-20.555-.056-20.555-.126,9.2-.126,20.555-.126,20.553.056,20.553.126" transform="translate(-164.714 -82.797)" fill="#1a2e35"/>
        <path id="Trazado_169322" data-name="Trazado 169322" d="M296.767,208.073a.928.928,0,0,1-.012-.16c0-.12-.008-.266-.013-.442-.007-.409-.016-.962-.028-1.65-.014-1.432-.033-3.427-.056-5.809l.109.109-8.06.017c-.029.027.238-.238.125-.125v.549c0,.183,0,.365,0,.547q0,.544,0,1.078,0,1.067,0,2.084c0,1.352-.008,2.628-.013,3.8l-.109-.109,5.809.056,1.65.028.442.013a.932.932,0,0,1,.16.012,4.691,4.691,0,0,1-.557.025l-1.625.029-5.878.056H288.6v-.11c0-1.174-.008-2.45-.013-3.8q0-1.016,0-2.084,0-.533,0-1.078c0-.181,0-.363,0-.547v-.549c-.113.112.153-.155.127-.127l8.06.017h.11v.108c-.023,2.411-.042,4.429-.056,5.878-.012.678-.021,1.222-.028,1.625a4.6,4.6,0,0,1-.025.557" transform="translate(-148.981 -103.202)" fill="#1a2e35"/>
        <path id="Trazado_169323" data-name="Trazado 169323" d="M357.554,207.214c0,.07-9.2.126-20.553.126s-20.555-.056-20.555-.126,9.2-.126,20.555-.126,20.553.056,20.553.126" transform="translate(-163.383 -106.921)" fill="#1a2e35"/>
        <path id="Trazado_169324" data-name="Trazado 169324" d="M292.731,257.523a.875.875,0,0,1-.012-.16c0-.12-.008-.266-.013-.442-.007-.409-.016-.962-.028-1.65-.014-1.432-.033-3.426-.056-5.809l.109.109-8.06.017c-.029.027.237-.238.125-.125v1.1q0,.544,0,1.078,0,1.067,0,2.084c0,1.352-.009,2.628-.013,3.8l-.109-.109,5.809.056,1.649.028.442.013a.931.931,0,0,1,.16.012,4.756,4.756,0,0,1-.557.025l-1.625.028-5.878.056h-.108v-.11c0-1.174-.008-2.45-.013-3.8q0-1.016,0-2.084,0-.533,0-1.078c0-.181,0-.363,0-.547v-.549c-.113.112.153-.155.127-.127l8.06.017h.11v.109c-.023,2.411-.042,4.429-.056,5.878-.012.678-.021,1.222-.028,1.625a4.612,4.612,0,0,1-.025.557" transform="translate(-146.897 -128.733)" fill="#1a2e35"/>
        <path id="Trazado_169325" data-name="Trazado 169325" d="M353.518,256.664c0,.07-9.2.126-20.553.126s-20.555-.056-20.555-.126,9.2-.126,20.555-.126,20.553.056,20.553.126" transform="translate(-161.299 -132.452)" fill="#1a2e35"/>
        <path id="Trazado_169326" data-name="Trazado 169326" d="M290.337,304.426a.874.874,0,0,1-.012-.16c0-.12-.008-.266-.013-.442-.007-.409-.016-.962-.028-1.65-.014-1.432-.033-3.427-.056-5.809l.109.109-8.06.017c-.029.027.237-.238.125-.125v1.1q0,.544,0,1.078,0,1.066,0,2.084c0,1.352-.009,2.628-.013,3.8l-.109-.109,5.809.055,1.649.029.442.013a.885.885,0,0,1,.16.012,4.7,4.7,0,0,1-.557.025l-1.625.029-5.878.056h-.108v-.11c0-1.174-.008-2.45-.013-3.8q0-1.016,0-2.084,0-.533,0-1.078v-1.1c-.113.112.153-.155.127-.127l8.06.017h.11v.109c-.023,2.411-.042,4.429-.056,5.878-.012.678-.021,1.222-.029,1.625a4.713,4.713,0,0,1-.025.557" transform="translate(-145.661 -152.949)" fill="#1a2e35"/>
        <path id="Trazado_169327" data-name="Trazado 169327" d="M354.08,302.737c0,.07-9.2.126-20.553.126s-20.555-.056-20.555-.126,9.2-.126,20.555-.126,20.553.056,20.553.126" transform="translate(-161.59 -156.24)" fill="#1a2e35"/>
        <path id="Trazado_169328" data-name="Trazado 169328" d="M348.043,213.63c0,.07-7.234.126-16.154.126s-16.156-.056-16.156-.126,7.232-.126,16.156-.126,16.154.056,16.154.126" transform="translate(-163.014 -110.233)" fill="#1a2e35"/>
        <path id="Trazado_169329" data-name="Trazado 169329" d="M326.051,264.729c0,.07-2.928.126-6.539.126s-6.54-.056-6.54-.126,2.927-.126,6.54-.126,6.539.056,6.539.126" transform="translate(-161.59 -136.616)" fill="#1a2e35"/>
        <path id="Trazado_169330" data-name="Trazado 169330" d="M379.228,7.8c0,.07-10.292.126-22.985.126s-22.987-.056-22.987-.126,10.29-.126,22.987-.126,22.985.056,22.985.126" transform="translate(-172.062 -3.963)" fill="#1a2e35"/>
        <path id="Trazado_169331" data-name="Trazado 169331" d="M189.609,167.462S202,184.856,204.318,185.627c7.951,2.641,16.738-15.645,16.738-15.645l-4.725,1.04-8.675,5.467-9.467-12.942-8.58,4.938" transform="translate(-97.896 -84.44)" fill="#b37f6d"/>
        <path id="Trazado_169332" data-name="Trazado 169332" d="M223.026,195.665a2.032,2.032,0,0,1-.12-.845,5.8,5.8,0,0,1,1.405-3.809,2.036,2.036,0,0,1,.64-.564,7.7,7.7,0,0,0-1.925,5.218" transform="translate(-115.087 -98.328)" fill="#815144"/>
        <path id="Trazado_169333" data-name="Trazado 169333" d="M226.733,408.312l1.77,8.324,5.829.524,2.455-2.76-2.247-9.939Z" transform="translate(-117.063 -208.825)" fill="#b37f6d"/>
        <path id="Trazado_169334" data-name="Trazado 169334" d="M153.331,409.372c-.083.272,0,10.65,0,10.65l3.27,1.94,4.271-2.56.9-10.03Z" transform="translate(-79.146 -211.361)" fill="#b37f6d"/>
        <path id="Trazado_169335" data-name="Trazado 169335" d="M138.6,222.914a88.5,88.5,0,0,0-5.99,14.419c-1.8,6.485-3.52,10.19-1.667,16.013s4.328,27.9,5.545,33.722c1,4.795,3.224,23.583,4.812,29.538h9.1l.926-66.7s16.146,37.453,18,41.952,7.279,23.689,7.279,23.689l9.4-1.455s-5.691-33.218-7.411-41.159-6.617-29.512-8.6-36.262-1.779-11.432-4.595-14.715Z" transform="translate(-67.197 -114.597)" fill="#12263f"/>
        <path id="Trazado_169336" data-name="Trazado 169336" d="M175.916,226.452c-.008-.012.047-.072.181-.123a.924.924,0,0,1,1.2.687.962.962,0,0,1-1.537.96.923.923,0,0,1-.093-1.376c.1-.1.182-.121.19-.109a1.268,1.268,0,0,0-.271.665.718.718,0,0,0,.309.631.74.74,0,0,0,1.172-.732.719.719,0,0,0-.431-.554,1.265,1.265,0,0,0-.716-.048" transform="translate(-90.558 -116.83)" fill="#375a64"/>
        <path id="Trazado_169337" data-name="Trazado 169337" d="M176.222,242.814a.789.789,0,0,1-.221.065c-.147.031-.364.075-.648.107a8.99,8.99,0,0,1-2.417-.041,6.143,6.143,0,0,1-.8-.164.988.988,0,0,1-.4-.235.872.872,0,0,1-.217-.441c-.075-.625-.07-1.242-.111-1.92-.056-1.346-.118-2.82-.183-4.366-.123-3.1-.22-5.9-.278-7.936-.022-.985-.041-1.8-.055-2.406,0-.26,0-.475,0-.655a.8.8,0,0,1,.016-.229.789.789,0,0,1,.034.227c.014.179.03.394.05.653.034.608.08,1.419.135,2.4.1,2.029.229,4.834.352,7.933.058,1.547.113,3.021.163,4.367.032.663.025,1.327.084,1.888a.64.64,0,0,0,.478.533,6.334,6.334,0,0,0,.762.173,9.927,9.927,0,0,0,2.38.119c.564-.039.874-.1.878-.075" transform="translate(-88.231 -115.959)" fill="#375a64"/>
        <path id="Trazado_169338" data-name="Trazado 169338" d="M199.828,234.309a1.372,1.372,0,0,1-.373.277,4.571,4.571,0,0,1-1.171.488,5.1,5.1,0,0,1-6.4-3.971,4.567,4.567,0,0,1-.083-1.266,1.376,1.376,0,0,1,.082-.457,8.843,8.843,0,0,0,.175,1.685,5.081,5.081,0,0,0,6.185,3.836,8.889,8.889,0,0,0,1.587-.592" transform="translate(-99.02 -118.43)" fill="#375a64"/>
        <path id="Trazado_169339" data-name="Trazado 169339" d="M183.971,227.925a16.392,16.392,0,0,1-.131-4.06,16.457,16.457,0,0,1,.131,4.06" transform="translate(-94.878 -115.583)" fill="#375a64"/>
        <path id="Trazado_169340" data-name="Trazado 169340" d="M187.4,227.388a32.779,32.779,0,0,1,.1-4,10.622,10.622,0,0,1-.1,4" transform="translate(-96.734 -115.335)" fill="#375a64"/>
        <path id="Trazado_169341" data-name="Trazado 169341" d="M179.413,229.477a.938.938,0,0,1-.242.067l-.7.145c-.61.123-1.5.274-2.6.434a71.577,71.577,0,0,1-17.373.352c-1.108-.116-2-.23-2.618-.328l-.708-.116a.126.126,0,1,1,.007-.05l.713.069c.618.069,1.514.156,2.622.248a82.837,82.837,0,0,0,17.333-.351c1.1-.137,1.995-.261,2.61-.354l.71-.1a.932.932,0,0,1,.251-.017" transform="translate(-79.988 -118.478)" fill="#375a64"/>
        <path id="Trazado_169342" data-name="Trazado 169342" d="M148.46,232.181a3.449,3.449,0,0,1-.7,1.1,6.755,6.755,0,0,1-5.618,2.392,3.443,3.443,0,0,1-1.274-.258c.009-.042.492.069,1.281.08a7.26,7.26,0,0,0,5.478-2.332c.538-.577.794-1,.831-.979" transform="translate(-72.732 -119.876)" fill="#375a64"/>
        <path id="Trazado_169343" data-name="Trazado 169343" d="M181.008,244.734c-.07,0-.152-2.362-.184-5.277s0-5.279.068-5.28.152,2.361.184,5.278,0,5.279-.068,5.28" transform="translate(-93.354 -120.907)" fill="#375a64"/>
        <path id="Trazado_169344" data-name="Trazado 169344" d="M174,272.523a38.214,38.214,0,0,1,.116-6.207,38.364,38.364,0,0,1-.116,6.207" transform="translate(-89.793 -137.5)" fill="#375a64"/>
        <path id="Trazado_169345" data-name="Trazado 169345" d="M194.035,266.411a10.527,10.527,0,0,1-1.516.277c-.938.147-2.234.356-3.658.621s-2.708.536-3.637.736a10.526,10.526,0,0,1-1.514.287,8.42,8.42,0,0,1,1.472-.46c.92-.245,2.2-.544,3.633-.81s2.733-.447,3.68-.549a8.414,8.414,0,0,1,1.54-.1" transform="translate(-94.851 -137.543)" fill="#375a64"/>
        <path id="Trazado_169346" data-name="Trazado 169346" d="M195.055,270.881a14.271,14.271,0,0,1-1.771.062c-1.093.017-2.6.051-4.267.135s-3.17.205-4.259.3a14.315,14.315,0,0,1-1.768.118,1.749,1.749,0,0,1,.466-.107c.3-.054.741-.119,1.284-.188,1.087-.14,2.595-.287,4.266-.373s3.185-.091,4.281-.062c.548.014.991.034,1.3.057a1.747,1.747,0,0,1,.474.06" transform="translate(-94.478 -139.789)" fill="#375a64"/>
        <path id="Trazado_169347" data-name="Trazado 169347" d="M157.413,265.312a9.524,9.524,0,0,1-1.245-.494A28.45,28.45,0,0,0,150,263.032a9.611,9.611,0,0,1-1.316-.248,5.593,5.593,0,0,1,1.342.071,20.477,20.477,0,0,1,6.212,1.8,5.63,5.63,0,0,1,1.172.656" transform="translate(-76.768 -135.668)" fill="#375a64"/>
        <path id="Trazado_169348" data-name="Trazado 169348" d="M238.659,423.1l.021.651s11.158,4.112,11.335,6.2l-21.905.519.125-7.3a12.536,12.536,0,0,0,10.424-.074" transform="translate(-117.774 -218.446)" fill="#ff004c"/>
        <g id="Grupo_118926" data-name="Grupo 118926" transform="translate(112.117 206.96)" opacity="0.6">
          <g id="Grupo_118925" data-name="Grupo 118925">
            <g id="Grupo_118924" data-name="Grupo 118924" clip-path="url(#clip-path-3)">
              <path id="Trazado_169349" data-name="Trazado 169349" d="M232.41,427.915a.9.9,0,0,0-.594,1.036.86.86,0,0,0,1.022.6.944.944,0,0,0,.623-1.1.892.892,0,0,0-1.131-.5" transform="translate(-231.792 -427.873)" fill="#fff"/>
            </g>
          </g>
        </g>
        <g id="Grupo_118929" data-name="Grupo 118929" transform="translate(110.336 210.265)" opacity="0.6">
          <g id="Grupo_118928" data-name="Grupo 118928">
            <g id="Grupo_118927" data-name="Grupo 118927" clip-path="url(#clip-path-4)">
              <path id="Trazado_169350" data-name="Trazado 169350" d="M228.11,436.461l.03-1.755,20.984.146s.985.4.891,1.091Z" transform="translate(-228.11 -434.706)" fill="#fff"/>
            </g>
          </g>
        </g>
        <path id="Trazado_169351" data-name="Trazado 169351" d="M248.023,424.466c0,.107-.534.168-1.053.525s-.787.812-.887.772c-.1-.019.045-.662.68-1.082s1.281-.314,1.26-.215" transform="translate(-127.039 -219.107)" fill="#1a2e35"/>
        <path id="Trazado_169352" data-name="Trazado 169352" d="M253.407,426.371c.027.1-.432.3-.785.757s-.446.942-.553.94c-.1.019-.189-.606.26-1.171s1.072-.628,1.077-.526" transform="translate(-130.103 -220.117)" fill="#1a2e35"/>
        <path id="Trazado_169353" data-name="Trazado 169353" d="M257.6,430.046c-.1.025-.258-.506,0-1.1s.756-.837.8-.749c.063.087-.255.409-.461.9s-.238.936-.344.949" transform="translate(-132.931 -221.072)" fill="#1a2e35"/>
        <path id="Trazado_169354" data-name="Trazado 169354" d="M156,428.234s-5.818,4.129-8.634.555l-.736,1.732-3.308,12.34a1.655,1.655,0,0,0,.931,1.981,1.6,1.6,0,0,0,1.693-.324c2.393-2.277,11.154-10.694,11.069-11.836l-.034-3.029a1.539,1.539,0,0,0-.98-1.418" transform="translate(-73.966 -221.099)" fill="#ff004c"/>
        <g id="Grupo_118932" data-name="Grupo 118932" transform="translate(70.57 210.528)" opacity="0.6">
          <g id="Grupo_118931" data-name="Grupo 118931">
            <g id="Grupo_118930" data-name="Grupo 118930" clip-path="url(#clip-path-5)">
              <path id="Trazado_169355" data-name="Trazado 169355" d="M145.9,448.547l12.481-13.3,0,.662a1.844,1.844,0,0,1-.592,1.46c-1.009,1.362-3.8,4.407-10.432,10.768a1.6,1.6,0,0,1-1.454.406" transform="translate(-145.898 -435.25)" fill="#fff"/>
            </g>
          </g>
        </g>
        <g id="Grupo_118935" data-name="Grupo 118935" transform="translate(80.823 208.407)" opacity="0.6">
          <g id="Grupo_118934" data-name="Grupo 118934">
            <g id="Grupo_118933" data-name="Grupo 118933" clip-path="url(#clip-path-6)">
              <path id="Trazado_169356" data-name="Trazado 169356" d="M167.494,431.015a.968.968,0,0,0-.27,1.263.931.931,0,0,0,1.25.279,1.022,1.022,0,0,0,.279-1.34.966.966,0,0,0-1.333-.146" transform="translate(-167.095 -430.865)" fill="#fff"/>
            </g>
          </g>
        </g>
        <path id="Trazado_169357" data-name="Trazado 169357" d="M149.962,446.741c-.089.043-.437-.777-1.364-1.22a4.886,4.886,0,0,0-1.8-.352c-.014-.038.185-.159.55-.209a2.552,2.552,0,0,1,2.445,1.216c.181.322.2.552.166.565" transform="translate(-75.793 -229.726)" fill="#1a2e35"/>
        <path id="Trazado_169358" data-name="Trazado 169358" d="M147.916,451.782a13.034,13.034,0,0,0-1.38-.677,13.1,13.1,0,0,0-1.525-.2,1.776,1.776,0,0,1,1.624-.125c.919.273,1.363.964,1.281,1.006" transform="translate(-74.868 -232.68)" fill="#1a2e35"/>
        <path id="Trazado_169359" data-name="Trazado 169359" d="M152.971,441.159a15.983,15.983,0,0,0-2.061-1.189,16.033,16.033,0,0,0-2.314-.55,4.375,4.375,0,0,1,4.375,1.739" transform="translate(-76.72 -226.816)" fill="#1a2e35"/>
        <path id="Trazado_169360" data-name="Trazado 169360" d="M153.865,434.661c-.042.093-.9-.271-2.026-.316-1.122-.06-2.014.221-2.047.124a3.972,3.972,0,0,1,4.073.191" transform="translate(-77.337 -224.075)" fill="#1a2e35"/>
        <path id="Trazado_169361" data-name="Trazado 169361" d="M150.47,431.613a1.354,1.354,0,0,1,.088-.585,4.1,4.1,0,0,1,.746-1.434,1.818,1.818,0,0,1,.927-.711.644.644,0,0,1,.687.274,1.047,1.047,0,0,1,.113.739,2.262,2.262,0,0,1-2.334,1.692,2.622,2.622,0,0,1-2.281-1.824.91.91,0,0,1,.1-.752.631.631,0,0,1,.711-.207,2.237,2.237,0,0,1,.913.715,4.584,4.584,0,0,1,.824,1.389,1.389,1.389,0,0,1,.136.575,7.291,7.291,0,0,0-1.141-1.8,2.091,2.091,0,0,0-.811-.6.336.336,0,0,0-.388.11.626.626,0,0,0-.035.5,2.343,2.343,0,0,0,2,1.558,1.965,1.965,0,0,0,2-1.408.761.761,0,0,0-.057-.519.348.348,0,0,0-.377-.157,1.646,1.646,0,0,0-.8.587,6.072,6.072,0,0,0-1.02,1.864" transform="translate(-76.609 -221.376)" fill="#1a2e35"/>
        <path id="Trazado_169362" data-name="Trazado 169362" d="M179.062,133.346c-.909-.728-1.975-1.234-2.924-1.91a6.763,6.763,0,0,1-2.036-3.609l-7.443.667a29.464,29.464,0,0,0-.96,9.05,5.751,5.751,0,0,0,1.124,3.643,6.373,6.373,0,0,0,3.878,1.566l6.813,1.088a4.061,4.061,0,0,0,2.4-.1,3.212,3.212,0,0,0,1.451-1.816,7.709,7.709,0,0,0-2.3-8.574" transform="translate(-85.532 -65.998)" fill="#1a2e35"/>
        <path id="Trazado_169363" data-name="Trazado 169363" d="M136.157,115.125c-.4-2.211.027-4.46.232-6.669a73.288,73.288,0,0,0-.019-9.847,56.209,56.209,0,0,1,.176-9.809c.428-3.174,1.454-6.21,3.179-7.918a3.807,3.807,0,0,1,5.933.292l-.655,8.4a243.452,243.452,0,0,1,.368,35.734,18.882,18.882,0,0,1-6.9.066,1.438,1.438,0,0,1-1.258-.933,5.213,5.213,0,0,1,.254-2.55,7.828,7.828,0,0,0-.362-3.455,30.978,30.978,0,0,1-.952-3.308" transform="translate(-70.214 -41.098)" fill="#1a2e35"/>
        <path id="Trazado_169364" data-name="Trazado 169364" d="M148.694,82.647a5.774,5.774,0,0,1,2.4-1.439,1.942,1.942,0,0,1,1.132-.07.854.854,0,0,1,.632.852l-2.238,3.16a1.532,1.532,0,0,1-1.695.078,1.581,1.581,0,0,1-.9-1.008,1.833,1.833,0,0,1,.671-1.574" transform="translate(-76.412 -41.862)" fill="#375a64"/>
        <path id="Trazado_169365" data-name="Trazado 169365" d="M175.188,147.261h0" transform="translate(-90.45 -76.032)" fill="#ffc09d"/>
        <path id="Trazado_169366" data-name="Trazado 169366" d="M165.351,94.549a8.874,8.874,0,0,0-8.971-8.13,8.619,8.619,0,0,0-8.477,9.062l1.653,19.346a1.692,1.692,0,0,0,.446,1,7.913,7.913,0,0,0,5.452,2.459,8.292,8.292,0,0,0,4.9-1.784,1.655,1.655,0,0,0,.625-1.525l-.606-4.965h0a10.644,10.644,0,0,0,1.278-.246c1.1-.442,3.751-1.277,3.86-5.656a86.66,86.66,0,0,0-.162-9.561" transform="translate(-76.355 -44.617)" fill="#b37f6d"/>
        <path id="Trazado_169367" data-name="Trazado 169367" d="M171.926,111.443a5.148,5.148,0,0,1,1.224-.313c.193-.035.375-.087.4-.22a.969.969,0,0,0-.177-.559q-.331-.675-.7-1.417a24.921,24.921,0,0,1-1.6-3.722,25.135,25.135,0,0,1,1.906,3.588l.671,1.427a1.1,1.1,0,0,1,.162.745.485.485,0,0,1-.3.3,1.332,1.332,0,0,1-.328.07,5.062,5.062,0,0,1-1.259.1" transform="translate(-88.322 -54.321)" fill="#1a2e35"/>
        <path id="Trazado_169368" data-name="Trazado 169368" d="M179.489,108.265a.7.7,0,0,1-.628.756.682.682,0,0,1-.783-.574.7.7,0,0,1,.627-.756.682.682,0,0,1,.784.574" transform="translate(-91.94 -55.598)" fill="#1a2e35"/>
        <path id="Trazado_169369" data-name="Trazado 169369" d="M178.677,105.26c-.068.124-.685-.273-1.444-.157s-1.234.656-1.336.557c-.049-.044.005-.257.21-.506a1.7,1.7,0,0,1,1.046-.582,1.715,1.715,0,0,1,1.173.264c.271.181.385.37.35.426" transform="translate(-90.808 -53.982)" fill="#1a2e35"/>
        <path id="Trazado_169370" data-name="Trazado 169370" d="M164.679,109.653a.7.7,0,0,1-.628.756.681.681,0,0,1-.783-.574.7.7,0,0,1,.628-.757.682.682,0,0,1,.784.575" transform="translate(-84.294 -56.314)" fill="#1a2e35"/>
        <path id="Trazado_169371" data-name="Trazado 169371" d="M163.149,106.6c-.092.114-.691-.363-1.518-.351s-1.422.485-1.515.372c-.045-.05.044-.254.3-.474a1.925,1.925,0,0,1,2.421-.017c.261.217.354.419.308.47" transform="translate(-82.662 -54.578)" fill="#1a2e35"/>
        <path id="Trazado_169372" data-name="Trazado 169372" d="M166.37,133.689a12.436,12.436,0,0,1-6.87-1.415s1.535,3.724,7.039,2.8Z" transform="translate(-82.351 -68.294)" fill="#815144"/>
        <path id="Trazado_169373" data-name="Trazado 169373" d="M170.081,121.426a1.4,1.4,0,0,0-1.276-.41,1.26,1.26,0,0,0-.831.523.775.775,0,0,0,.011.9.941.941,0,0,0,1.023.173,2.887,2.887,0,0,0,.931-.647.833.833,0,0,0,.2-.238.247.247,0,0,0-.024-.279" transform="translate(-86.655 -62.469)" fill="#815144"/>
        <path id="Trazado_169374" data-name="Trazado 169374" d="M163.555,101.222c-.055.211-.827.186-1.712.375-.889.172-1.586.5-1.723.325-.061-.083.045-.286.318-.51a2.922,2.922,0,0,1,1.245-.564,2.965,2.965,0,0,1,1.371.03c.342.1.523.245.5.344" transform="translate(-82.662 -52.035)" fill="#1a2e35"/>
        <path id="Trazado_169375" data-name="Trazado 169375" d="M177.948,101.844c-.152.178-.788.03-1.543.056-.756,0-1.388.178-1.544.007-.069-.084.023-.26.294-.434a2.475,2.475,0,0,1,1.24-.338,2.449,2.449,0,0,1,1.247.288c.276.163.372.335.306.422" transform="translate(-90.27 -52.216)" fill="#1a2e35"/>
        <path id="Trazado_169376" data-name="Trazado 169376" d="M154.457,83.357a2.6,2.6,0,0,0-2.118-.821c-3.433-.019-6.889,2.551-8.358,5.654a11.276,11.276,0,0,0,.876,10.242l1.292.037c2.6-.54,5.95-8.5,9.041-13.071.384-.569-.3-1.505-.733-2.04" transform="translate(-73.897 -42.614)" fill="#1a2e35"/>
        <path id="Trazado_169377" data-name="Trazado 169377" d="M173.019,84.612c-1.638-1.393-4.206-3.011-6.961-1.474-.311.88.71,1.813,1.523,2.327,1.19.753,2.2,1.231,2.994,1.779,1.6,1.108,3.651,3.026,4.139,5.414.03.15.065,4.859.213,4.814a64.379,64.379,0,0,0,.626-7.154,6.358,6.358,0,0,0-2.534-5.706" transform="translate(-85.707 -42.603)" fill="#1a2e35"/>
        <path id="Trazado_169378" data-name="Trazado 169378" d="M147.324,111.949c-.084-.031-3.367-.806-3.088,2.487s3.527,2.334,3.525,2.239-.437-4.726-.437-4.726" transform="translate(-74.461 -57.748)" fill="#b37f6d"/>
        <path id="Trazado_169379" data-name="Trazado 169379" d="M147.556,116.7c-.015-.009-.054.045-.147.1a.575.575,0,0,1-.428.045,1.424,1.424,0,0,1-.765-1.218,1.915,1.915,0,0,1,.091-.835.666.666,0,0,1,.394-.477.294.294,0,0,1,.352.129c.052.089.037.156.055.16s.066-.061.028-.195a.367.367,0,0,0-.147-.2.437.437,0,0,0-.325-.057.81.81,0,0,0-.556.562,1.959,1.959,0,0,0-.121.934,1.494,1.494,0,0,0,.957,1.351.617.617,0,0,0,.517-.131c.1-.09.106-.165.094-.17" transform="translate(-75.368 -58.932)" fill="#815144"/>
        <path id="Trazado_169380" data-name="Trazado 169380" d="M175.086,88.022a3.643,3.643,0,0,1-.938.247,13.556,13.556,0,0,1-4.668.028,3.628,3.628,0,0,1-.941-.236,6.157,6.157,0,0,1,.962.092,19,19,0,0,0,4.625-.027,6.084,6.084,0,0,1,.961-.1" transform="translate(-87.017 -45.442)" fill="#375a64"/>
        <path id="Trazado_169381" data-name="Trazado 169381" d="M179.811,92.133a1.914,1.914,0,0,1-.692.259,5.547,5.547,0,0,1-3.508-.313,1.914,1.914,0,0,1-.635-.377,7.534,7.534,0,0,0,4.835.431" transform="translate(-90.341 -47.343)" fill="#375a64"/>
        <path id="Trazado_169382" data-name="Trazado 169382" d="M144.324,91.014c0-.042.721-.005,1.86-.182a14.067,14.067,0,0,0,1.968-.457,18.414,18.414,0,0,0,2.3-.917,19.889,19.889,0,0,0,2.147-1.236A18.091,18.091,0,0,0,154.213,87c.879-.748,1.354-1.288,1.382-1.261a2.376,2.376,0,0,1-.315.395,5.792,5.792,0,0,1-.4.433c-.163.164-.347.353-.567.543a15.8,15.8,0,0,1-1.6,1.269,18.082,18.082,0,0,1-2.164,1.263,16.869,16.869,0,0,1-2.334.913,12.629,12.629,0,0,1-2,.42,7.022,7.022,0,0,1-.783.068,4.384,4.384,0,0,1-.593.009,2.383,2.383,0,0,1-.5-.038" transform="translate(-74.515 -44.268)" fill="#375a64"/>
        <path id="Trazado_169383" data-name="Trazado 169383" d="M156.555,88.17a2.613,2.613,0,0,1-.2.489,5.95,5.95,0,0,1-.281.554c-.12.21-.244.458-.415.711a13.676,13.676,0,0,1-1.278,1.721,14.657,14.657,0,0,1-1.907,1.806,14.337,14.337,0,0,1-2.224,1.4,12.861,12.861,0,0,1-1.992.794c-.289.1-.561.152-.8.212a5.376,5.376,0,0,1-.609.121,2.662,2.662,0,0,1-.525.063c-.008-.042.739-.153,1.886-.534a14.161,14.161,0,0,0,1.951-.824,15.178,15.178,0,0,0,2.183-1.394,15.532,15.532,0,0,0,1.892-1.77,15.231,15.231,0,0,0,1.3-1.675c.669-1.007.984-1.692,1.021-1.674" transform="translate(-75.548 -45.522)" fill="#375a64"/>
        <path id="Trazado_169384" data-name="Trazado 169384" d="M162.172,82.476a1.226,1.226,0,0,1,.663-.039,2.848,2.848,0,0,1,1.453.678,2.447,2.447,0,0,1,.321.341,1.977,1.977,0,0,1,.212.381,4.439,4.439,0,0,1,.272.666,1,1,0,0,1,.035.664c-.034,0-.027-.252-.172-.618a6.3,6.3,0,0,0-.3-.627,1.969,1.969,0,0,0-.2-.343,2.5,2.5,0,0,0-.3-.309,3.156,3.156,0,0,0-1.344-.689c-.384-.083-.635-.07-.638-.1" transform="translate(-83.73 -42.554)" fill="#375a64"/>
        <path id="Trazado_169385" data-name="Trazado 169385" d="M144.027,97.713a.755.755,0,0,0-.047-.168c-.033-.109-.1-.266-.159-.472a14.943,14.943,0,0,1-.462-1.767,12.6,12.6,0,0,1-.246-2.689,10.621,10.621,0,0,1,.551-3.246,8.18,8.18,0,0,1,.725-1.543,8.887,8.887,0,0,1,.953-1.273,11.042,11.042,0,0,1,2.047-1.756,15.477,15.477,0,0,1,1.573-.928c.19-.1.343-.172.444-.225a.76.76,0,0,0,.151-.087.739.739,0,0,0-.164.059c-.1.045-.263.105-.458.2a13.085,13.085,0,0,0-1.607.891,10.722,10.722,0,0,0-2.091,1.752,8.894,8.894,0,0,0-.977,1.289,8.2,8.2,0,0,0-.741,1.572,10.508,10.508,0,0,0-.547,3.293,12.16,12.16,0,0,0,.281,2.713,12.793,12.793,0,0,0,.512,1.765c.072.2.143.358.186.464a.754.754,0,0,0,.076.157" transform="translate(-73.817 -43.141)" fill="#375a64"/>
        <path id="Trazado_169386" data-name="Trazado 169386" d="M170.014,122.117c.012-.1-.748-.208-1.615-.6s-1.483-.952-1.527-.875a2.883,2.883,0,0,0,1.437,1.192,2.554,2.554,0,0,0,1.705.281" transform="translate(-86.156 -62.286)" fill="#1a2e35"/>
        <path id="Trazado_169387" data-name="Trazado 169387" d="M161.014,141.058l-4.729-.561L145.1,141.941l-5.712,3.184,9.926,4.187,7.22-1.482Z" transform="translate(-71.965 -72.54)" fill="#b37f6d"/>
        <path id="Trazado_169388" data-name="Trazado 169388" d="M136.957,143.173l-7.919,3.241,1.776,15.211s2.948-1.053,4.527,6.633a71.4,71.4,0,0,1,1.606,12.607l28.82-1.026s-1.053-18.424-1.579-22.53l-1.935-15.686-7.438-1.242s-7.163,12.1-17.858,2.792" transform="translate(-66.623 -72.479)" fill="#ff004c"/>
        <path id="Trazado_169389" data-name="Trazado 169389" d="M195.258,142.946s3.514-.255,6.282,4.6c2.107,3.7,2.852,5.122,2.852,5.122l-8.166,4.773-3.263-8.919Z" transform="translate(-99.627 -73.802)" fill="#ff004c"/>
        <path id="Trazado_169390" data-name="Trazado 169390" d="M120.151,152.743a17.6,17.6,0,0,0-4.815,4.107,55.017,55.017,0,0,0-3.687,6.57L121.3,168.8l1.437-2.763Z" transform="translate(-57.645 -78.862)" fill="#ff004c"/>
        <path id="Trazado_169391" data-name="Trazado 169391" d="M133.389,167.044c-.045-.016.206-.664.432-1.751a13.842,13.842,0,0,0,.256-1.929,13.654,13.654,0,0,0-.534-4.711,13.885,13.885,0,0,0-.682-1.823c-.464-1.009-.853-1.584-.813-1.61a1.8,1.8,0,0,1,.3.385,9.066,9.066,0,0,1,.673,1.148,12.125,12.125,0,0,1,.743,1.832,12.727,12.727,0,0,1,.544,4.794,12.108,12.108,0,0,1-.314,1.952,9.051,9.051,0,0,1-.4,1.269,1.811,1.811,0,0,1-.207.443" transform="translate(-68.176 -80.141)" fill="#1a2e35"/>
        <path id="Trazado_169392" data-name="Trazado 169392" d="M195.913,151.511c-.078.015-.333-1.508-1.1-3.227s-1.714-2.938-1.65-2.985a3.23,3.23,0,0,1,.665.763,11.823,11.823,0,0,1,1.969,4.444,3.2,3.2,0,0,1,.119,1.005" transform="translate(-99.728 -75.018)" fill="#1a2e35"/>
        <path id="Trazado_169393" data-name="Trazado 169393" d="M164.786,140.43a.962.962,0,0,1-.08.244,7.345,7.345,0,0,1-.287.678,11.627,11.627,0,0,1-1.439,2.295,12.751,12.751,0,0,1-2.965,2.711,12.123,12.123,0,0,1-9.467,1.771,12.738,12.738,0,0,1-3.745-1.456,11.634,11.634,0,0,1-2.171-1.619c-.239-.212-.4-.408-.513-.528a.966.966,0,0,1-.163-.2c.017-.016.265.236.741.654a13.122,13.122,0,0,0,5.9,2.921,12.119,12.119,0,0,0,9.292-1.738,13,13,0,0,0,2.954-2.63,12.848,12.848,0,0,0,1.49-2.226c.293-.563.433-.887.455-.878" transform="translate(-74.325 -72.505)" fill="#1a2e35"/>
        <path id="Trazado_169394" data-name="Trazado 169394" d="M149.12,148.716a76.69,76.69,0,0,1-3.215-15.871c-.325-3.8-1.317-6.858-1.458-10.6l-2.155,3.825A104.559,104.559,0,0,0,139.9,140.7c-.141,1.542-.193,3.263.81,4.442.806.947,2.2,1.408,2.644,2.57.481,1.257-.221,3.117.971,3.743a1.573,1.573,0,0,0,1.8-.449,4.614,4.614,0,0,0,.873-1.776c.109.978,1.243,2,1.978,1.34.49-.437.331-1.226.138-1.854" transform="translate(-72.193 -63.116)" fill="#1a2e35"/>
        <path id="Trazado_169395" data-name="Trazado 169395" d="M38.671,191.2h0a7.819,7.819,0,0,0,10.848,3.96l107.79-56.213L171.069,119,147.4,122.61,42.092,181.4a7.819,7.819,0,0,0-3.421,9.8" transform="translate(-19.662 -61.438)" fill="#fbee77"/>
        <path id="Trazado_169396" data-name="Trazado 169396" d="M42.092,248a7.819,7.819,0,0,0,7.427,13.761Z" transform="translate(-19.662 -128.046)" fill="#1a2e35"/>
        <path id="Trazado_169397" data-name="Trazado 169397" d="M151.682,126.469,46.371,185.255l1.268,2.35,105.724-58Z" transform="translate(-23.942 -65.297)" fill="#febf10"/>
        <path id="Trazado_169398" data-name="Trazado 169398" d="M166.362,153.668,59.206,210.8l1.219,2.258,107.79-56.214Z" transform="translate(-30.568 -79.34)" fill="#febf10"/>
        <path id="Trazado_169399" data-name="Trazado 169399" d="M158.738,139.545,52.688,197.667l1.691,3.132,106.163-58.016Z" transform="translate(-27.203 -72.048)" fill="#febf10"/>
        <g id="Grupo_118938" data-name="Grupo 118938" transform="translate(127.74 58.96)" opacity="0.4">
          <g id="Grupo_118937" data-name="Grupo 118937">
            <g id="Grupo_118936" data-name="Grupo 118936" clip-path="url(#clip-path-7)">
              <path id="Trazado_169400" data-name="Trazado 169400" d="M274,140.44l-9.907-16.333,14.488-2.213,4.454,5.447Z" transform="translate(-264.092 -121.894)" fill="#fff"/>
            </g>
          </g>
        </g>
        <path id="Trazado_169401" data-name="Trazado 169401" d="M245.2,166.247l1.928-2.041s-.227-4.649.567-5.783l.414-.685s-.412-2.261.8-2.783c.343-.855.786-1.2,1.39-.727,0,0-.34-1.7,1.247-1.927s2.041,6.972,2.041,6.972.794,3.232-1.021,3.232a4.071,4.071,0,0,1-2.154,1.247s-.341,1.928-1.928,1.814Z" transform="translate(-126.599 -78.631)" fill="#b37f6d"/>
        <path id="Trazado_169402" data-name="Trazado 169402" d="M249.96,174.248c.01-.009.1.059.181.23a1.3,1.3,0,0,1,.091.8,1.8,1.8,0,0,1-.6,1.033,3.7,3.7,0,0,1-1.265.692,9.029,9.029,0,0,1-2.526.5,3.138,3.138,0,0,1-1.064-.056,16.452,16.452,0,0,0,3.507-.682,3.751,3.751,0,0,0,1.2-.629,1.688,1.688,0,0,0,.575-.895,1.607,1.607,0,0,0-.1-.991" transform="translate(-126.382 -89.965)" fill="#815144"/>
        <path id="Trazado_169403" data-name="Trazado 169403" d="M257.074,162.244c-.077,0-.081-1.447-.429-3.183s-.883-3.08-.811-3.109a3.015,3.015,0,0,1,.42.854,13.233,13.233,0,0,1,.884,4.488,3.016,3.016,0,0,1-.065.95" transform="translate(-132.085 -80.518)" fill="#815144"/>
        <path id="Trazado_169404" data-name="Trazado 169404" d="M254.173,163.986c-.075.006-.211-1.407-.574-3.113s-.8-3.055-.731-3.08a15.254,15.254,0,0,1,1.306,6.193" transform="translate(-130.553 -81.469)" fill="#815144"/>
        <path id="Trazado_169405" data-name="Trazado 169405" d="M260.306,170.48c.058-.036.3.409.14.971s-.579.829-.611.768c-.047-.055.245-.356.368-.833s.034-.881.1-.9" transform="translate(-134.152 -88.019)" fill="#815144"/>
        <path id="Trazado_169406" data-name="Trazado 169406" d="M251.385,167.374a42.892,42.892,0,0,1-.218-3.537,7.395,7.395,0,0,1,.218,3.537" transform="translate(-129.665 -84.59)" fill="#815144"/>
        <path id="Trazado_169407" data-name="Trazado 169407" d="M103.262,174.816s-6.4,13.491-7.364,15.5-2.531,5.732,0,7.816,20.155,2.219,20.155,2.219l.876-7.109-11.593-2.807,6.819-10.239Z" transform="translate(-48.804 -90.258)" fill="#b37f6d"/>
        <path id="Trazado_169408" data-name="Trazado 169408" d="M140.707,207.716a5.83,5.83,0,0,1,1.526-2.014c1.11-.964,3.544-1.709,3.86-2.632s1.239-.207,1.023.943a11.758,11.758,0,0,1-1.645,2.652,4.647,4.647,0,0,0,2.949-.235c1.178-.679,5.305-1.9,5.746-1.323.5.653-.581.87-1.045,1.133-.353.2-3.1,1.56-3.1,1.56a49.759,49.759,0,0,1,6.146.074c.747.282-.018.942-.362.956a8.852,8.852,0,0,0-1.815,1.461,2.476,2.476,0,0,1-1.653.664l-1.269.018,3.853.4s.666.609-.261.927c-.413.142-12.094,1.824-13,1.877-1.566.091-4.046.475-4.046.475l.63-7.27Z" transform="translate(-71.053 -104.628)" fill="#b37f6d"/>
        <path id="Trazado_169409" data-name="Trazado 169409" d="M169.767,215.56a11.531,11.531,0,0,1-5.3.946c0-.074,1.2-.143,2.663-.407s2.616-.609,2.64-.539" transform="translate(-84.914 -111.29)" fill="#815144"/>
        <path id="Trazado_169410" data-name="Trazado 169410" d="M201.1,84l3.041-5.36a14.362,14.362,0,1,1,3.44,3.827l0,.006Z" transform="translate(-103.827 -29.321)" fill="#fff"/>
        <path id="Trazado_169411" data-name="Trazado 169411" d="M201.1,83.893l6.5-1.471.087-.02-.054-.072,0-.006-.082.081a14.33,14.33,0,0,0,6.888,2.909,12.955,12.955,0,0,0,2.274.116c.391-.022.789-.031,1.191-.065l1.214-.183a14.491,14.491,0,0,0,8.979-5.76,14.316,14.316,0,0,0,2.429-5.55,14.64,14.64,0,0,0-.169-6.393,14.166,14.166,0,0,0-3.08-5.91,14.431,14.431,0,0,0-5.537-3.953,14.662,14.662,0,0,0-6.441-.989,14.175,14.175,0,0,0-5.911,1.749,14.568,14.568,0,0,0-6.816,8.393,15.508,15.508,0,0,0-.622,4.672,14.289,14.289,0,0,0,2.149,7.12v-.057L201.1,83.893l3.09-5.333.016-.028-.017-.029a14.251,14.251,0,0,1-2.083-7.066,15.388,15.388,0,0,1,.634-4.614,14.406,14.406,0,0,1,6.746-8.26,13.977,13.977,0,0,1,5.825-1.712,14.455,14.455,0,0,1,6.339.98,14.213,14.213,0,0,1,5.447,3.891,13.959,13.959,0,0,1,3.032,5.814,14.443,14.443,0,0,1,.172,6.292,14.119,14.119,0,0,1-2.384,5.47,14.321,14.321,0,0,1-8.84,5.7l-1.2.185c-.4.034-.79.045-1.177.069a12.769,12.769,0,0,1-2.248-.1,14.282,14.282,0,0,1-6.838-2.839l-.357-.274.275.356,0,.006.033-.091L201.1,83.893" transform="translate(-103.827 -29.218)" fill="#1a2e35"/>
        <path id="Trazado_169412" data-name="Trazado 169412" d="M217.787,81.908l2.007-2.007,3.87,3.441,7.6-7.311,1.864,2.007-9.747,9.174Z" transform="translate(-112.444 -39.255)" fill="#ff004c"/>
      </g>
    </g>
  </g>
</svg>
