<svg id="Grupo_119007" data-name="Grupo 119007" xmlns="http://www.w3.org/2000/svg" xmlns:xlink="http://www.w3.org/1999/xlink" width="234.67" height="219.647" viewBox="0 0 234.67 219.647">
  <defs>
    <clipPath id="clip-path">
      <rect id="Rectángulo_43545" data-name="Rectángulo 43545" width="234.67" height="219.647" fill="none"/>
    </clipPath>
    <clipPath id="clip-path-3">
      <rect id="Rectángulo_43539" data-name="Rectángulo 43539" width="3.399" height="8.789" fill="none"/>
    </clipPath>
    <clipPath id="clip-path-4">
      <rect id="Rectángulo_43540" data-name="Rectángulo 43540" width="2.873" height="2.211" fill="none"/>
    </clipPath>
    <clipPath id="clip-path-5">
      <rect id="Rectángulo_43541" data-name="Rectángulo 43541" width="13.234" height="1.421" fill="none"/>
    </clipPath>
    <clipPath id="clip-path-6">
      <rect id="Rectángulo_43542" data-name="Rectángulo 43542" width="2.512" height="3.541" fill="none"/>
    </clipPath>
    <clipPath id="clip-path-7">
      <rect id="Rectángulo_43543" data-name="Rectángulo 43543" width="10.271" height="8.56" fill="none"/>
    </clipPath>
  </defs>
  <g id="Grupo_119006" data-name="Grupo 119006" clip-path="url(#clip-path)">
    <g id="Grupo_119005" data-name="Grupo 119005">
      <g id="Grupo_119004" data-name="Grupo 119004" clip-path="url(#clip-path)">
        <path id="Trazado_169547" data-name="Trazado 169547" d="M32.79,375.077v13.685h3.161a19.169,19.169,0,0,1,0-4.339c.3-1.615,3.734-5.774,3.633-9.346Z" transform="translate(-14.89 -170.326)" fill="#ececec"/>
        <path id="Trazado_169548" data-name="Trazado 169548" d="M79.108,375.077v13.685h3.161a19.169,19.169,0,0,1,0-4.339c.3-1.615,3.734-5.774,3.633-9.346Z" transform="translate(-35.924 -170.326)" fill="#e1e1e1"/>
        <path id="Trazado_169549" data-name="Trazado 169549" d="M118.786,375.077v13.685h-3.161a19.169,19.169,0,0,0,0-4.339c-.3-1.615-3.734-5.774-3.633-9.346Z" transform="translate(-50.856 -170.326)" fill="#ececec"/>
        <path id="Trazado_169550" data-name="Trazado 169550" d="M158.88,375.077v13.685h-3.161a19.168,19.168,0,0,0,0-4.339c-.3-1.615-3.734-5.774-3.633-9.346Z" transform="translate(-69.063 -170.326)" fill="#e1e1e1"/>
        <rect id="Rectángulo_43534" data-name="Rectángulo 43534" width="75.724" height="68.002" transform="translate(15.75 137.191)" fill="#f5f5f5"/>
        <path id="Trazado_169551" data-name="Trazado 169551" d="M130.2,251.314l.563,68H150.6v-68Z" transform="translate(-59.124 -114.123)" fill="#e1e1e1"/>
        <rect id="Rectángulo_43535" data-name="Rectángulo 43535" width="48.617" height="17.303" transform="translate(19.157 142.194)" fill="#ececec"/>
        <rect id="Rectángulo_43536" data-name="Rectángulo 43536" width="48.617" height="17.303" transform="translate(19.157 162.947)" fill="#ececec"/>
        <rect id="Rectángulo_43537" data-name="Rectángulo 43537" width="48.617" height="17.303" transform="translate(19.157 183.7)" fill="#ececec"/>
        <path id="Trazado_169552" data-name="Trazado 169552" d="M67.49,215.52l-2.1,19.46H92.261l2.228-19.46Z" transform="translate(-29.695 -97.87)" fill="#e1e1e1"/>
        <path id="Trazado_169553" data-name="Trazado 169553" d="M69.561,218.081l-2.04,17.029H91.769l1.962-17.029Z" transform="translate(-30.662 -99.033)" fill="#fff"/>
        <path id="Trazado_169554" data-name="Trazado 169554" d="M77.688,223.328l-1.256,11.3h15.3l.785-11.3Z" transform="translate(-34.709 -101.415)" fill="#ececec"/>
        <path id="Trazado_169555" data-name="Trazado 169555" d="M115.88,230.873l5.55,11.157-6.818-.078Z" transform="translate(-52.046 -104.842)" fill="#ececec"/>
        <path id="Trazado_169556" data-name="Trazado 169556" d="M79.923,276.507a1.778,1.778,0,1,1-1.779-1.779,1.778,1.778,0,0,1,1.779,1.779" transform="translate(-34.679 -124.757)" fill="#e1e1e1"/>
        <path id="Trazado_169557" data-name="Trazado 169557" d="M79.923,314.9a1.778,1.778,0,1,1-1.779-1.778,1.778,1.778,0,0,1,1.779,1.778" transform="translate(-34.679 -142.191)" fill="#e1e1e1"/>
        <path id="Trazado_169558" data-name="Trazado 169558" d="M79.923,353.293a1.778,1.778,0,1,1-1.779-1.779,1.778,1.778,0,0,1,1.779,1.779" transform="translate(-34.679 -159.626)" fill="#e1e1e1"/>
        <path id="Trazado_169559" data-name="Trazado 169559" d="M375.915,48.466l-42.937-.418,1.2,55.956,42.932.158Z" transform="translate(-151.208 -21.819)" fill="#e1e1e1"/>
        <path id="Trazado_169560" data-name="Trazado 169560" d="M375.292,52.574,337.706,51.6l1.087,50.749,37.575.463Z" transform="translate(-153.356 -23.431)" fill="#fafafa"/>
        <path id="Trazado_169561" data-name="Trazado 169561" d="M374.061,66.928l-24.937-.415.76,35.471,24.917-.534Z" transform="translate(-158.54 -30.204)" fill="#ececec"/>
        <path id="Trazado_169562" data-name="Trazado 169562" d="M349.884,101.985,374.41,83.228,349.124,66.514Z" transform="translate(-158.54 -30.205)" fill="#f5f5f5"/>
        <path id="Trazado_169563" data-name="Trazado 169563" d="M231.507,399.854c0,.079-51.829.142-115.748.142C51.818,400,0,399.933,0,399.854s51.818-.142,115.759-.142c63.919,0,115.748.063,115.748.142" transform="translate(0 -181.513)" fill="#1a2e35"/>
        <path id="Trazado_169564" data-name="Trazado 169564" d="M366.5,126.853a2.1,2.1,0,0,0-.387-.118,2.686,2.686,0,0,0-1.184.017,4.278,4.278,0,0,0-1.721.884,9.146,9.146,0,0,0-1.747,2.036,36.591,36.591,0,0,0-3.025,6.845,100.353,100.353,0,0,0-3.079,9.624l0,.013,0,.008a2.794,2.794,0,0,1-.637.788,1.254,1.254,0,0,1-.992.317,1.841,1.841,0,0,1-.914-.527c-.255-.236-.495-.488-.735-.741a16.822,16.822,0,0,0-1.513-1.476,2.785,2.785,0,0,0-1.913-.782,2.586,2.586,0,0,0-1.754,1.168,4.4,4.4,0,0,0-.6,2.168,21.871,21.871,0,0,0,.632,4.772l.935,5.015q.238,1.283.483,2.595.122.655.245,1.318a1.71,1.71,0,0,1-.156,1.4.688.688,0,0,1-.729.248,1.833,1.833,0,0,1-.645-.336l-1.108-.83a24.821,24.821,0,0,0-2.313-1.557,8.809,8.809,0,0,0-2.587-1.077,3.046,3.046,0,0,0-1.377.009,2.035,2.035,0,0,0-1.122.753,4.632,4.632,0,0,0-.735,2.728,15.309,15.309,0,0,0,.286,2.959,37.8,37.8,0,0,0,1.664,5.884,7.766,7.766,0,0,1,.477,1.518,1.1,1.1,0,0,1-.2.842.988.988,0,0,1-.158.159.529.529,0,0,1-.213.126.657.657,0,0,1-.475-.1,8.17,8.17,0,0,1-1.263-1l-1.17-1.084a17.282,17.282,0,0,0-2.483-2,5.179,5.179,0,0,0-1.432-.652,1.775,1.775,0,0,0-1.459.181,2.115,2.115,0,0,0-.826,1.265,6.426,6.426,0,0,0-.195,1.6,13.513,13.513,0,0,0,.411,3.261,28.389,28.389,0,0,0,2.37,6.274,47.637,47.637,0,0,0,3.533,5.87,33.68,33.68,0,0,0,2.128,2.745l2.216,2.716.026.031-.13-.051,3.47-.5a31.862,31.862,0,0,0,3.424-.59,47.457,47.457,0,0,0,6.565-1.969,28.365,28.365,0,0,0,5.976-3.05,13.48,13.48,0,0,0,2.5-2.137,6.423,6.423,0,0,0,.931-1.313,2.123,2.123,0,0,0,.241-1.491,1.777,1.777,0,0,0-.958-1.116,5.177,5.177,0,0,0-1.5-.481,17.283,17.283,0,0,0-3.183-.19l-1.6.016a8.146,8.146,0,0,1-1.61-.106.651.651,0,0,1-.423-.243.531.531,0,0,1-.073-.235,1.02,1.02,0,0,1-.01-.224,1.106,1.106,0,0,1,.418-.759,7.852,7.852,0,0,1,1.374-.8,37.771,37.771,0,0,0,5.189-3.237,15.314,15.314,0,0,0,2.2-2,4.623,4.623,0,0,0,1.288-2.515,2.044,2.044,0,0,0-.326-1.311,3.045,3.045,0,0,0-1.015-.931,8.815,8.815,0,0,0-2.64-.941,24.808,24.808,0,0,0-2.759-.4l-1.378-.131a1.818,1.818,0,0,1-.7-.187.688.688,0,0,1-.367-.676,1.721,1.721,0,0,1,.828-1.137l1.068-.811,2.1-1.6,4.063-3.084a21.8,21.8,0,0,0,3.676-3.107,4.4,4.4,0,0,0,1.009-2.012,2.587,2.587,0,0,0-.515-2.043,1.883,1.883,0,0,0-.894-.533,4.328,4.328,0,0,0-1.049-.173,16.96,16.96,0,0,0-2.112.075c-.348.026-.694.051-1.042.055a1.841,1.841,0,0,1-1.031-.225,1.259,1.259,0,0,1-.521-.9,2.818,2.818,0,0,1,.059-1.011l0-.008.006-.011a100.2,100.2,0,0,0,4.186-9.177,37.668,37.668,0,0,0,2.372-7.084,9.235,9.235,0,0,0,.108-2.676,4.333,4.333,0,0,0-.635-1.824,2.6,2.6,0,0,0-.846-.824,1.952,1.952,0,0,0-.363-.177,1.427,1.427,0,0,1,.375.156,2.563,2.563,0,0,1,.873.818,4.357,4.357,0,0,1,.665,1.842,9.219,9.219,0,0,1-.087,2.7,37.22,37.22,0,0,1-2.339,7.119,99.059,99.059,0,0,1-4.159,9.211l.008-.02a2.646,2.646,0,0,0-.051.941,1.08,1.08,0,0,0,.446.779,1.672,1.672,0,0,0,.931.192c.338,0,.682-.031,1.029-.058a17.091,17.091,0,0,1,2.136-.081,4.527,4.527,0,0,1,1.1.178,2.068,2.068,0,0,1,.981.586,2.773,2.773,0,0,1,.569,2.208,4.592,4.592,0,0,1-1.048,2.11,21.919,21.919,0,0,1-3.708,3.153l-4.054,3.089-2.1,1.6-1.066.812a2.472,2.472,0,0,0-.485.427,1.092,1.092,0,0,0-.251.545.444.444,0,0,0,.248.448,1.61,1.61,0,0,0,.614.157l1.374.128a25.076,25.076,0,0,1,2.787.4,9.067,9.067,0,0,1,2.718.967,3.3,3.3,0,0,1,1.1,1.009,2.291,2.291,0,0,1,.368,1.466,4.852,4.852,0,0,1-1.348,2.666,15.48,15.48,0,0,1-2.236,2.036,37.944,37.944,0,0,1-5.223,3.266,7.815,7.815,0,0,0-1.321.768.838.838,0,0,0-.326.576.728.728,0,0,0,.008.168c.007.043.022.147.039.138a.465.465,0,0,0,.254.117,8.055,8.055,0,0,0,1.546.1l1.593-.017a17.558,17.558,0,0,1,3.234.192,5.457,5.457,0,0,1,1.58.509,2.051,2.051,0,0,1,1.1,1.293,2.393,2.393,0,0,1-.261,1.681,6.71,6.71,0,0,1-.971,1.374,13.75,13.75,0,0,1-2.547,2.183,28.66,28.66,0,0,1-6.034,3.084,47.8,47.8,0,0,1-6.607,1.983,32.17,32.17,0,0,1-3.437.593l-3.476.505-.08.011-.051-.062-.026-.031-2.219-2.72a33.6,33.6,0,0,1-2.135-2.755,47.715,47.715,0,0,1-3.554-5.909,28.619,28.619,0,0,1-2.391-6.338,13.73,13.73,0,0,1-.417-3.327,6.682,6.682,0,0,1,.206-1.669,2.389,2.389,0,0,1,.939-1.419,2.051,2.051,0,0,1,1.679-.218,5.465,5.465,0,0,1,1.511.686,17.565,17.565,0,0,1,2.522,2.032l1.168,1.084a8.036,8.036,0,0,0,1.209.968.475.475,0,0,0,.267.085c.006.017.086-.048.121-.076a.743.743,0,0,0,.119-.119.839.839,0,0,0,.146-.646,7.771,7.771,0,0,0-.461-1.456,37.982,37.982,0,0,1-1.67-5.928,15.546,15.546,0,0,1-.287-3.01,4.862,4.862,0,0,1,.793-2.88,2.292,2.292,0,0,1,1.257-.84,3.288,3.288,0,0,1,1.49-.011,9.031,9.031,0,0,1,2.663,1.11,25,25,0,0,1,2.334,1.576l1.1.829a1.632,1.632,0,0,0,.56.3.445.445,0,0,0,.486-.161,1.08,1.08,0,0,0,.183-.572,2.443,2.443,0,0,0-.071-.642q-.122-.662-.243-1.317l-.478-2.594-.923-5.012a22,22,0,0,1-.626-4.827,4.605,4.605,0,0,1,.642-2.267,2.777,2.777,0,0,1,1.905-1.254,2.075,2.075,0,0,1,1.12.225,4.5,4.5,0,0,1,.931.6,16.882,16.882,0,0,1,1.527,1.5c.239.253.476.5.723.734a1.671,1.671,0,0,0,.818.485,1.079,1.079,0,0,0,.854-.276,2.664,2.664,0,0,0,.6-.731l-.008.02a99,99,0,0,1,3.121-9.632,36.207,36.207,0,0,1,3.073-6.849,9.137,9.137,0,0,1,1.78-2.039,4.3,4.3,0,0,1,1.756-.876,2.646,2.646,0,0,1,1.2.006,1.516,1.516,0,0,1,.382.142" transform="translate(-149.893 -57.508)" fill="#1a2e35"/>
        <path id="Trazado_169565" data-name="Trazado 169565" d="M369.966,140.634a.973.973,0,0,1-.056.178l-.188.513-.749,1.962L366.2,150.5l-9.067,23.821c-3.529,9.311-6.755,17.727-9.146,23.8-1.194,3.036-2.172,5.487-2.862,7.176-.341.831-.61,1.482-.8,1.943l-.214.5a.908.908,0,0,1-.082.168.92.92,0,0,1,.056-.178c.047-.129.109-.3.188-.513l.749-1.962,2.777-7.209,9.068-23.825c3.528-9.307,6.754-17.723,9.145-23.793,1.194-3.036,2.172-5.488,2.862-7.177l.8-1.943.215-.5a.865.865,0,0,1,.082-.168" transform="translate(-156.225 -63.863)" fill="#1a2e35"/>
        <path id="Trazado_169566" data-name="Trazado 169566" d="M384.145,175.139a9.629,9.629,0,0,1-1.366.811l-3.344,1.86c-1.307.727-2.5,1.374-3.375,1.814a7.3,7.3,0,0,1-1.458.635,11.15,11.15,0,0,1,1.364-.813l3.332-1.885c1.307-.727,2.507-1.359,3.389-1.789a8.106,8.106,0,0,1,1.459-.633" transform="translate(-170.11 -79.531)" fill="#1a2e35"/>
        <path id="Trazado_169567" data-name="Trazado 169567" d="M369.177,174.608c-.07.035-1.369-2.442-2.9-5.533s-2.715-5.624-2.644-5.659,1.368,2.442,2.9,5.533,2.715,5.624,2.644,5.659" transform="translate(-165.128 -74.208)" fill="#1a2e35"/>
        <path id="Trazado_169568" data-name="Trazado 169568" d="M359.111,203.537a8.4,8.4,0,0,1-1.2-1.093c-.707-.71-1.659-1.717-2.646-2.887s-1.829-2.272-2.41-3.089a8.235,8.235,0,0,1-.879-1.365,10.418,10.418,0,0,1,1.04,1.244c.62.784,1.48,1.863,2.465,3.025s1.906,2.189,2.575,2.932a10.169,10.169,0,0,1,1.055,1.232" transform="translate(-159.835 -88.598)" fill="#1a2e35"/>
        <path id="Trazado_169569" data-name="Trazado 169569" d="M375.041,206.25a7.851,7.851,0,0,1-1.439.421c-.9.225-2.14.517-3.518.822s-2.628.566-3.536.74a7.861,7.861,0,0,1-1.483.225,7.87,7.87,0,0,1,1.44-.421c.9-.225,2.14-.517,3.518-.822s2.627-.566,3.536-.74a7.87,7.87,0,0,1,1.483-.225" transform="translate(-165.779 -93.656)" fill="#1a2e35"/>
        <path id="Trazado_169570" data-name="Trazado 169570" d="M367.95,230.745a12.843,12.843,0,0,1-1.855.5c-1.154.27-2.752.625-4.521,1s-3.374.7-4.539.917a12.808,12.808,0,0,1-1.9.3,12.838,12.838,0,0,1,1.855-.5c1.154-.27,2.752-.625,4.522-1s3.374-.7,4.539-.917a12.859,12.859,0,0,1,1.9-.3" transform="translate(-161.271 -104.78)" fill="#1a2e35"/>
        <path id="Trazado_169571" data-name="Trazado 169571" d="M348.376,226.332a2.075,2.075,0,0,1-.41-.372c-.251-.252-.6-.626-1.033-1.095-.856-.938-2.01-2.262-3.221-3.778s-2.254-2.929-2.981-3.971c-.364-.52-.65-.948-.842-1.247a2.08,2.08,0,0,1-.273-.481,2.093,2.093,0,0,1,.364.418l.914,1.193c.767,1.01,1.83,2.4,3.041,3.912s2.334,2.852,3.15,3.823a16.385,16.385,0,0,1,1.292,1.6" transform="translate(-154.222 -97.809)" fill="#1a2e35"/>
        <path id="Trazado_169572" data-name="Trazado 169572" d="M337.323,247.3c-9.479-7.639-10.852-20.705-9.662-32.284.2-1.933.126-3.99,1.164-5.627s3.268-2.65,4.947-1.715c1.393.776,1.9,2.493,2.615,3.932a11.363,11.363,0,0,0,4.245,4.652,4.328,4.328,0,0,0,3.953.633c1.734-.807,2.09-3.1,2.21-5.03q.336-5.389.672-10.778a18.013,18.013,0,0,1,.974-5.683,5.991,5.991,0,0,1,4.034-3.783,3.633,3.633,0,0,1,4.32,2.737,17.936,17.936,0,0,1-.11,2.4,2.031,2.031,0,0,0,1.055,1.989,2.336,2.336,0,0,0,2.176-.739,25.679,25.679,0,0,0,5.076-6.629,35.657,35.657,0,0,1,4.781-6.872,10.445,10.445,0,0,1,7.331-3.475c2.771.033,5.594,1.938,6.105,4.695s-1.261,5.412-3.136,7.492a43.114,43.114,0,0,1-9.541,7.921,3.547,3.547,0,0,0-1.609,1.508c-.507,1.256.623,2.615,1.863,3.124a22.344,22.344,0,0,0,4.462.814c1.49.28,3.072,1.054,3.543,2.513.654,2.024-1.135,3.975-2.848,5.215a36.92,36.92,0,0,1-11.336,5.547,12.453,12.453,0,0,0-4.187,1.691A3.575,3.575,0,0,0,359,225.554c.6,1.406,2.34,1.962,3.844,1.788a25.721,25.721,0,0,0,4.339-1.325c2.716-.818,6.123-.4,7.663,2a6.115,6.115,0,0,1,.279,5.437,14.093,14.093,0,0,1-3.248,4.561,37.132,37.132,0,0,1-16.582,10.032c-6.288,1.709-12.019,1.895-17.971-.757" transform="translate(-148.629 -82.205)" fill="#ff4f5b"/>
        <path id="Trazado_169573" data-name="Trazado 169573" d="M337.323,247.3c-9.479-7.639-10.852-20.705-9.662-32.284.2-1.933.126-3.99,1.164-5.627s3.268-2.65,4.947-1.715c1.393.776,1.9,2.493,2.615,3.932a11.363,11.363,0,0,0,4.245,4.652,4.328,4.328,0,0,0,3.953.633c1.734-.807,2.09-3.1,2.21-5.03q.336-5.389.672-10.778a18.013,18.013,0,0,1,.974-5.683,5.991,5.991,0,0,1,4.034-3.783,3.633,3.633,0,0,1,4.32,2.737,17.936,17.936,0,0,1-.11,2.4,2.031,2.031,0,0,0,1.055,1.989,2.336,2.336,0,0,0,2.176-.739,25.679,25.679,0,0,0,5.076-6.629,35.657,35.657,0,0,1,4.781-6.872,10.445,10.445,0,0,1,7.331-3.475c2.771.033,5.594,1.938,6.105,4.695s-1.261,5.412-3.136,7.492a43.114,43.114,0,0,1-9.541,7.921,3.547,3.547,0,0,0-1.609,1.508c-.507,1.256.623,2.615,1.863,3.124a22.344,22.344,0,0,0,4.462.814c1.49.28,3.072,1.054,3.543,2.513.654,2.024-1.135,3.975-2.848,5.215a36.92,36.92,0,0,1-11.336,5.547,12.453,12.453,0,0,0-4.187,1.691A3.575,3.575,0,0,0,359,225.554c.6,1.406,2.34,1.962,3.844,1.788a25.721,25.721,0,0,0,4.339-1.325c2.716-.818,6.123-.4,7.663,2a6.115,6.115,0,0,1,.279,5.437,14.093,14.093,0,0,1-3.248,4.561,37.132,37.132,0,0,1-16.582,10.032c-6.288,1.709-12.019,1.895-17.971-.757" transform="translate(-148.629 -82.205)" fill="#febf10"/>
        <path id="Trazado_169574" data-name="Trazado 169574" d="M344.3,257.437a84.776,84.776,0,0,1,4.238-15.664,173.127,173.127,0,0,1,8.128-18.118l2.375-4.64c.783-1.521,1.559-3.03,2.41-4.458a86.427,86.427,0,0,1,5.357-7.929c1.826-2.44,3.648-4.688,5.367-6.777s3.367-4,4.939-5.683a68.56,68.56,0,0,1,8-7.374c1.009-.794,1.812-1.384,2.362-1.776l.628-.443a1.468,1.468,0,0,1,.221-.14,1.392,1.392,0,0,1-.2.17l-.607.471c-.535.411-1.324,1.019-2.319,1.828a72.534,72.534,0,0,0-7.9,7.438c-1.556,1.688-3.185,3.607-4.9,5.7s-3.518,4.349-5.333,6.787a87.35,87.35,0,0,0-5.319,7.908c-.844,1.422-1.612,2.918-2.4,4.443l-2.372,4.638a177.284,177.284,0,0,0-8.139,18.071,86.238,86.238,0,0,0-4.3,15.59" transform="translate(-156.351 -83.753)" fill="#1a2e35"/>
        <path id="Trazado_169575" data-name="Trazado 169575" d="M374.768,221.808a3.912,3.912,0,0,1-.132-.835c-.064-.54-.132-1.323-.2-2.292-.141-1.937-.244-4.619-.346-7.576s-.243-5.631-.414-7.561c-.082-.965-.156-1.746-.215-2.284a3.906,3.906,0,0,1-.05-.844,3.828,3.828,0,0,1,.187.824c.1.534.213,1.312.328,2.277.235,1.93.417,4.612.519,7.573.094,2.919.178,5.559.243,7.576.035.911.065,1.679.089,2.3a3.885,3.885,0,0,1-.006.846" transform="translate(-169.564 -91.011)" fill="#1a2e35"/>
        <path id="Trazado_169576" data-name="Trazado 169576" d="M401,234.126a5.362,5.362,0,0,1-1,.051c-.64.013-1.565.026-2.708.08-2.286.089-5.439.323-8.906.733s-6.59.927-8.837,1.362c-1.126.209-2.032.4-2.66.533a5.324,5.324,0,0,1-.983.171,5.3,5.3,0,0,1,.951-.307c.619-.172,1.52-.4,2.642-.646,2.241-.5,5.368-1.051,8.847-1.47a87.534,87.534,0,0,1,8.94-.63c1.147-.021,2.076,0,2.717.034a5.273,5.273,0,0,1,.993.089" transform="translate(-170.703 -106.259)" fill="#1a2e35"/>
        <path id="Trazado_169577" data-name="Trazado 169577" d="M344.108,261.644a1.284,1.284,0,0,1-.149-.314l-.362-.925c-.311-.8-.73-1.981-1.229-3.441-1-2.92-2.256-7-3.58-11.514s-2.541-8.6-3.478-11.539c-.46-1.428-.84-2.6-1.121-3.475-.12-.378-.219-.691-.3-.948a1.279,1.279,0,0,1-.082-.338,1.314,1.314,0,0,1,.149.314l.362.924c.311.805.73,1.982,1.229,3.442,1,2.92,2.256,7,3.581,11.516s2.54,8.6,3.478,11.537c.461,1.427.84,2.6,1.121,3.474l.3.948a1.3,1.3,0,0,1,.082.339" transform="translate(-151.583 -104.059)" fill="#1a2e35"/>
        <path id="Trazado_169578" data-name="Trazado 169578" d="M386.326,273.373a1.362,1.362,0,0,1-.336.112l-.978.254-3.6.9c-3.043.762-7.233,1.86-11.861,3.082s-8.835,2.284-11.894,2.982c-1.53.349-2.77.62-3.631.789l-.992.189a1.273,1.273,0,0,1-.351.042,1.349,1.349,0,0,1,.336-.112l.978-.254,3.6-.9c3.042-.76,7.233-1.86,11.863-3.082s8.833-2.283,11.892-2.981c1.53-.35,2.77-.62,3.631-.789l.993-.189a1.3,1.3,0,0,1,.351-.041" transform="translate(-160.155 -124.139)" fill="#1a2e35"/>
        <rect id="Rectángulo_43538" data-name="Rectángulo 43538" width="132.382" height="181.401" transform="translate(58.516 14.397)" fill="#4c53b5"/>
        <path id="Trazado_169579" data-name="Trazado 169579" d="M243.513,203.084H127.386V39.8H243.513V203.084Z" transform="translate(-57.847 -18.075)" fill="#e1e1e1"/>
        <path id="Trazado_169580" data-name="Trazado 169580" d="M241.023,198.259H125.943V35.848h115.08V198.259Z" transform="translate(-57.192 -16.279)" fill="#ececec"/>
        <path id="Trazado_169581" data-name="Trazado 169581" d="M226.87,185.963l-13.255,10.793H122.007V36.6H238.134V176.832Z" transform="translate(-55.404 -16.622)" fill="#fafafa"/>
        <path id="Trazado_169582" data-name="Trazado 169582" d="M226.752,185.844s.235-.2.708-.589l2.123-1.736,8.4-6.841-.017.035c-.014-23.034-.044-74.218-.084-140.228l.129.128L122.9,36.626h-1.014l.142-.142c-.011,60.209-.021,115.753-.028,160.152l-.114-.114,91.608.065-.031.011,9.954-8.075,2.494-2.015c.556-.447.837-.665.837-.665s-.271.231-.821.685l-2.479,2.035-9.924,8.111-.013.011H213.5l-91.608.066h-.114v-.114c-.008-44.4-.018-99.943-.028-160.152v-.142H122.9l115.113.014h.128v.129c-.039,66.011-.069,117.194-.083,140.228v.022l-.017.014-8.432,6.807-2.138,1.718c-.478.382-.723.57-.723.57" transform="translate(-55.286 -16.503)" fill="#1a2e35"/>
        <path id="Trazado_169583" data-name="Trazado 169583" d="M232.442,32.392H184.915V24.155a8.056,8.056,0,0,1,8.056-8.056h31.745a7.727,7.727,0,0,1,7.727,7.727Z" transform="translate(-83.972 -7.311)" fill="#242ca3"/>
        <path id="Trazado_169584" data-name="Trazado 169584" d="M204.794,8.789,203.057,0h27.366L228.9,8.789Z" transform="translate(-92.21 0)" fill="#242ca3"/>
        <path id="Trazado_169585" data-name="Trazado 169585" d="M163.821,102.907H144.257V83.343h19.564Zm-19.018-.546h18.472V83.889H144.8Z" transform="translate(-65.508 -37.847)" fill="#ff4f5b"/>
        <path id="Trazado_169586" data-name="Trazado 169586" d="M256.138,91.88c0,.079-13.618.142-30.413.142s-30.416-.063-30.416-.142,13.615-.142,30.416-.142,30.413.063,30.413.142" transform="translate(-88.692 -41.659)" fill="#1a2e35"/>
        <path id="Trazado_169587" data-name="Trazado 169587" d="M256.138,99.327c0,.079-13.618.142-30.413.142s-30.416-.063-30.416-.142,13.615-.142,30.416-.142,30.413.063,30.413.142" transform="translate(-88.692 -45.041)" fill="#1a2e35"/>
        <path id="Trazado_169588" data-name="Trazado 169588" d="M256.138,106.774c0,.079-13.618.142-30.413.142s-30.416-.063-30.416-.142,13.615-.142,30.416-.142,30.413.063,30.413.142" transform="translate(-88.692 -48.423)" fill="#1a2e35"/>
        <path id="Trazado_169589" data-name="Trazado 169589" d="M256.138,114.222c0,.079-13.618.142-30.413.142s-30.416-.063-30.416-.142,13.615-.142,30.416-.142,30.413.063,30.413.142" transform="translate(-88.692 -51.805)" fill="#1a2e35"/>
        <path id="Trazado_169590" data-name="Trazado 169590" d="M163.821,158.141H144.257V138.577h19.564Zm-19.018-.546h18.472V139.123H144.8Z" transform="translate(-65.508 -62.929)" fill="#ff4f5b"/>
        <path id="Trazado_169591" data-name="Trazado 169591" d="M151.384,149.792l2.6-2.789,4.328,3.463,9.908-9.619,2.374,2.8-12.474,12.3Z" transform="translate(-68.745 -63.959)" fill="#ff004c"/>
        <path id="Trazado_169592" data-name="Trazado 169592" d="M256.138,147.113c0,.079-13.618.142-30.413.142s-30.416-.063-30.416-.142,13.615-.142,30.416-.142,30.413.063,30.413.142" transform="translate(-88.692 -66.741)" fill="#1a2e35"/>
        <path id="Trazado_169593" data-name="Trazado 169593" d="M256.138,154.56c0,.079-13.618.142-30.413.142s-30.416-.063-30.416-.142,13.615-.142,30.416-.142,30.413.063,30.413.142" transform="translate(-88.692 -70.123)" fill="#1a2e35"/>
        <path id="Trazado_169594" data-name="Trazado 169594" d="M256.138,162.008c0,.079-13.618.142-30.413.142s-30.416-.063-30.416-.142,13.615-.142,30.416-.142,30.413.063,30.413.142" transform="translate(-88.692 -73.505)" fill="#1a2e35"/>
        <path id="Trazado_169595" data-name="Trazado 169595" d="M256.138,169.455c0,.079-13.618.142-30.413.142s-30.416-.063-30.416-.142,13.615-.142,30.416-.142,30.413.063,30.413.142" transform="translate(-88.692 -76.887)" fill="#1a2e35"/>
        <path id="Trazado_169596" data-name="Trazado 169596" d="M163.821,211.588H144.257V192.024h19.564Zm-19.018-.546h18.472V192.57H144.8Z" transform="translate(-65.508 -87.2)" fill="#ff4f5b"/>
        <path id="Trazado_169597" data-name="Trazado 169597" d="M151.384,203.24l2.6-2.789,4.328,3.463,9.908-9.62,2.374,2.8-12.474,12.3Z" transform="translate(-68.745 -88.231)" fill="#ff004c"/>
        <path id="Trazado_169598" data-name="Trazado 169598" d="M256.138,200.561c0,.079-13.618.142-30.413.142s-30.416-.063-30.416-.142,13.615-.142,30.416-.142,30.413.063,30.413.142" transform="translate(-88.692 -91.012)" fill="#1a2e35"/>
        <path id="Trazado_169599" data-name="Trazado 169599" d="M256.138,208.009c0,.079-13.618.142-30.413.142s-30.416-.063-30.416-.142,13.615-.142,30.416-.142,30.413.063,30.413.142" transform="translate(-88.692 -94.394)" fill="#1a2e35"/>
        <path id="Trazado_169600" data-name="Trazado 169600" d="M256.138,215.456c0,.079-13.618.142-30.413.142s-30.416-.063-30.416-.142,13.615-.142,30.416-.142,30.413.063,30.413.142" transform="translate(-88.692 -97.776)" fill="#1a2e35"/>
        <path id="Trazado_169601" data-name="Trazado 169601" d="M256.138,222.9c0,.079-13.618.142-30.413.142s-30.416-.063-30.416-.142,13.615-.142,30.416-.142,30.413.063,30.413.142" transform="translate(-88.692 -101.158)" fill="#1a2e35"/>
        <path id="Trazado_169602" data-name="Trazado 169602" d="M163.821,263.194H144.257V243.63h19.564Zm-19.018-.546h18.472V244.176H144.8Z" transform="translate(-65.508 -110.635)" fill="#ff4f5b"/>
        <path id="Trazado_169603" data-name="Trazado 169603" d="M151.384,254.845l2.6-2.789,4.328,3.463,9.908-9.62,2.374,2.8L158.118,261Z" transform="translate(-68.745 -111.665)" fill="#ff004c"/>
        <path id="Trazado_169604" data-name="Trazado 169604" d="M256.138,252.167c0,.079-13.618.142-30.413.142s-30.416-.063-30.416-.142,13.615-.142,30.416-.142,30.413.063,30.413.142" transform="translate(-88.692 -114.447)" fill="#1a2e35"/>
        <path id="Trazado_169605" data-name="Trazado 169605" d="M256.138,259.614c0,.079-13.618.142-30.413.142s-30.416-.063-30.416-.142,13.615-.142,30.416-.142,30.413.063,30.413.142" transform="translate(-88.692 -117.829)" fill="#1a2e35"/>
        <path id="Trazado_169606" data-name="Trazado 169606" d="M256.138,267.061c0,.079-13.618.142-30.413.142s-30.416-.063-30.416-.142,13.615-.142,30.416-.142,30.413.063,30.413.142" transform="translate(-88.692 -121.21)" fill="#1a2e35"/>
        <path id="Trazado_169607" data-name="Trazado 169607" d="M256.138,274.509c0,.079-13.618.142-30.413.142s-30.416-.063-30.416-.142,13.615-.142,30.416-.142,30.413.063,30.413.142" transform="translate(-88.692 -124.593)" fill="#1a2e35"/>
        <path id="Trazado_169608" data-name="Trazado 169608" d="M285.9,281.408,273.17,307.775h9.09Z" transform="translate(-124.049 -127.79)" fill="#e1e1e1"/>
        <path id="Trazado_169609" data-name="Trazado 169609" d="M289.821,308.048l3.642-26.367,20.877,6.443Z" transform="translate(-131.61 -127.914)" fill="#fafafa"/>
        <path id="Trazado_169610" data-name="Trazado 169610" d="M289.821,307.9l7.021-5.779,17.41-14.253.047.241-8.061-2.484-12.815-3.963.172-.11c-1.091,7.659-2.026,14.219-2.691,18.883-.658,4.534-1,6.874-1.084,7.466a.964.964,0,0,1,.012-.117c.011-.094.027-.215.046-.365q.067-.513.188-1.436c.169-1.281.412-3.122.717-5.435.628-4.7,1.513-11.314,2.546-19.033l.021-.156.151.046,12.82,3.948,8.058,2.49.249.077-.2.163L296.806,302.3l-5.146,4.135-1.372,1.1-.352.28c-.078.061-.117.091-.115.087" transform="translate(-131.61 -127.769)" fill="#1a2e35"/>
        <g id="Grupo_118991" data-name="Grupo 118991" transform="translate(134.813)" opacity="0.3">
          <g id="Grupo_118990" data-name="Grupo 118990">
            <g id="Grupo_118989" data-name="Grupo 118989" clip-path="url(#clip-path-3)">
              <path id="Trazado_169611" data-name="Trazado 169611" d="M248.468,0l-1.509,8.788h1.879L250.358,0h-2.393" transform="translate(-246.959 0)"/>
            </g>
          </g>
        </g>
        <path id="Trazado_169612" data-name="Trazado 169612" d="M99.446,145.49h0a4.911,4.911,0,0,0,5.283-4.708c.1-2.673.192-5.375.192-5.375s4.051-.379,4.345-4.388.159-13.264.159-13.264a13.969,13.969,0,0,0-14.117.908l.25,14.109v7.591c.027,2.545,1.35,4.934,3.888,5.129" transform="translate(-43.28 -52.795)" fill="#ffc09d"/>
        <path id="Trazado_169613" data-name="Trazado 169613" d="M103.537,123.327a2.055,2.055,0,0,0-2.739-.6,2.33,2.33,0,0,0-.776,2.913,3.07,3.07,0,0,0,1.966,1.487,1.54,1.54,0,0,1,1.206,1.658,5.136,5.136,0,0,1-1.408,2.792,7.4,7.4,0,0,1-4.64,2.2c-1.708.2-3.663-.154-4.656-1.557a6.364,6.364,0,0,1-.8-3.606l-.183-8.867a12.655,12.655,0,0,1,.2-3.181,4.271,4.271,0,0,1,1.678-2.631,13.112,13.112,0,0,1,3.321-1.055,27.437,27.437,0,0,0,3.867-2.035,4.753,4.753,0,0,1,4.2-.407c.936.47,1.563,1.4,2.474,1.922,1.3.737,3.06.57,3.69,2.476a3.231,3.231,0,0,1-.021,2.038,4.711,4.711,0,0,1-6.4,2.518,6.356,6.356,0,0,1-.075,2.8c-.148.443-.2,1.12-.894,1.132" transform="translate(-41.548 -49.998)" fill="#1a2e35"/>
        <path id="Trazado_169614" data-name="Trazado 169614" d="M87.628,111.846a13.63,13.63,0,0,0,1.288-4.027,4.613,4.613,0,0,0-1.263-3.892,3.8,3.8,0,0,0-2.643-.935,4.468,4.468,0,0,0-4.029,3.192,4.814,4.814,0,0,0,1.62,4.931,5.219,5.219,0,0,0,5.194.677" transform="translate(-36.701 -46.769)" fill="#1a2e35"/>
        <path id="Trazado_169615" data-name="Trazado 169615" d="M93.154,116.534a1.974,1.974,0,0,1-1.9,1.855c-.019-.081.587-.242,1.11-.764s.709-1.113.79-1.092" transform="translate(-41.439 -52.919)" fill="#ff4f5b"/>
        <path id="Trazado_169616" data-name="Trazado 169616" d="M88.522,115.3a3.773,3.773,0,0,1-1.089.8A3.146,3.146,0,0,1,86,116.5a2,2,0,0,1-1.673-.751,2.231,2.231,0,0,1-.3-1.813,3.525,3.525,0,0,1,.674-1.327,4.192,4.192,0,0,1,.949-.957,12.579,12.579,0,0,1-.786,1.075,3.6,3.6,0,0,0-.581,1.266,2.024,2.024,0,0,0,.27,1.588,1.774,1.774,0,0,0,1.443.657,3.156,3.156,0,0,0,1.346-.325c.73-.353,1.151-.658,1.178-.616" transform="translate(-38.126 -50.702)" fill="#1a2e35"/>
        <path id="Trazado_169617" data-name="Trazado 169617" d="M79.833,123.248a1.752,1.752,0,0,1,.2.444,4.583,4.583,0,0,0,.591,1.142,1.656,1.656,0,0,0,1.569.722,2.154,2.154,0,0,0,1.511-1.521,15.617,15.617,0,0,0,.41-2.329,3.6,3.6,0,0,1,.765-1.837,1.979,1.979,0,0,1,1.167-.665.773.773,0,0,1,.491.042c0,.027-.177-.008-.469.067a1.982,1.982,0,0,0-1.036.687,3.542,3.542,0,0,0-.659,1.748,13.968,13.968,0,0,1-.4,2.379,2.387,2.387,0,0,1-1.734,1.687,1.6,1.6,0,0,1-1.087-.21,2.276,2.276,0,0,1-.691-.65,3.937,3.937,0,0,1-.534-1.227,1.5,1.5,0,0,1-.09-.479" transform="translate(-36.25 -54.125)" fill="#1a2e35"/>
        <path id="Trazado_169618" data-name="Trazado 169618" d="M75.474,188.316s-2.043,14.968,0,16.866a4.272,4.272,0,0,0,4.01,1.268l3.891-3.254.766-14.88Z" transform="translate(-33.861 -85.516)" fill="#ffc09d"/>
        <path id="Trazado_169619" data-name="Trazado 169619" d="M153.684,103.9l2.6-2.789,4.328,3.463,9.908-9.619,2.374,2.8-12.474,12.3Z" transform="translate(-69.789 -43.119)" fill="#ff004c"/>
        <path id="Trazado_169620" data-name="Trazado 169620" d="M157.624,112.733l-3.767,2.417c-.17-1.489-1.307-2.964-1.248-2.216s.007,4.628.007,4.628L145.9,131.7a6.691,6.691,0,0,1-4.144,3.979l-6.27,1.865,2.451,8.289,8.715-2.889a7.516,7.516,0,0,0,4.776-4.79l6.008-18.3a28.428,28.428,0,0,0,.971-3.606,6.875,6.875,0,0,0-.78-3.51" transform="translate(-61.525 -51.193)" fill="#ffc09d"/>
        <path id="Trazado_169621" data-name="Trazado 169621" d="M112.9,392.42l-.094-4.191-7.852.126.072,6.133.487.023c2.168.086,11.032.283,12.474-.179,1.608-.516-5.088-1.912-5.088-1.912" transform="translate(-47.66 -176.298)" fill="#ff4f5b"/>
        <g id="Grupo_118994" data-name="Grupo 118994" transform="translate(57.337 215.871)" opacity="0.5">
          <g id="Grupo_118993" data-name="Grupo 118993">
            <g id="Grupo_118992" data-name="Grupo 118992" clip-path="url(#clip-path-4)">
              <path id="Trazado_169622" data-name="Trazado 169622" d="M107.907,397.659A2.724,2.724,0,0,0,106.879,396a2.647,2.647,0,0,0-1.845-.542l.033,2.195Z" transform="translate(-105.034 -395.448)" fill="#fff"/>
            </g>
          </g>
        </g>
        <g id="Grupo_118997" data-name="Grupo 118997" transform="translate(57.364 216.92)" opacity="0.4">
          <g id="Grupo_118996" data-name="Grupo 118996">
            <g id="Grupo_118995" data-name="Grupo 118995" clip-path="url(#clip-path-5)">
              <path id="Trazado_169623" data-name="Trazado 169623" d="M116.231,397.369s2.349.637,2.063,1.027-9.25.528-13.21.242l.01-.176,10.458-.072s.222-1,.679-1.022" transform="translate(-105.084 -397.369)" fill="#fff"/>
            </g>
          </g>
        </g>
        <path id="Trazado_169624" data-name="Trazado 169624" d="M104.876,399.2a.718.718,0,0,0,.135.013l.388.017,1.428.039c1.206.025,2.873.037,4.713.01s3.507-.088,4.712-.148l1.426-.081.388-.029a.744.744,0,0,0,.135-.016.76.76,0,0,0-.136,0l-.388.011-1.427.051c-1.205.043-2.87.093-4.71.12s-3.505.025-4.711.017L105.4,399.2h-.389a.716.716,0,0,0-.135.007" transform="translate(-47.625 -181.191)" fill="#1a2e35"/>
        <path id="Trazado_169625" data-name="Trazado 169625" d="M124.247,398.432a2.075,2.075,0,0,1,.734-1.239,1.269,1.269,0,0,0-.734,1.239" transform="translate(-56.415 -180.368)" fill="#1a2e35"/>
        <path id="Trazado_169626" data-name="Trazado 169626" d="M119.979,396.827c.022.014.131-.123.243-.305s.184-.341.162-.355-.131.123-.243.305-.184.341-.162.355" transform="translate(-54.482 -179.903)" fill="#1a2e35"/>
        <path id="Trazado_169627" data-name="Trazado 169627" d="M118.806,396.4c.018.019.141-.066.274-.189s.227-.24.209-.259-.14.065-.274.189-.227.24-.209.259" transform="translate(-53.95 -179.806)" fill="#1a2e35"/>
        <path id="Trazado_169628" data-name="Trazado 169628" d="M118.051,395.392a1.8,1.8,0,1,0,.41-.049.924.924,0,0,0-.41.049" transform="translate(-53.608 -179.529)" fill="#1a2e35"/>
        <path id="Trazado_169629" data-name="Trazado 169629" d="M117.784,394.472a1.152,1.152,0,0,0,.93.056,33.464,33.464,0,0,1-.93-.056" transform="translate(-53.487 -179.13)" fill="#1a2e35"/>
        <path id="Trazado_169630" data-name="Trazado 169630" d="M120.451,395.515a1.454,1.454,0,0,0,.5-.011,2.97,2.97,0,0,0,.536-.127,1.478,1.478,0,0,0,.306-.132.274.274,0,0,0,.122-.159.2.2,0,0,0-.08-.2.926.926,0,0,0-1.14.288.9.9,0,0,0-.159.34c-.019.086-.017.135-.011.136a1.4,1.4,0,0,1,.223-.434.914.914,0,0,1,.427-.287.785.785,0,0,1,.6.032c.081.058.051.152-.037.207a1.5,1.5,0,0,1-.282.126,3.438,3.438,0,0,1-.517.143c-.3.058-.494.062-.493.078" transform="translate(-54.698 -179.279)" fill="#1a2e35"/>
        <path id="Trazado_169631" data-name="Trazado 169631" d="M120.133,395.351a.5.5,0,0,0,.053-.351.828.828,0,0,0-.144-.367.507.507,0,0,0-.424-.251.2.2,0,0,0-.152.235.55.55,0,0,0,.089.224,1.531,1.531,0,0,0,.243.3.721.721,0,0,0,.292.2c.009-.013-.1-.089-.243-.246a1.775,1.775,0,0,1-.216-.3c-.071-.106-.121-.3,0-.322s.257.11.336.209a.83.83,0,0,1,.147.326,1.824,1.824,0,0,1,.014.34" transform="translate(-54.249 -179.092)" fill="#1a2e35"/>
        <path id="Trazado_169632" data-name="Trazado 169632" d="M105.109,395.378c0,.017.224-.025.58.011A2.46,2.46,0,0,1,107.771,397c.125.335.14.561.158.558a.451.451,0,0,0,0-.158,2.061,2.061,0,0,0-.092-.423,2.387,2.387,0,0,0-2.139-1.652,2.065,2.065,0,0,0-.432.018.456.456,0,0,0-.154.038" transform="translate(-47.731 -179.518)" fill="#1a2e35"/>
        <path id="Trazado_169633" data-name="Trazado 169633" d="M106.472,389.419a27.439,27.439,0,0,0,.009,3.227,27.439,27.439,0,0,0-.009-3.227" transform="translate(-48.33 -176.839)" fill="#1a2e35"/>
        <path id="Trazado_169634" data-name="Trazado 169634" d="M112.086,398.049a6.448,6.448,0,0,0,2.295-.014c0-.027-.515.012-1.147.015s-1.145-.028-1.147,0" transform="translate(-50.899 -180.747)" fill="#1a2e35"/>
        <path id="Trazado_169635" data-name="Trazado 169635" d="M109.264,398.1c-.019.02.044.108.1.225s.085.221.111.218.039-.124-.025-.259-.168-.2-.184-.185" transform="translate(-49.616 -180.781)" fill="#1a2e35"/>
        <path id="Trazado_169636" data-name="Trazado 169636" d="M108.181,396.8c-.019.019.033.1.116.181s.164.132.183.113-.033-.1-.116-.181-.164-.132-.183-.113" transform="translate(-49.124 -180.188)" fill="#1a2e35"/>
        <path id="Trazado_169637" data-name="Trazado 169637" d="M106.655,396.181c.006.027.11.024.226.063s.2.1.221.081-.047-.126-.191-.171-.264,0-.255.028" transform="translate(-48.433 -179.888)" fill="#1a2e35"/>
        <path id="Trazado_169638" data-name="Trazado 169638" d="M105.567,395.936c-.009.025.037.064.1.088s.126.024.135,0-.037-.064-.1-.088-.126-.024-.135,0" transform="translate(-47.938 -179.79)" fill="#1a2e35"/>
        <path id="Trazado_169639" data-name="Trazado 169639" d="M62.664,386.577l2.662-3.238-6.034-5.025-3.945,4.7.354.335c1.588,1.479,8.179,7.409,9.573,8,1.555.657-2.61-4.767-2.61-4.767" transform="translate(-25.134 -171.795)" fill="#ff4f5b"/>
        <g id="Grupo_119000" data-name="Grupo 119000" transform="translate(30.291 209.447)" opacity="0.5">
          <g id="Grupo_118999" data-name="Grupo 118999">
            <g id="Grupo_118998" data-name="Grupo 118998" clip-path="url(#clip-path-6)">
              <path id="Trazado_169640" data-name="Trazado 169640" d="M57.638,387.221a2.725,2.725,0,0,0,.3-1.928,2.648,2.648,0,0,0-1.045-1.613l-1.406,1.685Z" transform="translate(-55.489 -383.68)" fill="#fff"/>
            </g>
          </g>
        </g>
        <g id="Grupo_119003" data-name="Grupo 119003" transform="translate(30.213 211.087)" opacity="0.4">
          <g id="Grupo_119002" data-name="Grupo 119002">
            <g id="Grupo_119001" data-name="Grupo 119001" clip-path="url(#clip-path-7)">
              <path id="Trazado_169641" data-name="Trazado 169641" d="M64.624,393.118s1.365,2.015.894,2.124-7.356-5.633-10.172-8.431l.122-.127,7.975,6.766s.817-.61,1.181-.332" transform="translate(-55.347 -386.684)" fill="#fff"/>
            </g>
          </g>
        </g>
        <path id="Trazado_169642" data-name="Trazado 169642" d="M55.4,386.532a.723.723,0,0,0,.094.1l.283.266,1.057.961c.9.805,2.154,1.9,3.566,3.082s2.716,2.22,3.668,2.96l1.134.868.313.231a.71.71,0,0,0,.113.075.759.759,0,0,0-.1-.091l-.3-.245-1.115-.892c-.941-.753-2.236-1.8-3.649-2.981s-2.673-2.267-3.583-3.059l-1.076-.938-.295-.253a.747.747,0,0,0-.107-.084" transform="translate(-25.158 -175.528)" fill="#1a2e35"/>
        <path id="Trazado_169643" data-name="Trazado 169643" d="M70.031,398.818a2.073,2.073,0,0,1,1.365-.461,1.269,1.269,0,0,0-1.365.461" transform="translate(-31.801 -180.873)" fill="#1a2e35"/>
        <path id="Trazado_169644" data-name="Trazado 169644" d="M68.152,394.671a.829.829,0,0,0,.383-.073c.2-.065.362-.139.354-.164a.825.825,0,0,0-.383.073c-.2.065-.362.138-.354.163" transform="translate(-30.948 -179.113)" fill="#1a2e35"/>
        <path id="Trazado_169645" data-name="Trazado 169645" d="M67.652,393.605c0,.026.149.042.331.035s.329-.033.328-.059-.149-.043-.331-.035-.329.033-.328.059" transform="translate(-30.721 -178.712)" fill="#1a2e35"/>
        <path id="Trazado_169646" data-name="Trazado 169646" d="M67.955,392.14c-.017.02.109.156.281.3s.326.25.343.23-.109-.155-.281-.3-.326-.25-.343-.23" transform="translate(-30.858 -178.073)" fill="#1a2e35"/>
        <path id="Trazado_169647" data-name="Trazado 169647" d="M68.372,391.244a1.156,1.156,0,0,0,.669.649c.014-.024-.155-.145-.336-.323s-.309-.341-.332-.326" transform="translate(-31.047 -177.667)" fill="#1a2e35"/>
        <path id="Trazado_169648" data-name="Trazado 169648" d="M69.305,394.125a1.451,1.451,0,0,0,.39.32,2.918,2.918,0,0,0,.488.253,1.49,1.49,0,0,0,.318.1.273.273,0,0,0,.2-.04.2.2,0,0,0,.07-.2.926.926,0,0,0-1.052-.525.907.907,0,0,0-.342.153c-.07.053-.1.092-.1.1a1.443,1.443,0,0,1,.452-.183.914.914,0,0,1,.51.061.78.78,0,0,1,.436.417c.024.1-.061.15-.163.133a1.518,1.518,0,0,1-.3-.088,3.465,3.465,0,0,1-.486-.229c-.266-.152-.414-.275-.424-.263" transform="translate(-31.459 -178.922)" fill="#1a2e35"/>
        <path id="Trazado_169649" data-name="Trazado 169649" d="M69.381,393.5c0,.009.141-.043.269-.232a.825.825,0,0,0,.13-.371.505.505,0,0,0-.158-.467.2.2,0,0,0-.269.08.548.548,0,0,0-.079.228,1.554,1.554,0,0,0-.013.387.733.733,0,0,0,.091.342c.015,0-.019-.134-.024-.346a1.8,1.8,0,0,1,.032-.367c.015-.127.1-.3.213-.241a.451.451,0,0,1,.118.378.825.825,0,0,1-.1.343,1.809,1.809,0,0,1-.211.266" transform="translate(-31.45 -178.195)" fill="#1a2e35"/>
        <path id="Trazado_169650" data-name="Trazado 169650" d="M58.148,383.7c-.01.015.187.128.432.387a2.459,2.459,0,0,1,.53,2.577c-.123.335-.259.516-.245.526s.043-.038.1-.121a2.061,2.061,0,0,0,.206-.38,2.388,2.388,0,0,0-.544-2.648,2.115,2.115,0,0,0-.339-.268.458.458,0,0,0-.141-.072" transform="translate(-26.405 -174.24)" fill="#1a2e35"/>
        <path id="Trazado_169651" data-name="Trazado 169651" d="M61.381,380.055a27.366,27.366,0,0,0-2.1,2.452,27.14,27.14,0,0,0,2.1-2.452" transform="translate(-26.92 -172.586)" fill="#1a2e35"/>
        <path id="Trazado_169652" data-name="Trazado 169652" d="M61.714,390.248a6.444,6.444,0,0,0,1.748,1.486c.016-.023-.4-.327-.879-.737s-.849-.768-.869-.749" transform="translate(-28.025 -177.215)" fill="#1a2e35"/>
        <path id="Trazado_169653" data-name="Trazado 169653" d="M59.439,388.44c-.027,0-.037.11-.073.234s-.08.222-.058.239.11-.069.15-.213.006-.264-.019-.26" transform="translate(-26.93 -176.394)" fill="#1a2e35"/>
        <path id="Trazado_169654" data-name="Trazado 169654" d="M59.555,386.744c-.026,0-.04.1-.03.213s.039.207.065.2.04-.1.03-.213-.039-.207-.065-.2" transform="translate(-27.03 -175.624)" fill="#1a2e35"/>
        <path id="Trazado_169655" data-name="Trazado 169655" d="M58.8,385.3c-.014.024.067.09.13.195s.087.206.114.205.046-.126-.033-.254-.2-.17-.211-.146" transform="translate(-26.702 -174.966)" fill="#1a2e35"/>
        <path id="Trazado_169656" data-name="Trazado 169656" d="M58.143,384.392c-.023.013-.014.073.02.134s.08.1.1.088.014-.073-.02-.134-.08-.1-.1-.088" transform="translate(-26.398 -174.555)" fill="#1a2e35"/>
        <path id="Trazado_169657" data-name="Trazado 169657" d="M79.553,232.361s-2.614,11.061-1.875,13.25,5.529,3.453,5.529,3.453l-.162,30.289L56.557,312.1l9.782,8s28.676-32.8,31.2-38.744-1.611-49.484-1.611-49.484Z" transform="translate(-25.683 -105.295)" fill="#1a2e35"/>
        <path id="Trazado_169658" data-name="Trazado 169658" d="M105.057,224.508l1.3,92-13.475.068-6.763-74.926c-1.43-1.364-3.44-3.7-3.163-8.913l.328-6.055Z" transform="translate(-37.657 -101.951)" fill="#1a2e35"/>
        <path id="Trazado_169659" data-name="Trazado 169659" d="M97.439,296.62a.532.532,0,0,1,.078-.136l.255-.377,1-1.417,3.656-5.061-.022.069c-.294-3.193-.649-7.065-1.033-11.24-.489-5.471-.885-10.429-1.119-14.022-.119-1.8-.2-3.251-.24-4.256-.017-.481-.03-.866-.04-1.159a2.153,2.153,0,0,1,.005-.405,2.176,2.176,0,0,1,.052.4c.023.292.054.676.093,1.155.08,1.035.193,2.478.33,4.249.284,3.587.712,8.54,1.2,14.011.367,4.19.741,8.056.983,11.265l0,.035-.026.034-3.736,5-1.053,1.379-.283.357c-.066.08-.1.119-.107.115" transform="translate(-44.247 -117.439)" fill="#375a64"/>
        <path id="Trazado_169660" data-name="Trazado 169660" d="M99.153,257.374a18.377,18.377,0,0,1-3.568-.531,18.382,18.382,0,0,1-3.481-.949,30.535,30.535,0,0,1,3.539.671,30.432,30.432,0,0,1,3.51.809" transform="translate(-41.826 -116.199)" fill="#375a64"/>
        <path id="Trazado_169661" data-name="Trazado 169661" d="M115.782,315.108a10.752,10.752,0,0,0-7.383-.585,3.079,3.079,0,0,1,1.05-.412,8.277,8.277,0,0,1,5.36.425,3.06,3.06,0,0,1,.972.572" transform="translate(-49.225 -142.523)" fill="#375a64"/>
        <path id="Trazado_169662" data-name="Trazado 169662" d="M116.357,323.963c.063.047-3.728,5.135-8.465,11.362s-8.63,11.239-8.693,11.191,3.727-5.134,8.466-11.363,8.629-11.238,8.692-11.19" transform="translate(-45.047 -147.114)" fill="#375a64"/>
        <path id="Trazado_169663" data-name="Trazado 169663" d="M121.64,236.431a2.259,2.259,0,0,1-.759,1,3.754,3.754,0,0,1-5.492-.579,2.259,2.259,0,0,1-.533-1.137,11.794,11.794,0,0,0,.689,1.01,3.744,3.744,0,0,0,5.21.55,11.766,11.766,0,0,0,.885-.844" transform="translate(-52.156 -107.04)" fill="#375a64"/>
        <path id="Trazado_169664" data-name="Trazado 169664" d="M90.514,136.683a11.752,11.752,0,0,1-.638-16.39" transform="translate(-39.441 -54.626)" fill="#1a2e35"/>
        <path id="Trazado_169665" data-name="Trazado 169665" d="M76.755,166.037s-2.928,3.307-3.534,15.956c0,0,8.337,1.582,8.49,1.127s-4.956-17.083-4.956-17.083" transform="translate(-33.25 -75.399)" fill="#ff4f5b"/>
        <path id="Trazado_169666" data-name="Trazado 169666" d="M76.755,166.037s-2.928,3.307-3.534,15.956c0,0,8.337,1.582,8.49,1.127s-4.956-17.083-4.956-17.083" transform="translate(-33.25 -75.399)" fill="#febf10"/>
        <path id="Trazado_169667" data-name="Trazado 169667" d="M80.283,197.7h25.6l-.413-4s-2.925-15.212-2.9-15.412l.461-.969a9.65,9.65,0,0,0,.112-8.049l12.533-4.286L112.6,154.648c-5.687.96-14.284,2.031-14.284,2.031l-1.28.108s-8.874.463-9.063.486c-3.712.449-8.031.734-9.61,4.707-.844,2.124-.042,5.313,1.336,8.6l3.281,10.1c1.31,5.55-.781,5.286-1.928,10.872-.174.845-.785,5.379-.768,6.154" transform="translate(-35.428 -70.227)" fill="#ff4f5b"/>
        <path id="Trazado_169668" data-name="Trazado 169668" d="M80.283,197.7h25.6l-.413-4s-2.925-15.212-2.9-15.412l.461-.969a9.65,9.65,0,0,0,.112-8.049l12.533-4.286L112.6,154.648c-5.687.96-14.284,2.031-14.284,2.031l-1.28.108s-8.874.463-9.063.486c-3.712.449-8.031.734-9.61,4.707-.844,2.124-.042,5.313,1.336,8.6l3.281,10.1c1.31,5.55-.781,5.286-1.928,10.872-.174.845-.785,5.379-.768,6.154" transform="translate(-35.428 -70.227)" fill="#febf10"/>
        <path id="Trazado_169669" data-name="Trazado 169669" d="M134.8,173.9a2.479,2.479,0,0,1-.556.234c-.364.133-.893.316-1.548.537-1.311.443-3.131,1.029-5.139,1.672s-3.805,1.281-5.081,1.808c-.64.258-1.149.489-1.5.64a2.463,2.463,0,0,1-.561.221,2.477,2.477,0,0,1,.512-.32c.342-.183.84-.442,1.473-.725a48.378,48.378,0,0,1,5.073-1.894c2.012-.643,3.839-1.2,5.166-1.592.663-.2,1.2-.35,1.575-.451a2.469,2.469,0,0,1,.59-.128" transform="translate(-54.681 -78.966)" fill="#1a2e35"/>
        <path id="Trazado_169670" data-name="Trazado 169670" d="M115.93,163.695c0,.079-7.568.142-16.9.142s-16.9-.063-16.9-.142,7.565-.142,16.9-.142,16.9.063,16.9.142" transform="translate(-37.295 -74.271)" fill="#fafafa"/>
        <path id="Trazado_169671" data-name="Trazado 169671" d="M114.186,172.9c0,.079-8.421.142-18.808.142s-18.809-.063-18.809-.142,8.42-.142,18.809-.142,18.808.063,18.808.142" transform="translate(-34.771 -78.453)" fill="#fafafa"/>
        <path id="Trazado_169672" data-name="Trazado 169672" d="M77.8,183.383a4.446,4.446,0,0,1-1.567.142,4.443,4.443,0,0,1-1.567-.142,4.442,4.442,0,0,1,1.567-.142,4.445,4.445,0,0,1,1.567.142" transform="translate(-33.906 -83.211)" fill="#fafafa"/>
        <path id="Trazado_169673" data-name="Trazado 169673" d="M105.007,183.7c0,.079-5.507.142-12.3.142s-12.3-.063-12.3-.142,5.506-.142,12.3-.142,12.3.063,12.3.142" transform="translate(-36.513 -83.356)" fill="#fafafa"/>
        <path id="Trazado_169674" data-name="Trazado 169674" d="M106.112,194.5c0,.079-4.943.142-11.04.142s-11.04-.063-11.04-.142,4.942-.142,11.04-.142,11.04.063,11.04.142" transform="translate(-38.16 -88.259)" fill="#fafafa"/>
        <path id="Trazado_169675" data-name="Trazado 169675" d="M107.538,204.5c0,.079-4.481.142-10.006.142s-10.007-.063-10.007-.142,4.48-.142,10.007-.142,10.006.063,10.006.142" transform="translate(-39.746 -92.801)" fill="#fafafa"/>
        <path id="Trazado_169676" data-name="Trazado 169676" d="M107.981,212.6c0,.079-4.793.142-10.7.142s-10.7-.063-10.7-.142,4.791-.142,10.7-.142,10.7.063,10.7.142" transform="translate(-39.314 -96.478)" fill="#fafafa"/>
        <path id="Trazado_169677" data-name="Trazado 169677" d="M108.069,222.918c0,.079-5.452.142-12.177.142s-12.178-.063-12.178-.142,5.451-.142,12.178-.142,12.177.063,12.177.142" transform="translate(-38.015 -101.165)" fill="#fafafa"/>
        <path id="Trazado_169678" data-name="Trazado 169678" d="M83.061,190.469a2.089,2.089,0,0,1-.227-.5l-.538-1.4c-.45-1.181-1.085-2.808-1.744-4.623s-1.206-3.478-1.55-4.7c-.171-.61-.3-1.106-.373-1.453a2.052,2.052,0,0,1-.09-.545,20.043,20.043,0,0,1,.655,1.94c.392,1.2.963,2.848,1.626,4.66s1.263,3.451,1.666,4.652c.2.6.356,1.089.454,1.429a2.084,2.084,0,0,1,.122.539" transform="translate(-35.663 -80.491)" fill="#1a2e35"/>
      </g>
    </g>
  </g>
</svg>
