<svg xmlns="http://www.w3.org/2000/svg" xmlns:xlink="http://www.w3.org/1999/xlink" width="100" height="100" viewBox="0 0 100 100">
  <defs>
    <filter id="Rectángulo_43547" x="0" y="0" width="100" height="100" filterUnits="userSpaceOnUse">
      <feOffset dy="3" input="SourceAlpha"/>
      <feGaussianBlur stdDeviation="3" result="blur"/>
      <feFlood flood-opacity="0.161"/>
      <feComposite operator="in" in2="blur"/>
      <feComposite in="SourceGraphic"/>
    </filter>
    <clipPath id="clip-path">
      <rect id="Rectángulo_43612" data-name="Rectángulo 43612" width="66.915" height="66.915" fill="none"/>
    </clipPath>
    <filter id="Rectángulo_43547-2" x="0" y="0" width="100" height="100" filterUnits="userSpaceOnUse">
      <feOffset dy="3" input="SourceAlpha"/>
      <feGaussianBlur stdDeviation="3" result="blur-2"/>
      <feFlood flood-opacity="0.161"/>
      <feComposite operator="in" in2="blur-2"/>
      <feComposite in="SourceGraphic"/>
    </filter>
  </defs>
  <g id="Grupo_129711" data-name="Grupo 129711" transform="translate(-1098.334 -109)">
    <g id="Grupo_119234" data-name="Grupo 119234">
      <g transform="matrix(1, 0, 0, 1, 1098.33, 109)" filter="url(#Rectángulo_43547)">
        <rect id="Rectángulo_43547-3" data-name="Rectángulo 43547" width="82" height="82" rx="23" transform="translate(9 6)" fill="#fff"/>
      </g>
      <g id="Grupo_119040" data-name="Grupo 119040" transform="translate(1129.846 112.445) rotate(22)">
        <g id="Grupo_119039" data-name="Grupo 119039" clip-path="url(#clip-path)">
          <path id="Trazado_170077" data-name="Trazado 170077" d="M33.458,0A33.458,33.458,0,1,0,66.916,33.458,33.457,33.457,0,0,0,33.458,0" transform="translate(-0.001 0)" fill="#c50"/>
          <path id="Trazado_170078" data-name="Trazado 170078" d="M55.675,79.662A23.987,23.987,0,1,1,79.661,55.675,23.987,23.987,0,0,1,55.675,79.662" transform="translate(-22.217 -22.217)" fill="#fff"/>
          <path id="Trazado_170079" data-name="Trazado 170079" d="M119.115,12.572a1.511,1.511,0,0,1-.554.978,1.487,1.487,0,0,1-1.093.281,1.512,1.512,0,0,1-1.132-.611,1.919,1.919,0,0,1-.317-1.364,2.12,2.12,0,0,1,.277-.886,1.65,1.65,0,0,1,2.482-.372,1.276,1.276,0,0,1,.408.927l-.6-.058a.8.8,0,0,0-.246-.518.9.9,0,0,0-.548-.233.909.909,0,0,0-.606.138,1.063,1.063,0,0,0-.388.448,1.993,1.993,0,0,0-.147,1.1,1.472,1.472,0,0,0,.136.429.853.853,0,0,0,.291.331.957.957,0,0,0,.459.158q.776.075.973-.8Z" transform="translate(-81.335 -7.145)" fill="#fff"/>
          <path id="Trazado_170080" data-name="Trazado 170080" d="M131.9,12.31l-.117.5-1.856-.432-.21.9,1.722.4-.112.482-1.723-.4-.233,1,1.884.439-.119.511-2.476-.577.791-3.4Z" transform="translate(-90.207 -8.231)" fill="#fff"/>
          <path id="Trazado_170081" data-name="Trazado 170081" d="M140.767,14.9l1.545.583a1.432,1.432,0,0,1,.711.517.841.841,0,0,1,.047.805.931.931,0,0,1-.331.449.843.843,0,0,1-.512.15.709.709,0,0,1,.175.16.539.539,0,0,1,.09.17.6.6,0,0,1,.018.2,1.253,1.253,0,0,1-.023.193q-.017.08-.055.207c-.005.022-.017.065-.035.128l-.037.125-.03.107c-.014.051-.023.086-.027.107s-.01.052-.017.093-.011.073-.013.1,0,.048,0,.077a.318.318,0,0,0,.007.079.35.35,0,0,0,.022.066l-.614-.232a.245.245,0,0,1-.009-.053.444.444,0,0,1,0-.063.482.482,0,0,1,.007-.06c0-.018.008-.042.014-.073s.012-.056.018-.075l.024-.085.024-.085.029-.1c.014-.047.025-.079.032-.1a.925.925,0,0,0,.039-.611.816.816,0,0,0-.492-.355l-.761-.287L140.1,18.38l-.568-.214Zm.392.682-.386,1.022.756.285a1.91,1.91,0,0,0,.287.087,1.1,1.1,0,0,0,.256.021.376.376,0,0,0,.238-.091.6.6,0,0,0,.167-.256.583.583,0,0,0,.043-.279.373.373,0,0,0-.1-.213.836.836,0,0,0-.185-.148,1.651,1.651,0,0,0-.247-.114Z" transform="translate(-97.832 -10.448)" fill="#fff"/>
          <path id="Trazado_170082" data-name="Trazado 170082" d="M156.565,20.986l-.249.467-.982-.523-1.39,2.612-.541-.288,1.39-2.612-.982-.523.249-.467Z" transform="translate(-107.555 -13.779)" fill="#fff"/>
          <rect id="Rectángulo_43602" data-name="Rectángulo 43602" width="3.488" height="0.617" transform="translate(47.954 10.689) rotate(-56.807)" fill="#fff"/>
          <path id="Trazado_170083" data-name="Trazado 170083" d="M169.143,31.192l-.322.407-1.41-1.115-.59.745,1.237.979-.307.388-1.237-.979-.946,1.195-.484-.383,2.164-2.735Z" transform="translate(-115.745 -20.818)" fill="#fff"/>
          <rect id="Rectángulo_43603" data-name="Rectángulo 43603" width="3.488" height="0.617" transform="translate(51.801 13.661) rotate(-46.517)" fill="#fff"/>
          <path id="Trazado_170084" data-name="Trazado 170084" d="M181.611,43.756l-.387.339-1.255-1.434-.7.609,1.165,1.331-.372.325L178.9,43.6l-.774.678L179.4,45.73l-.395.345-1.674-1.914,2.626-2.3Z" transform="translate(-124.331 -29.352)" fill="#fff"/>
          <path id="Trazado_170085" data-name="Trazado 170085" d="M187.506,51.66l.735,1.106a2.408,2.408,0,0,1,.289.572,1.257,1.257,0,0,1,.045.576,1.69,1.69,0,0,1-.821,1.163,1.916,1.916,0,0,1-1.45.376,1.214,1.214,0,0,1-.51-.223,2.121,2.121,0,0,1-.439-.505l-.754-1.134Zm-.1.794-2.044,1.359.4.6a.921.921,0,0,0,.725.489,1.584,1.584,0,0,0,.9-.317,1.329,1.329,0,0,0,.586-.707,1.007,1.007,0,0,0-.19-.856Z" transform="translate(-129.429 -36.22)" fill="#fff"/>
          <path id="Trazado_170086" data-name="Trazado 170086" d="M198.69,71.427a.875.875,0,1,1-.668.008.841.841,0,0,1,.668-.008" transform="translate(-138.465 -50.033)" fill="#fff"/>
          <path id="Trazado_170087" data-name="Trazado 170087" d="M201.479,89.006a1.509,1.509,0,0,1-1.1-.225,1.486,1.486,0,0,1-.6-.953,1.511,1.511,0,0,1,.232-1.265,1.92,1.92,0,0,1,1.2-.722,2.12,2.12,0,0,1,.929-.01,1.652,1.652,0,0,1,1.12,2.246,1.276,1.276,0,0,1-.757.674l-.131-.593a.8.8,0,0,0,.417-.393.9.9,0,0,0,.052-.593.912.912,0,0,0-.319-.534,1.065,1.065,0,0,0-.545-.23,1.881,1.881,0,0,0-.632.037,1.9,1.9,0,0,0-.456.161,1.485,1.485,0,0,0-.366.262.863.863,0,0,0-.225.378.954.954,0,0,0-.008.486q.168.76,1.063.678Z" transform="translate(-140.034 -60.145)" fill="#fff"/>
          <path id="Trazado_170088" data-name="Trazado 170088" d="M205.263,101.752l-.513.044-.162-1.9-.922.079.15,1.762-.493.042-.15-1.762-1.025.087.164,1.928-.522.045-.216-2.533,3.476-.3Z" transform="translate(-141.329 -69.586)" fill="#fff"/>
          <path id="Trazado_170089" data-name="Trazado 170089" d="M205.531,111.6l-.073,1.649a1.433,1.433,0,0,1-.27.837.842.842,0,0,1-.751.3.93.93,0,0,1-.529-.175.843.843,0,0,1-.3-.44.705.705,0,0,1-.1.216.543.543,0,0,1-.134.139.6.6,0,0,1-.18.078,1.27,1.27,0,0,1-.19.038c-.054.006-.126.01-.214.013-.023,0-.067,0-.132.007l-.13,0-.111.005-.111.007-.094.013c-.041.006-.072.013-.094.018l-.074.022a.321.321,0,0,0-.073.031.334.334,0,0,0-.056.042l.029-.656a.254.254,0,0,1,.048-.025.542.542,0,0,1,.06-.019.531.531,0,0,1,.059-.012l.074-.009.076-.006.088,0,.088,0,.1,0c.049,0,.083,0,.1,0a.926.926,0,0,0,.593-.153.815.815,0,0,0,.185-.578l.036-.813-1.439-.063.027-.607Zm-.526.585-1.091-.048-.036.808a1.933,1.933,0,0,0,.006.3,1.123,1.123,0,0,0,.06.25.38.38,0,0,0,.16.2.607.607,0,0,0,.3.079.586.586,0,0,0,.279-.047.374.374,0,0,0,.172-.161.843.843,0,0,0,.083-.222,1.663,1.663,0,0,0,.032-.271Z" transform="translate(-141.569 -78.137)" fill="#fff"/>
          <path id="Trazado_170090" data-name="Trazado 170090" d="M203.984,127.358l-.522-.09.19-1.1-2.915-.5.1-.6,2.916.5.19-1.1.521.09Z" transform="translate(-140.742 -87.271)" fill="#fff"/>
          <rect id="Rectángulo_43604" data-name="Rectángulo 43604" width="0.617" height="3.488" transform="translate(59.444 40.767) rotate(-74.978)" fill="#fff"/>
          <path id="Trazado_170091" data-name="Trazado 170091" d="M199.887,143.235l-.487-.18.622-1.687-.892-.329-.546,1.48-.464-.171.545-1.48-1.43-.527.213-.579,3.273,1.206Z" transform="translate(-138.287 -97.992)" fill="#fff"/>
          <rect id="Rectángulo_43605" data-name="Rectángulo 43605" width="0.617" height="3.488" transform="translate(57.71 45.311) rotate(-64.568)" fill="#fff"/>
          <path id="Trazado_170092" data-name="Trazado 170092" d="M190.241,158.661l-.442-.263.976-1.637-.8-.474-.905,1.519-.425-.253.906-1.519-.884-.527-.991,1.662-.45-.268,1.3-2.184,3,1.786Z" transform="translate(-131.272 -108.476)" fill="#fff"/>
          <path id="Trazado_170093" data-name="Trazado 170093" d="M185.472,166.449l-.824,1.041a2.406,2.406,0,0,1-.455.452,1.258,1.258,0,0,1-.534.221,1.69,1.69,0,0,1-1.36-.421,1.918,1.918,0,0,1-.806-1.263,1.213,1.213,0,0,1,.054-.554,2.111,2.111,0,0,1,.345-.574l.846-1.068Zm-.784.154-1.924-1.524-.447.565a.922.922,0,0,0-.241.841,1.585,1.585,0,0,0,.58.759,1.333,1.333,0,0,0,.854.339,1.009,1.009,0,0,0,.756-.445Z" transform="translate(-127.243 -115.183)" fill="#fff"/>
          <path id="Trazado_170094" data-name="Trazado 170094" d="M174.006,182.358a.875.875,0,1,1-.215-.633.841.841,0,0,1,.215.633" transform="translate(-120.777 -127.203)" fill="#fff"/>
          <path id="Trazado_170095" data-name="Trazado 170095" d="M155.2,190.956a1.51,1.51,0,0,1-.129-1.117,1.485,1.485,0,0,1,.716-.872,1.511,1.511,0,0,1,1.275-.175,1.921,1.921,0,0,1,1.06.915,2.117,2.117,0,0,1,.3.879,1.651,1.651,0,0,1-1.784,1.765,1.277,1.277,0,0,1-.877-.508l.522-.31a.8.8,0,0,0,.5.273.9.9,0,0,0,.58-.136.907.907,0,0,0,.408-.47,1.061,1.061,0,0,0,.049-.59,1.989,1.989,0,0,0-.528-.971,1.483,1.483,0,0,0-.363-.266.864.864,0,0,0-.429-.1.958.958,0,0,0-.464.144.857.857,0,0,0-.312,1.222Z" transform="translate(-108.685 -132.318)" fill="#fff"/>
          <path id="Trazado_170096" data-name="Trazado 170096" d="M144.465,197.717l-.2-.473,1.754-.746-.363-.852-1.627.692-.194-.455,1.627-.692-.4-.947-1.781.757-.205-.482,2.34-1,1.366,3.21Z" transform="translate(-100.312 -135.684)" fill="#fff"/>
          <path id="Trazado_170097" data-name="Trazado 170097" d="M134.755,201.114l-1.591.441a1.433,1.433,0,0,1-.879,0,.842.842,0,0,1-.513-.623.93.93,0,0,1,0-.557.841.841,0,0,1,.325-.423.707.707,0,0,1-.236-.026.53.53,0,0,1-.173-.084.576.576,0,0,1-.13-.147,1.276,1.276,0,0,1-.1-.169c-.022-.05-.048-.116-.078-.2-.009-.021-.025-.062-.047-.124l-.044-.123c-.007-.02-.02-.055-.039-.1s-.032-.083-.041-.1-.022-.048-.041-.085-.034-.065-.046-.084-.027-.04-.043-.065a.313.313,0,0,0-.052-.059.355.355,0,0,0-.057-.04l.632-.175a.254.254,0,0,1,.039.038.561.561,0,0,1,.037.051.464.464,0,0,1,.03.053l.031.068c.013.029.023.052.03.071l.031.083.03.083.034.1c.016.046.027.079.032.1a.924.924,0,0,0,.329.516.816.816,0,0,0,.607,0l.784-.217-.385-1.388.585-.162Zm-.718-.32-.292-1.053-.779.216a1.96,1.96,0,0,0-.283.1,1.133,1.133,0,0,0-.219.135.379.379,0,0,0-.139.214.6.6,0,0,0,.016.306.587.587,0,0,0,.131.251.373.373,0,0,0,.207.113.835.835,0,0,0,.237.011,1.672,1.672,0,0,0,.267-.054Z" transform="translate(-91.831 -138.649)" fill="#fff"/>
          <path id="Trazado_170098" data-name="Trazado 170098" d="M121.614,204.878l-.075-.524,1.1-.157-.419-2.929.606-.087.419,2.929,1.1-.157.075.524Z" transform="translate(-85.214 -141.053)" fill="#fff"/>
          <rect id="Rectángulo_43606" data-name="Rectángulo 43606" width="0.617" height="3.488" transform="matrix(0.999, -0.052, 0.052, 0.999, 34.581, 60.423)" fill="#fff"/>
          <path id="Trazado_170099" data-name="Trazado 170099" d="M103.707,205.654l.019-.519,1.8.066.035-.95-1.576-.058L104,203.7l1.576.058.056-1.523.617.023-.128,3.486Z" transform="translate(-72.712 -141.792)" fill="#fff"/>
          <rect id="Rectángulo_43607" data-name="Rectángulo 43607" width="3.488" height="0.617" transform="matrix(0.126, -0.992, 0.992, 0.126, 29.28, 63.649)" fill="#fff"/>
          <path id="Trazado_170100" data-name="Trazado 170100" d="M85.253,202.478l.112-.5,1.86.416.2-.9L85.7,201.1l.108-.483,1.726.386.224-1-1.888-.422.114-.512,2.481.555-.761,3.4Z" transform="translate(-59.773 -139.572)" fill="#fff"/>
          <path id="Trazado_170101" data-name="Trazado 170101" d="M75.492,200.115l-1.245-.46a2.407,2.407,0,0,1-.571-.292,1.254,1.254,0,0,1-.376-.439,1.69,1.69,0,0,1-.023-1.424,1.918,1.918,0,0,1,.95-1.158,1.21,1.21,0,0,1,.543-.12,2.106,2.106,0,0,1,.652.149l1.278.472Zm-.39-.7.85-2.3-.675-.25a.921.921,0,0,0-.874.033,1.581,1.581,0,0,0-.541.787,1.328,1.328,0,0,0-.056.917,1.007,1.007,0,0,0,.658.58Z" transform="translate(-51.275 -137.576)" fill="#fff"/>
          <path id="Trazado_170102" data-name="Trazado 170102" d="M60.908,193.341a.875.875,0,1,1,.535-.4.839.839,0,0,1-.535.4" transform="translate(-41.941 -134.35)" fill="#fff"/>
          <path id="Trazado_170103" data-name="Trazado 170103" d="M43.3,178.516a1.509,1.509,0,0,1,1.022-.469,1.487,1.487,0,0,1,1.051.412,1.51,1.51,0,0,1,.561,1.158,1.921,1.921,0,0,1-.542,1.291,2.118,2.118,0,0,1-.743.556,1.651,1.651,0,0,1-2.23-1.151,1.276,1.276,0,0,1,.212-.991l.456.4a.8.8,0,0,0-.1.564.9.9,0,0,0,.309.509.908.908,0,0,0,.573.243,1.062,1.062,0,0,0,.576-.136,1.873,1.873,0,0,0,.488-.4,1.894,1.894,0,0,0,.273-.4,1.492,1.492,0,0,0,.141-.427.862.862,0,0,0-.042-.438.957.957,0,0,0-.281-.4.857.857,0,0,0-1.258.081Z" transform="translate(-29.724 -124.833)" fill="#fff"/>
          <path id="Trazado_170104" data-name="Trazado 170104" d="M32.191,170.2l.387-.338,1.254,1.435.7-.609-1.164-1.332.373-.325,1.163,1.332.775-.677L34.4,168.23l.395-.345,1.673,1.915-2.627,2.294Z" transform="translate(-22.57 -117.709)" fill="#fff"/>
          <path id="Trazado_170105" data-name="Trazado 170105" d="M26.747,161.878l-.915-1.374a1.435,1.435,0,0,1-.276-.834.842.842,0,0,1,.432-.682.93.93,0,0,1,.531-.171.842.842,0,0,1,.5.177.714.714,0,0,1-.049-.232A.538.538,0,0,1,27,158.57a.6.6,0,0,1,.1-.169,1.241,1.241,0,0,1,.131-.143q.061-.055.165-.137c.017-.015.052-.043.1-.083l.1-.08.086-.069c.041-.033.069-.057.085-.071s.039-.036.068-.066.051-.053.065-.07l.048-.061a.311.311,0,0,0,.04-.068.328.328,0,0,0,.021-.066l.364.546a.25.25,0,0,1-.024.048.431.431,0,0,1-.037.051.44.44,0,0,1-.041.045l-.054.051c-.023.022-.042.038-.058.051l-.069.055-.069.055-.082.063c-.039.03-.067.05-.083.061a.926.926,0,0,0-.388.473.815.815,0,0,0,.192.575l.451.677,1.2-.8.337.505Zm.079-.782.909-.606-.448-.673a1.93,1.93,0,0,0-.182-.238,1.107,1.107,0,0,0-.2-.166.377.377,0,0,0-.247-.065.6.6,0,0,0-.285.111.581.581,0,0,0-.2.2.374.374,0,0,0-.043.232.829.829,0,0,0,.064.228,1.64,1.64,0,0,0,.134.237Z" transform="translate(-17.918 -110.418)" fill="#fff"/>
          <path id="Trazado_170106" data-name="Trazado 170106" d="M18.411,151.586l.474-.235.493,1,2.652-1.313.272.548L19.65,152.9l.493,1-.474.235Z" transform="translate(-12.908 -105.895)" fill="#fff"/>
          <rect id="Rectángulo_43608" data-name="Rectángulo 43608" width="3.488" height="0.617" transform="translate(4.913 44.155) rotate(-21.134)" fill="#fff"/>
          <path id="Trazado_170107" data-name="Trazado 170107" d="M12.661,134.92l.5-.142.493,1.729.914-.261-.433-1.517.476-.135.433,1.517,1.465-.418.169.593-3.354.957Z" transform="translate(-8.877 -94.367)" fill="#fff"/>
          <rect id="Rectángulo_43609" data-name="Rectángulo 43609" width="3.488" height="0.617" transform="translate(3.458 38.855) rotate(-10.721)" fill="#fff"/>
          <path id="Trazado_170108" data-name="Trazado 170108" d="M10.014,116.319l.512-.048.178,1.9.922-.087-.166-1.761.493-.046.166,1.761,1.024-.1-.181-1.927.522-.049.238,2.531-3.473.326Z" transform="translate(-7.021 -81.305)" fill="#fff"/>
          <path id="Trazado_170109" data-name="Trazado 170109" d="M9.878,105.926l.049-1.327a2.4,2.4,0,0,1,.1-.633,1.261,1.261,0,0,1,.3-.494,1.689,1.689,0,0,1,1.346-.464,1.917,1.917,0,0,1,1.4.542,1.215,1.215,0,0,1,.284.479,2.114,2.114,0,0,1,.061.666l-.051,1.361Zm.542-.588,2.453.091.027-.719a.922.922,0,0,0-.3-.82,1.587,1.587,0,0,0-.917-.269,1.332,1.332,0,0,0-.889.232,1.007,1.007,0,0,0-.346.806Z" transform="translate(-6.926 -72.22)" fill="#fff"/>
          <path id="Trazado_170110" data-name="Trazado 170110" d="M15.353,89.259a.875.875,0,1,1,.547.383.841.841,0,0,1-.547-.383" transform="translate(-10.669 -61.641)" fill="#fff"/>
          <path id="Trazado_170111" data-name="Trazado 170111" d="M20.4,68.684a1.51,1.51,0,0,1,.762.826,1.486,1.486,0,0,1-.065,1.126,1.51,1.51,0,0,1-.927.892,1.919,1.919,0,0,1-1.4-.114,2.123,2.123,0,0,1-.76-.534,1.651,1.651,0,0,1,.4-2.477,1.278,1.278,0,0,1,1.008-.106l-.24.558a.8.8,0,0,0-.568.076.9.9,0,0,0-.389.452.909.909,0,0,0-.053.62,1.061,1.061,0,0,0,.308.505,1.881,1.881,0,0,0,.534.339,1.9,1.9,0,0,0,.464.135,1.5,1.5,0,0,0,.45,0,.868.868,0,0,0,.4-.176.96.96,0,0,0,.29-.39.857.857,0,0,0-.467-1.171Z" transform="translate(-12.35 -47.846)" fill="#fff"/>
          <path id="Trazado_170112" data-name="Trazado 170112" d="M23.616,55.895l.442.264-.977,1.636.795.475.907-1.518.425.254L24.3,58.523l.883.528.992-1.661.45.269-1.3,2.183-2.994-1.789Z" transform="translate(-15.654 -39.189)" fill="#fff"/>
          <path id="Trazado_170113" data-name="Trazado 170113" d="M29.1,47.992,30.121,46.7a1.43,1.43,0,0,1,.708-.521.841.841,0,0,1,.782.2.93.93,0,0,1,.327.452.842.842,0,0,1-.013.533.717.717,0,0,1,.206-.118.537.537,0,0,1,.189-.034.592.592,0,0,1,.192.042,1.315,1.315,0,0,1,.177.08q.071.041.181.115.03.017.111.072l.108.073.092.061c.044.029.075.048.094.059l.084.044c.037.019.066.032.087.04l.073.026a.334.334,0,0,0,.077.017.339.339,0,0,0,.07,0l-.407.515a.257.257,0,0,1-.053-.008.53.53,0,0,1-.115-.044l-.065-.036q-.041-.023-.065-.039l-.074-.049-.074-.049-.085-.058c-.04-.028-.068-.048-.084-.06a.924.924,0,0,0-.57-.223.816.816,0,0,0-.488.36l-.5.638,1.13.893-.377.477Zm.769-.166.857.678.5-.634a1.888,1.888,0,0,0,.17-.246,1.088,1.088,0,0,0,.1-.238.377.377,0,0,0-.014-.255.6.6,0,0,0-.193-.237.579.579,0,0,0-.253-.126.373.373,0,0,0-.233.031.824.824,0,0,0-.2.131,1.613,1.613,0,0,0-.184.2Z" transform="translate(-20.401 -32.355)" fill="#fff"/>
          <path id="Trazado_170114" data-name="Trazado 170114" d="M39.269,35.747l.37.378-.795.778,2.069,2.115-.438.428-2.07-2.115-.795.778-.37-.378Z" transform="translate(-26.111 -25.063)" fill="#fff"/>
          <rect id="Rectángulo_43610" data-name="Rectángulo 43610" width="0.617" height="3.488" transform="translate(13.952 10.04) rotate(-39.242)" fill="#fff"/>
          <path id="Trazado_170115" data-name="Trazado 170115" d="M53.842,24.96l.291.43L52.644,26.4l.533.787,1.306-.884.277.409-1.306.885.854,1.262L53.8,29.2l-1.956-2.889Z" transform="translate(-36.347 -17.5)" fill="#fff"/>
          <rect id="Rectángulo_43611" data-name="Rectángulo 43611" width="0.617" height="3.488" transform="translate(18.467 6.917) rotate(-28.926)" fill="#fff"/>
          <path id="Trazado_170116" data-name="Trazado 170116" d="M69.919,16.652l.206.472-1.747.761.37.849,1.621-.707.2.454-1.621.707.411.943,1.774-.773.21.481-2.331,1.016-1.394-3.2Z" transform="translate(-47.407 -11.675)" fill="#fff"/>
          <path id="Trazado_170117" data-name="Trazado 170117" d="M79.453,14.064,80.73,13.7a2.4,2.4,0,0,1,.633-.1,1.249,1.249,0,0,1,.562.133,1.688,1.688,0,0,1,.858,1.136,1.917,1.917,0,0,1-.083,1.5,1.221,1.221,0,0,1-.367.418,2.127,2.127,0,0,1-.615.264l-1.31.373Zm.727.333.672,2.361.692-.2a.921.921,0,0,0,.686-.542,1.585,1.585,0,0,0-.027-.955,1.332,1.332,0,0,0-.5-.773,1.009,1.009,0,0,0-.874-.08Z" transform="translate(-55.707 -9.535)" fill="#fff"/>
          <path id="Trazado_170118" data-name="Trazado 170118" d="M100.163,13.633a.875.875,0,1,1-.2.638.841.841,0,0,1,.2-.638" transform="translate(-70.086 -9.337)" fill="#fff"/>
          <path id="Trazado_170119" data-name="Trazado 170119" d="M75.618,43.474c-.33-.372-.668-.735-1.019-1.086h0a22.741,22.741,0,0,0-32.218,0h0c-.351.351-.691.714-1.015,1.086a22.731,22.731,0,0,0,0,30.025c.324.372.664.735,1.015,1.086h0a22.746,22.746,0,0,0,32.222,0c.351-.351.689-.714,1.019-1.086a22.75,22.75,0,0,0,0-30.025m-22.13-5.69a18.968,18.968,0,0,0-4.923,8.278,32.929,32.929,0,0,1-4.949-2.8,21.263,21.263,0,0,1,9.872-5.474M43.616,73.711a33.288,33.288,0,0,1,4.949-2.8,18.968,18.968,0,0,0,4.923,8.278,21.27,21.27,0,0,1-9.872-5.478m20.767-4.26H43.527V62.209H73.444v7.242H64.383ZM50,70.306l.04-.015h7.7v9.431c-3.18-.5-6.012-4.155-7.744-9.416m9.238,9.416h0V70.292h7.7l.04.015c-1.735,5.262-4.566,8.916-7.742,9.416m4.251-.533A18.935,18.935,0,0,0,68.4,70.907a33.478,33.478,0,0,1,4.955,2.8,21.228,21.228,0,0,1-9.874,5.478m10.9-6.56a36.279,36.279,0,0,0-3.915-2.338h3.81V61.369H70.161c.023-.351.04-.706.055-1.063a9.313,9.313,0,0,1-1.506.252c-.013.271-.029.542-.048.811H59.232V59.554a6.454,6.454,0,0,1-1.491.676v1.138H48.31c-.025-.351-.044-.706-.059-1.063h-1.5c.013.357.031.712.052,1.063H42.687v8.923H46.5a36.177,36.177,0,0,0-3.922,2.338,21.175,21.175,0,0,1-5.377-13.4H41.48V57.74H37.205a21.176,21.176,0,0,1,5.377-13.4q1.491,1.018,2.981,1.84h4.6c1.743-5,4.5-8.443,7.578-8.929V46.2a7.022,7.022,0,0,1,1.491.632V37.25h0c3.031.477,5.749,3.827,7.5,8.706a10.058,10.058,0,0,1,1.046-.052c.2,0,.389,0,.58.015a18.823,18.823,0,0,0-4.871-8.135,21.257,21.257,0,0,1,9.874,5.474,33.624,33.624,0,0,1-4.69,2.682,8.916,8.916,0,0,1,2.292.485,37.258,37.258,0,0,0,3.432-2.086,21.2,21.2,0,0,1,5.375,13.4H74.143a6.416,6.416,0,0,1-1.529,1.491h7.154a21.175,21.175,0,0,1-5.379,13.4" transform="translate(-25.028 -25.029)" fill="#c50"/>
          <path id="Trazado_170120" data-name="Trazado 170120" d="M117.688,109.447h-.46a4.4,4.4,0,0,1-1.244,1.491h3.237a6.428,6.428,0,0,1-1.533-1.491" transform="translate(-81.319 -76.736)" fill="#c50"/>
          <path id="Trazado_170121" data-name="Trazado 170121" d="M58.561,74.28v2.663h1.407v6.684H58.561v2.68h6.253v-2.68H63.388V76.943h1.426V74.28H58.561Z" transform="translate(-41.058 -52.08)" fill="#c50"/>
          <path id="Trazado_170122" data-name="Trazado 170122" d="M93.95,81.947c0-.025,0-.053,0-.078a3.5,3.5,0,0,0-.258-1.325v0a3,3,0,0,0-.866-1.161,4.71,4.71,0,0,0-1.491-.8,10.474,10.474,0,0,0-2.3-.462c-1.2-.12-2.029-.344-2.029-1.151s1.031-1.014,1.668-1.014a5.435,5.435,0,0,1,1.529.189l.053,1.393h2.936V74.627l-.065-.05c-.1-.08-.2-.153-.3-.223a6.33,6.33,0,0,0-1.491-.769,7.885,7.885,0,0,0-2.657-.4,6.955,6.955,0,0,0-2.743.55,4.33,4.33,0,0,0-1.5,1.044,3.169,3.169,0,0,0-.828,2.187c0,2.972,2.491,3.661,4.932,3.884,1.321.136,2.027.447,2.027,1.031,0,.687-.773,1.082-1.907,1.082a5.842,5.842,0,0,1-2.063-.378l-.051-1.392H83.607V84.2c.093.078.185.153.279.225l.139.1c.094.067.187.132.282.2s.189.122.283.178a6.367,6.367,0,0,0,1.365.611h0c.179.057.357.107.542.147a.282.282,0,0,0,.057.013q.126.029.252.051a.538.538,0,0,0,.056.01c.091.017.181.031.273.042.124.019.25.033.378.046.1.008.191.017.29.021a.233.233,0,0,0,.042,0c.1.008.206.013.311.017s.242,0,.366,0h.118a8.148,8.148,0,0,0,2.38-.353,4.457,4.457,0,0,0,2.268-1.491,3.372,3.372,0,0,0,.66-2.075" transform="translate(-58.619 -51.311)" fill="#c50"/>
          <path id="Trazado_170123" data-name="Trazado 170123" d="M134.021,79.649a5.818,5.818,0,0,0-4.884-6.116,8.951,8.951,0,0,0-1.783-.172,6.581,6.581,0,0,0-5.549,2.493,6.351,6.351,0,0,0-1.134,3.8c0,.267.013.525.036.775a6.875,6.875,0,0,0,.273,1.4,5.5,5.5,0,0,0,1.38,2.323,6,6,0,0,0,2.613,1.491,8.582,8.582,0,0,0,2.382.317,9.7,9.7,0,0,0,.972-.048,6.478,6.478,0,0,0,4.018-1.76,6.146,6.146,0,0,0,1.676-4.5m-4.274,2.443a2.963,2.963,0,0,1-1.454.844,3.72,3.72,0,0,1-.939.116,3.4,3.4,0,0,1,0-6.789c.023,0,.048,0,.071,0a3.457,3.457,0,0,1,1.641.4,3.2,3.2,0,0,1,1.552,2.981,3.512,3.512,0,0,1-.872,2.443" transform="translate(-84.606 -51.435)" fill="#c50"/>
          <path id="Trazado_170124" data-name="Trazado 170124" d="M80.62,132.685h-.654v.843H78.751v-.843H76.423v-.811l1.976-2.749h1.29L77.9,131.7h.893v-.749h1.177v.749h.654Z" transform="translate(-53.582 -90.532)" fill="#c50"/>
          <path id="Trazado_170125" data-name="Trazado 170125" d="M96.023,131.106a1.256,1.256,0,0,1,.444,1.007,1.409,1.409,0,0,1-.211.752,1.461,1.461,0,0,1-.642.547,2.481,2.481,0,0,1-1.066.2,3.8,3.8,0,0,1-.922-.113,2.636,2.636,0,0,1-.783-.321l.447-.938a2.133,2.133,0,0,0,.582.27,2.226,2.226,0,0,0,.638.094.941.941,0,0,0,.513-.123.385.385,0,0,0,.192-.343.365.365,0,0,0-.189-.334,1.4,1.4,0,0,0-.667-.113h-1.2l.22-2.573H96.19v.963H94.416l-.057.642h.3a2.077,2.077,0,0,1,1.368.377" transform="translate(-65.095 -90.532)" fill="#c50"/>
          <path id="Trazado_170126" data-name="Trazado 170126" d="M109.21,133.139a1.819,1.819,0,0,1-.689-.79,3.166,3.166,0,0,1,0-2.46,1.82,1.82,0,0,1,.689-.789,1.995,1.995,0,0,1,2.007,0,1.821,1.821,0,0,1,.689.789,3.17,3.17,0,0,1,0,2.46,1.821,1.821,0,0,1-.689.79,2,2,0,0,1-2.007,0m1.507-1.054a2.609,2.609,0,0,0,0-1.931.568.568,0,0,0-1.007,0,2.6,2.6,0,0,0,0,1.931.568.568,0,0,0,1.007,0" transform="translate(-75.912 -90.325)" fill="#c50"/>
          <path id="Trazado_170127" data-name="Trazado 170127" d="M125.735,133.139a1.817,1.817,0,0,1-.689-.79,3.167,3.167,0,0,1,0-2.46,1.818,1.818,0,0,1,.689-.789,1.995,1.995,0,0,1,2.007,0,1.821,1.821,0,0,1,.689.789,3.17,3.17,0,0,1,0,2.46,1.821,1.821,0,0,1-.689.79,2,2,0,0,1-2.007,0m1.507-1.054a2.605,2.605,0,0,0,0-1.931.568.568,0,0,0-1.007,0,2.605,2.605,0,0,0,0,1.931.568.568,0,0,0,1.007,0" transform="translate(-87.499 -90.325)" fill="#c50"/>
          <path id="Trazado_170128" data-name="Trazado 170128" d="M142.627,129.124v4.4h-1.246v-3.441h-.818v-.963Z" transform="translate(-98.553 -90.532)" fill="#c50"/>
        </g>
      </g>
    </g>
    <g id="Grupo_129705" data-name="Grupo 129705">
      <g transform="matrix(1, 0, 0, 1, 1098.33, 109)" filter="url(#Rectángulo_43547-2)">
        <rect id="Rectángulo_43547-4" data-name="Rectángulo 43547" width="82" height="82" rx="23" transform="translate(9 6)" fill="#fff"/>
      </g>
      <g id="Grupo_119040-2" data-name="Grupo 119040" transform="translate(1129.846 112.445) rotate(22)">
        <g id="Grupo_119039-2" data-name="Grupo 119039" clip-path="url(#clip-path)">
          <path id="Trazado_170077-2" data-name="Trazado 170077" d="M33.458,0A33.458,33.458,0,1,0,66.916,33.458,33.457,33.457,0,0,0,33.458,0" transform="translate(-0.001 0)" fill="#c50"/>
          <path id="Trazado_170078-2" data-name="Trazado 170078" d="M55.675,79.662A23.987,23.987,0,1,1,79.661,55.675,23.987,23.987,0,0,1,55.675,79.662" transform="translate(-22.217 -22.217)" fill="#fff"/>
          <path id="Trazado_170079-2" data-name="Trazado 170079" d="M119.115,12.572a1.511,1.511,0,0,1-.554.978,1.487,1.487,0,0,1-1.093.281,1.512,1.512,0,0,1-1.132-.611,1.919,1.919,0,0,1-.317-1.364,2.12,2.12,0,0,1,.277-.886,1.65,1.65,0,0,1,2.482-.372,1.276,1.276,0,0,1,.408.927l-.6-.058a.8.8,0,0,0-.246-.518.9.9,0,0,0-.548-.233.909.909,0,0,0-.606.138,1.063,1.063,0,0,0-.388.448,1.993,1.993,0,0,0-.147,1.1,1.472,1.472,0,0,0,.136.429.853.853,0,0,0,.291.331.957.957,0,0,0,.459.158q.776.075.973-.8Z" transform="translate(-81.335 -7.145)" fill="#fff"/>
          <path id="Trazado_170080-2" data-name="Trazado 170080" d="M131.9,12.31l-.117.5-1.856-.432-.21.9,1.722.4-.112.482-1.723-.4-.233,1,1.884.439-.119.511-2.476-.577.791-3.4Z" transform="translate(-90.207 -8.231)" fill="#fff"/>
          <path id="Trazado_170081-2" data-name="Trazado 170081" d="M140.767,14.9l1.545.583a1.432,1.432,0,0,1,.711.517.841.841,0,0,1,.047.805.931.931,0,0,1-.331.449.843.843,0,0,1-.512.15.709.709,0,0,1,.175.16.539.539,0,0,1,.09.17.6.6,0,0,1,.018.2,1.253,1.253,0,0,1-.023.193q-.017.08-.055.207c-.005.022-.017.065-.035.128l-.037.125-.03.107c-.014.051-.023.086-.027.107s-.01.052-.017.093-.011.073-.013.1,0,.048,0,.077a.318.318,0,0,0,.007.079.35.35,0,0,0,.022.066l-.614-.232a.245.245,0,0,1-.009-.053.444.444,0,0,1,0-.063.482.482,0,0,1,.007-.06c0-.018.008-.042.014-.073s.012-.056.018-.075l.024-.085.024-.085.029-.1c.014-.047.025-.079.032-.1a.925.925,0,0,0,.039-.611.816.816,0,0,0-.492-.355l-.761-.287L140.1,18.38l-.568-.214Zm.392.682-.386,1.022.756.285a1.91,1.91,0,0,0,.287.087,1.1,1.1,0,0,0,.256.021.376.376,0,0,0,.238-.091.6.6,0,0,0,.167-.256.583.583,0,0,0,.043-.279.373.373,0,0,0-.1-.213.836.836,0,0,0-.185-.148,1.651,1.651,0,0,0-.247-.114Z" transform="translate(-97.832 -10.448)" fill="#fff"/>
          <path id="Trazado_170082-2" data-name="Trazado 170082" d="M156.565,20.986l-.249.467-.982-.523-1.39,2.612-.541-.288,1.39-2.612-.982-.523.249-.467Z" transform="translate(-107.555 -13.779)" fill="#fff"/>
          <rect id="Rectángulo_43602-2" data-name="Rectángulo 43602" width="3.488" height="0.617" transform="translate(47.954 10.689) rotate(-56.807)" fill="#fff"/>
          <path id="Trazado_170083-2" data-name="Trazado 170083" d="M169.143,31.192l-.322.407-1.41-1.115-.59.745,1.237.979-.307.388-1.237-.979-.946,1.195-.484-.383,2.164-2.735Z" transform="translate(-115.745 -20.818)" fill="#fff"/>
          <rect id="Rectángulo_43603-2" data-name="Rectángulo 43603" width="3.488" height="0.617" transform="translate(51.801 13.661) rotate(-46.517)" fill="#fff"/>
          <path id="Trazado_170084-2" data-name="Trazado 170084" d="M181.611,43.756l-.387.339-1.255-1.434-.7.609,1.165,1.331-.372.325L178.9,43.6l-.774.678L179.4,45.73l-.395.345-1.674-1.914,2.626-2.3Z" transform="translate(-124.331 -29.352)" fill="#fff"/>
          <path id="Trazado_170085-2" data-name="Trazado 170085" d="M187.506,51.66l.735,1.106a2.408,2.408,0,0,1,.289.572,1.257,1.257,0,0,1,.045.576,1.69,1.69,0,0,1-.821,1.163,1.916,1.916,0,0,1-1.45.376,1.214,1.214,0,0,1-.51-.223,2.121,2.121,0,0,1-.439-.505l-.754-1.134Zm-.1.794-2.044,1.359.4.6a.921.921,0,0,0,.725.489,1.584,1.584,0,0,0,.9-.317,1.329,1.329,0,0,0,.586-.707,1.007,1.007,0,0,0-.19-.856Z" transform="translate(-129.429 -36.22)" fill="#fff"/>
          <path id="Trazado_170086-2" data-name="Trazado 170086" d="M198.69,71.427a.875.875,0,1,1-.668.008.841.841,0,0,1,.668-.008" transform="translate(-138.465 -50.033)" fill="#fff"/>
          <path id="Trazado_170087-2" data-name="Trazado 170087" d="M201.479,89.006a1.509,1.509,0,0,1-1.1-.225,1.486,1.486,0,0,1-.6-.953,1.511,1.511,0,0,1,.232-1.265,1.92,1.92,0,0,1,1.2-.722,2.12,2.12,0,0,1,.929-.01,1.652,1.652,0,0,1,1.12,2.246,1.276,1.276,0,0,1-.757.674l-.131-.593a.8.8,0,0,0,.417-.393.9.9,0,0,0,.052-.593.912.912,0,0,0-.319-.534,1.065,1.065,0,0,0-.545-.23,1.881,1.881,0,0,0-.632.037,1.9,1.9,0,0,0-.456.161,1.485,1.485,0,0,0-.366.262.863.863,0,0,0-.225.378.954.954,0,0,0-.008.486q.168.76,1.063.678Z" transform="translate(-140.034 -60.145)" fill="#fff"/>
          <path id="Trazado_170088-2" data-name="Trazado 170088" d="M205.263,101.752l-.513.044-.162-1.9-.922.079.15,1.762-.493.042-.15-1.762-1.025.087.164,1.928-.522.045-.216-2.533,3.476-.3Z" transform="translate(-141.329 -69.586)" fill="#fff"/>
          <path id="Trazado_170089-2" data-name="Trazado 170089" d="M205.531,111.6l-.073,1.649a1.433,1.433,0,0,1-.27.837.842.842,0,0,1-.751.3.93.93,0,0,1-.529-.175.843.843,0,0,1-.3-.44.705.705,0,0,1-.1.216.543.543,0,0,1-.134.139.6.6,0,0,1-.18.078,1.27,1.27,0,0,1-.19.038c-.054.006-.126.01-.214.013-.023,0-.067,0-.132.007l-.13,0-.111.005-.111.007-.094.013c-.041.006-.072.013-.094.018l-.074.022a.321.321,0,0,0-.073.031.334.334,0,0,0-.056.042l.029-.656a.254.254,0,0,1,.048-.025.542.542,0,0,1,.06-.019.531.531,0,0,1,.059-.012l.074-.009.076-.006.088,0,.088,0,.1,0c.049,0,.083,0,.1,0a.926.926,0,0,0,.593-.153.815.815,0,0,0,.185-.578l.036-.813-1.439-.063.027-.607Zm-.526.585-1.091-.048-.036.808a1.933,1.933,0,0,0,.006.3,1.123,1.123,0,0,0,.06.25.38.38,0,0,0,.16.2.607.607,0,0,0,.3.079.586.586,0,0,0,.279-.047.374.374,0,0,0,.172-.161.843.843,0,0,0,.083-.222,1.663,1.663,0,0,0,.032-.271Z" transform="translate(-141.569 -78.137)" fill="#fff"/>
          <path id="Trazado_170090-2" data-name="Trazado 170090" d="M203.984,127.358l-.522-.09.19-1.1-2.915-.5.1-.6,2.916.5.19-1.1.521.09Z" transform="translate(-140.742 -87.271)" fill="#fff"/>
          <rect id="Rectángulo_43604-2" data-name="Rectángulo 43604" width="0.617" height="3.488" transform="translate(59.444 40.767) rotate(-74.978)" fill="#fff"/>
          <path id="Trazado_170091-2" data-name="Trazado 170091" d="M199.887,143.235l-.487-.18.622-1.687-.892-.329-.546,1.48-.464-.171.545-1.48-1.43-.527.213-.579,3.273,1.206Z" transform="translate(-138.287 -97.992)" fill="#fff"/>
          <rect id="Rectángulo_43605-2" data-name="Rectángulo 43605" width="0.617" height="3.488" transform="translate(57.71 45.311) rotate(-64.568)" fill="#fff"/>
          <path id="Trazado_170092-2" data-name="Trazado 170092" d="M190.241,158.661l-.442-.263.976-1.637-.8-.474-.905,1.519-.425-.253.906-1.519-.884-.527-.991,1.662-.45-.268,1.3-2.184,3,1.786Z" transform="translate(-131.272 -108.476)" fill="#fff"/>
          <path id="Trazado_170093-2" data-name="Trazado 170093" d="M185.472,166.449l-.824,1.041a2.406,2.406,0,0,1-.455.452,1.258,1.258,0,0,1-.534.221,1.69,1.69,0,0,1-1.36-.421,1.918,1.918,0,0,1-.806-1.263,1.213,1.213,0,0,1,.054-.554,2.111,2.111,0,0,1,.345-.574l.846-1.068Zm-.784.154-1.924-1.524-.447.565a.922.922,0,0,0-.241.841,1.585,1.585,0,0,0,.58.759,1.333,1.333,0,0,0,.854.339,1.009,1.009,0,0,0,.756-.445Z" transform="translate(-127.243 -115.183)" fill="#fff"/>
          <path id="Trazado_170094-2" data-name="Trazado 170094" d="M174.006,182.358a.875.875,0,1,1-.215-.633.841.841,0,0,1,.215.633" transform="translate(-120.777 -127.203)" fill="#fff"/>
          <path id="Trazado_170095-2" data-name="Trazado 170095" d="M155.2,190.956a1.51,1.51,0,0,1-.129-1.117,1.485,1.485,0,0,1,.716-.872,1.511,1.511,0,0,1,1.275-.175,1.921,1.921,0,0,1,1.06.915,2.117,2.117,0,0,1,.3.879,1.651,1.651,0,0,1-1.784,1.765,1.277,1.277,0,0,1-.877-.508l.522-.31a.8.8,0,0,0,.5.273.9.9,0,0,0,.58-.136.907.907,0,0,0,.408-.47,1.061,1.061,0,0,0,.049-.59,1.989,1.989,0,0,0-.528-.971,1.483,1.483,0,0,0-.363-.266.864.864,0,0,0-.429-.1.958.958,0,0,0-.464.144.857.857,0,0,0-.312,1.222Z" transform="translate(-108.685 -132.318)" fill="#fff"/>
          <path id="Trazado_170096-2" data-name="Trazado 170096" d="M144.465,197.717l-.2-.473,1.754-.746-.363-.852-1.627.692-.194-.455,1.627-.692-.4-.947-1.781.757-.205-.482,2.34-1,1.366,3.21Z" transform="translate(-100.312 -135.684)" fill="#fff"/>
          <path id="Trazado_170097-2" data-name="Trazado 170097" d="M134.755,201.114l-1.591.441a1.433,1.433,0,0,1-.879,0,.842.842,0,0,1-.513-.623.93.93,0,0,1,0-.557.841.841,0,0,1,.325-.423.707.707,0,0,1-.236-.026.53.53,0,0,1-.173-.084.576.576,0,0,1-.13-.147,1.276,1.276,0,0,1-.1-.169c-.022-.05-.048-.116-.078-.2-.009-.021-.025-.062-.047-.124l-.044-.123c-.007-.02-.02-.055-.039-.1s-.032-.083-.041-.1-.022-.048-.041-.085-.034-.065-.046-.084-.027-.04-.043-.065a.313.313,0,0,0-.052-.059.355.355,0,0,0-.057-.04l.632-.175a.254.254,0,0,1,.039.038.561.561,0,0,1,.037.051.464.464,0,0,1,.03.053l.031.068c.013.029.023.052.03.071l.031.083.03.083.034.1c.016.046.027.079.032.1a.924.924,0,0,0,.329.516.816.816,0,0,0,.607,0l.784-.217-.385-1.388.585-.162Zm-.718-.32-.292-1.053-.779.216a1.96,1.96,0,0,0-.283.1,1.133,1.133,0,0,0-.219.135.379.379,0,0,0-.139.214.6.6,0,0,0,.016.306.587.587,0,0,0,.131.251.373.373,0,0,0,.207.113.835.835,0,0,0,.237.011,1.672,1.672,0,0,0,.267-.054Z" transform="translate(-91.831 -138.649)" fill="#fff"/>
          <path id="Trazado_170098-2" data-name="Trazado 170098" d="M121.614,204.878l-.075-.524,1.1-.157-.419-2.929.606-.087.419,2.929,1.1-.157.075.524Z" transform="translate(-85.214 -141.053)" fill="#fff"/>
          <rect id="Rectángulo_43606-2" data-name="Rectángulo 43606" width="0.617" height="3.488" transform="matrix(0.999, -0.052, 0.052, 0.999, 34.581, 60.423)" fill="#fff"/>
          <path id="Trazado_170099-2" data-name="Trazado 170099" d="M103.707,205.654l.019-.519,1.8.066.035-.95-1.576-.058L104,203.7l1.576.058.056-1.523.617.023-.128,3.486Z" transform="translate(-72.712 -141.792)" fill="#fff"/>
          <rect id="Rectángulo_43607-2" data-name="Rectángulo 43607" width="3.488" height="0.617" transform="matrix(0.126, -0.992, 0.992, 0.126, 29.28, 63.649)" fill="#fff"/>
          <path id="Trazado_170100-2" data-name="Trazado 170100" d="M85.253,202.478l.112-.5,1.86.416.2-.9L85.7,201.1l.108-.483,1.726.386.224-1-1.888-.422.114-.512,2.481.555-.761,3.4Z" transform="translate(-59.773 -139.572)" fill="#fff"/>
          <path id="Trazado_170101-2" data-name="Trazado 170101" d="M75.492,200.115l-1.245-.46a2.407,2.407,0,0,1-.571-.292,1.254,1.254,0,0,1-.376-.439,1.69,1.69,0,0,1-.023-1.424,1.918,1.918,0,0,1,.95-1.158,1.21,1.21,0,0,1,.543-.12,2.106,2.106,0,0,1,.652.149l1.278.472Zm-.39-.7.85-2.3-.675-.25a.921.921,0,0,0-.874.033,1.581,1.581,0,0,0-.541.787,1.328,1.328,0,0,0-.056.917,1.007,1.007,0,0,0,.658.58Z" transform="translate(-51.275 -137.576)" fill="#fff"/>
          <path id="Trazado_170102-2" data-name="Trazado 170102" d="M60.908,193.341a.875.875,0,1,1,.535-.4.839.839,0,0,1-.535.4" transform="translate(-41.941 -134.35)" fill="#fff"/>
          <path id="Trazado_170103-2" data-name="Trazado 170103" d="M43.3,178.516a1.509,1.509,0,0,1,1.022-.469,1.487,1.487,0,0,1,1.051.412,1.51,1.51,0,0,1,.561,1.158,1.921,1.921,0,0,1-.542,1.291,2.118,2.118,0,0,1-.743.556,1.651,1.651,0,0,1-2.23-1.151,1.276,1.276,0,0,1,.212-.991l.456.4a.8.8,0,0,0-.1.564.9.9,0,0,0,.309.509.908.908,0,0,0,.573.243,1.062,1.062,0,0,0,.576-.136,1.873,1.873,0,0,0,.488-.4,1.894,1.894,0,0,0,.273-.4,1.492,1.492,0,0,0,.141-.427.862.862,0,0,0-.042-.438.957.957,0,0,0-.281-.4.857.857,0,0,0-1.258.081Z" transform="translate(-29.724 -124.833)" fill="#fff"/>
          <path id="Trazado_170104-2" data-name="Trazado 170104" d="M32.191,170.2l.387-.338,1.254,1.435.7-.609-1.164-1.332.373-.325,1.163,1.332.775-.677L34.4,168.23l.395-.345,1.673,1.915-2.627,2.294Z" transform="translate(-22.57 -117.709)" fill="#fff"/>
          <path id="Trazado_170105-2" data-name="Trazado 170105" d="M26.747,161.878l-.915-1.374a1.435,1.435,0,0,1-.276-.834.842.842,0,0,1,.432-.682.93.93,0,0,1,.531-.171.842.842,0,0,1,.5.177.714.714,0,0,1-.049-.232A.538.538,0,0,1,27,158.57a.6.6,0,0,1,.1-.169,1.241,1.241,0,0,1,.131-.143q.061-.055.165-.137c.017-.015.052-.043.1-.083l.1-.08.086-.069c.041-.033.069-.057.085-.071s.039-.036.068-.066.051-.053.065-.07l.048-.061a.311.311,0,0,0,.04-.068.328.328,0,0,0,.021-.066l.364.546a.25.25,0,0,1-.024.048.431.431,0,0,1-.037.051.44.44,0,0,1-.041.045l-.054.051c-.023.022-.042.038-.058.051l-.069.055-.069.055-.082.063c-.039.03-.067.05-.083.061a.926.926,0,0,0-.388.473.815.815,0,0,0,.192.575l.451.677,1.2-.8.337.505Zm.079-.782.909-.606-.448-.673a1.93,1.93,0,0,0-.182-.238,1.107,1.107,0,0,0-.2-.166.377.377,0,0,0-.247-.065.6.6,0,0,0-.285.111.581.581,0,0,0-.2.2.374.374,0,0,0-.043.232.829.829,0,0,0,.064.228,1.64,1.64,0,0,0,.134.237Z" transform="translate(-17.918 -110.418)" fill="#fff"/>
          <path id="Trazado_170106-2" data-name="Trazado 170106" d="M18.411,151.586l.474-.235.493,1,2.652-1.313.272.548L19.65,152.9l.493,1-.474.235Z" transform="translate(-12.908 -105.895)" fill="#fff"/>
          <rect id="Rectángulo_43608-2" data-name="Rectángulo 43608" width="3.488" height="0.617" transform="translate(4.913 44.155) rotate(-21.134)" fill="#fff"/>
          <path id="Trazado_170107-2" data-name="Trazado 170107" d="M12.661,134.92l.5-.142.493,1.729.914-.261-.433-1.517.476-.135.433,1.517,1.465-.418.169.593-3.354.957Z" transform="translate(-8.877 -94.367)" fill="#fff"/>
          <rect id="Rectángulo_43609-2" data-name="Rectángulo 43609" width="3.488" height="0.617" transform="translate(3.458 38.855) rotate(-10.721)" fill="#fff"/>
          <path id="Trazado_170108-2" data-name="Trazado 170108" d="M10.014,116.319l.512-.048.178,1.9.922-.087-.166-1.761.493-.046.166,1.761,1.024-.1-.181-1.927.522-.049.238,2.531-3.473.326Z" transform="translate(-7.021 -81.305)" fill="#fff"/>
          <path id="Trazado_170109-2" data-name="Trazado 170109" d="M9.878,105.926l.049-1.327a2.4,2.4,0,0,1,.1-.633,1.261,1.261,0,0,1,.3-.494,1.689,1.689,0,0,1,1.346-.464,1.917,1.917,0,0,1,1.4.542,1.215,1.215,0,0,1,.284.479,2.114,2.114,0,0,1,.061.666l-.051,1.361Zm.542-.588,2.453.091.027-.719a.922.922,0,0,0-.3-.82,1.587,1.587,0,0,0-.917-.269,1.332,1.332,0,0,0-.889.232,1.007,1.007,0,0,0-.346.806Z" transform="translate(-6.926 -72.22)" fill="#fff"/>
          <path id="Trazado_170110-2" data-name="Trazado 170110" d="M15.353,89.259a.875.875,0,1,1,.547.383.841.841,0,0,1-.547-.383" transform="translate(-10.669 -61.641)" fill="#fff"/>
          <path id="Trazado_170111-2" data-name="Trazado 170111" d="M20.4,68.684a1.51,1.51,0,0,1,.762.826,1.486,1.486,0,0,1-.065,1.126,1.51,1.51,0,0,1-.927.892,1.919,1.919,0,0,1-1.4-.114,2.123,2.123,0,0,1-.76-.534,1.651,1.651,0,0,1,.4-2.477,1.278,1.278,0,0,1,1.008-.106l-.24.558a.8.8,0,0,0-.568.076.9.9,0,0,0-.389.452.909.909,0,0,0-.053.62,1.061,1.061,0,0,0,.308.505,1.881,1.881,0,0,0,.534.339,1.9,1.9,0,0,0,.464.135,1.5,1.5,0,0,0,.45,0,.868.868,0,0,0,.4-.176.96.96,0,0,0,.29-.39.857.857,0,0,0-.467-1.171Z" transform="translate(-12.35 -47.846)" fill="#fff"/>
          <path id="Trazado_170112-2" data-name="Trazado 170112" d="M23.616,55.895l.442.264-.977,1.636.795.475.907-1.518.425.254L24.3,58.523l.883.528.992-1.661.45.269-1.3,2.183-2.994-1.789Z" transform="translate(-15.654 -39.189)" fill="#fff"/>
          <path id="Trazado_170113-2" data-name="Trazado 170113" d="M29.1,47.992,30.121,46.7a1.43,1.43,0,0,1,.708-.521.841.841,0,0,1,.782.2.93.93,0,0,1,.327.452.842.842,0,0,1-.013.533.717.717,0,0,1,.206-.118.537.537,0,0,1,.189-.034.592.592,0,0,1,.192.042,1.315,1.315,0,0,1,.177.08q.071.041.181.115.03.017.111.072l.108.073.092.061c.044.029.075.048.094.059l.084.044c.037.019.066.032.087.04l.073.026a.334.334,0,0,0,.077.017.339.339,0,0,0,.07,0l-.407.515a.257.257,0,0,1-.053-.008.53.53,0,0,1-.115-.044l-.065-.036q-.041-.023-.065-.039l-.074-.049-.074-.049-.085-.058c-.04-.028-.068-.048-.084-.06a.924.924,0,0,0-.57-.223.816.816,0,0,0-.488.36l-.5.638,1.13.893-.377.477Zm.769-.166.857.678.5-.634a1.888,1.888,0,0,0,.17-.246,1.088,1.088,0,0,0,.1-.238.377.377,0,0,0-.014-.255.6.6,0,0,0-.193-.237.579.579,0,0,0-.253-.126.373.373,0,0,0-.233.031.824.824,0,0,0-.2.131,1.613,1.613,0,0,0-.184.2Z" transform="translate(-20.401 -32.355)" fill="#fff"/>
          <path id="Trazado_170114-2" data-name="Trazado 170114" d="M39.269,35.747l.37.378-.795.778,2.069,2.115-.438.428-2.07-2.115-.795.778-.37-.378Z" transform="translate(-26.111 -25.063)" fill="#fff"/>
          <rect id="Rectángulo_43610-2" data-name="Rectángulo 43610" width="0.617" height="3.488" transform="translate(13.952 10.04) rotate(-39.242)" fill="#fff"/>
          <path id="Trazado_170115-2" data-name="Trazado 170115" d="M53.842,24.96l.291.43L52.644,26.4l.533.787,1.306-.884.277.409-1.306.885.854,1.262L53.8,29.2l-1.956-2.889Z" transform="translate(-36.347 -17.5)" fill="#fff"/>
          <rect id="Rectángulo_43611-2" data-name="Rectángulo 43611" width="0.617" height="3.488" transform="translate(18.467 6.917) rotate(-28.926)" fill="#fff"/>
          <path id="Trazado_170116-2" data-name="Trazado 170116" d="M69.919,16.652l.206.472-1.747.761.37.849,1.621-.707.2.454-1.621.707.411.943,1.774-.773.21.481-2.331,1.016-1.394-3.2Z" transform="translate(-47.407 -11.675)" fill="#fff"/>
          <path id="Trazado_170117-2" data-name="Trazado 170117" d="M79.453,14.064,80.73,13.7a2.4,2.4,0,0,1,.633-.1,1.249,1.249,0,0,1,.562.133,1.688,1.688,0,0,1,.858,1.136,1.917,1.917,0,0,1-.083,1.5,1.221,1.221,0,0,1-.367.418,2.127,2.127,0,0,1-.615.264l-1.31.373Zm.727.333.672,2.361.692-.2a.921.921,0,0,0,.686-.542,1.585,1.585,0,0,0-.027-.955,1.332,1.332,0,0,0-.5-.773,1.009,1.009,0,0,0-.874-.08Z" transform="translate(-55.707 -9.535)" fill="#fff"/>
          <path id="Trazado_170118-2" data-name="Trazado 170118" d="M100.163,13.633a.875.875,0,1,1-.2.638.841.841,0,0,1,.2-.638" transform="translate(-70.086 -9.337)" fill="#fff"/>
          <path id="Trazado_170119-2" data-name="Trazado 170119" d="M75.618,43.474c-.33-.372-.668-.735-1.019-1.086h0a22.741,22.741,0,0,0-32.218,0h0c-.351.351-.691.714-1.015,1.086a22.731,22.731,0,0,0,0,30.025c.324.372.664.735,1.015,1.086h0a22.746,22.746,0,0,0,32.222,0c.351-.351.689-.714,1.019-1.086a22.75,22.75,0,0,0,0-30.025m-22.13-5.69a18.968,18.968,0,0,0-4.923,8.278,32.929,32.929,0,0,1-4.949-2.8,21.263,21.263,0,0,1,9.872-5.474M43.616,73.711a33.288,33.288,0,0,1,4.949-2.8,18.968,18.968,0,0,0,4.923,8.278,21.27,21.27,0,0,1-9.872-5.478m20.767-4.26H43.527V62.209H73.444v7.242H64.383ZM50,70.306l.04-.015h7.7v9.431c-3.18-.5-6.012-4.155-7.744-9.416m9.238,9.416h0V70.292h7.7l.04.015c-1.735,5.262-4.566,8.916-7.742,9.416m4.251-.533A18.935,18.935,0,0,0,68.4,70.907a33.478,33.478,0,0,1,4.955,2.8,21.228,21.228,0,0,1-9.874,5.478m10.9-6.56a36.279,36.279,0,0,0-3.915-2.338h3.81V61.369H70.161c.023-.351.04-.706.055-1.063a9.313,9.313,0,0,1-1.506.252c-.013.271-.029.542-.048.811H59.232V59.554a6.454,6.454,0,0,1-1.491.676v1.138H48.31c-.025-.351-.044-.706-.059-1.063h-1.5c.013.357.031.712.052,1.063H42.687v8.923H46.5a36.177,36.177,0,0,0-3.922,2.338,21.175,21.175,0,0,1-5.377-13.4H41.48V57.74H37.205a21.176,21.176,0,0,1,5.377-13.4q1.491,1.018,2.981,1.84h4.6c1.743-5,4.5-8.443,7.578-8.929V46.2a7.022,7.022,0,0,1,1.491.632V37.25h0c3.031.477,5.749,3.827,7.5,8.706a10.058,10.058,0,0,1,1.046-.052c.2,0,.389,0,.58.015a18.823,18.823,0,0,0-4.871-8.135,21.257,21.257,0,0,1,9.874,5.474,33.624,33.624,0,0,1-4.69,2.682,8.916,8.916,0,0,1,2.292.485,37.258,37.258,0,0,0,3.432-2.086,21.2,21.2,0,0,1,5.375,13.4H74.143a6.416,6.416,0,0,1-1.529,1.491h7.154a21.175,21.175,0,0,1-5.379,13.4" transform="translate(-25.028 -25.029)" fill="#c50"/>
          <path id="Trazado_170120-2" data-name="Trazado 170120" d="M117.688,109.447h-.46a4.4,4.4,0,0,1-1.244,1.491h3.237a6.428,6.428,0,0,1-1.533-1.491" transform="translate(-81.319 -76.736)" fill="#c50"/>
          <path id="Trazado_170121-2" data-name="Trazado 170121" d="M58.561,74.28v2.663h1.407v6.684H58.561v2.68h6.253v-2.68H63.388V76.943h1.426V74.28H58.561Z" transform="translate(-41.058 -52.08)" fill="#c50"/>
          <path id="Trazado_170122-2" data-name="Trazado 170122" d="M93.95,81.947c0-.025,0-.053,0-.078a3.5,3.5,0,0,0-.258-1.325v0a3,3,0,0,0-.866-1.161,4.71,4.71,0,0,0-1.491-.8,10.474,10.474,0,0,0-2.3-.462c-1.2-.12-2.029-.344-2.029-1.151s1.031-1.014,1.668-1.014a5.435,5.435,0,0,1,1.529.189l.053,1.393h2.936V74.627l-.065-.05c-.1-.08-.2-.153-.3-.223a6.33,6.33,0,0,0-1.491-.769,7.885,7.885,0,0,0-2.657-.4,6.955,6.955,0,0,0-2.743.55,4.33,4.33,0,0,0-1.5,1.044,3.169,3.169,0,0,0-.828,2.187c0,2.972,2.491,3.661,4.932,3.884,1.321.136,2.027.447,2.027,1.031,0,.687-.773,1.082-1.907,1.082a5.842,5.842,0,0,1-2.063-.378l-.051-1.392H83.607V84.2c.093.078.185.153.279.225l.139.1c.094.067.187.132.282.2s.189.122.283.178a6.367,6.367,0,0,0,1.365.611h0c.179.057.357.107.542.147a.282.282,0,0,0,.057.013q.126.029.252.051a.538.538,0,0,0,.056.01c.091.017.181.031.273.042.124.019.25.033.378.046.1.008.191.017.29.021a.233.233,0,0,0,.042,0c.1.008.206.013.311.017s.242,0,.366,0h.118a8.148,8.148,0,0,0,2.38-.353,4.457,4.457,0,0,0,2.268-1.491,3.372,3.372,0,0,0,.66-2.075" transform="translate(-58.619 -51.311)" fill="#c50"/>
          <path id="Trazado_170123-2" data-name="Trazado 170123" d="M134.021,79.649a5.818,5.818,0,0,0-4.884-6.116,8.951,8.951,0,0,0-1.783-.172,6.581,6.581,0,0,0-5.549,2.493,6.351,6.351,0,0,0-1.134,3.8c0,.267.013.525.036.775a6.875,6.875,0,0,0,.273,1.4,5.5,5.5,0,0,0,1.38,2.323,6,6,0,0,0,2.613,1.491,8.582,8.582,0,0,0,2.382.317,9.7,9.7,0,0,0,.972-.048,6.478,6.478,0,0,0,4.018-1.76,6.146,6.146,0,0,0,1.676-4.5m-4.274,2.443a2.963,2.963,0,0,1-1.454.844,3.72,3.72,0,0,1-.939.116,3.4,3.4,0,0,1,0-6.789c.023,0,.048,0,.071,0a3.457,3.457,0,0,1,1.641.4,3.2,3.2,0,0,1,1.552,2.981,3.512,3.512,0,0,1-.872,2.443" transform="translate(-84.606 -51.435)" fill="#c50"/>
          <path id="Trazado_170124-2" data-name="Trazado 170124" d="M80.62,132.685h-.654v.843H78.751v-.843H76.423v-.811l1.976-2.749h1.29L77.9,131.7h.893v-.749h1.177v.749h.654Z" transform="translate(-53.582 -90.532)" fill="#c50"/>
          <path id="Trazado_170125-2" data-name="Trazado 170125" d="M96.023,131.106a1.256,1.256,0,0,1,.444,1.007,1.409,1.409,0,0,1-.211.752,1.461,1.461,0,0,1-.642.547,2.481,2.481,0,0,1-1.066.2,3.8,3.8,0,0,1-.922-.113,2.636,2.636,0,0,1-.783-.321l.447-.938a2.133,2.133,0,0,0,.582.27,2.226,2.226,0,0,0,.638.094.941.941,0,0,0,.513-.123.385.385,0,0,0,.192-.343.365.365,0,0,0-.189-.334,1.4,1.4,0,0,0-.667-.113h-1.2l.22-2.573H96.19v.963H94.416l-.057.642h.3a2.077,2.077,0,0,1,1.368.377" transform="translate(-65.095 -90.532)" fill="#c50"/>
          <path id="Trazado_170126-2" data-name="Trazado 170126" d="M109.21,133.139a1.819,1.819,0,0,1-.689-.79,3.166,3.166,0,0,1,0-2.46,1.82,1.82,0,0,1,.689-.789,1.995,1.995,0,0,1,2.007,0,1.821,1.821,0,0,1,.689.789,3.17,3.17,0,0,1,0,2.46,1.821,1.821,0,0,1-.689.79,2,2,0,0,1-2.007,0m1.507-1.054a2.609,2.609,0,0,0,0-1.931.568.568,0,0,0-1.007,0,2.6,2.6,0,0,0,0,1.931.568.568,0,0,0,1.007,0" transform="translate(-75.912 -90.325)" fill="#c50"/>
          <path id="Trazado_170127-2" data-name="Trazado 170127" d="M125.735,133.139a1.817,1.817,0,0,1-.689-.79,3.167,3.167,0,0,1,0-2.46,1.818,1.818,0,0,1,.689-.789,1.995,1.995,0,0,1,2.007,0,1.821,1.821,0,0,1,.689.789,3.17,3.17,0,0,1,0,2.46,1.821,1.821,0,0,1-.689.79,2,2,0,0,1-2.007,0m1.507-1.054a2.605,2.605,0,0,0,0-1.931.568.568,0,0,0-1.007,0,2.605,2.605,0,0,0,0,1.931.568.568,0,0,0,1.007,0" transform="translate(-87.499 -90.325)" fill="#c50"/>
          <path id="Trazado_170128-2" data-name="Trazado 170128" d="M142.627,129.124v4.4h-1.246v-3.441h-.818v-.963Z" transform="translate(-98.553 -90.532)" fill="#c50"/>
        </g>
      </g>
    </g>
  </g>
</svg>
