<svg xmlns="http://www.w3.org/2000/svg" xmlns:xlink="http://www.w3.org/1999/xlink" width="124" height="124" viewBox="0 0 124 124">
  <defs>
    <clipPath id="clip-path">
      <rect id="Rectángulo_43305" data-name="Rectángulo 43305" width="91.045" height="88.001" fill="none"/>
    </clipPath>
  </defs>
  <g id="Grupo_119255" data-name="Grupo 119255" transform="translate(-1212 -3382)">
    <g id="Elipse_6768" data-name="Elipse 6768" transform="translate(1212 3382)" fill="#fff" stroke="#2631a0" stroke-width="4">
      <circle cx="62" cy="62" r="62" stroke="none"/>
      <circle cx="62" cy="62" r="60" fill="none"/>
    </g>
    <g id="Grupo_118765" data-name="Grupo 118765" transform="translate(1229 3402.368)">
      <g id="Grupo_118764" data-name="Grupo 118764" clip-path="url(#clip-path)">
        <path id="Trazado_168022" data-name="Trazado 168022" d="M52.542,9.943,47.5,1.851H40.4a9.253,9.253,0,0,0-7.938,4.494l-4.7,7.644L44.451,24.61Z" transform="translate(-5 -0.333)" fill="#6a9923"/>
        <path id="Trazado_168023" data-name="Trazado 168023" d="M83.455,16.436,77.615,6.4a8.548,8.548,0,0,0-7.586-4.551H51.838L65.477,27.644,57.89,32.2l22.58,2.569,10.8-22.294Z" transform="translate(-9.336 -0.333)" fill="#88b337"/>
        <path id="Trazado_168024" data-name="Trazado 168024" d="M97.783,40.713,79.576,51.334l7.586,13.655H99.3l3.171-5.121a9.256,9.256,0,0,0,.216-9.36Z" transform="translate(-14.332 -7.333)" fill="#6a9923"/>
        <path id="Trazado_168025" data-name="Trazado 168025" d="M63.289,68.655V61.069L48.116,77.759,63.289,97.484v-6.07H75.427a8.264,8.264,0,0,0,7.586-4.551L93.634,68.655Z" transform="translate(-8.666 -10.999)" fill="#88b337"/>
        <path id="Trazado_168026" data-name="Trazado 168026" d="M19.546,72.172l-3.694,8.515,4.617,8a9.627,9.627,0,0,0,8.181,4.729h6.07V72.172Z" transform="translate(-2.855 -12.999)" fill="#6a9923"/>
        <path id="Trazado_168027" data-name="Trazado 168027" d="M35.232,51.184l-9.1-19.724L1.853,32.977l8.677,5.38L4.887,49.667a9.387,9.387,0,0,0,0,9.1l8.442,14.583,3.159-5.48L27.765,48.3Z" transform="translate(-0.334 -5.666)" fill="#88b337"/>
        <path id="Trazado_168028" data-name="Trazado 168028" d="M51.738,32.185a1.516,1.516,0,0,0,1.311,1.186l22.581,2.568a1.7,1.7,0,0,0,.171.009,1.52,1.52,0,0,0,1.366-.855L87.966,12.8a1.517,1.517,0,0,0-2.051-2.014L79.375,14.1,74.258,5.311A10.031,10.031,0,0,0,65.359,0H40.07a10.818,10.818,0,0,0-9.23,5.216l-4.7,7.644a1.516,1.516,0,0,0,.478,2.075L43.3,25.558a1.518,1.518,0,0,0,2.139-.544l6.373-11.465,6.979,13.2-6.354,3.813a1.517,1.517,0,0,0-.7,1.623M43.572,22.132,29.5,13.18,33.433,6.8A7.781,7.781,0,0,1,40.07,3.035h6.16l3.759,7.55Zm18.016,6.48a1.516,1.516,0,0,0,.56-2.008L49.687,3.035H65.359a7.072,7.072,0,0,1,6.275,3.794l5.838,10.034a1.516,1.516,0,0,0,2,.587l3.8-1.927L74.905,32.8l-17.066-1.94Z" transform="translate(-4.667 0)"/>
        <path id="Trazado_168029" data-name="Trazado 168029" d="M83.991,83.62l10.621-18.2,3.156-5.1a10.75,10.75,0,0,0,.282-10.837l-4.9-9.8a1.517,1.517,0,0,0-2.035-.68c-.03.015-.06.031-.089.048L72.815,49.682a1.518,1.518,0,0,0-.562,2.048l6.33,11.407H64.473v-6.07a1.517,1.517,0,0,0-2.64-1.021L46.66,72.737a1.516,1.516,0,0,0-.079,1.946L61.754,94.408a1.518,1.518,0,0,0,2.72-.926V88.93h10.62a9.71,9.71,0,0,0,8.9-5.31M75.625,51.562,91.151,42.5l4.21,8.406a7.746,7.746,0,0,1-.18,7.826l-2.731,4.4H82.055ZM62.956,85.9a1.518,1.518,0,0,0-1.518,1.518v1.608L49.755,73.839,61.438,60.992v3.662a1.518,1.518,0,0,0,1.518,1.518h27.7L81.352,82.127A6.76,6.76,0,0,1,75.093,85.9Z" transform="translate(-8.333 -6.998)"/>
        <path id="Trazado_168030" data-name="Trazado 168030" d="M.719,33.932l7.5,4.652L3.213,48.61A10.927,10.927,0,0,0,3.241,59.2l8.443,14.581,4.617,8a11.145,11.145,0,0,0,9.494,5.491h6.069a1.517,1.517,0,0,0,1.518-1.517V64.505a1.518,1.518,0,0,0-1.518-1.518H20.528L28.1,49.856l6.257,2.409a1.517,1.517,0,0,0,1.923-2.051l-9.1-19.724a1.52,1.52,0,0,0-1.473-.881L1.423,31.126a1.517,1.517,0,0,0-.706,2.8Zm29.628,50.3H25.795a8.061,8.061,0,0,1-6.868-3.971l-4.165-7.216,4.3-7.021H30.347ZM24.852,32.705l7.1,15.385-3.979-1.532a1.516,1.516,0,0,0-1.858.658L12.992,69.987,5.867,57.677a7.886,7.886,0,0,1,.052-7.668L11.561,38.7A1.518,1.518,0,0,0,11,36.727l-4.641-2.87Z" transform="translate(0 -5.332)"/>
      </g>
    </g>
  </g>
</svg>
