<svg xmlns="http://www.w3.org/2000/svg" xmlns:xlink="http://www.w3.org/1999/xlink" width="102" height="102" viewBox="0 0 102 102">
  <defs>
    <filter id="Rectángulo_43546" x="0" y="0" width="102" height="102" filterUnits="userSpaceOnUse">
      <feOffset dy="3" input="SourceAlpha"/>
      <feGaussianBlur stdDeviation="3" result="blur"/>
      <feFlood flood-opacity="0.161"/>
      <feComposite operator="in" in2="blur"/>
      <feComposite in="SourceGraphic"/>
    </filter>
    <clipPath id="clip-path">
      <rect id="Rectángulo_43601" data-name="Rectángulo 43601" width="67.527" height="67.527" transform="translate(0 0)" fill="none"/>
    </clipPath>
    <filter id="Rectángulo_43546-2" x="0" y="0" width="102" height="102" filterUnits="userSpaceOnUse">
      <feOffset dy="3" input="SourceAlpha"/>
      <feGaussianBlur stdDeviation="3" result="blur-2"/>
      <feFlood flood-opacity="0.161"/>
      <feComposite operator="in" in2="blur-2"/>
      <feComposite in="SourceGraphic"/>
    </filter>
  </defs>
  <g id="Grupo_129712" data-name="Grupo 129712" transform="translate(-1278.334 -295)">
    <g id="Grupo_119233" data-name="Grupo 119233">
      <g transform="matrix(1, 0, 0, 1, 1278.33, 295)" filter="url(#Rectángulo_43546)">
        <rect id="Rectángulo_43546-3" data-name="Rectángulo 43546" width="84" height="84" rx="23" transform="translate(9 6)" fill="#fff"/>
      </g>
      <g id="Grupo_119038" data-name="Grupo 119038" transform="translate(1289.748 316.3) rotate(-11)">
        <g id="Grupo_119037" data-name="Grupo 119037" clip-path="url(#clip-path)">
          <path id="Trazado_170025" data-name="Trazado 170025" d="M33.763,0A33.764,33.764,0,1,0,67.526,33.763,33.763,33.763,0,0,0,33.763,0" fill="#39b54a"/>
          <path id="Trazado_170026" data-name="Trazado 170026" d="M33.763,57.969A24.206,24.206,0,1,1,57.969,33.763,24.205,24.205,0,0,1,33.763,57.969" fill="#fff"/>
          <path id="Trazado_170027" data-name="Trazado 170027" d="M38.125,5.476a1.524,1.524,0,0,1-.559.987,1.5,1.5,0,0,1-1.1.284,1.526,1.526,0,0,1-1.142-.617A1.936,1.936,0,0,1,35,4.753a2.131,2.131,0,0,1,.28-.894,1.665,1.665,0,0,1,2.5-.375,1.29,1.29,0,0,1,.412.936l-.61-.059a.816.816,0,0,0-.248-.523,1,1,0,0,0-1.166-.094,1.071,1.071,0,0,0-.391.451,1.9,1.9,0,0,0-.161.618,1.925,1.925,0,0,0,.013.488,1.491,1.491,0,0,0,.137.433.869.869,0,0,0,.293.334.972.972,0,0,0,.464.158q.783.077.982-.809Z" fill="#fff"/>
          <path id="Trazado_170028" data-name="Trazado 170028" d="M42.073,4.116l-.118.505-1.873-.436-.212.91,1.739.405-.114.486-1.738-.4-.235,1.011,1.9.443-.12.515-2.5-.582.8-3.428Z" fill="#fff"/>
          <path id="Trazado_170029" data-name="Trazado 170029" d="M43.326,4.495l1.559.588A1.45,1.45,0,0,1,45.6,5.6a.85.85,0,0,1,.047.813.94.94,0,0,1-.334.453.856.856,0,0,1-.517.151.734.734,0,0,1,.177.162.55.55,0,0,1,.091.171.6.6,0,0,1,.018.2,1.324,1.324,0,0,1-.023.195c-.012.054-.03.124-.055.209q-.008.035-.036.129l-.037.126-.03.108c-.014.051-.023.087-.028.109s-.01.052-.016.094a.889.889,0,0,0-.013.1l0,.078a.326.326,0,0,0,.007.08.368.368,0,0,0,.023.066l-.62-.234a.2.2,0,0,1-.009-.053q0-.03,0-.063a.491.491,0,0,1,.007-.061c0-.018.008-.043.015-.074a.7.7,0,0,1,.018-.075c.005-.019.013-.048.024-.086s.019-.067.024-.086.016-.052.03-.1.025-.08.032-.1a.936.936,0,0,0,.04-.617.828.828,0,0,0-.5-.359l-.768-.289-.513,1.36-.574-.217Zm.4.688-.389,1.031L44.1,6.5a1.873,1.873,0,0,0,.289.088,1.093,1.093,0,0,0,.259.021.381.381,0,0,0,.241-.091.621.621,0,0,0,.169-.259.593.593,0,0,0,.043-.282.379.379,0,0,0-.1-.215.856.856,0,0,0-.187-.15,1.6,1.6,0,0,0-.25-.115Z" fill="#fff"/>
          <path id="Trazado_170030" data-name="Trazado 170030" d="M49.457,7.273l-.251.471-.991-.527-1.4,2.636-.546-.29,1.4-2.636L46.679,6.4l.251-.471Z" fill="#fff"/>
          <rect id="Rectángulo_43591" data-name="Rectángulo 43591" width="3.52" height="0.623" transform="translate(48.392 10.787) rotate(-56.811)" fill="#fff"/>
          <path id="Trazado_170031" data-name="Trazado 170031" d="M53.886,10.468l-.325.411L52.138,9.753l-.6.752,1.248.988-.31.391L51.233,10.9,50.279,12.1l-.489-.386,2.185-2.761Z" fill="#fff"/>
          <rect id="Rectángulo_43592" data-name="Rectángulo 43592" width="3.519" height="0.623" transform="matrix(0.688, -0.726, 0.726, 0.688, 52.275, 13.786)" fill="#fff"/>
          <path id="Trazado_170032" data-name="Trazado 170032" d="M57.8,14.536l-.391.342L56.146,13.43l-.7.615,1.175,1.344-.376.329-1.175-1.344-.781.684,1.285,1.469-.4.349-1.689-1.931,2.649-2.318Z" fill="#fff"/>
          <path id="Trazado_170033" data-name="Trazado 170033" d="M58.608,15.581,59.35,16.7a2.434,2.434,0,0,1,.292.578,1.28,1.28,0,0,1,.045.581,1.706,1.706,0,0,1-.829,1.174,1.932,1.932,0,0,1-1.463.379,1.215,1.215,0,0,1-.515-.225,2.131,2.131,0,0,1-.443-.51l-.76-1.144Zm-.1.8-2.063,1.371.4.6a.93.93,0,0,0,.731.494,1.6,1.6,0,0,0,.91-.32,1.348,1.348,0,0,0,.591-.714,1.016,1.016,0,0,0-.192-.864Z" fill="#fff"/>
          <path id="Trazado_170034" data-name="Trazado 170034" d="M60.776,21.589a.883.883,0,1,1-.674.008.849.849,0,0,1,.674-.008" fill="#fff"/>
          <path id="Trazado_170035" data-name="Trazado 170035" d="M62.007,29.125A1.526,1.526,0,0,1,60.9,28.9a1.5,1.5,0,0,1-.61-.962,1.522,1.522,0,0,1,.233-1.276,1.941,1.941,0,0,1,1.211-.73,2.135,2.135,0,0,1,.937-.009,1.665,1.665,0,0,1,1.13,2.266,1.286,1.286,0,0,1-.764.68l-.132-.6a.807.807,0,0,0,.421-.4,1,1,0,0,0-.27-1.138,1.075,1.075,0,0,0-.55-.233,2.024,2.024,0,0,0-1.1.2,1.531,1.531,0,0,0-.37.264.877.877,0,0,0-.227.382.978.978,0,0,0-.008.491q.171.767,1.073.684Z" fill="#fff"/>
          <path id="Trazado_170036" data-name="Trazado 170036" d="M64.518,32.461,64,32.5l-.164-1.916-.931.079.152,1.779-.5.042-.151-1.778-1.035.088.166,1.946-.527.044L60.8,30.233l3.508-.3Z" fill="#fff"/>
          <path id="Trazado_170037" data-name="Trazado 170037" d="M64.547,33.768l-.074,1.664a1.442,1.442,0,0,1-.272.844.848.848,0,0,1-.758.3.939.939,0,0,1-.534-.176.855.855,0,0,1-.305-.445.711.711,0,0,1-.1.219.549.549,0,0,1-.135.14.59.59,0,0,1-.182.078,1.256,1.256,0,0,1-.192.039c-.055.006-.127.01-.216.013l-.134.006-.131,0-.112.005c-.053,0-.09.005-.111.008s-.053.006-.095.013a.864.864,0,0,0-.1.018l-.075.021a.308.308,0,0,0-.073.032.328.328,0,0,0-.056.042l.029-.662a.27.27,0,0,1,.048-.025.527.527,0,0,1,.06-.02.577.577,0,0,1,.06-.012l.075-.009c.031,0,.057-.006.077-.007l.089,0,.089,0,.1,0c.05,0,.085,0,.1,0a.931.931,0,0,0,.6-.154.821.821,0,0,0,.187-.583l.036-.82L61,34.225l.027-.612Zm-.531.59-1.1-.049-.036.815a1.809,1.809,0,0,0,.006.3,1.135,1.135,0,0,0,.061.253.377.377,0,0,0,.162.2.6.6,0,0,0,.3.08.593.593,0,0,0,.282-.047.379.379,0,0,0,.173-.163.857.857,0,0,0,.084-.224,1.663,1.663,0,0,0,.031-.273Z" fill="#fff"/>
          <path id="Trazado_170038" data-name="Trazado 170038" d="M63.82,40.453l-.526-.091.191-1.106-2.942-.509.106-.609,2.942.509.191-1.106.526.092Z" fill="#fff"/>
          <rect id="Rectángulo_43593" data-name="Rectángulo 43593" width="0.623" height="3.52" transform="matrix(0.259, -0.966, 0.966, 0.259, 59.987, 41.14)" fill="#fff"/>
          <path id="Trazado_170039" data-name="Trazado 170039" d="M62.163,45.657l-.492-.181.628-1.7-.9-.331-.551,1.493-.468-.172.55-1.494-1.442-.532.215-.584,3.3,1.217Z" fill="#fff"/>
          <rect id="Rectángulo_43594" data-name="Rectángulo 43594" width="0.623" height="3.52" transform="translate(58.237 45.725) rotate(-64.563)" fill="#fff"/>
          <path id="Trazado_170040" data-name="Trazado 170040" d="M59.508,50.644l-.446-.266.985-1.652-.8-.478-.914,1.533-.429-.256.914-1.533-.892-.531-1,1.677-.455-.271,1.314-2.2,3.023,1.8Z" fill="#fff"/>
          <path id="Trazado_170041" data-name="Trazado 170041" d="M58.761,51.734l-.831,1.05a2.461,2.461,0,0,1-.459.456,1.278,1.278,0,0,1-.539.223,1.706,1.706,0,0,1-1.373-.425,1.938,1.938,0,0,1-.813-1.274,1.222,1.222,0,0,1,.055-.559,2.122,2.122,0,0,1,.348-.579L56,49.548Zm-.791.155-1.942-1.538-.451.57a.931.931,0,0,0-.243.848,1.6,1.6,0,0,0,.585.766,1.346,1.346,0,0,0,.862.342,1.016,1.016,0,0,0,.762-.449Z" fill="#fff"/>
          <path id="Trazado_170042" data-name="Trazado 170042" d="M53.715,55.66a.883.883,0,1,1-.216-.638.844.844,0,0,1,.216.638" fill="#fff"/>
          <path id="Trazado_170043" data-name="Trazado 170043" d="M46.939,59.174a1.526,1.526,0,0,1-.131-1.127,1.5,1.5,0,0,1,.723-.879,1.525,1.525,0,0,1,1.286-.177,1.937,1.937,0,0,1,1.071.923,2.15,2.15,0,0,1,.3.887,1.667,1.667,0,0,1-1.8,1.781,1.289,1.289,0,0,1-.885-.513l.527-.313a.806.806,0,0,0,.509.276.9.9,0,0,0,.585-.137.912.912,0,0,0,.412-.474,1.074,1.074,0,0,0,.049-.6,1.876,1.876,0,0,0-.234-.594,1.927,1.927,0,0,0-.3-.387,1.521,1.521,0,0,0-.367-.268.872.872,0,0,0-.433-.1.965.965,0,0,0-.468.146.865.865,0,0,0-.315,1.233Z" fill="#fff"/>
          <path id="Trazado_170044" data-name="Trazado 170044" d="M44.557,62.6l-.2-.478,1.769-.752-.365-.86-1.643.7-.195-.459,1.642-.7-.406-.955-1.8.764-.207-.486,2.361-1.005,1.378,3.239Z" fill="#fff"/>
          <path id="Trazado_170045" data-name="Trazado 170045" d="M43.316,63.035l-1.605.445a1.447,1.447,0,0,1-.887,0,.848.848,0,0,1-.518-.628.945.945,0,0,1,0-.563.854.854,0,0,1,.328-.427.719.719,0,0,1-.238-.026.56.56,0,0,1-.175-.085.593.593,0,0,1-.131-.149,1.362,1.362,0,0,1-.1-.17c-.022-.051-.048-.118-.079-.2-.009-.021-.025-.063-.047-.125s-.037-.1-.045-.124-.02-.055-.039-.1-.033-.084-.042-.1-.022-.049-.041-.086-.035-.066-.047-.085l-.043-.065a.31.31,0,0,0-.053-.059.373.373,0,0,0-.057-.041l.638-.177a.276.276,0,0,1,.039.038.419.419,0,0,1,.037.051.5.5,0,0,1,.03.054c.008.016.019.039.032.068s.023.052.03.071l.031.084.031.084c.007.018.018.051.035.1s.027.079.032.1a.931.931,0,0,0,.332.521.821.821,0,0,0,.612,0l.791-.219-.388-1.4.591-.164Zm-.725-.322L42.3,61.651l-.786.217a1.936,1.936,0,0,0-.286.1A1.1,1.1,0,0,0,41,62.1a.381.381,0,0,0-.141.216.613.613,0,0,0,.017.308.588.588,0,0,0,.131.253.377.377,0,0,0,.209.114.84.84,0,0,0,.239.011,1.689,1.689,0,0,0,.27-.054Z" fill="#fff"/>
          <path id="Trazado_170046" data-name="Trazado 170046" d="M36.732,64.408l-.076-.529,1.111-.158-.422-2.956.612-.088.422,2.956,1.111-.159.076.529Z" fill="#fff"/>
          <rect id="Rectángulo_43595" data-name="Rectángulo 43595" width="0.623" height="3.52" transform="matrix(0.999, -0.052, 0.052, 0.999, 34.897, 60.975)" fill="#fff"/>
          <path id="Trazado_170047" data-name="Trazado 170047" d="M31.278,64.446l.019-.524,1.813.067.035-.959-1.59-.058.018-.5,1.591.058L33.22,61l.622.023-.128,3.517Z" fill="#fff"/>
          <rect id="Rectángulo_43596" data-name="Rectángulo 43596" width="3.52" height="0.623" transform="matrix(0.126, -0.992, 0.992, 0.126, 29.548, 64.231)" fill="#fff"/>
          <path id="Trazado_170048" data-name="Trazado 170048" d="M25.713,63.482l.113-.507,1.877.42.2-.912-1.742-.389.109-.487L28.016,62l.227-1.013-1.906-.426.115-.516,2.5.559-.768,3.435Z" fill="#fff"/>
          <path id="Trazado_170049" data-name="Trazado 170049" d="M24.439,63.111l-1.257-.464a2.446,2.446,0,0,1-.577-.295,1.273,1.273,0,0,1-.379-.443,1.7,1.7,0,0,1-.023-1.436,1.935,1.935,0,0,1,.959-1.169,1.218,1.218,0,0,1,.548-.122,2.134,2.134,0,0,1,.658.151l1.29.476Zm-.394-.7.858-2.324-.682-.251a.927.927,0,0,0-.882.033,1.6,1.6,0,0,0-.546.794,1.346,1.346,0,0,0-.057.925,1.019,1.019,0,0,0,.664.585Z" fill="#fff"/>
          <path id="Trazado_170050" data-name="Trazado 170050" d="M19.14,59.53a.882.882,0,1,1,.54-.4.851.851,0,0,1-.54.4" fill="#fff"/>
          <path id="Trazado_170051" data-name="Trazado 170051" d="M13.7,54.174a1.522,1.522,0,0,1,1.031-.473,1.5,1.5,0,0,1,1.06.415,1.529,1.529,0,0,1,.566,1.169,1.936,1.936,0,0,1-.547,1.3,2.14,2.14,0,0,1-.75.562,1.666,1.666,0,0,1-2.25-1.162,1.285,1.285,0,0,1,.214-1l.46.405a.808.808,0,0,0-.1.569,1,1,0,0,0,.89.759,1.07,1.07,0,0,0,.581-.137,1.905,1.905,0,0,0,.492-.407,1.953,1.953,0,0,0,.276-.4,1.536,1.536,0,0,0,.142-.431.871.871,0,0,0-.043-.442.962.962,0,0,0-.283-.4.865.865,0,0,0-1.27.082Z" fill="#fff"/>
          <path id="Trazado_170052" data-name="Trazado 170052" d="M9.709,52.973l.391-.342,1.265,1.449.7-.615-1.174-1.344.376-.328,1.174,1.344.782-.683-1.285-1.471.4-.348,1.688,1.933-2.652,2.315Z" fill="#fff"/>
          <path id="Trazado_170053" data-name="Trazado 170053" d="M8.91,51.931l-.923-1.387a1.445,1.445,0,0,1-.279-.842.848.848,0,0,1,.436-.688.939.939,0,0,1,.536-.173.849.849,0,0,1,.507.179.716.716,0,0,1-.049-.235.535.535,0,0,1,.026-.192.611.611,0,0,1,.1-.171,1.315,1.315,0,0,1,.132-.145c.041-.036.1-.082.167-.137.017-.016.052-.044.1-.084l.1-.081.088-.07c.041-.033.069-.057.085-.072l.069-.067a.884.884,0,0,0,.066-.07c.014-.017.03-.038.048-.062a.287.287,0,0,0,.04-.068.431.431,0,0,0,.021-.067l.367.551a.22.22,0,0,1-.024.049.409.409,0,0,1-.037.051c-.014.017-.028.032-.041.045l-.055.052c-.023.021-.043.038-.058.05l-.07.056-.07.055-.083.064-.083.062a.933.933,0,0,0-.392.477.82.82,0,0,0,.194.581l.454.683,1.21-.805.34.51Zm.08-.79.918-.611-.452-.679a1.9,1.9,0,0,0-.184-.24,1.132,1.132,0,0,0-.2-.168.379.379,0,0,0-.249-.066.621.621,0,0,0-.288.111.583.583,0,0,0-.2.205.374.374,0,0,0-.044.233.842.842,0,0,0,.065.231,1.694,1.694,0,0,0,.135.239Z" fill="#fff"/>
          <path id="Trazado_170054" data-name="Trazado 170054" d="M5.553,46.109l.479-.237.5,1.006,2.677-1.325.274.554L6.8,47.432l.5,1.005-.478.237Z" fill="#fff"/>
          <rect id="Rectángulo_43597" data-name="Rectángulo 43597" width="3.52" height="0.623" transform="translate(4.958 44.558) rotate(-21.133)" fill="#fff"/>
          <path id="Trazado_170055" data-name="Trazado 170055" d="M3.819,40.924l.5-.144.5,1.745.922-.263-.437-1.531.48-.137.437,1.531L7.7,41.7l.171.6-3.385.966Z" fill="#fff"/>
          <rect id="Rectángulo_43598" data-name="Rectángulo 43598" width="3.52" height="0.623" transform="translate(3.49 39.21) rotate(-10.723)" fill="#fff"/>
          <path id="Trazado_170056" data-name="Trazado 170056" d="M3.02,35.334l.517-.048.18,1.914.93-.087L4.48,35.336l.5-.047.167,1.777,1.034-.1L6,35.025l.527-.05.24,2.555-3.505.329Z" fill="#fff"/>
          <path id="Trazado_170057" data-name="Trazado 170057" d="M2.979,34.014l.05-1.339a2.417,2.417,0,0,1,.1-.639,1.259,1.259,0,0,1,.3-.5,1.7,1.7,0,0,1,1.358-.469,1.932,1.932,0,0,1,1.409.547,1.226,1.226,0,0,1,.287.483,2.155,2.155,0,0,1,.061.673L6.5,34.145Zm.547-.593L6,33.513l.027-.726a.932.932,0,0,0-.3-.828,1.607,1.607,0,0,0-.925-.272,1.343,1.343,0,0,0-.9.234,1.014,1.014,0,0,0-.349.813Z" fill="#fff"/>
          <path id="Trazado_170058" data-name="Trazado 170058" d="M4.727,27.87a.879.879,0,0,1,.936-1.33.88.88,0,1,1-.936,1.33" fill="#fff"/>
          <path id="Trazado_170059" data-name="Trazado 170059" d="M8.128,21.029a1.521,1.521,0,0,1,.769.833A1.5,1.5,0,0,1,8.832,23a1.526,1.526,0,0,1-.936.9,1.935,1.935,0,0,1-1.408-.115,2.128,2.128,0,0,1-.767-.539,1.6,1.6,0,0,1-.385-.794,1.613,1.613,0,0,1,.123-.932,1.589,1.589,0,0,1,.668-.773,1.288,1.288,0,0,1,1.017-.107L6.9,21.2a.806.806,0,0,0-.573.077.9.9,0,0,0-.392.456.917.917,0,0,0-.054.625,1.076,1.076,0,0,0,.311.51,1.915,1.915,0,0,0,.54.342,1.954,1.954,0,0,0,.468.137,1.536,1.536,0,0,0,.454,0,.87.87,0,0,0,.407-.178.97.97,0,0,0,.293-.394A.865.865,0,0,0,7.884,21.6Z" fill="#fff"/>
          <path id="Trazado_170060" data-name="Trazado 170060" d="M8.035,16.858l.446.266-.987,1.651.8.479.915-1.532.429.256L8.724,19.51l.892.533,1-1.677.454.272-1.316,2.2L6.734,19.035Z" fill="#fff"/>
          <path id="Trazado_170061" data-name="Trazado 170061" d="M8.776,15.78l1.033-1.307a1.448,1.448,0,0,1,.714-.525.85.85,0,0,1,.79.2.923.923,0,0,1,.329.456.849.849,0,0,1-.012.538.686.686,0,0,1,.207-.119.528.528,0,0,1,.191-.035.6.6,0,0,1,.194.042,1.278,1.278,0,0,1,.179.082c.047.027.108.066.181.115.02.012.059.037.114.074l.108.073.094.061c.043.029.076.049.1.06l.083.044c.039.019.068.033.089.041l.073.027a.355.355,0,0,0,.078.017.316.316,0,0,0,.069,0l-.411.52a.264.264,0,0,1-.052-.008.362.362,0,0,1-.061-.02.358.358,0,0,1-.055-.025.584.584,0,0,1-.066-.036c-.028-.016-.051-.029-.066-.04l-.075-.049-.075-.049-.085-.059c-.041-.028-.069-.048-.085-.061a.932.932,0,0,0-.576-.224.821.821,0,0,0-.493.363l-.509.644,1.141.9-.381.481Zm.776-.168.865.684.505-.64a1.922,1.922,0,0,0,.172-.249,1.232,1.232,0,0,0,.1-.24.4.4,0,0,0-.014-.257.627.627,0,0,0-.2-.24.592.592,0,0,0-.256-.126.376.376,0,0,0-.236.031.851.851,0,0,0-.2.132,1.667,1.667,0,0,0-.186.2Z" fill="#fff"/>
          <path id="Trazado_170062" data-name="Trazado 170062" d="M13.278,10.782l.373.382-.8.785,2.089,2.134-.442.432-2.088-2.134-.8.785-.374-.382Z" fill="#fff"/>
          <rect id="Rectángulo_43599" data-name="Rectángulo 43599" width="0.623" height="3.52" transform="matrix(0.774, -0.633, 0.633, 0.774, 14.079, 10.132)" fill="#fff"/>
          <path id="Trazado_170063" data-name="Trazado 170063" d="M17.654,7.528l.294.434-1.5,1.017.538.794L18.3,8.881l.28.413-1.318.893.862,1.273-.516.349L15.636,8.894Z" fill="#fff"/>
          <rect id="Rectángulo_43600" data-name="Rectángulo 43600" width="0.623" height="3.52" transform="translate(18.636 6.98) rotate(-28.917)" fill="#fff"/>
          <path id="Trazado_170064" data-name="Trazado 170064" d="M22.718,5.023l.207.476-1.762.768.373.857,1.636-.713.2.458-1.636.713.415.951,1.79-.78.212.485L21.8,9.263,20.393,6.036Z" fill="#fff"/>
          <path id="Trazado_170065" data-name="Trazado 170065" d="M23.964,4.571,25.252,4.2a2.4,2.4,0,0,1,.639-.1,1.255,1.255,0,0,1,.568.134,1.7,1.7,0,0,1,.866,1.146,1.93,1.93,0,0,1-.084,1.509,1.234,1.234,0,0,1-.37.422,2.149,2.149,0,0,1-.621.267l-1.322.376Zm.733.336.679,2.382.7-.2a.931.931,0,0,0,.693-.547,1.6,1.6,0,0,0-.028-.963,1.342,1.342,0,0,0-.5-.781,1.015,1.015,0,0,0-.881-.08Z" fill="#fff"/>
          <path id="Trazado_170066" data-name="Trazado 170066" d="M30.351,4.335a.881.881,0,0,1,1.357,1.124.881.881,0,0,1-1.357-1.124" fill="#fff"/>
          <path id="Trazado_170067" data-name="Trazado 170067" d="M51.052,18.614c-.333-.375-.674-.742-1.028-1.1h0a22.948,22.948,0,0,0-32.513,0h0c-.354.354-.7.721-1.024,1.1a22.941,22.941,0,0,0,0,30.3c.327.375.67.741,1.024,1.095h0a22.953,22.953,0,0,0,32.517,0c.354-.354.7-.72,1.028-1.095a22.959,22.959,0,0,0,0-30.3M28.72,12.872a19.14,19.14,0,0,0-4.969,8.353,33.228,33.228,0,0,1-4.993-2.83,21.451,21.451,0,0,1,9.962-5.523M18.758,49.128A33.635,33.635,0,0,1,23.751,46.3a19.15,19.15,0,0,0,4.969,8.354,21.459,21.459,0,0,1-9.962-5.528m20.956-4.3H18.669V37.521H48.858v7.308H39.714ZM25.2,45.692l.04-.015h7.775v9.517C29.8,54.689,26.946,51,25.2,45.692m9.322,9.5h0V45.677h7.775l.04.015c-1.751,5.309-4.608,9-7.813,9.5m4.29-.538A19.1,19.1,0,0,0,43.773,46.3a33.712,33.712,0,0,1,5,2.83,21.421,21.421,0,0,1-9.964,5.528m11-6.62a36.562,36.562,0,0,0-3.951-2.359h3.845v-9H45.545c.024-.354.041-.712.055-1.073a9.457,9.457,0,0,1-1.519.255c-.013.273-.03.546-.049.818H34.517V34.841a6.518,6.518,0,0,1-1.5.683v1.149H23.5q-.038-.531-.059-1.073h-1.51c.013.361.032.719.053,1.073H17.821v9h3.851a36.436,36.436,0,0,0-3.957,2.359,21.364,21.364,0,0,1-5.426-13.521H16.6V33.01H12.289a21.364,21.364,0,0,1,5.426-13.523q1.5,1.028,3.007,1.857h4.642c1.76-5.045,4.539-8.521,7.648-9.011v9.034a7.112,7.112,0,0,1,1.5.638V12.333h0c3.059.481,5.8,3.862,7.565,8.786a10.111,10.111,0,0,1,1.055-.053c.2,0,.393,0,.585.015a18.991,18.991,0,0,0-4.915-8.209A21.447,21.447,0,0,1,48.773,18.4,33.868,33.868,0,0,1,44.04,21.1a8.985,8.985,0,0,1,2.313.49,37.655,37.655,0,0,0,3.463-2.1A21.4,21.4,0,0,1,55.24,33.01H49.564a6.471,6.471,0,0,1-1.543,1.505H55.24a21.371,21.371,0,0,1-5.428,13.521" fill="#39b54a"/>
          <path id="Trazado_170068" data-name="Trazado 170068" d="M36.7,33.01h-.465a4.45,4.45,0,0,1-1.255,1.505h3.266A6.484,6.484,0,0,1,36.7,33.01" fill="#39b54a"/>
          <path id="Trazado_170069" data-name="Trazado 170069" d="M17.662,22.4v2.688h1.42v6.744h-1.42v2.7h6.31v-2.7H22.533V25.091h1.439V22.4h-6.31Z" fill="#39b54a"/>
          <path id="Trazado_170070" data-name="Trazado 170070" d="M35.653,30.916c0-.025,0-.053,0-.078A3.534,3.534,0,0,0,35.39,29.5v0a3.022,3.022,0,0,0-.873-1.172,4.755,4.755,0,0,0-1.5-.81,10.545,10.545,0,0,0-2.317-.466c-1.214-.121-2.047-.348-2.047-1.162s1.04-1.023,1.683-1.023a5.521,5.521,0,0,1,1.543.19l.053,1.406H34.89V23.529l-.066-.051c-.1-.08-.205-.154-.307-.224a6.354,6.354,0,0,0-1.5-.776,7.938,7.938,0,0,0-2.681-.405,7.03,7.03,0,0,0-2.769.555,4.381,4.381,0,0,0-1.511,1.054,3.2,3.2,0,0,0-.835,2.206c0,3,2.514,3.695,4.977,3.919,1.333.138,2.045.452,2.045,1.041,0,.693-.78,1.092-1.924,1.092a5.892,5.892,0,0,1-2.082-.382l-.051-1.405H25.216v3.035c.093.079.187.155.282.227l.14.106c.095.068.188.134.284.2s.191.123.286.18a6.4,6.4,0,0,0,1.378.617h0c.18.057.36.108.547.148a.235.235,0,0,0,.057.013c.085.019.17.036.254.051a.541.541,0,0,0,.058.011c.091.017.182.031.275.042.125.019.252.034.382.047.1.008.193.017.292.021a.3.3,0,0,0,.043,0c.1.008.207.013.313.017s.244,0,.369,0H30.3a8.219,8.219,0,0,0,2.4-.356,4.5,4.5,0,0,0,2.289-1.505,3.4,3.4,0,0,0,.666-2.094" fill="#39b54a"/>
          <path id="Trazado_170071" data-name="Trazado 170071" d="M49.867,28.472A5.87,5.87,0,0,0,44.939,22.3a8.994,8.994,0,0,0-1.8-.174,6.639,6.639,0,0,0-5.6,2.516,6.4,6.4,0,0,0-1.145,3.83c0,.269.013.53.036.782a6.954,6.954,0,0,0,.276,1.412A5.55,5.55,0,0,0,38.1,33.01a6.055,6.055,0,0,0,2.637,1.505,8.665,8.665,0,0,0,2.4.32,9.776,9.776,0,0,0,.981-.049,6.537,6.537,0,0,0,4.055-1.776,6.2,6.2,0,0,0,1.691-4.538m-4.313,2.465a2.988,2.988,0,0,1-1.467.852,3.762,3.762,0,0,1-.947.117,3.231,3.231,0,0,1-3.313-3.434,3.224,3.224,0,0,1,3.313-3.417c.023,0,.049,0,.072,0a3.5,3.5,0,0,1,1.655.407,3.233,3.233,0,0,1,1.567,3.008,3.541,3.541,0,0,1-.88,2.465" fill="#39b54a"/>
          <path id="Trazado_170072" data-name="Trazado 170072" d="M25.7,38.944v4.444H24.446V39.915h-.825v-.971Z" fill="#39b54a"/>
          <path id="Trazado_170073" data-name="Trazado 170073" d="M31.2,42.538h-.66v.851H29.309v-.851H26.96v-.819l1.994-2.774h1.3l-1.809,2.6h.9v-.755h1.188v.755h.66Z" fill="#39b54a"/>
          <path id="Trazado_170074" data-name="Trazado 170074" d="M33.03,43.2a1.83,1.83,0,0,1-.695-.8,3.2,3.2,0,0,1,0-2.483,1.838,1.838,0,0,1,.695-.8,2.016,2.016,0,0,1,2.026,0,1.838,1.838,0,0,1,.695.8,3.2,3.2,0,0,1,0,2.483,1.83,1.83,0,0,1-.695.8,2.016,2.016,0,0,1-2.026,0m1.521-1.063a2.633,2.633,0,0,0,0-1.949.573.573,0,0,0-1.016,0,2.633,2.633,0,0,0,0,1.949.573.573,0,0,0,1.016,0" fill="#39b54a"/>
          <path id="Trazado_170075" data-name="Trazado 170075" d="M38.013,43.2a1.83,1.83,0,0,1-.695-.8,3.2,3.2,0,0,1,0-2.483,1.838,1.838,0,0,1,.695-.8,2.016,2.016,0,0,1,2.026,0,1.838,1.838,0,0,1,.695.8,3.2,3.2,0,0,1,0,2.483,1.83,1.83,0,0,1-.695.8,2.016,2.016,0,0,1-2.026,0m1.521-1.063a2.633,2.633,0,0,0,0-1.949.573.573,0,0,0-1.016,0,2.633,2.633,0,0,0,0,1.949.573.573,0,0,0,1.016,0" fill="#39b54a"/>
          <path id="Trazado_170076" data-name="Trazado 170076" d="M43.906,38.944v4.444H42.649V39.915h-.825v-.971Z" fill="#39b54a"/>
        </g>
      </g>
    </g>
    <g id="Grupo_129704" data-name="Grupo 129704">
      <g transform="matrix(1, 0, 0, 1, 1278.33, 295)" filter="url(#Rectángulo_43546-2)">
        <rect id="Rectángulo_43546-4" data-name="Rectángulo 43546" width="84" height="84" rx="23" transform="translate(9 6)" fill="#fff"/>
      </g>
      <g id="Grupo_119038-2" data-name="Grupo 119038" transform="translate(1289.748 316.3) rotate(-11)">
        <g id="Grupo_119037-2" data-name="Grupo 119037" clip-path="url(#clip-path)">
          <path id="Trazado_170025-2" data-name="Trazado 170025" d="M33.763,0A33.764,33.764,0,1,0,67.526,33.763,33.763,33.763,0,0,0,33.763,0" fill="#39b54a"/>
          <path id="Trazado_170026-2" data-name="Trazado 170026" d="M33.763,57.969A24.206,24.206,0,1,1,57.969,33.763,24.205,24.205,0,0,1,33.763,57.969" fill="#fff"/>
          <path id="Trazado_170027-2" data-name="Trazado 170027" d="M38.125,5.476a1.524,1.524,0,0,1-.559.987,1.5,1.5,0,0,1-1.1.284,1.526,1.526,0,0,1-1.142-.617A1.936,1.936,0,0,1,35,4.753a2.131,2.131,0,0,1,.28-.894,1.665,1.665,0,0,1,2.5-.375,1.29,1.29,0,0,1,.412.936l-.61-.059a.816.816,0,0,0-.248-.523,1,1,0,0,0-1.166-.094,1.071,1.071,0,0,0-.391.451,1.9,1.9,0,0,0-.161.618,1.925,1.925,0,0,0,.013.488,1.491,1.491,0,0,0,.137.433.869.869,0,0,0,.293.334.972.972,0,0,0,.464.158q.783.077.982-.809Z" fill="#fff"/>
          <path id="Trazado_170028-2" data-name="Trazado 170028" d="M42.073,4.116l-.118.505-1.873-.436-.212.91,1.739.405-.114.486-1.738-.4-.235,1.011,1.9.443-.12.515-2.5-.582.8-3.428Z" fill="#fff"/>
          <path id="Trazado_170029-2" data-name="Trazado 170029" d="M43.326,4.495l1.559.588A1.45,1.45,0,0,1,45.6,5.6a.85.85,0,0,1,.047.813.94.94,0,0,1-.334.453.856.856,0,0,1-.517.151.734.734,0,0,1,.177.162.55.55,0,0,1,.091.171.6.6,0,0,1,.018.2,1.324,1.324,0,0,1-.023.195c-.012.054-.03.124-.055.209q-.008.035-.036.129l-.037.126-.03.108c-.014.051-.023.087-.028.109s-.01.052-.016.094a.889.889,0,0,0-.013.1l0,.078a.326.326,0,0,0,.007.08.368.368,0,0,0,.023.066l-.62-.234a.2.2,0,0,1-.009-.053q0-.03,0-.063a.491.491,0,0,1,.007-.061c0-.018.008-.043.015-.074a.7.7,0,0,1,.018-.075c.005-.019.013-.048.024-.086s.019-.067.024-.086.016-.052.03-.1.025-.08.032-.1a.936.936,0,0,0,.04-.617.828.828,0,0,0-.5-.359l-.768-.289-.513,1.36-.574-.217Zm.4.688-.389,1.031L44.1,6.5a1.873,1.873,0,0,0,.289.088,1.093,1.093,0,0,0,.259.021.381.381,0,0,0,.241-.091.621.621,0,0,0,.169-.259.593.593,0,0,0,.043-.282.379.379,0,0,0-.1-.215.856.856,0,0,0-.187-.15,1.6,1.6,0,0,0-.25-.115Z" fill="#fff"/>
          <path id="Trazado_170030-2" data-name="Trazado 170030" d="M49.457,7.273l-.251.471-.991-.527-1.4,2.636-.546-.29,1.4-2.636L46.679,6.4l.251-.471Z" fill="#fff"/>
          <rect id="Rectángulo_43591-2" data-name="Rectángulo 43591" width="3.52" height="0.623" transform="translate(48.392 10.787) rotate(-56.811)" fill="#fff"/>
          <path id="Trazado_170031-2" data-name="Trazado 170031" d="M53.886,10.468l-.325.411L52.138,9.753l-.6.752,1.248.988-.31.391L51.233,10.9,50.279,12.1l-.489-.386,2.185-2.761Z" fill="#fff"/>
          <rect id="Rectángulo_43592-2" data-name="Rectángulo 43592" width="3.519" height="0.623" transform="matrix(0.688, -0.726, 0.726, 0.688, 52.275, 13.786)" fill="#fff"/>
          <path id="Trazado_170032-2" data-name="Trazado 170032" d="M57.8,14.536l-.391.342L56.146,13.43l-.7.615,1.175,1.344-.376.329-1.175-1.344-.781.684,1.285,1.469-.4.349-1.689-1.931,2.649-2.318Z" fill="#fff"/>
          <path id="Trazado_170033-2" data-name="Trazado 170033" d="M58.608,15.581,59.35,16.7a2.434,2.434,0,0,1,.292.578,1.28,1.28,0,0,1,.045.581,1.706,1.706,0,0,1-.829,1.174,1.932,1.932,0,0,1-1.463.379,1.215,1.215,0,0,1-.515-.225,2.131,2.131,0,0,1-.443-.51l-.76-1.144Zm-.1.8-2.063,1.371.4.6a.93.93,0,0,0,.731.494,1.6,1.6,0,0,0,.91-.32,1.348,1.348,0,0,0,.591-.714,1.016,1.016,0,0,0-.192-.864Z" fill="#fff"/>
          <path id="Trazado_170034-2" data-name="Trazado 170034" d="M60.776,21.589a.883.883,0,1,1-.674.008.849.849,0,0,1,.674-.008" fill="#fff"/>
          <path id="Trazado_170035-2" data-name="Trazado 170035" d="M62.007,29.125A1.526,1.526,0,0,1,60.9,28.9a1.5,1.5,0,0,1-.61-.962,1.522,1.522,0,0,1,.233-1.276,1.941,1.941,0,0,1,1.211-.73,2.135,2.135,0,0,1,.937-.009,1.665,1.665,0,0,1,1.13,2.266,1.286,1.286,0,0,1-.764.68l-.132-.6a.807.807,0,0,0,.421-.4,1,1,0,0,0-.27-1.138,1.075,1.075,0,0,0-.55-.233,2.024,2.024,0,0,0-1.1.2,1.531,1.531,0,0,0-.37.264.877.877,0,0,0-.227.382.978.978,0,0,0-.008.491q.171.767,1.073.684Z" fill="#fff"/>
          <path id="Trazado_170036-2" data-name="Trazado 170036" d="M64.518,32.461,64,32.5l-.164-1.916-.931.079.152,1.779-.5.042-.151-1.778-1.035.088.166,1.946-.527.044L60.8,30.233l3.508-.3Z" fill="#fff"/>
          <path id="Trazado_170037-2" data-name="Trazado 170037" d="M64.547,33.768l-.074,1.664a1.442,1.442,0,0,1-.272.844.848.848,0,0,1-.758.3.939.939,0,0,1-.534-.176.855.855,0,0,1-.305-.445.711.711,0,0,1-.1.219.549.549,0,0,1-.135.14.59.59,0,0,1-.182.078,1.256,1.256,0,0,1-.192.039c-.055.006-.127.01-.216.013l-.134.006-.131,0-.112.005c-.053,0-.09.005-.111.008s-.053.006-.095.013a.864.864,0,0,0-.1.018l-.075.021a.308.308,0,0,0-.073.032.328.328,0,0,0-.056.042l.029-.662a.27.27,0,0,1,.048-.025.527.527,0,0,1,.06-.02.577.577,0,0,1,.06-.012l.075-.009c.031,0,.057-.006.077-.007l.089,0,.089,0,.1,0c.05,0,.085,0,.1,0a.931.931,0,0,0,.6-.154.821.821,0,0,0,.187-.583l.036-.82L61,34.225l.027-.612Zm-.531.59-1.1-.049-.036.815a1.809,1.809,0,0,0,.006.3,1.135,1.135,0,0,0,.061.253.377.377,0,0,0,.162.2.6.6,0,0,0,.3.08.593.593,0,0,0,.282-.047.379.379,0,0,0,.173-.163.857.857,0,0,0,.084-.224,1.663,1.663,0,0,0,.031-.273Z" fill="#fff"/>
          <path id="Trazado_170038-2" data-name="Trazado 170038" d="M63.82,40.453l-.526-.091.191-1.106-2.942-.509.106-.609,2.942.509.191-1.106.526.092Z" fill="#fff"/>
          <rect id="Rectángulo_43593-2" data-name="Rectángulo 43593" width="0.623" height="3.52" transform="matrix(0.259, -0.966, 0.966, 0.259, 59.987, 41.14)" fill="#fff"/>
          <path id="Trazado_170039-2" data-name="Trazado 170039" d="M62.163,45.657l-.492-.181.628-1.7-.9-.331-.551,1.493-.468-.172.55-1.494-1.442-.532.215-.584,3.3,1.217Z" fill="#fff"/>
          <rect id="Rectángulo_43594-2" data-name="Rectángulo 43594" width="0.623" height="3.52" transform="translate(58.237 45.725) rotate(-64.563)" fill="#fff"/>
          <path id="Trazado_170040-2" data-name="Trazado 170040" d="M59.508,50.644l-.446-.266.985-1.652-.8-.478-.914,1.533-.429-.256.914-1.533-.892-.531-1,1.677-.455-.271,1.314-2.2,3.023,1.8Z" fill="#fff"/>
          <path id="Trazado_170041-2" data-name="Trazado 170041" d="M58.761,51.734l-.831,1.05a2.461,2.461,0,0,1-.459.456,1.278,1.278,0,0,1-.539.223,1.706,1.706,0,0,1-1.373-.425,1.938,1.938,0,0,1-.813-1.274,1.222,1.222,0,0,1,.055-.559,2.122,2.122,0,0,1,.348-.579L56,49.548Zm-.791.155-1.942-1.538-.451.57a.931.931,0,0,0-.243.848,1.6,1.6,0,0,0,.585.766,1.346,1.346,0,0,0,.862.342,1.016,1.016,0,0,0,.762-.449Z" fill="#fff"/>
          <path id="Trazado_170042-2" data-name="Trazado 170042" d="M53.715,55.66a.883.883,0,1,1-.216-.638.844.844,0,0,1,.216.638" fill="#fff"/>
          <path id="Trazado_170043-2" data-name="Trazado 170043" d="M46.939,59.174a1.526,1.526,0,0,1-.131-1.127,1.5,1.5,0,0,1,.723-.879,1.525,1.525,0,0,1,1.286-.177,1.937,1.937,0,0,1,1.071.923,2.15,2.15,0,0,1,.3.887,1.667,1.667,0,0,1-1.8,1.781,1.289,1.289,0,0,1-.885-.513l.527-.313a.806.806,0,0,0,.509.276.9.9,0,0,0,.585-.137.912.912,0,0,0,.412-.474,1.074,1.074,0,0,0,.049-.6,1.876,1.876,0,0,0-.234-.594,1.927,1.927,0,0,0-.3-.387,1.521,1.521,0,0,0-.367-.268.872.872,0,0,0-.433-.1.965.965,0,0,0-.468.146.865.865,0,0,0-.315,1.233Z" fill="#fff"/>
          <path id="Trazado_170044-2" data-name="Trazado 170044" d="M44.557,62.6l-.2-.478,1.769-.752-.365-.86-1.643.7-.195-.459,1.642-.7-.406-.955-1.8.764-.207-.486,2.361-1.005,1.378,3.239Z" fill="#fff"/>
          <path id="Trazado_170045-2" data-name="Trazado 170045" d="M43.316,63.035l-1.605.445a1.447,1.447,0,0,1-.887,0,.848.848,0,0,1-.518-.628.945.945,0,0,1,0-.563.854.854,0,0,1,.328-.427.719.719,0,0,1-.238-.026.56.56,0,0,1-.175-.085.593.593,0,0,1-.131-.149,1.362,1.362,0,0,1-.1-.17c-.022-.051-.048-.118-.079-.2-.009-.021-.025-.063-.047-.125s-.037-.1-.045-.124-.02-.055-.039-.1-.033-.084-.042-.1-.022-.049-.041-.086-.035-.066-.047-.085l-.043-.065a.31.31,0,0,0-.053-.059.373.373,0,0,0-.057-.041l.638-.177a.276.276,0,0,1,.039.038.419.419,0,0,1,.037.051.5.5,0,0,1,.03.054c.008.016.019.039.032.068s.023.052.03.071l.031.084.031.084c.007.018.018.051.035.1s.027.079.032.1a.931.931,0,0,0,.332.521.821.821,0,0,0,.612,0l.791-.219-.388-1.4.591-.164Zm-.725-.322L42.3,61.651l-.786.217a1.936,1.936,0,0,0-.286.1A1.1,1.1,0,0,0,41,62.1a.381.381,0,0,0-.141.216.613.613,0,0,0,.017.308.588.588,0,0,0,.131.253.377.377,0,0,0,.209.114.84.84,0,0,0,.239.011,1.689,1.689,0,0,0,.27-.054Z" fill="#fff"/>
          <path id="Trazado_170046-2" data-name="Trazado 170046" d="M36.732,64.408l-.076-.529,1.111-.158-.422-2.956.612-.088.422,2.956,1.111-.159.076.529Z" fill="#fff"/>
          <rect id="Rectángulo_43595-2" data-name="Rectángulo 43595" width="0.623" height="3.52" transform="matrix(0.999, -0.052, 0.052, 0.999, 34.897, 60.975)" fill="#fff"/>
          <path id="Trazado_170047-2" data-name="Trazado 170047" d="M31.278,64.446l.019-.524,1.813.067.035-.959-1.59-.058.018-.5,1.591.058L33.22,61l.622.023-.128,3.517Z" fill="#fff"/>
          <rect id="Rectángulo_43596-2" data-name="Rectángulo 43596" width="3.52" height="0.623" transform="matrix(0.126, -0.992, 0.992, 0.126, 29.548, 64.231)" fill="#fff"/>
          <path id="Trazado_170048-2" data-name="Trazado 170048" d="M25.713,63.482l.113-.507,1.877.42.2-.912-1.742-.389.109-.487L28.016,62l.227-1.013-1.906-.426.115-.516,2.5.559-.768,3.435Z" fill="#fff"/>
          <path id="Trazado_170049-2" data-name="Trazado 170049" d="M24.439,63.111l-1.257-.464a2.446,2.446,0,0,1-.577-.295,1.273,1.273,0,0,1-.379-.443,1.7,1.7,0,0,1-.023-1.436,1.935,1.935,0,0,1,.959-1.169,1.218,1.218,0,0,1,.548-.122,2.134,2.134,0,0,1,.658.151l1.29.476Zm-.394-.7.858-2.324-.682-.251a.927.927,0,0,0-.882.033,1.6,1.6,0,0,0-.546.794,1.346,1.346,0,0,0-.057.925,1.019,1.019,0,0,0,.664.585Z" fill="#fff"/>
          <path id="Trazado_170050-2" data-name="Trazado 170050" d="M19.14,59.53a.882.882,0,1,1,.54-.4.851.851,0,0,1-.54.4" fill="#fff"/>
          <path id="Trazado_170051-2" data-name="Trazado 170051" d="M13.7,54.174a1.522,1.522,0,0,1,1.031-.473,1.5,1.5,0,0,1,1.06.415,1.529,1.529,0,0,1,.566,1.169,1.936,1.936,0,0,1-.547,1.3,2.14,2.14,0,0,1-.75.562,1.666,1.666,0,0,1-2.25-1.162,1.285,1.285,0,0,1,.214-1l.46.405a.808.808,0,0,0-.1.569,1,1,0,0,0,.89.759,1.07,1.07,0,0,0,.581-.137,1.905,1.905,0,0,0,.492-.407,1.953,1.953,0,0,0,.276-.4,1.536,1.536,0,0,0,.142-.431.871.871,0,0,0-.043-.442.962.962,0,0,0-.283-.4.865.865,0,0,0-1.27.082Z" fill="#fff"/>
          <path id="Trazado_170052-2" data-name="Trazado 170052" d="M9.709,52.973l.391-.342,1.265,1.449.7-.615-1.174-1.344.376-.328,1.174,1.344.782-.683-1.285-1.471.4-.348,1.688,1.933-2.652,2.315Z" fill="#fff"/>
          <path id="Trazado_170053-2" data-name="Trazado 170053" d="M8.91,51.931l-.923-1.387a1.445,1.445,0,0,1-.279-.842.848.848,0,0,1,.436-.688.939.939,0,0,1,.536-.173.849.849,0,0,1,.507.179.716.716,0,0,1-.049-.235.535.535,0,0,1,.026-.192.611.611,0,0,1,.1-.171,1.315,1.315,0,0,1,.132-.145c.041-.036.1-.082.167-.137.017-.016.052-.044.1-.084l.1-.081.088-.07c.041-.033.069-.057.085-.072l.069-.067a.884.884,0,0,0,.066-.07c.014-.017.03-.038.048-.062a.287.287,0,0,0,.04-.068.431.431,0,0,0,.021-.067l.367.551a.22.22,0,0,1-.024.049.409.409,0,0,1-.037.051c-.014.017-.028.032-.041.045l-.055.052c-.023.021-.043.038-.058.05l-.07.056-.07.055-.083.064-.083.062a.933.933,0,0,0-.392.477.82.82,0,0,0,.194.581l.454.683,1.21-.805.34.51Zm.08-.79.918-.611-.452-.679a1.9,1.9,0,0,0-.184-.24,1.132,1.132,0,0,0-.2-.168.379.379,0,0,0-.249-.066.621.621,0,0,0-.288.111.583.583,0,0,0-.2.205.374.374,0,0,0-.044.233.842.842,0,0,0,.065.231,1.694,1.694,0,0,0,.135.239Z" fill="#fff"/>
          <path id="Trazado_170054-2" data-name="Trazado 170054" d="M5.553,46.109l.479-.237.5,1.006,2.677-1.325.274.554L6.8,47.432l.5,1.005-.478.237Z" fill="#fff"/>
          <rect id="Rectángulo_43597-2" data-name="Rectángulo 43597" width="3.52" height="0.623" transform="translate(4.958 44.558) rotate(-21.133)" fill="#fff"/>
          <path id="Trazado_170055-2" data-name="Trazado 170055" d="M3.819,40.924l.5-.144.5,1.745.922-.263-.437-1.531.48-.137.437,1.531L7.7,41.7l.171.6-3.385.966Z" fill="#fff"/>
          <rect id="Rectángulo_43598-2" data-name="Rectángulo 43598" width="3.52" height="0.623" transform="translate(3.49 39.21) rotate(-10.723)" fill="#fff"/>
          <path id="Trazado_170056-2" data-name="Trazado 170056" d="M3.02,35.334l.517-.048.18,1.914.93-.087L4.48,35.336l.5-.047.167,1.777,1.034-.1L6,35.025l.527-.05.24,2.555-3.505.329Z" fill="#fff"/>
          <path id="Trazado_170057-2" data-name="Trazado 170057" d="M2.979,34.014l.05-1.339a2.417,2.417,0,0,1,.1-.639,1.259,1.259,0,0,1,.3-.5,1.7,1.7,0,0,1,1.358-.469,1.932,1.932,0,0,1,1.409.547,1.226,1.226,0,0,1,.287.483,2.155,2.155,0,0,1,.061.673L6.5,34.145Zm.547-.593L6,33.513l.027-.726a.932.932,0,0,0-.3-.828,1.607,1.607,0,0,0-.925-.272,1.343,1.343,0,0,0-.9.234,1.014,1.014,0,0,0-.349.813Z" fill="#fff"/>
          <path id="Trazado_170058-2" data-name="Trazado 170058" d="M4.727,27.87a.879.879,0,0,1,.936-1.33.88.88,0,1,1-.936,1.33" fill="#fff"/>
          <path id="Trazado_170059-2" data-name="Trazado 170059" d="M8.128,21.029a1.521,1.521,0,0,1,.769.833A1.5,1.5,0,0,1,8.832,23a1.526,1.526,0,0,1-.936.9,1.935,1.935,0,0,1-1.408-.115,2.128,2.128,0,0,1-.767-.539,1.6,1.6,0,0,1-.385-.794,1.613,1.613,0,0,1,.123-.932,1.589,1.589,0,0,1,.668-.773,1.288,1.288,0,0,1,1.017-.107L6.9,21.2a.806.806,0,0,0-.573.077.9.9,0,0,0-.392.456.917.917,0,0,0-.054.625,1.076,1.076,0,0,0,.311.51,1.915,1.915,0,0,0,.54.342,1.954,1.954,0,0,0,.468.137,1.536,1.536,0,0,0,.454,0,.87.87,0,0,0,.407-.178.97.97,0,0,0,.293-.394A.865.865,0,0,0,7.884,21.6Z" fill="#fff"/>
          <path id="Trazado_170060-2" data-name="Trazado 170060" d="M8.035,16.858l.446.266-.987,1.651.8.479.915-1.532.429.256L8.724,19.51l.892.533,1-1.677.454.272-1.316,2.2L6.734,19.035Z" fill="#fff"/>
          <path id="Trazado_170061-2" data-name="Trazado 170061" d="M8.776,15.78l1.033-1.307a1.448,1.448,0,0,1,.714-.525.85.85,0,0,1,.79.2.923.923,0,0,1,.329.456.849.849,0,0,1-.012.538.686.686,0,0,1,.207-.119.528.528,0,0,1,.191-.035.6.6,0,0,1,.194.042,1.278,1.278,0,0,1,.179.082c.047.027.108.066.181.115.02.012.059.037.114.074l.108.073.094.061c.043.029.076.049.1.06l.083.044c.039.019.068.033.089.041l.073.027a.355.355,0,0,0,.078.017.316.316,0,0,0,.069,0l-.411.52a.264.264,0,0,1-.052-.008.362.362,0,0,1-.061-.02.358.358,0,0,1-.055-.025.584.584,0,0,1-.066-.036c-.028-.016-.051-.029-.066-.04l-.075-.049-.075-.049-.085-.059c-.041-.028-.069-.048-.085-.061a.932.932,0,0,0-.576-.224.821.821,0,0,0-.493.363l-.509.644,1.141.9-.381.481Zm.776-.168.865.684.505-.64a1.922,1.922,0,0,0,.172-.249,1.232,1.232,0,0,0,.1-.24.4.4,0,0,0-.014-.257.627.627,0,0,0-.2-.24.592.592,0,0,0-.256-.126.376.376,0,0,0-.236.031.851.851,0,0,0-.2.132,1.667,1.667,0,0,0-.186.2Z" fill="#fff"/>
          <path id="Trazado_170062-2" data-name="Trazado 170062" d="M13.278,10.782l.373.382-.8.785,2.089,2.134-.442.432-2.088-2.134-.8.785-.374-.382Z" fill="#fff"/>
          <rect id="Rectángulo_43599-2" data-name="Rectángulo 43599" width="0.623" height="3.52" transform="matrix(0.774, -0.633, 0.633, 0.774, 14.079, 10.132)" fill="#fff"/>
          <path id="Trazado_170063-2" data-name="Trazado 170063" d="M17.654,7.528l.294.434-1.5,1.017.538.794L18.3,8.881l.28.413-1.318.893.862,1.273-.516.349L15.636,8.894Z" fill="#fff"/>
          <rect id="Rectángulo_43600-2" data-name="Rectángulo 43600" width="0.623" height="3.52" transform="translate(18.636 6.98) rotate(-28.917)" fill="#fff"/>
          <path id="Trazado_170064-2" data-name="Trazado 170064" d="M22.718,5.023l.207.476-1.762.768.373.857,1.636-.713.2.458-1.636.713.415.951,1.79-.78.212.485L21.8,9.263,20.393,6.036Z" fill="#fff"/>
          <path id="Trazado_170065-2" data-name="Trazado 170065" d="M23.964,4.571,25.252,4.2a2.4,2.4,0,0,1,.639-.1,1.255,1.255,0,0,1,.568.134,1.7,1.7,0,0,1,.866,1.146,1.93,1.93,0,0,1-.084,1.509,1.234,1.234,0,0,1-.37.422,2.149,2.149,0,0,1-.621.267l-1.322.376Zm.733.336.679,2.382.7-.2a.931.931,0,0,0,.693-.547,1.6,1.6,0,0,0-.028-.963,1.342,1.342,0,0,0-.5-.781,1.015,1.015,0,0,0-.881-.08Z" fill="#fff"/>
          <path id="Trazado_170066-2" data-name="Trazado 170066" d="M30.351,4.335a.881.881,0,0,1,1.357,1.124.881.881,0,0,1-1.357-1.124" fill="#fff"/>
          <path id="Trazado_170067-2" data-name="Trazado 170067" d="M51.052,18.614c-.333-.375-.674-.742-1.028-1.1h0a22.948,22.948,0,0,0-32.513,0h0c-.354.354-.7.721-1.024,1.1a22.941,22.941,0,0,0,0,30.3c.327.375.67.741,1.024,1.095h0a22.953,22.953,0,0,0,32.517,0c.354-.354.7-.72,1.028-1.095a22.959,22.959,0,0,0,0-30.3M28.72,12.872a19.14,19.14,0,0,0-4.969,8.353,33.228,33.228,0,0,1-4.993-2.83,21.451,21.451,0,0,1,9.962-5.523M18.758,49.128A33.635,33.635,0,0,1,23.751,46.3a19.15,19.15,0,0,0,4.969,8.354,21.459,21.459,0,0,1-9.962-5.528m20.956-4.3H18.669V37.521H48.858v7.308H39.714ZM25.2,45.692l.04-.015h7.775v9.517C29.8,54.689,26.946,51,25.2,45.692m9.322,9.5h0V45.677h7.775l.04.015c-1.751,5.309-4.608,9-7.813,9.5m4.29-.538A19.1,19.1,0,0,0,43.773,46.3a33.712,33.712,0,0,1,5,2.83,21.421,21.421,0,0,1-9.964,5.528m11-6.62a36.562,36.562,0,0,0-3.951-2.359h3.845v-9H45.545c.024-.354.041-.712.055-1.073a9.457,9.457,0,0,1-1.519.255c-.013.273-.03.546-.049.818H34.517V34.841a6.518,6.518,0,0,1-1.5.683v1.149H23.5q-.038-.531-.059-1.073h-1.51c.013.361.032.719.053,1.073H17.821v9h3.851a36.436,36.436,0,0,0-3.957,2.359,21.364,21.364,0,0,1-5.426-13.521H16.6V33.01H12.289a21.364,21.364,0,0,1,5.426-13.523q1.5,1.028,3.007,1.857h4.642c1.76-5.045,4.539-8.521,7.648-9.011v9.034a7.112,7.112,0,0,1,1.5.638V12.333h0c3.059.481,5.8,3.862,7.565,8.786a10.111,10.111,0,0,1,1.055-.053c.2,0,.393,0,.585.015a18.991,18.991,0,0,0-4.915-8.209A21.447,21.447,0,0,1,48.773,18.4,33.868,33.868,0,0,1,44.04,21.1a8.985,8.985,0,0,1,2.313.49,37.655,37.655,0,0,0,3.463-2.1A21.4,21.4,0,0,1,55.24,33.01H49.564a6.471,6.471,0,0,1-1.543,1.505H55.24a21.371,21.371,0,0,1-5.428,13.521" fill="#39b54a"/>
          <path id="Trazado_170068-2" data-name="Trazado 170068" d="M36.7,33.01h-.465a4.45,4.45,0,0,1-1.255,1.505h3.266A6.484,6.484,0,0,1,36.7,33.01" fill="#39b54a"/>
          <path id="Trazado_170069-2" data-name="Trazado 170069" d="M17.662,22.4v2.688h1.42v6.744h-1.42v2.7h6.31v-2.7H22.533V25.091h1.439V22.4h-6.31Z" fill="#39b54a"/>
          <path id="Trazado_170070-2" data-name="Trazado 170070" d="M35.653,30.916c0-.025,0-.053,0-.078A3.534,3.534,0,0,0,35.39,29.5v0a3.022,3.022,0,0,0-.873-1.172,4.755,4.755,0,0,0-1.5-.81,10.545,10.545,0,0,0-2.317-.466c-1.214-.121-2.047-.348-2.047-1.162s1.04-1.023,1.683-1.023a5.521,5.521,0,0,1,1.543.19l.053,1.406H34.89V23.529l-.066-.051c-.1-.08-.205-.154-.307-.224a6.354,6.354,0,0,0-1.5-.776,7.938,7.938,0,0,0-2.681-.405,7.03,7.03,0,0,0-2.769.555,4.381,4.381,0,0,0-1.511,1.054,3.2,3.2,0,0,0-.835,2.206c0,3,2.514,3.695,4.977,3.919,1.333.138,2.045.452,2.045,1.041,0,.693-.78,1.092-1.924,1.092a5.892,5.892,0,0,1-2.082-.382l-.051-1.405H25.216v3.035c.093.079.187.155.282.227l.14.106c.095.068.188.134.284.2s.191.123.286.18a6.4,6.4,0,0,0,1.378.617h0c.18.057.36.108.547.148a.235.235,0,0,0,.057.013c.085.019.17.036.254.051a.541.541,0,0,0,.058.011c.091.017.182.031.275.042.125.019.252.034.382.047.1.008.193.017.292.021a.3.3,0,0,0,.043,0c.1.008.207.013.313.017s.244,0,.369,0H30.3a8.219,8.219,0,0,0,2.4-.356,4.5,4.5,0,0,0,2.289-1.505,3.4,3.4,0,0,0,.666-2.094" fill="#39b54a"/>
          <path id="Trazado_170071-2" data-name="Trazado 170071" d="M49.867,28.472A5.87,5.87,0,0,0,44.939,22.3a8.994,8.994,0,0,0-1.8-.174,6.639,6.639,0,0,0-5.6,2.516,6.4,6.4,0,0,0-1.145,3.83c0,.269.013.53.036.782a6.954,6.954,0,0,0,.276,1.412A5.55,5.55,0,0,0,38.1,33.01a6.055,6.055,0,0,0,2.637,1.505,8.665,8.665,0,0,0,2.4.32,9.776,9.776,0,0,0,.981-.049,6.537,6.537,0,0,0,4.055-1.776,6.2,6.2,0,0,0,1.691-4.538m-4.313,2.465a2.988,2.988,0,0,1-1.467.852,3.762,3.762,0,0,1-.947.117,3.231,3.231,0,0,1-3.313-3.434,3.224,3.224,0,0,1,3.313-3.417c.023,0,.049,0,.072,0a3.5,3.5,0,0,1,1.655.407,3.233,3.233,0,0,1,1.567,3.008,3.541,3.541,0,0,1-.88,2.465" fill="#39b54a"/>
          <path id="Trazado_170072-2" data-name="Trazado 170072" d="M25.7,38.944v4.444H24.446V39.915h-.825v-.971Z" fill="#39b54a"/>
          <path id="Trazado_170073-2" data-name="Trazado 170073" d="M31.2,42.538h-.66v.851H29.309v-.851H26.96v-.819l1.994-2.774h1.3l-1.809,2.6h.9v-.755h1.188v.755h.66Z" fill="#39b54a"/>
          <path id="Trazado_170074-2" data-name="Trazado 170074" d="M33.03,43.2a1.83,1.83,0,0,1-.695-.8,3.2,3.2,0,0,1,0-2.483,1.838,1.838,0,0,1,.695-.8,2.016,2.016,0,0,1,2.026,0,1.838,1.838,0,0,1,.695.8,3.2,3.2,0,0,1,0,2.483,1.83,1.83,0,0,1-.695.8,2.016,2.016,0,0,1-2.026,0m1.521-1.063a2.633,2.633,0,0,0,0-1.949.573.573,0,0,0-1.016,0,2.633,2.633,0,0,0,0,1.949.573.573,0,0,0,1.016,0" fill="#39b54a"/>
          <path id="Trazado_170075-2" data-name="Trazado 170075" d="M38.013,43.2a1.83,1.83,0,0,1-.695-.8,3.2,3.2,0,0,1,0-2.483,1.838,1.838,0,0,1,.695-.8,2.016,2.016,0,0,1,2.026,0,1.838,1.838,0,0,1,.695.8,3.2,3.2,0,0,1,0,2.483,1.83,1.83,0,0,1-.695.8,2.016,2.016,0,0,1-2.026,0m1.521-1.063a2.633,2.633,0,0,0,0-1.949.573.573,0,0,0-1.016,0,2.633,2.633,0,0,0,0,1.949.573.573,0,0,0,1.016,0" fill="#39b54a"/>
          <path id="Trazado_170076-2" data-name="Trazado 170076" d="M43.906,38.944v4.444H42.649V39.915h-.825v-.971Z" fill="#39b54a"/>
        </g>
      </g>
    </g>
  </g>
</svg>
