<svg id="AdornoTitulo" xmlns="http://www.w3.org/2000/svg" width="23.928" height="18.928" viewBox="0 0 23.928 18.928">
  <path id="Trazado_161553" data-name="Trazado 161553" d="M2075.992,385.87a27.91,27.91,0,0,1-5.979,5.856,5.322,5.322,0,0,1-5.538-.058,27.9,27.9,0,0,1-5.856-5.979,5.322,5.322,0,0,1,.058-5.538,27.9,27.9,0,0,1,5.979-5.856,5.322,5.322,0,0,1,5.538.058,27.9,27.9,0,0,1,5.856,5.979A5.322,5.322,0,0,1,2075.992,385.87Z" transform="translate(-2052.87 -373.547)" fill="#c6c8e9"/>
  <path id="Trazado_161554" data-name="Trazado 161554" d="M2075.992,385.87a27.91,27.91,0,0,1-5.979,5.856,5.322,5.322,0,0,1-5.538-.058,27.9,27.9,0,0,1-5.856-5.979,5.322,5.322,0,0,1,.058-5.538,27.9,27.9,0,0,1,5.979-5.856,5.322,5.322,0,0,1,5.538.058,27.9,27.9,0,0,1,5.856,5.979A5.322,5.322,0,0,1,2075.992,385.87Z" transform="translate(-2057.87 -373.547)" fill="#242ca3"/>
</svg>
