<svg xmlns="http://www.w3.org/2000/svg" xmlns:xlink="http://www.w3.org/1999/xlink" width="124" height="124" viewBox="0 0 124 124">
  <defs>
    <clipPath id="clip-path">
      <rect id="Rectángulo_43303" data-name="Rectángulo 43303" width="86.929" height="74.227" fill="none"/>
    </clipPath>
  </defs>
  <g id="Grupo_119253" data-name="Grupo 119253" transform="translate(-582 -3382)">
    <g id="Elipse_6766" data-name="Elipse 6766" transform="translate(582 3382)" fill="#fff" stroke="#2631a0" stroke-width="4">
      <circle cx="62" cy="62" r="62" stroke="none"/>
      <circle cx="62" cy="62" r="60" fill="none"/>
    </g>
    <g id="Grupo_118761" data-name="Grupo 118761" transform="translate(600 3404.404)">
      <g id="Grupo_118760" data-name="Grupo 118760" transform="translate(0 0)" clip-path="url(#clip-path)">
        <path id="Trazado_167977" data-name="Trazado 167977" d="M90.983,59.74a10.684,10.684,0,1,1-4.676-1.073,10.679,10.679,0,0,1,4.676,1.073" transform="translate(-11.246 -8.723)" fill="#c6c8e9"/>
        <path id="Trazado_167978" data-name="Trazado 167978" d="M84.038,10.67V51.226A10.68,10.68,0,0,0,69.959,65.885H41.982a5.521,5.521,0,0,0-4.7-3.114H32.71a12.95,12.95,0,0,1-2.642-14.459,8.2,8.2,0,0,0-.988-12.159V1.4H74.112V10.67ZM44.693,51.226H38.074v6.619h6.619Zm0-13.652H38.074v6.619h6.619Zm0-6.83V24.119H38.074v6.619h6.619Zm0-13.448V10.67H38.074v6.619Z" transform="translate(-4.302 -0.209)" fill="#fff"/>
        <path id="Trazado_167979" data-name="Trazado 167979" d="M91.929,10.67H82V1.4Z" transform="translate(-12.193 -0.208)" fill="#ceccc6"/>
        <rect id="Rectángulo_43298" data-name="Rectángulo 43298" width="6.619" height="6.619" transform="translate(33.772 51.017)" fill="#ff2f6d"/>
        <rect id="Rectángulo_43299" data-name="Rectángulo 43299" width="6.619" height="6.619" transform="translate(33.772 37.359)" fill="#ff2f6d"/>
        <rect id="Rectángulo_43300" data-name="Rectángulo 43300" width="6.619" height="6.619" transform="translate(33.772 23.91)" fill="#ff2f6d"/>
        <rect id="Rectángulo_43301" data-name="Rectángulo 43301" width="6.619" height="6.619" transform="translate(33.772 10.462)" fill="#ff2f6d"/>
        <path id="Trazado_167980" data-name="Trazado 167980" d="M37.889,76.6a6.222,6.222,0,0,1,.75,2.909H1.4c0-3.011,2.443-6.022,5.454-6.022H33.19a5.529,5.529,0,0,1,4.7,3.113" transform="translate(-0.208 -10.927)" fill="#febf10"/>
        <rect id="Rectángulo_43302" data-name="Rectángulo 43302" width="30.76" height="4.454" transform="translate(4.432 68.579)" fill="#febf10"/>
        <path id="Trazado_167981" data-name="Trazado 167981" d="M30.368,70.964H13.181a12.949,12.949,0,0,0,2.642-14.459,8.2,8.2,0,0,0,11.909,0,12.94,12.94,0,0,0,2.636,14.459" transform="translate(-1.96 -8.402)" fill="#febf10"/>
        <path id="Trazado_167982" data-name="Trazado 167982" d="M27.795,54.087a8.21,8.21,0,1,1,2.239-5.642,8.168,8.168,0,0,1-2.239,5.642" transform="translate(-2.029 -5.985)" fill="#febf10"/>
        <path id="Trazado_167983" data-name="Trazado 167983" d="M46.081,51.495H39.463A1.193,1.193,0,0,1,38.269,50.3V43.683a1.193,1.193,0,0,1,1.194-1.194h6.619a1.193,1.193,0,0,1,1.193,1.194V50.3a1.193,1.193,0,0,1-1.193,1.194m-5.426-2.387h4.233V44.875H40.655Z" transform="translate(-5.691 -6.318)"/>
        <path id="Trazado_167984" data-name="Trazado 167984" d="M78.535,46.61h-24.9a1.193,1.193,0,0,1,0-2.386h24.9a1.193,1.193,0,1,1,0,2.386" transform="translate(-7.799 -6.576)"/>
        <path id="Trazado_167985" data-name="Trazado 167985" d="M78.535,50.908h-24.9a1.193,1.193,0,0,1,0-2.386h24.9a1.193,1.193,0,1,1,0,2.386" transform="translate(-7.799 -7.215)"/>
        <path id="Trazado_167986" data-name="Trazado 167986" d="M46.081,35.7H39.463A1.193,1.193,0,0,1,38.269,34.5V27.879a1.193,1.193,0,0,1,1.194-1.194h6.619a1.193,1.193,0,0,1,1.193,1.194V34.5a1.194,1.194,0,0,1-1.193,1.2M40.655,33.31h4.233V29.077H40.655Z" transform="translate(-5.691 -3.968)"/>
        <path id="Trazado_167987" data-name="Trazado 167987" d="M78.535,30.813h-24.9a1.193,1.193,0,0,1,0-2.386h24.9a1.193,1.193,0,1,1,0,2.386" transform="translate(-7.799 -4.227)"/>
        <path id="Trazado_167988" data-name="Trazado 167988" d="M78.535,35.111h-24.9a1.193,1.193,0,0,1,0-2.386h24.9a1.193,1.193,0,1,1,0,2.386" transform="translate(-7.799 -4.866)"/>
        <path id="Trazado_167989" data-name="Trazado 167989" d="M46.081,19.9H39.463a1.193,1.193,0,0,1-1.194-1.194V12.081a1.193,1.193,0,0,1,1.194-1.193h6.619a1.192,1.192,0,0,1,1.193,1.193V18.7a1.194,1.194,0,0,1-1.193,1.2m-5.426-2.387h4.233V13.279H40.655Z" transform="translate(-5.691 -1.619)"/>
        <path id="Trazado_167990" data-name="Trazado 167990" d="M69.154,15.015H53.638a1.193,1.193,0,0,1,0-2.386H69.154a1.193,1.193,0,1,1,0,2.386" transform="translate(-7.799 -1.878)"/>
        <path id="Trazado_167991" data-name="Trazado 167991" d="M71.887,19.313H53.638a1.193,1.193,0,1,1,0-2.386H71.887a1.193,1.193,0,1,1,0,2.386" transform="translate(-7.798 -2.517)"/>
        <path id="Trazado_167992" data-name="Trazado 167992" d="M46.081,67.532H39.463a1.193,1.193,0,0,1-1.194-1.193V59.72a1.193,1.193,0,0,1,1.194-1.193h6.619a1.192,1.192,0,0,1,1.193,1.193v6.62a1.192,1.192,0,0,1-1.193,1.193m-5.426-2.386h4.233V60.913H40.655Z" transform="translate(-5.691 -8.703)"/>
        <path id="Trazado_167993" data-name="Trazado 167993" d="M63.706,62.655H53.639a1.193,1.193,0,1,1,0-2.386H63.706a1.193,1.193,0,1,1,0,2.386" transform="translate(-7.799 -8.962)"/>
        <path id="Trazado_167994" data-name="Trazado 167994" d="M66.439,66.946h-12.8a1.193,1.193,0,0,1,0-2.386h12.8a1.193,1.193,0,1,1,0,2.386" transform="translate(-7.799 -9.6)"/>
        <path id="Trazado_167995" data-name="Trazado 167995" d="M28.891,37.126A1.193,1.193,0,0,1,27.7,35.932V1.195A1.193,1.193,0,0,1,28.891,0H73.924a1.193,1.193,0,0,1,0,2.386H30.084V35.932a1.193,1.193,0,0,1-1.194,1.194" transform="translate(-4.119 0)"/>
        <path id="Trazado_167996" data-name="Trazado 167996" d="M72.069,78.132H44.314a1.193,1.193,0,0,1,0-2.386H72.069a1.193,1.193,0,1,1,0,2.386" transform="translate(-6.412 -11.263)"/>
        <path id="Trazado_167997" data-name="Trazado 167997" d="M91.721,11.654H81.789A1.192,1.192,0,0,1,80.6,10.462V1.194A1.192,1.192,0,0,1,82.6.319l9.931,9.267a1.195,1.195,0,0,1-.812,2.068ZM82.982,9.268h5.71l-5.71-5.329Z" transform="translate(-11.985 0)"/>
        <path id="Trazado_167998" data-name="Trazado 167998" d="M93.456,53.829a1.193,1.193,0,0,1-1.194-1.194V12.081a1.194,1.194,0,1,1,2.387,0V52.636a1.193,1.193,0,0,1-1.194,1.194" transform="translate(-13.719 -1.619)"/>
        <path id="Trazado_167999" data-name="Trazado 167999" d="M86.1,81A11.869,11.869,0,1,1,97.967,69.127,11.881,11.881,0,0,1,86.1,81m0-21.346a9.483,9.483,0,1,0,9.483,9.483A9.5,9.5,0,0,0,86.1,59.65" transform="translate(-11.038 -8.514)"/>
        <path id="Trazado_168000" data-name="Trazado 168000" d="M84.66,75.448a1.169,1.169,0,0,1-.841-.352l-3.244-3.244a1.193,1.193,0,0,1,1.688-1.687l2.4,2.4L91.723,65.5a1.193,1.193,0,0,1,1.687,1.687l-7.9,7.9A1.174,1.174,0,0,1,84.66,75.448Z" transform="translate(-11.929 -9.687)"/>
        <path id="Trazado_168001" data-name="Trazado 168001" d="M35.758,86H5A1.193,1.193,0,0,1,3.8,84.8V80.35a1.193,1.193,0,1,1,2.386,0v3.261H34.564V80.35a1.194,1.194,0,0,1,2.387,0V84.8A1.193,1.193,0,0,1,35.758,86" transform="translate(-0.566 -11.77)"/>
        <path id="Trazado_168002" data-name="Trazado 168002" d="M38.43,80.5H1.194A1.193,1.193,0,0,1,0,79.3a7.6,7.6,0,0,1,1.892-4.926,6.3,6.3,0,0,1,4.756-2.289H32.982a6.312,6.312,0,0,1,4.755,2.289A7.6,7.6,0,0,1,39.63,79.3a1.2,1.2,0,0,1-1.2,1.193M2.545,78.111H37.084c-.495-1.892-2.086-3.636-4.1-3.636H6.648a4.577,4.577,0,0,0-4.1,3.636" transform="translate(0 -10.719)"/>
        <path id="Trazado_168003" data-name="Trazado 168003" d="M32.5,71.949a1.194,1.194,0,0,1-.846-.352,14.146,14.146,0,0,1-2.881-15.789,1.194,1.194,0,1,1,2.176.983,11.824,11.824,0,0,0,2.4,13.13,1.188,1.188,0,0,1-.005,1.688,1.233,1.233,0,0,1-.841.341" transform="translate(-4.093 -8.194)"/>
        <path id="Trazado_168004" data-name="Trazado 168004" d="M12.973,71.948a1.178,1.178,0,0,1-.841-.346,1.2,1.2,0,0,1-.005-1.687,11.834,11.834,0,0,0,2.4-13.13A1.194,1.194,0,0,1,16.7,55.8a14.147,14.147,0,0,1-2.881,15.79A1.189,1.189,0,0,1,12.973,71.948Z" transform="translate(-1.752 -8.193)"/>
        <path id="Trazado_168005" data-name="Trazado 168005" d="M21.632,57.622a9.392,9.392,0,1,1,9.392-9.386,9.4,9.4,0,0,1-9.392,9.386m0-16.392a7.005,7.005,0,1,0,7.005,7.005,7.013,7.013,0,0,0-7.005-7.005" transform="translate(-1.82 -5.775)"/>
      </g>
    </g>
  </g>
</svg>
