<svg id="Grupo_118923" data-name="Grupo 118923" xmlns="http://www.w3.org/2000/svg" xmlns:xlink="http://www.w3.org/1999/xlink" width="224.5" height="220.652" viewBox="0 0 224.5 220.652">
  <defs>
    <clipPath id="clip-path">
      <rect id="Rectángulo_43493" data-name="Rectángulo 43493" width="224.5" height="220.652" fill="none"/>
    </clipPath>
    <clipPath id="clip-path-3">
      <rect id="Rectángulo_43486" data-name="Rectángulo 43486" width="13.666" height="13.797" fill="none"/>
    </clipPath>
    <clipPath id="clip-path-4">
      <rect id="Rectángulo_43487" data-name="Rectángulo 43487" width="1.734" height="1.734" fill="none"/>
    </clipPath>
    <clipPath id="clip-path-5">
      <rect id="Rectángulo_43488" data-name="Rectángulo 43488" width="1.445" height="1.442" fill="none"/>
    </clipPath>
    <clipPath id="clip-path-6">
      <rect id="Rectángulo_43489" data-name="Rectángulo 43489" width="18.564" height="1.505" fill="none"/>
    </clipPath>
    <clipPath id="clip-path-7">
      <rect id="Rectángulo_43490" data-name="Rectángulo 43490" width="9.19" height="1.855" fill="none"/>
    </clipPath>
    <clipPath id="clip-path-8">
      <rect id="Rectángulo_43491" data-name="Rectángulo 43491" width="7.155" height="22.788" fill="none"/>
    </clipPath>
  </defs>
  <g id="Grupo_118922" data-name="Grupo 118922" clip-path="url(#clip-path)">
    <g id="Grupo_118921" data-name="Grupo 118921">
      <g id="Grupo_118920" data-name="Grupo 118920" clip-path="url(#clip-path)">
        <path id="Trazado_169123" data-name="Trazado 169123" d="M90.587,144.844a9.292,9.292,0,0,1,2.269-.986l.467-2.246,3.794-.067.547,2.228a9.278,9.278,0,0,1,2.3.906l1.917-1.257,2.731,2.636-1.189,1.96a9.288,9.288,0,0,1,.986,2.27l2.246.467.067,3.794-2.228.547a9.321,9.321,0,0,1-.906,2.3l1.257,1.918-2.636,2.73-1.961-1.188a9.3,9.3,0,0,1-2.269.986l-.467,2.246-3.794.066-.547-2.228a9.313,9.313,0,0,1-2.3-.906l-1.918,1.257-2.73-2.636,1.188-1.96a9.286,9.286,0,0,1-.986-2.269l-2.246-.468-.067-3.794,2.228-.546a9.3,9.3,0,0,1,.906-2.3l-1.257-1.918,2.636-2.73ZM92.61,149.9a4.071,4.071,0,1,0,5.757-.1,4.071,4.071,0,0,0-5.757.1" transform="translate(-43.179 -72.661)" fill="#4c53b5"/>
        <path id="Trazado_169124" data-name="Trazado 169124" d="M100.291,157.321a3.066,3.066,0,0,1,.758-.665,4.054,4.054,0,0,1,2.656-.628,4.1,4.1,0,0,1,1.805.641,4.172,4.172,0,0,1,1.459,1.645,4.174,4.174,0,0,1,.393,2.4,4.154,4.154,0,0,1-3.436,3.56,4.178,4.178,0,0,1-2.409-.309,4.165,4.165,0,0,1-1.7-1.4,4.1,4.1,0,0,1-.7-1.782,4.051,4.051,0,0,1,.534-2.677,3.076,3.076,0,0,1,.638-.781c.022.018-.246.267-.56.826a4.061,4.061,0,0,0-.45,2.607,3.979,3.979,0,0,0,2.324,3.011,3.985,3.985,0,0,0,2.283.28,3.945,3.945,0,0,0,3.248-3.365,3.985,3.985,0,0,0-.36-2.271,3.977,3.977,0,0,0-3.091-2.217,4.058,4.058,0,0,0-2.589.542c-.547.333-.786.609-.806.588" transform="translate(-50.86 -80.084)" fill="#e1e1e1"/>
        <path id="Trazado_169125" data-name="Trazado 169125" d="M90.5,144.77a.842.842,0,0,1-.127-.067L90,144.485l-1.477-.873.046-.006-2.62,2.746.007-.073,1.265,1.913.023.035-.02.037a9.3,9.3,0,0,0-.891,2.287l-.011.045-.045.011-2.226.552.063-.082c.024,1.195.049,2.462.075,3.794l-.073-.088,2.246.463.057.012.016.056a9.249,9.249,0,0,0,.98,2.243l.032.052-.032.052-1.186,1.962-.017-.128,2.734,2.632-.135-.013,1.917-1.259.056-.037.058.033a9.249,9.249,0,0,0,2.275.893l.067.016.016.067c.172.7.359,1.459.547,2.227l-.113-.087,3.794-.069-.111.092c.147-.71.307-1.475.467-2.246l.014-.069.068-.019a9.229,9.229,0,0,0,2.239-.973h0l.061-.036.06.036,1.961,1.189-.145.018,2.637-2.73-.014.144-1.256-1.918-.038-.058.034-.06a9.207,9.207,0,0,0,.9-2.274l.017-.067.066-.016,2.228-.545-.085.11-.063-3.794.085.1-2.245-.47-.062-.013-.017-.061a9.215,9.215,0,0,0-.972-2.245l-.032-.053.032-.052,1.192-1.958.016.12-2.725-2.641.111.01-1.921,1.252-.043.028-.044-.025a9.273,9.273,0,0,0-2.28-.9l-.045-.011-.011-.045c-.2-.81-.372-1.54-.539-2.229l.069.053-3.795.05.05-.041-.482,2.243,0,.022-.021.006a9.635,9.635,0,0,0-1.735.668l-.408.213a.889.889,0,0,1-.136.069,1.206,1.206,0,0,1,.127-.086c.087-.054.218-.133.4-.231a9.006,9.006,0,0,1,1.732-.705l-.026.028.453-2.249.008-.041h.042l3.794-.083h.055l.014.054.553,2.226-.056-.056a9.389,9.389,0,0,1,2.325.907l-.087,0,1.915-1.261.06-.039.052.05,2.735,2.631.055.054-.04.067L103.424,148v-.1a9.415,9.415,0,0,1,1,2.293l-.079-.074,2.246.465.084.018v.086q.034,1.85.071,3.794v.089l-.086.021-2.227.548.083-.083a9.406,9.406,0,0,1-.915,2.331l0-.118,1.258,1.917.051.077-.064.067-2.635,2.731-.065.067-.079-.048-1.961-1.188h.119a9.435,9.435,0,0,1-2.3,1l.082-.088c-.161.771-.32,1.536-.468,2.245l-.019.091h-.092l-3.795.065-.091,0-.022-.089c-.188-.769-.374-1.53-.545-2.228l.083.083a9.429,9.429,0,0,1-2.329-.918l.114,0L88.925,162.3l-.073.048-.063-.06-2.727-2.64-.06-.058.043-.071,1.191-1.958v.1a9.421,9.421,0,0,1-.993-2.3l.073.068-2.245-.472L84,154.947v-.073c-.02-1.332-.039-2.6-.058-3.795v-.066l.065-.016,2.229-.54-.056.056a9.385,9.385,0,0,1,.92-2.317l0,.071-1.249-1.923-.026-.04.033-.034,2.652-2.715.021-.021.025.016,1.444.9.372.236a1.116,1.116,0,0,1,.126.086" transform="translate(-43.091 -72.587)" fill="#e1e1e1"/>
        <path id="Trazado_169126" data-name="Trazado 169126" d="M322.24,201.59A5.581,5.581,0,0,1,323.6,201l.28-1.344,2.271-.04.327,1.333a5.566,5.566,0,0,1,1.378.542l1.148-.752,1.634,1.578-.711,1.173a5.572,5.572,0,0,1,.59,1.359l1.344.279.04,2.272-1.333.327a5.554,5.554,0,0,1-.542,1.378l.752,1.148-1.578,1.635-1.173-.711a5.568,5.568,0,0,1-1.358.59l-.28,1.345-2.272.04-.327-1.334a5.555,5.555,0,0,1-1.378-.542l-1.148.753-1.635-1.578.712-1.174a5.563,5.563,0,0,1-.591-1.358l-1.344-.28-.04-2.271,1.334-.327a5.565,5.565,0,0,1,.542-1.378l-.752-1.148,1.578-1.634Zm1.211,3.026a2.437,2.437,0,1,0,3.446-.061,2.437,2.437,0,0,0-3.446.061" transform="translate(-163.431 -102.472)" fill="#4c53b5"/>
        <path id="Trazado_169127" data-name="Trazado 169127" d="M328.049,209.059a1.844,1.844,0,0,1,.454-.4,2.426,2.426,0,0,1,1.59-.376,2.459,2.459,0,0,1,1.081.384,2.5,2.5,0,0,1,.874.984,2.5,2.5,0,0,1,.236,1.434,2.485,2.485,0,0,1-2.057,2.131,2.5,2.5,0,0,1-1.442-.185,2.493,2.493,0,0,1-1.015-.839,2.456,2.456,0,0,1-.421-1.067,2.426,2.426,0,0,1,.32-1.6,1.843,1.843,0,0,1,.382-.467c.013.011-.147.16-.335.494a2.433,2.433,0,0,0-.27,1.56,2.382,2.382,0,0,0,1.391,1.8,2.377,2.377,0,0,0,1.367.167,2.36,2.36,0,0,0,1.944-2.014,2.376,2.376,0,0,0-.215-1.36,2.382,2.382,0,0,0-1.85-1.327,2.429,2.429,0,0,0-1.55.324c-.328.2-.471.365-.482.352" transform="translate(-168.029 -106.915)" fill="#f5f5f5"/>
        <path id="Trazado_169128" data-name="Trazado 169128" d="M322.187,201.546a.459.459,0,0,1-.076-.039l-.225-.13-.885-.522.028,0-1.568,1.643,0-.044.757,1.146.014.02-.012.022a5.53,5.53,0,0,0-.533,1.369l-.007.027-.027.006-1.332.33.038-.049c.014.715.029,1.475.045,2.272l-.043-.054,1.345.278.034.006.01.035a5.515,5.515,0,0,0,.586,1.343l.019.031-.019.032-.71,1.174-.01-.077,1.636,1.576-.081-.007,1.147-.753.034-.022.035.019a5.539,5.539,0,0,0,1.362.535l.039.009.01.04c.1.418.215.874.328,1.334l-.068-.052,2.271-.041-.067.055c.089-.425.183-.883.28-1.345l.008-.042.041-.011a5.5,5.5,0,0,0,1.34-.583h0l.036-.022.035.022,1.174.711-.086.012,1.578-1.634-.008.086-.752-1.149-.023-.035.02-.036a5.5,5.5,0,0,0,.536-1.361l.01-.04.04-.01,1.334-.326-.051.066q-.02-1.164-.038-2.272l.051.062-1.344-.282-.038-.007-.01-.036a5.491,5.491,0,0,0-.582-1.345l-.019-.031.019-.032.713-1.172.009.072-1.631-1.582.066.006-1.149.75-.026.016-.026-.014a5.536,5.536,0,0,0-1.365-.541l-.027-.007-.006-.026-.323-1.335.041.032-2.272.029.03-.024-.289,1.342,0,.014-.013,0a5.773,5.773,0,0,0-1.039.4l-.244.128a.506.506,0,0,1-.081.041.644.644,0,0,1,.076-.051c.052-.032.13-.08.239-.138a5.3,5.3,0,0,1,1.037-.422l-.016.017c.074-.367.163-.809.271-1.347l0-.024h.025l2.271-.05h.033l.008.033c.1.412.211.848.331,1.332l-.034-.034a5.628,5.628,0,0,1,1.391.543l-.052,0,1.146-.755.035-.023.031.03,1.638,1.574.034.033-.024.039-.71,1.175v-.063a5.65,5.65,0,0,1,.6,1.373l-.048-.045,1.345.279.051.01v.052q.021,1.107.042,2.271v.054l-.052.013-1.333.328.05-.049a5.648,5.648,0,0,1-.548,1.395l0-.071q.372.568.753,1.148l.03.047-.038.04-1.577,1.634-.039.041-.048-.029-1.173-.712h.071a5.608,5.608,0,0,1-1.374.6l.049-.053c-.1.461-.192.92-.28,1.345l-.012.054h-.056l-2.271.039h-.055l-.013-.053-.326-1.334.049.049a5.628,5.628,0,0,1-1.394-.549l.069,0-1.149.751-.043.028-.037-.037-1.632-1.58-.036-.035.026-.042.713-1.172v.062a5.611,5.611,0,0,1-.594-1.374l.044.041-1.344-.282-.043-.009v-.043c-.012-.8-.023-1.556-.035-2.272v-.04l.038-.009,1.334-.323-.033.034a5.625,5.625,0,0,1,.55-1.387l0,.043-.748-1.151-.016-.023.02-.02L321,200.819l.013-.014.015.01.864.537.222.142a.61.61,0,0,1,.075.051" transform="translate(-163.378 -102.427)" fill="#f5f5f5"/>
        <path id="Trazado_169129" data-name="Trazado 169129" d="M357.712,29.627a7.144,7.144,0,0,1,1.749-.76l.36-1.731,2.924-.052.421,1.717a7.168,7.168,0,0,1,1.774.7l1.478-.969,2.1,2.032-.916,1.511a7.164,7.164,0,0,1,.76,1.749l1.731.36.052,2.924-1.717.421a7.167,7.167,0,0,1-.7,1.774l.968,1.478-2.031,2.1-1.511-.916a7.183,7.183,0,0,1-1.749.76l-.36,1.731-2.924.052-.421-1.717a7.168,7.168,0,0,1-1.774-.7l-1.478.969-2.1-2.032.916-1.511a7.156,7.156,0,0,1-.76-1.749l-1.731-.36-.052-2.924,1.717-.421a7.189,7.189,0,0,1,.7-1.774l-.969-1.478,2.031-2.1Zm1.559,3.9a3.137,3.137,0,1,0,4.436-.078,3.137,3.137,0,0,0-4.436.078" transform="translate(-181.068 -13.904)" fill="#4c53b5"/>
        <path id="Trazado_169130" data-name="Trazado 169130" d="M365.191,39.244a2.37,2.37,0,0,1,.584-.512,3.124,3.124,0,0,1,2.047-.484,3.158,3.158,0,0,1,1.391.494,3.208,3.208,0,0,1,1.125,1.267,3.224,3.224,0,0,1,.3,1.847,3.2,3.2,0,0,1-2.648,2.743,3.212,3.212,0,0,1-1.857-.238,3.215,3.215,0,0,1-1.307-1.08,3.162,3.162,0,0,1-.543-1.373,3.124,3.124,0,0,1,.412-2.062,2.378,2.378,0,0,1,.492-.6c.017.015-.189.206-.431.637a3.132,3.132,0,0,0-.347,2.008,3.066,3.066,0,0,0,1.791,2.321,3.061,3.061,0,0,0,1.759.216,3.04,3.04,0,0,0,2.5-2.593,3.069,3.069,0,0,0-.277-1.75,3.064,3.064,0,0,0-2.382-1.708,3.128,3.128,0,0,0-2,.417c-.422.256-.606.47-.621.453" transform="translate(-186.988 -19.624)" fill="#f5f5f5"/>
        <path id="Trazado_169131" data-name="Trazado 169131" d="M357.644,29.57a.658.658,0,0,1-.1-.052l-.29-.167-1.139-.673.035,0-2.019,2.116.005-.056.975,1.474.018.026-.016.028a7.155,7.155,0,0,0-.687,1.763l-.008.035-.035.009-1.716.426.049-.063c.018.921.038,1.9.058,2.924l-.056-.068,1.731.357.044.009.012.043a7.148,7.148,0,0,0,.755,1.729l.024.04-.024.04-.914,1.513-.013-.1,2.107,2.029-.1-.01,1.477-.97.043-.028.045.025a7.137,7.137,0,0,0,1.753.688l.051.012.013.052c.132.538.276,1.124.422,1.717l-.087-.067,2.924-.053-.086.071.36-1.731.011-.053.053-.015a7.085,7.085,0,0,0,1.725-.749h0l.047-.028.046.028,1.511.916-.111.015,2.032-2.1-.01.11-.968-1.478-.029-.044.026-.047a7.081,7.081,0,0,0,.691-1.752l.013-.052.051-.013,1.717-.419-.065.085q-.025-1.5-.049-2.924l.066.079-1.731-.363-.048-.01-.013-.047a7.12,7.12,0,0,0-.749-1.731l-.024-.04.024-.04.918-1.509.012.092-2.1-2.036.086.008-1.48.965-.033.021-.034-.019a7.146,7.146,0,0,0-1.757-.7l-.035-.009-.009-.035c-.15-.624-.287-1.187-.415-1.718l.053.04-2.924.038.039-.032-.371,1.729,0,.017-.017,0a7.384,7.384,0,0,0-1.337.514l-.314.164a.694.694,0,0,1-.105.054.888.888,0,0,1,.1-.066c.067-.041.168-.1.309-.178a6.922,6.922,0,0,1,1.335-.544l-.02.022.349-1.733.006-.031h.033l2.924-.064h.042l.011.041.426,1.715-.043-.043a7.215,7.215,0,0,1,1.791.7l-.067,0,1.475-.972.046-.03.04.038,2.108,2.027.043.041-.031.052-.913,1.512v-.08a7.243,7.243,0,0,1,.77,1.767l-.061-.057,1.731.358.065.013v.067q.026,1.426.054,2.924v.069l-.067.016-1.716.422.064-.064a7.257,7.257,0,0,1-.706,1.8l0-.091.969,1.477.039.059-.049.051-2.031,2.1-.05.052-.061-.037-1.511-.916h.091a7.266,7.266,0,0,1-1.769.768l.063-.068c-.124.594-.247,1.185-.361,1.731l-.015.07h-.072l-2.924.05h-.071l-.017-.068c-.145-.593-.288-1.18-.419-1.717l.063.064a7.252,7.252,0,0,1-1.795-.708l.089,0-1.479.967-.056.036-.048-.046-2.1-2.034-.046-.045.034-.055.918-1.51v.08a7.241,7.241,0,0,1-.765-1.769l.056.052-1.73-.364-.055-.012v-.056c-.016-1.026-.03-2-.044-2.924v-.051l.05-.012,1.718-.416-.043.043a7.247,7.247,0,0,1,.709-1.786l0,.055-.963-1.482-.02-.031.025-.026,2.043-2.092.017-.017.019.012,1.113.693.286.182a.866.866,0,0,1,.1.066" transform="translate(-181 -13.847)" fill="#f5f5f5"/>
        <path id="Trazado_169132" data-name="Trazado 169132" d="M260.792,56.86a5.581,5.581,0,0,1,1.358-.59l.28-1.344,2.271-.04.327,1.333a5.567,5.567,0,0,1,1.378.542l1.148-.752,1.634,1.578-.711,1.173a5.574,5.574,0,0,1,.59,1.359l1.344.279.04,2.272L269.118,63a5.566,5.566,0,0,1-.542,1.378l.752,1.148-1.578,1.634-1.173-.711a5.585,5.585,0,0,1-1.359.59l-.279,1.344-2.272.04-.327-1.334a5.555,5.555,0,0,1-1.378-.542l-1.148.753-1.635-1.578.711-1.174a5.581,5.581,0,0,1-.59-1.358l-1.344-.28-.04-2.271,1.334-.327a5.566,5.566,0,0,1,.542-1.378l-.752-1.148,1.578-1.634ZM262,59.886a2.437,2.437,0,1,0,3.446-.06,2.437,2.437,0,0,0-3.446.06" transform="translate(-131.887 -28.175)" fill="#4c53b5"/>
        <path id="Trazado_169133" data-name="Trazado 169133" d="M266.6,64.329a1.844,1.844,0,0,1,.454-.4,2.425,2.425,0,0,1,1.59-.376,2.459,2.459,0,0,1,1.081.384,2.5,2.5,0,0,1,.874.985,2.5,2.5,0,0,1,.236,1.435,2.486,2.486,0,0,1-2.057,2.131,2.344,2.344,0,0,1-.75.013,2.371,2.371,0,0,1-.692-.2,2.5,2.5,0,0,1-1.015-.839A2.45,2.45,0,0,1,265.9,66.4a2.425,2.425,0,0,1,.32-1.6,1.84,1.84,0,0,1,.382-.468c.013.011-.147.16-.335.494a2.433,2.433,0,0,0-.27,1.56,2.382,2.382,0,0,0,1.391,1.8,2.378,2.378,0,0,0,1.367.167A2.362,2.362,0,0,0,270.7,66.34a2.388,2.388,0,0,0-.215-1.36,2.382,2.382,0,0,0-1.85-1.327,2.428,2.428,0,0,0-1.55.324c-.328.2-.471.365-.482.352" transform="translate(-136.485 -32.618)" fill="#f5f5f5"/>
        <path id="Trazado_169134" data-name="Trazado 169134" d="M260.739,56.816a.519.519,0,0,1-.076-.039l-.225-.13-.885-.522.028,0-1.569,1.644,0-.045.757,1.145.014.02-.012.022a5.533,5.533,0,0,0-.533,1.368l-.007.027-.027.006-1.332.331.038-.049c.014.715.029,1.474.045,2.271l-.043-.053,1.345.277.034.008.01.034a5.515,5.515,0,0,0,.586,1.343l.018.031-.018.032c-.22.364-.463.766-.71,1.174l-.01-.077,1.637,1.576-.081-.007,1.147-.754.034-.021.035.019a5.5,5.5,0,0,0,1.362.535l.039.009.01.04.328,1.333-.068-.052,2.271-.04-.067.055c.089-.424.183-.883.28-1.345l.008-.041.041-.012a5.5,5.5,0,0,0,1.34-.582h0l.037-.021.036.021,1.174.711-.086.012,1.578-1.634-.008.086-.752-1.148-.023-.035.02-.036A5.5,5.5,0,0,0,269,62.937l.01-.04.04-.01,1.334-.326-.051.066q-.02-1.162-.038-2.271l.051.062L269,60.136l-.037-.008-.01-.036a5.481,5.481,0,0,0-.582-1.345l-.019-.031.019-.032.713-1.172.009.072L267.465,56l.066.006-1.149.75-.026.017-.026-.015a5.516,5.516,0,0,0-1.365-.541l-.027-.007-.006-.026-.323-1.335.041.032-2.272.03.03-.025-.289,1.343,0,.013-.013,0a5.819,5.819,0,0,0-1.039.4l-.244.128a.441.441,0,0,1-.081.041.771.771,0,0,1,.076-.052c.052-.032.13-.08.239-.137a5.33,5.33,0,0,1,1.037-.423l-.016.017c.074-.367.163-.808.271-1.346l0-.025h.025l2.271-.05h.033l.008.033c.1.412.211.848.331,1.332l-.034-.034a5.6,5.6,0,0,1,1.391.543l-.052,0,1.146-.755.035-.023.031.03,1.637,1.575.034.032-.024.04-.71,1.174v-.063a5.666,5.666,0,0,1,.6,1.372l-.048-.044,1.345.279.051.01v.051q.02,1.108.042,2.271v.053l-.052.014-1.333.328.05-.05a5.636,5.636,0,0,1-.548,1.4l0-.071.753,1.148.03.046-.038.04-1.577,1.634-.039.04-.048-.029-1.173-.711h.071a5.653,5.653,0,0,1-1.374.6l.049-.053c-.1.461-.192.919-.28,1.345l-.012.055h-.055l-2.271.039h-.055l-.013-.053c-.112-.461-.224-.916-.326-1.334l.049.049a5.626,5.626,0,0,1-1.394-.55l.069,0-1.149.751-.043.029-.037-.036-1.632-1.58-.036-.035.026-.042.713-1.172v.062a5.622,5.622,0,0,1-.594-1.373l.044.04-1.344-.282-.043-.009v-.044c-.012-.8-.023-1.556-.035-2.271v-.04l.038-.009,1.334-.323-.033.034a5.6,5.6,0,0,1,.55-1.387l0,.042-.748-1.151-.016-.023.02-.02,1.587-1.625.013-.013.015.01.864.537.222.141a.715.715,0,0,1,.075.052" transform="translate(-131.834 -28.131)" fill="#f5f5f5"/>
        <path id="Trazado_169135" data-name="Trazado 169135" d="M46.9,139.181a5.6,5.6,0,0,1,1.358-.59l.28-1.344,2.271-.04.327,1.334a5.584,5.584,0,0,1,1.378.542l1.148-.752,1.634,1.578-.712,1.173a5.573,5.573,0,0,1,.59,1.359l1.344.28.04,2.271-1.333.327a5.567,5.567,0,0,1-.542,1.378l.752,1.148-1.578,1.634-1.174-.712a5.586,5.586,0,0,1-1.359.591L51.05,150.7l-2.272.04-.327-1.334a5.539,5.539,0,0,1-1.378-.543l-1.148.753-1.635-1.578L45,146.867a5.6,5.6,0,0,1-.59-1.358l-1.344-.28-.04-2.271,1.334-.327a5.567,5.567,0,0,1,.542-1.378l-.752-1.149,1.578-1.634Zm1.211,3.026a2.437,2.437,0,1,0,3.446-.06,2.438,2.438,0,0,0-3.446.06" transform="translate(-22.088 -70.434)" fill="#4c53b5"/>
        <path id="Trazado_169136" data-name="Trazado 169136" d="M52.712,146.651a1.844,1.844,0,0,1,.454-.4,2.422,2.422,0,0,1,1.59-.376,2.459,2.459,0,0,1,1.081.384,2.493,2.493,0,0,1,.874.984,2.5,2.5,0,0,1,.236,1.435,2.485,2.485,0,0,1-2.057,2.131,2.329,2.329,0,0,1-.75.013,2.371,2.371,0,0,1-.692-.2,2.5,2.5,0,0,1-1.015-.839,2.46,2.46,0,0,1-.1-2.668,1.851,1.851,0,0,1,.382-.468c.013.011-.147.16-.335.495a2.431,2.431,0,0,0-.27,1.56,2.382,2.382,0,0,0,1.391,1.8,2.388,2.388,0,0,0,1.367.167,2.362,2.362,0,0,0,1.944-2.015,2.389,2.389,0,0,0-.215-1.36,2.4,2.4,0,0,0-.822-.944,2.373,2.373,0,0,0-1.028-.382,2.426,2.426,0,0,0-1.55.324c-.328.2-.471.365-.482.352" transform="translate(-26.686 -74.878)" fill="#f5f5f5"/>
        <path id="Trazado_169137" data-name="Trazado 169137" d="M46.85,139.138a.5.5,0,0,1-.076-.04l-.225-.13-.885-.523.028,0-1.568,1.643,0-.044.757,1.145.014.02-.012.022a5.536,5.536,0,0,0-.533,1.369l-.007.027-.027.006-1.332.331.038-.049c.014.715.029,1.474.045,2.271l-.043-.053,1.345.277.034.007.01.034A5.506,5.506,0,0,0,45,146.792l.018.031-.018.032-.71,1.174-.01-.077,1.637,1.576-.081-.007,1.147-.754.034-.022.035.019a5.518,5.518,0,0,0,1.362.534l.039.01.01.04.328,1.333-.068-.052L51,150.589l-.067.055c.089-.425.183-.883.28-1.345l.008-.041.041-.011a5.5,5.5,0,0,0,1.34-.583h0l.036-.022.036.022,1.174.712-.087.011,1.579-1.634-.008.086-.752-1.148-.023-.035.02-.036a5.5,5.5,0,0,0,.536-1.361l.01-.04.04-.009,1.334-.326-.051.066q-.02-1.163-.038-2.271l.051.062-1.344-.282-.037-.008-.01-.036a5.5,5.5,0,0,0-.582-1.345l-.019-.031.019-.031.713-1.172.009.072-1.631-1.581.066.006-1.149.749-.026.017-.026-.015a5.535,5.535,0,0,0-1.365-.541l-.027-.007-.006-.027-.323-1.335.041.032-2.272.03.03-.025-.289,1.343,0,.013-.013,0a5.742,5.742,0,0,0-1.039.4l-.244.128a.551.551,0,0,1-.081.041.676.676,0,0,1,.076-.052c.052-.032.13-.08.239-.138a5.365,5.365,0,0,1,1.037-.422l-.016.017c.074-.367.163-.809.271-1.346l0-.025h.025l2.271-.05h.033l.008.033c.1.412.211.848.331,1.332l-.034-.034a5.628,5.628,0,0,1,1.391.543l-.052,0,1.146-.755.036-.023.031.03,1.638,1.575.034.032-.024.04-.71,1.174v-.062a5.649,5.649,0,0,1,.6,1.372l-.048-.044,1.345.278.051.01v.052q.02,1.108.042,2.271V145l-.052.013-1.333.328.05-.049a5.644,5.644,0,0,1-.548,1.4l0-.071.753,1.148.03.046-.038.04-1.577,1.635-.039.04-.048-.029-1.173-.711h.071a5.655,5.655,0,0,1-1.374.6l.049-.053c-.1.461-.192.919-.28,1.344l-.012.054H51l-2.271.039h-.055l-.013-.053-.326-1.334.049.05a5.646,5.646,0,0,1-1.394-.55l.069,0-1.149.751-.043.029-.037-.036-1.632-1.58-.036-.035.026-.043.713-1.172v.062a5.625,5.625,0,0,1-.594-1.373l.044.04L43,145.239l-.043-.009v-.044c-.012-.8-.023-1.556-.035-2.271v-.04l.038-.01,1.334-.323-.033.034a5.622,5.622,0,0,1,.55-1.387l0,.042-.748-1.151-.016-.024.02-.02,1.587-1.625.013-.013.015.01.864.538.222.141a.635.635,0,0,1,.075.052" transform="translate(-22.035 -70.39)" fill="#f5f5f5"/>
        <path id="Trazado_169138" data-name="Trazado 169138" d="M59.861,207.291a17.621,17.621,0,0,1,4.3-1.87l.886-4.26,7.2-.126,1.036,4.226a17.635,17.635,0,0,1,4.367,1.718l3.637-2.385,5.179,5-2.254,3.718a17.635,17.635,0,0,1,1.87,4.3l4.259.886.127,7.2-4.226,1.036a17.649,17.649,0,0,1-1.718,4.367l2.384,3.638-5,5.179-3.719-2.255a17.64,17.64,0,0,1-4.3,1.87L73,243.8l-7.2.126L64.767,239.7a17.649,17.649,0,0,1-4.367-1.718l-3.637,2.385-5.179-5,2.255-3.719a17.613,17.613,0,0,1-1.87-4.3l-4.26-.886-.127-7.2,4.226-1.036a17.649,17.649,0,0,1,1.718-4.367l-2.384-3.638,5-5.179ZM63.7,216.88a7.722,7.722,0,1,0,10.919-.192A7.722,7.722,0,0,0,63.7,216.88Z" transform="translate(-24.426 -103.2)" fill="none" stroke="#e1e1e1" stroke-miterlimit="10" stroke-width="0.05"/>
        <path id="Trazado_169139" data-name="Trazado 169139" d="M78.267,230.958A5.836,5.836,0,0,1,79.7,229.7a7.688,7.688,0,0,1,5.038-1.191,7.778,7.778,0,0,1,3.424,1.216,7.9,7.9,0,0,1,2.769,3.12,7.917,7.917,0,0,1,.746,4.544,7.877,7.877,0,0,1-6.518,6.752,7.915,7.915,0,0,1-4.569-.585,7.908,7.908,0,0,1-3.215-2.658,7.778,7.778,0,0,1-1.336-3.379,7.686,7.686,0,0,1,1.014-5.076,5.827,5.827,0,0,1,1.21-1.481c.042.036-.466.507-1.061,1.567a7.7,7.7,0,0,0-.854,4.943,7.547,7.547,0,0,0,4.409,5.712,7.541,7.541,0,0,0,4.329.531,7.482,7.482,0,0,0,6.162-6.383,7.55,7.55,0,0,0-.682-4.307,7.547,7.547,0,0,0-5.863-4.2,7.7,7.7,0,0,0-4.911,1.027c-1.039.632-1.492,1.156-1.529,1.115" transform="translate(-38.996 -117.279)" fill="#ececec"/>
        <path id="Trazado_169140" data-name="Trazado 169140" d="M59.692,207.151a1.681,1.681,0,0,1-.24-.127l-.713-.412-2.8-1.656.088-.011-4.97,5.207.013-.139,2.4,3.628.043.066-.038.069a17.611,17.611,0,0,0-1.691,4.338l-.02.085-.086.021-4.223,1.048.12-.156c.045,2.266.093,4.671.143,7.2l-.139-.167,4.261.878.109.023.031.107a17.5,17.5,0,0,0,1.858,4.255l.06.1-.06.1-2.249,3.721-.032-.244,5.185,4.994-.256-.024,3.635-2.388.107-.07.111.062a17.54,17.54,0,0,0,4.315,1.694l.126.031.031.126,1.039,4.226-.215-.165,7.2-.129-.211.175.886-4.26.027-.131.128-.036a17.471,17.471,0,0,0,4.247-1.844l0,0,.116-.069.113.069,3.719,2.255-.273.036,5-5.178-.026.273-2.382-3.639-.073-.11.064-.114a17.427,17.427,0,0,0,1.7-4.312l.032-.127.126-.03,4.226-1.033-.161.209q-.061-3.686-.119-7.2l.162.2-4.258-.892-.118-.025-.033-.115a17.481,17.481,0,0,0-1.843-4.26l-.06-.1.06-.1,2.261-3.714.03.227L81,204.576l.211.02-3.644,2.375-.081.053-.084-.047a17.56,17.56,0,0,0-4.324-1.715L73,205.24l-.02-.085c-.371-1.537-.706-2.921-1.021-4.229l.129.1-7.2.094.1-.079-.913,4.254-.009.043-.041.012a18.277,18.277,0,0,0-3.291,1.266l-.774.4a1.774,1.774,0,0,1-.258.131,2.247,2.247,0,0,1,.24-.164c.164-.1.414-.253.759-.437a17.043,17.043,0,0,1,3.286-1.338l-.05.054L64.786,201l.016-.077.08,0,7.2-.158.1,0,.025.1c.325,1.306.668,2.688,1.05,4.222l-.107-.107a17.776,17.776,0,0,1,4.41,1.72l-.164.006,3.632-2.393.112-.074.1.094,5.189,4.989.106.1-.076.126-2.248,3.722v-.2a17.844,17.844,0,0,1,1.9,4.349l-.15-.14,4.261.881.159.033,0,.163q.066,3.51.134,7.2l0,.168-.164.04L86.126,226.8l.157-.157a17.859,17.859,0,0,1-1.736,4.421l-.008-.225,2.386,3.637.1.146-.122.126-5,5.18-.123.127-.151-.092-3.719-2.254h.229l0,0a17.879,17.879,0,0,1-4.355,1.891l.156-.167-.887,4.259-.036.172-.176,0-7.2.124-.173,0-.041-.168-1.033-4.227.157.157a17.891,17.891,0,0,1-4.417-1.742l.218-.008-3.64,2.381-.138.09-.118-.114-5.173-5.006-.113-.109.082-.135,2.26-3.715v.2a17.85,17.85,0,0,1-1.883-4.353l.139.129-4.258-.895-.136-.029,0-.139c-.038-2.526-.075-4.931-.11-7.2l0-.126.123-.03,4.229-1.024-.107.107a17.818,17.818,0,0,1,1.746-4.4l0,.134-2.37-3.647-.049-.076.062-.064,5.03-5.15.04-.041.048.03,2.739,1.7.7.448a2.119,2.119,0,0,1,.238.163" transform="translate(-24.258 -103.059)" fill="#ececec"/>
        <path id="Trazado_169141" data-name="Trazado 169141" d="M312.224,61.9a11.875,11.875,0,0,1,3.12.48l2.033-2.105,4.14,2.511-.927,2.776a11.84,11.84,0,0,1,1.868,2.544l2.925-.051,1.152,4.7-2.617,1.307a11.849,11.849,0,0,1-.48,3.12l2.105,2.033-2.511,4.14-2.776-.927a11.885,11.885,0,0,1-2.544,1.868l.051,2.925-4.7,1.153-1.307-2.618a11.855,11.855,0,0,1-3.12-.48L306.6,87.383l-4.14-2.511.927-2.776a11.855,11.855,0,0,1-1.868-2.544l-2.925.051-1.152-4.7,2.617-1.306a11.857,11.857,0,0,1,.48-3.12l-2.106-2.033,2.511-4.14,2.776.927a11.857,11.857,0,0,1,2.544-1.868l-.051-2.925,4.7-1.152Zm-1.258,6.832a5.194,5.194,0,1,0,6.281,3.809,5.193,5.193,0,0,0-6.281-3.809" transform="translate(-152.69 -30.432)" fill="#4c53b5"/>
        <path id="Trazado_169142" data-name="Trazado 169142" d="M320.93,78.485a3.92,3.92,0,0,1,1.271-.2,5.171,5.171,0,0,1,3.294,1.13,5.233,5.233,0,0,1,1.512,1.921,5.314,5.314,0,0,1,.456,2.768,5.327,5.327,0,0,1-1.206,2.854,5.3,5.3,0,0,1-6.131,1.5,5.328,5.328,0,0,1-2.389-1.973,5.321,5.321,0,0,1-.875-2.666,5.237,5.237,0,0,1,.453-2.4,5.174,5.174,0,0,1,2.4-2.524,3.92,3.92,0,0,1,1.22-.408c.011.035-.447.121-1.166.511A5.182,5.182,0,0,0,317.5,81.5a5.077,5.077,0,0,0,.459,4.832,5.073,5.073,0,0,0,2.273,1.856,5.033,5.033,0,0,0,5.8-1.421,5.085,5.085,0,0,0,1.157-2.7,5.078,5.078,0,0,0-1.827-4.5A5.178,5.178,0,0,0,322.2,78.4c-.818-.013-1.264.123-1.27.086" transform="translate(-162.653 -40.185)" fill="#e1e1e1"/>
        <path id="Trazado_169143" data-name="Trazado 169143" d="M312.061,61.842a1.187,1.187,0,0,1-.091-.158l-.258-.491-1-1.948.054.025-4.7,1.18.057-.074c.019.886.04,1.871.063,2.925v.053l-.047.026a11.859,11.859,0,0,0-2.518,1.861l-.042.041-.056-.019-2.779-.919.124-.046-2.5,4.146-.019-.145,2.109,2.029.054.052-.021.072a11.813,11.813,0,0,0-.47,3.088v.077l-.07.035-2.615,1.311.07-.15c.364,1.477.756,3.069,1.158,4.7l-.137-.106,2.925-.054h.086l.041.075a11.814,11.814,0,0,0,1.847,2.512l.061.063-.028.083c-.29.87-.606,1.819-.925,2.777l-.063-.171,4.141,2.509-.183.024,2.032-2.106.063-.065.086.026a11.76,11.76,0,0,0,3.078.474h0l.091,0,.04.08,1.307,2.617-.168-.078,4.7-1.151-.112.146q-.025-1.477-.05-2.925v-.089l.077-.042a11.731,11.731,0,0,0,2.514-1.844l.063-.06.083.028,2.775.929-.166.061,2.515-4.138.022.169-2.1-2.035-.058-.056.023-.077a11.777,11.777,0,0,0,.48-3.085v-.078l.07-.035,2.619-1.3-.065.14-1.143-4.705.112.087-2.925.044h-.065L322.2,68.1a11.807,11.807,0,0,0-1.845-2.528l-.041-.043.019-.055.936-2.773.038.1-4.129-2.529.083-.011-2.046,2.093-.02.021-.028-.008a12.254,12.254,0,0,0-2.327-.46l-.585-.048a1.182,1.182,0,0,1-.194-.018,1.575,1.575,0,0,1,.2-.007c.13,0,.326,0,.588.023a11.5,11.5,0,0,1,2.35.418l-.048.013,2.019-2.118.037-.038.046.028,4.151,2.493.06.036-.022.067-.917,2.779-.022-.1A11.966,11.966,0,0,1,322.389,68l-.1-.055,2.925-.058h.091l.022.089c.367,1.486.753,3.047,1.162,4.7l.024.1-.089.044-2.614,1.311.071-.113a12.016,12.016,0,0,1-.481,3.155l-.035-.134,2.108,2.03.079.076-.057.094-2.506,4.142-.059.1-.108-.036-2.776-.925.146-.033a12.006,12.006,0,0,1-2.574,1.892l.076-.13q.026,1.448.053,2.925l0,.118-.114.028-4.7,1.154-.115.028-.053-.107-1.307-2.617.13.082h0a12.022,12.022,0,0,1-3.156-.486l.149-.039-2.033,2.1-.082.085-.1-.061-4.139-2.513-.1-.06.037-.11.929-2.775.033.146a12.045,12.045,0,0,1-1.888-2.576l.127.073-2.925.048-.111,0-.026-.107-1.147-4.7-.025-.1.1-.047,2.619-1.3-.071.112a12.017,12.017,0,0,1,.491-3.152l.033.123-2.1-2.037-.067-.066.049-.08,2.52-4.134.044-.073.08.027,2.773.935-.1.022a11.966,11.966,0,0,1,2.57-1.874l-.045.078c-.014-1.054-.028-2.039-.039-2.925v-.06l.058-.014,4.709-1.125.037-.009.017.034.947,1.953.24.507a1.382,1.382,0,0,1,.077.179" transform="translate(-152.527 -30.374)" fill="#e1e1e1"/>
        <path id="Trazado_169144" data-name="Trazado 169144" d="M351.379,253.964a3.98,3.98,0,0,1,1.282-.2,5.217,5.217,0,0,1,3.324,1.141,5.274,5.274,0,0,1,1.526,1.938,5.365,5.365,0,0,1,.46,2.794,5.373,5.373,0,0,1-1.218,2.88,5.35,5.35,0,0,1-6.188,1.517,5.372,5.372,0,0,1-2.411-1.991,5.368,5.368,0,0,1-.884-2.691,5.286,5.286,0,0,1,.457-2.425,5.217,5.217,0,0,1,2.421-2.548,3.957,3.957,0,0,1,1.231-.412c.011.036-.451.122-1.177.515a5.23,5.23,0,0,0-2.28,2.53,5.123,5.123,0,0,0,.463,4.876,5.124,5.124,0,0,0,2.294,1.873,5.081,5.081,0,0,0,5.85-1.434,5.117,5.117,0,0,0,1.168-2.72,5.122,5.122,0,0,0-1.844-4.538,5.223,5.223,0,0,0-3.191-1.188c-.825-.014-1.276.124-1.282.087" transform="translate(-178.265 -130.266)" fill="#ececec"/>
        <path id="Trazado_169145" data-name="Trazado 169145" d="M342.429,237.168a1.186,1.186,0,0,1-.092-.16l-.26-.495-1.01-1.966.055.025-4.74,1.191.058-.075c.019.894.041,1.888.064,2.952v.053l-.047.026a11.967,11.967,0,0,0-2.541,1.879l-.043.041-.057-.019-2.8-.927.126-.046-2.524,4.184-.019-.146,2.129,2.047.054.053-.021.072a11.919,11.919,0,0,0-.474,3.117v.078l-.071.036-2.64,1.322.071-.152c.367,1.491.763,3.1,1.168,4.745l-.138-.107,2.953-.055h.086l.041.076a11.893,11.893,0,0,0,1.865,2.535l.061.063-.028.084-.934,2.8-.063-.173,4.18,2.532-.185.024,2.051-2.125.063-.066.087.026a11.863,11.863,0,0,0,3.106.478h0l.092,0,.04.081q.664,1.33,1.319,2.642l-.17-.079,4.747-1.162-.113.147q-.026-1.491-.051-2.953v-.089l.078-.043a11.846,11.846,0,0,0,2.538-1.86l.064-.061.083.028,2.8.937-.168.062,2.538-4.176.022.171-2.122-2.054-.059-.057.023-.078a11.891,11.891,0,0,0,.484-3.114l0-.079.07-.035,2.643-1.314-.066.141c-.405-1.67-.788-3.247-1.153-4.749l.114.088-2.952.045h-.066l-.031-.057a11.913,11.913,0,0,0-1.862-2.551l-.041-.043.019-.056.945-2.8.038.1-4.167-2.552.083-.011-2.065,2.112-.021.021-.028-.008a12.394,12.394,0,0,0-2.348-.465l-.591-.048a1.2,1.2,0,0,1-.2-.018,1.6,1.6,0,0,1,.2-.007c.131,0,.329,0,.594.023a11.607,11.607,0,0,1,2.371.422l-.048.013,2.038-2.138.037-.039.046.028,4.19,2.516.061.037-.022.068-.926,2.8-.022-.1a12.068,12.068,0,0,1,1.909,2.585l-.1-.056,2.952-.059h.092l.022.09,1.172,4.744.024.1-.09.045-2.639,1.323.072-.114a12.1,12.1,0,0,1-.486,3.185l-.036-.135,2.127,2.049.08.077-.057.095-2.53,4.181-.059.1-.109-.036-2.8-.933.147-.034a12.114,12.114,0,0,1-2.6,1.91l.076-.132q.026,1.461.053,2.952l0,.119-.116.029-4.746,1.164-.116.029-.054-.108-1.319-2.641.131.083h0a12.138,12.138,0,0,1-3.185-.491l.15-.04-2.052,2.125-.083.086-.1-.062L332.5,260.48l-.1-.061.037-.111.937-2.8.034.147a12.139,12.139,0,0,1-1.906-2.6l.128.074-2.953.049-.112,0-.026-.109c-.4-1.648-.794-3.257-1.157-4.748l-.025-.1.1-.047,2.643-1.315-.072.113a12.13,12.13,0,0,1,.495-3.182l.033.124-2.121-2.056-.068-.066.049-.08,2.543-4.173.045-.073.081.027,2.8.944-.1.022a12.083,12.083,0,0,1,2.594-1.892l-.046.079c-.014-1.063-.028-2.058-.039-2.952v-.061l.059-.014,4.753-1.136.038-.009.017.035.956,1.971.242.512a1.36,1.36,0,0,1,.078.18" transform="translate(-168.046 -120.364)" fill="#ececec"/>
        <path id="Trazado_169146" data-name="Trazado 169146" d="M36.884,422.11v15.01h46.16V422.11Z" transform="translate(-18.934 -216.687)" fill="#f5f5f5"/>
        <path id="Trazado_169147" data-name="Trazado 169147" d="M32.9,413.487v4.2H82.616v-4.2H32.9Z" transform="translate(-16.891 -212.261)" fill="#e1e1e1"/>
        <path id="Trazado_169148" data-name="Trazado 169148" d="M82.957,432.694H106.2v-15.01h1.614v-4.2H81.988V417.3Z" transform="translate(-42.088 -212.261)" fill="#e1e1e1"/>
        <rect id="Rectángulo_43482" data-name="Rectángulo 43482" width="9.361" height="2.26" transform="translate(24.406 207.843)" fill="#e1e1e1"/>
        <rect id="Rectángulo_43483" data-name="Rectángulo 43483" width="12.02" height="4.771" transform="translate(23.201 212.927)" fill="#fff"/>
        <path id="Trazado_169149" data-name="Trazado 169149" d="M51.477,382.685v15.01h46.16v-15.01Z" transform="translate(-26.425 -196.449)" fill="#f5f5f5"/>
        <path id="Trazado_169150" data-name="Trazado 169150" d="M47.5,374.062v4.2H97.208v-4.2H47.5Z" transform="translate(-24.382 -192.022)" fill="#e1e1e1"/>
        <path id="Trazado_169151" data-name="Trazado 169151" d="M97.55,393.268h23.241v-15.01h1.614v-4.2H96.581v3.808Z" transform="translate(-49.579 -192.022)" fill="#e1e1e1"/>
        <rect id="Rectángulo_43484" data-name="Rectángulo 43484" width="9.361" height="2.26" transform="translate(31.508 188.656)" fill="#e1e1e1"/>
        <rect id="Rectángulo_43485" data-name="Rectángulo 43485" width="12.02" height="4.771" transform="translate(30.303 193.741)" fill="#fff"/>
        <path id="Trazado_169152" data-name="Trazado 169152" d="M224.5,452.82c0,.07-50.26.127-112.244.127C50.249,452.946,0,452.89,0,452.82s50.249-.127,112.256-.127c61.984,0,112.244.056,112.244.127" transform="translate(0 -232.387)" fill="#1a2e35"/>
        <path id="Trazado_169153" data-name="Trazado 169153" d="M49.588,24.382a23.418,23.418,0,0,1,5.723-2.463l1.2-5.652,9.556-.134,1.356,5.615a23.409,23.409,0,0,1,5.79,2.3L78.05,20.9,84.9,27.562l-3.01,4.926a23.4,23.4,0,0,1,2.463,5.724l5.651,1.2.135,9.556L84.526,50.32a23.414,23.414,0,0,1-2.3,5.789l3.149,4.841L78.711,67.8l-4.927-3.01a23.4,23.4,0,0,1-5.724,2.463l-1.2,5.652-9.556.135-1.356-5.616a23.451,23.451,0,0,1-5.79-2.3l-4.84,3.149L38.47,61.612l3.011-4.927a23.4,23.4,0,0,1-2.463-5.723l-5.652-1.2-.135-9.556,5.616-1.356a23.427,23.427,0,0,1,2.3-5.789L38,28.223l6.661-6.852Z" transform="translate(-17.059 -8.281)" fill="#ff004c" fill-rule="evenodd"/>
        <path id="Trazado_169154" data-name="Trazado 169154" d="M85.7,59.989a13.259,13.259,0,0,0-.307-2.008,7.917,7.917,0,0,0-.924-2.18,8.178,8.178,0,0,0-9.821-3.472A7.667,7.667,0,0,0,72.59,53.44a7.484,7.484,0,0,0-1.722,1.732,8.115,8.115,0,0,0,0,9.632,9.221,9.221,0,0,0,.8.945,9.126,9.126,0,0,0,.924.787,7.662,7.662,0,0,0,2.062,1.112,8.2,8.2,0,0,0,9.821-3.472A7.923,7.923,0,0,0,85.4,62a13.162,13.162,0,0,0,.307-2.007.534.534,0,0,1,.006.134c0,.1,0,.233-.007.395a3.806,3.806,0,0,1-.053.639,5.8,5.8,0,0,1-.157.863,7.84,7.84,0,0,1-.9,2.228,8.342,8.342,0,0,1-5.618,3.969,8.392,8.392,0,0,1-4.4-.35,7.871,7.871,0,0,1-2.126-1.137,7.677,7.677,0,0,1-1.778-1.78,8.341,8.341,0,0,1,0-9.926,7.673,7.673,0,0,1,1.778-1.779,7.871,7.871,0,0,1,2.126-1.137,8.39,8.39,0,0,1,4.4-.35,8.34,8.34,0,0,1,5.618,3.969,7.825,7.825,0,0,1,.9,2.229,5.8,5.8,0,0,1,.157.863,3.8,3.8,0,0,1,.053.639c0,.162.005.292.007.395a.534.534,0,0,1-.006.134" transform="translate(-35.437 -26.497)" fill="#fff"/>
        <path id="Trazado_169155" data-name="Trazado 169155" d="M97.932,81.2c.05-.05,1.852,1.673,4.026,3.847s3.9,3.976,3.847,4.026-1.852-1.673-4.026-3.847-3.9-3.976-3.847-4.026" transform="translate(-50.272 -41.685)" fill="#fff"/>
        <path id="Trazado_169156" data-name="Trazado 169156" d="M178.936,96.219a30.056,30.056,0,0,1,7.346-3.162l1.536-7.254,12.266-.173,1.74,7.207a30.033,30.033,0,0,1,7.432,2.954l6.213-4.042,8.8,8.552-3.865,6.323a30.016,30.016,0,0,1,3.162,7.347l7.254,1.536.173,12.266-7.208,1.74a30.056,30.056,0,0,1-2.954,7.431l4.042,6.214-8.551,8.8-6.324-3.865a30.053,30.053,0,0,1-7.347,3.162l-1.535,7.254-12.266.173-1.74-7.208a30.067,30.067,0,0,1-7.432-2.954l-6.213,4.042-8.8-8.551,3.864-6.324a30.043,30.043,0,0,1-3.162-7.347l-7.254-1.536-.173-12.266,7.208-1.741a30.042,30.042,0,0,1,2.953-7.431l-4.042-6.213,8.551-8.8Z" transform="translate(-81.078 -43.958)" fill="#ff004c" fill-rule="evenodd"/>
        <path id="Trazado_169157" data-name="Trazado 169157" d="M215.395,158.092a1.229,1.229,0,0,1,.147-.007l.419-.008,1.611-.018,6.017-.042-.075.076c-.024-1.036-.052-2.2-.081-3.443v-.057l.055-.025a18.618,18.618,0,0,0,5.15-3.522,13.034,13.034,0,0,0,2.158-2.767,9.468,9.468,0,0,0,1.188-3.519,11.692,11.692,0,0,0-1.842-7.707,14.008,14.008,0,0,0-6.713-5.354,11.551,11.551,0,0,0-6.444-.447,12.658,12.658,0,0,0-5.6,2.587,11.432,11.432,0,0,0-3.38,4.668c-.149.443-.341.867-.451,1.311s-.215.884-.32,1.319a14,14,0,0,0-.23,2.6,12,12,0,0,0,.309,2.447,11.276,11.276,0,0,0,.789,2.18,12.515,12.515,0,0,0,2.426,3.362,16.64,16.64,0,0,0,5.02,3.431l.031.014,0,.031q-.084,1.405-.128,2.146c-.016.236-.028.418-.037.552a1.831,1.831,0,0,1-.018.192,1.282,1.282,0,0,1,0-.176c0-.132.009-.311.015-.543q.027-.75.077-2.175l.029.044a16.434,16.434,0,0,1-5.1-3.405,12.6,12.6,0,0,1-2.481-3.392,11.386,11.386,0,0,1-.815-2.214,12.161,12.161,0,0,1-.326-2.49,14.187,14.187,0,0,1,.223-2.644q.158-.662.32-1.34c.111-.452.3-.884.455-1.334a11.637,11.637,0,0,1,3.437-4.77,12.873,12.873,0,0,1,5.7-2.645,11.781,11.781,0,0,1,6.581.455,14.231,14.231,0,0,1,6.833,5.456,11.569,11.569,0,0,1,1.64,3.865,7.105,7.105,0,0,1,.182,1.009,6.548,6.548,0,0,1,.1,1.008c.009.336.028.67.029,1q-.045.5-.09.988a9.68,9.68,0,0,1-1.227,3.6,13.192,13.192,0,0,1-2.205,2.806,18.667,18.667,0,0,1-5.228,3.535l.054-.082c.02,1.245.039,2.407.056,3.443v.077h-.076l-6.063-.042-1.594-.018-.405-.008a.835.835,0,0,1-.132-.007" transform="translate(-106.157 -67.115)" fill="#fff"/>
        <path id="Trazado_169158" data-name="Trazado 169158" d="M232.666,191.493a69.833,69.833,0,0,1-8.42,0,70.1,70.1,0,0,1,8.42,0" transform="translate(-115.115 -98.237)" fill="#fff"/>
        <path id="Trazado_169159" data-name="Trazado 169159" d="M232.815,198.032a5.093,5.093,0,0,1-2.969-.093,34.592,34.592,0,0,1,2.969.093" transform="translate(-117.99 -101.594)" fill="#fff"/>
        <path id="Trazado_169160" data-name="Trazado 169160" d="M226.351,170.576a.568.568,0,0,1-.009-.139v-.407c.005-.377.014-.9.024-1.566.032-1.379.078-3.341.135-5.757.033-1.217.068-2.548.106-3.975a2.681,2.681,0,0,0-.14-1.029.676.676,0,0,0-.741-.493.982.982,0,0,0-.653.737,1.511,1.511,0,0,0,.136,1.072,2.443,2.443,0,0,0,1.881,1.251,2.494,2.494,0,0,0,2.188-.877,3.732,3.732,0,0,0,.921-2.353,2.228,2.228,0,0,0-.257-1.245.916.916,0,0,0-1.031-.441.929.929,0,0,0-.493,1.011A2.519,2.519,0,0,0,229,157.5a4.667,4.667,0,0,0,2.028,1.568,2.63,2.63,0,0,0,1.22.145,2.466,2.466,0,0,0,1.109-.463,1.927,1.927,0,0,0,.7-.924,1.4,1.4,0,0,0-.064-1.094.943.943,0,0,0-.831-.566,1.154,1.154,0,0,0-.872.522,4.963,4.963,0,0,0-.511,2.077c-.155,1.418-.256,2.746-.347,3.957l-.388,5.744c-.044.664-.079,1.186-.1,1.562-.014.167-.024.3-.033.406a.589.589,0,0,1-.019.138.573.573,0,0,1-.006-.139c0-.106,0-.24.008-.407.014-.376.033-.9.057-1.565.059-1.359.151-3.324.308-5.751.081-1.213.171-2.542.318-3.968.044-.357.079-.717.141-1.088a2.689,2.689,0,0,1,.4-1.094,1.375,1.375,0,0,1,1.049-.621,1.172,1.172,0,0,1,1.043.688,1.632,1.632,0,0,1,.082,1.276,2.168,2.168,0,0,1-.777,1.043,2.7,2.7,0,0,1-1.219.512,2.87,2.87,0,0,1-1.337-.154,4.9,4.9,0,0,1-2.144-1.646,2.748,2.748,0,0,1-.637-1.263,1.177,1.177,0,0,1,.655-1.284,1.164,1.164,0,0,1,1.334.545,2.469,2.469,0,0,1,.294,1.387,3.977,3.977,0,0,1-.989,2.512,2.739,2.739,0,0,1-2.4.951,2.675,2.675,0,0,1-2.06-1.389,1.742,1.742,0,0,1-.146-1.236,1.2,1.2,0,0,1,.831-.894.812.812,0,0,1,.622.139,1.047,1.047,0,0,1,.363.493,2.881,2.881,0,0,1,.149,1.116c-.049,1.427-.095,2.758-.137,3.975l-.216,5.754c-.03.665-.054,1.188-.071,1.564-.011.166-.018.3-.025.406a.559.559,0,0,1-.017.138" transform="translate(-115.397 -79.598)" fill="#fff"/>
        <path id="Trazado_169161" data-name="Trazado 169161" d="M232.819,194.764a46.172,46.172,0,0,1-6.832,0,46.167,46.167,0,0,1,6.832,0" transform="translate(-116.009 -99.916)" fill="#fff"/>
        <path id="Trazado_169162" data-name="Trazado 169162" d="M352.445,140.156a19.486,19.486,0,0,1,4.733-2.126l.923-4.722,7.955-.237,1.2,4.658a19.507,19.507,0,0,1,4.851,1.841l3.989-2.685,5.793,5.458-2.443,4.141a19.5,19.5,0,0,1,2.125,4.734l4.722.923.236,7.955-4.658,1.2a19.5,19.5,0,0,1-1.841,4.851l2.685,3.99-5.458,5.793-4.142-2.443a19.489,19.489,0,0,1-4.734,2.126l-.923,4.722-7.955.237-1.2-4.659a19.484,19.484,0,0,1-4.851-1.841l-3.99,2.685-5.793-5.458,2.443-4.141a19.5,19.5,0,0,1-2.126-4.734l-4.722-.923-.237-7.955,4.658-1.2a19.519,19.519,0,0,1,1.841-4.85l-2.685-3.99,5.458-5.793Z" transform="translate(-174.039 -68.312)" fill="#ff004c" fill-rule="evenodd"/>
        <path id="Trazado_169163" data-name="Trazado 169163" d="M388.574,180.445a2.228,2.228,0,0,1-.386.025l-1.107.024-4.07.04-13.428.037H368.5v-.127c.015-5.016.029-9.514.039-12.789.017-1.606.03-2.911.039-3.843.01-.434.018-.78.023-1.041a1.951,1.951,0,0,1,.025-.363,2.07,2.07,0,0,1,.025.363c.006.261.013.608.023,1.041.01.931.023,2.236.039,3.843.01,3.275.024,7.773.039,12.789l-.127-.127h.957l13.428.037,4.07.04,1.107.023a2.19,2.19,0,0,1,.386.026" transform="translate(-189.166 -83.372)" fill="#fff"/>
        <path id="Trazado_169164" data-name="Trazado 169164" d="M388.451,171.4a5.166,5.166,0,0,1-.6.568l-1.684,1.478c-1.429,1.24-3.415,2.94-5.618,4.805l-.334.282-.086.072-.082-.076-2.5-2.322.156,0-3.67,3.027-1.065.852a2.374,2.374,0,0,1-.4.285,2.346,2.346,0,0,1,.349-.343l1.021-.9,3.61-3.1.079-.068.077.072,2.511,2.309-.167,0,.333-.283c2.2-1.865,4.208-3.543,5.666-4.748l1.736-1.417a5.156,5.156,0,0,1,.659-.493" transform="translate(-191.259 -87.987)" fill="#fff"/>
        <path id="Trazado_169165" data-name="Trazado 169165" d="M400.229,175.343a6.271,6.271,0,0,1-.088-1.245c-.023-.771-.037-1.841-.039-3.032l.127.127h-.216c-1.241,0-2.364-.014-3.177-.037a6.8,6.8,0,0,1-1.316-.09,6.8,6.8,0,0,1,1.316-.09c.813-.023,1.936-.037,3.177-.037h.342v.127c0,1.192-.016,2.261-.039,3.032a6.272,6.272,0,0,1-.088,1.245" transform="translate(-203.038 -87.75)" fill="#fff"/>
        <path id="Trazado_169166" data-name="Trazado 169166" d="M139.724,197.964a8.484,8.484,0,0,1-.888-2.782,8.463,8.463,0,0,1,.888,2.782" transform="translate(-71.262 -100.195)" fill="#1a2e35"/>
        <path id="Trazado_169167" data-name="Trazado 169167" d="M148.224,216.972a19.58,19.58,0,0,1-2.9-5.048,117.545,117.545,0,0,1,2.9,5.048" transform="translate(-74.597 -108.79)" fill="#1a2e35"/>
        <path id="Trazado_169168" data-name="Trazado 169168" d="M162.59,235.991a19.263,19.263,0,0,1-4.081-4.154,26.609,26.609,0,0,1,2.063,2.054,26.8,26.8,0,0,1,2.017,2.1" transform="translate(-81.369 -119.011)" fill="#1a2e35"/>
        <path id="Trazado_169169" data-name="Trazado 169169" d="M181.363,250.663a18.778,18.778,0,0,1-5.033-2.93,27.336,27.336,0,0,1,2.53,1.442,27.756,27.756,0,0,1,2.5,1.488" transform="translate(-90.518 -127.17)" fill="#1a2e35"/>
        <path id="Trazado_169170" data-name="Trazado 169170" d="M203.411,259.624a16.056,16.056,0,0,1-2.884-.455,16.825,16.825,0,0,1-2.773-.914,16.85,16.85,0,0,1,2.833.668,17.773,17.773,0,0,1,2.825.7" transform="translate(-101.515 -132.569)" fill="#1a2e35"/>
        <path id="Trazado_169171" data-name="Trazado 169171" d="M227.11,261.58a12.6,12.6,0,0,1-2.9.344,12.407,12.407,0,0,1-2.918-.09,26.342,26.342,0,0,1,2.907-.164,25.532,25.532,0,0,1,2.91-.09" transform="translate(-113.599 -134.267)" fill="#1a2e35"/>
        <path id="Trazado_169172" data-name="Trazado 169172" d="M250.663,256.44a20.683,20.683,0,0,1-5.608,1.57,24.573,24.573,0,0,1,2.791-.831,24.266,24.266,0,0,1,2.816-.74" transform="translate(-125.797 -131.637)" fill="#1a2e35"/>
        <path id="Trazado_169173" data-name="Trazado 169173" d="M272.811,246.31a20.256,20.256,0,0,1-5.129,2.761,24.787,24.787,0,0,1,2.544-1.419,25.2,25.2,0,0,1,2.585-1.342" transform="translate(-137.413 -126.439)" fill="#1a2e35"/>
        <path id="Trazado_169174" data-name="Trazado 169174" d="M292.274,231.284a11.938,11.938,0,0,1-1.978,2.148,12.15,12.15,0,0,1-2.292,1.81,27.553,27.553,0,0,1,2.12-2,28.854,28.854,0,0,1,2.151-1.962" transform="translate(-147.844 -118.727)" fill="#1a2e35"/>
        <path id="Trazado_169175" data-name="Trazado 169175" d="M307.017,211.435a12.151,12.151,0,0,1-1.2,2.663,11.4,11.4,0,0,1-1.614,2.434c-.059-.04.624-1.148,1.392-2.555a27.383,27.383,0,0,1,1.419-2.541" transform="translate(-156.16 -108.539)" fill="#1a2e35"/>
        <path id="Trazado_169176" data-name="Trazado 169176" d="M316.256,188.957a33.577,33.577,0,0,1-1.819,5.535,33.544,33.544,0,0,1,1.819-5.535" transform="translate(-161.41 -97)" fill="#1a2e35"/>
        <path id="Trazado_169177" data-name="Trazado 169177" d="M323.75,166.277a20.9,20.9,0,0,1-.9,2.773,16.82,16.82,0,0,1-1.075,2.708,16.865,16.865,0,0,1,.837-2.794c.256-.764.537-1.438.747-1.922a2.909,2.909,0,0,1,.388-.765" transform="translate(-165.179 -85.357)" fill="#1a2e35"/>
        <path id="Trazado_169178" data-name="Trazado 169178" d="M333.458,144.852a26.053,26.053,0,0,1-1.378,2.565,23.909,23.909,0,0,1-1.454,2.524,13.076,13.076,0,0,1,1.232-2.646,12.459,12.459,0,0,1,1.6-2.443" transform="translate(-169.722 -74.358)" fill="#1a2e35"/>
        <path id="Trazado_169179" data-name="Trazado 169179" d="M347.9,127.178c.043.059-.979.865-2.152,1.956s-2.067,2.038-2.123,1.988a10.963,10.963,0,0,1,1.951-2.174,10.521,10.521,0,0,1,2.324-1.77" transform="translate(-176.398 -65.284)" fill="#1a2e35"/>
        <path id="Trazado_169180" data-name="Trazado 169180" d="M368.2,117.074c.018.071-1.227.451-2.735.993s-2.71,1.044-2.741.978a11.357,11.357,0,0,1,2.655-1.217,11.726,11.726,0,0,1,2.821-.754" transform="translate(-186.202 -60.094)" fill="#1a2e35"/>
        <path id="Trazado_169181" data-name="Trazado 169181" d="M391.544,114.263c0,.073-1.306.041-2.908.1s-2.9.162-2.909.089a11.662,11.662,0,0,1,2.9-.342,11.27,11.27,0,0,1,2.917.155" transform="translate(-198.01 -58.57)" fill="#1a2e35"/>
        <path id="Trazado_169182" data-name="Trazado 169182" d="M414.964,118.274a27.424,27.424,0,0,1-2.752-.949,28.414,28.414,0,0,1-2.736-1,12.009,12.009,0,0,1,2.821.758,12.2,12.2,0,0,1,2.667,1.188" transform="translate(-210.202 -59.712)" fill="#1a2e35"/>
        <path id="Trazado_169183" data-name="Trazado 169183" d="M436.115,129.216c-.047.055-1.072-.749-2.379-1.677a28.491,28.491,0,0,1-2.36-1.706,11.957,11.957,0,0,1,2.507,1.5,11.709,11.709,0,0,1,2.232,1.883" transform="translate(-221.444 -64.594)" fill="#1a2e35"/>
        <path id="Trazado_169184" data-name="Trazado 169184" d="M451.293,143.582a5.13,5.13,0,0,1-.936-1.122,5.068,5.068,0,0,1-.8-1.224,6.444,6.444,0,0,1,1.732,2.346" transform="translate(-230.776 -72.501)" fill="#1a2e35"/>
        <path id="Trazado_169185" data-name="Trazado 169185" d="M13.16,29.358s.027-.15.091-.44l.292-1.289a33.108,33.108,0,0,1,1.619-4.812,36.273,36.273,0,0,1,4.028-6.945,39.8,39.8,0,0,1,7.427-7.6A39.342,39.342,0,0,1,37.932,2.148,41.739,41.739,0,0,1,44.924.458,44.888,44.888,0,0,1,52.536.017a39.44,39.44,0,0,1,7.95,1.007,36.058,36.058,0,0,1,7.879,2.782,35.606,35.606,0,0,1,7.205,4.8,34.116,34.116,0,0,1,5.982,6.605,32.925,32.925,0,0,1,4.01,7.961,37.464,37.464,0,0,1,1.824,8.465c.053.709.129,1.414.163,2.117q.025,1.057.049,2.1c.009.7-.037,1.393-.054,2.084-.063.689-.109,1.377-.2,2.056a30.746,30.746,0,0,1-2.091,7.735,60.012,60.012,0,0,1-3.457,6.8l-3.632,6.2a36.447,36.447,0,0,0-4.247,12.067,52.583,52.583,0,0,0-.689,5.569c-.135,1.769-.191,3.441-.2,5.005a55.279,55.279,0,0,0,.378,8.007,31.7,31.7,0,0,0,1.112,4.941c.178.551.33.967.442,1.242.053.139.1.24.129.31s.04.106.04.106a11.371,11.371,0,0,1-.66-1.642,30.53,30.53,0,0,1-1.161-4.942,54.42,54.42,0,0,1-.422-8.022c0-1.567.052-3.243.181-5.016a52.475,52.475,0,0,1,.673-5.589,36.552,36.552,0,0,1,4.24-12.141l3.621-6.2a59.791,59.791,0,0,0,3.434-6.775,30.523,30.523,0,0,0,2.067-7.677c.088-.673.132-1.355.195-2.039.015-.686.06-1.375.051-2.069s-.033-1.391-.05-2.092c-.034-.7-.11-1.4-.163-2.1a37.274,37.274,0,0,0-1.816-8.407,32.688,32.688,0,0,0-3.98-7.9A33.877,33.877,0,0,0,75.407,8.8a35.388,35.388,0,0,0-7.152-4.767,35.842,35.842,0,0,0-7.823-2.769,39.249,39.249,0,0,0-7.9-1.01,44.747,44.747,0,0,0-7.573.428A41.633,41.633,0,0,0,38,2.347,39.241,39.241,0,0,0,26.726,8.413,39.836,39.836,0,0,0,19.3,15.956a36.589,36.589,0,0,0-4.05,6.9,34.514,34.514,0,0,0-1.66,4.785l-.315,1.281c-.073.289-.116.435-.116.435" transform="translate(-6.756 0)" fill="#1a2e35"/>
        <path id="Trazado_169186" data-name="Trazado 169186" d="M256.553,419.44l7.3,2.562-.078,7.023c-3.5.986-3.986,2.754-3.986,2.754l7.308-.167,6.358-12.93-5.031-3.291-9.4-4.113" transform="translate(-131.7 -211.127)" fill="#ff4f5b"/>
        <g id="Grupo_118904" data-name="Grupo 118904" transform="translate(128.092 206.855)" opacity="0.6">
          <g id="Grupo_118903" data-name="Grupo 118903">
            <g id="Grupo_118902" data-name="Grupo 118902" clip-path="url(#clip-path-3)">
              <path id="Trazado_169187" data-name="Trazado 169187" d="M276.874,425.754l-6.358,12.93-7.308.167.8-1.117,5.935-.462,5.863-12.217Z" transform="translate(-263.208 -425.053)" fill="#fff"/>
            </g>
          </g>
        </g>
        <path id="Trazado_169188" data-name="Trazado 169188" d="M271.338,440.614c.056.073.472-.175,1.037-.172.566-.013.986.229,1.04.155.067-.056-.354-.485-1.043-.476s-1.1.438-1.035.493" transform="translate(-139.286 -225.933)" fill="#1a2e35"/>
        <path id="Trazado_169189" data-name="Trazado 169189" d="M271.493,436.644c.074.05.39-.389.97-.515s1.051.129,1.1.053c.024-.034-.063-.154-.271-.261a1.368,1.368,0,0,0-1.664.372c-.142.186-.169.332-.133.352" transform="translate(-139.362 -223.706)" fill="#1a2e35"/>
        <path id="Trazado_169190" data-name="Trazado 169190" d="M271.284,431.949c.081.038.321-.389.826-.577s.966-.032,1-.114c.018-.037-.076-.137-.28-.208a1.268,1.268,0,0,0-1.475.558c-.106.189-.111.326-.072.342" transform="translate(-139.25 -221.245)" fill="#1a2e35"/>
        <path id="Trazado_169191" data-name="Trazado 169191" d="M270.028,431c.09-.022.034-.482.254-.977s.576-.779.529-.858c-.025-.084-.567.121-.825.732s-.037,1.143.042,1.1" transform="translate(-138.532 -220.298)" fill="#1a2e35"/>
        <path id="Trazado_169192" data-name="Trazado 169192" d="M267.329,427.928a3.107,3.107,0,0,0,.172-.981c.033-.352.065-.707.1-1.07a2.33,2.33,0,0,0,0-.681.593.593,0,0,0-.26-.363.457.457,0,0,0-.5.02,1.355,1.355,0,0,0-.415.647,2.442,2.442,0,0,0,.061,1.767c.26.6.627.81.641.783a8.031,8.031,0,0,1-.428-.863,2.521,2.521,0,0,1-.11-1,2.346,2.346,0,0,1,.132-.575,1.163,1.163,0,0,1,.3-.49.131.131,0,0,1,.153-.011.281.281,0,0,1,.12.17,2.4,2.4,0,0,1,.008.582c-.01.365-.019.721-.029,1.074a3.118,3.118,0,0,0,.055.995" transform="translate(-136.698 -218.052)" fill="#1a2e35"/>
        <path id="Trazado_169193" data-name="Trazado 169193" d="M265.186,431.28c.029-.019-.187-.338-.749-.522a1.826,1.826,0,0,0-2.074.74.338.338,0,0,0,.032.283.41.41,0,0,0,.192.157,1.125,1.125,0,0,0,.342.069,3.275,3.275,0,0,0,.595,0,3.151,3.151,0,0,0,.967-.246c.523-.23.766-.5.741-.523s-.313.15-.82.31a3.608,3.608,0,0,1-.91.164,3.4,3.4,0,0,1-.542-.017.93.93,0,0,1-.246-.049c-.063-.038-.046-.026-.045-.049a.576.576,0,0,1,.145-.174,1.668,1.668,0,0,1,.215-.172,1.783,1.783,0,0,1,1.352-.273,6.926,6.926,0,0,1,.805.3" transform="translate(-134.674 -221.086)" fill="#1a2e35"/>
        <g id="Grupo_118907" data-name="Grupo 118907" transform="translate(135.923 206.578)" opacity="0.6">
          <g id="Grupo_118906" data-name="Grupo 118906">
            <g id="Grupo_118905" data-name="Grupo 118905" clip-path="url(#clip-path-4)">
              <path id="Trazado_169194" data-name="Trazado 169194" d="M279.3,425.369a.867.867,0,1,0,.848-.886.867.867,0,0,0-.848.886" transform="translate(-279.3 -424.483)" fill="#fff"/>
            </g>
          </g>
        </g>
        <path id="Trazado_169195" data-name="Trazado 169195" d="M169.267,422.013l.1,9.568s-9.693,3.315-9.847,5.085l18.559.474.457-14.915Z" transform="translate(-81.889 -216.638)" fill="#ff4f5b"/>
        <g id="Grupo_118910" data-name="Grupo 118910" transform="translate(92.314 214.251)" opacity="0.6">
          <g id="Grupo_118909" data-name="Grupo 118909">
            <g id="Grupo_118908" data-name="Grupo 118908" clip-path="url(#clip-path-5)">
              <path id="Trazado_169196" data-name="Trazado 169196" d="M190.614,440.286a.758.758,0,0,1,.5.878.729.729,0,0,1-.866.505.8.8,0,0,1-.527-.933.757.757,0,0,1,.959-.426" transform="translate(-189.691 -440.25)" fill="#fff"/>
            </g>
          </g>
        </g>
        <g id="Grupo_118913" data-name="Grupo 118913" transform="translate(77.627 218.997)" opacity="0.6">
          <g id="Grupo_118912" data-name="Grupo 118912">
            <g id="Grupo_118911" data-name="Grupo 118911" clip-path="url(#clip-path-6)">
              <path id="Trazado_169197" data-name="Trazado 169197" d="M178.074,451.509,178.061,450l-17.79.109s-.836.338-.757.923Z" transform="translate(-159.51 -450.004)" fill="#fff"/>
            </g>
          </g>
        </g>
        <path id="Trazado_169198" data-name="Trazado 169198" d="M179.14,441.384c0,.091.453.144.891.446s.666.69.751.656c.084-.016-.037-.561-.575-.918s-1.085-.268-1.067-.184" transform="translate(-91.96 -226.542)" fill="#1a2e35"/>
        <path id="Trazado_169199" data-name="Trazado 169199" d="M175.1,442.981c-.023.087.365.252.664.643s.376.8.467.8c.085.016.161-.513-.219-.992s-.907-.534-.912-.448" transform="translate(-89.884 -227.384)" fill="#1a2e35"/>
        <path id="Trazado_169200" data-name="Trazado 169200" d="M171.979,446.079c.082.021.219-.428,0-.931s-.639-.711-.679-.636.215.346.389.762.2.794.29.8" transform="translate(-87.932 -228.18)" fill="#1a2e35"/>
        <path id="Trazado_169201" data-name="Trazado 169201" d="M179.587,436.658c.036.084.455-.031.966.017s.907.219.956.143-.327-.41-.93-.457-1.035.225-.992.3" transform="translate(-92.188 -224)" fill="#1a2e35"/>
        <g id="Grupo_118916" data-name="Grupo 118916" transform="translate(87.401 207.271)" opacity="0.3">
          <g id="Grupo_118915" data-name="Grupo 118915">
            <g id="Grupo_118914" data-name="Grupo 118914" clip-path="url(#clip-path-7)">
              <path id="Trazado_169202" data-name="Trazado 169202" d="M179.594,425.908l.016,1.705,9.123.15.051-1.535Z" transform="translate(-179.594 -425.908)"/>
            </g>
          </g>
        </g>
        <path id="Trazado_169203" data-name="Trazado 169203" d="M179.622,431.5a1.741,1.741,0,0,0,.93.019,4.157,4.157,0,0,0,.98-.274,4.308,4.308,0,0,0,.541-.27,1.133,1.133,0,0,0,.286-.211.4.4,0,0,0,.054-.481.5.5,0,0,0-.392-.217,1.2,1.2,0,0,0-.35.039,3.347,3.347,0,0,0-.583.184,3.284,3.284,0,0,0-.872.541c-.44.388-.6.723-.565.741s.257-.248.7-.566a3.707,3.707,0,0,1,.841-.446,3.406,3.406,0,0,1,.538-.151c.2-.047.365-.044.413.045.018.034.019.047-.023.1a.942.942,0,0,1-.211.154,4.915,4.915,0,0,1-.5.268,5.121,5.121,0,0,1-.907.321,6.383,6.383,0,0,0-.886.2" transform="translate(-92.208 -220.769)" fill="#1a2e35"/>
        <path id="Trazado_169204" data-name="Trazado 169204" d="M178.626,430.154a1.483,1.483,0,0,0,.268-.892,3.031,3.031,0,0,0-.1-1.021,3.064,3.064,0,0,0-.222-.57.769.769,0,0,0-.581-.484.434.434,0,0,0-.395.249,1.249,1.249,0,0,0-.1.338,2.064,2.064,0,0,0-.017.626,2.138,2.138,0,0,0,.372.97c.35.49.726.608.734.577.031-.045-.28-.227-.546-.7a2.14,2.14,0,0,1-.272-.881,1.938,1.938,0,0,1,.031-.537c.034-.2.112-.353.185-.331.092,0,.246.153.317.312a3.1,3.1,0,0,1,.218.51,3.321,3.321,0,0,1,.156.932c.012.546-.094.882-.045.9" transform="translate(-91.097 -219.293)" fill="#1a2e35"/>
        <path id="Trazado_169205" data-name="Trazado 169205" d="M219.975,388.739,198.6,380.791l22.467-3.154,1.131-10.945-42.014,3.666-5.933,8.541,1.563,10.718,40.933,10.406Z" transform="translate(-89.452 -188.239)" fill="#3d4e63"/>
        <path id="Trazado_169206" data-name="Trazado 169206" d="M172.931,375.208l-2.046-39.114a11,11,0,0,1,14.477-10.116l27.258,9.088,14.961,3.847s2.548,6.287,1.05,11.171c-1.466,4.781-6.706,7.961-11.316,6.594-5.726-1.7-32.014-13-32.014-13v31.851Z" transform="translate(-87.723 -167.049)" fill="#3d4e63"/>
        <path id="Trazado_169207" data-name="Trazado 169207" d="M231.992,375.846a.876.876,0,0,1-.163-.054l-.467-.18-1.788-.715-6.556-2.674-21.594-8.911-1.1-.456.175-.117c-.015,8.85-.029,16.806-.039,22.568-.017,2.863-.03,5.179-.039,6.8-.01.789-.018,1.407-.023,1.843-.005.2-.009.358-.013.479a.765.765,0,0,1-.013.163.858.858,0,0,1-.013-.163c0-.121-.007-.279-.012-.479-.005-.437-.013-1.055-.023-1.843-.009-1.618-.023-3.935-.04-6.8-.01-5.762-.023-13.718-.038-22.568v-.19l.175.073,1.1.456,21.565,8.979,6.525,2.749,1.769.759.457.2a.887.887,0,0,1,.153.077" transform="translate(-102.795 -186.113)" fill="#375a64"/>
        <path id="Trazado_169208" data-name="Trazado 169208" d="M213.746,389.954a8.948,8.948,0,0,1,5.124,2.837c-.053.058-1.025-.848-2.446-1.628s-2.7-1.134-2.678-1.209" transform="translate(-109.725 -200.176)" fill="#375a64"/>
        <path id="Trazado_169209" data-name="Trazado 169209" d="M195.63,352.066a19.507,19.507,0,0,1,2.458,5.482c-.068.024-.569-1.223-1.248-2.733s-1.274-2.714-1.21-2.749" transform="translate(-100.423 -180.731)" fill="#375a64"/>
        <path id="Trazado_169210" data-name="Trazado 169210" d="M185.332,315.7l-4.82-.9-5.065,5.166.934,3.29,5.9-2.174Z" transform="translate(-90.065 -161.599)" fill="#ffc09d"/>
        <path id="Trazado_169211" data-name="Trazado 169211" d="M153.194,198.82l-1.3.11s-2.35.384-2.35.437-1.032,1.494-1.034,1.5l-.946,1.462a1.361,1.361,0,0,0,1.321-.243l-.33.735a1.466,1.466,0,0,0,1.815-.7,17.181,17.181,0,0,1,1.023-1.455l.428-.039c.036.088,1.685,2.413,1.72,2.36s1.4-1.375,1.4-1.375Z" transform="translate(-75.748 -102.063)" fill="#ff9b6c"/>
        <path id="Trazado_169212" data-name="Trazado 169212" d="M156.89,207.652l.385-7.221-3.659-4.146-4.025.244-1.646,1.149c.085.4,1.225.671,2.457.314a6.222,6.222,0,0,1,2.534-.085l1.55,2.7-1.024,1.13,1.313,6.926Z" transform="translate(-75.947 -100.762)" fill="#ffc09d"/>
        <path id="Trazado_169213" data-name="Trazado 169213" d="M143.025,200.093h13.08a.6.6,0,0,1,0,1.2h-13.08l-1.283-.6Z" transform="translate(-72.762 -102.716)" fill="#1a2e35"/>
        <path id="Trazado_169214" data-name="Trazado 169214" d="M155.423,210.435l-1.332-3.277a3.086,3.086,0,0,1-.224-1.312,22.54,22.54,0,0,0-.036-4.085c-.244-.731-1.22-3.232-.671-3.6s1.309-.488,1.843.976,2.181,4.634,2.181,4.634L158.43,209Z" transform="translate(-78.539 -101.604)" fill="#ffc09d"/>
        <path id="Trazado_169215" data-name="Trazado 169215" d="M156.921,203.39a9.858,9.858,0,0,1-.757-1.4c-.438-.867-1.032-2.128-1.666-3.432a.961.961,0,0,0-.773-.5.7.7,0,0,0-.651.486,1.868,1.868,0,0,0,.026.856c.052.281.113.54.175.774.255.939.523,1.487.485,1.5a1.236,1.236,0,0,1-.222-.368,7.62,7.62,0,0,1-.434-1.086c-.075-.236-.147-.5-.209-.783a2.008,2.008,0,0,1-.044-.965.939.939,0,0,1,.868-.667,1.2,1.2,0,0,1,.993.615c.675,1.383,1.21,2.59,1.615,3.493a9.9,9.9,0,0,1,.6,1.475" transform="translate(-78.442 -101.543)" fill="#ff9b6c"/>
        <path id="Trazado_169216" data-name="Trazado 169216" d="M270.077,346.733l-1.333-2.34-14.265-3.571,1.68,2.9Z" transform="translate(-130.635 -174.959)" fill="#ffc09d"/>
        <path id="Trazado_169217" data-name="Trazado 169217" d="M155.432,220.5l8.979,21.274a8.265,8.265,0,0,0,4.474,4.431l19.372,7.955,4.51-12.48L173.9,235l-12.255-17.473Z" transform="translate(-79.79 -111.664)" fill="#febf10"/>
        <path id="Trazado_169218" data-name="Trazado 169218" d="M213.165,265.179c.02.5-2.094,15.98-2.094,19.143s6.056,6.6,6.056,6.6L223.759,305h23.619L239.3,289.835l-3.65-12.145a28.608,28.608,0,0,0-7.331-12.154L224.38,262.9Z" transform="translate(-108.352 -134.956)" fill="#febf10"/>
        <path id="Trazado_169219" data-name="Trazado 169219" d="M208.951,285.8l3.967,16.645-20.007-5.637-3.411,6.026,26.034,11.857a7.318,7.318,0,0,0,10.122-8.474l-5.829-22.774a5.568,5.568,0,0,0-10.876,2.358" transform="translate(-97.279 -143.353)" fill="#febf10"/>
        <path id="Trazado_169220" data-name="Trazado 169220" d="M217.021,297.561a.923.923,0,0,1-.23-.1c-.147-.072-.361-.184-.631-.337a18.23,18.23,0,0,1-2.194-1.455,8.947,8.947,0,0,1-2.582-2.935,8.646,8.646,0,0,1-.362-4.757c.242-1.684.588-3.253.791-4.7.222-1.446.375-2.754.456-3.857s.1-2,.1-2.616-.02-.961,0-.963a.912.912,0,0,1,.041.247c.02.163.039.4.056.713a24.206,24.206,0,0,1-.016,2.63c-.058,1.11-.194,2.427-.4,3.88-.191,1.455-.533,3.039-.771,4.7a8.555,8.555,0,0,0,.322,4.625,9,9,0,0,0,2.482,2.893,22.071,22.071,0,0,0,2.133,1.511,9.594,9.594,0,0,1,.81.52" transform="translate(-108.245 -141.601)" fill="#1a2e35"/>
        <path id="Trazado_169221" data-name="Trazado 169221" d="M240.431,282.661a8.266,8.266,0,0,0-5.452-.368,5.559,5.559,0,0,1,5.452.368" transform="translate(-120.624 -144.632)" fill="#1a2e35"/>
        <path id="Trazado_169222" data-name="Trazado 169222" d="M229.34,265.18a2.238,2.238,0,0,1-.361.4c-.243.248-.6.6-1.059,1.022-.909.849-2.2,1.985-3.68,3.172s-2.871,2.2-3.9,2.9c-.513.351-.933.628-1.229.812a2.2,2.2,0,0,1-.473.264,2.244,2.244,0,0,1,.417-.346l1.18-.875c1-.738,2.366-1.77,3.844-2.953s2.78-2.295,3.718-3.108l1.112-.961a2.234,2.234,0,0,1,.428-.331" transform="translate(-112.237 -136.128)" fill="#1a2e35"/>
        <path id="Trazado_169223" data-name="Trazado 169223" d="M190.268,253.513c.025.07-.7.378-1.5.908s-1.38,1.065-1.435,1.013a5.027,5.027,0,0,1,2.939-1.921" transform="translate(-96.163 -130.134)" fill="#1a2e35"/>
        <path id="Trazado_169224" data-name="Trazado 169224" d="M222.011,305.347a1.587,1.587,0,0,1-.436.14,8.443,8.443,0,0,1-1.227.215,11.326,11.326,0,0,1-1.85.05,11.907,11.907,0,0,1-4.381-1.1,11.307,11.307,0,0,1-1.608-.917,8.359,8.359,0,0,1-.981-.768c-.217-.2-.329-.315-.318-.328.031-.035.517.394,1.4.947a12.889,12.889,0,0,0,7.726,1.936c1.036-.073,1.668-.221,1.678-.176" transform="translate(-108.423 -155.358)" fill="#fafafa"/>
        <path id="Trazado_169225" data-name="Trazado 169225" d="M229.928,321.96a2.491,2.491,0,0,1-.9.164,8.216,8.216,0,0,1-4.276-.871,2.5,2.5,0,0,1-.762-.5,12.23,12.23,0,0,0,5.935,1.209" transform="translate(-114.985 -164.653)" fill="#fafafa"/>
        <path id="Trazado_169226" data-name="Trazado 169226" d="M246.188,313.893a1.422,1.422,0,0,1-.371.223,11.1,11.1,0,0,1-1.074.483,16.463,16.463,0,0,1-7.643,1.058,11.232,11.232,0,0,1-1.165-.173,1.434,1.434,0,0,1-.418-.114c.007-.041.613.05,1.6.108a19.372,19.372,0,0,0,7.567-1.047c.931-.323,1.49-.576,1.508-.538" transform="translate(-120.901 -161.133)" fill="#fafafa"/>
        <path id="Trazado_169227" data-name="Trazado 169227" d="M242.079,296.49c-.008.04-.62-.075-1.613-.193a24.91,24.91,0,0,0-7.771.28c-.983.189-1.584.348-1.595.309a1.484,1.484,0,0,1,.407-.164c.267-.091.659-.2,1.149-.32a20.262,20.262,0,0,1,7.834-.282c.5.082.9.165,1.17.237a1.471,1.471,0,0,1,.418.134" transform="translate(-118.634 -151.881)" fill="#fafafa"/>
        <path id="Trazado_169228" data-name="Trazado 169228" d="M249.7,335.223a2.526,2.526,0,0,1-.568-.112,14.465,14.465,0,0,1-1.509-.466,19.865,19.865,0,0,1-8.448-5.932,14.582,14.582,0,0,1-.951-1.26,2.527,2.527,0,0,1-.3-.5c.037-.026.509.649,1.386,1.641a22.061,22.061,0,0,0,8.376,5.881c1.23.489,2.025.7,2.013.747" transform="translate(-122.137 -167.84)" fill="#fafafa"/>
        <path id="Trazado_169229" data-name="Trazado 169229" d="M225.189,333.934a5.4,5.4,0,0,1-.059-1.385,15.4,15.4,0,0,1,1.688-6.437,5.429,5.429,0,0,1,.73-1.177,12.077,12.077,0,0,1-.569,1.256,19.068,19.068,0,0,0-1.67,6.37,12.272,12.272,0,0,1-.12,1.374" transform="translate(-115.565 -166.803)" fill="#fafafa"/>
        <path id="Trazado_169230" data-name="Trazado 169230" d="M200.474,325.185a3.913,3.913,0,0,1,.01-1.165,6.616,6.616,0,0,1,.863-2.683,8.642,8.642,0,0,1,1.88-2.1,4.5,4.5,0,0,1,.946-.677,6.424,6.424,0,0,1-.827.811,10.341,10.341,0,0,0-1.781,2.1,7.429,7.429,0,0,0-.9,2.577,8.073,8.073,0,0,1-.187,1.141" transform="translate(-102.896 -163.53)" fill="#fafafa"/>
        <path id="Trazado_169231" data-name="Trazado 169231" d="M271.715,343.17a7.519,7.519,0,0,1-1.406.62,26.256,26.256,0,0,1-3.554,1.067,15.214,15.214,0,0,1-3.694.4,6.047,6.047,0,0,1-.642-.043,3.806,3.806,0,0,1-.481-.067,1.3,1.3,0,0,1-.4-.105c.007-.044.586.052,1.526.036a18.425,18.425,0,0,0,3.638-.471c1.4-.312,2.651-.7,3.549-.988a11.722,11.722,0,0,1,1.465-.451" transform="translate(-134.258 -176.162)" fill="#fafafa"/>
        <path id="Trazado_169232" data-name="Trazado 169232" d="M266.286,323.4c.027.013-.126.308-.534.607a7.289,7.289,0,0,1-1.718.9,10.8,10.8,0,0,1-1.856.547,3.006,3.006,0,0,1-.59.061c-.142,0-.227-.049-.215-.058s.29-.036.765-.178,1.111-.34,1.8-.608a10.614,10.614,0,0,0,1.708-.814c.415-.248.6-.481.637-.459" transform="translate(-134.173 -166.017)" fill="#fafafa"/>
        <path id="Trazado_169233" data-name="Trazado 169233" d="M260.193,303.326c.013,0,.008.083-.074.175a1.632,1.632,0,0,1-.391.316,7.733,7.733,0,0,1-1.47.686,8.464,8.464,0,0,1-1.565.423c-.413.071-.685.016-.678-.018a6.542,6.542,0,0,1,.642-.157c.392-.1.929-.274,1.514-.485a15.318,15.318,0,0,0,1.468-.6,2.8,2.8,0,0,0,.411-.232c.091-.059.119-.111.143-.1" transform="translate(-131.423 -155.71)" fill="#fafafa"/>
        <path id="Trazado_169234" data-name="Trazado 169234" d="M221.029,290.835a4.068,4.068,0,0,1-1.144.045,14.651,14.651,0,0,1-5.356-1.27,4.067,4.067,0,0,1-1-.553c.034-.073,1.6.71,3.679,1.2,2.078.5,3.827.5,3.824.583" transform="translate(-109.612 -148.383)" fill="#fafafa"/>
        <path id="Trazado_169235" data-name="Trazado 169235" d="M254.168,283.67a6.891,6.891,0,0,1-3.384,1.379c-.009-.056.759-.307,1.69-.7.937-.372,1.661-.729,1.695-.683" transform="translate(-128.738 -145.618)" fill="#fafafa"/>
        <path id="Trazado_169236" data-name="Trazado 169236" d="M235.315,270.676a2.115,2.115,0,0,1,.677.537,6.171,6.171,0,0,1,1.707,3.746,2.1,2.1,0,0,1-.038.863,8.357,8.357,0,0,0-2.345-5.146" transform="translate(-120.796 -138.949)" fill="#fafafa"/>
        <path id="Trazado_169237" data-name="Trazado 169237" d="M202.952,271.736a1.748,1.748,0,0,1-.223-.459,7.853,7.853,0,0,1-.388-1.336,12.09,12.09,0,0,1,.034-4.572,24.079,24.079,0,0,1,1.325-4.376c.215-.544.4-.979.532-1.277a1.947,1.947,0,0,1,.231-.454,2,2,0,0,1-.139.49l-.456,1.3a29.821,29.821,0,0,0-1.244,4.36,13.16,13.16,0,0,0-.107,4.494c.187,1.143.479,1.81.435,1.827" transform="translate(-103.767 -133.091)" fill="#fafafa"/>
        <path id="Trazado_169238" data-name="Trazado 169238" d="M180.286,264.6a1.873,1.873,0,0,1,.085-.491,11.874,11.874,0,0,1,.384-1.3,16.657,16.657,0,0,1,5.068-7.273,11.833,11.833,0,0,1,1.088-.811,1.913,1.913,0,0,1,.431-.25c.025.037-.553.442-1.4,1.2a18.767,18.767,0,0,0-5.016,7.2c-.414,1.057-.594,1.74-.637,1.729" transform="translate(-92.546 -130.63)" fill="#fafafa"/>
        <path id="Trazado_169239" data-name="Trazado 169239" d="M175.308,240.131c0,.046-.554.071-1.41.314a13.2,13.2,0,0,0-3.162,1.412,14.973,14.973,0,0,0-2.746,2.12c-.634.626-.952,1.081-.989,1.057-.015-.01.054-.131.192-.344a3.855,3.855,0,0,1,.272-.372,5.536,5.536,0,0,1,.4-.465,12.6,12.6,0,0,1,2.745-2.212,11.347,11.347,0,0,1,3.249-1.368,4.607,4.607,0,0,1,.6-.111,3.317,3.317,0,0,1,.459-.045,1.18,1.18,0,0,1,.394.015" transform="translate(-85.728 -123.26)" fill="#fafafa"/>
        <path id="Trazado_169240" data-name="Trazado 169240" d="M166.288,226.276a12.326,12.326,0,0,0-8.017,2.027,4.017,4.017,0,0,1,.987-.769,9.863,9.863,0,0,1,5.8-1.466,4.038,4.038,0,0,1,1.235.207" transform="translate(-81.247 -116.041)" fill="#fafafa"/>
        <path id="Trazado_169241" data-name="Trazado 169241" d="M208.951,292.706a1.9,1.9,0,0,1,.1.318l.242.928c.208.834.5,2.009.865,3.472l2.882,11.9.05.2-.2-.057-5.1-1.434-14.9-4.234.1-.043-2.532,4.389-.7,1.187-.187.306a.447.447,0,0,1-.072.1.425.425,0,0,1,.049-.113l.165-.318.657-1.211,2.46-4.429.035-.063.07.019,14.917,4.167,5.1,1.441-.153.147L210,297.46l-.794-3.488c-.085-.393-.152-.7-.2-.938a1.934,1.934,0,0,1-.055-.328" transform="translate(-97.278 -150.259)" fill="#1a2e35"/>
        <path id="Trazado_169242" data-name="Trazado 169242" d="M252,290.577a1.365,1.365,0,0,1,.1.286l.232.831.806,3.068L255.7,304.9c.491,1.985.97,3.868,1.375,5.6a13.193,13.193,0,0,1,.382,4.7,6.62,6.62,0,0,1-1.117,2.971,3.5,3.5,0,0,1-.8.85,9.371,9.371,0,0,0,.718-.906,6.783,6.783,0,0,0,1.021-2.937,13.357,13.357,0,0,0-.432-4.623c-.429-1.721-.9-3.607-1.393-5.588L252.956,294.8c-.3-1.279-.548-2.326-.728-3.087-.075-.344-.137-.623-.185-.842a1.34,1.34,0,0,1-.048-.3" transform="translate(-129.359 -149.166)" fill="#1a2e35"/>
        <g id="Grupo_118919" data-name="Grupo 118919" transform="translate(124.095 147.282)" opacity="0.3">
          <g id="Grupo_118918" data-name="Grupo 118918">
            <g id="Grupo_118917" data-name="Grupo 118917" clip-path="url(#clip-path-8)">
              <path id="Trazado_169243" data-name="Trazado 169243" d="M257.166,325.4c2.93.27,4.63-1.4,4.943-3.687a8.25,8.25,0,0,0-.654-3.72c-1.8-5.265-3.611-10.575-6.461-15.353,1.076,4.781,2.449,9.372,3.525,14.152a14.827,14.827,0,0,1,.455,4.071,7.333,7.333,0,0,1-1.808,4.535" transform="translate(-254.994 -302.64)"/>
            </g>
          </g>
        </g>
        <path id="Trazado_169244" data-name="Trazado 169244" d="M237.309,239.586a5.959,5.959,0,0,0,7.57-4.526,3.5,3.5,0,0,0,3.02.8,5.762,5.762,0,0,0,2.817-1.52,7.035,7.035,0,0,0,2.365-5.286,5.153,5.153,0,0,0-3.2-4.631,4.086,4.086,0,0,0-5.019,2.038c-.348-1.042.547-2.45.332-3.529-.429-2.164-1.723-3.429-2.821-3.475" transform="translate(-121.821 -112.658)" fill="#1a2e35"/>
        <path id="Trazado_169245" data-name="Trazado 169245" d="M235.491,233.81c2.143-3.737,2.757-8.715,3.3-13.02.255-2.027.7-4.912-.678-6.18-1.48-1.358-1.622-3.452-3.322-4.5a5.088,5.088,0,0,0-5.61.065" transform="translate(-117.648 -107.443)" fill="#1a2e35"/>
        <path id="Trazado_169246" data-name="Trazado 169246" d="M212.162,243.428v-5.863s-6.107-1.079-6.469-5.973-.235-16.194-.235-16.194a16.1,16.1,0,0,1,16.71,1.058l-.247,17.228.012,5.612-5,4.057-4.772,3.758Z" transform="translate(-105.46 -109.625)" fill="#ffc09d"/>
        <path id="Trazado_169247" data-name="Trazado 169247" d="M206.193,221.279a2.385,2.385,0,0,1,3.24-.74,2.9,2.9,0,0,1,.929,3.555,3.651,3.651,0,0,1-2.322,1.823s2.2,4.011,3.6,5.074c1.666,1.267,2.449,1.89,4.505,2.134,2.021.24,1.777.261,2.948-1.456a6.724,6.724,0,0,0,1.143-3.977q.093-5.414.186-10.828a15.964,15.964,0,0,0-.25-3.884,5.232,5.232,0,0,0-1.995-3.207c-1.156-.78-2.618-.843-3.934-1.277a32.089,32.089,0,0,1-4.583-2.47c-1.539-.807-3.426-1.286-4.966-.482-1.106.577-1.846,1.72-2.921,2.355-1.531.9-3.62.707-4.358,3.036a4.063,4.063,0,0,0,.033,2.489,5.512,5.512,0,0,0,7.588,3.052,8,8,0,0,0,.1,3.424c.177.541.241,1.367,1.061,1.38" transform="translate(-101.248 -105.302)" fill="#1a2e35"/>
        <path id="Trazado_169248" data-name="Trazado 169248" d="M217.381,242.08c-.019.007-.018.092.066.211a.7.7,0,0,0,.529.271,1.328,1.328,0,0,0,1.226-1.355,1.444,1.444,0,0,0-.351-1.035,1.411,1.411,0,0,0-.744-.439c-.489-.1-.77.083-.749.115.012.055.292-.024.684.123a1.225,1.225,0,0,1,.821,1.22,1.129,1.129,0,0,1-.889,1.123c-.4.026-.559-.266-.593-.235" transform="translate(-111.579 -123.05)" fill="#ff9b6c"/>
        <path id="Trazado_169249" data-name="Trazado 169249" d="M258.11,239.305a1.481,1.481,0,0,1-.139.46,5.183,5.183,0,0,1-.65,1.139,5.7,5.7,0,0,1-3.634,2.228,5.592,5.592,0,0,1-4.126-1.066,5.052,5.052,0,0,1-.945-.91,1.486,1.486,0,0,1-.261-.4,10.273,10.273,0,0,0,1.31,1.167,5.65,5.65,0,0,0,3.983.962,5.769,5.769,0,0,0,3.532-2.088,10.849,10.849,0,0,0,.93-1.489" transform="translate(-127.491 -122.846)" fill="#375a64"/>
        <path id="Trazado_169250" data-name="Trazado 169250" d="M257.568,237.678a1.165,1.165,0,0,1-.17.376,5.391,5.391,0,0,1-.66.911,6.111,6.111,0,0,1-3.163,1.887,5.981,5.981,0,0,1-3.666-.346,5.174,5.174,0,0,1-.981-.551c-.214-.157-.32-.259-.31-.272.026-.04.49.325,1.359.656a6.213,6.213,0,0,0,3.543.265,6.37,6.37,0,0,0,3.088-1.762c.648-.667.921-1.189.961-1.165" transform="translate(-127.626 -122.01)" fill="#375a64"/>
        <path id="Trazado_169251" data-name="Trazado 169251" d="M231.6,239.5a.781.781,0,0,1-.2.112,2.275,2.275,0,0,1-.644.17,3.493,3.493,0,0,1-2.331-.643,6.776,6.776,0,0,1-2.194-2.852,22.088,22.088,0,0,0-1.99-3.88,4.66,4.66,0,0,0-1.67-1.426,5.948,5.948,0,0,0-2-.527c-1.329-.135-2.558-.047-3.583-.188a5.751,5.751,0,0,1-2.32-.723,3.581,3.581,0,0,1-.53-.4c-.109-.107-.162-.165-.156-.171s.242.21.735.486a6,6,0,0,0,2.291.629c1.008.118,2.224.01,3.587.134a6.1,6.1,0,0,1,2.083.536,4.87,4.87,0,0,1,1.763,1.5,21.155,21.155,0,0,1,2,3.932,6.737,6.737,0,0,0,2.084,2.8,3.494,3.494,0,0,0,2.221.693,4.177,4.177,0,0,0,.856-.184" transform="translate(-109.844 -117.541)" fill="#375a64"/>
        <path id="Trazado_169252" data-name="Trazado 169252" d="M230.917,237.178a.7.7,0,0,1-.218.021,2.426,2.426,0,0,1-.625-.079,3.945,3.945,0,0,1-1.9-1.288,7.4,7.4,0,0,1-.914-1.311c-.28-.5-.535-1.055-.818-1.626a11.225,11.225,0,0,0-1-1.712,5.1,5.1,0,0,0-.694-.765,3.381,3.381,0,0,0-.421-.315,2.446,2.446,0,0,0-.455-.278,5.722,5.722,0,0,0-2.011-.591,15.391,15.391,0,0,0-1.986-.1,27.167,27.167,0,0,1-3.4-.09,6.1,6.1,0,0,1-2.2-.66,4.171,4.171,0,0,1-.52-.351c-.114-.086-.172-.134-.166-.141s.261.154.731.4a6.451,6.451,0,0,0,2.179.569,30.266,30.266,0,0,0,3.383.035,15.085,15.085,0,0,1,2.019.089,5.908,5.908,0,0,1,2.1.613,2.654,2.654,0,0,1,.481.294,3.7,3.7,0,0,1,.445.335,5.3,5.3,0,0,1,.726.806,11.157,11.157,0,0,1,1.006,1.757c.279.577.526,1.132.792,1.627a7.487,7.487,0,0,0,.866,1.3,4.006,4.006,0,0,0,1.793,1.31,6.1,6.1,0,0,0,.816.153" transform="translate(-109.641 -116.985)" fill="#375a64"/>
        <path id="Trazado_169253" data-name="Trazado 169253" d="M249.723,243.572c-.011.011-.111-.066-.269-.227a4.853,4.853,0,0,1-.592-.753,5.993,5.993,0,0,1-.24-6.069,4.915,4.915,0,0,1,.529-.8c.145-.174.237-.258.25-.248.035.027-.282.412-.619,1.127a6.33,6.33,0,0,0,.233,5.895c.392.686.741,1.043.708,1.073" transform="translate(-127.264 -120.88)" fill="#ff4f5b"/>
        <path id="Trazado_169254" data-name="Trazado 169254" d="M390.794,370.222c3.357,1.172,7.737.125,10.609-1.972a26.849,26.849,0,0,0,6.77-8.151,12.091,12.091,0,0,0,1.792-4.154,4.49,4.49,0,0,0-1.278-4.159c-1.8-1.519-4.57-.748-6.619.419a22.827,22.827,0,0,0-11.274,18.017" transform="translate(-200.612 -180.153)" fill="#febf10"/>
        <path id="Trazado_169255" data-name="Trazado 169255" d="M398.2,401.455c2.016,2.66,5.48,3.845,8.815,4a24.365,24.365,0,0,0,9.745-1.963c1.131-.434,2.368-1.029,2.756-2.176a2.767,2.767,0,0,0-.591-2.567,5.747,5.747,0,0,0-2.25-1.534,15.377,15.377,0,0,0-9.81-.531,24.108,24.108,0,0,0-8.666,4.772" transform="translate(-204.414 -203.351)" fill="#febf10"/>
        <path id="Trazado_169256" data-name="Trazado 169256" d="M389.226,339.853c2.779.055,4.883-2.379,6.141-4.858a18.006,18.006,0,0,0,1.656-11.227c-.254-1.42-.791-2.952-2.062-3.635a3.666,3.666,0,0,0-4.055.752,8.33,8.33,0,0,0-2.109,3.8,25.408,25.408,0,0,0,.429,15.168" transform="translate(-199.093 -164.167)" fill="#febf10"/>
        <path id="Trazado_169257" data-name="Trazado 169257" d="M367.179,360.882a33.446,33.446,0,0,0,2.73-26.858c-.454-1.448-1.311-3.1-2.825-3.2-1.677-.107-2.728,1.763-3.191,3.379-1.625,5.667-1.279,11.688-.92,17.572a12.475,12.475,0,0,0,4.207,9.107" transform="translate(-186.175 -169.824)" fill="#febf10"/>
        <path id="Trazado_169258" data-name="Trazado 169258" d="M345.048,386.092a19.384,19.384,0,0,0-11.5-12.194c-1.258-.474-2.858-.744-3.8.219-.92.945-.637,2.523-.046,3.7a18.555,18.555,0,0,0,4.046,4.9,16.734,16.734,0,0,0,4.637,3.453c1.775.777,5.035.974,6.659-.084" transform="translate(-168.972 -191.718)" fill="#febf10"/>
        <path id="Trazado_169259" data-name="Trazado 169259" d="M399.226,356.834s-.026.028-.083.074l-.255.2-.993.743-.721.532c-.259.2-.53.432-.826.673-.586.491-1.279,1.018-1.977,1.681l-1.117,1.015c-.386.355-.759.756-1.161,1.153-.816.784-1.605,1.7-2.455,2.645a52.178,52.178,0,0,0-8.661,14.012c-.466,1.183-.931,2.3-1.268,3.379-.176.537-.367,1.049-.512,1.554l-.409,1.453c-.281.921-.443,1.777-.619,2.52-.082.373-.169.718-.232,1.04s-.108.615-.154.882l-.22,1.22c-.026.128-.046.233-.063.317a.056.056,0,1,1-.023,0c.011-.085.024-.19.041-.32.043-.3.1-.709.179-1.228l.135-.888c.057-.323.138-.67.215-1.046.165-.747.317-1.609.589-2.535q.189-.7.4-1.462c.141-.508.329-1.022.5-1.563.331-1.087.791-2.209,1.254-3.4a51.054,51.054,0,0,1,8.7-14.068c.857-.946,1.656-1.859,2.48-2.641.406-.4.783-.8,1.174-1.148l1.13-1.008c.707-.658,1.409-1.179,2-1.66.3-.237.576-.464.839-.66l.734-.517,1.019-.71.268-.18a.4.4,0,0,1,.1-.055" transform="translate(-193.771 -183.178)" fill="#1a2e35"/>
        <path id="Trazado_169260" data-name="Trazado 169260" d="M405.711,401.84a1.816,1.816,0,0,1-.325-.054c-.212-.038-.52-.12-.923-.187a26.046,26.046,0,0,0-3.43-.419,25.034,25.034,0,0,0-20.327,8.458,25.988,25.988,0,0,0-2.12,2.729c-.237.333-.4.609-.518.786a1.876,1.876,0,0,1-.191.269,1.794,1.794,0,0,1,.152-.293c.11-.185.257-.469.483-.811a23.178,23.178,0,0,1,2.074-2.786,24.633,24.633,0,0,1,20.455-8.512,23.156,23.156,0,0,1,3.438.492c.4.081.707.176.916.229a1.83,1.83,0,0,1,.314.1" transform="translate(-193.981 -205.829)" fill="#1a2e35"/>
        <path id="Trazado_169261" data-name="Trazado 169261" d="M388,327.1a.512.512,0,0,1-.018.125l-.075.363-.311,1.388c-.273,1.2-.689,2.944-1.212,5.09-1.044,4.293-2.561,10.2-4.141,16.756-.785,3.278-1.5,6.409-2.109,9.263s-1.114,5.436-1.5,7.611c-.2,1.085-.358,2.072-.5,2.937s-.264,1.611-.353,2.222-.166,1.068-.219,1.4c-.026.15-.046.271-.063.365a.514.514,0,0,1-.029.123.537.537,0,0,1,.006-.126c.01-.1.024-.217.04-.368l.177-1.412c.076-.613.178-1.362.316-2.229s.277-1.857.472-2.945c.362-2.18.859-4.764,1.449-7.626s1.308-5.994,2.093-9.273c1.581-6.554,3.123-12.459,4.206-16.742l1.281-5.072c.15-.586.268-1.048.352-1.379l.1-.357a.517.517,0,0,1,.04-.12" transform="translate(-193.771 -167.915)" fill="#1a2e35"/>
        <path id="Trazado_169262" data-name="Trazado 169262" d="M373.295,382.412a.331.331,0,0,1-.03-.1l-.066-.291-.233-1.123c-.2-.976-.467-2.392-.77-4.147-.608-3.508-1.329-8.381-1.771-13.8-.215-2.711-.334-5.3-.386-7.654s-.018-4.478.055-6.257c.022-.891.08-1.695.119-2.4s.086-1.314.132-1.81l.105-1.142c.013-.119.024-.216.033-.3a.346.346,0,0,1,.019-.1.363.363,0,0,1,0,.1c0,.081-.007.179-.011.3-.015.28-.037.662-.063,1.144s-.07,1.1-.094,1.811-.074,1.509-.086,2.4c-.053,1.778-.057,3.9-.007,6.247s.189,4.935.4,7.641c.442,5.411,1.137,10.28,1.7,13.793.283,1.756.526,3.176.7,4.157q.122.714.192,1.13c.018.119.033.216.044.295a.352.352,0,0,1,.008.1" transform="translate(-189.946 -176.227)" fill="#1a2e35"/>
        <path id="Trazado_169263" data-name="Trazado 169263" d="M357.306,402.421a1.591,1.591,0,0,1-.124-.278l-.312-.811-.222-.586-.3-.682L356,399.28c-.123-.277-.281-.557-.431-.859l-.484-.94-.576-.991c-.381-.7-.873-1.386-1.348-2.139a50.644,50.644,0,0,0-3.569-4.561,56.089,56.089,0,0,0-4.1-4.1c-.681-.575-1.3-1.149-1.935-1.63l-.9-.715-.852-.628c-.537-.408-1.043-.748-1.488-1.047s-.825-.56-1.149-.753l-.734-.465a1.62,1.62,0,0,1-.249-.176,1.512,1.512,0,0,1,.272.137l.757.43c.331.183.724.428,1.173.724s.966.622,1.512,1.023l.863.619.908.708c.638.477,1.269,1.048,1.956,1.621a53.082,53.082,0,0,1,4.126,4.105,48.2,48.2,0,0,1,3.573,4.595c.473.76.962,1.458,1.337,2.161l.567,1,.474.952c.146.3.3.588.419.87l.334.794.288.691.205.6.273.827a1.51,1.51,0,0,1,.081.293" transform="translate(-173.607 -195.211)" fill="#1a2e35"/>
        <path id="Trazado_169264" data-name="Trazado 169264" d="M408.033,375.977c0,.036-.574.036-1.5.087a26.8,26.8,0,0,0-7.064,1.341c-.877.291-1.411.5-1.424.468a1.408,1.408,0,0,1,.356-.193c.235-.112.581-.258,1.016-.424a21.326,21.326,0,0,1,7.111-1.35c.465-.006.841,0,1.1.022a1.411,1.411,0,0,1,.4.049" transform="translate(-204.335 -192.968)" fill="#1a2e35"/>
        <path id="Trazado_169265" data-name="Trazado 169265" d="M420.911,406.544a10.877,10.877,0,0,0-4.741-5.105,3.339,3.339,0,0,1,.963.426,8.507,8.507,0,0,1,3.424,3.687,3.33,3.33,0,0,1,.354.992" transform="translate(-213.638 -206.075)" fill="#1a2e35"/>
        <path id="Trazado_169266" data-name="Trazado 169266" d="M397.205,340.553c.045.048-.827.913-1.78,2.085s-1.628,2.2-1.685,2.162a13.35,13.35,0,0,1,3.464-4.247" transform="translate(-202.123 -174.82)" fill="#1a2e35"/>
        <path id="Trazado_169267" data-name="Trazado 169267" d="M394.961,330.395a16.511,16.511,0,0,1,.643,3.778,16.51,16.51,0,0,1-.643-3.778" transform="translate(-202.741 -169.606)" fill="#1a2e35"/>
        <path id="Trazado_169268" data-name="Trazado 169268" d="M373.624,362.276a46.65,46.65,0,0,1-2.973,5.735,46.808,46.808,0,0,1,2.973-5.735" transform="translate(-190.27 -185.972)" fill="#1a2e35"/>
        <path id="Trazado_169269" data-name="Trazado 169269" d="M365.917,351.452a26.156,26.156,0,0,1,2.151,4.323,26.156,26.156,0,0,1-2.151-4.323" transform="translate(-187.839 -180.415)" fill="#1a2e35"/>
        <path id="Trazado_169270" data-name="Trazado 169270" d="M345.491,388c-.015.064-.956-.119-2.129-.2s-2.13-.038-2.135-.1a8.533,8.533,0,0,1,4.264.3" transform="translate(-175.167 -198.944)" fill="#1a2e35"/>
        <path id="Trazado_169271" data-name="Trazado 169271" d="M360.871,421.2l2.638,13.873a1.945,1.945,0,0,0,1.911,1.582h7.793a1.944,1.944,0,0,0,1.918-1.626l2.294-13.828Z" transform="translate(-185.251 -216.218)" fill="#4c53b5"/>
        <path id="Trazado_169272" data-name="Trazado 169272" d="M361.728,425.7h14.9l.792-4.509H360.87Z" transform="translate(-185.25 -216.218)" fill="#375a64"/>
        <path id="Trazado_169273" data-name="Trazado 169273" d="M362.632,430.461l.312,1.644h14.363l.229-1.644Z" transform="translate(-186.155 -220.974)" fill="#fafafa"/>
      </g>
    </g>
  </g>
</svg>
