<svg xmlns="http://www.w3.org/2000/svg" xmlns:xlink="http://www.w3.org/1999/xlink" width="503" height="265.5" viewBox="0 0 503 265.5">
  <defs>
    <clipPath id="clip-path">
      <rect id="Rectángulo_43316" data-name="Rectángulo 43316" width="204.7" height="204.7" fill="none"/>
    </clipPath>
  </defs>
  <g id="Grupo_129714" data-name="Grupo 129714" transform="translate(-181 -398.14)">
    <g id="Grupo_129713" data-name="Grupo 129713">
      <g id="Grupo_129712" data-name="Grupo 129712">
        <g id="Grupo_119239" data-name="Grupo 119239">
          <path id="Rectángulo_41476" data-name="Rectángulo 41476" d="M0,0H473.5a0,0,0,0,1,0,0V224a20,20,0,0,1-20,20H0a0,0,0,0,1,0,0V0A0,0,0,0,1,0,0Z" transform="translate(210.5 419.64)" fill="#fed563"/>
          <rect id="pexels-monstera-3" width="472" height="239" rx="20" transform="translate(181 398.14)" fill="#f3f3f3"/>
        </g>
        <g id="Grupo_118767" data-name="Grupo 118767" transform="translate(317 419.64)">
          <g id="Grupo_118766" data-name="Grupo 118766" clip-path="url(#clip-path)">
            <path id="Trazado_168031" data-name="Trazado 168031" d="M102.35,0A102.35,102.35,0,1,0,204.7,102.349,102.35,102.35,0,0,0,102.35,0" transform="translate(0 0.001)" fill="#4169e1"/>
            <path id="Trazado_168032" data-name="Trazado 168032" d="M153.7,227.076A73.378,73.378,0,1,1,227.076,153.7,73.378,73.378,0,0,1,153.7,227.076" transform="translate(-51.348 -51.348)" fill="#fff"/>
            <path id="Trazado_168033" data-name="Trazado 168033" d="M303.554,33.115a4.618,4.618,0,0,1-1.7,2.991,4.545,4.545,0,0,1-3.342.86,4.623,4.623,0,0,1-3.464-1.869,5.873,5.873,0,0,1-.969-4.173,6.493,6.493,0,0,1,.848-2.711,5.049,5.049,0,0,1,7.592-1.136,3.9,3.9,0,0,1,1.248,2.837l-1.85-.178a2.449,2.449,0,0,0-.751-1.585,2.749,2.749,0,0,0-1.678-.711,2.785,2.785,0,0,0-1.855.423,3.251,3.251,0,0,0-1.186,1.369,5.739,5.739,0,0,0-.489,1.872,5.813,5.813,0,0,0,.038,1.48,4.544,4.544,0,0,0,.416,1.312,2.638,2.638,0,0,0,.889,1.012,2.934,2.934,0,0,0,1.406.481q2.372.229,2.976-2.454Z" transform="translate(-187.98 -16.515)" fill="#fff"/>
            <path id="Trazado_168034" data-name="Trazado 168034" d="M336.026,31.5l-.357,1.532-5.677-1.322-.643,2.758,5.269,1.227-.343,1.474-5.269-1.227-.714,3.065,5.765,1.343-.364,1.562-7.575-1.764,2.42-10.392Z" transform="translate(-208.486 -19.024)" fill="#fff"/>
            <path id="Trazado_168035" data-name="Trazado 168035" d="M357.449,37.772l4.726,1.783a4.381,4.381,0,0,1,2.175,1.581,2.574,2.574,0,0,1,.144,2.465,2.845,2.845,0,0,1-1.014,1.372,2.574,2.574,0,0,1-1.567.458,2.168,2.168,0,0,1,.536.491,1.632,1.632,0,0,1,.276.52,1.812,1.812,0,0,1,.055.6,3.831,3.831,0,0,1-.07.59c-.035.163-.091.374-.167.634q-.023.1-.107.392l-.112.382c-.018.063-.049.171-.091.326s-.071.265-.084.329-.031.159-.051.285-.034.223-.038.291-.007.147-.009.236a.986.986,0,0,0,.022.241,1.071,1.071,0,0,0,.068.2l-1.879-.709a.771.771,0,0,1-.027-.162,1.482,1.482,0,0,1,0-.192,1.45,1.45,0,0,1,.021-.184q.015-.082.044-.224c.019-.094.037-.17.054-.228l.074-.26c.033-.116.058-.2.074-.26s.046-.159.09-.3.076-.243.1-.3a2.829,2.829,0,0,0,.12-1.869,2.5,2.5,0,0,0-1.5-1.087l-2.328-.878-1.554,4.122-1.739-.656Zm1.2,2.086-1.18,3.127,2.314.873a5.872,5.872,0,0,0,.877.267,3.389,3.389,0,0,0,.785.063,1.155,1.155,0,0,0,.729-.277,1.842,1.842,0,0,0,.512-.784,1.786,1.786,0,0,0,.131-.855,1.145,1.145,0,0,0-.307-.653,2.543,2.543,0,0,0-.566-.454,5.082,5.082,0,0,0-.757-.35Z" transform="translate(-226.109 -24.147)" fill="#fff"/>
            <path id="Trazado_168036" data-name="Trazado 168036" d="M398.506,53.893l-.76,1.429-3-1.6-4.253,7.991-1.654-.88,4.253-7.99-3-1.6.76-1.429Z" transform="translate(-248.581 -31.847)" fill="#fff"/>
            <rect id="Rectángulo_43306" data-name="Rectángulo 43306" width="10.67" height="1.888" transform="matrix(0.547, -0.837, 0.837, 0.547, 146.695, 32.698)" fill="#fff"/>
            <path id="Trazado_168037" data-name="Trazado 168037" d="M430.856,79.849l-.986,1.246-4.313-3.413-1.8,2.28,3.784,2.995-.939,1.187-3.784-2.994L419.921,84.8l-1.481-1.172,6.622-8.367Z" transform="translate(-267.507 -48.116)" fill="#fff"/>
            <rect id="Rectángulo_43307" data-name="Rectángulo 43307" width="10.67" height="1.888" transform="translate(158.466 41.792) rotate(-46.518)" fill="#fff"/>
            <path id="Trazado_168038" data-name="Trazado 168038" d="M462.577,111.9l-1.185,1.036-3.838-4.388-2.132,1.865,3.562,4.072-1.139,1-3.562-4.072-2.369,2.072,3.9,4.455-1.207,1.056-5.121-5.854,8.031-7.025Z" transform="translate(-287.353 -67.839)" fill="#fff"/>
            <path id="Trazado_168039" data-name="Trazado 168039" d="M476.8,130.944l2.248,3.382a7.366,7.366,0,0,1,.885,1.751,3.839,3.839,0,0,1,.137,1.762,5.168,5.168,0,0,1-2.511,3.559,5.862,5.862,0,0,1-4.437,1.149,3.7,3.7,0,0,1-1.56-.681,6.457,6.457,0,0,1-1.343-1.546l-2.306-3.469Zm-.294,2.427-6.253,4.156,1.219,1.835a2.817,2.817,0,0,0,2.218,1.5,4.848,4.848,0,0,0,2.757-.97,4.068,4.068,0,0,0,1.792-2.163,3.08,3.08,0,0,0-.58-2.619Z" transform="translate(-299.135 -83.712)" fill="#fff"/>
            <path id="Trazado_168040" data-name="Trazado 168040" d="M504.255,181.08a2.678,2.678,0,1,1-2.043.024,2.571,2.571,0,0,1,2.043-.024" transform="translate(-320.019 -115.636)" fill="#fff"/>
            <path id="Trazado_168041" data-name="Trazado 168041" d="M511.612,227.3a4.616,4.616,0,0,1-3.368-.689,4.545,4.545,0,0,1-1.85-2.914,4.619,4.619,0,0,1,.709-3.871,5.871,5.871,0,0,1,3.67-2.21,6.486,6.486,0,0,1,2.841-.03,5.05,5.05,0,0,1,3.424,6.871,3.9,3.9,0,0,1-2.314,2.063l-.4-1.815a2.452,2.452,0,0,0,1.277-1.2,2.749,2.749,0,0,0,.158-1.815,2.781,2.781,0,0,0-.976-1.634,3.248,3.248,0,0,0-1.668-.705,5.734,5.734,0,0,0-1.932.113,5.835,5.835,0,0,0-1.4.493,4.537,4.537,0,0,0-1.12.8,2.641,2.641,0,0,0-.688,1.158,2.93,2.93,0,0,0-.024,1.486q.515,2.327,3.253,2.074Z" transform="translate(-323.644 -139.008)" fill="#fff"/>
            <path id="Trazado_168042" data-name="Trazado 168042" d="M522.218,259.226l-1.568.134-.5-5.809-2.822.24.46,5.391-1.508.129-.46-5.391-3.136.267.5,5.9-1.6.136-.661-7.75,10.632-.906Z" transform="translate(-326.637 -160.825)" fill="#fff"/>
            <path id="Trazado_168043" data-name="Trazado 168043" d="M522.857,282.951,522.635,288a4.384,4.384,0,0,1-.826,2.558,2.574,2.574,0,0,1-2.3.9,2.85,2.85,0,0,1-1.619-.537,2.579,2.579,0,0,1-.923-1.346,2.164,2.164,0,0,1-.3.661,1.634,1.634,0,0,1-.409.425,1.822,1.822,0,0,1-.551.238,4.02,4.02,0,0,1-.583.117q-.249.026-.654.038c-.07.007-.206.014-.406.019l-.4.012-.338.015c-.161.008-.273.016-.339.023s-.161.021-.287.04a2.815,2.815,0,0,0-.287.055q-.1.025-.228.065a.964.964,0,0,0-.221.095,1.034,1.034,0,0,0-.171.128l.088-2.007a.757.757,0,0,1,.146-.076,1.493,1.493,0,0,1,.183-.06,1.576,1.576,0,0,1,.182-.037l.226-.027c.1-.011.173-.017.234-.02l.27-.011.271-.01.316-.008c.15,0,.255,0,.315,0a2.832,2.832,0,0,0,1.813-.467,2.5,2.5,0,0,0,.566-1.768l.11-2.485-4.4-.195.082-1.856Zm-1.609,1.789-3.339-.148-.109,2.47a5.912,5.912,0,0,0,.02.916,3.36,3.36,0,0,0,.184.765,1.16,1.16,0,0,0,.491.607,1.851,1.851,0,0,0,.9.242,1.789,1.789,0,0,0,.853-.142,1.144,1.144,0,0,0,.525-.494,2.557,2.557,0,0,0,.255-.679,5.037,5.037,0,0,0,.1-.829Z" transform="translate(-327.191 -180.589)" fill="#fff"/>
            <path id="Trazado_168044" data-name="Trazado 168044" d="M518.744,324.331l-1.6-.276.58-3.352-8.919-1.544.32-1.846,8.919,1.544.58-3.352,1.6.276Z" transform="translate(-325.28 -201.701)" fill="#fff"/>
            <rect id="Rectángulo_43308" data-name="Rectángulo 43308" width="1.889" height="10.671" transform="matrix(0.259, -0.966, 0.966, 0.259, 181.845, 124.711)" fill="#fff"/>
            <path id="Trazado_168045" data-name="Trazado 168045" d="M508.047,364.882l-1.49-.55,1.9-5.16-2.728-1.006-1.669,4.528-1.42-.523,1.669-4.528-4.373-1.612.653-1.771,10.012,3.69Z" transform="translate(-319.608 -226.476)" fill="#fff"/>
            <rect id="Rectángulo_43309" data-name="Rectángulo 43309" width="1.888" height="10.67" transform="matrix(0.429, -0.903, 0.903, 0.429, 176.54, 138.612)" fill="#fff"/>
            <path id="Trazado_168046" data-name="Trazado 168046" d="M483.785,404.23l-1.352-.806,2.985-5.007-2.433-1.45-2.77,4.647-1.3-.775,2.77-4.647-2.7-1.611-3.031,5.084-1.377-.821,3.982-6.681,9.165,5.464Z" transform="translate(-303.392 -250.708)" fill="#fff"/>
            <path id="Trazado_168047" data-name="Trazado 168047" d="M472.212,423.037l-2.521,3.184A7.349,7.349,0,0,1,468.3,427.6a3.848,3.848,0,0,1-1.634.675,5.167,5.167,0,0,1-4.161-1.288,5.864,5.864,0,0,1-2.465-3.863,3.715,3.715,0,0,1,.166-1.694,6.466,6.466,0,0,1,1.055-1.755l2.587-3.266Zm-2.4.471-5.886-4.662-1.368,1.727a2.817,2.817,0,0,0-.736,2.571,4.847,4.847,0,0,0,1.774,2.322,4.07,4.07,0,0,0,2.611,1.036,3.082,3.082,0,0,0,2.312-1.362Z" transform="translate(-294.082 -266.21)" fill="#fff"/>
            <path id="Trazado_168048" data-name="Trazado 168048" d="M441.97,462.716a2.677,2.677,0,1,1-.656-1.935,2.572,2.572,0,0,1,.656,1.935" transform="translate(-279.138 -293.99)" fill="#fff"/>
            <path id="Trazado_168049" data-name="Trazado 168049" d="M393.481,485.191a4.614,4.614,0,0,1-.4-3.415,4.547,4.547,0,0,1,2.191-2.667,4.624,4.624,0,0,1,3.9-.535,5.874,5.874,0,0,1,3.245,2.8,6.492,6.492,0,0,1,.915,2.689,5.05,5.05,0,0,1-5.459,5.4,3.9,3.9,0,0,1-2.681-1.555l1.6-.947a2.451,2.451,0,0,0,1.541.836,2.749,2.749,0,0,0,1.774-.416,2.78,2.78,0,0,0,1.248-1.437,3.249,3.249,0,0,0,.149-1.8,6.086,6.086,0,0,0-1.614-2.972,4.524,4.524,0,0,0-1.11-.814,2.637,2.637,0,0,0-1.314-.292,2.93,2.93,0,0,0-1.42.441q-2.05,1.215-.955,3.737Z" transform="translate(-251.19 -305.811)" fill="#fff"/>
            <path id="Trazado_168050" data-name="Trazado 168050" d="M366.909,503.357l-.616-1.448,5.364-2.282-1.109-2.606-4.978,2.118-.593-1.393,4.978-2.118-1.232-2.9-5.447,2.318-.628-1.475,7.157-3.045,4.177,9.819Z" transform="translate(-231.84 -313.593)" fill="#fff"/>
            <path id="Trazado_168051" data-name="Trazado 168051" d="M343.548,511.531l-4.867,1.348a4.382,4.382,0,0,1-2.689.006,2.574,2.574,0,0,1-1.57-1.906,2.842,2.842,0,0,1,.01-1.705,2.573,2.573,0,0,1,.994-1.294,2.165,2.165,0,0,1-.722-.08,1.634,1.634,0,0,1-.53-.257,1.809,1.809,0,0,1-.4-.45,3.956,3.956,0,0,1-.291-.518q-.1-.229-.239-.611c-.028-.065-.076-.192-.144-.379l-.135-.375q-.034-.092-.119-.317c-.057-.15-.1-.255-.126-.315s-.069-.147-.127-.26a2.916,2.916,0,0,0-.141-.256c-.037-.058-.081-.123-.132-.2a.983.983,0,0,0-.159-.181,1.081,1.081,0,0,0-.174-.123l1.935-.536a.777.777,0,0,1,.117.115,1.44,1.44,0,0,1,.113.156,1.5,1.5,0,0,1,.091.161c.024.05.056.119.1.206s.07.159.091.216l.094.254.093.254c.021.057.056.155.106.3s.083.241.1.3a2.832,2.832,0,0,0,1.005,1.58,2.5,2.5,0,0,0,1.856-.009l2.4-.664-1.177-4.246,1.791-.5Zm-2.2-.977-.892-3.221-2.383.66a5.935,5.935,0,0,0-.865.3,3.433,3.433,0,0,0-.671.412,1.158,1.158,0,0,0-.425.654,1.851,1.851,0,0,0,.049.935,1.78,1.78,0,0,0,.4.768,1.141,1.141,0,0,0,.632.346,2.546,2.546,0,0,0,.724.032,5.083,5.083,0,0,0,.818-.164Z" transform="translate(-212.24 -320.446)" fill="#fff"/>
            <path id="Trazado_168052" data-name="Trazado 168052" d="M308.3,521.247l-.229-1.6,3.368-.481-1.281-8.961,1.854-.265,1.281,8.96,3.368-.481.229,1.6Z" transform="translate(-196.947 -326.001)" fill="#fff"/>
            <rect id="Rectángulo_43310" data-name="Rectángulo 43310" width="1.889" height="10.67" transform="matrix(0.999, -0.052, 0.052, 0.999, 105.787, 184.84)" fill="#fff"/>
            <path id="Trazado_168053" data-name="Trazado 168053" d="M262.867,523.069l.058-1.587,5.5.2.106-2.905-4.823-.177.056-1.512,4.823.176.17-4.658,1.887.069-.391,10.663Z" transform="translate(-168.05 -327.708)" fill="#fff"/>
            <rect id="Rectángulo_43311" data-name="Rectángulo 43311" width="10.67" height="1.888" transform="translate(89.571 194.71) rotate(-82.766)" fill="#fff"/>
            <path id="Trazado_168054" data-name="Trazado 168054" d="M216.093,515.015l.343-1.536,5.689,1.273.618-2.764-5.28-1.181.33-1.477,5.28,1.18.687-3.071-5.777-1.292.35-1.565,7.59,1.7L223.6,516.693Z" transform="translate(-138.147 -322.577)" fill="#fff"/>
            <path id="Trazado_168055" data-name="Trazado 168055" d="M192.588,509.276l-3.81-1.407a7.358,7.358,0,0,1-1.747-.892,3.845,3.845,0,0,1-1.15-1.344,5.168,5.168,0,0,1-.07-4.355,5.866,5.866,0,0,1,2.906-3.544,3.709,3.709,0,0,1,1.661-.369,6.471,6.471,0,0,1,2,.458l3.908,1.443Zm-1.193-2.134L194,500.1l-2.067-.763a2.816,2.816,0,0,0-2.672.1,4.843,4.843,0,0,0-1.656,2.408,4.07,4.07,0,0,0-.173,2.8,3.083,3.083,0,0,0,2.013,1.774Z" transform="translate(-118.506 -317.963)" fill="#fff"/>
            <path id="Trazado_168056" data-name="Trazado 168056" d="M154.956,490.967a2.676,2.676,0,1,1,1.637-1.222,2.571,2.571,0,0,1-1.637,1.222" transform="translate(-96.934 -310.507)" fill="#fff"/>
            <path id="Trazado_168057" data-name="Trazado 168057" d="M110.238,452.735a4.614,4.614,0,0,1,3.125-1.433,4.546,4.546,0,0,1,3.214,1.259,4.622,4.622,0,0,1,1.715,3.543,5.875,5.875,0,0,1-1.657,3.951,6.474,6.474,0,0,1-2.274,1.7,5.05,5.05,0,0,1-6.821-3.521,3.907,3.907,0,0,1,.649-3.031l1.4,1.227a2.453,2.453,0,0,0-.319,1.725,2.747,2.747,0,0,0,.945,1.558,2.778,2.778,0,0,0,1.752.742,3.25,3.25,0,0,0,1.762-.416,5.744,5.744,0,0,0,1.493-1.233,5.809,5.809,0,0,0,.835-1.222,4.562,4.562,0,0,0,.431-1.308,2.641,2.641,0,0,0-.129-1.34,2.938,2.938,0,0,0-.858-1.213q-1.79-1.573-3.849.248Z" transform="translate(-68.697 -288.514)" fill="#fff"/>
            <path id="Trazado_168058" data-name="Trazado 168058" d="M81.6,432.63l1.185-1.035,3.835,4.391,2.133-1.863-3.559-4.075,1.14-1,3.559,4.075,2.37-2.071L88.365,426.6l1.208-1.055,5.117,5.858-8.037,7.019Z" transform="translate(-52.163 -272.047)" fill="#fff"/>
            <path id="Trazado_168059" data-name="Trazado 168059" d="M68.422,412.62l-2.8-4.2a4.382,4.382,0,0,1-.844-2.552,2.574,2.574,0,0,1,1.321-2.086,2.845,2.845,0,0,1,1.624-.523,2.576,2.576,0,0,1,1.539.541,2.174,2.174,0,0,1-.149-.711,1.639,1.639,0,0,1,.08-.584,1.809,1.809,0,0,1,.3-.517,3.927,3.927,0,0,1,.4-.439q.185-.167.5-.417.08-.071.316-.255l.314-.245c.052-.04.14-.111.264-.212s.211-.174.26-.217.118-.112.208-.2a2.9,2.9,0,0,0,.2-.213c.043-.053.092-.115.146-.187a.994.994,0,0,0,.123-.208,1.051,1.051,0,0,0,.062-.2l1.113,1.672a.731.731,0,0,1-.073.147,1.359,1.359,0,0,1-.112.156,1.559,1.559,0,0,1-.124.137c-.04.039-.1.09-.167.155s-.129.116-.177.154l-.212.168-.212.168c-.047.038-.13.1-.249.193s-.2.154-.254.187a2.831,2.831,0,0,0-1.187,1.448,2.5,2.5,0,0,0,.587,1.761l1.379,2.07,3.667-2.442,1.03,1.547Zm.242-2.394,2.782-1.852-1.37-2.058a5.853,5.853,0,0,0-.557-.728,3.38,3.38,0,0,0-.6-.51,1.161,1.161,0,0,0-.754-.2,1.854,1.854,0,0,0-.873.338,1.785,1.785,0,0,0-.605.619,1.143,1.143,0,0,0-.132.708,2.554,2.554,0,0,0,.2.7,4.985,4.985,0,0,0,.411.725Z" transform="translate(-41.412 -255.197)" fill="#fff"/>
            <path id="Trazado_168060" data-name="Trazado 168060" d="M46.667,384.515l1.451-.719,1.509,3.049,8.112-4.016.831,1.679-8.112,4.016,1.509,3.048-1.45.719Z" transform="translate(-29.834 -244.741)" fill="#fff"/>
            <rect id="Rectángulo_43312" data-name="Rectángulo 43312" width="10.67" height="1.888" transform="translate(15.028 135.074) rotate(-21.136)" fill="#fff"/>
            <path id="Trazado_168061" data-name="Trazado 168061" d="M32.092,342.155l1.528-.435,1.509,5.289,2.8-.8L36.6,341.57l1.455-.415,1.323,4.64,4.482-1.278.518,1.815-10.261,2.927Z" transform="translate(-20.516 -218.099)" fill="#fff"/>
            <rect id="Rectángulo_43313" data-name="Rectángulo 43313" width="10.671" height="1.888" transform="translate(10.58 118.862) rotate(-10.723)" fill="#fff"/>
            <path id="Trazado_168062" data-name="Trazado 168062" d="M25.383,295.022l1.567-.147.545,5.8,2.82-.265-.506-5.386,1.507-.142.506,5.386,3.133-.294-.554-5.894,1.6-.15.728,7.744-10.624,1Z" transform="translate(-16.227 -187.911)" fill="#fff"/>
            <path id="Trazado_168063" data-name="Trazado 168063" d="M25.037,270.024l.151-4.059a7.33,7.33,0,0,1,.3-1.938,3.855,3.855,0,0,1,.918-1.511,5.17,5.17,0,0,1,4.117-1.421,5.867,5.867,0,0,1,4.273,1.659,3.724,3.724,0,0,1,.868,1.464,6.454,6.454,0,0,1,.186,2.039l-.155,4.163Zm1.657-1.8,7.5.279.082-2.2a2.819,2.819,0,0,0-.926-2.509,4.843,4.843,0,0,0-2.8-.824,4.072,4.072,0,0,0-2.718.708,3.082,3.082,0,0,0-1.059,2.465Z" transform="translate(-16.006 -166.913)" fill="#fff"/>
            <path id="Trazado_168064" data-name="Trazado 168064" d="M38.987,226.949a2.677,2.677,0,1,1,1.672,1.173,2.573,2.573,0,0,1-1.672-1.173" transform="translate(-24.657 -142.464)" fill="#fff"/>
            <path id="Trazado_168065" data-name="Trazado 168065" d="M53.182,174.329a4.613,4.613,0,0,1,2.332,2.526,4.543,4.543,0,0,1-.2,3.445,4.623,4.623,0,0,1-2.836,2.729,5.876,5.876,0,0,1-4.27-.349,6.5,6.5,0,0,1-2.324-1.634,5.051,5.051,0,0,1,1.23-7.578,3.9,3.9,0,0,1,3.083-.324l-.733,1.708a2.45,2.45,0,0,0-1.739.232,2.744,2.744,0,0,0-1.189,1.382,2.782,2.782,0,0,0-.162,1.9,3.245,3.245,0,0,0,.943,1.546,5.739,5.739,0,0,0,1.635,1.037,5.833,5.833,0,0,0,1.42.414,4.563,4.563,0,0,0,1.376,0,2.648,2.648,0,0,0,1.234-.538,2.936,2.936,0,0,0,.887-1.194q.94-2.189-1.43-3.582Z" transform="translate(-28.543 -110.582)" fill="#fff"/>
            <path id="Trazado_168066" data-name="Trazado 168066" d="M60.535,141.678l1.351.807-2.99,5,2.432,1.453L64.1,144.3l1.3.776-2.774,4.644,2.7,1.614,3.036-5.082,1.376.823-3.989,6.677-9.16-5.472Z" transform="translate(-36.179 -90.574)" fill="#fff"/>
            <path id="Trazado_168067" data-name="Trazado 168067" d="M73.752,122.614l3.133-3.961a4.383,4.383,0,0,1,2.166-1.593,2.575,2.575,0,0,1,2.392.611,2.847,2.847,0,0,1,1,1.382,2.576,2.576,0,0,1-.039,1.631,2.174,2.174,0,0,1,.63-.361,1.635,1.635,0,0,1,.58-.105,1.823,1.823,0,0,1,.586.129,3.915,3.915,0,0,1,.541.246q.217.124.553.351c.061.036.175.11.341.221l.33.224c.054.036.148.1.283.185s.231.148.288.18.142.078.256.136.2.1.265.123.138.052.223.08a.942.942,0,0,0,.236.053,1,1,0,0,0,.213,0l-1.246,1.576a.709.709,0,0,1-.163-.024,1.5,1.5,0,0,1-.183-.058,1.535,1.535,0,0,1-.169-.076c-.049-.026-.116-.063-.2-.11s-.151-.087-.2-.12l-.225-.15-.226-.149-.261-.178c-.124-.085-.209-.147-.256-.184a2.829,2.829,0,0,0-1.744-.682,2.5,2.5,0,0,0-1.493,1.1l-1.543,1.951,3.456,2.733-1.153,1.458Zm2.352-.51,2.622,2.073,1.534-1.94a5.866,5.866,0,0,0,.52-.754,3.405,3.405,0,0,0,.3-.729,1.159,1.159,0,0,0-.043-.779,1.845,1.845,0,0,0-.592-.726,1.778,1.778,0,0,0-.776-.384,1.141,1.141,0,0,0-.714.094,2.521,2.521,0,0,0-.6.4,4.971,4.971,0,0,0-.563.615Z" transform="translate(-47.149 -74.777)" fill="#fff"/>
            <path id="Trazado_168068" data-name="Trazado 168068" d="M100.6,90.609l1.132,1.157L99.3,94.145l6.331,6.47-1.339,1.31L97.96,95.455l-2.431,2.379L94.4,96.677Z" transform="translate(-60.348 -57.926)" fill="#fff"/>
            <rect id="Rectángulo_43314" data-name="Rectángulo 43314" width="1.888" height="10.67" transform="translate(42.679 30.714) rotate(-39.244)" fill="#fff"/>
            <path id="Trazado_168069" data-name="Trazado 168069" d="M137.522,63.267l.89,1.315-4.554,3.083,1.63,2.408,4-2.7.849,1.253-4,2.706,2.613,3.86-1.564,1.059L131.4,67.409Z" transform="translate(-84.006 -40.447)" fill="#fff"/>
            <rect id="Rectángulo_43315" data-name="Rectángulo 43315" width="1.888" height="10.67" transform="translate(56.493 21.161) rotate(-28.923)" fill="#fff"/>
            <path id="Trazado_168070" data-name="Trazado 168070" d="M178.433,42.21l.629,1.442-5.344,2.329,1.132,2.6,4.96-2.162.6,1.388-4.959,2.162,1.257,2.885,5.426-2.366.641,1.47-7.13,3.108-4.263-9.782Z" transform="translate(-109.566 -26.984)" fill="#fff"/>
            <path id="Trazado_168071" data-name="Trazado 168071" d="M201.392,35.892,205.3,34.78a7.37,7.37,0,0,1,1.937-.31,3.83,3.83,0,0,1,1.721.406,5.167,5.167,0,0,1,2.626,3.474,5.865,5.865,0,0,1-.255,4.576,3.722,3.722,0,0,1-1.124,1.279,6.479,6.479,0,0,1-1.881.808l-4.007,1.141Zm2.223,1.019,2.057,7.221,2.119-.6a2.816,2.816,0,0,0,2.1-1.658,4.844,4.844,0,0,0-.084-2.921,4.07,4.07,0,0,0-1.515-2.366,3.083,3.083,0,0,0-2.672-.244Z" transform="translate(-128.749 -22.036)" fill="#fff"/>
            <path id="Trazado_168072" data-name="Trazado 168072" d="M253.988,34.722a2.678,2.678,0,1,1-.6,1.953,2.572,2.572,0,0,1,.6-1.953" transform="translate(-161.982 -21.581)" fill="#fff"/>
            <path id="Trazado_168073" data-name="Trazado 168073" d="M212.6,114.271c-1.009-1.137-2.043-2.249-3.117-3.322h-.013a69.566,69.566,0,0,0-98.559,0h-.006c-1.073,1.073-2.114,2.185-3.1,3.322a69.539,69.539,0,0,0,0,91.851c.989,1.137,2.03,2.249,3.1,3.322h.006a69.58,69.58,0,0,0,98.572,0c1.073-1.073,2.108-2.184,3.117-3.322a69.6,69.6,0,0,0,0-91.851m-67.7-17.407c-6.22,5.507-11.425,14.316-15.061,25.323a100.748,100.748,0,0,1-15.138-8.578,65.043,65.043,0,0,1,30.2-16.745m-30.2,109.906a101.72,101.72,0,0,1,15.138-8.565c3.637,11.007,8.841,19.816,15.061,25.322a65.064,65.064,0,0,1-30.2-16.757m63.528-13.031h-63.8V171.585h91.517V193.74H178.234Zm-44.007,2.615c.039-.013.083-.032.122-.045h23.568v28.85c-9.728-1.529-18.389-12.709-23.69-28.805m28.259,28.805h-.007V196.31h23.568c.039.013.084.032.122.045-5.307,16.1-13.969,27.276-23.684,28.805m13.005-1.632c6.213-5.493,11.418-14.316,15.048-25.335A102.457,102.457,0,0,1,205.7,206.77a64.943,64.943,0,0,1-30.205,16.757m33.354-20.066a110.947,110.947,0,0,0-11.977-7.151h11.655v-27.3H195.911c.071-1.073.122-2.159.167-3.251a28.607,28.607,0,0,1-4.607.771c-.039.829-.09,1.658-.148,2.48H162.479v-5.552a19.742,19.742,0,0,1-4.562,2.069v3.483h-28.85c-.077-1.073-.135-2.159-.18-3.251h-4.575c.039,1.092.1,2.178.161,3.251H111.867v27.3h11.675a110.5,110.5,0,0,0-12,7.151A64.771,64.771,0,0,1,95.1,162.474h13.076v-4.562H95.1a64.773,64.773,0,0,1,16.449-40.994q4.558,3.113,9.118,5.629h14.071c5.333-15.292,13.757-25.83,23.183-27.314v27.385a21.469,21.469,0,0,1,4.562,1.934V95.232h.007c9.272,1.458,17.587,11.707,22.932,26.633a30.747,30.747,0,0,1,3.2-.161c.6,0,1.189.013,1.774.045-3.624-10.814-8.777-19.463-14.9-24.886A65.033,65.033,0,0,1,205.7,113.609a102.942,102.942,0,0,1-14.348,8.205,27.281,27.281,0,0,1,7.01,1.484,113.734,113.734,0,0,0,10.5-6.381A64.851,64.851,0,0,1,225.3,157.912H208.093a19.607,19.607,0,0,1-4.678,4.562H225.3a64.775,64.775,0,0,1-16.455,40.988" transform="translate(-57.845 -57.846)" fill="#4169e1"/>
            <path id="Trazado_168074" data-name="Trazado 168074" d="M299.2,277.418h-1.407a13.458,13.458,0,0,1-3.8,4.562h9.9a19.649,19.649,0,0,1-4.691-4.562" transform="translate(-187.945 -177.352)" fill="#4169e1"/>
            <path id="Trazado_168075" data-name="Trazado 168075" d="M148.435,188.279v8.147h4.305v20.446h-4.305v8.2h19.129v-8.2H163.2V196.427h4.363v-8.147H148.435Z" transform="translate(-94.894 -120.366)" fill="#4169e1"/>
            <path id="Trazado_168076" data-name="Trazado 168076" d="M243.56,212.307c0-.077,0-.161-.006-.238a10.715,10.715,0,0,0-.79-4.054v-.006a9.183,9.183,0,0,0-2.647-3.553A14.419,14.419,0,0,0,235.555,202a32.039,32.039,0,0,0-7.023-1.414c-3.682-.366-6.207-1.054-6.207-3.521s3.155-3.1,5.1-3.1a16.637,16.637,0,0,1,4.678.578l.161,4.26h8.983v-8.886c-.064-.051-.135-.1-.2-.154-.308-.244-.623-.469-.932-.681a19.374,19.374,0,0,0-4.562-2.351,24.1,24.1,0,0,0-8.128-1.227,21.28,21.28,0,0,0-8.392,1.684,13.235,13.235,0,0,0-4.581,3.193,9.7,9.7,0,0,0-2.531,6.689c0,9.092,7.621,11.2,15.087,11.881,4.041.417,6.2,1.368,6.2,3.155,0,2.1-2.365,3.309-5.834,3.309a17.885,17.885,0,0,1-6.31-1.156l-.154-4.26h-8.989v9.2c.283.238.565.469.855.688.141.109.283.212.424.321.289.206.572.4.861.6s.578.373.867.546a19.5,19.5,0,0,0,4.176,1.87h.007c.546.174,1.092.328,1.658.45a.834.834,0,0,0,.173.039q.385.087.771.154a1.609,1.609,0,0,0,.173.032c.276.051.552.1.835.128.379.058.765.1,1.157.141.3.026.585.051.887.064a.81.81,0,0,0,.128.006c.315.026.63.039.951.051.366.007.739.013,1.118.013h.36a24.928,24.928,0,0,0,7.28-1.08,13.64,13.64,0,0,0,6.94-4.562,10.32,10.32,0,0,0,2.017-6.348" transform="translate(-135.481 -118.589)" fill="#4169e1"/>
            <path id="Trazado_168077" data-name="Trazado 168077" d="M346.7,205.183c0-10.255-5.879-16.873-14.939-18.711a27.422,27.422,0,0,0-5.455-.527c-7.409,0-13.436,2.724-16.976,7.627a19.424,19.424,0,0,0-3.47,11.611c0,.816.039,1.606.109,2.371a21.044,21.044,0,0,0,.835,4.279,16.812,16.812,0,0,0,4.221,7.107,18.337,18.337,0,0,0,7.993,4.562,26.265,26.265,0,0,0,7.287.97c1.022,0,2.011-.052,2.975-.148a19.822,19.822,0,0,0,12.292-5.384c3.258-3.258,5.127-7.9,5.127-13.757m-13.076,7.473a9.057,9.057,0,0,1-4.446,2.583,11.386,11.386,0,0,1-2.872.353c-5.886,0-10.043-4.26-10.043-10.409,0-6.046,4.1-10.358,10.043-10.358.071,0,.148,0,.218.006a10.576,10.576,0,0,1,5.018,1.234c2.994,1.645,4.748,4.851,4.748,9.118a10.738,10.738,0,0,1-2.667,7.473" transform="translate(-195.538 -118.874)" fill="#4169e1"/>
            <path id="Trazado_168078" data-name="Trazado 168078" d="M223.467,328.258a6.76,6.76,0,0,1,1.674,4.927,8.281,8.281,0,0,1-.895,3.974,6.034,6.034,0,0,1-2.521,2.531,7.887,7.887,0,0,1-3.763.866,8.937,8.937,0,0,1-2.175-.26,6.041,6.041,0,0,1-1.771-.722l1.386-2.733a4.2,4.2,0,0,0,2.483.693,3.38,3.38,0,0,0,2.338-.8,3.438,3.438,0,0,0,1.049-2.319,4.5,4.5,0,0,1-3.022.981,5.13,5.13,0,0,1-2.329-.529,4.189,4.189,0,0,1-1.684-1.5,4.017,4.017,0,0,1-.626-2.223,4.238,4.238,0,0,1,.7-2.415,4.609,4.609,0,0,1,1.905-1.617,6.822,6.822,0,0,1,7.246,1.145m-2.964,3.936a1.731,1.731,0,0,0,.01-2.464,1.949,1.949,0,0,0-1.376-.471,1.888,1.888,0,0,0-1.318.462,1.6,1.6,0,0,0-.51,1.251,1.58,1.58,0,0,0,.51,1.232,2.163,2.163,0,0,0,2.685-.01" transform="translate(-136.562 -208.759)" fill="#4169e1"/>
            <path id="Trazado_168079" data-name="Trazado 168079" d="M257.405,339.729a5.565,5.565,0,0,1-2.107-2.415,9.69,9.69,0,0,1,0-7.525,5.567,5.567,0,0,1,2.107-2.415,6.108,6.108,0,0,1,6.14,0,5.576,5.576,0,0,1,2.108,2.415,9.7,9.7,0,0,1,0,7.525,5.574,5.574,0,0,1-2.108,2.415,6.108,6.108,0,0,1-6.14,0m4.61-3.224a7.974,7.974,0,0,0,0-5.908,1.737,1.737,0,0,0-3.08,0,7.969,7.969,0,0,0,0,5.908,1.737,1.737,0,0,0,3.08,0" transform="translate(-162.725 -208.759)" fill="#4169e1"/>
            <path id="Trazado_168080" data-name="Trazado 168080" d="M299.29,339.729a5.566,5.566,0,0,1-2.107-2.415,9.69,9.69,0,0,1,0-7.525,5.568,5.568,0,0,1,2.107-2.415,6.108,6.108,0,0,1,6.14,0,5.573,5.573,0,0,1,2.108,2.415,9.695,9.695,0,0,1,0,7.525,5.571,5.571,0,0,1-2.108,2.415,6.108,6.108,0,0,1-6.14,0m4.609-3.224a7.97,7.97,0,0,0,0-5.908,1.736,1.736,0,0,0-3.079,0,7.969,7.969,0,0,0,0,5.908,1.737,1.737,0,0,0,3.079,0" transform="translate(-189.501 -208.759)" fill="#4169e1"/>
            <path id="Trazado_168081" data-name="Trazado 168081" d="M342.7,327.292v13.472h-3.81V330.237h-2.5v-2.945Z" transform="translate(-215.051 -209.237)" fill="#4169e1"/>
          </g>
        </g>
      </g>
    </g>
  </g>
</svg>
