<svg xmlns="http://www.w3.org/2000/svg" xmlns:xlink="http://www.w3.org/1999/xlink" width="124" height="124" viewBox="0 0 124 124">
  <defs>
    <clipPath id="clip-path">
      <rect id="Rectángulo_43297" data-name="Rectángulo 43297" width="87.999" height="87.999" fill="none"/>
    </clipPath>
  </defs>
  <g id="Grupo_119252" data-name="Grupo 119252" transform="translate(-267 -3382)">
    <g id="Elipse_6765" data-name="Elipse 6765" transform="translate(267 3382)" fill="#fff" stroke="#2631a0" stroke-width="4">
      <circle cx="62" cy="62" r="62" stroke="none"/>
      <circle cx="62" cy="62" r="60" fill="none"/>
    </g>
    <g id="Grupo_118759" data-name="Grupo 118759" transform="translate(285 3400)">
      <g id="Grupo_118758" data-name="Grupo 118758" transform="translate(0 0)" clip-path="url(#clip-path)">
        <path id="Trazado_167970" data-name="Trazado 167970" d="M86.408,43.713A42.694,42.694,0,1,1,43.715,1.02,42.694,42.694,0,0,1,86.408,43.713" transform="translate(0.287 0.286)" fill="#ff004c"/>
        <path id="Trazado_167971" data-name="Trazado 167971" d="M41.02,71.442A30.422,30.422,0,1,1,71.443,41.019,30.458,30.458,0,0,1,41.02,71.442" transform="translate(2.98 2.98)" fill="#f2f2f2"/>
        <path id="Trazado_167972" data-name="Trazado 167972" d="M38.326,56.476A18.151,18.151,0,1,1,56.478,38.325,18.172,18.172,0,0,1,38.326,56.476" transform="translate(5.674 5.674)" fill="#ff004c"/>
        <path id="Trazado_167973" data-name="Trazado 167973" d="M35.762,42.231a6.468,6.468,0,1,1,6.468-6.469,6.475,6.475,0,0,1-6.468,6.469" transform="translate(8.239 8.238)" fill="#f2f2f2"/>
        <path id="Trazado_167974" data-name="Trazado 167974" d="M27.049,17.034,12.282,2.267l-2.71,9.359L24.341,26.394Z" transform="translate(2.692 0.637)" fill="#febf10"/>
        <path id="Trazado_167975" data-name="Trazado 167975" d="M26.394,24.339,11.627,9.572l-9.359,2.71L17.035,27.049Z" transform="translate(0.638 2.692)" fill="#febf10"/>
        <path id="Trazado_167976" data-name="Trazado 167976" d="M76.78,14.65a1.306,1.306,0,1,0-1.945,1.744A41.383,41.383,0,1,1,8.611,22.528l8.137,8.137A1.308,1.308,0,0,0,18.035,31L26.654,28.5l2.7,2.7A19.381,19.381,0,0,0,24.543,44a1.306,1.306,0,0,0,2.612,0,16.776,16.776,0,0,1,4.051-10.947l6.454,6.454a7.787,7.787,0,1,0,1.848-1.848l-6.454-6.454a16.844,16.844,0,1,1,.916,26.318A17.016,17.016,0,0,1,27.945,49.1a1.307,1.307,0,0,0-2.489.794,19.673,19.673,0,0,0,6.956,9.726A19.459,19.459,0,1,0,31.2,29.357l-2.7-2.7L31,18.035c.009-.028.013-.058.019-.087a29.085,29.085,0,1,1-14.37,16.076,1.306,1.306,0,1,0-2.454-.9A31.752,31.752,0,1,0,29.633,15.716l-7.1-7.1a41.4,41.4,0,0,1,48.916,4.409,1.306,1.306,0,0,0,1.734-1.954A44.008,44.008,0,0,0,20.632,6.715L15.9,1.981a1.3,1.3,0,0,0-2.177.56L11.21,11.21,2.541,13.718a1.308,1.308,0,0,0-.56,2.179l4.734,4.733a44,44,0,0,0,68.4,54.482A44,44,0,0,0,76.78,14.65M44,38.838a5.168,5.168,0,1,1-4.454,2.556l3.53,3.53a1.306,1.306,0,1,0,1.848-1.848l-3.53-3.529A5.121,5.121,0,0,1,44,38.838M15.613,5.391,28.272,18.05l-1.88,6.495L13.734,11.886Zm-3.727,8.342L24.545,26.392l-6.495,1.88L5.391,15.613Z" transform="translate(0 0)"/>
      </g>
    </g>
  </g>
</svg>
