<svg xmlns="http://www.w3.org/2000/svg" xmlns:xlink="http://www.w3.org/1999/xlink" width="124" height="124" viewBox="0 0 124 124">
  <defs>
    <clipPath id="clip-path">
      <rect id="Rectángulo_43304" data-name="Rectángulo 43304" width="76.328" height="84.84" transform="translate(0 0)" fill="none"/>
    </clipPath>
  </defs>
  <g id="Grupo_119254" data-name="Grupo 119254" transform="translate(-897 -3382)">
    <g id="Elipse_6767" data-name="Elipse 6767" transform="translate(897 3382)" fill="#fff" stroke="#2631a0" stroke-width="4">
      <circle cx="62" cy="62" r="62" stroke="none"/>
      <circle cx="62" cy="62" r="60" fill="none"/>
    </g>
    <g id="Grupo_118763" data-name="Grupo 118763" transform="translate(923.672 3404.404)">
      <g id="Grupo_118762" data-name="Grupo 118762" clip-path="url(#clip-path)">
        <path id="Trazado_168006" data-name="Trazado 168006" d="M71.308,20.519h-7.6V7.577h7.6a3.777,3.777,0,0,1,3.777,3.777v5.388a3.777,3.777,0,0,1-3.777,3.777" fill="#757ac6"/>
        <path id="Trazado_168007" data-name="Trazado 168007" d="M71.308,33.46h-7.6V20.518h7.6A3.777,3.777,0,0,1,75.085,24.3v5.388a3.777,3.777,0,0,1-3.777,3.777" fill="#757ac6"/>
        <path id="Trazado_168008" data-name="Trazado 168008" d="M71.308,46.4h-7.6V33.46h7.6a3.777,3.777,0,0,1,3.777,3.777v5.388A3.777,3.777,0,0,1,71.308,46.4" fill="#757ac6"/>
        <path id="Trazado_168009" data-name="Trazado 168009" d="M71.308,59.344h-7.6V46.4h7.6a3.777,3.777,0,0,1,3.777,3.777v5.388a3.777,3.777,0,0,1-3.777,3.777" fill="#757ac6"/>
        <path id="Trazado_168010" data-name="Trazado 168010" d="M69.65,57.121V80.168H54.122V58.7Z" fill="#febf10"/>
        <path id="Trazado_168011" data-name="Trazado 168011" d="M65.09,76.737a8.861,8.861,0,0,1,0-9.5L40.445,62.652H7.535V80.168H51.39Z" fill="#f1f4f6"/>
        <path id="Trazado_168012" data-name="Trazado 168012" d="M69.649,4.673V63.809l-56.8,1.415-3.346.1L1.242,71.988V12.852A11.622,11.622,0,0,1,12.851,1.243h53.37a3.429,3.429,0,0,1,3.428,3.43" fill="#febf10"/>
        <path id="Trazado_168013" data-name="Trazado 168013" d="M12.851,1.243V65.224l-3.346.1L1.242,71.988V12.852A11.622,11.622,0,0,1,12.851,1.243Z" fill="#febf10"/>
        <path id="Trazado_168014" data-name="Trazado 168014" d="M66.221,83.6H12.852a11.608,11.608,0,1,1,0-23.217H66.221a3.429,3.429,0,1,1,0,6.858H26.9l-5.943,2.375-5.943-2.375h-2.16a4.75,4.75,0,0,0,0,9.5H66.221a3.429,3.429,0,0,1,0,6.858" fill="#febf10"/>
        <path id="Trazado_168015" data-name="Trazado 168015" d="M26.9,67.239V78.47a1.707,1.707,0,0,1-2.759,1.343l-2.131-1.672a1.7,1.7,0,0,0-2.106,0L17.77,79.813a1.707,1.707,0,0,1-2.759-1.343V67.239Z" fill="#ff2f6d"/>
        <path id="Trazado_168016" data-name="Trazado 168016" d="M42.126,32.336l-8.489-22.5L33.6,9.757a3.506,3.506,0,0,0-3.255-2.18h0a3.507,3.507,0,0,0-3.254,2.187l-.027.068L18.5,32.327a3,3,0,1,0,5.611,2.137l1.4-3.668h9.621l1.381,3.66a3,3,0,1,0,5.618-2.12ZM27.793,24.791l2.546-6.683,2.522,6.683Z" fill="#fff"/>
        <path id="Trazado_168017" data-name="Trazado 168017" d="M61.733,44.235H52.051L63.894,26.06a3,3,0,0,0-2.516-4.642h-14.4a3,3,0,0,0,0,6.005h8.86L44,45.6a3,3,0,0,0,2.516,4.642H61.733a3,3,0,0,0,0-6.005" fill="#fff"/>
        <path id="Trazado_168018" data-name="Trazado 168018" d="M30.34,16.864h0a1.244,1.244,0,0,0-1.161.8l-2.546,6.683a1.243,1.243,0,0,0,1.162,1.686H32.86a1.242,1.242,0,0,0,1.163-1.682L31.5,17.669A1.242,1.242,0,0,0,30.34,16.864ZM29.6,23.548l.737-1.935.73,1.935Z"/>
        <path id="Trazado_168019" data-name="Trazado 168019" d="M43.289,31.9,38.731,19.816a1.243,1.243,0,1,0-2.326.877l4.558,12.081A1.76,1.76,0,0,1,38.592,35a1.741,1.741,0,0,1-.92-.982L36.29,30.357a1.244,1.244,0,0,0-1.163-.8H25.506a1.241,1.241,0,0,0-1.161.8l-1.4,3.668A1.772,1.772,0,0,1,21.3,35.156a1.76,1.76,0,0,1-1.644-2.386l8.568-22.493.008-.024.009-.019a2.276,2.276,0,0,1,4.212-.005l2.218,5.877A1.243,1.243,0,0,0,37,15.229L34.8,9.4c0-.012-.009-.024-.014-.036l-.033-.081a4.762,4.762,0,0,0-8.808,0c-.013.031-.026.062-.041.1l-8.569,22.5A4.248,4.248,0,0,0,21.3,37.642a4.273,4.273,0,0,0,3.969-2.735l1.092-2.868h7.905L35.346,34.9a4.245,4.245,0,1,0,7.943-3"/>
        <path id="Trazado_168020" data-name="Trazado 168020" d="M61.733,42.992H54.345l10.59-16.254a4.245,4.245,0,0,0-3.556-6.563H46.98a4.246,4.246,0,0,0,0,8.491h6.566L42.955,44.92a4.246,4.246,0,0,0,3.557,6.563H61.733a4.246,4.246,0,0,0,0-8.491Zm0,6.005H46.512a1.76,1.76,0,0,1-1.475-2.72L56.88,28.1a1.243,1.243,0,0,0-1.041-1.921H46.98a1.76,1.76,0,1,1,0-3.519h14.4a1.759,1.759,0,0,1,1.474,2.72L51.01,43.556a1.244,1.244,0,0,0,1.042,1.922h9.681a1.76,1.76,0,1,1,0,3.519Z"/>
        <path id="Trazado_168021" data-name="Trazado 168021" d="M76.328,16.742V11.354a5.026,5.026,0,0,0-5.02-5.02h-.415V4.672A4.677,4.677,0,0,0,66.221,0H12.851A12.866,12.866,0,0,0,0,12.852V72.015A12.866,12.866,0,0,0,12.851,84.84h41.5a1.242,1.242,0,0,0,0-2.485h-41.5a10.366,10.366,0,0,1,0-20.731h53.37A2.188,2.188,0,0,1,68.407,63.8v.026A2.19,2.19,0,0,1,66.221,66H12.851a5.993,5.993,0,0,0,0,11.985h.918v.488a2.949,2.949,0,0,0,4.769,2.32l2.13-1.671a.463.463,0,0,1,.572,0l2.131,1.672a2.949,2.949,0,0,0,4.769-2.32v-.489H66.22a2.189,2.189,0,0,1,2.187,2.173v.02a2.189,2.189,0,0,1-2.187,2.18h-6.9a1.243,1.243,0,0,0,0,2.486h6.9a4.678,4.678,0,0,0,4.673-4.673V60.587h.415a5.025,5.025,0,0,0,5.02-5.019V50.18A5.009,5.009,0,0,0,74.609,46.4a5.009,5.009,0,0,0,1.719-3.777V37.238a5.009,5.009,0,0,0-1.719-3.777,5.009,5.009,0,0,0,1.719-3.777V24.3a5.009,5.009,0,0,0-1.719-3.777A5.009,5.009,0,0,0,76.328,16.742Zm-64.72-3.209A12.847,12.847,0,0,0,2.69,18.469a10.388,10.388,0,0,1,8.918-8.239Zm-9.123-.681A10.38,10.38,0,0,1,11.608,2.563V7.728a12.854,12.854,0,0,0-9.123,5.206Zm0,13.471a10.38,10.38,0,0,1,9.123-10.289V47.972a12.854,12.854,0,0,0-9.123,5.206Zm0,38.082V60.762a10.38,10.38,0,0,1,9.123-10.289V59.2A12.854,12.854,0,0,0,2.485,64.4ZM66.22,59.138H14.094V2.486H66.221a2.189,2.189,0,0,1,2.186,2.186V59.683a4.647,4.647,0,0,0-2.187-.545M12.851,75.5a3.507,3.507,0,0,1,0-7.014h.918V75.5Zm12.543,3.391a.447.447,0,0,1-.489-.052l-2.13-1.672a2.943,2.943,0,0,0-3.64,0L17,78.835a.463.463,0,0,1-.749-.365V68.482h9.4V78.47a.447.447,0,0,1-.261.417m2.746-10.4H63.1a10.178,10.178,0,0,0,0,7.014H28.14ZM66.22,75.5h-.408a7.659,7.659,0,0,1,0-7.014h.409a4.647,4.647,0,0,0,2.187-.545v8.1A4.647,4.647,0,0,0,66.22,75.5Zm7.622-25.317v5.389A2.537,2.537,0,0,1,71.308,58.1h-.415V47.645h.415a2.538,2.538,0,0,1,2.534,2.534m0-12.941v5.388a2.537,2.537,0,0,1-2.534,2.534h-.415V34.7h.415a2.538,2.538,0,0,1,2.534,2.535m0-12.942v5.388a2.537,2.537,0,0,1-2.534,2.534h-.415V21.762h.415A2.537,2.537,0,0,1,73.842,24.3m-2.949-5.02V8.82h.415a2.537,2.537,0,0,1,2.534,2.534v5.388a2.537,2.537,0,0,1-2.534,2.534Z"/>
      </g>
    </g>
  </g>
</svg>
