<svg xmlns="http://www.w3.org/2000/svg" xmlns:xlink="http://www.w3.org/1999/xlink" width="503" height="269.5" viewBox="0 0 503 269.5">
  <defs>
    <clipPath id="clip-path">
      <rect id="Rectángulo_43338" data-name="Rectángulo 43338" width="217.259" height="217.259" fill="none"/>
    </clipPath>
  </defs>
  <g id="Grupo_129717" data-name="Grupo 129717" transform="translate(-918 -4928)">
    <g id="Grupo_119257" data-name="Grupo 119257">
      <path id="Rectángulo_42786" data-name="Rectángulo 42786" d="M0,0H473.5a0,0,0,0,1,0,0V224a20,20,0,0,1-20,20H0a0,0,0,0,1,0,0V0A0,0,0,0,1,0,0Z" transform="translate(947.5 4953.5)" fill="#fed563"/>
      <rect id="shutterstock_1916966165" width="472" height="243" rx="19" transform="translate(918 4928)" fill="#f3f3f3"/>
    </g>
    <g id="Grupo_118771" data-name="Grupo 118771" transform="translate(1048.687 4941.632)">
      <g id="Grupo_118770" data-name="Grupo 118770" clip-path="url(#clip-path)">
        <path id="Trazado_168134" data-name="Trazado 168134" d="M108.63,0A108.629,108.629,0,1,0,217.259,108.63,108.629,108.629,0,0,0,108.63,0" transform="translate(0)" fill="#c50"/>
        <path id="Trazado_168135" data-name="Trazado 168135" d="M109.569,187.448a77.88,77.88,0,1,1,77.879-77.88,77.879,77.879,0,0,1-77.879,77.88" transform="translate(-0.939 -0.939)" fill="#fff"/>
        <path id="Trazado_168136" data-name="Trazado 168136" d="M126.1,17.92a4.906,4.906,0,0,1-1.8,3.175,4.829,4.829,0,0,1-3.548.913,4.908,4.908,0,0,1-3.676-1.983,6.23,6.23,0,0,1-1.029-4.43,6.884,6.884,0,0,1,.9-2.877,5.357,5.357,0,0,1,8.057-1.206,4.144,4.144,0,0,1,1.325,3.011l-1.963-.189a2.6,2.6,0,0,0-.8-1.682,2.918,2.918,0,0,0-1.781-.755,2.95,2.95,0,0,0-1.968.449,3.45,3.45,0,0,0-1.26,1.454,6.471,6.471,0,0,0-.477,3.557,4.779,4.779,0,0,0,.442,1.392,2.771,2.771,0,0,0,.943,1.073,3.107,3.107,0,0,0,1.491.511q2.518.243,3.159-2.6Z" transform="translate(-3.436 -0.302)" fill="#fff"/>
        <path id="Trazado_168137" data-name="Trazado 168137" d="M139.176,13.591l-.378,1.626-6.027-1.4-.681,2.928,5.592,1.3-.364,1.564-5.593-1.3-.757,3.253,6.118,1.425-.385,1.658-8.041-1.873,2.569-11.029Z" transform="translate(-3.811 -0.348)" fill="#fff"/>
        <path id="Trazado_168138" data-name="Trazado 168138" d="M143.532,14.9l5.016,1.892a4.649,4.649,0,0,1,2.308,1.678,2.73,2.73,0,0,1,.153,2.615,3.024,3.024,0,0,1-1.076,1.457,2.736,2.736,0,0,1-1.663.486,2.3,2.3,0,0,1,.57.52,1.751,1.751,0,0,1,.293.552,1.943,1.943,0,0,1,.058.635,4.072,4.072,0,0,1-.075.627q-.055.259-.178.672c-.017.073-.054.212-.114.415l-.119.406c-.019.067-.051.181-.1.346s-.075.28-.088.348-.033.17-.054.3-.036.237-.041.309-.007.155-.01.25a1.03,1.03,0,0,0,.023.255,1.137,1.137,0,0,0,.072.214l-1.994-.752a.794.794,0,0,1-.028-.172,1.431,1.431,0,0,1,0-.2,1.557,1.557,0,0,1,.023-.2c.011-.058.026-.137.047-.237s.04-.18.057-.243l.079-.276.079-.277c.017-.061.049-.169.1-.321s.082-.258.1-.318a3,3,0,0,0,.127-1.983,2.65,2.65,0,0,0-1.6-1.154l-2.471-.932-1.65,4.375-1.846-.7Zm1.273,2.214-1.252,3.319,2.456.926a6.2,6.2,0,0,0,.931.283,3.573,3.573,0,0,0,.833.067,1.222,1.222,0,0,0,.774-.294,1.956,1.956,0,0,0,.542-.833,1.893,1.893,0,0,0,.139-.907,1.212,1.212,0,0,0-.325-.693,2.712,2.712,0,0,0-.6-.481,5.36,5.36,0,0,0-.8-.371Z" transform="translate(-4.133 -0.441)" fill="#fff"/>
        <path id="Trazado_168139" data-name="Trazado 168139" d="M163.667,23.98,162.86,25.5l-3.187-1.7-4.514,8.481-1.755-.934,4.514-8.48-3.188-1.7.807-1.517Z" transform="translate(-4.544 -0.582)" fill="#fff"/>
        <rect id="Rectángulo_43328" data-name="Rectángulo 43328" width="11.325" height="2.004" transform="translate(155.695 34.704) rotate(-56.807)" fill="#fff"/>
        <path id="Trazado_168140" data-name="Trazado 168140" d="M178.261,34.559l-1.046,1.322-4.578-3.621-1.915,2.419,4.016,3.179-1,1.259-4.016-3.178-3.07,3.88-1.571-1.244,7.027-8.881Z" transform="translate(-4.89 -0.88)" fill="#fff"/>
        <rect id="Rectángulo_43329" data-name="Rectángulo 43329" width="11.325" height="2.004" transform="translate(168.187 44.356) rotate(-46.517)" fill="#fff"/>
        <path id="Trazado_168141" data-name="Trazado 168141" d="M191.228,48.006l-1.257,1.1L185.9,44.449l-2.264,1.979,3.782,4.323-1.209,1.057-3.782-4.322-2.513,2.2,4.137,4.729-1.282,1.121-5.435-6.213,8.525-7.456Z" transform="translate(-5.253 -1.24)" fill="#fff"/>
        <path id="Trazado_168142" data-name="Trazado 168142" d="M194.033,51.66l2.386,3.59a7.818,7.818,0,0,1,.939,1.858,4.082,4.082,0,0,1,.146,1.871,5.487,5.487,0,0,1-2.666,3.777,6.222,6.222,0,0,1-4.709,1.22,3.941,3.941,0,0,1-1.655-.723,6.887,6.887,0,0,1-1.425-1.641L184.6,57.93Zm-.312,2.576-6.636,4.411,1.294,1.948a2.99,2.99,0,0,0,2.353,1.587,5.143,5.143,0,0,0,2.927-1.029,4.316,4.316,0,0,0,1.9-2.3,3.268,3.268,0,0,0-.616-2.779Z" transform="translate(-5.468 -1.53)" fill="#fff"/>
        <path id="Trazado_168143" data-name="Trazado 168143" d="M201.389,71.574a2.842,2.842,0,1,1-2.168.025,2.731,2.731,0,0,1,2.168-.025" transform="translate(-5.85 -2.114)" fill="#fff"/>
        <path id="Trazado_168144" data-name="Trazado 168144" d="M205.416,96.246a4.9,4.9,0,0,1-3.575-.732,4.824,4.824,0,0,1-1.964-3.093,4.905,4.905,0,0,1,.753-4.109,6.232,6.232,0,0,1,3.9-2.345,6.885,6.885,0,0,1,3.015-.032,5.363,5.363,0,0,1,3.635,7.292,4.144,4.144,0,0,1-2.457,2.189l-.426-1.926a2.6,2.6,0,0,0,1.355-1.277,2.918,2.918,0,0,0,.168-1.926,2.959,2.959,0,0,0-1.035-1.735,3.459,3.459,0,0,0-1.77-.748,6.105,6.105,0,0,0-2.05.12,6.182,6.182,0,0,0-1.481.523,4.826,4.826,0,0,0-1.189.85,2.8,2.8,0,0,0-.73,1.228,3.1,3.1,0,0,0-.025,1.578q.546,2.469,3.452,2.2Z" transform="translate(-5.917 -2.541)" fill="#fff"/>
        <path id="Trazado_168145" data-name="Trazado 168145" d="M213.551,107.378l-1.664.142-.526-6.165-2.995.255.487,5.721-1.6.137-.488-5.721-3.328.283.534,6.26-1.7.145-.7-8.225,11.285-.962Z" transform="translate(-5.971 -2.94)" fill="#fff"/>
        <path id="Trazado_168146" data-name="Trazado 168146" d="M213.653,111.944l-.237,5.356a4.652,4.652,0,0,1-.876,2.716,2.734,2.734,0,0,1-2.439.959,3.02,3.02,0,0,1-1.718-.57,2.736,2.736,0,0,1-.98-1.428,2.289,2.289,0,0,1-.317.7,1.762,1.762,0,0,1-.434.451,1.935,1.935,0,0,1-.585.253,4.116,4.116,0,0,1-.618.123c-.176.019-.408.032-.695.041-.075.008-.217.015-.43.021l-.423.013-.359.016c-.17.009-.29.016-.359.024s-.171.021-.3.042-.235.041-.3.058-.15.042-.242.07a1.044,1.044,0,0,0-.236.1,1.085,1.085,0,0,0-.18.136l.093-2.13a.829.829,0,0,1,.155-.081,1.755,1.755,0,0,1,.194-.063,1.73,1.73,0,0,1,.192-.039c.059-.009.139-.017.241-.03s.183-.017.247-.02l.287-.012.287-.011c.064,0,.175-.006.335-.009s.271,0,.334,0a3.006,3.006,0,0,0,1.924-.5,2.646,2.646,0,0,0,.6-1.876l.116-2.638-4.671-.206.086-1.97Zm-1.708,1.9-3.544-.156-.115,2.622a6.275,6.275,0,0,0,.02.972,3.644,3.644,0,0,0,.2.812,1.233,1.233,0,0,0,.521.644,1.971,1.971,0,0,0,.96.257,1.9,1.9,0,0,0,.906-.151,1.215,1.215,0,0,0,.557-.524,2.734,2.734,0,0,0,.27-.721,5.4,5.4,0,0,0,.1-.879Z" transform="translate(-5.981 -3.301)" fill="#fff"/>
        <path id="Trazado_168147" data-name="Trazado 168147" d="M211.279,133.841l-1.693-.293.616-3.557-9.466-1.639.34-1.959,9.466,1.639.616-3.558,1.692.293Z" transform="translate(-5.946 -3.687)" fill="#fff"/>
        <rect id="Rectángulo_43330" data-name="Rectángulo 43330" width="2.004" height="11.325" transform="translate(193.002 132.361) rotate(-74.978)" fill="#fff"/>
        <path id="Trazado_168148" data-name="Trazado 168148" d="M205.843,151.037l-1.582-.583,2.018-5.477-2.895-1.068-1.772,4.806-1.507-.556,1.771-4.805-4.641-1.711.693-1.88,10.627,3.915Z" transform="translate(-5.843 -4.14)" fill="#fff"/>
        <rect id="Rectángulo_43331" data-name="Rectángulo 43331" width="2.004" height="11.325" transform="translate(187.371 147.116) rotate(-64.568)" fill="#fff"/>
        <path id="Trazado_168149" data-name="Trazado 168149" d="M197.006,167.524l-1.434-.855,3.167-5.315-2.582-1.539-2.939,4.932-1.381-.823,2.94-4.932-2.869-1.71-3.217,5.4-1.461-.871,4.226-7.091,9.728,5.8Z" transform="translate(-5.546 -4.583)" fill="#fff"/>
        <path id="Trazado_168150" data-name="Trazado 168150" d="M194.435,171.314l-2.676,3.38a7.809,7.809,0,0,1-1.477,1.467,4.085,4.085,0,0,1-1.734.717,5.488,5.488,0,0,1-4.416-1.367,6.227,6.227,0,0,1-2.616-4.1,3.94,3.94,0,0,1,.177-1.8,6.851,6.851,0,0,1,1.12-1.863l2.745-3.466Zm-2.546.5-6.247-4.948-1.452,1.833a2.993,2.993,0,0,0-.781,2.73,5.145,5.145,0,0,0,1.883,2.465,4.327,4.327,0,0,0,2.771,1.1,3.275,3.275,0,0,0,2.454-1.446Z" transform="translate(-5.376 -4.867)" fill="#fff"/>
        <path id="Trazado_168151" data-name="Trazado 168151" d="M177.924,184.452a2.841,2.841,0,1,1-.7-2.054,2.73,2.73,0,0,1,.7,2.054" transform="translate(-5.103 -5.374)" fill="#fff"/>
        <path id="Trazado_168152" data-name="Trazado 168152" d="M155.613,195.975a4.9,4.9,0,0,1-.42-3.625,4.822,4.822,0,0,1,2.325-2.83,4.907,4.907,0,0,1,4.139-.569,6.236,6.236,0,0,1,3.443,2.969,6.874,6.874,0,0,1,.971,2.855,5.36,5.36,0,0,1-5.793,5.729,4.144,4.144,0,0,1-2.846-1.651l1.7-1.005a2.6,2.6,0,0,0,1.636.887,2.914,2.914,0,0,0,1.884-.442,2.947,2.947,0,0,0,1.324-1.524,3.446,3.446,0,0,0,.159-1.916,6.458,6.458,0,0,0-1.714-3.154,4.813,4.813,0,0,0-1.178-.865,2.8,2.8,0,0,0-1.394-.31,3.11,3.11,0,0,0-1.507.468q-2.176,1.29-1.014,3.967Z" transform="translate(-4.592 -5.591)" fill="#fff"/>
        <path id="Trazado_168153" data-name="Trazado 168153" d="M147.594,207.139l-.654-1.536,5.694-2.422-1.177-2.767-5.284,2.247-.629-1.478,5.284-2.248-1.308-3.073-5.781,2.459-.666-1.565,7.6-3.232,4.434,10.421Z" transform="translate(-4.238 -5.733)" fill="#fff"/>
        <path id="Trazado_168154" data-name="Trazado 168154" d="M143.244,208.667l-5.165,1.43a4.652,4.652,0,0,1-2.854.007,2.732,2.732,0,0,1-1.666-2.022,3.021,3.021,0,0,1,.011-1.81,2.73,2.73,0,0,1,1.055-1.374,2.294,2.294,0,0,1-.767-.084,1.718,1.718,0,0,1-.561-.274,1.869,1.869,0,0,1-.422-.477,4.143,4.143,0,0,1-.31-.549c-.072-.162-.156-.377-.254-.648-.029-.069-.081-.2-.152-.4s-.119-.333-.144-.4-.065-.178-.126-.337-.1-.271-.134-.335-.073-.155-.134-.276-.111-.212-.149-.272-.086-.131-.141-.21a1.016,1.016,0,0,0-.169-.192,1.156,1.156,0,0,0-.184-.131l2.053-.569a.819.819,0,0,1,.125.122,1.811,1.811,0,0,1,.12.165,1.5,1.5,0,0,1,.1.171c.026.053.06.127.1.219s.075.169.1.229.055.15.1.27.077.21.1.27.059.165.112.315.088.256.1.318a3,3,0,0,0,1.067,1.676,2.648,2.648,0,0,0,1.97-.009l2.544-.7-1.249-4.507,1.9-.527Zm-2.333-1.037-.948-3.419-2.528.7a6.358,6.358,0,0,0-.92.32,3.676,3.676,0,0,0-.711.437,1.229,1.229,0,0,0-.452.695,1.964,1.964,0,0,0,.052.993,1.905,1.905,0,0,0,.424.815,1.209,1.209,0,0,0,.671.367,2.714,2.714,0,0,0,.77.035,5.436,5.436,0,0,0,.868-.175Z" transform="translate(-3.88 -5.858)" fill="#fff"/>
        <path id="Trazado_168155" data-name="Trazado 168155" d="M121.783,213.184l-.244-1.7,3.575-.51-1.359-9.511,1.968-.281,1.359,9.51,3.575-.51.243,1.7Z" transform="translate(-3.6 -5.96)" fill="#fff"/>
        <rect id="Rectángulo_43332" data-name="Rectángulo 43332" width="2.004" height="11.325" transform="matrix(0.999, -0.052, 0.052, 0.999, 112.277, 196.179)" fill="#fff"/>
        <path id="Trazado_168156" data-name="Trazado 168156" d="M103.707,213.338l.061-1.685,5.834.213.113-3.084L104.6,208.6l.059-1.6,5.118.187.181-4.944,2,.074-.415,11.318Z" transform="translate(-3.072 -5.991)" fill="#fff"/>
        <rect id="Rectángulo_43333" data-name="Rectángulo 43333" width="11.325" height="2.004" transform="matrix(0.126, -0.992, 0.992, 0.126, 95.066, 206.655)" fill="#fff"/>
        <path id="Trazado_168157" data-name="Trazado 168157" d="M85.253,210.141l.365-1.629,6.038,1.35.656-2.933-5.6-1.253.35-1.568,5.6,1.253.729-3.26-6.131-1.371.371-1.661,8.056,1.8-2.472,11.052Z" transform="translate(-2.525 -5.897)" fill="#fff"/>
        <path id="Trazado_168158" data-name="Trazado 168158" d="M80.794,208.863l-4.044-1.492a7.816,7.816,0,0,1-1.854-.947A4.071,4.071,0,0,1,73.675,205a5.486,5.486,0,0,1-.074-4.622,6.227,6.227,0,0,1,3.085-3.761,3.929,3.929,0,0,1,1.763-.391,6.836,6.836,0,0,1,2.118.485l4.148,1.531ZM79.528,206.6l2.76-7.476-2.193-.81a2.99,2.99,0,0,0-2.836.106,5.132,5.132,0,0,0-1.757,2.556,4.312,4.312,0,0,0-.183,2.976,3.27,3.27,0,0,0,2.137,1.883Z" transform="translate(-2.166 -5.813)" fill="#fff"/>
        <path id="Trazado_168159" data-name="Trazado 168159" d="M63.353,197.207a2.84,2.84,0,1,1,1.738-1.3,2.725,2.725,0,0,1-1.738,1.3" transform="translate(-1.772 -5.676)" fill="#fff"/>
        <path id="Trazado_168160" data-name="Trazado 168160" d="M45.346,179.57a4.9,4.9,0,0,1,3.317-1.522,4.829,4.829,0,0,1,3.411,1.336,4.9,4.9,0,0,1,1.82,3.76,6.237,6.237,0,0,1-1.759,4.193,6.879,6.879,0,0,1-2.413,1.806,5.36,5.36,0,0,1-7.24-3.737,4.143,4.143,0,0,1,.689-3.218l1.482,1.3a2.6,2.6,0,0,0-.339,1.83,2.906,2.906,0,0,0,1,1.654,2.947,2.947,0,0,0,1.859.788,3.449,3.449,0,0,0,1.871-.442,6.083,6.083,0,0,0,1.584-1.308,6.154,6.154,0,0,0,.886-1.3,4.845,4.845,0,0,0,.457-1.388,2.8,2.8,0,0,0-.137-1.423,3.107,3.107,0,0,0-.911-1.288q-1.9-1.67-4.085.263Z" transform="translate(-1.256 -5.274)" fill="#fff"/>
        <path id="Trazado_168161" data-name="Trazado 168161" d="M32.191,175.408l1.258-1.1,4.071,4.66,2.264-1.978-3.778-4.325,1.211-1.057,3.777,4.325,2.516-2.2-4.133-4.732,1.281-1.12,5.431,6.218-8.53,7.45Z" transform="translate(-0.954 -4.973)" fill="#fff"/>
        <path id="Trazado_168162" data-name="Trazado 168162" d="M29.424,171.746l-2.971-4.462a4.659,4.659,0,0,1-.9-2.709,2.733,2.733,0,0,1,1.4-2.213,3.019,3.019,0,0,1,1.723-.555,2.734,2.734,0,0,1,1.633.574,2.318,2.318,0,0,1-.158-.754,1.748,1.748,0,0,1,.084-.62,1.935,1.935,0,0,1,.322-.549,4.029,4.029,0,0,1,.426-.465q.2-.179.537-.443c.056-.049.168-.141.336-.271l.333-.26c.054-.043.148-.117.28-.225s.224-.184.276-.231.125-.118.22-.214.167-.171.213-.226.1-.122.154-.2a1.009,1.009,0,0,0,.13-.221,1.065,1.065,0,0,0,.067-.215l1.181,1.774a.81.81,0,0,1-.078.157,1.4,1.4,0,0,1-.119.165,1.429,1.429,0,0,1-.132.146c-.043.042-.1.1-.177.165s-.138.123-.187.164l-.225.178-.225.179c-.05.041-.139.109-.265.206s-.216.163-.27.2a3.005,3.005,0,0,0-1.26,1.537,2.645,2.645,0,0,0,.623,1.868l1.463,2.2,3.892-2.591,1.093,1.641Zm.257-2.54,2.953-1.966-1.455-2.184a6.268,6.268,0,0,0-.591-.772,3.6,3.6,0,0,0-.637-.54,1.225,1.225,0,0,0-.8-.213,1.952,1.952,0,0,0-.927.359,1.887,1.887,0,0,0-.642.657,1.214,1.214,0,0,0-.14.752,2.69,2.69,0,0,0,.207.741,5.319,5.319,0,0,0,.437.77Z" transform="translate(-0.757 -4.665)" fill="#fff"/>
        <path id="Trazado_168163" data-name="Trazado 168163" d="M18.411,152.823l1.54-.763,1.6,3.236,8.61-4.262.882,1.781-8.61,4.263,1.6,3.236-1.539.762Z" transform="translate(-0.545 -4.474)" fill="#fff"/>
        <rect id="Rectángulo_43334" data-name="Rectángulo 43334" width="11.325" height="2.004" transform="translate(15.95 143.361) rotate(-21.134)" fill="#fff"/>
        <path id="Trazado_168164" data-name="Trazado 168164" d="M12.661,135.654l1.622-.462,1.6,5.614,2.967-.847-1.405-4.926,1.545-.44,1.405,4.925,4.757-1.357.55,1.926-10.891,3.107Z" transform="translate(-0.375 -3.987)" fill="#fff"/>
        <rect id="Rectángulo_43335" data-name="Rectángulo 43335" width="11.325" height="2.004" transform="translate(11.229 126.154) rotate(-10.721)" fill="#fff"/>
        <path id="Trazado_168165" data-name="Trazado 168165" d="M10.014,117.118l1.662-.156.579,6.16,2.994-.281-.538-5.716,1.6-.15.538,5.716,3.325-.312-.588-6.255,1.694-.159.772,8.219-11.275,1.06Z" transform="translate(-0.297 -3.435)" fill="#fff"/>
        <path id="Trazado_168166" data-name="Trazado 168166" d="M9.878,112.488l.16-4.308a7.775,7.775,0,0,1,.323-2.056,4.093,4.093,0,0,1,.975-1.6,5.485,5.485,0,0,1,4.37-1.508,6.223,6.223,0,0,1,4.535,1.76,3.944,3.944,0,0,1,.921,1.555,6.864,6.864,0,0,1,.2,2.164L21.2,112.91Zm1.758-1.908,7.963.3.087-2.336a2.993,2.993,0,0,0-.983-2.664A5.152,5.152,0,0,0,15.727,105a4.324,4.324,0,0,0-2.885.752,3.269,3.269,0,0,0-1.124,2.617Z" transform="translate(-0.293 -3.051)" fill="#fff"/>
        <path id="Trazado_168167" data-name="Trazado 168167" d="M15.66,92.273a2.834,2.834,0,0,1,4.788-3.034,2.834,2.834,0,0,1-4.788,3.034" transform="translate(-0.451 -2.604)" fill="#fff"/>
        <path id="Trazado_168168" data-name="Trazado 168168" d="M26.672,69.679a4.9,4.9,0,0,1,2.475,2.681,4.824,4.824,0,0,1-.212,3.657,4.9,4.9,0,0,1-3.009,2.9,6.232,6.232,0,0,1-4.532-.371,6.894,6.894,0,0,1-2.467-1.734,5.361,5.361,0,0,1,1.306-8.042,4.15,4.15,0,0,1,3.272-.344l-.778,1.813a2.607,2.607,0,0,0-1.846.246,2.919,2.919,0,0,0-1.261,1.467,2.952,2.952,0,0,0-.171,2.012,3.443,3.443,0,0,0,1,1.641,6.105,6.105,0,0,0,1.735,1.1,6.172,6.172,0,0,0,1.507.44,4.856,4.856,0,0,0,1.461,0,2.82,2.82,0,0,0,1.31-.572,3.118,3.118,0,0,0,.941-1.266q1-2.325-1.518-3.8Z" transform="translate(-0.522 -2.022)" fill="#fff"/>
        <path id="Trazado_168169" data-name="Trazado 168169" d="M26.511,55.895l1.434.857-3.173,5.312,2.58,1.541,2.945-4.93,1.379.824-2.944,4.93L31.6,66.142l3.222-5.394,1.461.873-4.234,7.087L22.327,62.9Z" transform="translate(-0.661 -1.656)" fill="#fff"/>
        <path id="Trazado_168170" data-name="Trazado 168170" d="M29.1,52.138l3.325-4.2a4.644,4.644,0,0,1,2.3-1.69,2.732,2.732,0,0,1,2.539.648,3.019,3.019,0,0,1,1.061,1.467,2.734,2.734,0,0,1-.042,1.732,2.327,2.327,0,0,1,.669-.384,1.744,1.744,0,0,1,.615-.112,1.924,1.924,0,0,1,.622.137,4.271,4.271,0,0,1,.574.261q.23.132.587.374.1.057.362.235l.35.237c.057.039.157.1.3.2s.245.156.306.191.151.082.272.144.213.1.281.131.146.054.236.085a1.083,1.083,0,0,0,.25.056,1.1,1.1,0,0,0,.226,0l-1.322,1.672a.835.835,0,0,1-.173-.025,1.722,1.722,0,0,1-.374-.144q-.079-.041-.213-.116t-.213-.128l-.24-.159-.24-.158c-.053-.035-.146-.1-.277-.188s-.222-.156-.272-.2a3,3,0,0,0-1.851-.724,2.649,2.649,0,0,0-1.585,1.17l-1.638,2.072,3.668,2.9L37.98,59.163Zm2.5-.54,2.782,2.2L36,51.738a6.128,6.128,0,0,0,.551-.8,3.532,3.532,0,0,0,.317-.773,1.223,1.223,0,0,0-.046-.827,1.95,1.95,0,0,0-.628-.77,1.88,1.88,0,0,0-.823-.408,1.21,1.21,0,0,0-.758.1,2.675,2.675,0,0,0-.641.426,5.237,5.237,0,0,0-.6.653Z" transform="translate(-0.862 -1.367)" fill="#fff"/>
        <path id="Trazado_168171" data-name="Trazado 168171" d="M43.824,35.747l1.2,1.229L42.445,39.5l6.719,6.866-1.421,1.391-6.72-6.866-2.58,2.526-1.2-1.229Z" transform="translate(-1.103 -1.059)" fill="#fff"/>
        <rect id="Rectángulo_43336" data-name="Rectángulo 43336" width="2.004" height="11.325" transform="translate(45.298 32.598) rotate(-39.242)" fill="#fff"/>
        <path id="Trazado_168172" data-name="Trazado 168172" d="M58.335,24.96l.945,1.4-4.834,3.273,1.73,2.555,4.242-2.87.9,1.329-4.242,2.872,2.773,4.1-1.659,1.124-6.349-9.379Z" transform="translate(-1.536 -0.739)" fill="#fff"/>
        <rect id="Rectángulo_43337" data-name="Rectángulo 43337" width="2.004" height="11.325" transform="translate(59.958 22.459) rotate(-28.926)" fill="#fff"/>
        <path id="Trazado_168173" data-name="Trazado 168173" d="M75.095,16.652l.668,1.531-5.672,2.472,1.2,2.756,5.263-2.294L77.2,22.59l-5.263,2.294,1.334,3.063,5.76-2.51.68,1.56-7.568,3.3L67.615,19.913Z" transform="translate(-2.003 -0.493)" fill="#fff"/>
        <path id="Trazado_168174" data-name="Trazado 168174" d="M79.453,15.108l4.145-1.18a7.777,7.777,0,0,1,2.056-.329,4.055,4.055,0,0,1,1.826.431,5.48,5.48,0,0,1,2.787,3.687A6.225,6.225,0,0,1,90,22.574a3.966,3.966,0,0,1-1.193,1.358,6.906,6.906,0,0,1-2,.858L82.555,26Zm2.359,1.082L84,23.854l2.248-.64a2.99,2.99,0,0,0,2.228-1.759,5.146,5.146,0,0,0-.089-3.1,4.323,4.323,0,0,0-1.608-2.511,3.276,3.276,0,0,0-2.836-.259Z" transform="translate(-2.354 -0.403)" fill="#fff"/>
        <path id="Trazado_168175" data-name="Trazado 168175" d="M100.613,14.342a2.835,2.835,0,0,1,4.365,3.618,2.835,2.835,0,0,1-4.365-3.618" transform="translate(-2.961 -0.395)" fill="#fff"/>
        <path id="Trazado_168176" data-name="Trazado 168176" d="M165.31,60.944c-1.07-1.207-2.169-2.387-3.307-3.526h-.014a73.834,73.834,0,0,0-104.606,0h-.007c-1.139,1.139-2.244,2.319-3.294,3.526a73.8,73.8,0,0,0,0,97.485c1.051,1.207,2.155,2.387,3.294,3.526h.007a73.85,73.85,0,0,0,104.619,0c1.138-1.139,2.237-2.319,3.307-3.526a73.865,73.865,0,0,0,0-97.485M93.46,42.469c-6.6,5.845-12.126,15.194-15.985,26.877a106.914,106.914,0,0,1-16.067-9.1A69.037,69.037,0,0,1,93.46,42.469M61.407,159.118a108.08,108.08,0,0,1,16.067-9.09C81.334,161.71,86.858,171.06,93.46,176.9a69.06,69.06,0,0,1-32.053-17.786m67.426-13.83H61.121V121.774h97.132v23.514h-29.42Zm-46.708,2.775c.042-.014.089-.034.13-.048h25.014v30.62c-10.325-1.623-19.518-13.489-25.144-30.573m29.993,30.573h-.007v-30.62h25.013c.042.014.089.034.13.048-5.633,17.083-14.825,28.949-25.137,30.573m13.8-1.732c6.595-5.831,12.118-15.194,15.971-26.89a108.694,108.694,0,0,1,16.087,9.1A68.922,68.922,0,0,1,125.921,176.9m35.4-21.3a117.8,117.8,0,0,0-12.712-7.59H160.98v-28.97H147.593c.075-1.139.13-2.291.178-3.451a30.241,30.241,0,0,1-4.89.818c-.041.88-.1,1.76-.157,2.633H112.111v-5.892a20.956,20.956,0,0,1-4.842,2.2v3.7H76.649c-.082-1.139-.143-2.291-.191-3.451H71.6c.041,1.16.1,2.311.17,3.451H58.393v28.97H70.784a117.461,117.461,0,0,0-12.732,7.59,68.749,68.749,0,0,1-17.458-43.5H54.472v-4.842H40.594A68.754,68.754,0,0,1,58.052,63.754q4.84,3.3,9.678,5.974H82.664c5.66-16.231,14.6-27.414,24.6-28.99V69.8a22.8,22.8,0,0,1,4.842,2.052V40.737h.007c9.841,1.548,18.665,12.426,24.339,28.267a32.658,32.658,0,0,1,3.4-.17c.634,0,1.261.014,1.882.048-3.846-11.478-9.316-20.656-15.814-26.413a69.018,69.018,0,0,1,32.058,17.772,109.171,109.171,0,0,1-15.228,8.708,28.951,28.951,0,0,1,7.441,1.576,120.971,120.971,0,0,0,11.143-6.772,68.828,68.828,0,0,1,17.451,43.509H160.523a20.83,20.83,0,0,1-4.964,4.842h23.227a68.751,68.751,0,0,1-17.465,43.5" transform="translate(-1.057 -1.057)" fill="#c50"/>
        <path id="Trazado_168177" data-name="Trazado 168177" d="M121.515,109.447h-1.493a14.281,14.281,0,0,1-4.038,4.842h10.509a20.871,20.871,0,0,1-4.978-4.842" transform="translate(-3.436 -3.242)" fill="#c50"/>
        <path id="Trazado_168178" data-name="Trazado 168178" d="M58.561,74.28v8.647h4.57v21.7h-4.57v8.7h20.3v-8.7H74.232v-21.7h4.631V74.28h-20.3Z" transform="translate(-1.735 -2.2)" fill="#c50"/>
        <path id="Trazado_168179" data-name="Trazado 168179" d="M117.187,101.635c0-.082,0-.171-.007-.252a11.379,11.379,0,0,0-.838-4.3v-.007a9.75,9.75,0,0,0-2.81-3.771,15.293,15.293,0,0,0-4.842-2.605,34.009,34.009,0,0,0-7.453-1.5c-3.908-.388-6.588-1.118-6.588-3.737s3.349-3.293,5.415-3.293a17.647,17.647,0,0,1,4.964.613L105.2,87.3h9.534V77.869c-.068-.054-.144-.109-.212-.163-.327-.259-.662-.5-.989-.723a20.551,20.551,0,0,0-4.842-2.5,25.6,25.6,0,0,0-8.627-1.3,22.582,22.582,0,0,0-8.906,1.786,14.06,14.06,0,0,0-4.863,3.39,10.291,10.291,0,0,0-2.687,7.1c0,9.649,8.088,11.887,16.012,12.61,4.29.442,6.581,1.452,6.581,3.348,0,2.23-2.509,3.512-6.192,3.512a18.967,18.967,0,0,1-6.7-1.228l-.164-4.521H83.607v9.766c.3.252.6.5.907.73.15.115.3.225.45.341.307.218.606.43.914.635s.613.395.92.579a20.672,20.672,0,0,0,4.433,1.984h.007c.58.184,1.16.348,1.759.477a.912.912,0,0,0,.184.041q.409.093.819.164a1.738,1.738,0,0,0,.183.034c.294.054.587.1.887.137.4.061.811.109,1.228.149.313.027.62.054.941.068a.759.759,0,0,0,.136.008c.335.027.669.041,1.009.054.389.007.785.014,1.187.014h.382a26.454,26.454,0,0,0,7.726-1.146,14.471,14.471,0,0,0,7.365-4.842,10.948,10.948,0,0,0,2.142-6.737" transform="translate(-2.477 -2.168)" fill="#c50"/>
        <path id="Trazado_168180" data-name="Trazado 168180" d="M164.016,93.778c0-10.885-6.24-17.908-15.856-19.859a29.06,29.06,0,0,0-5.789-.559c-7.863,0-14.261,2.891-18.018,8.095a20.62,20.62,0,0,0-3.682,12.323c0,.866.041,1.7.115,2.516a22.323,22.323,0,0,0,.887,4.541,17.841,17.841,0,0,0,4.48,7.543,19.466,19.466,0,0,0,8.483,4.842,27.863,27.863,0,0,0,7.734,1.03,31.492,31.492,0,0,0,3.157-.157c5.347-.545,9.835-2.5,13.046-5.715,3.458-3.457,5.443-8.381,5.443-14.6m-13.877,7.931a9.621,9.621,0,0,1-4.72,2.741,12.08,12.08,0,0,1-3.048.376c-6.246,0-10.66-4.522-10.66-11.048,0-6.417,4.352-10.993,10.66-10.993.076,0,.157,0,.231.007a11.224,11.224,0,0,1,5.326,1.309c3.178,1.746,5.04,5.149,5.04,9.678a11.4,11.4,0,0,1-2.83,7.931" transform="translate(-3.575 -2.173)" fill="#c50"/>
        <path id="Trazado_168181" data-name="Trazado 168181" d="M90.048,140.685H87.924v2.737H83.981v-2.737H76.423v-2.635l6.414-8.926h4.188L81.2,137.478h2.9v-2.431h3.82v2.431h2.124Z" transform="translate(-2.264 -3.825)" fill="#c50"/>
        <path id="Trazado_168182" data-name="Trazado 168182" d="M103.169,135.559a4.077,4.077,0,0,1,1.44,3.268,4.576,4.576,0,0,1-.684,2.441,4.743,4.743,0,0,1-2.083,1.777,8.056,8.056,0,0,1-3.462.664,12.351,12.351,0,0,1-2.993-.368,8.559,8.559,0,0,1-2.543-1.041l1.451-3.044a6.925,6.925,0,0,0,1.889.878,7.228,7.228,0,0,0,2.073.307,3.055,3.055,0,0,0,1.665-.4,1.251,1.251,0,0,0,.623-1.113,1.186,1.186,0,0,0-.613-1.083,4.534,4.534,0,0,0-2.165-.367H93.885l.714-8.355h9.111v3.126H97.95l-.184,2.083h.961a6.745,6.745,0,0,1,4.442,1.226" transform="translate(-2.75 -3.825)" fill="#c50"/>
        <path id="Trazado_168183" data-name="Trazado 168183" d="M111.316,142.822a5.905,5.905,0,0,1-2.237-2.564,10.281,10.281,0,0,1,0-7.987,5.908,5.908,0,0,1,2.237-2.563,6.476,6.476,0,0,1,6.516,0,5.914,5.914,0,0,1,2.237,2.563,10.292,10.292,0,0,1,0,7.987,5.911,5.911,0,0,1-2.237,2.564,6.483,6.483,0,0,1-6.516,0m4.893-3.422a8.47,8.47,0,0,0,0-6.271,1.844,1.844,0,0,0-3.269,0,8.458,8.458,0,0,0,0,6.271,1.844,1.844,0,0,0,3.269,0" transform="translate(-3.207 -3.816)" fill="#c50"/>
        <path id="Trazado_168184" data-name="Trazado 168184" d="M127.841,142.822a5.9,5.9,0,0,1-2.237-2.564,10.281,10.281,0,0,1,0-7.987,5.9,5.9,0,0,1,2.237-2.563,6.476,6.476,0,0,1,6.516,0,5.914,5.914,0,0,1,2.237,2.563,10.292,10.292,0,0,1,0,7.987,5.911,5.911,0,0,1-2.237,2.564,6.483,6.483,0,0,1-6.516,0m4.892-3.422a8.458,8.458,0,0,0,0-6.271,1.843,1.843,0,0,0-3.268,0,8.458,8.458,0,0,0,0,6.271,1.843,1.843,0,0,0,3.268,0" transform="translate(-3.697 -3.816)" fill="#c50"/>
        <path id="Trazado_168185" data-name="Trazado 168185" d="M147.263,129.124v14.3h-4.045V132.249h-2.655v-3.126Z" transform="translate(-4.164 -3.825)" fill="#c50"/>
      </g>
    </g>
  </g>
</svg>
