<svg id="Grupo_118801" data-name="Grupo 118801" xmlns="http://www.w3.org/2000/svg" xmlns:xlink="http://www.w3.org/1999/xlink" width="244" height="229.991" viewBox="0 0 244 229.991">
  <defs>
    <clipPath id="clip-path">
      <rect id="Rectángulo_43366" data-name="Rectángulo 43366" width="244" height="229.991" fill="none"/>
    </clipPath>
    <clipPath id="clip-path-3">
      <rect id="Rectángulo_43360" data-name="Rectángulo 43360" width="3.898" height="208.325" fill="none"/>
    </clipPath>
    <clipPath id="clip-path-4">
      <rect id="Rectángulo_43363" data-name="Rectángulo 43363" width="20.692" height="3.756" fill="none"/>
    </clipPath>
    <clipPath id="clip-path-5">
      <rect id="Rectángulo_43364" data-name="Rectángulo 43364" width="36.254" height="10.897" fill="none"/>
    </clipPath>
  </defs>
  <g id="Grupo_118800" data-name="Grupo 118800" clip-path="url(#clip-path)">
    <rect id="Rectángulo_43345" data-name="Rectángulo 43345" width="40.706" height="42.433" transform="translate(201.676 63.559)" fill="#e1e1e1"/>
    <rect id="Rectángulo_43346" data-name="Rectángulo 43346" width="40.706" height="42.433" transform="translate(198.92 63.559)" fill="#fafafa"/>
    <path id="Trazado_168489" data-name="Trazado 168489" d="M419.71,163.533H378.978V121.075H419.71ZM379,163.508h40.681V121.1H379Z" transform="translate(-180.071 -57.529)" fill="#e1e1e1"/>
    <rect id="Rectángulo_43347" data-name="Rectángulo 43347" width="29.762" height="31.025" transform="translate(204.392 69.263)" fill="#fafafa"/>
    <g id="Grupo_118799" data-name="Grupo 118799">
      <g id="Grupo_118798" data-name="Grupo 118798" clip-path="url(#clip-path)">
        <path id="Trazado_168490" data-name="Trazado 168490" d="M384.509,191.469a4.867,4.867,0,0,1-.734.854c-.476.5-1.143,1.18-1.892,1.918s-1.437,1.4-1.944,1.861a4.753,4.753,0,0,1-.86.716,4.752,4.752,0,0,1,.73-.85c.476-.5,1.145-1.182,1.9-1.921s1.441-1.4,1.948-1.865a4.652,4.652,0,0,1,.857-.713" transform="translate(-180.118 -90.975)" fill="#e1e1e1"/>
        <path id="Trazado_168491" data-name="Trazado 168491" d="M446.132,191.325a4.869,4.869,0,0,1,.854.734c.5.476,1.18,1.143,1.918,1.892s1.4,1.437,1.861,1.944a4.749,4.749,0,0,1,.717.86,4.72,4.72,0,0,1-.851-.73c-.5-.475-1.182-1.145-1.921-1.9s-1.4-1.441-1.865-1.948a4.667,4.667,0,0,1-.713-.856" transform="translate(-211.978 -90.907)" fill="#e1e1e1"/>
        <path id="Trazado_168492" data-name="Trazado 168492" d="M445.977,127.281a4.87,4.87,0,0,1,.734-.854c.475-.5,1.144-1.18,1.892-1.918s1.437-1.4,1.945-1.861a4.684,4.684,0,0,1,.86-.716,4.8,4.8,0,0,1-.731.85c-.475.5-1.145,1.182-1.9,1.921s-1.44,1.4-1.948,1.865a4.647,4.647,0,0,1-.856.713" transform="translate(-211.904 -57.935)" fill="#e1e1e1"/>
        <path id="Trazado_168493" data-name="Trazado 168493" d="M384.428,127.352a4.87,4.87,0,0,1-.854-.734c-.5-.476-1.18-1.144-1.918-1.892s-1.4-1.437-1.861-1.944a4.779,4.779,0,0,1-.716-.86,4.749,4.749,0,0,1,.85.73c.5.476,1.182,1.145,1.921,1.9s1.4,1.441,1.865,1.948a4.64,4.64,0,0,1,.713.856" transform="translate(-180.118 -57.93)" fill="#e1e1e1"/>
        <path id="Trazado_168494" data-name="Trazado 168494" d="M418.989,162.872a1.474,1.474,0,0,1-.006-.151c0-.106,0-.248-.007-.433,0-.389-.007-.948-.013-1.675-.007-1.47-.017-3.608-.03-6.323-.014-5.434-.035-13.175-.059-22.443l.115.114-29.678.017h0l.132-.132c-.007,11.387-.013,22.04-.018,31.025l-.113-.113,21.491.058,6.036.029,1.6.013.413.006a1.343,1.343,0,0,1,.144.006.962.962,0,0,1-.131.006l-.4.006-1.576.013-6.011.03-21.563.058h-.113v-.113c-.006-8.984-.012-19.637-.019-31.025v-.132h.135l29.678.017h.115v.115c-.024,9.3-.044,17.065-.058,22.517-.013,2.7-.023,4.833-.03,6.3-.006.717-.01,1.269-.013,1.653,0,.179-.005.318-.006.42a1.1,1.1,0,0,1-.007.138" transform="translate(-184.916 -62.585)" fill="#e1e1e1"/>
        <rect id="Rectángulo_43348" data-name="Rectángulo 43348" width="9.931" height="9.931" transform="translate(214.307 79.81)" fill="#ececec"/>
        <rect id="Rectángulo_43349" data-name="Rectángulo 43349" width="135.195" height="198.488" transform="translate(67.299 5.156) rotate(-1.598)" fill="#e1e1e1"/>
        <rect id="Rectángulo_43350" data-name="Rectángulo 43350" width="198.488" height="135.194" transform="translate(48.979 198.189) rotate(-86.858)" fill="#f5f5f5"/>
        <rect id="Rectángulo_43351" data-name="Rectángulo 43351" width="198.488" height="135.194" transform="translate(66.906 206.508) rotate(-85.133)" fill="#ececec"/>
        <path id="Trazado_168495" data-name="Trazado 168495" d="M13.667,335.89a15.842,15.842,0,0,0-6.778-2.333,4.519,4.519,0,0,0-3.206.589.661.661,0,0,0-.33.586.716.716,0,0,0,.313.4,9.692,9.692,0,0,0,10,.757" transform="translate(-1.591 -158.465)" fill="#687687"/>
        <path id="Trazado_168496" data-name="Trazado 168496" d="M16.158,328.064a33.033,33.033,0,0,1-4.378-3.852,11.071,11.071,0,0,1-2.744-5.075,2.048,2.048,0,0,1,.217-1.7c3.49,2.725,6.231,6.25,6.905,10.626" transform="translate(-4.254 -150.83)" fill="#687687"/>
        <path id="Trazado_168497" data-name="Trazado 168497" d="M22.74,328.5a15.83,15.83,0,0,1,.081-5.748,7.772,7.772,0,0,1,3.061-4.743,6.781,6.781,0,0,1-.081,4.506,21.9,21.9,0,0,1-3.036,6.392" transform="translate(-10.699 -151.102)" fill="#687687"/>
        <path id="Trazado_168498" data-name="Trazado 168498" d="M21.724,349.676a10.016,10.016,0,0,0-5.435,2.751,10.283,10.283,0,0,0-3.109,5.337c2.037-.125,3.765-1.562,5.018-3.173s2.121-3.377,3.5-4.884" transform="translate(-6.262 -166.148)" fill="#687687"/>
        <path id="Trazado_168499" data-name="Trazado 168499" d="M30.028,340.064a13.406,13.406,0,0,1,1.548-12.681,16.143,16.143,0,0,1-1.548,12.681" transform="translate(-13.824 -155.555)" fill="#687687"/>
        <path id="Trazado_168500" data-name="Trazado 168500" d="M30.968,361.781a9.693,9.693,0,0,0-9.269,5.336c-.115.229-.216.521-.062.727a.688.688,0,0,0,.615.181,8.065,8.065,0,0,0,4.781-2.469,45.835,45.835,0,0,1,3.976-3.779" transform="translate(-10.243 -171.891)" fill="#687687"/>
        <path id="Trazado_168501" data-name="Trazado 168501" d="M38.509,349.613a17.263,17.263,0,0,1-.172-9.643,4.7,4.7,0,0,1,2.058-3.13.4.4,0,0,1,.315-.055.417.417,0,0,1,.2.23,5.81,5.81,0,0,1,.485,2.767,17.366,17.366,0,0,1-.434,2.8c-.362,1.712-.554,3.551-1.493,5.028a10.315,10.315,0,0,0-.6,1.1c-.178.375-.179.507-.342.806" transform="translate(-17.929 -160.015)" fill="#687687"/>
        <path id="Trazado_168502" data-name="Trazado 168502" d="M61.705,355.019A12.433,12.433,0,0,1,63.884,344.8c.156-.2.364-.422.619-.4.392.036.493.557.476.95a18.475,18.475,0,0,1-3.274,9.671" transform="translate(-29.161 -163.639)" fill="#687687"/>
        <path id="Trazado_168503" data-name="Trazado 168503" d="M64.061,362.841a14.87,14.87,0,0,0,12.2-2.482,9.88,9.88,0,0,0-6.606-.81,9.423,9.423,0,0,0-5.6,3.292" transform="translate(-30.438 -170.724)" fill="#687687"/>
        <path id="Trazado_168504" data-name="Trazado 168504" d="M65.794,355.966a14.1,14.1,0,0,1,11.075-6.4,6.822,6.822,0,0,1-3.623,4,20.108,20.108,0,0,1-5.316,1.555,3.75,3.75,0,0,0-2.136.844" transform="translate(-31.262 -166.094)" fill="#687687"/>
        <path id="Trazado_168505" data-name="Trazado 168505" d="M61,329.328a32.16,32.16,0,0,0,1.417-6.486,10.8,10.8,0,0,0-1.292-6.415,14.122,14.122,0,0,0-.189,13.124" transform="translate(-28.228 -150.35)" fill="#687687"/>
        <path id="Trazado_168506" data-name="Trazado 168506" d="M76.187,326.182a17.378,17.378,0,0,1,12.793-8.7c-2,4.969-7.439,8.809-12.793,8.7" transform="translate(-36.2 -150.85)" fill="#687687"/>
        <path id="Trazado_168507" data-name="Trazado 168507" d="M73.183,335.084c3.737.569,6.922,2.957,10.415,4.4a4.665,4.665,0,0,0,2.354.451,1.843,1.843,0,0,0,1.154-3.26,5.031,5.031,0,0,0-1.71-1.037,19,19,0,0,0-11.891-.663" transform="translate(-34.773 -158.86)" fill="#687687"/>
        <path id="Trazado_168508" data-name="Trazado 168508" d="M69.062,340.592a4.413,4.413,0,0,1,1.805,1.251,19.479,19.479,0,0,0,7.9,4.057c.3.075.7.1.847-.167.131-.238-.035-.526-.2-.738a10.868,10.868,0,0,0-4.768-3.237c-1.823-.679-3.4-1.5-5.577-1.321" transform="translate(-32.815 -161.746)" fill="#687687"/>
        <path id="Trazado_168509" data-name="Trazado 168509" d="M64.412,310.224a14.946,14.946,0,0,0,11.459,3.9.784.784,0,0,0,.522-.187c.288-.314-.058-.8-.394-1.06a13.2,13.2,0,0,0-11.587-2.651" transform="translate(-30.605 -147.21)" fill="#687687"/>
        <path id="Trazado_168510" data-name="Trazado 168510" d="M69.925,305.755a15.969,15.969,0,0,1,14.3-2.359,11.35,11.35,0,0,1-6.813,2.991,21.558,21.558,0,0,1-7.485-.632" transform="translate(-33.225 -143.8)" fill="#687687"/>
        <path id="Trazado_168511" data-name="Trazado 168511" d="M65.985,285.556c-.331-3.363-.116-6.017-.35-9.4-.019-.27-.077-.595-.329-.692-.352-.135-.645.3-.76.656a10.768,10.768,0,0,0,1.434,9.358" transform="translate(-30.435 -130.876)" fill="#687687"/>
        <path id="Trazado_168512" data-name="Trazado 168512" d="M67.273,285.849a19.769,19.769,0,0,0,5.57-5.414,7.4,7.4,0,0,0,1.778-5.156,5.332,5.332,0,0,0-4.018,2,11.212,11.212,0,0,0-2.048,4.121c-.446,1.48-.758,3-1.282,4.454" transform="translate(-31.965 -130.798)" fill="#687687"/>
        <path id="Trazado_168513" data-name="Trazado 168513" d="M77.635,284.9a44.91,44.91,0,0,0,13.708-8.083,7,7,0,0,0-5.149.4,16.238,16.238,0,0,0-8.63,7.65" transform="translate(-36.854 -131.367)" fill="#687687"/>
        <path id="Trazado_168514" data-name="Trazado 168514" d="M70.205,295.335a27.883,27.883,0,0,0,7.611.037,32.309,32.309,0,0,0,7.106-2.361.835.835,0,0,0,.483-.366.556.556,0,0,0-.173-.608,1.468,1.468,0,0,0-.606-.284,13.161,13.161,0,0,0-7.679.459,35.635,35.635,0,0,0-6.742,3.124" transform="translate(-33.358 -138.444)" fill="#687687"/>
        <path id="Trazado_168515" data-name="Trazado 168515" d="M41.527,300.721a13.463,13.463,0,0,1-.123-11.143,8.515,8.515,0,0,1,.986,5.54c-.192,1.9-.772,3.863-.809,5.776" transform="translate(-19.129 -137.592)" fill="#687687"/>
        <path id="Trazado_168516" data-name="Trazado 168516" d="M19.079,304.18A15.541,15.541,0,0,0,7.53,309.1a10.791,10.791,0,0,0,6.324-1.172,32.191,32.191,0,0,0,5.419-3.627" transform="translate(-3.578 -144.529)" fill="#687687"/>
        <path id="Trazado_168517" data-name="Trazado 168517" d="M10.864,301.043a16.105,16.105,0,0,0-6.165.189A7.394,7.394,0,0,0,0,305.217a11.139,11.139,0,0,0,5.78-1.092,33.219,33.219,0,0,0,5.084-3.082" transform="translate(0 -142.944)" fill="#687687"/>
        <path id="Trazado_168518" data-name="Trazado 168518" d="M22.588,298.431a19.455,19.455,0,0,0-6.054-3.024,6.6,6.6,0,0,0-6.309,1.53,11.788,11.788,0,0,0,6.031,1.171,20.839,20.839,0,0,1,6.569.667" transform="translate(-4.859 -140.261)" fill="#687687"/>
        <path id="Trazado_168519" data-name="Trazado 168519" d="M30.47,289.549C27.227,286.365,26,280.644,27.3,276.29a20.2,20.2,0,0,1,3.167,13.259" transform="translate(-12.729 -131.279)" fill="#687687"/>
        <path id="Trazado_168520" data-name="Trazado 168520" d="M50.793,274.888c.611-1.422,1.042-2.915,1.59-4.362a12.529,12.529,0,0,1,2.268-4.021,5.97,5.97,0,0,1,4.017-2.082,16.175,16.175,0,0,1-7.8,10.487" transform="translate(-24.134 -125.641)" fill="#687687"/>
        <path id="Trazado_168521" data-name="Trazado 168521" d="M40.123,282.77a20.9,20.9,0,0,0-3.554-4.324,5.946,5.946,0,0,0-4.835-1.27,11.263,11.263,0,0,0,8.389,5.594" transform="translate(-15.078 -131.642)" fill="#687687"/>
        <path id="Trazado_168522" data-name="Trazado 168522" d="M46.779,275.122a24.048,24.048,0,0,1-1.6-5.181,8.084,8.084,0,0,1,.811-5.268c1.78,3.365,2.353,6.977.88,10.488" transform="translate(-21.411 -125.759)" fill="#687687"/>
        <path id="Trazado_168523" data-name="Trazado 168523" d="M50.824,258.216c1.008-3.336,4.063-5.792,7.361-6.919a2.743,2.743,0,0,1,1.29-.194,1.12,1.12,0,0,1,.952.794c.12.567-.349,1.076-.789,1.453a25.059,25.059,0,0,1-8.813,4.866" transform="translate(-24.149 -119.302)" fill="#687687"/>
        <path id="Trazado_168524" data-name="Trazado 168524" d="M50.845,249.324a23.89,23.89,0,0,1,.962-6.371,8.054,8.054,0,0,1,4.009-4.841c.334,2.172-.625,4.334-1.781,6.2a28.478,28.478,0,0,0-3.244,5.719" transform="translate(-24.134 -113.138)" fill="#687687"/>
        <path id="Trazado_168525" data-name="Trazado 168525" d="M45.13,251.709c-.833-2.431-.92-5.519-2.375-7.637-1.018-1.481-2.647-2.489-3.524-4.058a6.174,6.174,0,0,0,.2,4.606,13.33,13.33,0,0,0,2.694,3.856c1.077,1.15,2,2.016,3,3.233" transform="translate(-18.471 -114.042)" fill="#687687"/>
        <path id="Trazado_168526" data-name="Trazado 168526" d="M50.71,333.126c-.065,0-.121-16.218-.125-36.22s.045-36.224.109-36.224.121,16.215.125,36.224-.045,36.22-.109,36.22" transform="translate(-24.035 -123.863)" fill="#687687"/>
        <path id="Trazado_168527" data-name="Trazado 168527" d="M64.978,306.143a3.417,3.417,0,0,1-.61.229l-1.678.566c-1.415.482-3.359,1.18-5.468,2.045-2.089.9-4.059,1.623-5.181,2.6A3.815,3.815,0,0,0,51,312.956c-.16.381-.189.614-.211.61a.49.49,0,0,1,.007-.17,2.632,2.632,0,0,1,.119-.473,3.662,3.662,0,0,1,1.016-1.468,9.116,9.116,0,0,1,2.248-1.4c.9-.419,1.9-.857,2.954-1.292,2.116-.867,4.075-1.543,5.506-1.985.715-.223,1.3-.388,1.7-.5a3.444,3.444,0,0,1,.636-.142" transform="translate(-24.13 -145.462)" fill="#687687"/>
        <path id="Trazado_168528" data-name="Trazado 168528" d="M70.634,284.4a1,1,0,0,1-.171.183l-.52.489L68,286.841,61.533,292.6c-2.524,2.247-4.705,4.394-6.217,6.01-.757.808-1.353,1.476-1.76,1.943l-.47.537a1.032,1.032,0,0,1-.175.178.987.987,0,0,1,.139-.208c.1-.13.241-.325.437-.565.386-.486.965-1.173,1.708-2a81.921,81.921,0,0,1,6.183-6.073c2.533-2.242,4.838-4.255,6.513-5.707l1.992-1.709.55-.456a1.009,1.009,0,0,1,.2-.147" transform="translate(-25.14 -135.134)" fill="#687687"/>
        <path id="Trazado_168529" data-name="Trazado 168529" d="M64.142,299.287c-.066-.029.461-1.247.987-2.787s.779-2.839.847-2.828a9.485,9.485,0,0,1-.625,2.9,18.98,18.98,0,0,1-.785,1.949,3.025,3.025,0,0,1-.424.763" transform="translate(-30.474 -139.538)" fill="#687687"/>
        <path id="Trazado_168530" data-name="Trazado 168530" d="M42.341,312.352a2.9,2.9,0,0,1-.389-.451l-1-1.278c-.837-1.082-1.994-2.575-3.291-4.21s-2.49-3.1-3.354-4.162l-1.018-1.26a2.941,2.941,0,0,1-.352-.481,2.876,2.876,0,0,1,.421.422c.26.281.628.7,1.076,1.213.9,1.034,2.11,2.486,3.41,4.122s2.436,3.148,3.24,4.257c.4.554.722,1.006.937,1.323a2.934,2.934,0,0,1,.315.505" transform="translate(-15.652 -142.786)" fill="#687687"/>
        <path id="Trazado_168531" data-name="Trazado 168531" d="M43.471,311.034a5.713,5.713,0,0,1-1.3-2.437,6.966,6.966,0,0,1-.295-2.457l.1.008c-.046.187-.08.287-.1.283s-.019-.108,0-.3l.1.008a11.184,11.184,0,0,0,.416,2.39,18.208,18.208,0,0,0,1.077,2.5" transform="translate(-19.889 -145.458)" fill="#687687"/>
        <path id="Trazado_168532" data-name="Trazado 168532" d="M30.932,304.954a4.186,4.186,0,0,0-.909-.528,6.072,6.072,0,0,0-2.523-.2,15.584,15.584,0,0,0-2.541.41,7.63,7.63,0,0,1-1.046.251,3.628,3.628,0,0,1,1-.41,11.593,11.593,0,0,1,2.568-.484,5.507,5.507,0,0,1,2.6.281,1.609,1.609,0,0,1,.847.682" transform="translate(-11.362 -144.425)" fill="#687687"/>
        <path id="Trazado_168533" data-name="Trazado 168533" d="M26.545,302.177c-.018.036-.53-.212-1.392-.507a14.014,14.014,0,0,0-7.018-.535c-.9.161-1.441.329-1.453.29a1.33,1.33,0,0,1,.369-.157,8.742,8.742,0,0,1,1.052-.295,12.387,12.387,0,0,1,7.107.542,8.642,8.642,0,0,1,.995.451,1.313,1.313,0,0,1,.341.212" transform="translate(-7.926 -142.87)" fill="#687687"/>
        <path id="Trazado_168534" data-name="Trazado 168534" d="M49.153,287.232a57.446,57.446,0,0,1-1.8-7.113,28.873,28.873,0,0,1,1.016,3.528,28.773,28.773,0,0,1,.788,3.585" transform="translate(-22.495 -133.098)" fill="#687687"/>
        <path id="Trazado_168535" data-name="Trazado 168535" d="M48.4,290.209a16.958,16.958,0,0,0-1.126-2.112,9.28,9.28,0,0,0-1.656-1.71,1.553,1.553,0,0,1,.639.33,5.147,5.147,0,0,1,1.209,1.245,4.68,4.68,0,0,1,.934,2.247" transform="translate(-21.673 -136.074)" fill="#687687"/>
        <path id="Trazado_168536" data-name="Trazado 168536" d="M37.373,360.806c-.025,0-.073-.39-.256-1.079a15.381,15.381,0,0,0-1.084-2.808,38.886,38.886,0,0,0-5.75-8.1c-1.284-1.466-2.529-2.85-3.586-4.175a29.316,29.316,0,0,1-2.565-3.7,17.767,17.767,0,0,1-1.295-2.745c-.119-.337-.206-.6-.254-.785a1.3,1.3,0,0,1-.067-.28c.021-.007.139.371.406,1.033a20.078,20.078,0,0,0,1.353,2.694,31.107,31.107,0,0,0,2.59,3.648c1.061,1.31,2.309,2.687,3.595,4.156a36.811,36.811,0,0,1,5.723,8.183,13.962,13.962,0,0,1,1.023,2.858,7.789,7.789,0,0,1,.144.814,1.353,1.353,0,0,1,.024.287" transform="translate(-10.698 -160.188)" fill="#687687"/>
        <path id="Trazado_168537" data-name="Trazado 168537" d="M63.63,354.674a5.871,5.871,0,0,1-.671.377,14.68,14.68,0,0,0-1.741,1.151,19.946,19.946,0,0,0-2.286,2.085c-.8.848-1.629,1.832-2.473,2.887-1.687,2.117-3.265,3.989-4.209,5.484-.48.742-.828,1.367-1.057,1.805a5.856,5.856,0,0,1-.369.676.629.629,0,0,1,.062-.19c.05-.121.118-.3.226-.526a17.091,17.091,0,0,1,1-1.853,60.413,60.413,0,0,1,4.167-5.543c.845-1.057,1.682-2.043,2.5-2.89a18.546,18.546,0,0,1,2.343-2.068,12.23,12.23,0,0,1,1.8-1.1c.222-.112.4-.18.524-.232a.645.645,0,0,1,.189-.064" transform="translate(-24.148 -168.522)" fill="#687687"/>
        <path id="Trazado_168538" data-name="Trazado 168538" d="M67.69,363.6a9.74,9.74,0,0,1-1.419.206,18.713,18.713,0,0,0-3.365.662,10.106,10.106,0,0,0-3.013,1.581c-.694.536-1.022.98-1.054.954a1.08,1.08,0,0,1,.21-.326,5.388,5.388,0,0,1,.739-.756,9.124,9.124,0,0,1,3.046-1.676,15.224,15.224,0,0,1,3.42-.6,7.813,7.813,0,0,1,1.435-.041" transform="translate(-27.957 -172.756)" fill="#687687"/>
        <path id="Trazado_168539" data-name="Trazado 168539" d="M59.625,364.769c-.075-.041.565-1.018,1.061-2.331.465-1.326.574-2.488.657-2.475a2.233,2.233,0,0,1-.023.76,8.179,8.179,0,0,1-.414,1.794,8.656,8.656,0,0,1-.823,1.644,2.286,2.286,0,0,1-.458.607" transform="translate(-28.328 -171.036)" fill="#687687"/>
        <path id="Trazado_168540" data-name="Trazado 168540" d="M67.782,330.669a1.073,1.073,0,0,1-.227.121l-.667.3c-.292.125-.647.284-1.046.494s-.868.419-1.355.712l-.774.44c-.268.154-.534.337-.816.514-.571.347-1.142.773-1.752,1.208a30.06,30.06,0,0,0-6.749,6.983c-.414.625-.82,1.21-1.147,1.793-.167.288-.341.559-.487.833l-.413.788c-.276.5-.473.972-.666,1.379s-.343.766-.459,1.062l-.28.677a1.1,1.1,0,0,1-.113.231,1.02,1.02,0,0,1,.068-.247l.239-.693c.1-.3.237-.669.424-1.082s.37-.9.638-1.4l.4-.8c.142-.277.313-.553.477-.846.322-.59.725-1.184,1.137-1.817a28.979,28.979,0,0,1,6.8-7.034c.618-.434,1.2-.857,1.777-1.2.287-.175.556-.356.829-.507l.786-.429c.495-.285.97-.489,1.379-.685s.768-.347,1.066-.46c.278-.107.5-.193.685-.263a1.049,1.049,0,0,1,.245-.077" transform="translate(-24.152 -157.116)" fill="#687687"/>
        <path id="Trazado_168541" data-name="Trazado 168541" d="M63.814,342.077a1.633,1.633,0,0,1,.557-.83,3.515,3.515,0,0,1,2.245-.862,6.145,6.145,0,0,1,2.363.462,3.358,3.358,0,0,1,.893.434,5.529,5.529,0,0,1-.948-.278,7.145,7.145,0,0,0-2.3-.384,3.657,3.657,0,0,0-2.145.753,6.517,6.517,0,0,0-.666.7" transform="translate(-30.32 -161.733)" fill="#687687"/>
        <path id="Trazado_168542" data-name="Trazado 168542" d="M60.924,342.749a6,6,0,0,0,.495-4.24,1.381,1.381,0,0,1,.263.6,4.289,4.289,0,0,1-.363,3.109c-.2.358-.373.544-.4.527" transform="translate(-28.946 -160.842)" fill="#687687"/>
        <path id="Trazado_168543" data-name="Trazado 168543" d="M29.482,386.664a53.678,53.678,0,0,0,5.09,18.875H47.065a54.274,54.274,0,0,0,4.788-18.875Z" transform="translate(-14.008 -183.723)" fill="#687687"/>
        <path id="Trazado_168544" data-name="Trazado 168544" d="M51.613,405.667c0,.065-4.113.117-9.186.117s-9.187-.052-9.187-.117,4.112-.117,9.187-.117,9.186.052,9.186.117" transform="translate(-15.794 -192.696)" fill="#687687"/>
        <path id="Trazado_168545" data-name="Trazado 168545" d="M52.121,409.945c0,.065-3.856.117-8.612.117s-8.612-.052-8.612-.117,3.855-.117,8.612-.117,8.612.052,8.612.117" transform="translate(-16.581 -194.729)" fill="#687687"/>
        <path id="Trazado_168546" data-name="Trazado 168546" d="M39.458,394.418a35.432,35.432,0,0,1,0,5.755,35.43,35.43,0,0,1,0-5.755" transform="translate(-18.693 -187.407)" fill="#687687"/>
        <path id="Trazado_168547" data-name="Trazado 168547" d="M52.211,394.418a37.991,37.991,0,0,1,0,5.96,37.991,37.991,0,0,1,0-5.96" transform="translate(-24.752 -187.407)" fill="#687687"/>
        <path id="Trazado_168548" data-name="Trazado 168548" d="M64.183,394.321a39.523,39.523,0,0,1,0,6.079,39.523,39.523,0,0,1,0-6.079" transform="translate(-30.441 -187.361)" fill="#687687"/>
        <path id="Trazado_168549" data-name="Trazado 168549" d="M51.839,394.312c0,.065-4.824.117-10.774.117s-10.775-.052-10.775-.117,4.823-.117,10.775-.117,10.774.052,10.774.117" transform="translate(-14.392 -187.301)" fill="#687687"/>
        <rect id="Rectángulo_43352" data-name="Rectángulo 43352" width="50.081" height="72.591" transform="translate(4.927 19.05)" fill="#e1e1e1"/>
        <rect id="Rectángulo_43353" data-name="Rectángulo 43353" width="50.081" height="72.591" transform="translate(2.418 19.05)" fill="#f5f5f5"/>
        <rect id="Rectángulo_43354" data-name="Rectángulo 43354" width="37.637" height="56.867" transform="translate(8.64 26.912)" fill="#fff"/>
        <path id="Trazado_168550" data-name="Trazado 168550" d="M53.975,108.019s0-.1-.007-.278,0-.456-.007-.806c0-.715-.008-1.761-.015-3.119-.008-2.726-.019-6.7-.034-11.714-.015-10.028-.036-24.227-.061-40.948l.125.125-37.632.011h0l.136-.136c-.01,21.452-.02,41.231-.028,56.866l-.108-.109,27.395.057,7.568.028,1.987.012c.45,0,.687.012.687.012s-.221.008-.664.012l-1.967.013-7.544.027-27.462.057H16.23v-.109c-.008-15.635-.017-35.414-.028-56.866v-.136h.141l37.632.011H54.1v.125c-.025,16.755-.046,30.983-.061,41.03-.014,5-.026,8.967-.034,11.686-.007,1.347-.012,2.385-.015,3.094,0,.345-.006.608-.007.793s-.007.263-.007.263" transform="translate(-7.698 -24.24)" fill="#e1e1e1"/>
        <path id="Trazado_168551" data-name="Trazado 168551" d="M94.119,36.3a8.647,8.647,0,0,1-.893,1.3c-.582.778-1.408,1.836-2.35,2.981S89.053,42.73,88.4,43.451a8.6,8.6,0,0,1-1.1,1.124,9.435,9.435,0,0,1,.956-1.25L90.666,40.4l2.409-2.927A9.309,9.309,0,0,1,94.119,36.3" transform="translate(-41.479 -17.245)" fill="#e1e1e1"/>
        <path id="Trazado_168552" data-name="Trazado 168552" d="M88.536,159.274a46.6,46.6,0,0,0,6.564,8.21" transform="translate(-42.068 -75.679)" fill="#fff"/>
        <path id="Trazado_168553" data-name="Trazado 168553" d="M95.1,167.483a7.474,7.474,0,0,1-1.144-1.041,36.7,36.7,0,0,1-4.656-5.823,7.475,7.475,0,0,1-.764-1.345,10.377,10.377,0,0,1,.923,1.238c.552.775,1.328,1.835,2.233,2.968s1.769,2.122,2.4,2.831a10.358,10.358,0,0,1,1,1.173" transform="translate(-42.066 -75.678)" fill="#e1e1e1"/>
        <path id="Trazado_168554" data-name="Trazado 168554" d="M4.593,167.166l6.56-8.094" transform="translate(-2.182 -75.583)" fill="#fff"/>
        <path id="Trazado_168555" data-name="Trazado 168555" d="M11.151,159.072A49.9,49.9,0,0,1,7.977,163.2a50.065,50.065,0,0,1-3.386,3.962,49.754,49.754,0,0,1,3.174-4.133,49.911,49.911,0,0,1,3.385-3.961" transform="translate(-2.181 -75.582)" fill="#e1e1e1"/>
        <path id="Trazado_168556" data-name="Trazado 168556" d="M4.605,36.3A45.122,45.122,0,0,1,7.789,40.1a45.161,45.161,0,0,1,2.971,3.976A45.484,45.484,0,0,1,7.575,40.27,45.421,45.421,0,0,1,4.605,36.3" transform="translate(-2.187 -17.245)" fill="#e1e1e1"/>
        <rect id="Rectángulo_43355" data-name="Rectángulo 43355" width="12.602" height="35.781" transform="translate(21.948 38.459)" fill="#e1e1e1"/>
        <path id="Trazado_168557" data-name="Trazado 168557" d="M241.977,422.73c0,.076-52.458.136-117.153.136-64.718,0-117.164-.061-117.164-.136s52.446-.136,117.164-.136c64.7,0,117.153.061,117.153.136" transform="translate(-3.639 -200.795)" fill="#1a2e35"/>
        <path id="Trazado_168558" data-name="Trazado 168558" d="M248.471,235.359H99.29V29.036H248.471a5.647,5.647,0,0,1,5.646,5.646v195.03a5.647,5.647,0,0,1-5.646,5.646" transform="translate(-47.177 -13.796)" fill="#ff735d"/>
        <path id="Trazado_168559" data-name="Trazado 168559" d="M248.471,235.359H99.29V29.036H248.471a5.647,5.647,0,0,1,5.646,5.646v195.03a5.647,5.647,0,0,1-5.646,5.646" transform="translate(-47.177 -13.796)" fill="#242ca3"/>
        <rect id="Rectángulo_43356" data-name="Rectángulo 43356" width="82.771" height="199.932" transform="translate(119.88 21.631)" fill="#e1e1e1"/>
        <path id="Trazado_168560" data-name="Trazado 168560" d="M236.705,233.887H98.065V25.939h138.64a5.647,5.647,0,0,1,5.646,5.646V228.241a5.646,5.646,0,0,1-5.646,5.646" transform="translate(-46.595 -12.325)" fill="#4c53b5"/>
        <path id="Trazado_168561" data-name="Trazado 168561" d="M126.193,234.264c-.076,0-.136-46.639-.136-104.157,0-57.538.061-104.168.136-104.168s.136,46.629.136,104.168c0,57.519-.061,104.157-.136,104.157" transform="translate(-59.896 -12.325)" fill="#1a2e35"/>
        <path id="Trazado_168562" data-name="Trazado 168562" d="M133.62,234.264c-.076,0-.136-46.639-.136-104.157,0-57.538.061-104.168.136-104.168s.136,46.629.136,104.168c0,57.519-.061,104.157-.136,104.157" transform="translate(-63.425 -12.325)" fill="#1a2e35"/>
        <path id="Trazado_168563" data-name="Trazado 168563" d="M189.3,161.9l-.035-6.516-3.161,5.3h-1.546l-3.144-5.128v6.34H178.2V149.609h2.863l4.321,7.1,4.215-7.1h2.863L192.5,161.9Z" transform="translate(-84.671 -71.086)" fill="#fff"/>
        <path id="Trazado_168564" data-name="Trazado 168564" d="M217.027,159.515h-5.2l-.966,2.388h-3.547l5.427-12.294h3.425l5.445,12.294h-3.618Zm-1.018-2.564-1.581-3.934-1.58,3.934Z" transform="translate(-98.505 -71.086)" fill="#fff"/>
        <path id="Trazado_168565" data-name="Trazado 168565" d="M248.128,149.609V161.9h-2.863l-5.427-6.551V161.9h-3.407V149.609h2.863l5.427,6.551v-6.551Z" transform="translate(-112.34 -71.086)" fill="#fff"/>
        <path id="Trazado_168566" data-name="Trazado 168566" d="M263.2,156.423v-6.814h3.478v6.709c0,2.108.878,2.951,2.336,2.951,1.44,0,2.318-.843,2.318-2.951v-6.709h3.425v6.814c0,3.671-2.143,5.726-5.779,5.726s-5.778-2.055-5.778-5.726" transform="translate(-125.06 -71.086)" fill="#fff"/>
        <path id="Trazado_168567" data-name="Trazado 168567" d="M296.107,159.515h-5.2l-.966,2.388h-3.547l5.426-12.294h3.425l5.444,12.294h-3.618Zm-1.018-2.564-1.581-3.934-1.58,3.934Z" transform="translate(-136.08 -71.086)" fill="#fff"/>
        <path id="Trazado_168568" data-name="Trazado 168568" d="M315.51,149.609h3.477v9.537h5.866V161.9H315.51Z" transform="translate(-149.914 -71.086)" fill="#fff"/>
        <rect id="Rectángulo_43357" data-name="Rectángulo 43357" width="0.726" height="6.867" transform="translate(98.835 67.683)" fill="#fff"/>
        <path id="Trazado_168569" data-name="Trazado 168569" d="M199.7,128.956v6.867h-.6l-4.415-5.572v5.572h-.726v-6.867h.6l4.424,5.572v-5.572Z" transform="translate(-92.158 -61.273)" fill="#fff"/>
        <path id="Trazado_168570" data-name="Trazado 168570" d="M207.9,134.935l.284-.559a3.37,3.37,0,0,0,2.266.834c1.285,0,1.844-.54,1.844-1.217,0-1.883-4.228-.726-4.228-3.267,0-1.01.785-1.884,2.531-1.884a3.877,3.877,0,0,1,2.129.608l-.246.579a3.535,3.535,0,0,0-1.883-.569c-1.256,0-1.815.559-1.815,1.246,0,1.884,4.228.745,4.228,3.247,0,1.01-.8,1.874-2.561,1.874a3.725,3.725,0,0,1-2.551-.893" transform="translate(-98.785 -61.22)" fill="#fff"/>
        <path id="Trazado_168571" data-name="Trazado 168571" d="M220.823,129.584H218.41v-.628h5.552v.628h-2.413v6.239h-.726Z" transform="translate(-103.777 -61.273)" fill="#fff"/>
        <path id="Trazado_168572" data-name="Trazado 168572" d="M235.887,135.823l-1.569-2.207a4.945,4.945,0,0,1-.55.029h-1.845v2.178H231.2v-6.867h2.571c1.746,0,2.806.883,2.806,2.354A2.129,2.129,0,0,1,235,133.469l1.677,2.354Zm-.039-4.513c0-1.1-.726-1.727-2.1-1.727h-1.825v3.444h1.825c1.373,0,2.1-.638,2.1-1.717" transform="translate(-109.853 -61.273)" fill="#fff"/>
        <path id="Trazado_168573" data-name="Trazado 168573" d="M244.6,132.889v-3.934h.726v3.9c0,1.629.765,2.374,2.1,2.374s2.109-.745,2.109-2.374v-3.9h.706v3.934c0,1.972-1.06,2.992-2.815,2.992s-2.826-1.02-2.826-2.992" transform="translate(-116.222 -61.273)" fill="#fff"/>
        <path id="Trazado_168574" data-name="Trazado 168574" d="M258.361,132.336a3.448,3.448,0,0,1,3.6-3.493,3.327,3.327,0,0,1,2.512,1l-.461.461a2.723,2.723,0,0,0-2.031-.814,2.846,2.846,0,1,0,0,5.69,2.7,2.7,0,0,0,2.031-.824l.461.461a3.341,3.341,0,0,1-2.521,1.01,3.445,3.445,0,0,1-3.591-3.492" transform="translate(-122.76 -61.22)" fill="#fff"/>
        <path id="Trazado_168575" data-name="Trazado 168575" d="M273.152,129.584h-2.413v-.628h5.552v.628h-2.413v6.239h-.726Z" transform="translate(-128.641 -61.273)" fill="#fff"/>
        <rect id="Rectángulo_43358" data-name="Rectángulo 43358" width="0.726" height="6.867" transform="translate(148.809 67.683)" fill="#fff"/>
        <path id="Trazado_168576" data-name="Trazado 168576" d="M288.013,132.336a3.607,3.607,0,1,1,3.61,3.492,3.456,3.456,0,0,1-3.61-3.492m6.485,0a2.884,2.884,0,1,0-2.875,2.845,2.782,2.782,0,0,0,2.875-2.845" transform="translate(-136.849 -61.22)" fill="#fff"/>
        <path id="Trazado_168577" data-name="Trazado 168577" d="M310.6,128.956v6.867H310l-4.415-5.572v5.572h-.726v-6.867h.6l4.424,5.572v-5.572Z" transform="translate(-144.852 -61.273)" fill="#fff"/>
        <g id="Grupo_118791" data-name="Grupo 118791" transform="translate(66.298 13.614)" opacity="0.3">
          <g id="Grupo_118790" data-name="Grupo 118790">
            <g id="Grupo_118789" data-name="Grupo 118789" clip-path="url(#clip-path-3)">
              <rect id="Rectángulo_43359" data-name="Rectángulo 43359" width="3.898" height="208.325"/>
            </g>
          </g>
        </g>
        <path id="Trazado_168578" data-name="Trazado 168578" d="M289.885,49.743V25.94h22.922V50.184l-11.241,11.24Z" transform="translate(-137.738 -12.325)" fill="#f9e424"/>
        <path id="Trazado_168579" data-name="Trazado 168579" d="M376.785,41.213c.076,0,.136,44.277.136,98.883,0,54.625-.061,98.892-.136,98.892s-.136-44.267-.136-98.892c0-54.606.061-98.883.136-98.883" transform="translate(-178.964 -19.582)" fill="#1a2e35"/>
        <path id="Trazado_168580" data-name="Trazado 168580" d="M381.255,41.213c.076,0,.136,44.277.136,98.883,0,54.625-.061,98.892-.136,98.892s-.136-44.267-.136-98.892c0-54.606.061-98.883.136-98.883" transform="translate(-181.088 -19.582)" fill="#1a2e35"/>
        <path id="Trazado_168581" data-name="Trazado 168581" d="M376.909,96.021h5.743L387.9,100l-4.7,4.7h-6.286Z" transform="translate(-179.088 -45.624)" fill="#375a64"/>
        <rect id="Rectángulo_43361" data-name="Rectángulo 43361" width="10.843" height="7.221" transform="translate(200.167 67.444)" fill="#ff735d"/>
        <path id="Trazado_168582" data-name="Trazado 168582" d="M260.023,378.2c0,.076-19.7.136-44,.136s-44-.061-44-.136,19.7-.136,44-.136,44,.061,44,.136" transform="translate(-81.734 -179.636)" fill="#fff"/>
        <path id="Trazado_168583" data-name="Trazado 168583" d="M259.329,386.182c0,.076-12.956.136-28.935.136s-28.938-.061-28.938-.136,12.953-.136,28.938-.136,28.935.061,28.935.136" transform="translate(-95.721 -183.429)" fill="#fff"/>
        <rect id="Rectángulo_43362" data-name="Rectángulo 43362" width="6.935" height="6.935" transform="translate(130.819 206.782)" fill="#e1e1e1"/>
        <path id="Trazado_168584" data-name="Trazado 168584" d="M99.982,403.625l-1.458,10.608s10.294,5.044,10.215,7.031l-20.671-2.087,1.592-16.623Z" transform="translate(-41.846 -191.273)" fill="#375a64"/>
        <path id="Trazado_168585" data-name="Trazado 168585" d="M95.363,421.852a.849.849,0,0,0-.681.9.816.816,0,0,0,.891.683.9.9,0,0,0,.716-.962.847.847,0,0,0-1.005-.608" transform="translate(-44.985 -200.432)" fill="#e1e1e1"/>
        <g id="Grupo_118794" data-name="Grupo 118794" transform="translate(46.224 226.235)" opacity="0.6">
          <g id="Grupo_118793" data-name="Grupo 118793">
            <g id="Grupo_118792" data-name="Grupo 118792" clip-path="url(#clip-path-4)">
              <path id="Trazado_168586" data-name="Trazado 168586" d="M88.07,432.715l.226-1.669,19.734,2.625s.88.493.711,1.131Z" transform="translate(-88.07 -431.046)" fill="#fff"/>
            </g>
          </g>
        </g>
        <path id="Trazado_168587" data-name="Trazado 168587" d="M106.84,424.55c-.014.1-.523.1-1.052.37s-.837.672-.925.622c-.091-.029.12-.617.767-.938s1.242-.144,1.211-.054" transform="translate(-49.816 -201.661)" fill="#1a2e35"/>
        <path id="Trazado_168588" data-name="Trazado 168588" d="M111.241,426.747c.013.1-.441.228-.827.62s-.531.834-.631.819c-.1.006-.107-.592.383-1.071s1.083-.465,1.075-.368" transform="translate(-52.138 -202.742)" fill="#1a2e35"/>
        <path id="Trazado_168589" data-name="Trazado 168589" d="M114.375,430.469c-.094.012-.184-.506.132-1.033s.809-.7.843-.61-.288.354-.54.791-.334.853-.435.852" transform="translate(-54.303 -203.745)" fill="#1a2e35"/>
        <path id="Trazado_168590" data-name="Trazado 168590" d="M106.816,419.567c-.051.088-.5-.1-1.075-.117s-1.038.116-1.081.024.42-.409,1.1-.377,1.117.4,1.06.47" transform="translate(-49.727 -199.132)" fill="#1a2e35"/>
        <path id="Trazado_168591" data-name="Trazado 168591" d="M55.05,264.772s-3.8,26.935-1.886,31.339c1.476,3.4,4.089,4.884,7.43,5.744a118.333,118.333,0,0,0,12.561,2.126l2.6-15.52-5.893-1.284,5.424-19.311-9.6-6.574Z" transform="translate(-25.006 -124.152)" fill="#1a2e35"/>
        <path id="Trazado_168592" data-name="Trazado 168592" d="M91.507,266.916l-4.751,74.409,13.125.665,5.854-36.91s6.232-30.439,6.66-34.166a99.266,99.266,0,0,0,0-11.622Z" transform="translate(-41.222 -123.202)" fill="#1a2e35"/>
        <path id="Trazado_168593" data-name="Trazado 168593" d="M91.535,284.892a.638.638,0,0,1,.006.146c0,.112,0,.253-.009.428-.015.4-.036.947-.061,1.645-.066,1.429-.17,3.494-.324,6.046-.3,5.1-.8,12.148-1.313,19.929-.236,3.893-.461,7.6-.666,10.977-.244,3.374-.574,6.4-.826,8.944s-.442,4.6-.553,6.026c-.055.7-.1,1.245-.128,1.64-.015.175-.027.315-.037.427a.532.532,0,0,1-.022.145.572.572,0,0,1-.006-.146c0-.112.006-.253.011-.428.01-.376.035-.931.075-1.644.079-1.428.234-3.492.468-6.037s.538-5.574.767-8.943c.2-3.368.378-7.087.645-10.978.543-7.771,1.036-14.807,1.393-19.924.172-2.535.312-4.592.41-6.039.049-.7.086-1.247.114-1.642.015-.174.026-.315.036-.427a.517.517,0,0,1,.022-.145" transform="translate(-41.62 -135.366)" fill="#375a64"/>
        <path id="Trazado_168594" data-name="Trazado 168594" d="M84.913,297.207a2.469,2.469,0,0,1-.081.586c-.069.373-.185.91-.342,1.57-.313,1.321-.811,3.131-1.477,5.093s-1.376,3.7-1.932,4.94c-.278.619-.513,1.115-.686,1.453a2.453,2.453,0,0,1-.292.514,2.468,2.468,0,0,1,.2-.558l.605-1.485c.509-1.254,1.186-3,1.851-4.951s1.189-3.749,1.549-5.054q.25-.912.425-1.547a2.46,2.46,0,0,1,.185-.561" transform="translate(-38.059 -141.217)" fill="#375a64"/>
        <path id="Trazado_168595" data-name="Trazado 168595" d="M67.689,142.3l-3.156,2.515s-10.024,1.789-10.882,3.352L56.9,168.3l2.531,17.254s-3.788,10.177-3.893,14.473,0,7.858,0,7.858h1.879a16.977,16.977,0,0,1,11.74,4.714l3.458-3.143.675,5.972s13.572.838,17.029-1.781a68.179,68.179,0,0,0,8.14-8.171s.809-13.929-3.325-20.965S90,176.022,90,176.022s1.466-12.136,1.466-12.555,1.257-16.972,1.257-16.972l-10.414-2.619-3.014-2.3Z" transform="translate(-25.492 -67.267)" fill="#febf10"/>
        <g id="Grupo_118797" data-name="Grupo 118797" transform="translate(33.533 113.306)" opacity="0.3">
          <g id="Grupo_118796" data-name="Grupo 118796">
            <g id="Grupo_118795" data-name="Grupo 118795" clip-path="url(#clip-path-5)">
              <path id="Trazado_168596" data-name="Trazado 168596" d="M63.949,221.822a5.821,5.821,0,0,0,4.82,1.48,23.613,23.613,0,0,1,3.456-.642c1.709.025,3.184,1.118,4.676,1.952a17.189,17.189,0,0,0,10.662,2.008c4.211-.583,8.041-2.709,11.612-5.015a2.591,2.591,0,0,0,.708-.59,1.625,1.625,0,0,0-.091-1.882,2.752,2.752,0,0,0-1.721-.966,10.532,10.532,0,0,0-3.615.267,22.67,22.67,0,0,1-7.713-.069c-3.232-.59-6.317-1.88-9.573-2.319a18.782,18.782,0,0,0-10.72,1.744,5.954,5.954,0,0,0-1.928,1.35,3.624,3.624,0,0,0-.573,2.682" transform="translate(-63.889 -215.881)"/>
            </g>
          </g>
        </g>
        <path id="Trazado_168597" data-name="Trazado 168597" d="M85.58,163.809a.7.7,0,0,1,.022.16c.009.121.022.276.036.471.027.433.065,1.04.112,1.812.087,1.593.21,3.866.362,6.666.28,5.646.666,13.416,1.091,22,.1,2.148.2,4.246.3,6.271s.194,3.982.191,5.851c0,.934-.028,1.845-.086,2.729s-.17,1.73-.157,2.555c.006,1.647.139,3.2.111,4.605.054,1.4.208,2.669.325,3.781s.238,2.063.329,2.853c.085.769.152,1.373.2,1.8.017.194.031.349.042.47a.735.735,0,0,1,0,.161.7.7,0,0,1-.033-.158c-.018-.12-.04-.274-.069-.467-.06-.429-.143-1.031-.25-1.8-.1-.788-.23-1.743-.375-2.848s-.3-2.377-.366-3.793c.015-1.414-.128-2.943-.144-4.611-.017-.835.088-1.7.144-2.57s.075-1.785.074-2.714c0-1.86-.107-3.811-.206-5.837s-.2-4.123-.3-6.272c-.394-8.583-.751-16.354-1.011-22-.115-2.8-.209-5.076-.275-6.67-.026-.773-.046-1.381-.061-1.814,0-.2-.006-.351-.009-.472a.7.7,0,0,1,.006-.161" transform="translate(-40.66 -77.834)" fill="#1a2e35"/>
        <path id="Trazado_168598" data-name="Trazado 168598" d="M52.672,157.918l-.307,21.064,1.549,3.673L52.6,192.687,47.3,189.714a7.527,7.527,0,0,1-3.853-7.364c0-.024.005-.047.008-.071.487-4.083,1.3-10.591,1.973-14.724,1.048-6.391,1.781-11.419,3.352-13.41Z" transform="translate(-20.622 -73.242)" fill="#febf10"/>
        <path id="Trazado_168599" data-name="Trazado 168599" d="M125.639,150.941s3.038-.629,4.61,6.7,2.828,20.115,2.828,20.115a1.034,1.034,0,0,1,.629,1.587s-.209,6.906-1.048,7.741l-8.748-5.167-1-1.454Z" transform="translate(-58.403 -71.713)" fill="#febf10"/>
        <path id="Trazado_168600" data-name="Trazado 168600" d="M60.986,220,72.74,218.7l.9-5.715-11.525-.926Z" transform="translate(-28.978 -100.758)" fill="#b16052"/>
        <path id="Trazado_168601" data-name="Trazado 168601" d="M82.558,152.915a3.578,3.578,0,0,1-.392.6l-1.15,1.575-1.728,2.32a.364.364,0,0,1-.26.152.441.441,0,0,1-.273-.086,3.191,3.191,0,0,1-.33-.3,7.548,7.548,0,0,1-.617-.631,11.032,11.032,0,0,1-1.118-1.479,11.4,11.4,0,0,1-1.713-6.18,9.8,9.8,0,0,1,.225-1.947,3.632,3.632,0,0,1,.208-.688,17.465,17.465,0,0,0-.24,2.636,11.747,11.747,0,0,0,1.751,6.034,11.181,11.181,0,0,0,1.086,1.445,7.434,7.434,0,0,0,.6.62,3.374,3.374,0,0,0,.294.272c.105.059.127.066.192-.01.651-.867,1.266-1.634,1.773-2.282l1.219-1.522a3.616,3.616,0,0,1,.477-.535" transform="translate(-35.622 -69.494)" fill="#1a2e35"/>
        <path id="Trazado_168602" data-name="Trazado 168602" d="M99.311,145.962a.633.633,0,0,1,.032.213c.015.14.021.346.022.612a8.582,8.582,0,0,1-.337,2.23,23.262,23.262,0,0,1-1.218,3.108,30.774,30.774,0,0,1-1.943,3.6c-.381.616-.764,1.209-1.138,1.78l-.278.423a2.43,2.43,0,0,1-.316.428.412.412,0,0,1-.329.1.554.554,0,0,1-.278-.142,2.942,2.942,0,0,1-.318-.385l-2-2.66-1.328-1.808a4.737,4.737,0,0,1-.458-.685,4.736,4.736,0,0,1,.542.621l1.4,1.754,2.045,2.624c.183.249.405.542.555.38a2.484,2.484,0,0,0,.265-.375l.276-.425c.37-.572.751-1.165,1.129-1.778a33.3,33.3,0,0,0,1.946-3.555,25.7,25.7,0,0,0,1.262-3.059,12.076,12.076,0,0,0,.469-3" transform="translate(-42.49 -69.354)" fill="#1a2e35"/>
        <path id="Trazado_168603" data-name="Trazado 168603" d="M66.7,161.517c.01.044-.555.139-1.4.53a7.111,7.111,0,0,0-2.8,2.329l-.079.113-.114-.084a7.016,7.016,0,0,0-.906-.586A7.37,7.37,0,0,0,57.132,163a15.284,15.284,0,0,0-1.8.4,1.7,1.7,0,0,1,.449-.23,6.565,6.565,0,0,1,1.329-.357,7.149,7.149,0,0,1,4.428.773,6.983,6.983,0,0,1,.942.615l-.193.028a6.818,6.818,0,0,1,2.948-2.336,5.779,5.779,0,0,1,1.068-.326,1.163,1.163,0,0,1,.4-.043" transform="translate(-26.289 -76.741)" fill="#1a2e35"/>
        <path id="Trazado_168604" data-name="Trazado 168604" d="M115.7,162.978a4.509,4.509,0,0,0-1.952-.536,5.46,5.46,0,0,0-2.153.408,14.222,14.222,0,0,0-2.4,1.3l-.249.158-.1.066-.077-.1a5.988,5.988,0,0,0-4.026-2.206,9.254,9.254,0,0,0-1.953.059,1.688,1.688,0,0,1,.51-.159,5.2,5.2,0,0,1,1.461-.089,5.946,5.946,0,0,1,2.113.557,5.825,5.825,0,0,1,2.112,1.671l-.181-.032.249-.158a13.353,13.353,0,0,1,2.456-1.3,5.412,5.412,0,0,1,2.253-.365,3.666,3.666,0,0,1,1.485.4,1.387,1.387,0,0,1,.458.329" transform="translate(-48.839 -76.909)" fill="#1a2e35"/>
        <path id="Trazado_168605" data-name="Trazado 168605" d="M99.648,251.09a.96.96,0,0,1-.2.17l-.617.446-.45.318c-.168.11-.36.216-.561.336a15.2,15.2,0,0,1-1.4.77l-.837.406c-.292.138-.61.248-.933.381-.64.277-1.356.483-2.1.719a23.389,23.389,0,0,1-10.1.6c-.77-.146-1.506-.266-2.174-.465-.336-.093-.665-.165-.972-.268l-.879-.3a15.088,15.088,0,0,1-1.48-.6c-.215-.1-.417-.178-.6-.268l-.484-.262-.664-.369a.968.968,0,0,1-.223-.145,1.031,1.031,0,0,1,.249.1l.686.323.492.239c.183.082.387.157.6.246.435.168.918.393,1.483.556l.875.285c.305.1.633.162.966.25.664.188,1.395.3,2.157.436a24.067,24.067,0,0,0,10-.594c.741-.227,1.452-.422,2.09-.688.321-.127.638-.231.93-.363l.836-.386c.542-.229.995-.509,1.407-.727.2-.114.4-.213.569-.315l.46-.3.643-.4a1,1,0,0,1,.236-.125" transform="translate(-35.622 -119.305)" fill="#1a2e35"/>
        <path id="Trazado_168606" data-name="Trazado 168606" d="M97.655,236.986a5.124,5.124,0,0,1-.609.6,9.726,9.726,0,0,1-.761.66c-.308.244-.647.538-1.057.815s-.844.6-1.345.9c-.488.321-1.039.609-1.614.923a24.344,24.344,0,0,1-8.1,2.533c-.652.07-1.27.147-1.853.162-.581.04-1.124.036-1.619.026-.495.006-.942-.042-1.333-.068a9.818,9.818,0,0,1-1-.108,5.176,5.176,0,0,1-.845-.15,5.115,5.115,0,0,1,.856.044c.274.027.609.055,1,.061s.833.045,1.325.027c.491,0,1.028-.009,1.6-.06.577-.024,1.188-.109,1.832-.185a25.58,25.58,0,0,0,8.017-2.508c.572-.3,1.123-.583,1.611-.892.5-.287.946-.588,1.352-.865s.759-.546,1.073-.777.577-.442.787-.62a5.117,5.117,0,0,1,.679-.524" transform="translate(-36.833 -112.603)" fill="#1a2e35"/>
        <path id="Trazado_168607" data-name="Trazado 168607" d="M56.1,164.846a3.525,3.525,0,0,1,.128.7c.067.5.153,1.147.256,1.915l.837,6.317c.35,2.436.667,4.64.907,6.308.11.767.2,1.408.273,1.913a3.553,3.553,0,0,1,.066.707,3.5,3.5,0,0,1-.171-.69c-.093-.447-.216-1.1-.359-1.9-.287-1.607-.646-3.834-.987-6.3s-.6-4.708-.758-6.332c-.08-.812-.138-1.47-.17-1.926a3.528,3.528,0,0,1-.022-.71" transform="translate(-26.649 -78.326)" fill="#1a2e35"/>
        <path id="Trazado_168608" data-name="Trazado 168608" d="M125.267,156.749a.994.994,0,0,1,0,.268c-.012.206-.025.458-.042.763-.041.662-.114,1.619-.215,2.8-.2,2.363-.522,5.624-.949,9.218s-.881,6.839-1.24,9.184c-.179,1.172-.333,2.119-.448,2.772-.055.3-.1.549-.139.752a.978.978,0,0,1-.067.259,1.012,1.012,0,0,1,.013-.267l.088-.758c.091-.7.213-1.64.362-2.784.31-2.35.732-5.6,1.16-9.19s.778-6.846,1.028-9.2l.3-2.792c.037-.3.068-.554.093-.758a1,1,0,0,1,.051-.263" transform="translate(-58.048 -74.479)" fill="#1a2e35"/>
        <path id="Trazado_168609" data-name="Trazado 168609" d="M95.078,188.946,80.059,198,76.181,196.9l-17.8-3.431L54.7,205.153l14.011,1.322,6.179,2.96,2.984-1.293L90.9,199.19Z" transform="translate(-25.989 -89.777)" fill="#ff004c"/>
        <path id="Trazado_168610" data-name="Trazado 168610" d="M93.149,217.58a13.059,13.059,0,0,1,.7-1.678c.46-1.025,1.1-2.439,1.774-4.011s1.271-3.006,1.7-4.043a13.007,13.007,0,0,1,.737-1.664,1.737,1.737,0,0,1-.122.476c-.1.3-.244.73-.436,1.259-.384,1.058-.951,2.505-1.63,4.082s-1.345,2.981-1.85,3.986c-.252.5-.463.906-.617,1.18a1.717,1.717,0,0,1-.262.415" transform="translate(-44.258 -97.967)" fill="#1a2e35"/>
        <path id="Trazado_168611" data-name="Trazado 168611" d="M92.338,208.166a15.275,15.275,0,0,1,1.49-3.8,15.328,15.328,0,0,1-1.49,3.8" transform="translate(-43.869 -97.104)" fill="#1a2e35"/>
        <path id="Trazado_168612" data-name="Trazado 168612" d="M99.07,196.879a4.226,4.226,0,0,1,1.811-2.49c1.361-.694,12.636-6.564,12.636-6.564l1.337,1.378-13.71,8.262Z" transform="translate(-47.073 -89.244)" fill="#e1e1e1"/>
        <path id="Trazado_168613" data-name="Trazado 168613" d="M64.661,196.82l2.283-1.145s6.465-.7,10.205,0,5.692,2.791,5.571,4.787Z" transform="translate(-30.724 -92.828)" fill="#e1e1e1"/>
        <path id="Trazado_168614" data-name="Trazado 168614" d="M98,207.272a4.958,4.958,0,0,0-2.586,2.586c-.895,1.989-1.492,2.984-2.586,3.68s-1.691,1.194-2.984.6-3.388-2.551-4.379-2.711c-.589-.1-.793.821-.793.821s-2.586-1.723-3.481-1.409-.1,1.011.5,1.707a10.165,10.165,0,0,1,.995,1.392c.195-.082-1.8-1.957-3.025-1.566a.716.716,0,0,0-.561.931l1.5,1.1s-.8,1.424-.1,1.723,5.669,3.779,6.763,3.779,6.067.9,8.156.4,4.419-1.212,4.419-1.212,8.212-2.667,10.7-5.849l-7.459-4.575s-4.973,6.465-5.271,5.769a6.866,6.866,0,0,1-.3-3.68c.3-1.492,1.363-3.963.5-3.481" transform="translate(-37.569 -98.456)" fill="#b16052"/>
        <path id="Trazado_168615" data-name="Trazado 168615" d="M96.186,221.547a3.055,3.055,0,0,1-1.155-.338,19.477,19.477,0,0,1-2.463-1.507,10.607,10.607,0,0,1-2.242-1.844c-.481-.58-.624-1.044-.578-1.056a8.636,8.636,0,0,0,.723.927,13.52,13.52,0,0,0,2.244,1.741c.955.614,1.747,1.242,2.4,1.564s1.084.469,1.071.512" transform="translate(-42.64 -103.013)" fill="#7f4842"/>
        <path id="Trazado_168616" data-name="Trazado 168616" d="M92.829,225.227a5.124,5.124,0,0,1-1.057-.619c-.63-.416-1.482-1.019-2.392-1.724S87.672,221.5,87.112,221a5.135,5.135,0,0,1-.863-.868,5.789,5.789,0,0,1,.988.72l2.311,1.818,2.337,1.783a5.81,5.81,0,0,1,.944.776" transform="translate(-40.98 -104.593)" fill="#7f4842"/>
        <path id="Trazado_168617" data-name="Trazado 168617" d="M86.6,224.9c-.065.052-.959-1.034-2.272-2.151s-2.516-1.842-2.475-1.913A11.573,11.573,0,0,1,86.6,224.9" transform="translate(-38.891 -104.926)" fill="#7f4842"/>
        <path id="Trazado_168618" data-name="Trazado 168618" d="M90.953,171.415c-.024,0-.029-.132-.1-.35a1.487,1.487,0,0,0-.547-.754,1.4,1.4,0,0,0-1.3-.173,1.363,1.363,0,0,0,0,2.553,1.4,1.4,0,0,0,1.3-.173,1.489,1.489,0,0,0,.547-.754c.069-.218.075-.35.1-.35s.046.133.005.376a1.484,1.484,0,0,1-.533.882,1.575,1.575,0,0,1-1.506.256,1.6,1.6,0,0,1,0-3.026,1.575,1.575,0,0,1,1.506.256,1.482,1.482,0,0,1,.533.882c.041.242.009.377-.005.376" transform="translate(-41.74 -80.686)" fill="#1a2e35"/>
        <path id="Trazado_168619" data-name="Trazado 168619" d="M91.954,190.5c-.024,0-.029-.132-.1-.35a1.485,1.485,0,0,0-.547-.754,1.4,1.4,0,0,0-1.3-.173,1.363,1.363,0,0,0,0,2.553,1.4,1.4,0,0,0,1.3-.173,1.487,1.487,0,0,0,.547-.754c.069-.217.075-.35.1-.35s.046.133.005.376a1.484,1.484,0,0,1-.533.882,1.575,1.575,0,0,1-1.506.256,1.6,1.6,0,0,1,0-3.026,1.575,1.575,0,0,1,1.506.256,1.481,1.481,0,0,1,.533.882c.041.242.009.377-.005.376" transform="translate(-42.215 -89.753)" fill="#1a2e35"/>
        <path id="Trazado_168620" data-name="Trazado 168620" d="M93.829,235.713c-.023,0-.029-.132-.1-.35a1.485,1.485,0,0,0-.547-.754,1.4,1.4,0,0,0-1.3-.173,1.363,1.363,0,0,0,0,2.553,1.4,1.4,0,0,0,1.3-.173,1.487,1.487,0,0,0,.547-.754c.069-.217.075-.35.1-.35s.046.133.005.376a1.484,1.484,0,0,1-.533.882,1.574,1.574,0,0,1-1.506.256,1.6,1.6,0,0,1,0-3.026,1.575,1.575,0,0,1,1.506.256,1.482,1.482,0,0,1,.533.882c.041.242.009.377-.005.376" transform="translate(-43.106 -111.237)" fill="#1a2e35"/>
        <path id="Trazado_168621" data-name="Trazado 168621" d="M93.394,253.515c-.023,0-.029-.132-.1-.35a1.485,1.485,0,0,0-.547-.754,1.4,1.4,0,0,0-1.3-.173,1.363,1.363,0,0,0,0,2.553,1.4,1.4,0,0,0,1.3-.173,1.487,1.487,0,0,0,.547-.754c.069-.217.075-.35.1-.35s.046.133.005.375a1.483,1.483,0,0,1-.533.882,1.574,1.574,0,0,1-1.506.256,1.6,1.6,0,0,1,0-3.026,1.575,1.575,0,0,1,1.506.256,1.482,1.482,0,0,1,.533.882c.041.242.009.377-.005.376" transform="translate(-42.9 -119.696)" fill="#1a2e35"/>
        <path id="Trazado_168622" data-name="Trazado 168622" d="M70.932,89.029A7.477,7.477,0,0,1,74.515,84.5a9.439,9.439,0,0,1,6.344-.766,20.008,20.008,0,0,1,6,2.48,9.808,9.808,0,0,1,2.867,2.237c1.386,1.743,1.576,4.12,1.709,6.342a10.978,10.978,0,0,1-.559,5.313,5.534,5.534,0,0,1-3.721,3.012" transform="translate(-33.703 -39.678)" fill="#1a2e35"/>
        <path id="Trazado_168623" data-name="Trazado 168623" d="M102.081,97a11.884,11.884,0,0,0,2.86-8.831,4.177,4.177,0,0,0-1.211-2.883c-.418-.351-.941-.558-1.367-.9-.777-.622-1.159-1.627-1.9-2.294A3.02,3.02,0,0,0,95.54,83.5c-.389,1.35.192,2.769.761,4.053L98.938,93.5a7.9,7.9,0,0,0,1.211,2.113,2.673,2.673,0,0,0,2.143.984" transform="translate(-45.335 -38.638)" fill="#1a2e35"/>
        <path id="Trazado_168624" data-name="Trazado 168624" d="M70.2,90.117a10.24,10.24,0,0,0-.9,12.75A86.2,86.2,0,0,1,73.872,88.6" transform="translate(-32.067 -42.098)" fill="#1a2e35"/>
        <path id="Trazado_168625" data-name="Trazado 168625" d="M68.822,97.323c.231-3.538,2.585-7.874,6.109-7.493l8.156,2.081a6.049,6.049,0,0,1,4.551,5.57c.009.134.023-.029.021.072l-.551,19.971-7.59,8.568-5.205-8.012c0-1.723,0-3.093,0-3.085s-4.519-.761-5.442-6.66a56.068,56.068,0,0,1-.045-11.012" transform="translate(-32.583 -42.671)" fill="#b16052"/>
        <path id="Trazado_168626" data-name="Trazado 168626" d="M81.359,100.607a8.591,8.591,0,0,1-3.457.351c0-.043.78-.045,1.732-.143s1.716-.249,1.725-.208" transform="translate(-37.015 -47.8)" fill="#7f4842"/>
        <path id="Trazado_168627" data-name="Trazado 168627" d="M80.042,100.2a4.2,4.2,0,0,1-2.139.115,7.338,7.338,0,0,1,1.069-.064,7.35,7.35,0,0,1,1.07-.051" transform="translate(-37.015 -47.603)" fill="#7f4842"/>
        <path id="Trazado_168628" data-name="Trazado 168628" d="M85.921,121.9c-.04,0-.091-.236-.329-.388s-.473-.115-.484-.153c-.006-.017.05-.059.16-.073a.639.639,0,0,1,.659.439c.029.106.012.174-.005.175" transform="translate(-40.439 -57.627)" fill="#7f4842"/>
        <path id="Trazado_168629" data-name="Trazado 168629" d="M73.2,112.245a.756.756,0,0,0,.727.765.724.724,0,0,0,.781-.68.757.757,0,0,0-.727-.765.724.724,0,0,0-.782.681" transform="translate(-34.779 -53.009)" fill="#1a2e35"/>
        <path id="Trazado_168630" data-name="Trazado 168630" d="M71.012,108.182c.093.1.668-.324,1.482-.32s1.409.413,1.5.313c.044-.044-.052-.222-.311-.412a2.078,2.078,0,0,0-1.2-.373,2,2,0,0,0-1.179.378c-.251.192-.336.37-.29.414" transform="translate(-33.736 -51.026)" fill="#1a2e35"/>
        <path id="Trazado_168631" data-name="Trazado 168631" d="M87.657,112.245a.756.756,0,0,0,.727.765.724.724,0,0,0,.782-.68.757.757,0,0,0-.727-.765.724.724,0,0,0-.782.681" transform="translate(-41.65 -53.009)" fill="#1a2e35"/>
        <path id="Trazado_168632" data-name="Trazado 168632" d="M86.255,108.505c.094.1.669-.324,1.482-.32s1.409.413,1.5.313c.043-.044-.051-.222-.312-.412a2.076,2.076,0,0,0-1.2-.373,2,2,0,0,0-1.179.378c-.25.192-.336.37-.29.414" transform="translate(-40.978 -51.18)" fill="#1a2e35"/>
        <path id="Trazado_168633" data-name="Trazado 168633" d="M78.737,114.571a5.389,5.389,0,0,0-1.322-.241c-.208-.022-.4-.064-.439-.206a1.061,1.061,0,0,1,.14-.616q.3-.753.618-1.581a27.217,27.217,0,0,0,1.39-4.136,27.19,27.19,0,0,0-1.719,4.015l-.593,1.591a1.2,1.2,0,0,0-.109.816.521.521,0,0,0,.341.3,1.4,1.4,0,0,0,.353.05,5.3,5.3,0,0,0,1.34,0" transform="translate(-36.427 -51.216)" fill="#1a2e35"/>
        <path id="Trazado_168634" data-name="Trazado 168634" d="M87.324,133.8s-1.919,4.051-7.821,3.486l0-1.387a14.861,14.861,0,0,0,7.823-2.1" transform="translate(-37.775 -63.575)" fill="#7f4842"/>
        <path id="Trazado_168635" data-name="Trazado 168635" d="M81.186,123.951a1.466,1.466,0,0,1,1.316-.542,1.338,1.338,0,0,1,.923.5.847.847,0,0,1,.062.97.984.984,0,0,1-1.068.268,3.088,3.088,0,0,1-1.039-.623.913.913,0,0,1-.232-.241.271.271,0,0,1,0-.3" transform="translate(-38.536 -58.633)" fill="#7f4842"/>
        <path id="Trazado_168636" data-name="Trazado 168636" d="M82.821,121.793c-.132-.008-.136.875-.894,1.5s-1.7.526-1.7.65c-.013.055.209.172.607.184a2.2,2.2,0,0,0,1.423-.492,1.918,1.918,0,0,0,.692-1.259c.035-.369-.064-.588-.124-.584" transform="translate(-38.117 -57.87)" fill="#1a2e35"/>
        <path id="Trazado_168637" data-name="Trazado 168637" d="M85.889,104.132c.079.221.892.119,1.847.236.957.1,1.726.379,1.853.181.057-.095-.076-.3-.388-.519a3.238,3.238,0,0,0-2.82-.318c-.351.141-.527.314-.493.419" transform="translate(-40.808 -49.19)" fill="#1a2e35"/>
        <path id="Trazado_168638" data-name="Trazado 168638" d="M71.585,103.651c.142.185.7-.005,1.378-.013.674-.031,1.245.127,1.377-.066.058-.093-.031-.279-.281-.455a2,2,0,0,0-2.22.064c-.239.19-.318.38-.254.47" transform="translate(-34.003 -48.851)" fill="#1a2e35"/>
        <path id="Trazado_168639" data-name="Trazado 168639" d="M72,89.868A2.594,2.594,0,0,1,74.294,88.4a5.03,5.03,0,0,1,2.72.793c3.513,2.03,5.487,6.063,8.958,8.164a14.162,14.162,0,0,1,2.521,1.6,2.5,2.5,0,0,1,.8,2.691,8.253,8.253,0,0,0,1.2-2.036,2.787,2.787,0,0,0-.1-2.3c-.3-.521-.831-.917-.976-1.5a7.929,7.929,0,0,1,.052-1.577,3.437,3.437,0,0,0-.54-1.5A15.311,15.311,0,0,0,83.294,86.8a9.984,9.984,0,0,0-5.177-1.338,7.636,7.636,0,0,0-4.925,1.955c-.776.724-1.592,1.473-1.19,2.455" transform="translate(-34.161 -40.603)" fill="#1a2e35"/>
        <path id="Trazado_168640" data-name="Trazado 168640" d="M89.18,102.12c-.006-.006.068-.08.184-.24a2.575,2.575,0,0,0,.381-.77,4.373,4.373,0,0,0-.324-3.087c-.266-.617-.642-1.254-1.028-1.95a22.825,22.825,0,0,1-1.08-2.3,16.448,16.448,0,0,0-1.235-2.5,9.829,9.829,0,0,0-1.953-2.246,10.373,10.373,0,0,0-5.177-2.384,7.633,7.633,0,0,0-4.594.621,5.017,5.017,0,0,0-2.21,2.2,4.43,4.43,0,0,0-.3.809c-.047.193-.069.295-.075.294a.3.3,0,0,1,.007-.077c.008-.05.017-.126.039-.224a4,4,0,0,1,.282-.826,5,5,0,0,1,2.213-2.272,7.681,7.681,0,0,1,4.661-.662,10.436,10.436,0,0,1,5.252,2.406A9.892,9.892,0,0,1,86.2,91.2a16.388,16.388,0,0,1,1.239,2.523,22.941,22.941,0,0,0,1.063,2.3c.378.7.752,1.34,1.016,1.968a4.382,4.382,0,0,1,.283,3.145,2.448,2.448,0,0,1-.411.77,1.57,1.57,0,0,1-.207.223" transform="translate(-34.099 -41.058)" fill="#375a64"/>
        <path id="Trazado_168641" data-name="Trazado 168641" d="M103.016,98.6a.767.767,0,0,1,0-.168c.005-.125.012-.284.019-.48.015-.417.035-1.021.012-1.766a15.113,15.113,0,0,0-.286-2.594,6.914,6.914,0,0,0-1.264-2.889,15.984,15.984,0,0,0-2.263-2.253c-.746-.646-1.442-1.2-2.046-1.634s-1.116-.756-1.476-.968l-.416-.241a.78.78,0,0,1-.142-.09.7.7,0,0,1,.155.065c.1.046.245.12.43.218a15.8,15.8,0,0,1,1.507.934c.615.427,1.321.974,2.074,1.616a15.487,15.487,0,0,1,2.292,2.267,6.945,6.945,0,0,1,1.279,2.95,14.38,14.38,0,0,1,.257,2.619c.01.749-.025,1.355-.058,1.771-.016.209-.033.37-.047.48a.717.717,0,0,1-.027.166" transform="translate(-45.212 -40.634)" fill="#375a64"/>
        <path id="Trazado_168642" data-name="Trazado 168642" d="M104.945,83.3a2.469,2.469,0,0,1,.163.669,7.816,7.816,0,0,1-.2,3.3,2.48,2.48,0,0,1-.242.645,17.027,17.027,0,0,0,.372-2.294,16.99,16.99,0,0,0-.1-2.321" transform="translate(-49.731 -39.579)" fill="#375a64"/>
        <path id="Trazado_168643" data-name="Trazado 168643" d="M110.615,91.624a1.256,1.256,0,0,1-.2.491,3.185,3.185,0,0,1-2.024,1.486,1.264,1.264,0,0,1-.529.044,3.968,3.968,0,0,1,.5-.143,3.666,3.666,0,0,0,1.963-1.442,4.03,4.03,0,0,1,.287-.437" transform="translate(-51.251 -43.535)" fill="#375a64"/>
        <path id="Trazado_168644" data-name="Trazado 168644" d="M111.546,99.109a2.9,2.9,0,0,1-2.335-.066c.012-.048.524.11,1.165.133s1.161-.115,1.17-.068" transform="translate(-51.891 -47.056)" fill="#375a64"/>
        <path id="Trazado_168645" data-name="Trazado 168645" d="M92.743,105.394c-.14-.07-.071-.46-.052-1.092a3.04,3.04,0,0,0-.124-1.035,1.446,1.446,0,0,0-.108-.238,1.034,1.034,0,0,0-.069-.1c-.02-.033-.065-.092-.1-.137a4.7,4.7,0,0,0-.487-.566,1.487,1.487,0,0,0-.508-.358c-.065-.022-.08,0-.051.009l-.207.04-.223.052a3.9,3.9,0,0,0-.839.316c-.138.071-.279.152-.421.242l-.108.069-.183.108a3.926,3.926,0,0,1-.375.178,3.792,3.792,0,0,1-1.66.28,2.741,2.741,0,0,1-.993-.25l-.128-.064-.1-.06c-.067-.042-.137-.08-.2-.127a3.505,3.505,0,0,1-.366-.293,4.824,4.824,0,0,1-1.011-1.378c-.239-.467-.418-.925-.589-1.341a15.55,15.55,0,0,0-2.535-4.16,16.734,16.734,0,0,0-2.957-2.741,9.537,9.537,0,0,0-2.324-1.334c-.588-.219-.972-.277-.994-.435-.026-.135.351-.382,1.122-.4a6.511,6.511,0,0,1,2.995.856,13.745,13.745,0,0,1,3.642,2.707,14.754,14.754,0,0,1,3.063,4.681c.183.446.34.848.509,1.192a2.945,2.945,0,0,0,.534.8,1.437,1.437,0,0,0,.141.124.829.829,0,0,0,.073.051l.036.026.017.009a.637.637,0,0,0,.24.072,1.887,1.887,0,0,0,.776-.085c.062-.02.12-.043.175-.066l.078-.037.149-.08a6.572,6.572,0,0,1,.616-.287,5.376,5.376,0,0,1,1.284-.342q.156-.022.3-.035l.147-.012.167-.009a1.724,1.724,0,0,1,.934.222,2.974,2.974,0,0,1,.945.874,5.2,5.2,0,0,1,.508.864c.034.075.061.131.1.221a2.265,2.265,0,0,1,.09.256,2.518,2.518,0,0,1,.088.488,3.092,3.092,0,0,1-.25,1.437c-.306.7-.649.966-.773.9" transform="translate(-35.652 -43.034)" fill="#1a2e35"/>
        <path id="Trazado_168646" data-name="Trazado 168646" d="M103.358,112.284c.062-.17,3.139-1.28,3.18,1.991.039,3.177-3.166,2.551-3.172,2.46s-.007-4.451-.007-4.451" transform="translate(-49.11 -53.201)" fill="#b16052"/>
        <path id="Trazado_168647" data-name="Trazado 168647" d="M105.214,116.461c.014-.01.056.038.15.08a.554.554,0,0,0,.414,0,1.37,1.37,0,0,0,.622-1.234,1.831,1.831,0,0,0-.162-.791.64.64,0,0,0-.42-.421.282.282,0,0,0-.325.154c-.041.089-.021.153-.038.159s-.069-.053-.044-.184a.351.351,0,0,1,.123-.2.418.418,0,0,1,.305-.084.777.777,0,0,1,.583.487,1.881,1.881,0,0,1,.2.884,1.437,1.437,0,0,1-.795,1.379.593.593,0,0,1-.507-.079c-.1-.078-.117-.149-.105-.154" transform="translate(-49.991 -54.139)" fill="#7f4842"/>
        <path id="Trazado_168648" data-name="Trazado 168648" d="M91.432,101.952c-.009,0-.036-.082-.134-.215a1.247,1.247,0,0,0-.571-.42,2.284,2.284,0,0,0-1.124-.1,5.293,5.293,0,0,0-1.425.513,3.76,3.76,0,0,1-1.809.458,2.907,2.907,0,0,1-1.877-1A5.887,5.887,0,0,1,83.367,99.1c-.265-.778-.5-1.586-.822-2.389a12.273,12.273,0,0,0-2.5-4.129A7.054,7.054,0,0,0,76.679,90.6a6.166,6.166,0,0,0-1.505-.192,5.433,5.433,0,0,0-1.139.137,9.241,9.241,0,0,0-.933.306.226.226,0,0,1,.056-.033l.172-.082a3.914,3.914,0,0,1,.691-.246,5.217,5.217,0,0,1,1.152-.163A6.146,6.146,0,0,1,76.7,90.5a7.1,7.1,0,0,1,3.434,1.992,12.272,12.272,0,0,1,2.541,4.169c.323.808.562,1.625.822,2.4a5.793,5.793,0,0,0,1.09,2.04,2.8,2.8,0,0,0,1.788.975,3.693,3.693,0,0,0,1.757-.432,5.3,5.3,0,0,1,1.456-.5,2.318,2.318,0,0,1,1.156.127,1.232,1.232,0,0,1,.573.456.769.769,0,0,1,.089.17.215.215,0,0,1,.022.061" transform="translate(-34.734 -42.918)" fill="#375a64"/>
        <path id="Trazado_168649" data-name="Trazado 168649" d="M90.291,99.768a1.241,1.241,0,0,1-.192-.107c-.122-.077-.309-.18-.533-.339a10.9,10.9,0,0,1-1.715-1.561,30.54,30.54,0,0,1-2.1-2.725,25.029,25.029,0,0,0-2.622-3.265,10,10,0,0,0-1.692-1.337,8.252,8.252,0,0,0-1.828-.829,9.041,9.041,0,0,0-3.365-.413,8.675,8.675,0,0,0-2.254.442c-.261.079-.454.167-.588.218a1.234,1.234,0,0,1-.208.073,1.312,1.312,0,0,1,.2-.1,5.46,5.46,0,0,1,.582-.245,8.235,8.235,0,0,1,2.266-.491,8.983,8.983,0,0,1,3.413.388,8.28,8.28,0,0,1,1.861.836,9.964,9.964,0,0,1,1.72,1.355,24.283,24.283,0,0,1,2.629,3.291,32.666,32.666,0,0,0,2.065,2.734A11.808,11.808,0,0,0,89.6,99.276c.217.164.4.274.515.36a1.232,1.232,0,0,1,.176.132" transform="translate(-34.779 -42.317)" fill="#375a64"/>
        <path id="Trazado_168650" data-name="Trazado 168650" d="M105.446,119.8a.627.627,0,1,1-.149.048" transform="translate(-49.861 -56.919)" fill="#fff"/>
        <path id="Trazado_168651" data-name="Trazado 168651" d="M105.246,119.825a.855.855,0,0,0-.286.427.537.537,0,0,0,.124.5.555.555,0,0,0,.977-.311.538.538,0,0,0-.187-.479.859.859,0,0,0-.48-.183c0-.008.049-.033.149-.035a.649.649,0,0,1,.4.139.634.634,0,0,1,.255.573.683.683,0,0,1-1.21.385.636.636,0,0,1-.123-.615.646.646,0,0,1,.243-.342c.083-.056.139-.065.142-.058" transform="translate(-49.81 -56.896)" fill="#1a2e35"/>
        <path id="Trazado_168652" data-name="Trazado 168652" d="M430.492,347.458a5.8,5.8,0,0,1,3.005-3.838,7.03,7.03,0,0,1,5.1.3,18.34,18.34,0,0,0,5,1.5c1.744.108,3.711-.72,4.233-2.387.491-1.567-.454-3.239-1.638-4.378a10.332,10.332,0,0,0-16.929,4.064" transform="translate(-203.965 -159.546)" fill="#687687"/>
        <path id="Trazado_168653" data-name="Trazado 168653" d="M403.433,353.235c-2.558-2.43-2.431-6.661-1.154-9.95a15.076,15.076,0,0,1,7.172-7.48,22.712,22.712,0,0,1,19.8-.642,9.4,9.4,0,0,0-7.6,4.461c-1.4,2.328-1.713,5.154-2.871,7.612a11.985,11.985,0,0,1-15.345,6" transform="translate(-190.721 -158.32)" fill="#687687"/>
        <path id="Trazado_168654" data-name="Trazado 168654" d="M399.417,305.425c-2.832-3.343-3.209-8.71-2.792-13.071s1.428-8.751.741-13.079c-.408-2.563-1.4-5.011-1.738-7.585s.14-5.485,2.135-7.146c2.293-1.91,5.9-1.459,8.286.334s3.766,4.61,4.776,7.417c2.218,6.168,3.033,13.008,1.21,19.3s-6.1,11.926-12.371,13.827" transform="translate(-187.935 -125.109)" fill="#687687"/>
        <path id="Trazado_168655" data-name="Trazado 168655" d="M400.335,368.067a2.037,2.037,0,0,1-.015-.385c0-.252,0-.626.017-1.105.034-.959.124-2.347.337-4.05a53.76,53.76,0,0,1,1.084-5.932,27.317,27.317,0,0,1,2.706-6.87,28.572,28.572,0,0,1,4.426-5.914,28.07,28.07,0,0,1,4.64-3.854c.709-.489,1.393-.859,1.983-1.2.6-.316,1.133-.576,1.565-.784l1.021-.425a2.036,2.036,0,0,1,.363-.131,2.094,2.094,0,0,1-.341.182l-1,.47c-.424.221-.942.494-1.536.821-.579.354-1.253.734-1.95,1.23a29.181,29.181,0,0,0-8.936,9.741c-2.6,4.552-3.317,9.338-3.837,12.695-.237,1.694-.356,3.075-.423,4.03-.029.457-.051.822-.069,1.1a2.05,2.05,0,0,1-.04.384" transform="translate(-190.211 -160.321)" fill="#1a2e35"/>
        <path id="Trazado_168656" data-name="Trazado 168656" d="M349.47,318.426c-5.24,3.162-5.224,6.04-4.349,8.756s4.092,4.6,6.758,3.586a8.274,8.274,0,0,0,3.531-3.2,14.806,14.806,0,0,1,3.116-3.671,3.993,3.993,0,0,1,4.514-.37" transform="translate(-163.776 -151.299)" fill="#687687"/>
        <path id="Trazado_168657" data-name="Trazado 168657" d="M346.329,318.6c1.37-1.893,4.755-2.441,6.892-1.5a13.8,13.8,0,0,1,5.1,4.689,20.87,20.87,0,0,0,4.706,5.146c1.941,1.3,4.653,1.772,6.587.462a5.662,5.662,0,0,0,2.238-3.875,12.9,12.9,0,0,0-.308-4.569c-.462-2.2-1.217-4.493-2.976-5.889-1.96-1.556-4.68-1.63-7.181-1.548a26.9,26.9,0,0,0-8.477,1.3,11.769,11.769,0,0,0-6.586,5.778" transform="translate(-164.558 -148.007)" fill="#687687"/>
        <path id="Trazado_168658" data-name="Trazado 168658" d="M379.827,352.081a2.809,2.809,0,0,1-.036-.453l-.049-1.3c-.035-1.156-.083-2.783-.144-4.783-.065-2.019-.149-4.422-.3-7.088s-.349-5.6-.753-8.645a27.9,27.9,0,0,0-.867-4.388,22.861,22.861,0,0,0-1.6-3.84,20.782,20.782,0,0,0-4.232-5.607,16.311,16.311,0,0,0-3.916-2.677,12.179,12.179,0,0,0-1.19-.515,2.738,2.738,0,0,1-.417-.182,2.9,2.9,0,0,1,.435.13,9.769,9.769,0,0,1,1.216.471,15.644,15.644,0,0,1,4,2.631,20.6,20.6,0,0,1,4.324,5.632,22.756,22.756,0,0,1,1.637,3.878,27.723,27.723,0,0,1,.882,4.431c.406,3.064.6,6,.734,8.668s.2,5.076.237,7.1.053,3.656.057,4.786q0,.819,0,1.3a2.84,2.84,0,0,1-.019.454" transform="translate(-174.059 -148.532)" fill="#1a2e35"/>
        <path id="Trazado_168659" data-name="Trazado 168659" d="M394.8,339.989a14.675,14.675,0,0,1-.582-2.249,23.591,23.591,0,0,1-.246-6.325,41.96,41.96,0,0,1,1.993-9.177c1.075-3.372,2.534-6.978,3.781-10.852a49.921,49.921,0,0,0,1.5-5.739A51.318,51.318,0,0,0,402,300.17a80.419,80.419,0,0,0,.171-9.366c-.089-2.668-.228-4.827-.314-6.318-.042-.731-.075-1.306-.1-1.718-.008-.184-.014-.331-.019-.448a.612.612,0,0,1,0-.153.642.642,0,0,1,.025.151c.012.115.027.262.046.445.036.411.085.985.149,1.714.119,1.49.288,3.647.4,6.318a77.1,77.1,0,0,1-.113,9.394,50.44,50.44,0,0,1-.733,5.507,49.309,49.309,0,0,1-1.507,5.771c-1.252,3.889-2.718,7.489-3.8,10.847a42.692,42.692,0,0,0-2.041,9.117,24.463,24.463,0,0,0,.159,6.289c.128.734.244,1.3.346,1.681l.1.435a.635.635,0,0,1,.027.151" transform="translate(-187.146 -134.072)" fill="#1a2e35"/>
        <path id="Trazado_168660" data-name="Trazado 168660" d="M397.611,392.558h-24.6l-.562-4.736h25.167Z" transform="translate(-176.966 -184.273)" fill="#ff004c"/>
        <path id="Trazado_168661" data-name="Trazado 168661" d="M378.546,395.818l3.076,14.207h13.37l2.878-14.207Z" transform="translate(-179.865 -188.072)" fill="#ff004c"/>
        <path id="Trazado_168662" data-name="Trazado 168662" d="M398.52,396.687c0,.076-5.41.122-12.081.1s-12.082-.095-12.082-.171,5.409-.121,12.082-.1,12.081.094,12.081.17" transform="translate(-177.875 -188.402)" fill="#375a64"/>
        <path id="Trazado_168663" data-name="Trazado 168663" d="M397.576,408.386a10.832,10.832,0,0,0-2.172-1.229,7.668,7.668,0,0,0-2.631-.524,9.281,9.281,0,0,0-3.233.595c-1.121.379-2.169.82-3.191,1.063a7.591,7.591,0,0,1-2.762.079,5.641,5.641,0,0,1-1.772-.568,3.314,3.314,0,0,1-.426-.274c-.092-.071-.137-.111-.132-.119a6.516,6.516,0,0,0,2.357.771,7.746,7.746,0,0,0,2.679-.134c.982-.246,2.029-.693,3.16-1.076a9.209,9.209,0,0,1,3.327-.588,7.528,7.528,0,0,1,2.7.6,6.91,6.91,0,0,1,1.6.942,4,4,0,0,1,.381.332c.082.081.122.127.116.134" transform="translate(-181.154 -193.088)" fill="#375a64"/>
        <path id="Trazado_168664" data-name="Trazado 168664" d="M397.73,410.214A11.537,11.537,0,0,0,395.643,409a7.064,7.064,0,0,0-2.536-.518,9.147,9.147,0,0,0-3.127.564c-1.083.362-2.1.782-3.074,1.043a7.891,7.891,0,0,1-2.654.294,4.465,4.465,0,0,1-1.738-.471,3.053,3.053,0,0,1-.413-.266c-.089-.069-.132-.108-.126-.116s.206.114.585.285a4.791,4.791,0,0,0,1.7.374,8.114,8.114,0,0,0,2.575-.343c.949-.268,1.958-.693,3.055-1.06a9.071,9.071,0,0,1,3.219-.557,6.951,6.951,0,0,1,2.6.592,6.812,6.812,0,0,1,1.535.936,4.15,4.15,0,0,1,.365.325c.079.079.118.123.111.13" transform="translate(-181.494 -193.968)" fill="#fff"/>
        <path id="Trazado_168665" data-name="Trazado 168665" d="M397.579,406.41a12.471,12.471,0,0,0-2.231-1.3,8.187,8.187,0,0,0-2.7-.644,8.733,8.733,0,0,0-3.335.589,29.939,29.939,0,0,1-3.3,1.078,8.391,8.391,0,0,1-2.852,0,6.336,6.336,0,0,1-1.83-.585,3.269,3.269,0,0,1-.442-.279c-.1-.072-.142-.114-.136-.121s.219.122.625.3a7.114,7.114,0,0,0,1.813.491,8.618,8.618,0,0,0,2.774-.057,33.877,33.877,0,0,0,3.265-1.089,8.713,8.713,0,0,1,3.439-.582,8.007,8.007,0,0,1,2.759.719,7.85,7.85,0,0,1,1.64.995,4.279,4.279,0,0,1,.393.343c.085.083.126.131.12.137" transform="translate(-180.914 -192.055)" fill="#fff"/>
      </g>
    </g>
  </g>
</svg>
