<svg xmlns="http://www.w3.org/2000/svg" xmlns:xlink="http://www.w3.org/1999/xlink" width="124" height="124" viewBox="0 0 124 124">
  <defs>
    <clipPath id="clip-path">
      <rect id="Rectángulo_43280" data-name="Rectángulo 43280" width="63.72" height="84.126" transform="translate(0 0.001)" fill="none"/>
    </clipPath>
  </defs>
  <g id="Grupo_119242" data-name="Grupo 119242" transform="translate(-319 -1830.516)">
    <g id="Elipse_6016" data-name="Elipse 6016" transform="translate(319 1830.516)" fill="#fff" stroke="#2631a0" stroke-width="4">
      <circle cx="62" cy="62" r="62" stroke="none"/>
      <circle cx="62" cy="62" r="60" fill="none"/>
    </g>
    <g id="Grupo_118724" data-name="Grupo 118724" transform="translate(349.14 1848.999)">
      <g id="Grupo_118723" data-name="Grupo 118723" clip-path="url(#clip-path)">
        <path id="Trazado_167902" data-name="Trazado 167902" d="M36.249,81.354a1.468,1.468,0,0,1-.219-.017A1.422,1.422,0,0,1,34.852,80.2L29.935,54.221a1.421,1.421,0,0,1,1-1.627l8.886-2.622a1.4,1.4,0,0,1,.4-.059,1.422,1.422,0,0,1,1.339.944L50.6,76.15a1.423,1.423,0,0,1-2.059,1.705L41.291,73.6,37.5,80.609a1.421,1.421,0,0,1-1.25.745" fill="#ff004c"/>
        <path id="Trazado_167903" data-name="Trazado 167903" d="M40.217,51.335l9.04,25.293-8.516-5-4.493,8.3L31.331,53.957Zm0-2.844a2.841,2.841,0,0,0-.805.117L30.527,51.23a2.842,2.842,0,0,0-1.989,3.255L33.454,80.46a2.843,2.843,0,0,0,5.294.825l3.092-5.713,5.978,3.508a2.843,2.843,0,0,0,4.116-3.409l-9.04-25.293a2.843,2.843,0,0,0-2.676-1.887"/>
        <path id="Trazado_167904" data-name="Trazado 167904" d="M27.134,82.705a1.421,1.421,0,0,1-1.25-.745l-3.792-7.007-7.247,4.253a1.422,1.422,0,0,1-2.059-1.7l9.04-25.294a1.423,1.423,0,0,1,1.339-.944,1.4,1.4,0,0,1,.4.059l8.887,2.622a1.421,1.421,0,0,1,.994,1.627L28.531,81.547a1.422,1.422,0,0,1-1.178,1.141,1.469,1.469,0,0,1-.219.017" fill="#ff004c"/>
        <path id="Trazado_167905" data-name="Trazado 167905" d="M23.165,52.687l8.886,2.622L27.134,81.284l-4.493-8.3-8.516,5Zm0-2.844a2.843,2.843,0,0,0-2.676,1.887l-9.04,25.293a2.843,2.843,0,0,0,4.116,3.409l5.978-3.508,3.092,5.713a2.843,2.843,0,0,0,5.294-.825l4.916-25.975a2.842,2.842,0,0,0-1.989-3.255L23.969,49.96a2.841,2.841,0,0,0-.805-.117"/>
        <path id="Trazado_167906" data-name="Trazado 167906" d="M31.86,62.3A6.382,6.382,0,0,1,28.121,60.6a5.658,5.658,0,0,0-1.767-1.063,1.608,1.608,0,0,0-.311-.027,8.055,8.055,0,0,0-1.815.337,10.048,10.048,0,0,1-2.491.422,3.911,3.911,0,0,1-1.529-.286,6.337,6.337,0,0,1-2.779-2.976,5.7,5.7,0,0,0-1.248-1.686,5.722,5.722,0,0,0-2.056-.519,6.331,6.331,0,0,1-3.788-1.423A6.323,6.323,0,0,1,8.914,49.6,5.764,5.764,0,0,0,8.4,47.539a5.688,5.688,0,0,0-1.687-1.247,6.344,6.344,0,0,1-2.976-2.78,6.285,6.285,0,0,1,.136-4.02,5.791,5.791,0,0,0,.311-2.126A5.685,5.685,0,0,0,3.116,35.6a6.379,6.379,0,0,1-1.695-3.739,6.384,6.384,0,0,1,1.694-3.74,5.663,5.663,0,0,0,1.064-1.767,5.786,5.786,0,0,0-.311-2.125,6.288,6.288,0,0,1-.136-4.021,6.347,6.347,0,0,1,2.976-2.779A5.723,5.723,0,0,0,8.4,16.182a5.765,5.765,0,0,0,.519-2.057,6.328,6.328,0,0,1,1.422-3.788,6.323,6.323,0,0,1,3.789-1.423A5.764,5.764,0,0,0,16.181,8.4a5.713,5.713,0,0,0,1.248-1.686,6.34,6.34,0,0,1,2.779-2.977,3.97,3.97,0,0,1,1.529-.286,10.065,10.065,0,0,1,2.492.423,8.1,8.1,0,0,0,1.815.337,1.6,1.6,0,0,0,.31-.027A5.655,5.655,0,0,0,28.12,3.116a6.387,6.387,0,0,1,3.74-1.694A6.387,6.387,0,0,1,35.6,3.116a5.646,5.646,0,0,0,1.767,1.063,1.579,1.579,0,0,0,.309.027,8.112,8.112,0,0,0,1.815-.337,10.065,10.065,0,0,1,2.492-.423,3.912,3.912,0,0,1,1.529.287,6.333,6.333,0,0,1,2.779,2.976A5.713,5.713,0,0,0,47.539,8.4a5.764,5.764,0,0,0,2.056.519,6.318,6.318,0,0,1,3.788,1.423,6.323,6.323,0,0,1,1.423,3.788,5.765,5.765,0,0,0,.519,2.057,5.723,5.723,0,0,0,1.687,1.247,6.344,6.344,0,0,1,2.976,2.78,6.285,6.285,0,0,1-.137,4.02,5.8,5.8,0,0,0-.31,2.125A5.663,5.663,0,0,0,60.6,28.121a6.384,6.384,0,0,1,1.694,3.74A6.384,6.384,0,0,1,60.6,35.6a5.672,5.672,0,0,0-1.064,1.766,5.808,5.808,0,0,0,.31,2.126,6.285,6.285,0,0,1,.137,4.02,6.344,6.344,0,0,1-2.976,2.78,5.688,5.688,0,0,0-1.687,1.247,5.764,5.764,0,0,0-.519,2.056,6.321,6.321,0,0,1-1.423,3.789A6.324,6.324,0,0,1,49.6,54.807a5.734,5.734,0,0,0-2.056.518,5.733,5.733,0,0,0-1.248,1.687,6.337,6.337,0,0,1-2.779,2.976,3.97,3.97,0,0,1-1.529.287,10.049,10.049,0,0,1-2.491-.423,8.112,8.112,0,0,0-1.815-.337,1.59,1.59,0,0,0-.31.027A5.649,5.649,0,0,0,35.6,60.6,6.382,6.382,0,0,1,31.86,62.3" fill="#ff004c"/>
        <path id="Trazado_167907" data-name="Trazado 167907" d="M31.86,2.843c1.864,0,3.469,2.382,5.23,2.731a3.064,3.064,0,0,0,.586.054c1.368,0,2.96-.76,4.307-.76a2.544,2.544,0,0,1,.984.177c1.7.7,2.271,3.521,3.781,4.532s4.34.475,5.63,1.765.747,4.109,1.766,5.631,3.827,2.081,4.531,3.78c.692,1.67-.887,4.062-.528,5.877.348,1.761,2.73,3.367,2.73,5.23s-2.382,3.469-2.73,5.231c-.359,1.815,1.22,4.207.528,5.877-.7,1.7-3.52,2.27-4.531,3.78s-.476,4.34-1.766,5.631-4.109.746-5.63,1.765-2.082,3.827-3.781,4.531a2.544,2.544,0,0,1-.984.178c-1.347,0-2.939-.76-4.307-.76a2.986,2.986,0,0,0-.586.054c-1.761.348-3.366,2.73-5.23,2.73s-3.469-2.382-5.23-2.73a2.986,2.986,0,0,0-.586-.054c-1.368,0-2.96.76-4.307.76a2.544,2.544,0,0,1-.984-.178c-1.7-.7-2.271-3.52-3.781-4.531s-4.34-.475-5.63-1.766-.747-4.108-1.766-5.63-3.827-2.081-4.531-3.78c-.692-1.67.887-4.063.528-5.877-.348-1.762-2.73-3.367-2.73-5.231s2.382-3.469,2.73-5.23c.359-1.815-1.22-4.207-.528-5.877.7-1.7,3.52-2.27,4.531-3.781s.476-4.34,1.766-5.63,4.109-.747,5.63-1.765,2.082-3.827,3.781-4.532a2.544,2.544,0,0,1,.984-.177c1.347,0,2.939.76,4.307.76a3.056,3.056,0,0,0,.586-.054C28.391,5.225,30,2.843,31.86,2.843M31.86,0a7.716,7.716,0,0,0-4.6,1.98,7.761,7.761,0,0,1-1.193.8h-.028a7.8,7.8,0,0,1-1.461-.293,11.327,11.327,0,0,0-2.846-.468,5.379,5.379,0,0,0-2.073.395A7.565,7.565,0,0,0,16.2,5.988a7.534,7.534,0,0,1-.815,1.226,7.521,7.521,0,0,1-1.462.292A7.547,7.547,0,0,0,9.331,9.332a7.54,7.54,0,0,0-1.825,4.594,7.437,7.437,0,0,1-.293,1.462,7.58,7.58,0,0,1-1.225.816,7.549,7.549,0,0,0-3.569,3.46,7.5,7.5,0,0,0,.073,4.92,7.392,7.392,0,0,1,.292,1.487,7.665,7.665,0,0,1-.8,1.194A7.71,7.71,0,0,0,0,31.86a7.71,7.71,0,0,0,1.98,4.6,7.567,7.567,0,0,1,.805,1.2,7.458,7.458,0,0,1-.293,1.484,7.5,7.5,0,0,0-.073,4.92,7.559,7.559,0,0,0,3.569,3.46,7.584,7.584,0,0,1,1.225.815,7.434,7.434,0,0,1,.293,1.463,7.542,7.542,0,0,0,1.825,4.594,7.542,7.542,0,0,0,4.594,1.825,7.508,7.508,0,0,1,1.463.293,7.519,7.519,0,0,1,.815,1.225,7.562,7.562,0,0,0,3.461,3.57,5.4,5.4,0,0,0,2.073.394,11.282,11.282,0,0,0,2.846-.468,7.78,7.78,0,0,1,1.46-.292h.029a7.817,7.817,0,0,1,1.193.8,7.711,7.711,0,0,0,4.6,1.981,7.711,7.711,0,0,0,4.6-1.981,7.744,7.744,0,0,1,1.193-.8h.028a7.772,7.772,0,0,1,1.461.292,11.282,11.282,0,0,0,2.846.468,5.4,5.4,0,0,0,2.073-.394,7.565,7.565,0,0,0,3.461-3.569,7.49,7.49,0,0,1,.815-1.226,7.587,7.587,0,0,1,1.462-.293,7.539,7.539,0,0,0,4.6-1.825,7.542,7.542,0,0,0,1.825-4.594,7.434,7.434,0,0,1,.293-1.463,7.651,7.651,0,0,1,1.225-.815,7.559,7.559,0,0,0,3.569-3.46,7.5,7.5,0,0,0-.073-4.92,7.405,7.405,0,0,1-.292-1.487,7.714,7.714,0,0,1,.8-1.195,7.71,7.71,0,0,0,1.98-4.6,7.71,7.71,0,0,0-1.98-4.6,7.608,7.608,0,0,1-.806-1.2,7.538,7.538,0,0,1,.294-1.483,7.5,7.5,0,0,0,.073-4.92,7.549,7.549,0,0,0-3.569-3.46,7.651,7.651,0,0,1-1.225-.815,7.465,7.465,0,0,1-.293-1.463,7.542,7.542,0,0,0-1.825-4.594,7.544,7.544,0,0,0-4.594-1.826,7.517,7.517,0,0,1-1.463-.292,7.49,7.49,0,0,1-.815-1.226,7.565,7.565,0,0,0-3.461-3.569,5.379,5.379,0,0,0-2.073-.394,11.328,11.328,0,0,0-2.846.467,7.8,7.8,0,0,1-1.461.293h-.028a7.761,7.761,0,0,1-1.193-.8A7.716,7.716,0,0,0,31.86,0"/>
        <path id="Trazado_167908" data-name="Trazado 167908" d="M31.86,51.069A19.209,19.209,0,1,1,51.069,31.86,19.231,19.231,0,0,1,31.86,51.069" fill="#fff"/>
        <path id="Trazado_167909" data-name="Trazado 167909" d="M31.86,14.073A17.787,17.787,0,1,1,14.073,31.86,17.788,17.788,0,0,1,31.86,14.073m0-2.843A20.631,20.631,0,1,0,52.49,31.86,20.653,20.653,0,0,0,31.86,11.23"/>
        <path id="Trazado_167910" data-name="Trazado 167910" d="M28.167,40.013a1.847,1.847,0,0,1-1.331-.558L21.7,34.319a1.889,1.889,0,0,1,2.672-2.672l3.8,3.8L39.349,24.261a1.889,1.889,0,0,1,2.672,2.672L29.507,39.446A1.855,1.855,0,0,1,28.167,40.013Z"/>
      </g>
    </g>
  </g>
</svg>
