<svg id="Grupo_118820" data-name="Grupo 118820" xmlns="http://www.w3.org/2000/svg" xmlns:xlink="http://www.w3.org/1999/xlink" width="261.204" height="209.378" viewBox="0 0 261.204 209.378">
  <defs>
    <clipPath id="clip-path">
      <rect id="Rectángulo_43379" data-name="Rectángulo 43379" width="261.204" height="209.378" fill="none"/>
    </clipPath>
    <clipPath id="clip-path-3">
      <rect id="Rectángulo_43367" data-name="Rectángulo 43367" width="30.585" height="31.914" fill="none"/>
    </clipPath>
    <clipPath id="clip-path-4">
      <rect id="Rectángulo_43368" data-name="Rectángulo 43368" width="7.276" height="131.245" fill="none"/>
    </clipPath>
    <clipPath id="clip-path-5">
      <rect id="Rectángulo_43370" data-name="Rectángulo 43370" width="8.346" height="3.222" fill="none"/>
    </clipPath>
    <clipPath id="clip-path-6">
      <rect id="Rectángulo_43371" data-name="Rectángulo 43371" width="8.433" height="8.692" fill="none"/>
    </clipPath>
    <clipPath id="clip-path-7">
      <rect id="Rectángulo_43377" data-name="Rectángulo 43377" width="12.954" height="6.609" fill="none"/>
    </clipPath>
  </defs>
  <g id="Grupo_118819" data-name="Grupo 118819" clip-path="url(#clip-path)">
    <g id="Grupo_118818" data-name="Grupo 118818">
      <g id="Grupo_118817" data-name="Grupo 118817" clip-path="url(#clip-path)">
        <path id="Trazado_168666" data-name="Trazado 168666" d="M41.893,10.266a9.573,9.573,0,0,1,7.378,1.342A16.909,16.909,0,0,1,54.5,17.18c2.62,4.228,3.5,9.884,3.573,14.857-5.516-.276-10.191-4.659-12.423-7.031-3.527-3.749-7.625-12.668-3.761-14.74" transform="translate(-16.215 -4.023)" fill="#f9e424"/>
        <path id="Trazado_168667" data-name="Trazado 168667" d="M82.881,41.99a8.169,8.169,0,0,1-2.736-7.734,10.85,10.85,0,0,1,4.737-6.918,4.567,4.567,0,0,1,3.734-.936,3.493,3.493,0,0,1,2.235,2.747,7.091,7.091,0,0,1-.46,3.651c-1.431,4.009-3.551,7.626-7.511,9.189" transform="translate(-32.17 -10.565)" fill="#f9e424"/>
        <path id="Trazado_168668" data-name="Trazado 168668" d="M87.887,58.383a16.073,16.073,0,0,1-1.565-2.892,15.312,15.312,0,0,1-1.1-3.421,33.513,33.513,0,0,1-.683-4.332,16.346,16.346,0,0,1,1.244-7.849A11.787,11.787,0,0,1,87.007,37.8c.357-.448.575-.676.6-.654.082.059-.719,1.042-1.466,2.9A17.541,17.541,0,0,0,85.094,47.7a39.245,39.245,0,0,0,.631,4.268,16.792,16.792,0,0,0,.96,3.369,23.678,23.678,0,0,1,1.2,3.047" transform="translate(-33.966 -14.933)" fill="#1a2e35"/>
        <path id="Trazado_168669" data-name="Trazado 168669" d="M49.164,21.337a9.507,9.507,0,0,1,1.155,1.2c.716.795,1.736,1.958,2.984,3.407,2.495,2.9,5.9,6.939,9.546,11.495s6.835,8.776,9.075,11.876c1.121,1.55,2.013,2.815,2.611,3.7a9.527,9.527,0,0,1,.887,1.408,9.47,9.47,0,0,1-1.063-1.28l-2.751-3.593c-2.319-3.037-5.55-7.211-9.194-11.764L53,26.2l-2.848-3.52a9.531,9.531,0,0,1-.989-1.338" transform="translate(-19.765 -8.578)" fill="#1a2e35"/>
        <path id="Trazado_168670" data-name="Trazado 168670" d="M64.816,59.309a19.113,19.113,0,0,0-17.327-2.173c-1.443.542-3.015,1.549-3.061,3.09s1.473,2.647,2.9,3.24a16.329,16.329,0,0,0,17.714-3.8" transform="translate(-17.862 -22.505)" fill="#f9e424"/>
        <path id="Trazado_168671" data-name="Trazado 168671" d="M56,61.029a2.669,2.669,0,0,1,.829-.283c.541-.154,1.335-.325,2.323-.51a21.555,21.555,0,0,1,7.86-.066,13.519,13.519,0,0,1,4.08,1.558,13.172,13.172,0,0,1,4.255,4.11c.3.474.457.744.425.765-.091.066-.772-.981-2.183-2.365a14.108,14.108,0,0,0-2.755-2.066A13.9,13.9,0,0,0,66.9,60.716a24.255,24.255,0,0,0-7.689-.09,27.811,27.811,0,0,1-3.21.4" transform="translate(-22.515 -24.055)" fill="#1a2e35"/>
        <path id="Trazado_168672" data-name="Trazado 168672" d="M55.049,183.928c17.83-8.657,24.782-28.886,27.124-47.692.392-3.139,1.259-6.376.209-9.352s-4.217-5.4-7.222-4.528c-2.492.722-3.932,3.259-5.584,5.283a18.491,18.491,0,0,1-8.435,5.828c-2.153.715-4.713.955-6.5-.44-2.456-1.914-2.182-5.685-1.668-8.788q1.437-8.673,2.872-17.346a29.322,29.322,0,0,0,.53-9.372c-.5-3.1-2.2-6.178-5.017-7.476s-6.747-.175-7.854,2.765a29.033,29.033,0,0,0-.7,3.853c-.291,1.275-1.119,2.606-2.4,2.77-1.3.167-2.4-.911-3.184-1.968-2.706-3.646-4.238-8.031-5.632-12.371S28.868,76.326,26.5,72.444s-5.956-7.233-10.362-8.193S6.559,65.282,4.74,69.47,4.764,78.516,6.979,82.5A70.192,70.192,0,0,0,19.222,98.557a5.774,5.774,0,0,1,2,2.98c.345,2.178-1.944,3.921-4.1,4.277-2.437.4-4.911-.237-7.378-.338s-5.26.551-6.54,2.693c-1.777,2.971.348,6.721,2.613,9.316a60.125,60.125,0,0,0,15.959,12.942c2.151,1.2,4.439,2.315,6.025,4.213s2.254,4.867.793,6.876-4.43,2.258-6.752,1.433-4.257-2.464-6.4-3.687c-4.011-2.29-9.569-2.873-12.89.38A9.949,9.949,0,0,0,.13,148.164a22.94,22.94,0,0,0,3.486,8.424A60.46,60.46,0,0,0,26.26,178.563c9.353,5.008,18.378,7.4,28.789,5.365" transform="translate(0 -25.736)" fill="#f9e424"/>
        <path id="Trazado_168673" data-name="Trazado 168673" d="M59.179,186.209c.5-7.518.836-3.618-.434-13.491A281.635,281.635,0,0,0,52.467,141L50.4,132.773c-.686-2.7-1.368-5.376-2.2-7.953a140.445,140.445,0,0,0-5.6-14.536c-2.006-4.537-4.074-8.77-6.038-12.713s-3.881-7.58-5.761-10.822a111.6,111.6,0,0,0-10-14.624c-1.311-1.628-2.37-2.858-3.1-3.682-.352-.392-.627-.7-.834-.932a2.308,2.308,0,0,0-.3-.3,2.218,2.218,0,0,0,.255.343l.791.969c.7.848,1.729,2.1,3.013,3.747a118.044,118.044,0,0,1,9.823,14.689C32.3,90.2,34.179,93.845,36.13,97.79s3.994,8.184,5.982,12.716A142.318,142.318,0,0,1,47.661,125c.819,2.564,1.491,5.218,2.177,7.924s1.37,5.449,2.069,8.225a288.7,288.7,0,0,1,6.311,31.644c1.295,9.839,1,5.9.554,13.394" transform="translate(-6.659 -27.021)" fill="#1a2e35"/>
        <path id="Trazado_168674" data-name="Trazado 168674" d="M69.2,140.989a6.371,6.371,0,0,0,.514-1.277c.3-.832.693-2.05,1.158-3.561.931-3.022,2.074-7.239,3.317-11.893s2.444-8.846,3.418-11.845c.484-1.5.886-2.712,1.176-3.546a6.333,6.333,0,0,0,.388-1.32,6.2,6.2,0,0,0-.6,1.239c-.355.81-.818,2-1.351,3.494-1.078,2.976-2.346,7.165-3.59,11.826-1.215,4.6-2.313,8.754-3.153,11.931-.388,1.433-.716,2.64-.98,3.609a6.279,6.279,0,0,0-.3,1.344" transform="translate(-27.819 -43.238)" fill="#1a2e35"/>
        <path id="Trazado_168675" data-name="Trazado 168675" d="M4.423,140.364a8.763,8.763,0,0,0,1.562.444c1.009.254,2.473.614,4.266,1.117,3.594.976,8.511,2.5,13.862,4.417s10.117,3.878,13.524,5.389c1.71.743,3.077,1.382,4.025,1.818a8.707,8.707,0,0,0,1.5.63,8.567,8.567,0,0,0-1.4-.835c-.919-.5-2.263-1.2-3.956-1.991-3.373-1.612-8.133-3.63-13.5-5.564a142.438,142.438,0,0,0-13.955-4.265c-1.812-.453-3.294-.753-4.323-.939a8.562,8.562,0,0,0-1.609-.222" transform="translate(-1.778 -56.428)" fill="#1a2e35"/>
        <path id="Trazado_168676" data-name="Trazado 168676" d="M86.481,210.165a2.1,2.1,0,0,0,.352-.443l.912-1.336c.787-1.164,1.882-2.877,3.208-5.011,2.654-4.268,6.135-10.277,9.886-16.96s7.174-12.72,9.735-17.036l3.048-5.1.822-1.394a2.047,2.047,0,0,0,.253-.508,2.135,2.135,0,0,0-.352.444l-.912,1.335c-.788,1.164-1.883,2.877-3.209,5.011-2.654,4.267-6.134,10.276-9.887,16.963s-7.172,12.717-9.734,17.035c-1.253,2.1-2.282,3.822-3.048,5.1-.329.557-.6,1.017-.822,1.394a2.117,2.117,0,0,0-.254.508" transform="translate(-34.768 -65.281)" fill="#e1e1e1"/>
        <path id="Trazado_168677" data-name="Trazado 168677" d="M2.308,199.581a2.154,2.154,0,0,0,.492.3l1.458.762,5.388,2.745c4.549,2.319,10.8,5.594,17.693,9.222s13.183,6.851,17.781,9.076c2.3,1.113,4.168,2,5.472,2.578l1.505.663a2.1,2.1,0,0,0,.542.194,2.17,2.17,0,0,0-.492-.3l-1.459-.761L45.3,221.316c-4.549-2.319-10.8-5.594-17.7-9.224s-13.179-6.85-17.778-9.075c-2.3-1.114-4.168-2-5.473-2.579l-1.506-.663a2.15,2.15,0,0,0-.542-.194" transform="translate(-0.928 -80.239)" fill="#1a2e35"/>
        <path id="Trazado_168678" data-name="Trazado 168678" d="M257.881,349.791c0,.086-56.607.155-126.419.155-69.837,0-126.431-.069-126.431-.155s56.595-.155,126.431-.155c69.812,0,126.419.069,126.419.155" transform="translate(-2.022 -140.569)" fill="#1a2e35"/>
        <path id="Trazado_168679" data-name="Trazado 168679" d="M26.919,184.033s4.126-2.785,9.281,7.1a129.007,129.007,0,0,1,7.126,15.594s1.357,2.068,2.774.695,3.338-5.251,5.774-4.579c2.526.7,3.383,3.5,2.941,7.638s-1.077,13.236-1.131,14.059.42,1.993,1.535,1.212,7.5-8.031,10.763-4.794.135,14.56-.183,15.8-.07,1.772.522,2.074,2.51-2.338,4.412-4.326,4.455-3.959,6.178-1.934,2.349,10.493-5.586,24.331l-4.1,6.172-7.432-.343c-15.86-1.7-22.348-7.179-22.975-9.764s2.468-3.493,5.193-3.866,5.988-.374,6.092-1.031-.178-1.167-1.372-1.64-12.194-4.592-12.9-9.131,8.913-5.453,10.2-5.9.606-1.523-.08-1.954-8.437-5.267-12.045-7.339-5.376-4.411-4.456-6.866c.886-2.366,5.153-1.646,7.1-1.986s1.066-2.654,1.066-2.654a129.091,129.091,0,0,1-8.439-14.924c-4.974-9.976-.172-11.7-.172-11.7" transform="translate(-10.02 -73.844)" fill="#febf10"/>
        <path id="Trazado_168680" data-name="Trazado 168680" d="M36.008,199.066a1.111,1.111,0,0,1,.1.175l.279.528,1.048,2.041,3.824,7.522L53.975,234.1c4.985,9.665,9.457,18.436,12.64,24.811l3.742,7.563,1,2.065.254.541a1.112,1.112,0,0,1,.077.188,1.107,1.107,0,0,1-.1-.176l-.279-.527-1.048-2.041L66.433,259C63.2,252.651,58.7,243.9,53.719,234.231S44.264,215.8,41.081,209.424l-3.743-7.564-1-2.065-.254-.541a1.091,1.091,0,0,1-.078-.188" transform="translate(-14.476 -80.033)" fill="#1a2e35"/>
        <path id="Trazado_168681" data-name="Trazado 168681" d="M63.711,224.984a15.221,15.221,0,0,1-.409,1.95l-1.071,4.681c-.415,1.83-.8,3.485-1.121,4.675-.16.595-.3,1.073-.406,1.4a1.951,1.951,0,0,1-.2.5,18.336,18.336,0,0,1,.405-1.949l1.038-4.691c.415-1.83.825-3.481,1.154-4.668.166-.593.306-1.071.413-1.4a1.936,1.936,0,0,1,.193-.5" transform="translate(-24.324 -90.453)" fill="#1a2e35"/>
        <path id="Trazado_168682" data-name="Trazado 168682" d="M49.22,244.484c-.021.077-3.42-.8-7.59-1.956s-7.535-2.156-7.513-2.233,3.419.8,7.59,1.956,7.534,2.156,7.513,2.233" transform="translate(-13.716 -96.607)" fill="#1a2e35"/>
        <path id="Trazado_168683" data-name="Trazado 168683" d="M66.1,274.85a2.037,2.037,0,0,1-.542.081c-.35.035-.857.068-1.485.1-1.256.061-2.994.1-4.913.046s-3.653-.189-4.9-.324c-.625-.066-1.13-.132-1.478-.185a2.01,2.01,0,0,1-.536-.112,16.44,16.44,0,0,1,2.031.094c1.252.083,2.981.187,4.894.239s3.644.047,4.9.038a16.282,16.282,0,0,1,2.034.021" transform="translate(-21.006 -110.338)" fill="#1a2e35"/>
        <path id="Trazado_168684" data-name="Trazado 168684" d="M81.507,256.229a12.1,12.1,0,0,1-.832,1.686c-.546,1.024-1.318,2.428-2.186,3.971s-1.668,2.932-2.26,3.931a12.175,12.175,0,0,1-1.009,1.586,12.277,12.277,0,0,1,.832-1.686c.547-1.024,1.318-2.429,2.187-3.972s1.668-2.932,2.26-3.93a12.105,12.105,0,0,1,1.009-1.587" transform="translate(-30.24 -103.015)" fill="#1a2e35"/>
        <path id="Trazado_168685" data-name="Trazado 168685" d="M97.511,278.99a2.819,2.819,0,0,1-.274.588l-.838,1.549c-.719,1.3-1.729,3.09-2.861,5.056s-2.17,3.74-2.934,5.016l-.918,1.5a2.785,2.785,0,0,1-.37.532,2.835,2.835,0,0,1,.273-.587l.839-1.549c.719-1.3,1.729-3.09,2.861-5.057s2.17-3.739,2.934-5.015l.918-1.5a2.825,2.825,0,0,1,.371-.532" transform="translate(-35.908 -112.166)" fill="#1a2e35"/>
        <path id="Trazado_168686" data-name="Trazado 168686" d="M77.674,301.488a3.222,3.222,0,0,1-.692.058c-.445.02-1.09.032-1.887.038-1.594.008-3.8-.025-6.227-.162s-4.624-.341-6.207-.528c-.792-.092-1.431-.178-1.872-.246a3.174,3.174,0,0,1-.68-.135,3.236,3.236,0,0,1,.693.023l1.879.155c1.586.135,3.778.31,6.2.444s4.622.2,6.213.246l1.885.053a3.205,3.205,0,0,1,.692.054" transform="translate(-24.166 -120.815)" fill="#1a2e35"/>
        <path id="Trazado_168687" data-name="Trazado 168687" d="M324.04,132.3,304.029,151.78l-18.44,35.193-20.741,39.793L239.37,214.824l-27.541-14.1,17.616-33.652,10.948-37.683c-7.735,5.132-22.093,12.121-39.284,8.477-18.621-3.949-9.683-74.177-9.683-74.177l20.462-.527,2.039,49.517,23.131-10.214.036.084c1.392-.621,2.611-1.174,3.258-1.527,12.791-6.977,21.186-7.823,34.908-2.925l19.8,6.576c5.088,2.4,23.846,11.635,28.981,27.626" transform="translate(-76.099 -25.393)" fill="#4c53b5"/>
        <path id="Trazado_168688" data-name="Trazado 168688" d="M288.026,119.127c.015.027-.464.263-1.241.817a13.712,13.712,0,0,0-2.867,2.82,20.434,20.434,0,0,0-2.826,5.254c-.808,2.108-1.43,4.521-2.108,7.049L275.465,148l-1.1,3.91-.315,1.059a1.78,1.78,0,0,1-.13.364,1.855,1.855,0,0,1,.07-.38l.258-1.074c.247-.967.588-2.3,1.005-3.936l3.431-12.956a68.964,68.964,0,0,1,2.142-7.071,20.073,20.073,0,0,1,2.919-5.286,13.008,13.008,0,0,1,2.971-2.784,8.789,8.789,0,0,1,.956-.561,1.8,1.8,0,0,1,.354-.156" transform="translate(-110.127 -47.894)" fill="#1a2e35"/>
        <g id="Grupo_118804" data-name="Grupo 118804" transform="translate(139.857 81.154)" opacity="0.3">
          <g id="Grupo_118803" data-name="Grupo 118803">
            <g id="Grupo_118802" data-name="Grupo 118802" clip-path="url(#clip-path-3)">
              <path id="Trazado_168689" data-name="Trazado 168689" d="M264.476,135.719c-5.721,15.489-16.011,24.152-30.584,31.913a53.659,53.659,0,0,0,24.028-8.806" transform="translate(-233.891 -135.719)"/>
            </g>
          </g>
        </g>
        <g id="Grupo_118807" data-name="Grupo 118807" transform="translate(188.665 70.128)" opacity="0.3">
          <g id="Grupo_118806" data-name="Grupo 118806">
            <g id="Grupo_118805" data-name="Grupo 118805" clip-path="url(#clip-path-4)">
              <path id="Trazado_168690" data-name="Trazado 168690" d="M315.516,117.28q3.638,58.226,7.277,116.453L315.6,248.526Z" transform="translate(-315.516 -117.28)"/>
            </g>
          </g>
        </g>
        <path id="Trazado_168691" data-name="Trazado 168691" d="M350.727,179.25c-.085.031-.817-1.8-1.837-4.006s-1.934-3.953-1.855-4a5.022,5.022,0,0,1,.712,1.085c.4.694.914,1.673,1.426,2.782s.922,2.137,1.191,2.891a5.01,5.01,0,0,1,.363,1.246" transform="translate(-139.521 -68.848)" fill="#fafafa"/>
        <path id="Trazado_168692" data-name="Trazado 168692" d="M375.113,170.938a70.307,70.307,0,0,1-7.94,4.949,70.446,70.446,0,0,1,7.94-4.949" transform="translate(-147.619 -68.723)" fill="#fafafa"/>
        <path id="Trazado_168693" data-name="Trazado 168693" d="M368.366,156.794a16.486,16.486,0,0,1-.322-3.18,16.447,16.447,0,0,1-.011-3.2,16.5,16.5,0,0,1,.322,3.18,16.49,16.49,0,0,1,.011,3.2" transform="translate(-147.94 -60.475)" fill="#fafafa"/>
        <path id="Trazado_168694" data-name="Trazado 168694" d="M391.988,156.8a36.145,36.145,0,0,1-5.705-3.523,36.258,36.258,0,0,1,5.705,3.523" transform="translate(-155.302 -61.624)" fill="#fafafa"/>
        <path id="Trazado_168695" data-name="Trazado 168695" d="M354.247,207.633a63.335,63.335,0,0,1,3.517-8.148,31.8,31.8,0,0,1-1.616,4.135,31.721,31.721,0,0,1-1.9,4.012" transform="translate(-142.42 -80.202)" fill="#fafafa"/>
        <path id="Trazado_168696" data-name="Trazado 168696" d="M340.36,221.822a28.086,28.086,0,0,1-2.643-5.286,28.128,28.128,0,0,1,2.643,5.286" transform="translate(-135.774 -87.057)" fill="#fafafa"/>
        <path id="Trazado_168697" data-name="Trazado 168697" d="M348.069,241.866a14.435,14.435,0,0,1-6.243.88c0-.091,1.409-.158,3.127-.4s3.093-.564,3.117-.477" transform="translate(-137.429 -97.235)" fill="#fafafa"/>
        <path id="Trazado_168698" data-name="Trazado 168698" d="M365.258,220.008a30.634,30.634,0,0,1,2.406-5.684,30.745,30.745,0,0,1-2.406,5.684" transform="translate(-146.846 -86.167)" fill="#fafafa"/>
        <path id="Trazado_168699" data-name="Trazado 168699" d="M330.72,258.559c-.075.051-.954-1.165-2.163-2.556s-2.282-2.44-2.221-2.507a16.247,16.247,0,0,1,4.384,5.063" transform="translate(-131.2 -101.915)" fill="#fafafa"/>
        <path id="Trazado_168700" data-name="Trazado 168700" d="M325.654,220.96a36.779,36.779,0,0,1-3.4,5.853,36.909,36.909,0,0,1,3.4-5.853" transform="translate(-129.559 -88.835)" fill="#fafafa"/>
        <path id="Trazado_168701" data-name="Trazado 168701" d="M327.576,205.676a37.44,37.44,0,0,1-6.606-1.705,37.447,37.447,0,0,1,6.606,1.705" transform="translate(-129.044 -82)" fill="#fafafa"/>
        <path id="Trazado_168702" data-name="Trazado 168702" d="M331.78,177.859a69.474,69.474,0,0,1,3.433,4.948,18.574,18.574,0,0,1-3.433-4.948" transform="translate(-133.388 -71.507)" fill="#fafafa"/>
        <path id="Trazado_168703" data-name="Trazado 168703" d="M319.647,176.439a26.647,26.647,0,0,1-4.342,3.775,26.64,26.64,0,0,1,4.342-3.775" transform="translate(-126.765 -70.934)" fill="#fafafa"/>
        <path id="Trazado_168704" data-name="Trazado 168704" d="M326.511,157.358a19.586,19.586,0,0,1-4.953-5.818c.077-.051,1.06,1.35,2.428,2.951s2.588,2.8,2.526,2.867" transform="translate(-129.278 -60.925)" fill="#fafafa"/>
        <path id="Trazado_168705" data-name="Trazado 168705" d="M350.846,156.592a40.554,40.554,0,0,1-6.8,2.076,40.553,40.553,0,0,1,6.8-2.076" transform="translate(-138.323 -62.952)" fill="#fafafa"/>
        <path id="Trazado_168706" data-name="Trazado 168706" d="M318.894,128.18c-.093-.005-.051-1.372-.264-3.035s-.58-2.978-.492-3.007a11.08,11.08,0,0,1,.755,6.041" transform="translate(-127.9 -49.105)" fill="#fafafa"/>
        <path id="Trazado_168707" data-name="Trazado 168707" d="M290.348,204.748a11.553,11.553,0,0,1-1.409,1.039c-.883.62-2.09,1.49-3.385,2.5s-2.427,1.98-3.24,2.689a11.535,11.535,0,0,1-1.345,1.12,8.467,8.467,0,0,1,1.2-1.282,42.659,42.659,0,0,1,6.652-5.214,8.481,8.481,0,0,1,1.531-.855" transform="translate(-112.961 -82.317)" fill="#fafafa"/>
        <path id="Trazado_168708" data-name="Trazado 168708" d="M291.954,192.273c-.078.047-1.085-1.519-2.474-3.34s-2.625-3.214-2.559-3.276a4.323,4.323,0,0,1,.9.831,29.019,29.019,0,0,1,3.572,4.695,4.379,4.379,0,0,1,.561,1.09" transform="translate(-115.354 -74.641)" fill="#fafafa"/>
        <path id="Trazado_168709" data-name="Trazado 168709" d="M297.492,165.113a36.085,36.085,0,0,1-5.862,3.237,36.149,36.149,0,0,1,5.862-3.237" transform="translate(-117.248 -66.38)" fill="#fafafa"/>
        <path id="Trazado_168710" data-name="Trazado 168710" d="M291.637,146.729a4.683,4.683,0,0,1-1.025-.807,22.566,22.566,0,0,1-3.982-4.854,4.687,4.687,0,0,1-.591-1.163c.082-.048,1.1,1.652,2.653,3.532s3.008,3.222,2.945,3.292" transform="translate(-114.998 -56.247)" fill="#fafafa"/>
        <path id="Trazado_168711" data-name="Trazado 168711" d="M305.779,147.6a25.824,25.824,0,0,1,2.481-5.1,25.921,25.921,0,0,1-2.481,5.1" transform="translate(-122.933 -57.293)" fill="#fafafa"/>
        <path id="Trazado_168712" data-name="Trazado 168712" d="M302.155,129.779c-.1,0,.011-1.858-.347-4.1s-1.011-3.977-.92-4.01a3.919,3.919,0,0,1,.507,1.109,15.961,15.961,0,0,1,.9,5.791,3.917,3.917,0,0,1-.145,1.211" transform="translate(-120.967 -48.916)" fill="#fafafa"/>
        <path id="Trazado_168713" data-name="Trazado 168713" d="M305.365,206.917a11.816,11.816,0,0,1,.023-1.75c.037-1.078.068-2.566.027-4.209s-.146-3.129-.237-4.2a11.759,11.759,0,0,1-.111-1.747,8.393,8.393,0,0,1,.329,1.723,39.824,39.824,0,0,1,.21,8.45,8.317,8.317,0,0,1-.243,1.737" transform="translate(-122.645 -78.402)" fill="#fafafa"/>
        <path id="Trazado_168714" data-name="Trazado 168714" d="M300.216,237.316a15.612,15.612,0,0,0-5.709-3.642,8.731,8.731,0,0,1,5.709,3.642" transform="translate(-118.404 -93.942)" fill="#fafafa"/>
        <path id="Trazado_168715" data-name="Trazado 168715" d="M310.951,255.176a71.114,71.114,0,0,1-8.356,4.324,71.248,71.248,0,0,1,8.356-4.324" transform="translate(-121.656 -102.59)" fill="#fafafa"/>
        <path id="Trazado_168716" data-name="Trazado 168716" d="M277.449,256.709a77.027,77.027,0,0,1-5.8-7.881,77.043,77.043,0,0,1,5.8,7.881" transform="translate(-109.215 -100.039)" fill="#fafafa"/>
        <path id="Trazado_168717" data-name="Trazado 168717" d="M270.368,227.945a4.526,4.526,0,0,1-.133-1.227c-.035-.76-.042-1.812.011-2.972s.158-2.207.263-2.96a4.491,4.491,0,0,1,.246-1.21c.089.011-.094,1.878-.2,4.185s-.1,4.182-.19,4.185" transform="translate(-108.635 -88.279)" fill="#fafafa"/>
        <path id="Trazado_168718" data-name="Trazado 168718" d="M254.184,278.317a62.577,62.577,0,0,1-6.787-5.644,62.762,62.762,0,0,1,6.787,5.644" transform="translate(-99.464 -109.625)" fill="#fafafa"/>
        <path id="Trazado_168719" data-name="Trazado 168719" d="M265.587,274.319a70.68,70.68,0,0,1-.218-9.379,70.686,70.686,0,0,1,.218,9.379" transform="translate(-106.657 -106.517)" fill="#fafafa"/>
        <path id="Trazado_168720" data-name="Trazado 168720" d="M270.483,309.228c-.02.047-.746-.249-1.948-.633a28.044,28.044,0,0,0-9.7-1.326c-1.26.047-2.038.138-2.046.087a1.888,1.888,0,0,1,.539-.127c.35-.065.86-.129,1.494-.181a23.456,23.456,0,0,1,9.786,1.337c.6.22,1.072.419,1.391.575a1.9,1.9,0,0,1,.485.267" transform="translate(-103.24 -123.42)" fill="#fafafa"/>
        <path id="Trazado_168721" data-name="Trazado 168721" d="M291.143,316.232a7.243,7.243,0,0,1,1.347.932,33.637,33.637,0,0,1,5.579,5.579,7.293,7.293,0,0,1,.932,1.346,10.233,10.233,0,0,1-1.1-1.206c-.661-.758-1.592-1.788-2.676-2.874s-2.116-2.014-2.874-2.676a10.335,10.335,0,0,1-1.206-1.1" transform="translate(-117.052 -127.138)" fill="#fafafa"/>
        <path id="Trazado_168722" data-name="Trazado 168722" d="M294.235,259.368a46.736,46.736,0,0,1-2.809-7.089,46.8,46.8,0,0,1,2.809,7.089" transform="translate(-117.163 -101.427)" fill="#fafafa"/>
        <path id="Trazado_168723" data-name="Trazado 168723" d="M250.848,162.783a4.8,4.8,0,0,1-.915,1,20.281,20.281,0,0,1-5.417,3.611,4.84,4.84,0,0,1-1.272.461c-.038-.088,1.857-.9,3.954-2.307s3.583-2.833,3.65-2.763" transform="translate(-97.794 -65.445)" fill="#fafafa"/>
        <path id="Trazado_168724" data-name="Trazado 168724" d="M258.466,148.61a22.935,22.935,0,0,1,.252-5.323,22.837,22.837,0,0,1-.252,5.323" transform="translate(-103.885 -57.608)" fill="#fafafa"/>
        <path id="Trazado_168725" data-name="Trazado 168725" d="M234.492,159.21a35.929,35.929,0,0,1-6.083-2.788,36.047,36.047,0,0,1,6.083,2.788" transform="translate(-91.83 -62.886)" fill="#fafafa"/>
        <path id="Trazado_168726" data-name="Trazado 168726" d="M274.144,143.093a17.681,17.681,0,0,1,.1-3.307,17.7,17.7,0,0,1,.407-3.283,17.686,17.686,0,0,1-.1,3.307,17.719,17.719,0,0,1-.407,3.283" transform="translate(-110.2 -54.88)" fill="#fafafa"/>
        <path id="Trazado_168727" data-name="Trazado 168727" d="M223.722,179.726a14.548,14.548,0,0,1-6.337-3.8c.062-.071,1.333,1,3.083,2.043s3.288,1.671,3.253,1.759" transform="translate(-87.398 -70.728)" fill="#fafafa"/>
        <path id="Trazado_168728" data-name="Trazado 168728" d="M209.567,161.937a50.085,50.085,0,0,1-5.323,5.83,50.1,50.1,0,0,1,5.323-5.83" transform="translate(-82.114 -65.105)" fill="#fafafa"/>
        <path id="Trazado_168729" data-name="Trazado 168729" d="M208.467,141.152a12.1,12.1,0,0,1-5.069-3.8c.068-.064,1.07.946,2.468,1.989s2.643,1.73,2.6,1.812" transform="translate(-81.773 -55.22)" fill="#fafafa"/>
        <path id="Trazado_168730" data-name="Trazado 168730" d="M200.673,147.523a15.074,15.074,0,0,1-2.788,3.3,15.039,15.039,0,0,1,2.788-3.3" transform="translate(-79.556 -59.309)" fill="#fafafa"/>
        <path id="Trazado_168731" data-name="Trazado 168731" d="M219.256,113.685a24.314,24.314,0,0,1-2.336,3.1,24.312,24.312,0,0,1-2.578,2.9,24.323,24.323,0,0,1,2.337-3.1,24.361,24.361,0,0,1,2.577-2.9" transform="translate(-86.174 -45.706)" fill="#fafafa"/>
        <path id="Trazado_168732" data-name="Trazado 168732" d="M202.133,113.807a21.87,21.87,0,0,1-2.543-2.67,21.855,21.855,0,0,1-2.309-2.875,21.959,21.959,0,0,1,2.543,2.67,21.95,21.95,0,0,1,2.309,2.874" transform="translate(-79.314 -43.525)" fill="#fafafa"/>
        <path id="Trazado_168733" data-name="Trazado 168733" d="M211.76,91.9a18.118,18.118,0,0,1-1.782-2.839,18.115,18.115,0,0,1-1.512-2.992,18.1,18.1,0,0,1,1.783,2.839A18.118,18.118,0,0,1,211.76,91.9" transform="translate(-83.81 -34.603)" fill="#fafafa"/>
        <path id="Trazado_168734" data-name="Trazado 168734" d="M213.552,77.9c-.075-.059.819-1.193,1.531-2.8s.973-3.027,1.068-3.01a9.251,9.251,0,0,1-2.6,5.812" transform="translate(-85.855 -28.983)" fill="#fafafa"/>
        <path id="Trazado_168735" data-name="Trazado 168735" d="M197.01,76.531a6.952,6.952,0,0,1,.736-3.66,8.79,8.79,0,0,1,1.461-2.224,2.875,2.875,0,0,1,.831-.724A17.448,17.448,0,0,0,198.03,73a17.492,17.492,0,0,0-1.02,3.53" transform="translate(-79.19 -28.112)" fill="#fafafa"/>
        <path id="Trazado_168736" data-name="Trazado 168736" d="M341.057,44.259a37.933,37.933,0,0,1-.09-7.464,12.718,12.718,0,0,1,2.752-6.834,7.713,7.713,0,0,1,6.615-2.783c1.527.2,2.974.952,4.513.907,1.78-.052,3.329-1.151,4.949-1.891a12.976,12.976,0,0,1,8.156-.851,7.735,7.735,0,0,1,3.858,1.947,4.332,4.332,0,0,1,1.25,4,20.606,20.606,0,0,1,5.355.47,6.935,6.935,0,0,1,4.3,3.016,4.235,4.235,0,0,1-.447,4.993,3.44,3.44,0,0,1,3.8,2.592,4.433,4.433,0,0,1-1.793,4.45,8.282,8.282,0,0,1-5.589,1.124,12.023,12.023,0,0,1-4.921-1.808" transform="translate(-137.022 -10.066)" fill="#1a2e35"/>
        <path id="Trazado_168737" data-name="Trazado 168737" d="M332.528,107.9h0a12.9,12.9,0,0,0,15.687-9.2c1.011-3.829,1.833-7.039,1.833-7.039s9.995,1.712,13.3-7.746S372.327,52.1,372.327,52.1a34.818,34.818,0,0,0-34.565-6.964l-1.771.611L323.3,91.989a12.905,12.905,0,0,0,9.232,15.915" transform="translate(-129.792 -17.383)" fill="#c78976"/>
        <path id="Trazado_168738" data-name="Trazado 168738" d="M360.92,118.851a23.3,23.3,0,0,1-11.2-7.675s.633,7.817,10.4,10.143Z" transform="translate(-140.603 -44.698)" fill="#bf654e"/>
        <path id="Trazado_168739" data-name="Trazado 168739" d="M335.76,63.664c-.138-.124-5.877-4.121-7.849,2.442s5.023,7.189,5.091,7,2.758-9.446,2.758-9.446" transform="translate(-131.693 -25.066)" fill="#c78976"/>
        <path id="Trazado_168740" data-name="Trazado 168740" d="M332.963,71.409c-.023-.03-.139.045-.358.077a1.193,1.193,0,0,1-.86-.24,2.952,2.952,0,0,1-.546-2.931,3.939,3.939,0,0,1,.811-1.54,1.381,1.381,0,0,1,1.124-.619.608.608,0,0,1,.581.517c.033.209-.048.328-.017.35.013.022.174-.068.2-.355a.764.764,0,0,0-.135-.489.9.9,0,0,0-.582-.358,1.677,1.677,0,0,0-1.5.659,4.044,4.044,0,0,0-.946,1.71,3.1,3.1,0,0,0,.816,3.335,1.28,1.28,0,0,0,1.1.141c.252-.1.331-.237.312-.256" transform="translate(-132.912 -26.453)" fill="#bf654e"/>
        <path id="Trazado_168741" data-name="Trazado 168741" d="M390.247,79.757a1.43,1.43,0,0,1-1.767.929,1.369,1.369,0,0,1-.988-1.692,1.432,1.432,0,0,1,1.766-.93,1.369,1.369,0,0,1,.988,1.693" transform="translate(-155.767 -31.363)" fill="#1a2e35"/>
        <path id="Trazado_168742" data-name="Trazado 168742" d="M391.509,77.7c-.227.12-1-.985-2.461-1.471-1.452-.506-2.775-.115-2.874-.347-.051-.105.227-.367.808-.55a3.923,3.923,0,0,1,2.374.059,3.767,3.767,0,0,1,1.884,1.391c.333.5.378.866.268.917" transform="translate(-155.257 -30.226)" fill="#1a2e35"/>
        <path id="Trazado_168743" data-name="Trazado 168743" d="M366.255,71.7a1.431,1.431,0,0,1-1.767.929,1.369,1.369,0,0,1-.988-1.692,1.431,1.431,0,0,1,1.766-.93,1.369,1.369,0,0,1,.988,1.693" transform="translate(-146.121 -28.125)" fill="#1a2e35"/>
        <path id="Trazado_168744" data-name="Trazado 168744" d="M367.365,70.105c-.228.12-1-.985-2.461-1.471-1.452-.506-2.775-.115-2.874-.347-.051-.1.226-.367.808-.55a3.925,3.925,0,0,1,2.373.059,3.773,3.773,0,0,1,1.885,1.392c.332.495.377.866.268.917" transform="translate(-145.549 -27.171)" fill="#1a2e35"/>
        <path id="Trazado_168745" data-name="Trazado 168745" d="M373.738,84.55a10.183,10.183,0,0,1,2.514.368c.386.086.763.131.911-.1a2,2,0,0,0,.122-1.188q-.071-1.529-.149-3.208c-.174-4.554-.167-8.248.017-8.254s.474,3.682.648,8.236q.051,1.68.1,3.209a2.277,2.277,0,0,1-.3,1.527.988.988,0,0,1-.8.34,2.724,2.724,0,0,1-.663-.124,10.019,10.019,0,0,1-2.4-.8" transform="translate(-150.259 -29.014)" fill="#1a2e35"/>
        <path id="Trazado_168746" data-name="Trazado 168746" d="M365.546,92.15c.242.066-.287,1.651.692,3.231s2.723,1.971,2.661,2.2c-.011.107-.479.181-1.2-.038a4.162,4.162,0,0,1-2.252-1.745,3.625,3.625,0,0,1-.478-2.675c.162-.682.471-1.015.576-.97" transform="translate(-146.701 -37.047)" fill="#1a2e35"/>
        <path id="Trazado_168747" data-name="Trazado 168747" d="M392.355,73.076c-.368.245-1.258-.436-2.462-.858-1.188-.465-2.307-.527-2.427-.953-.047-.2.226-.481.779-.645a3.773,3.773,0,0,1,3.939,1.459c.313.484.338.872.171,1" transform="translate(-155.776 -28.347)" fill="#1a2e35"/>
        <path id="Trazado_168748" data-name="Trazado 168748" d="M366.97,59.815c-.224.123-.573-.074-1.027-.332a9.622,9.622,0,0,0-3.577-1.333c-.512-.1-.905-.181-.994-.42-.085-.22.2-.591.844-.837a4.042,4.042,0,0,1,4.662,1.737c.329.611.3,1.075.091,1.186" transform="translate(-145.281 -22.793)" fill="#1a2e35"/>
        <path id="Trazado_168749" data-name="Trazado 168749" d="M378.166,53.733a23.521,23.521,0,0,1-13.617-5.354c-4.294-3.516-9.671-5.978-11.136-5.287s-2.86,5.621-7.988,5.989c0,0-1.831,9.595-5.55,8.394s2-15.408,2-15.408L352.19,39.64l10.568.386,9.493,2.154,8.21,4.716Z" transform="translate(-136.139 -15.937)" fill="#1a2e35"/>
        <rect id="Rectángulo_43369" data-name="Rectángulo 43369" width="134.258" height="209.067" transform="translate(54.495 0.156)" fill="#fafafa"/>
        <path id="Trazado_168750" data-name="Trazado 168750" d="M225.288,209.223c0-1.287-.059-86.192-.143-209.067l.143.143L91.046.312H91.03l.155-.155c-.012,79.092-.023,151.929-.032,209.067l-.123-.123,134.258.123-134.258.123h-.123v-.123C90.9,152.086,90.887,79.248,90.874.156V0h.172L225.288.013h.144V.156c-.084,122.874-.143,207.78-.144,209.067" transform="translate(-36.535)" fill="#1a2e35"/>
        <path id="Trazado_168751" data-name="Trazado 168751" d="M138.313,59.24H121.134a2.149,2.149,0,0,1-2.149-2.15V33.314a2.149,2.149,0,0,1,2.149-2.15h10.895l8.434,8.692V57.09a2.15,2.15,0,0,1-2.15,2.15" transform="translate(-47.837 -12.529)" fill="#ff004c"/>
        <path id="Trazado_168752" data-name="Trazado 168752" d="M140.8,31.164v6.692a2,2,0,0,0,2,2h6.435Z" transform="translate(-56.607 -12.529)" fill="#ff4f5b"/>
        <g id="Grupo_118810" data-name="Grupo 118810" transform="translate(84.279 25.914)" opacity="0.2">
          <g id="Grupo_118809" data-name="Grupo 118809">
            <g id="Grupo_118808" data-name="Grupo 118808" clip-path="url(#clip-path-5)">
              <path id="Trazado_168753" data-name="Trazado 168753" d="M140.946,43.337a2.223,2.223,0,0,0,1.763,2.157,2.122,2.122,0,0,0,.212.047c.84.15,6.371,1.134,6.371,1.007v-1.8h-6.435s-1.607-.055-1.911-1.413" transform="translate(-140.945 -43.337)"/>
            </g>
          </g>
        </g>
        <g id="Grupo_118813" data-name="Grupo 118813" transform="translate(84.192 18.635)" opacity="0.3">
          <g id="Grupo_118812" data-name="Grupo 118812">
            <g id="Grupo_118811" data-name="Grupo 118811" clip-path="url(#clip-path-6)">
              <path id="Trazado_168754" data-name="Trazado 168754" d="M140.8,31.164v6.692a2,2,0,0,0,2,2h6.435Z" transform="translate(-140.799 -31.164)" fill="#fff"/>
            </g>
          </g>
        </g>
        <path id="Trazado_168755" data-name="Trazado 168755" d="M133.046,41.793a25.487,25.487,0,0,1-3.973.155,25.492,25.492,0,0,1-3.974-.155,25.492,25.492,0,0,1,3.974-.155,25.488,25.488,0,0,1,3.973.155" transform="translate(-50.295 -16.74)" fill="#fafafa"/>
        <path id="Trazado_168756" data-name="Trazado 168756" d="M138.179,48.12c0,.086-2.928.155-6.54.155s-6.54-.069-6.54-.155,2.928-.155,6.54-.155,6.54.069,6.54.155" transform="translate(-50.295 -19.284)" fill="#fafafa"/>
        <path id="Trazado_168757" data-name="Trazado 168757" d="M139.357,53.4c0,.086-3.192.155-7.129.155s-7.129-.069-7.129-.155,3.191-.155,7.129-.155,7.129.069,7.129.155" transform="translate(-50.295 -21.408)" fill="#fafafa"/>
        <path id="Trazado_168758" data-name="Trazado 168758" d="M139.357,58.389c0,.086-3.192.155-7.129.155s-7.129-.069-7.129-.155,3.191-.155,7.129-.155,7.129.069,7.129.155" transform="translate(-50.295 -23.413)" fill="#fafafa"/>
        <path id="Trazado_168759" data-name="Trazado 168759" d="M139.357,63.374c0,.086-3.192.155-7.129.155s-7.129-.069-7.129-.155,3.191-.155,7.129-.155,7.129.069,7.129.155" transform="translate(-50.295 -25.417)" fill="#fafafa"/>
        <path id="Trazado_168760" data-name="Trazado 168760" d="M139.357,68.359c0,.086-3.192.155-7.129.155s-7.129-.069-7.129-.155,3.191-.155,7.129-.155,7.129.069,7.129.155" transform="translate(-50.295 -27.421)" fill="#fafafa"/>
        <path id="Trazado_168761" data-name="Trazado 168761" d="M163.736,51.157h-1.811V50.5h4.369v.657h-1.811v4.625h-.747Z" transform="translate(-65.101 -20.303)" fill="#1a2e35"/>
        <path id="Trazado_168762" data-name="Trazado 168762" d="M174.441,55.126v.657h-3.833V50.5h3.727v.657h-2.972v1.622h2.648v.642h-2.648v1.705Z" transform="translate(-68.592 -20.303)" fill="#1a2e35"/>
        <path id="Trazado_168763" data-name="Trazado 168763" d="M182.6,55.783l-1.14-1.622c-.105.007-.218.014-.332.014h-1.305v1.607h-.755V50.5h2.06c1.374,0,2.2.694,2.2,1.841a1.667,1.667,0,0,1-1.162,1.668l1.253,1.773Zm-.023-3.441c0-.755-.506-1.185-1.472-1.185h-1.283v2.377H181.1c.966,0,1.472-.438,1.472-1.192" transform="translate(-71.991 -20.304)" fill="#1a2e35"/>
        <path id="Trazado_168764" data-name="Trazado 168764" d="M193.138,55.783l-.008-3.848-1.909,3.207h-.347l-1.909-3.184v3.826h-.724V50.5h.618l2.2,3.712,2.173-3.712h.619l.007,5.282Z" transform="translate(-75.681 -20.304)" fill="#1a2e35"/>
        <path id="Trazado_168765" data-name="Trazado 168765" d="M199.487,55.139l.279-.588a2.721,2.721,0,0,0,1.743.611c.913,0,1.305-.355,1.305-.815,0-1.29-3.2-.475-3.2-2.437,0-.815.634-1.509,2.022-1.509a3.113,3.113,0,0,1,1.7.468l-.249.6a2.729,2.729,0,0,0-1.449-.43c-.9,0-1.283.377-1.283.837,0,1.29,3.2.483,3.2,2.422,0,.807-.649,1.5-2.044,1.5a3.134,3.134,0,0,1-2.022-.664" transform="translate(-80.202 -20.263)" fill="#1a2e35"/>
        <path id="Trazado_168766" data-name="Trazado 168766" d="M210.808,53.1a2.809,2.809,0,1,1,2.815,2.7,2.685,2.685,0,0,1-2.815-2.7m4.86,0a2.053,2.053,0,1,0-2.045,2.03,1.983,1.983,0,0,0,2.045-2.03" transform="translate(-84.754 -20.263)" fill="#1a2e35"/>
        <path id="Trazado_168767" data-name="Trazado 168767" d="M222.885,51.157V53h2.649v.649h-2.649v2.135h-.755V50.5h3.728v.657Z" transform="translate(-89.306 -20.303)" fill="#1a2e35"/>
        <path id="Trazado_168768" data-name="Trazado 168768" d="M232.733,55.139l.279-.588a2.721,2.721,0,0,0,1.743.611c.912,0,1.3-.355,1.3-.815,0-1.29-3.2-.475-3.2-2.437,0-.815.634-1.509,2.023-1.509a3.113,3.113,0,0,1,1.7.468l-.249.6a2.731,2.731,0,0,0-1.449-.43c-.9,0-1.283.377-1.283.837,0,1.29,3.2.483,3.2,2.422,0,.807-.649,1.5-2.045,1.5a3.134,3.134,0,0,1-2.022-.664" transform="translate(-93.569 -20.263)" fill="#1a2e35"/>
        <path id="Trazado_168769" data-name="Trazado 168769" d="M245.211,55.126v.657h-3.833V50.5h3.727v.657h-2.972v1.622h2.648v.642h-2.648v1.705Z" transform="translate(-97.045 -20.303)" fill="#1a2e35"/>
        <path id="Trazado_168770" data-name="Trazado 168770" d="M253.366,55.783l-1.139-1.622c-.106.007-.219.014-.332.014h-1.3v1.607h-.755V50.5h2.059c1.374,0,2.2.694,2.2,1.841a1.667,1.667,0,0,1-1.162,1.668l1.253,1.773Zm-.023-3.441c0-.755-.505-1.185-1.471-1.185H250.59v2.377h1.283c.966,0,1.471-.438,1.471-1.192" transform="translate(-100.444 -20.304)" fill="#1a2e35"/>
        <path id="Trazado_168771" data-name="Trazado 168771" d="M263.06,50.5l-2.316,5.282H260L257.673,50.5h.815l1.9,4.339,1.916-4.339Z" transform="translate(-103.596 -20.303)" fill="#1a2e35"/>
        <rect id="Rectángulo_43372" data-name="Rectángulo 43372" width="0.755" height="5.282" transform="translate(160.138 30.197)" fill="#1a2e35"/>
        <path id="Trazado_168772" data-name="Trazado 168772" d="M271,53.1a2.672,2.672,0,0,1,2.8-2.7,2.609,2.609,0,0,1,2.007.823l-.49.475a1.96,1.96,0,0,0-1.487-.627,2.031,2.031,0,1,0,0,4.06,1.966,1.966,0,0,0,1.487-.634l.49.475a2.62,2.62,0,0,1-2.015.831A2.67,2.67,0,0,1,271,53.1" transform="translate(-108.954 -20.263)" fill="#1a2e35"/>
        <path id="Trazado_168773" data-name="Trazado 168773" d="M284.68,55.126v.657h-3.833V50.5h3.727v.657H281.6v1.622h2.648v.642H281.6v1.705Z" transform="translate(-112.913 -20.303)" fill="#1a2e35"/>
        <path id="Trazado_168774" data-name="Trazado 168774" d="M168.582,68.411l-1.407,4.209h-.631l-1.149-3.361-1.149,3.361H163.6L162.2,68.411h.619l1.137,3.422,1.185-3.422h.553l1.161,3.439,1.16-3.439Z" transform="translate(-65.21 -27.504)" fill="#e1e1e1"/>
        <path id="Trazado_168775" data-name="Trazado 168775" d="M176.232,71.887h-2.586a1.079,1.079,0,0,0,1.155.932,1.19,1.19,0,0,0,.92-.384l.319.373a1.737,1.737,0,0,1-2.97-1.112,1.561,1.561,0,0,1,1.6-1.623,1.536,1.536,0,0,1,1.575,1.641c0,.048-.006.12-.012.175m-2.586-.415h2.044a1.029,1.029,0,0,0-2.044,0" transform="translate(-69.581 -28.172)" fill="#e1e1e1"/>
        <rect id="Rectángulo_43373" data-name="Rectángulo 43373" width="0.577" height="4.461" transform="translate(107.463 40.654)" fill="#e1e1e1"/>
        <path id="Trazado_168776" data-name="Trazado 168776" d="M182.031,71.694a1.592,1.592,0,0,1,1.683-1.623,1.421,1.421,0,0,1,1.3.679l-.439.282a.993.993,0,0,0-.865-.457,1.122,1.122,0,0,0,0,2.243.992.992,0,0,0,.865-.457l.439.277a1.425,1.425,0,0,1-1.3.685,1.6,1.6,0,0,1-1.683-1.629" transform="translate(-73.184 -28.172)" fill="#e1e1e1"/>
        <path id="Trazado_168777" data-name="Trazado 168777" d="M187.694,71.694a1.657,1.657,0,1,1,1.659,1.629,1.585,1.585,0,0,1-1.659-1.629m2.73,0a1.074,1.074,0,1,0-1.07,1.124,1.046,1.046,0,0,0,1.07-1.124" transform="translate(-75.461 -28.172)" fill="#e1e1e1"/>
        <path id="Trazado_168778" data-name="Trazado 168778" d="M199.865,71.453v1.834h-.577V71.519c0-.625-.3-.932-.824-.932a.925.925,0,0,0-.956,1.058v1.641h-.577V71.519c0-.625-.3-.932-.824-.932a.925.925,0,0,0-.956,1.058v1.641h-.577V70.1h.553v.475a1.292,1.292,0,0,1,1.1-.505,1.18,1.18,0,0,1,1.107.59,1.434,1.434,0,0,1,1.226-.59,1.222,1.222,0,0,1,1.3,1.383" transform="translate(-78.227 -28.171)" fill="#e1e1e1"/>
        <path id="Trazado_168779" data-name="Trazado 168779" d="M207.906,71.887H205.32a1.079,1.079,0,0,0,1.155.932,1.189,1.189,0,0,0,.92-.384l.319.373a1.737,1.737,0,0,1-2.97-1.112,1.56,1.56,0,0,1,1.6-1.623,1.537,1.537,0,0,1,1.576,1.641c0,.048-.006.12-.012.175m-2.586-.415h2.044a1.029,1.029,0,0,0-2.044,0" transform="translate(-82.316 -28.172)" fill="#e1e1e1"/>
        <path id="Trazado_168780" data-name="Trazado 168780" d="M211.17,72.271a.383.383,0,0,1,.4-.385.385.385,0,1,1,0,.77.386.386,0,0,1-.4-.385m.054-3.86h.68l-.114,2.88h-.457Z" transform="translate(-84.899 -27.504)" fill="#e1e1e1"/>
        <path id="Trazado_168781" data-name="Trazado 168781" d="M300.244,197.322h-.7a.8.8,0,0,1-.8-.8V22.577a.8.8,0,0,1,.8-.8h.7a.8.8,0,0,1,.8.8V196.527a.8.8,0,0,1-.8.8" transform="translate(-120.108 -8.757)" fill="#687687"/>
        <path id="Trazado_168782" data-name="Trazado 168782" d="M300.244,112.28h-.7a.8.8,0,0,1-.8-.8V22.577a.8.8,0,0,1,.8-.8h.7a.8.8,0,0,1,.8.8v88.907a.8.8,0,0,1-.8.8" transform="translate(-120.108 -8.757)" fill="#ff004c"/>
        <path id="Trazado_168783" data-name="Trazado 168783" d="M125.239,109.408v4.209h-.595v-3.686h-.95v-.523Z" transform="translate(-49.73 -43.987)" fill="#1a2e35"/>
        <path id="Trazado_168784" data-name="Trazado 168784" d="M127.8,115.539a.4.4,0,0,1,.409-.409.4.4,0,0,1,.4.409.4.4,0,0,1-.4.415.407.407,0,0,1-.409-.415" transform="translate(-51.38 -46.287)" fill="#1a2e35"/>
        <path id="Trazado_168785" data-name="Trazado 168785" d="M133.807,109.932h-1.443v-.523h3.482v.523H134.4v3.686h-.6Z" transform="translate(-53.216 -43.987)" fill="#1a2e35"/>
        <path id="Trazado_168786" data-name="Trazado 168786" d="M141.261,112.884h-2.586a1.079,1.079,0,0,0,1.155.932,1.19,1.19,0,0,0,.92-.385l.319.373a1.737,1.737,0,0,1-2.97-1.112,1.56,1.56,0,0,1,1.6-1.623,1.537,1.537,0,0,1,1.576,1.641c0,.048-.006.12-.012.175m-2.586-.415h2.044a1.029,1.029,0,0,0-2.044,0" transform="translate(-55.521 -44.654)" fill="#1a2e35"/>
        <path id="Trazado_168787" data-name="Trazado 168787" d="M146.46,111.068v.56a.936.936,0,0,0-.132-.007.951.951,0,0,0-1,1.076v1.588h-.578V111.1h.554v.535a1.216,1.216,0,0,1,1.16-.565" transform="translate(-58.194 -44.654)" fill="#1a2e35"/>
        <path id="Trazado_168788" data-name="Trazado 168788" d="M154.09,112.451v1.834h-.577v-1.768c0-.625-.3-.932-.824-.932a.925.925,0,0,0-.956,1.058v1.641h-.577v-1.768c0-.625-.3-.932-.824-.932a.925.925,0,0,0-.956,1.058v1.641H148.8V111.1h.553v.475a1.292,1.292,0,0,1,1.1-.505,1.18,1.18,0,0,1,1.107.59,1.435,1.435,0,0,1,1.226-.59,1.222,1.222,0,0,1,1.3,1.383" transform="translate(-59.824 -44.654)" fill="#1a2e35"/>
        <path id="Trazado_168789" data-name="Trazado 168789" d="M126.918,222.292v.523h-3.024v-.409l1.714-1.653c.445-.433.529-.7.529-.962,0-.433-.306-.7-.9-.7a1.321,1.321,0,0,0-1.076.457l-.409-.355a1.939,1.939,0,0,1,1.539-.637c.878,0,1.443.451,1.443,1.173a1.706,1.706,0,0,1-.691,1.323l-1.287,1.238Z" transform="translate(-49.755 -87.87)" fill="#1a2e35"/>
        <path id="Trazado_168790" data-name="Trazado 168790" d="M129.95,224.769a.4.4,0,0,1,.409-.409.4.4,0,0,1,.4.409.4.4,0,0,1-.4.415.407.407,0,0,1-.409-.415" transform="translate(-52.246 -90.202)" fill="#1a2e35"/>
        <path id="Trazado_168791" data-name="Trazado 168791" d="M135.532,218.638h.6v3.686h2.279v.523h-2.88Z" transform="translate(-54.49 -87.902)" fill="#1a2e35"/>
        <path id="Trazado_168792" data-name="Trazado 168792" d="M141.2,218.444a.38.38,0,0,1,.391-.379.376.376,0,1,1-.391.379m.1.986h.577v3.187H141.3Z" transform="translate(-56.766 -87.672)" fill="#1a2e35"/>
        <path id="Trazado_168793" data-name="Trazado 168793" d="M143.68,221.92a1.591,1.591,0,0,1,1.683-1.623,1.422,1.422,0,0,1,1.3.68l-.439.283a.991.991,0,0,0-.865-.457,1.122,1.122,0,0,0,0,2.243.991.991,0,0,0,.865-.457l.439.277a1.427,1.427,0,0,1-1.3.686,1.6,1.6,0,0,1-1.683-1.63" transform="translate(-57.766 -88.569)" fill="#1a2e35"/>
        <path id="Trazado_168794" data-name="Trazado 168794" d="M152.5,222.113h-2.586a1.08,1.08,0,0,0,1.155.932,1.188,1.188,0,0,0,.92-.385l.319.373a1.736,1.736,0,0,1-2.97-1.112,1.561,1.561,0,0,1,1.6-1.623,1.537,1.537,0,0,1,1.575,1.641c0,.048-.006.121-.012.175m-2.586-.415h2.044a1.029,1.029,0,0,0-2.044,0" transform="translate(-60.042 -88.569)" fill="#1a2e35"/>
        <path id="Trazado_168795" data-name="Trazado 168795" d="M159.015,221.68v1.834h-.577v-1.768c0-.625-.313-.932-.86-.932a.946.946,0,0,0-1.011,1.058v1.641h-.577v-3.187h.553v.481a1.366,1.366,0,0,1,1.149-.511,1.235,1.235,0,0,1,1.323,1.383" transform="translate(-62.715 -88.569)" fill="#1a2e35"/>
        <path id="Trazado_168796" data-name="Trazado 168796" d="M162.378,221.92a1.592,1.592,0,0,1,1.683-1.623,1.421,1.421,0,0,1,1.3.68l-.439.283a.991.991,0,0,0-.865-.457,1.122,1.122,0,0,0,0,2.243.991.991,0,0,0,.865-.457l.439.277a1.426,1.426,0,0,1-1.3.686,1.6,1.6,0,0,1-1.683-1.63" transform="translate(-65.283 -88.569)" fill="#1a2e35"/>
        <path id="Trazado_168797" data-name="Trazado 168797" d="M171.2,222.113h-2.586a1.08,1.08,0,0,0,1.155.932,1.188,1.188,0,0,0,.92-.385l.319.373a1.736,1.736,0,0,1-2.97-1.112,1.561,1.561,0,0,1,1.6-1.623,1.537,1.537,0,0,1,1.575,1.641c0,.048-.006.121-.012.175m-2.586-.415h2.044a1.029,1.029,0,0,0-2.044,0" transform="translate(-67.56 -88.569)" fill="#1a2e35"/>
        <path id="Trazado_168798" data-name="Trazado 168798" d="M215.788,132.174c0,.086-20.635.155-46.085.155s-46.089-.069-46.089-.155,20.631-.155,46.089-.155,46.085.069,46.085.155" transform="translate(-49.698 -53.077)" fill="#1a2e35"/>
        <path id="Trazado_168799" data-name="Trazado 168799" d="M215.788,143.839c0,.086-20.635.155-46.085.155s-46.089-.069-46.089-.155,20.631-.155,46.089-.155,46.085.069,46.085.155" transform="translate(-49.698 -57.767)" fill="#1a2e35"/>
        <path id="Trazado_168800" data-name="Trazado 168800" d="M215.788,155.5c0,.086-20.635.155-46.085.155s-46.089-.069-46.089-.155,20.631-.155,46.089-.155,46.085.069,46.085.155" transform="translate(-49.698 -62.457)" fill="#1a2e35"/>
        <path id="Trazado_168801" data-name="Trazado 168801" d="M215.788,167.17c0,.086-20.635.155-46.085.155s-46.089-.069-46.089-.155,20.631-.155,46.089-.155,46.085.069,46.085.155" transform="translate(-49.698 -67.147)" fill="#1a2e35"/>
        <path id="Trazado_168802" data-name="Trazado 168802" d="M215.788,178.835c0,.086-20.635.155-46.085.155s-46.089-.069-46.089-.155,20.631-.155,46.089-.155,46.085.069,46.085.155" transform="translate(-49.698 -71.837)" fill="#1a2e35"/>
        <path id="Trazado_168803" data-name="Trazado 168803" d="M215.788,190.5c0,.086-20.635.155-46.085.155s-46.089-.069-46.089-.155,20.631-.155,46.089-.155,46.085.069,46.085.155" transform="translate(-49.698 -76.527)" fill="#1a2e35"/>
        <path id="Trazado_168804" data-name="Trazado 168804" d="M215.788,234.81c0,.086-20.635.155-46.085.155s-46.089-.069-46.089-.155,20.631-.155,46.089-.155,46.085.069,46.085.155" transform="translate(-49.698 -94.341)" fill="#1a2e35"/>
        <path id="Trazado_168805" data-name="Trazado 168805" d="M215.788,244.786c0,.086-20.635.155-46.085.155s-46.089-.069-46.089-.155,20.631-.155,46.089-.155,46.085.069,46.085.155" transform="translate(-49.698 -98.352)" fill="#e1e1e1"/>
        <path id="Trazado_168806" data-name="Trazado 168806" d="M215.788,254.762c0,.086-20.635.155-46.085.155s-46.089-.069-46.089-.155,20.631-.155,46.089-.155,46.085.069,46.085.155" transform="translate(-49.698 -102.363)" fill="#ececec"/>
        <rect id="Rectángulo_43374" data-name="Rectángulo 43374" width="48.76" height="18.165" transform="translate(124.057 170.249)" fill="#ff004c"/>
        <path id="Trazado_168807" data-name="Trazado 168807" d="M232.237,299.2h-2.4l-.5,1.129h-.664l2.045-4.516h.638l2.052,4.516h-.677Zm-.226-.516-.974-2.212-.974,2.212Z" transform="translate(-91.938 -118.93)" fill="#fff"/>
        <path id="Trazado_168808" data-name="Trazado 168808" d="M236.979,299.336a1.708,1.708,0,0,1,1.806-1.742,1.526,1.526,0,0,1,1.394.729l-.471.3a1.065,1.065,0,0,0-.929-.49,1.2,1.2,0,0,0,0,2.406,1.065,1.065,0,0,0,.929-.49l.471.3a1.531,1.531,0,0,1-1.394.735,1.713,1.713,0,0,1-1.806-1.748" transform="translate(-95.276 -119.646)" fill="#fff"/>
        <path id="Trazado_168809" data-name="Trazado 168809" d="M243.049,299.336a1.708,1.708,0,0,1,1.806-1.742,1.525,1.525,0,0,1,1.393.729l-.471.3a1.067,1.067,0,0,0-.929-.49,1.2,1.2,0,0,0,0,2.406,1.067,1.067,0,0,0,.929-.49l.471.3a1.53,1.53,0,0,1-1.393.735,1.713,1.713,0,0,1-1.806-1.748" transform="translate(-97.716 -119.646)" fill="#fff"/>
        <path id="Trazado_168810" data-name="Trazado 168810" d="M252.514,299.542H249.74a1.158,1.158,0,0,0,1.238,1,1.28,1.28,0,0,0,.987-.413l.341.4a1.864,1.864,0,0,1-3.187-1.194,1.674,1.674,0,0,1,1.716-1.742,1.649,1.649,0,0,1,1.69,1.762c0,.051-.007.129-.012.187m-2.775-.445h2.193a1.1,1.1,0,0,0-2.193,0" transform="translate(-100.157 -119.646)" fill="#fff"/>
        <path id="Trazado_168811" data-name="Trazado 168811" d="M259.789,299.336a1.661,1.661,0,0,1-1.729,1.748,1.46,1.46,0,0,1-1.193-.555V302.3h-.619v-4.67h.594v.542a1.455,1.455,0,0,1,1.219-.574,1.66,1.66,0,0,1,1.729,1.742m-.626,0a1.153,1.153,0,1,0-1.155,1.206,1.13,1.13,0,0,0,1.155-1.206" transform="translate(-103.022 -119.646)" fill="#fff"/>
        <path id="Trazado_168812" data-name="Trazado 168812" d="M265.194,300.364a1.165,1.165,0,0,1-.748.238.975.975,0,0,1-1.083-1.07v-1.877h-.581v-.51h.581V296.4h.619v.748h.981v.51h-.981v1.851a.5.5,0,0,0,.535.575.779.779,0,0,0,.484-.161Z" transform="translate(-105.65 -119.164)" fill="#fff"/>
        <path id="Trazado_168813" data-name="Trazado 168813" d="M118.47,301.987a.7.7,0,0,1-.117-.081l-.351-.269-1.45-1.14-.057-.044.068-.026c5.883-2.256,25.074-9.454,48.72-18.272l.083-.031.069.055,1.892,1.521.058.047v.075c0,1.6,0,3.3,0,5.014,0,4.522,0,8.93,0,13.151v.152h-.152l-34.863-.056-10.217-.045-2.738-.025-.706-.013c-.158,0-.237-.013-.237-.013s.085-.009.246-.013l.715-.013,2.752-.025,10.232-.045,34.815-.057-.152.152c0-4.22,0-8.629,0-13.151,0-1.717,0-3.419,0-5.014l.058.121-1.891-1.522.151.024c-23.652,8.8-42.874,15.916-48.8,18.059l.011-.071,1.415,1.165.341.288a.838.838,0,0,1,.109.1" transform="translate(-46.836 -113.426)" fill="#ff4f5b"/>
        <rect id="Rectángulo_43375" data-name="Rectángulo 43375" width="48.76" height="18.165" transform="translate(69.743 168.874)" fill="#fff"/>
        <path id="Trazado_168814" data-name="Trazado 168814" d="M165.29,300.478s-.007-.114-.011-.327-.007-.535-.011-.94c-.006-.834-.015-2.044-.026-3.6-.014-3.131-.033-7.659-.058-13.295l.106.106-48.757.05h0l.155-.155c0,6.341,0,12.475-.006,18.165l-.149-.15,34.9.071,10.169.042,2.731.019.71.009c.16,0,.247.01.247.01s-.074.006-.228.01l-.692.009-2.7.019-10.135.042-35,.071h-.15v-.15c0-5.691,0-11.825-.006-18.165v-.156h.159l48.757.05h.106v.106c-.025,5.664-.044,10.213-.058,13.359-.011,1.549-.02,2.752-.026,3.58,0,.4-.008.7-.011.921s-.011.306-.011.306" transform="translate(-46.787 -113.439)" fill="#ff4f5b"/>
        <path id="Trazado_168815" data-name="Trazado 168815" d="M138.982,295.461h1.9a2.264,2.264,0,1,1,0,4.515h-1.9Zm1.864,3.954a1.7,1.7,0,1,0,0-3.393h-1.219v3.393Z" transform="translate(-55.877 -118.788)" fill="#ff4f5b"/>
        <path id="Trazado_168816" data-name="Trazado 168816" d="M150.6,299.189h-2.774a1.158,1.158,0,0,0,1.238,1,1.279,1.279,0,0,0,.987-.413l.341.4a1.864,1.864,0,0,1-3.186-1.194,1.675,1.675,0,0,1,1.716-1.742,1.649,1.649,0,0,1,1.69,1.762c0,.051-.007.129-.013.187m-2.774-.445h2.193a1.1,1.1,0,0,0-2.193,0" transform="translate(-59.184 -119.504)" fill="#ff4f5b"/>
        <path id="Trazado_168817" data-name="Trazado 168817" d="M153.808,298.983a1.708,1.708,0,0,1,1.806-1.742,1.524,1.524,0,0,1,1.393.729l-.471.3a1.065,1.065,0,0,0-.929-.49,1.2,1.2,0,0,0,0,2.406,1.065,1.065,0,0,0,.929-.49l.471.3a1.529,1.529,0,0,1-1.393.736,1.713,1.713,0,0,1-1.806-1.748" transform="translate(-61.837 -119.504)" fill="#ff4f5b"/>
        <rect id="Rectángulo_43376" data-name="Rectángulo 43376" width="0.619" height="4.787" transform="translate(95.923 176.401)" fill="#ff4f5b"/>
        <path id="Trazado_168818" data-name="Trazado 168818" d="M163.243,295.252a.408.408,0,0,1,.419-.406.4.4,0,1,1-.419.406m.109,1.058h.619v3.419h-.619Z" transform="translate(-65.631 -118.541)" fill="#ff4f5b"/>
        <path id="Trazado_168819" data-name="Trazado 168819" d="M169.68,298.724v1.967h-.619v-1.9c0-.671-.335-1-.923-1a1.015,1.015,0,0,0-1.084,1.135v1.761h-.619v-3.419h.593v.517a1.464,1.464,0,0,1,1.232-.549,1.325,1.325,0,0,1,1.419,1.484" transform="translate(-66.914 -119.503)" fill="#ff4f5b"/>
        <path id="Trazado_168820" data-name="Trazado 168820" d="M176.674,299.189H173.9a1.158,1.158,0,0,0,1.238,1,1.279,1.279,0,0,0,.987-.413l.341.4a1.864,1.864,0,0,1-3.187-1.194A1.675,1.675,0,0,1,175,297.241a1.649,1.649,0,0,1,1.69,1.762c0,.051-.007.129-.013.187m-2.774-.445h2.193a1.1,1.1,0,0,0-2.193,0" transform="translate(-69.666 -119.504)" fill="#ff4f5b"/>
        <line id="Línea_465" data-name="Línea 465" x2="1.892" y2="1.818" transform="translate(118.502 186.743)" fill="#fff"/>
        <path id="Trazado_168821" data-name="Trazado 168821" d="M200.066,314.115c-.06.062-.532-.295-1.054-.8s-.9-.959-.838-1.021.531.295,1.054.8.9.959.838,1.021" transform="translate(-79.672 -125.554)" fill="#ff4f5b"/>
        <path id="Trazado_168822" data-name="Trazado 168822" d="M299.823,292.808l6.961-3.352-3.824-11.309-8.408-1.948c-.785-.174-1.655-.385-2.629-.655a10.635,10.635,0,0,1-3.183-1.5,16.226,16.226,0,0,1-3.338-2.829c-.793-1.083-2.482-.679-2.478.523s2.12,4.236,5.89,6.381-2.895,3.182-5.315,3.6-9.842,2.076-10.282,2.919c-.646,1.235.589,2.18,3,1.7,2.436-.483,9.737-1.4,9.931-.121l-.023.035a5.241,5.241,0,0,0,.319,6.095c1.347,1.693,3.375,3.816,4.867,3.494a68.936,68.936,0,0,0,8.517-3.042" transform="translate(-109.776 -108.788)" fill="#c78976"/>
        <path id="Trazado_168823" data-name="Trazado 168823" d="M317.118,235.634l6.523,22.056L374.294,242.3a20.3,20.3,0,0,0,13.384-25.765l-12.42-38.642-26.971,6.7,14.8,35.747Z" transform="translate(-127.495 -71.52)" fill="#4c53b5"/>
        <path id="Trazado_168824" data-name="Trazado 168824" d="M375.3,251.351s-.082.033-.245.087l-.729.233-2.833.88-10.635,3.254-36.869,11.184-.137.042-.046-.136c-2.257-6.741-4.443-14.158-6.972-21.773l-.049-.148.147-.049,1.275-.424,44.706-14.845-.075.164c-3.567-8.673-6.49-15.779-8.525-20.727l-2.328-5.713-.6-1.5c-.133-.338-.194-.516-.194-.516s.083.168.228.5l.634,1.484c.554,1.315,1.359,3.233,2.392,5.687l8.624,20.686.05.123-.126.042L318.309,244.8l-1.275.424.1-.2c2.53,7.623,4.712,15.041,6.958,21.778l-.183-.094,36.9-11.078,10.659-3.172,2.847-.834.736-.209c.166-.045.252-.063.252-.063" transform="translate(-127.363 -80.958)" fill="#1a2e35"/>
        <path id="Trazado_168825" data-name="Trazado 168825" d="M403.161,255.313c-.048.027-.386-.558-1.063-1.4a13.721,13.721,0,0,0-6.906-4.581c-1.039-.3-1.709-.38-1.7-.435a1.438,1.438,0,0,1,.477.008,8.575,8.575,0,0,1,1.281.214,12.313,12.313,0,0,1,7.025,4.66,8.585,8.585,0,0,1,.7,1.1,1.41,1.41,0,0,1,.193.437" transform="translate(-158.2 -100.062)" fill="#1a2e35"/>
        <path id="Trazado_168826" data-name="Trazado 168826" d="M389.022,187.828a34.512,34.512,0,0,1,0-6.544,34.512,34.512,0,0,1,0,6.544" transform="translate(-156.341 -72.884)" fill="#fafafa"/>
        <path id="Trazado_168827" data-name="Trazado 168827" d="M404.855,188.825a35.386,35.386,0,0,1-1.9-6.359,35.518,35.518,0,0,1,1.9,6.359" transform="translate(-162 -73.359)" fill="#fafafa"/>
        <path id="Trazado_168828" data-name="Trazado 168828" d="M391.61,207.276a11.315,11.315,0,0,1-5.914-1.736c.041-.083,1.295.506,2.925.98s3,.664,2.99.756" transform="translate(-155.066 -82.633)" fill="#fafafa"/>
        <path id="Trazado_168829" data-name="Trazado 168829" d="M414.812,212.735a31.79,31.79,0,0,1,1.072-6.2,31.887,31.887,0,0,1-1.072,6.2" transform="translate(-166.764 -83.037)" fill="#fafafa"/>
        <path id="Trazado_168830" data-name="Trazado 168830" d="M406.135,226.715a33.522,33.522,0,0,1-2.685-5.873,33.522,33.522,0,0,1,2.685,5.873" transform="translate(-162.201 -88.788)" fill="#fafafa"/>
        <path id="Trazado_168831" data-name="Trazado 168831" d="M401.4,240.921a30.441,30.441,0,0,1-5.537-2.684,30.43,30.43,0,0,1,5.537,2.684" transform="translate(-159.154 -95.779)" fill="#fafafa"/>
        <path id="Trazado_168832" data-name="Trazado 168832" d="M425.187,239.521a137.56,137.56,0,0,1-2.335,5.459,15.916,15.916,0,0,1,2.335-5.459" transform="translate(-170 -96.297)" fill="#fafafa"/>
        <path id="Trazado_168833" data-name="Trazado 168833" d="M420.277,264.05a36.626,36.626,0,0,1-.663-6.713,36.634,36.634,0,0,1,.663,6.713" transform="translate(-168.689 -103.461)" fill="#fafafa"/>
        <path id="Trazado_168834" data-name="Trazado 168834" d="M402.414,274.928a30.633,30.633,0,0,1-4.546-4.177,30.629,30.629,0,0,1,4.546,4.177" transform="translate(-159.959 -108.852)" fill="#fafafa"/>
        <path id="Trazado_168835" data-name="Trazado 168835" d="M376.435,280.37a35.137,35.137,0,0,1-3.912,5.331,35.252,35.252,0,0,1,3.912-5.331" transform="translate(-149.769 -112.72)" fill="#fafafa"/>
        <path id="Trazado_168836" data-name="Trazado 168836" d="M384.508,264.833a15.666,15.666,0,0,1-4.363-4.7c.073-.053.964,1.072,2.167,2.363s2.254,2.267,2.2,2.336" transform="translate(-152.833 -104.585)" fill="#fafafa"/>
        <path id="Trazado_168837" data-name="Trazado 168837" d="M364.363,270.566a6.187,6.187,0,0,1-4.7-.342c.031-.088,1.045.237,2.338.325s2.343-.075,2.36.017" transform="translate(-144.6 -108.636)" fill="#fafafa"/>
        <path id="Trazado_168838" data-name="Trazado 168838" d="M354.3,289.191a22.333,22.333,0,0,1-.891-5.193,22.332,22.332,0,0,1,.891,5.193" transform="translate(-142.076 -114.179)" fill="#fafafa"/>
        <path id="Trazado_168839" data-name="Trazado 168839" d="M336.1,297.737a38.732,38.732,0,0,1-5.866-3.7,38.732,38.732,0,0,1,5.866,3.7" transform="translate(-132.767 -118.213)" fill="#fafafa"/>
        <path id="Trazado_168840" data-name="Trazado 168840" d="M342.979,273.6c.066.061-.8,1.088-1.768,2.428s-1.677,2.482-1.756,2.438a14.313,14.313,0,0,1,3.524-4.866" transform="translate(-136.473 -109.999)" fill="#fafafa"/>
        <path id="Trazado_168841" data-name="Trazado 168841" d="M331.59,277.52a11.384,11.384,0,0,1-3.356-1.678,11.382,11.382,0,0,1,3.356,1.678" transform="translate(-131.964 -110.896)" fill="#fafafa"/>
        <g id="Grupo_118816" data-name="Grupo 118816" transform="translate(235.169 147.521)" opacity="0.2">
          <g id="Grupo_118815" data-name="Grupo 118815">
            <g id="Grupo_118814" data-name="Grupo 118814" clip-path="url(#clip-path-7)">
              <path id="Trazado_168842" data-name="Trazado 168842" d="M393.287,247.1c2.706.279,5.413.557,8.113.9a9.961,9.961,0,0,1,2.748.622,3.491,3.491,0,0,1,1.964,1.921,2.15,2.15,0,0,1-.75,2.5,2.5,2.5,0,0,1-2.452-.105,13.111,13.111,0,0,1-2.018-1.586,11.216,11.216,0,0,0-4.152-2.171,7.148,7.148,0,0,1-1.983-.7,1.712,1.712,0,0,1-.86-1.774" transform="translate(-393.287 -246.709)"/>
            </g>
          </g>
        </g>
      </g>
    </g>
  </g>
</svg>
