<svg xmlns="http://www.w3.org/2000/svg" xmlns:xlink="http://www.w3.org/1999/xlink" width="104" height="104" viewBox="0 0 104 104">
  <defs>
    <clipPath id="clip-path">
      <rect id="Rectángulo_43261" data-name="Rectángulo 43261" width="59.225" height="60.468" fill="none"/>
    </clipPath>
  </defs>
  <g id="Grupo_129706" data-name="Grupo 129706" transform="translate(-747 -3288.599)">
    <g id="Elipse_7124" data-name="Elipse 7124" transform="translate(747 3288.599)" fill="#fff" stroke="#2631a0" stroke-width="4">
      <circle cx="52" cy="52" r="52" stroke="none"/>
      <circle cx="52" cy="52" r="50" fill="none"/>
    </g>
    <g id="Grupo_118703" data-name="Grupo 118703" transform="translate(769.387 3310.365)">
      <g id="Grupo_118702" data-name="Grupo 118702" transform="translate(0 0)" clip-path="url(#clip-path)">
        <path id="Trazado_167742" data-name="Trazado 167742" d="M57.309.7H1.543A.844.844,0,0,0,.7,1.543V58.551a.844.844,0,0,0,.843.843H57.309a.843.843,0,0,0,.843-.843V1.543A.843.843,0,0,0,57.309.7" transform="translate(0.186 0.186)" fill="#fff"/>
        <path id="Trazado_167743" data-name="Trazado 167743" d="M46.762,1.544V58.552a.844.844,0,0,1-.845.843H43.452a.844.844,0,0,0,.843-.843V1.544A.844.844,0,0,0,43.452.7h2.466a.845.845,0,0,1,.845.845" transform="translate(11.576 0.186)" fill="#ebebeb"/>
        <path id="Trazado_167744" data-name="Trazado 167744" d="M.7,5.524H58.152V1.543A.844.844,0,0,0,57.309.7H1.543A.843.843,0,0,0,.7,1.543Z" transform="translate(0.186 0.186)" fill="#ff2f6d"/>
        <path id="Trazado_167745" data-name="Trazado 167745" d="M46.777,1.544v3.98H44.241V1.559A.843.843,0,0,0,43.4.717L45.933.7a.845.845,0,0,1,.845.845" transform="translate(11.562 0.186)" fill="#fd3581"/>
        <path id="Trazado_167746" data-name="Trazado 167746" d="M50.707,34.608H5.883a.936.936,0,0,1-.936-.935v-4.75a.935.935,0,0,1,.936-.935H50.707a.934.934,0,0,1,.935.935v4.75a.935.935,0,0,1-.935.935" transform="translate(1.318 7.456)" fill="#febf10"/>
        <path id="Trazado_167747" data-name="Trazado 167747" d="M42.531,28.923v4.75a.935.935,0,0,1-.935.935h-2.22a.935.935,0,0,0,.7-.905v-4.75a.935.935,0,0,0-.935-.935l2.453-.029a.935.935,0,0,1,.935.935" transform="translate(10.428 7.456)" fill="#fb8801"/>
        <rect id="Rectángulo_43259" data-name="Rectángulo 43259" width="11.466" height="11.466" rx="0.738" transform="translate(6.265 19.418)" fill="#c6c8e9"/>
        <rect id="Rectángulo_43260" data-name="Rectángulo 43260" width="11.466" height="11.466" rx="0.738" transform="translate(23.879 19.418)" fill="#c6c8e9"/>
        <path id="Trazado_167748" data-name="Trazado 167748" d="M43.3,26.8H33.7a.934.934,0,0,1-.935-.935v-9.6a.934.934,0,0,1,.935-.935h9.6a.934.934,0,0,1,.935.935v9.6a.934.934,0,0,1-.935.935" transform="translate(8.729 4.084)" fill="#c6c8e9"/>
        <path id="Trazado_167749" data-name="Trazado 167749" d="M14.7,16.268v9.6a.934.934,0,0,1-.935.935H11.4a.934.934,0,0,0,.935-.935v-9.6a.934.934,0,0,0-.935-.935h2.364A.934.934,0,0,1,14.7,16.268Z" transform="translate(3.036 4.084)" fill="#a6e7f0"/>
        <path id="Trazado_167750" data-name="Trazado 167750" d="M28.6,16.268v9.6a.934.934,0,0,1-.935.935H25.305a.934.934,0,0,0,.935-.935v-9.6a.934.934,0,0,0-.935-.935h2.364a.935.935,0,0,1,.935.935" transform="translate(6.742 4.084)" fill="#a6e7f0"/>
        <path id="Trazado_167751" data-name="Trazado 167751" d="M42.512,16.268v9.6a.934.934,0,0,1-.935.935H39.213a.934.934,0,0,0,.935-.935v-9.6a.934.934,0,0,0-.935-.935h2.364a.935.935,0,0,1,.935.935" transform="translate(10.447 4.084)" fill="#a6e7f0"/>
        <path id="Trazado_167752" data-name="Trazado 167752" d="M4.247,26.051a1.823,1.823,0,0,0,1.821,1.821h9.6a1.823,1.823,0,0,0,1.821-1.821v-9.6a1.823,1.823,0,0,0-1.821-1.821h-9.6a1.823,1.823,0,0,0-1.821,1.821Zm1.773-9.6a.048.048,0,0,1,.048-.048h9.6a.048.048,0,0,1,.048.048v9.6a.048.048,0,0,1-.048.048h-9.6a.048.048,0,0,1-.048-.048Z" transform="translate(1.131 3.898)"/>
        <path id="Trazado_167753" data-name="Trazado 167753" d="M18.156,26.051a1.823,1.823,0,0,0,1.821,1.821h9.6A1.823,1.823,0,0,0,31.4,26.051v-9.6a1.823,1.823,0,0,0-1.821-1.821h-9.6a1.823,1.823,0,0,0-1.821,1.821Zm1.773-9.6a.048.048,0,0,1,.048-.048h9.6a.048.048,0,0,1,.048.048v9.6a.048.048,0,0,1-.048.048h-9.6a.048.048,0,0,1-.048-.048Z" transform="translate(4.837 3.898)"/>
        <path id="Trazado_167754" data-name="Trazado 167754" d="M57.842.035A1.756,1.756,0,0,0,57.494,0H1.731A1.732,1.732,0,0,0,0,1.73V58.738a1.733,1.733,0,0,0,1.731,1.731H57.494a1.732,1.732,0,0,0,1.73-1.731V28.008a.886.886,0,1,0-1.772,0V58.695H1.774V6.6H57.452V23.91a.886.886,0,1,0,1.772,0V1.73A1.732,1.732,0,0,0,57.842.035m-.39,4.788H1.774V1.773H57.452Z" transform="translate(0 -0.001)"/>
        <path id="Trazado_167755" data-name="Trazado 167755" d="M5.133,10.214H16.6a.886.886,0,1,0,0-1.773H5.133a.886.886,0,0,0,0,1.773" transform="translate(1.131 2.248)"/>
        <path id="Trazado_167756" data-name="Trazado 167756" d="M5.133,13.058H9.98a.886.886,0,0,0,0-1.773H5.133a.886.886,0,0,0,0,1.773" transform="translate(1.131 3.006)"/>
        <path id="Trazado_167757" data-name="Trazado 167757" d="M19.041,10.214H30.508a.886.886,0,1,0,0-1.773H19.041a.886.886,0,0,0,0,1.773" transform="translate(4.837 2.248)"/>
        <path id="Trazado_167758" data-name="Trazado 167758" d="M19.041,13.058h4.847a.886.886,0,1,0,0-1.773H19.041a.886.886,0,0,0,0,1.773" transform="translate(4.837 3.006)"/>
        <path id="Trazado_167759" data-name="Trazado 167759" d="M44.417,8.441H32.951a.886.886,0,1,0,0,1.773H44.417a.886.886,0,0,0,0-1.773" transform="translate(8.542 2.248)"/>
        <path id="Trazado_167760" data-name="Trazado 167760" d="M37.8,13.058a.886.886,0,1,0,0-1.773H32.95a.886.886,0,0,0,0,1.773Z" transform="translate(8.542 3.006)"/>
        <path id="Trazado_167761" data-name="Trazado 167761" d="M45.3,16.454a1.823,1.823,0,0,0-1.821-1.821h-9.6a1.823,1.823,0,0,0-1.821,1.821v9.6a1.823,1.823,0,0,0,1.821,1.821h9.6A1.823,1.823,0,0,0,45.3,26.051Zm-1.773,9.6a.048.048,0,0,1-.048.048h-9.6a.048.048,0,0,1-.048-.048v-9.6a.048.048,0,0,1,.048-.048h9.6a.048.048,0,0,1,.048.048Z" transform="translate(8.542 3.898)"/>
        <path id="Trazado_167762" data-name="Trazado 167762" d="M52.715,29.109a1.823,1.823,0,0,0-1.822-1.821H6.069a1.823,1.823,0,0,0-1.821,1.821v4.75a1.823,1.823,0,0,0,1.821,1.821H21.935a.886.886,0,1,0,0-1.773H6.069a.048.048,0,0,1-.048-.048v-4.75a.048.048,0,0,1,.048-.048H50.893a.048.048,0,0,1,.048.048v4.75a.048.048,0,0,1-.048.048H26.038a.886.886,0,0,0,0,1.773H50.893a1.823,1.823,0,0,0,1.822-1.821Z" transform="translate(1.132 7.27)"/>
        <path id="Trazado_167763" data-name="Trazado 167763" d="M16.6,36.114H5.135a.886.886,0,1,0,0,1.773H16.6a.886.886,0,1,0,0-1.773" transform="translate(1.131 9.621)"/>
        <path id="Trazado_167764" data-name="Trazado 167764" d="M16.6,38.915H5.135a.886.886,0,1,0,0,1.773H16.6a.886.886,0,1,0,0-1.773" transform="translate(1.131 10.367)"/>
        <path id="Trazado_167765" data-name="Trazado 167765" d="M16.6,41.715H5.135a.886.886,0,1,0,0,1.773H16.6a.886.886,0,1,0,0-1.773" transform="translate(1.131 11.113)"/>
        <path id="Trazado_167766" data-name="Trazado 167766" d="M30.509,36.114H19.043a.886.886,0,1,0,0,1.773H30.509a.886.886,0,0,0,0-1.773" transform="translate(4.837 9.621)"/>
        <path id="Trazado_167767" data-name="Trazado 167767" d="M30.509,38.915H19.043a.886.886,0,1,0,0,1.773H30.509a.886.886,0,1,0,0-1.773" transform="translate(4.837 10.367)"/>
        <path id="Trazado_167768" data-name="Trazado 167768" d="M30.509,41.715H19.043a.886.886,0,1,0,0,1.773H30.509a.886.886,0,1,0,0-1.773" transform="translate(4.837 11.113)"/>
        <path id="Trazado_167769" data-name="Trazado 167769" d="M44.417,36.114H32.951a.886.886,0,1,0,0,1.773H44.417a.886.886,0,1,0,0-1.773" transform="translate(8.542 9.621)"/>
        <path id="Trazado_167770" data-name="Trazado 167770" d="M44.417,38.915H32.951a.886.886,0,1,0,0,1.773H44.417a.886.886,0,1,0,0-1.773" transform="translate(8.542 10.367)"/>
        <path id="Trazado_167771" data-name="Trazado 167771" d="M44.417,41.715H32.951a.886.886,0,1,0,0,1.773H44.417a.886.886,0,1,0,0-1.773" transform="translate(8.542 11.113)"/>
      </g>
    </g>
  </g>
</svg>
