<svg xmlns="http://www.w3.org/2000/svg" xmlns:xlink="http://www.w3.org/1999/xlink" width="124" height="124" viewBox="0 0 124 124">
  <defs>
    <clipPath id="clip-path">
      <rect id="Rectángulo_43279" data-name="Rectángulo 43279" width="83.443" height="83.06" fill="none"/>
    </clipPath>
  </defs>
  <g id="Grupo_119244" data-name="Grupo 119244" transform="translate(-1159 -1830.516)">
    <g id="Elipse_6020" data-name="Elipse 6020" transform="translate(1159 1830.516)" fill="#fff" stroke="#2631a0" stroke-width="4">
      <circle cx="62" cy="62" r="62" stroke="none"/>
      <circle cx="62" cy="62" r="60" fill="none"/>
    </g>
    <g id="Grupo_118722" data-name="Grupo 118722" transform="translate(1179.278 1850.986)">
      <rect id="Rectángulo_43277" data-name="Rectángulo 43277" width="17.152" height="10.263" transform="translate(59.131 71.229)" fill="#efcdb1"/>
      <g id="Grupo_118721" data-name="Grupo 118721" transform="translate(0 0)">
        <g id="Grupo_118720" data-name="Grupo 118720" clip-path="url(#clip-path)">
          <path id="Trazado_167818" data-name="Trazado 167818" d="M36.9,55.794V45.532a.963.963,0,0,1,.959-.96H55.009a.963.963,0,0,1,.959.96V55.794a.959.959,0,1,1-1.917,0v-9.3H38.816v9.3a.959.959,0,0,1-1.919,0" transform="translate(21.274 25.699)" fill="#231f20"/>
          <path id="Trazado_167819" data-name="Trazado 167819" d="M43.311,57.051a.961.961,0,0,1-.959-.959V46.069a.959.959,0,1,1,1.917,0V56.092a.961.961,0,0,1-.959.959" transform="translate(24.419 26.009)" fill="#231f20"/>
          <path id="Trazado_167820" data-name="Trazado 167820" d="M37.856,34.149,35.122,51.542H59.837L56.4,34.149" transform="translate(20.251 19.689)" fill="#ff2f6d"/>
          <path id="Trazado_167821" data-name="Trazado 167821" d="M35.472,52.881h-.143a.956.956,0,0,1-.8-1.086l2.734-17.408a.961.961,0,1,1,1.917.128.682.682,0,0,1-.032.175L36.591,50.978H59.018L55.8,34.706a.964.964,0,0,1,.88-1.039.954.954,0,0,1,.992.67L61.129,51.73a.793.793,0,0,1,.016.192.963.963,0,0,1-.96.959Z" transform="translate(19.902 19.309)" fill="#231f20"/>
          <path id="Trazado_167822" data-name="Trazado 167822" d="M55.769,44.117l.32-12.948-.08-2.573.959-3.15h5v-3.4a5.2,5.2,0,0,0-5.195-5.181h-16a5.178,5.178,0,0,0-5.195,5.163v3.421h4.172v2.541l.624,2.51v13.62Z" transform="translate(20.514 9.722)" fill="#ff2f6d"/>
          <path id="Trazado_167823" data-name="Trazado 167823" d="M40.355,16.385l4.4,9.991,4.38-9.991Z" transform="translate(23.267 9.447)" fill="#efcdb1"/>
          <path id="Trazado_167824" data-name="Trazado 167824" d="M50.4,25.885a.961.961,0,0,1,.959-.959H55.4V22.4a4.318,4.318,0,0,0-4.236-4.381H46.272a.959.959,0,1,1,0-1.917h4.892a6.239,6.239,0,0,1,6.153,6.3v3.484a.96.96,0,0,1-.959.959h-5A.961.961,0,0,1,50.4,25.885Z" transform="translate(26.126 9.284)" fill="#231f20"/>
          <path id="Trazado_167825" data-name="Trazado 167825" d="M34.971,25.885V22.4a6.24,6.24,0,0,1,6.155-6.3h2.333a.959.959,0,1,1,0,1.917H41.126A4.317,4.317,0,0,0,36.89,22.4v2.526H40.1a.959.959,0,0,1,0,1.917H35.93A.961.961,0,0,1,34.971,25.885Z" transform="translate(20.163 9.284)" fill="#231f20"/>
          <path id="Trazado_167826" data-name="Trazado 167826" d="M44.741,42.557a.959.959,0,0,1,0-1.919H50.4V29.145a.959.959,0,0,1,.112-.464,9.323,9.323,0,0,0,.911-3.932,6.354,6.354,0,0,0-.943-2.893.931.931,0,0,1,.24-1.312l.016-.016a.986.986,0,0,1,1.343.255,8.318,8.318,0,0,1,1.263,3.932,11.393,11.393,0,0,1-1.023,4.652V41.6a.962.962,0,0,1-.959.959Z" transform="translate(25.243 11.744)" fill="#231f20"/>
          <path id="Trazado_167827" data-name="Trazado 167827" d="M48.4,16.79a.753.753,0,0,0-1.023.352c0,.016-.016.016-.016.032l-3.981,8.808a.843.843,0,0,0-.032.591.771.771,0,0,0,.992.479h.016l3.773-1.31h.032a.78.78,0,0,0,.448-1.007v-.016L48.131,23.5a.768.768,0,0,1,.367-.992L51.12,21.2l.159-.128a.784.784,0,0,0,.08-1.1l-.016-.016L48.657,17A.462.462,0,0,0,48.4,16.79Z" transform="translate(24.972 9.634)" fill="#02648e"/>
          <path id="Trazado_167828" data-name="Trazado 167828" d="M43.733,28.248a1.737,1.737,0,0,1-.878-2.3l3.979-8.808a1.918,1.918,0,0,1,.416-.591,1.78,1.78,0,0,1,2.478.128L52.4,19.648a1.609,1.609,0,0,1,.271.385,1.752,1.752,0,0,1-.766,2.349l-2.478,1.247.416,1.07.032.065A1.757,1.757,0,0,1,48.8,27l-3.773,1.312a1.843,1.843,0,0,1-.575.1A1.582,1.582,0,0,1,43.733,28.248ZM47.586,24.2a1.74,1.74,0,0,1,.831-2.221l2.414-1.216-2.349-2.606-3.71,8.2L48,25.243Z" transform="translate(24.619 9.286)" fill="#231f20"/>
          <path id="Trazado_167829" data-name="Trazado 167829" d="M40.887,16.79a.753.753,0,0,1,1.023.352c0,.016.016.016.016.032l3.981,8.808a.762.762,0,0,1,.016.591.754.754,0,0,1-.976.479h-.016l-3.773-1.31h-.032a.78.78,0,0,1-.448-1.007v-.016l.479-1.214a.768.768,0,0,0-.367-.992L38.169,21.2a.6.6,0,0,1-.159-.128.784.784,0,0,1-.08-1.1l.016-.016L40.632,17A.462.462,0,0,1,40.887,16.79Z" transform="translate(21.759 9.634)" fill="#02648e"/>
          <path id="Trazado_167830" data-name="Trazado 167830" d="M44.962,28.313,41.189,27l-.08-.032a1.757,1.757,0,0,1-.976-2.27l.432-1.07-2.477-1.247c-.128-.08-.257-.159-.385-.255a1.78,1.78,0,0,1-.128-2.478l2.686-2.973a1.667,1.667,0,0,1,.575-.415,1.756,1.756,0,0,1,2.318.878l3.964,8.808a1.58,1.58,0,0,1,.161.719,1.747,1.747,0,0,1-1.742,1.744A1.828,1.828,0,0,1,44.962,28.313Zm-5.8-7.545,2.414,1.216A1.756,1.756,0,0,1,42.4,24.2l-.415,1.039,3.229,1.119-3.71-8.2Z" transform="translate(21.41 9.285)" fill="#231f20"/>
          <rect id="Rectángulo_43278" data-name="Rectángulo 43278" width="16.097" height="18.175" transform="translate(56.093 35.168)" fill="#e8ac18"/>
          <path id="Trazado_167831" data-name="Trazado 167831" d="M34.971,40.833V22.658a.961.961,0,0,1,.959-.96h16.1a.963.963,0,0,1,.96.96V40.833a.962.962,0,0,1-.96.959H35.93A.96.96,0,0,1,34.971,40.833Zm16.1-17.216H36.888V39.874h14.18Z" transform="translate(20.163 12.51)" fill="#231f20"/>
          <path id="Trazado_167832" data-name="Trazado 167832" d="M39.614,31.936a1.46,1.46,0,0,1,1.439-1.422h1.614l-.481-1.567a1.6,1.6,0,0,1,.8-1.886h.033a1.654,1.654,0,0,1,1.854.255l3.405,3.2,4.971-.24h.511V27.923a10.255,10.255,0,0,0,1.023-4.411,5.374,5.374,0,0,0-.128-1.023h4.988V33.806a2.413,2.413,0,0,1-2.4,2.382H41.053a1.462,1.462,0,0,1-1.439-1.422Z" transform="translate(22.84 12.966)" fill="#efcdb1"/>
          <path id="Trazado_167833" data-name="Trazado 167833" d="M39.006,35.111v-2.83A2.424,2.424,0,0,1,41.4,29.9h.32l-.112-.32a2.589,2.589,0,0,1,1.279-3.021h.047a2.573,2.573,0,0,1,2.942.416L49,29.9l4.156-.208V28.285a.959.959,0,0,1,.112-.464,9.339,9.339,0,0,0,.911-3.948,4.662,4.662,0,0,0-.112-.832c0-.063-.016-.128-.016-.191a.963.963,0,0,1,.96-.96h4.987a.962.962,0,0,1,.959.96V34.167A3.353,3.353,0,0,1,57.6,37.509H41.4a2.416,2.416,0,0,1-2.4-2.4M56.094,23.793v.047a11.393,11.393,0,0,1-1.023,4.652v2.125a.963.963,0,0,1-.959.96h-.5l-4.939.24a.967.967,0,0,1-.7-.255l-3.4-3.213a.683.683,0,0,0-.752-.112l-.032.032a.614.614,0,0,0-.336.752l.479,1.566a.762.762,0,0,1,.047.273.961.961,0,0,1-.959.959H41.4a.489.489,0,0,0-.479.464v2.83a.489.489,0,0,0,.479.464H57.6a1.452,1.452,0,0,0,1.439-1.424V23.793Z" transform="translate(22.49 12.621)" fill="#231f20"/>
          <path id="Trazado_167834" data-name="Trazado 167834" d="M39.205,8.459a17.684,17.684,0,0,0,6.216-.065,17.419,17.419,0,0,0,7.561-3.021s.577,3.038.911,6.666a17.846,17.846,0,0,1-.238,5.707,7.882,7.882,0,0,1-15.3-2.685V13.016a19.109,19.109,0,0,1,.848-4.556" transform="translate(22.115 3.098)" fill="#efcdb1"/>
          <path id="Trazado_167835" data-name="Trazado 167835" d="M37.748,15.412V13.3a18.993,18.993,0,0,1,.911-4.812.967.967,0,0,1,1.1-.609A17.426,17.426,0,0,0,45.6,7.8a16.7,16.7,0,0,0,7.129-2.83.874.874,0,0,1,.432-.192.95.95,0,0,1,1.118.768c.033.112.593,3.117.929,6.746a18.7,18.7,0,0,1-.273,6.026c-.016.033-.016.08-.032.112a8.84,8.84,0,0,1-17.153-3.021m15.331,2.414A17.334,17.334,0,0,0,53.3,12.47c-.192-2.078-.464-3.916-.656-5.148a20.921,20.921,0,0,1-6.7,2.366,18.99,18.99,0,0,1-5.707.192,18.759,18.759,0,0,0-.575,3.516v2.015a6.924,6.924,0,0,0,13.412,2.414Z" transform="translate(21.764 2.747)" fill="#231f20"/>
          <path id="Trazado_167836" data-name="Trazado 167836" d="M41.059,8.943A1.039,1.039,0,1,1,40.02,9.982a1.039,1.039,0,0,1,1.039-1.039" transform="translate(23.074 5.156)" fill="#231f20"/>
          <path id="Trazado_167837" data-name="Trazado 167837" d="M46.017,9.014a1.039,1.039,0,1,1-1.039,1.039,1.039,1.039,0,0,1,1.039-1.039" transform="translate(25.933 5.197)" fill="#231f20"/>
          <path id="Trazado_167838" data-name="Trazado 167838" d="M41.528,13.735a.96.96,0,0,1,1.583-1.086c0,.016.016.016.016.032a1.683,1.683,0,0,0,1.375.56,1.72,1.72,0,0,0,1.359-.528.959.959,0,1,1,1.534,1.151,3.849,3.849,0,0,1-5.866-.128Z" transform="translate(23.852 7.062)" fill="#231f20"/>
          <path id="Trazado_167839" data-name="Trazado 167839" d="M36.558,12.727C37.326,5.293,41.417.77,48.372.609S58.7,5.725,59.513,11.144A86.18,86.18,0,0,1,60.648,25.18c0,1.279-8.345-.481-8.345-.481s1.95-.7,2.781-4.2a17.836,17.836,0,0,0,.241-5.707c-.336-3.629-.911-6.666-.911-6.666a17.455,17.455,0,0,1-7.561,3.021,17.692,17.692,0,0,1-6.218.065,19.189,19.189,0,0,0-.848,4.555,18.652,18.652,0,0,0,0,2.655c.255,3.755,2.926,5.69,3.309,6.762,0,0-5.963.75-6.171.527C35.184,24,36.015,17.874,36.558,12.727Z" transform="translate(20.685 0.349)" fill="#503d31"/>
          <path id="Trazado_167840" data-name="Trazado 167840" d="M36.592,26.743c-1.919-1.9-1.359-7.033-.784-12.485l.143-1.294C36.8,4.908,41.451.177,48.692,0h.336C56.446,0,59.979,5.835,60.81,11.35a87.751,87.751,0,0,1,1.151,14.18,1.217,1.217,0,0,1-.464.974c-.464.367-1.279.719-5.226.161-1.95-.289-3.741-.656-3.806-.672a.96.96,0,0,1-.7-.624.927.927,0,0,1,.544-1.214c.016,0,.016-.016.032-.016s1.487-.656,2.158-3.517a17.066,17.066,0,0,0,.24-5.4c-.192-2.111-.464-3.916-.656-5.148a20.96,20.96,0,0,1-6.7,2.366,18.988,18.988,0,0,1-5.707.191,19.236,19.236,0,0,0-.575,3.549,16.882,16.882,0,0,0,0,2.526,8.824,8.824,0,0,0,2.286,5.036,5.987,5.987,0,0,1,.976,1.471l.047.208a.957.957,0,0,1-.831,1.07,57.744,57.744,0,0,1-5.866.56C36.832,27.048,36.784,26.92,36.592,26.743Zm5.163-1.982a10.3,10.3,0,0,1-2.573-5.931,19.965,19.965,0,0,1,0-2.781,18.948,18.948,0,0,1,.91-4.812.966.966,0,0,1,1.1-.607,17.062,17.062,0,0,0,5.835-.08A16.64,16.64,0,0,0,54.16,7.72a.886.886,0,0,1,.432-.191.947.947,0,0,1,1.119.735V8.3c.032.112.591,3.118.927,6.746a18.662,18.662,0,0,1-.273,6.027,8.243,8.243,0,0,1-1.55,3.421,27.162,27.162,0,0,0,5.226.542,83.9,83.9,0,0,0-1.134-13.395c-.336-2.319-2.111-9.912-10.167-9.72-6.267.143-10.134,4.14-10.886,11.254-.032.432-.08.864-.128,1.294-.416,3.853-.992,9.064.032,10.678.687-.032,2.3-.175,4-.383" transform="translate(20.332 0)" fill="#231f20"/>
          <path id="Trazado_167841" data-name="Trazado 167841" d="M3.045,34.149,2.038,61.8h9.288L14.3,41.327,17.431,61.8h8.952l-.894-27.655" transform="translate(1.175 19.689)" fill="#febf10"/>
          <path id="Trazado_167842" data-name="Trazado 167842" d="M2.357,63.114a.962.962,0,0,1-.927-.992l1.007-27.67a.936.936,0,0,1,.974-.911h.016a.961.961,0,0,1,.927.992L3.349,62.187a.968.968,0,0,1-.96.927Z" transform="translate(0.824 19.339)" fill="#231f20"/>
          <path id="Trazado_167843" data-name="Trazado 167843" d="M13.437,59.674,11.279,45.559,9.217,59.674A.958.958,0,0,1,7.331,59.4L10.3,38.909a.953.953,0,0,1,1.886,0l3.133,20.476a.962.962,0,0,1-.782,1.1H14.38A.949.949,0,0,1,13.437,59.674Z" transform="translate(4.227 21.964)" fill="#231f20"/>
          <path id="Trazado_167844" data-name="Trazado 167844" d="M17.2,62.187l-.9-27.655a.96.96,0,0,1,1.919-.065l.9,27.655a.963.963,0,0,1-.927.992h-.033a.967.967,0,0,1-.959-.927" transform="translate(9.4 19.339)" fill="#231f20"/>
          <path id="Trazado_167845" data-name="Trazado 167845" d="M1.48,28.35v9.144H27.7V28.35" transform="translate(0.853 16.346)" fill="#febf10"/>
          <path id="Trazado_167846" data-name="Trazado 167846" d="M.872,37.844V28.7a.959.959,0,0,1,1.919,0v8.186h24.3V28.7a.959.959,0,1,1,1.917,0v9.144a.961.961,0,0,1-.959.959H1.831a.961.961,0,0,1-.959-.959" transform="translate(0.503 15.995)" fill="#231f20"/>
          <path id="Trazado_167847" data-name="Trazado 167847" d="M8.345,16.122l6.762.08-3.453,4.875Z" transform="translate(4.811 9.295)" fill="#efcdb1"/>
          <path id="Trazado_167848" data-name="Trazado 167848" d="M6.012,15.929H12.9a.7.7,0,0,1,.56.289v.032l.032.047,2.046,2.861a.316.316,0,0,0,.143.143.7.7,0,0,0,.96-.128L18.719,16.3l.063-.1a.724.724,0,0,1,.544-.271h6.585a5.305,5.305,0,0,1,5.422,5.179V31.674H.639L.609,21.108A5.289,5.289,0,0,1,6.012,15.929Z" transform="translate(0.351 9.184)" fill="#febf10"/>
          <path id="Trazado_167849" data-name="Trazado 167849" d="M.032,32.025,0,21.459a5.975,5.975,0,0,1,1.775-4.252A6.464,6.464,0,0,1,6.363,15.32h6.89a1.677,1.677,0,0,1,1.342.687l1.871,2.622L18.3,16.088l.063-.1a1.677,1.677,0,0,1,1.327-.672H26.28a6.278,6.278,0,0,1,6.379,6.139V32.025a.962.962,0,0,1-.96.959H.992A.962.962,0,0,1,.032,32.025ZM30.74,21.459a4.354,4.354,0,0,0-4.46-4.22H19.838l-2.062,2.846a1.65,1.65,0,0,1-1.327.672,1.621,1.621,0,0,1-1.326-.687l-2-2.83H6.363a4.444,4.444,0,0,0-3.23,1.327,4.042,4.042,0,0,0-1.214,2.893l.032,9.608H30.74Z" transform="translate(0 8.833)" fill="#231f20"/>
          <path id="Trazado_167850" data-name="Trazado 167850" d="M9.906,31.765V19.089a.959.959,0,1,1,1.919,0V31.765a.959.959,0,0,1-1.919,0" transform="translate(5.712 10.453)" fill="#231f20"/>
          <path id="Trazado_167851" data-name="Trazado 167851" d="M9.537,16.122h.672l.032.047,2.046,2.861a.319.319,0,0,0,.143.145.7.7,0,0,0,.96-.129l2.078-2.877H16.3l2.622,4.908-6.2-1.359-6.442.687Z" transform="translate(3.619 9.295)" fill="#ffc700"/>
          <path id="Trazado_167852" data-name="Trazado 167852" d="M19.062,22.355,13,21.045,6.738,21.7a.892.892,0,0,1-.687-.191.943.943,0,0,1-.192-1.327l.016-.016L9.121,15.9a1.007,1.007,0,0,1,.782-.385h.672a.929.929,0,0,1,.768.4L13.2,18.52l1.838-2.541a.953.953,0,0,1,.784-.4h.847a.941.941,0,0,1,.832.5l2.62,4.876a1.152,1.152,0,0,1,.112.464.961.961,0,0,1-.959.959Zm-4.187-2.877,2.557.56-1.263-2.351ZM10.207,17.64,8.752,19.558l2.622-.273Z" transform="translate(3.268 8.944)" fill="#231f20"/>
          <path id="Trazado_167853" data-name="Trazado 167853" d="M4.654,22.262a.961.961,0,0,1,.959-.959h4.973a.959.959,0,1,1,0,1.917H5.613a.961.961,0,0,1-.959-.959" transform="translate(2.683 12.283)" fill="#231f20"/>
          <path id="Trazado_167854" data-name="Trazado 167854" d="M14.933,28.547l-7.993-4.7-6.169.768v3.052" transform="translate(0.445 13.75)" fill="#efcdb1"/>
          <path id="Trazado_167855" data-name="Trazado 167855" d="M14.805,29.731l-7.72-4.541-5,.624v2.206a.959.959,0,0,1-1.919,0V24.967a.965.965,0,0,1,.832-.959l6.186-.768a.955.955,0,0,1,.591.129l8.007,4.716a.954.954,0,0,1,.3,1.326.946.946,0,0,1-1.279.32Z" transform="translate(0.093 13.398)" fill="#231f20"/>
          <path id="Trazado_167856" data-name="Trazado 167856" d="M30.4,32.5,25.04,34.309l-21.58.112A2.742,2.742,0,0,1,.679,31.992V28.138l23.243-.112,4.443-3.468" transform="translate(0.391 14.159)" fill="#efcdb1"/>
          <path id="Trazado_167857" data-name="Trazado 167857" d="M.071,32.355V28.486a.962.962,0,0,1,.959-.959l22.923-.112,4.173-3.26a.94.94,0,0,1,1.326.159l.016.016a.962.962,0,0,1-.159,1.343l-4.444,3.453a.939.939,0,0,1-.575.208l-22.3.112v2.893c0,.8,1.006,1.471,1.823,1.471L25.231,33.7l5.212-1.759a.96.96,0,0,1,.607,1.823l-5.356,1.807a1,1,0,0,1-.3.047l-21.58.112A3.688,3.688,0,0,1,.071,32.355Z" transform="translate(0.041 13.81)" fill="#231f20"/>
          <path id="Trazado_167858" data-name="Trazado 167858" d="M5.145,7.483a1.816,1.816,0,0,1,1.87,1.758A1.818,1.818,0,0,1,5.145,11a1.818,1.818,0,0,1-1.87-1.759,1.816,1.816,0,0,1,1.87-1.758" transform="translate(1.888 4.314)" fill="#efcdb1"/>
          <path id="Trazado_167859" data-name="Trazado 167859" d="M2.666,9.592A2.782,2.782,0,0,1,5.5,6.874,2.8,2.8,0,0,1,8.342,9.592,2.786,2.786,0,0,1,5.5,12.31a2.772,2.772,0,0,1-2.83-2.718m2.83-.8a.873.873,0,0,0-.911.8.873.873,0,0,0,.911.8.877.877,0,0,0,.927-.8.867.867,0,0,0-.927-.8" transform="translate(1.537 3.963)" fill="#231f20"/>
          <path id="Trazado_167860" data-name="Trazado 167860" d="M16.552,7.594a1.816,1.816,0,0,1,1.87,1.758,1.873,1.873,0,0,1-3.74,0,1.816,1.816,0,0,1,1.87-1.758" transform="translate(8.465 4.378)" fill="#efcdb1"/>
          <path id="Trazado_167861" data-name="Trazado 167861" d="M14.073,9.7a2.833,2.833,0,0,1,5.66,0,2.832,2.832,0,0,1-5.66,0m1.919,0a.919.919,0,0,0,1.823,0,.84.84,0,0,0-.911-.784.849.849,0,0,0-.911.784" transform="translate(8.114 4.034)" fill="#231f20"/>
          <path id="Trazado_167862" data-name="Trazado 167862" d="M21.082,6.651v8.408A6.7,6.7,0,0,1,14.4,21.725H11.954a6.7,6.7,0,0,1-6.682-6.666V6.651Z" transform="translate(3.04 3.835)" fill="#efcdb1"/>
          <path id="Trazado_167863" data-name="Trazado 167863" d="M4.664,15.411V7a.963.963,0,0,1,.96-.96H21.432a.963.963,0,0,1,.96.96v8.408a7.637,7.637,0,0,1-7.642,7.624H12.306A7.637,7.637,0,0,1,4.664,15.411ZM6.583,7.962v7.449a5.745,5.745,0,0,0,5.723,5.707h2.445a5.71,5.71,0,0,0,5.723-5.691V7.962Z" transform="translate(2.689 3.484)" fill="#231f20"/>
          <path id="Trazado_167864" data-name="Trazado 167864" d="M9.216,9.992A1.039,1.039,0,1,1,8.177,8.953,1.037,1.037,0,0,1,9.216,9.992" transform="translate(4.116 5.162)" fill="#231f20"/>
          <path id="Trazado_167865" data-name="Trazado 167865" d="M14.2,10.063a1.055,1.055,0,1,1-1.072-1.039h.016A1.062,1.062,0,0,1,14.2,10.063" transform="translate(6.969 5.203)" fill="#231f20"/>
          <path id="Trazado_167866" data-name="Trazado 167866" d="M8.383,13.792a.954.954,0,1,1,1.471-1.216.674.674,0,0,1,.112.177,1.683,1.683,0,0,0,1.375.56,1.664,1.664,0,0,0,1.359-.528h.016a.964.964,0,0,1,1.359-.1.941.941,0,0,1,.159,1.263,3.576,3.576,0,0,1-2.893,1.3,3.6,3.6,0,0,1-2.958-1.455" transform="translate(4.709 7.053)" fill="#231f20"/>
          <path id="Trazado_167867" data-name="Trazado 167867" d="M21.82,8.25V9.992H4.8V8.25A7.64,7.64,0,0,1,12.436.608h1.742A7.641,7.641,0,0,1,21.82,8.25" transform="translate(2.765 0.351)" fill="#febf10"/>
          <path id="Trazado_167868" data-name="Trazado 167868" d="M4.188,10.342V8.6a8.6,8.6,0,0,1,8.6-8.6H14.53a8.6,8.6,0,0,1,8.6,8.6v1.742a.963.963,0,0,1-.96.96H5.147a.962.962,0,0,1-.959-.96M21.212,8.6A6.679,6.679,0,0,0,14.53,1.919H12.788A6.679,6.679,0,0,0,6.105,8.6v.784H21.212Z" transform="translate(2.415 0)" fill="#231f20"/>
          <path id="Trazado_167869" data-name="Trazado 167869" d="M17.906,4.086a3.888,3.888,0,0,1,3.885,3.885A1.467,1.467,0,0,1,20.32,9.442h-14A1.467,1.467,0,0,1,4.846,7.971,3.888,3.888,0,0,1,8.731,4.086Z" transform="translate(2.794 2.356)" fill="#febf10"/>
          <path id="Trazado_167870" data-name="Trazado 167870" d="M4.239,8.321A4.85,4.85,0,0,1,9.082,3.478h9.174A4.851,4.851,0,0,1,23.1,8.321a2.428,2.428,0,0,1-2.429,2.431h-14A2.429,2.429,0,0,1,4.239,8.321M9.082,5.4A2.925,2.925,0,0,0,6.158,8.321a.5.5,0,0,0,.511.512h14a.505.505,0,0,0,.512-.512A2.926,2.926,0,0,0,18.256,5.4Z" transform="translate(2.444 2.005)" fill="#231f20"/>
          <path id="Trazado_167871" data-name="Trazado 167871" d="M20.237,34.149,19.021,61.8h9.288l3.2-20.476L34.64,61.8h8.952l-.9-27.655" transform="translate(10.967 19.689)" fill="#4c53b5"/>
          <path id="Trazado_167872" data-name="Trazado 167872" d="M19.324,63.114a.935.935,0,0,1-.911-.974v-.017l1.216-27.67a.974.974,0,0,1,1.006-.911.934.934,0,0,1,.911.976v.016L20.332,62.2a.964.964,0,0,1-.96.911Z" transform="translate(10.616 19.339)" fill="#231f20"/>
          <path id="Trazado_167873" data-name="Trazado 167873" d="M25.261,60.489h-.143a.953.953,0,0,1-.8-1.086v-.017L27.5,38.909a.976.976,0,0,1,.959-.815.948.948,0,0,1,.943.815l3.133,20.476a.957.957,0,0,1-.8,1.088.973.973,0,0,1-1.1-.815l-2.19-14.323L26.2,59.69A.946.946,0,0,1,25.261,60.489Z" transform="translate(14.015 21.964)" fill="#231f20"/>
          <path id="Trazado_167874" data-name="Trazado 167874" d="M34.325,62.187l-.9-27.655a.96.96,0,0,1,1.919-.065l.9,27.655a.963.963,0,0,1-.927.992h-.033a.934.934,0,0,1-.959-.927" transform="translate(19.274 19.339)" fill="#231f20"/>
          <path id="Trazado_167875" data-name="Trazado 167875" d="M42.4,26.342V38.65h-22.6V26.342" transform="translate(11.411 15.188)" fill="#d3d3d3"/>
          <path id="Trazado_167876" data-name="Trazado 167876" d="M19.184,39V26.693a.959.959,0,1,1,1.919,0v11.35H41.787V26.693a.959.959,0,1,1,1.919,0V39a.961.961,0,0,1-.96.959h-22.6A.961.961,0,0,1,19.184,39Z" transform="translate(11.061 14.837)" fill="#231f20"/>
          <path id="Trazado_167877" data-name="Trazado 167877" d="M46.265,30.985V20.275a3.932,3.932,0,0,0-4-3.869H22.495a3.928,3.928,0,0,0-3.981,3.869V33.781" transform="translate(10.675 9.459)" fill="#d3d3d3"/>
          <path id="Trazado_167878" data-name="Trazado 167878" d="M18.865,35.091a.961.961,0,0,1-.959-.959V20.624A4.889,4.889,0,0,1,22.845,15.8H42.619a4.892,4.892,0,0,1,4.955,4.827v10.71a.959.959,0,1,1-1.917,0V20.624a2.97,2.97,0,0,0-3.038-2.909H22.845a2.966,2.966,0,0,0-3.022,2.909V34.133a.961.961,0,0,1-.959.959" transform="translate(10.324 9.108)" fill="#231f20"/>
          <path id="Trazado_167879" data-name="Trazado 167879" d="M26.569,17.653l-.7,12.98,3.164,2.429,2.814-2.429-1.055-12.98" transform="translate(14.913 10.178)" fill="#4c53b5"/>
          <path id="Trazado_167880" data-name="Trazado 167880" d="M28.791,34.182l-3.166-2.445a.979.979,0,0,1-.367-.8l.7-12.98a.961.961,0,0,1,1.919.095l-.672,12.485,2.143,1.648,1.838-1.614L30.181,18.085a.964.964,0,0,1,.88-1.039.947.947,0,0,1,1.023.862v.016L33.139,30.9a.937.937,0,0,1-.32.8l-2.813,2.447a.993.993,0,0,1-1.216.032Z" transform="translate(14.562 9.826)" fill="#231f20"/>
          <path id="Trazado_167881" data-name="Trazado 167881" d="M30.762,16.5l-4.124-.1a.77.77,0,0,0-.511,1.312l2.062,2.157v.033a.672.672,0,0,0,.927-.016L31.1,17.924C31.546,17.476,31.369,16.533,30.762,16.5Z" transform="translate(14.939 9.458)" fill="#4c53b5"/>
          <path id="Trazado_167882" data-name="Trazado 167882" d="M28.99,21.393a1.606,1.606,0,0,1-1.151-.511l-2.062-2.158a1.729,1.729,0,0,1-.3-1.95,1.585,1.585,0,0,1,1.55-.976l4.109.1h.032a1.55,1.55,0,0,1,1.375,1.039,1.91,1.91,0,0,1-.415,2.031l-1.968,1.95a1.592,1.592,0,0,1-1.134.479Zm-1.518-3.677,1.551,1.63,1.55-1.55Z" transform="translate(14.586 9.107)" fill="#231f20"/>
          <path id="Trazado_167883" data-name="Trazado 167883" d="M22.063,23.908V21.43a.959.959,0,0,1,1.919,0v2.478a.959.959,0,0,1-1.919,0" transform="translate(12.721 11.803)" fill="#231f20"/>
          <path id="Trazado_167884" data-name="Trazado 167884" d="M31.533,27.521v-6.09a.959.959,0,0,1,1.919,0v6.09a.959.959,0,0,1-1.919,0" transform="translate(18.181 11.804)" fill="#231f20"/>
          <path id="Trazado_167885" data-name="Trazado 167885" d="M18.514,26.018v3.357A2.072,2.072,0,0,0,20.8,31.15h2.958a2.6,2.6,0,0,0,1.1-.192l6.746-2.718" transform="translate(10.675 15.001)" fill="#d3d3d3"/>
          <path id="Trazado_167886" data-name="Trazado 167886" d="M17.906,29.726V26.369a.959.959,0,1,1,1.919,0v3.357c0,.4.56.831,1.326.831h2.958a1.936,1.936,0,0,0,.735-.143L31.6,27.7h.033a.955.955,0,0,1,1.23.528v.016a.962.962,0,0,1-.542,1.247l-6.762,2.7a3.513,3.513,0,0,1-1.455.273H21.151A3.018,3.018,0,0,1,17.906,29.726Z" transform="translate(10.324 14.65)" fill="#231f20"/>
          <path id="Trazado_167887" data-name="Trazado 167887" d="M26.2,22.852l-7.689-.383V28.1h5.434" transform="translate(10.675 12.955)" fill="#efcdb1"/>
          <path id="Trazado_167888" data-name="Trazado 167888" d="M17.906,28.447V22.772a.972.972,0,0,1,1.007-.911l7.689.383a.963.963,0,0,1,.911,1.007.975.975,0,0,1-1.007.911l-6.682-.336v3.661H24.3a.959.959,0,1,1,0,1.917H18.865a.961.961,0,0,1-.959-.959" transform="translate(10.324 12.604)" fill="#231f20"/>
          <path id="Trazado_167889" data-name="Trazado 167889" d="M43.567,32.192l-.1.24a2.83,2.83,0,0,1-3.708,1.5L22.195,28.4l1.886-5.691,20.062,4.637Z" transform="translate(12.797 13.095)" fill="#d3d3d3"/>
          <path id="Trazado_167890" data-name="Trazado 167890" d="M39.776,35.2l-17.52-5.515a.966.966,0,0,1-.623-1.2l1.886-5.721a.965.965,0,0,1,1.119-.64L44.7,26.758a.953.953,0,0,1,.735,1.056l-.575,4.843a.682.682,0,0,1-.032.175,3.794,3.794,0,0,1-3.612,2.638A4.049,4.049,0,0,1,39.776,35.2Zm3.661-6.762L25.07,24.2l-1.312,3.932L40.4,33.376l.079.032.08.033a1.892,1.892,0,0,0,2.414-1.119Z" transform="translate(12.448 12.741)" fill="#231f20"/>
          <path id="Trazado_167891" data-name="Trazado 167891" d="M22.311,7.442A1.816,1.816,0,0,1,24.181,9.2a1.873,1.873,0,0,1-3.74,0,1.816,1.816,0,0,1,1.87-1.758" transform="translate(11.786 4.291)" fill="#efcdb1"/>
          <path id="Trazado_167892" data-name="Trazado 167892" d="M19.832,9.552a2.832,2.832,0,0,1,5.66,0,2.833,2.833,0,0,1-5.66,0m1.919,0a.922.922,0,0,0,1.823,0,.873.873,0,0,0-.911-.8.862.862,0,0,0-.911.8" transform="translate(11.435 3.94)" fill="#231f20"/>
          <path id="Trazado_167893" data-name="Trazado 167893" d="M33.688,7.554a1.816,1.816,0,0,1,1.87,1.758,1.873,1.873,0,0,1-3.74,0,1.816,1.816,0,0,1,1.87-1.758" transform="translate(18.345 4.355)" fill="#efcdb1"/>
          <path id="Trazado_167894" data-name="Trazado 167894" d="M31.209,9.663a2.832,2.832,0,0,1,5.66,0,2.832,2.832,0,0,1-5.66,0m1.919,0a.919.919,0,0,0,1.823,0,.919.919,0,0,0-1.823,0" transform="translate(17.994 4.004)" fill="#231f20"/>
          <path id="Trazado_167895" data-name="Trazado 167895" d="M29.44,22.817a7,7,0,0,1-7-7V4.593L38.2,5.616v10.2a7,7,0,0,1-7,7Z" transform="translate(12.937 2.648)" fill="#efcdb1"/>
          <path id="Trazado_167896" data-name="Trazado 167896" d="M21.83,16.16V4.891a.937.937,0,0,1,.992-.9h.032L38.616,5a.949.949,0,0,1,.894.959v10.2a7.961,7.961,0,0,1-7.96,7.96H29.792a7.961,7.961,0,0,1-7.962-7.96m1.919-10.2v10.2A6.039,6.039,0,0,0,29.792,22.2H31.55a6.039,6.039,0,0,0,6.043-6.043v-9.3Z" transform="translate(12.587 2.303)" fill="#231f20"/>
          <path id="Trazado_167897" data-name="Trazado 167897" d="M25.568,13.661a.972.972,0,0,1,.271-1.327.959.959,0,0,1,1.327.289,1.723,1.723,0,0,0,1.391.56,1.6,1.6,0,0,0,1.343-.528A.959.959,0,0,1,31.434,13.8a3.566,3.566,0,0,1-2.877,1.3A3.69,3.69,0,0,1,25.568,13.661Z" transform="translate(14.652 7.023)" fill="#231f20"/>
          <path id="Trazado_167898" data-name="Trazado 167898" d="M25.14,8.578A1.039,1.039,0,1,1,24.1,9.617,1.039,1.039,0,0,1,25.14,8.578" transform="translate(13.896 4.946)" fill="#231f20"/>
          <path id="Trazado_167899" data-name="Trazado 167899" d="M30.1,8.649a1.039,1.039,0,1,1-1.039,1.039A1.039,1.039,0,0,1,30.1,8.649" transform="translate(16.755 4.987)" fill="#231f20"/>
          <path id="Trazado_167900" data-name="Trazado 167900" d="M36.031,9.518c-.432-.177-11.525-.255-13.108-1.471S21.6,2.42,21.644,1.349a.1.1,0,0,1,.016-.065.152.152,0,0,1,.191-.063A17.451,17.451,0,0,0,26.1,2.563c3.022.609,3.788-1.2,6.043-1.326a7.236,7.236,0,0,1,6.2,3.26c1.439,1.934.4,8.889.4,8.889s-2.286-3.692-2.718-3.869" transform="translate(12.454 0.697)" fill="#8a5d3b"/>
          <path id="Trazado_167901" data-name="Trazado 167901" d="M38.289,14.247c-.847-1.359-1.919-2.958-2.349-3.468l-1.919-.1c-6.3-.289-10.183-.64-11.35-1.518-1.614-1.247-1.726-5.228-1.646-7.5a.887.887,0,0,1,.112-.448A1.115,1.115,0,0,1,22.607.708a17.208,17.208,0,0,0,4.03,1.263A4.191,4.191,0,0,0,29.8,1.442a5.734,5.734,0,0,1,2.638-.8,8.1,8.1,0,0,1,7.017,3.629c1.6,2.158.768,8.376.591,9.608a.976.976,0,0,1-.959.815A.911.911,0,0,1,38.289,14.247Zm-5.754-11.7a4.623,4.623,0,0,0-1.886.623,6.228,6.228,0,0,1-4.4.687,23.728,23.728,0,0,1-3.325-.927c.016,2.622.464,4.364.911,4.7.1.08.736.432,4.093.752,2.094.192,4.46.3,6.186.383a10.5,10.5,0,0,1,2.606.208c.24.1.511.224,1.709,1.966.145-2.318.08-4.731-.511-5.515a6.424,6.424,0,0,0-5.083-2.877Z" transform="translate(12.112 0.347)" fill="#231f20"/>
        </g>
      </g>
    </g>
  </g>
</svg>
