<svg id="Grupo_118866" data-name="Grupo 118866" xmlns="http://www.w3.org/2000/svg" xmlns:xlink="http://www.w3.org/1999/xlink" width="233.831" height="233.957" viewBox="0 0 233.831 233.957">
  <defs>
    <clipPath id="clip-path">
      <rect id="Rectángulo_43467" data-name="Rectángulo 43467" width="233.831" height="233.957" fill="none"/>
    </clipPath>
    <clipPath id="clip-path-3">
      <rect id="Rectángulo_43445" data-name="Rectángulo 43445" width="9.121" height="84.817" fill="none"/>
    </clipPath>
    <clipPath id="clip-path-5">
      <rect id="Rectángulo_43447" data-name="Rectángulo 43447" width="48.101" height="23.56" fill="none"/>
    </clipPath>
    <clipPath id="clip-path-6">
      <rect id="Rectángulo_43448" data-name="Rectángulo 43448" width="50.012" height="23.373" fill="none"/>
    </clipPath>
    <clipPath id="clip-path-7">
      <rect id="Rectángulo_43451" data-name="Rectángulo 43451" width="14.032" height="5.786" fill="none"/>
    </clipPath>
    <clipPath id="clip-path-8">
      <rect id="Rectángulo_43453" data-name="Rectángulo 43453" width="13.782" height="5.469" fill="none"/>
    </clipPath>
    <clipPath id="clip-path-9">
      <rect id="Rectángulo_43454" data-name="Rectángulo 43454" width="14.031" height="5.786" fill="none"/>
    </clipPath>
    <clipPath id="clip-path-10">
      <rect id="Rectángulo_43456" data-name="Rectángulo 43456" width="13.782" height="5.47" fill="none"/>
    </clipPath>
  </defs>
  <g id="Grupo_118865" data-name="Grupo 118865" clip-path="url(#clip-path)">
    <g id="Grupo_118864" data-name="Grupo 118864">
      <g id="Grupo_118863" data-name="Grupo 118863" clip-path="url(#clip-path)">
        <path id="Trazado_168843" data-name="Trazado 168843" d="M338.9,27.431a12.981,12.981,0,0,0-13.384-9.986c-2,.176-4.024.831-5.986.39-2.935-.659-4.8-3.54-5.9-6.339s-1.827-5.865-3.84-8.1C307.017.314,302.389-.425,298.289.209a22.167,22.167,0,0,0-13.776,7.98c-1.49,1.863-2.914,4.135-5.249,4.623-1.79.374-3.587-.438-5.391-.739a9.94,9.94,0,0,0-9.844,4.463c-1.77,2.859-2.106,6.686-4.718,8.8-3.068,2.487-7.566,1.353-11.478,1.893a12.84,12.84,0,0,0-10.314,17.092l8.888.9c-2.554-2.029-1.452-6.483,1.247-8.314s6.2-1.807,9.463-1.725q37.264.936,74.544.319c1.831-.031,3.792-.1,5.273-1.181,2.043-1.485,2.475-4.413,1.97-6.888" transform="translate(-105.266 0)" fill="#fff"/>
        <rect id="Rectángulo_43380" data-name="Rectángulo 43380" width="35.095" height="111.222" transform="translate(71.947 49.997)" fill="#f5f5f5"/>
        <rect id="Rectángulo_43381" data-name="Rectángulo 43381" width="17.547" height="110.916" transform="translate(89.495 49.997)" fill="#ececec"/>
        <rect id="Rectángulo_43382" data-name="Rectángulo 43382" width="12.393" height="10.919" transform="translate(75.954 39.078)" fill="#f5f5f5"/>
        <rect id="Rectángulo_43383" data-name="Rectángulo 43383" width="2.954" height="10.919" transform="translate(85.394 39.078)" fill="#ececec"/>
        <path id="Trazado_168844" data-name="Trazado 168844" d="M124.274,89.509v-.637H163.32v.637" transform="translate(-55.251 -39.512)" fill="#e1e1e1"/>
        <rect id="Rectángulo_43384" data-name="Rectángulo 43384" width="2.97" height="6.264" transform="translate(78.875 54.759)" fill="#fafafa"/>
        <path id="Trazado_168845" data-name="Trazado 168845" d="M147.087,114.2c0,.066-3.928.119-8.773.119s-8.774-.053-8.774-.119,3.928-.119,8.774-.119,8.773.053,8.773.119" transform="translate(-57.592 -50.72)" fill="#e1e1e1"/>
        <rect id="Rectángulo_43385" data-name="Rectángulo 43385" width="2.97" height="6.264" transform="translate(96.575 54.759)" fill="#e1e1e1"/>
        <path id="Trazado_168846" data-name="Trazado 168846" d="M178.955,114.2c0,.066-3.928.119-8.773.119s-8.774-.053-8.774-.119,3.927-.119,8.774-.119,8.773.053,8.773.119" transform="translate(-71.761 -50.72)" fill="#e1e1e1"/>
        <rect id="Rectángulo_43386" data-name="Rectángulo 43386" width="2.97" height="6.264" transform="translate(96.575 67.196)" fill="#e1e1e1"/>
        <path id="Trazado_168847" data-name="Trazado 168847" d="M178.955,136.592c0,.066-3.928.119-8.773.119s-8.774-.053-8.774-.119,3.927-.119,8.774-.119,8.773.053,8.773.119" transform="translate(-71.761 -60.675)" fill="#e1e1e1"/>
        <rect id="Rectángulo_43387" data-name="Rectángulo 43387" width="2.97" height="6.264" transform="translate(96.575 80.007)" fill="#e1e1e1"/>
        <path id="Trazado_168848" data-name="Trazado 168848" d="M178.955,159.659c0,.066-3.928.119-8.773.119s-8.774-.053-8.774-.119,3.927-.119,8.774-.119,8.773.053,8.773.119" transform="translate(-71.761 -70.93)" fill="#e1e1e1"/>
        <rect id="Rectángulo_43388" data-name="Rectángulo 43388" width="2.97" height="6.264" transform="translate(96.575 92.818)" fill="#e1e1e1"/>
        <path id="Trazado_168849" data-name="Trazado 168849" d="M178.955,182.725c0,.066-3.928.119-8.773.119s-8.774-.053-8.774-.119,3.927-.119,8.774-.119,8.773.053,8.773.119" transform="translate(-71.761 -81.185)" fill="#e1e1e1"/>
        <rect id="Rectángulo_43389" data-name="Rectángulo 43389" width="2.97" height="6.264" transform="translate(96.575 105.263)" fill="#e1e1e1"/>
        <path id="Trazado_168850" data-name="Trazado 168850" d="M178.955,205.131c0,.066-3.928.119-8.773.119s-8.774-.053-8.774-.119,3.927-.119,8.774-.119,8.773.053,8.773.119" transform="translate(-71.761 -91.146)" fill="#e1e1e1"/>
        <rect id="Rectángulo_43390" data-name="Rectángulo 43390" width="2.97" height="6.264" transform="translate(96.575 117.758)" fill="#e1e1e1"/>
        <rect id="Rectángulo_43391" data-name="Rectángulo 43391" width="2.97" height="6.264" transform="translate(96.575 130.417)" fill="#e1e1e1"/>
        <path id="Trazado_168851" data-name="Trazado 168851" d="M178.955,227.629c0,.066-3.928.119-8.773.119s-8.774-.053-8.774-.119,3.927-.119,8.774-.119,8.773.053,8.773.119" transform="translate(-71.761 -101.149)" fill="#e1e1e1"/>
        <rect id="Rectángulo_43392" data-name="Rectángulo 43392" width="2.97" height="6.264" transform="translate(78.875 67.386)" fill="#fafafa"/>
        <path id="Trazado_168852" data-name="Trazado 168852" d="M147.087,136.934c0,.066-3.928.119-8.773.119s-8.774-.053-8.774-.119,3.928-.119,8.774-.119,8.773.053,8.773.119" transform="translate(-57.592 -60.827)" fill="#e1e1e1"/>
        <rect id="Rectángulo_43393" data-name="Rectángulo 43393" width="2.97" height="6.264" transform="translate(78.875 80.011)" fill="#fafafa"/>
        <path id="Trazado_168853" data-name="Trazado 168853" d="M147.087,159.666c0,.066-3.928.119-8.773.119s-8.774-.053-8.774-.119,3.928-.119,8.774-.119,8.773.053,8.773.119" transform="translate(-57.592 -70.933)" fill="#e1e1e1"/>
        <rect id="Rectángulo_43394" data-name="Rectángulo 43394" width="2.97" height="6.264" transform="translate(78.875 92.637)" fill="#fafafa"/>
        <path id="Trazado_168854" data-name="Trazado 168854" d="M147.087,182.4c0,.066-3.928.119-8.773.119s-8.774-.053-8.774-.119,3.928-.119,8.774-.119,8.773.053,8.773.119" transform="translate(-57.592 -81.04)" fill="#e1e1e1"/>
        <rect id="Rectángulo_43395" data-name="Rectángulo 43395" width="2.97" height="6.264" transform="translate(78.875 105.263)" fill="#fafafa"/>
        <path id="Trazado_168855" data-name="Trazado 168855" d="M147.087,205.131c0,.066-3.928.119-8.773.119s-8.774-.053-8.774-.119,3.928-.119,8.774-.119,8.773.053,8.773.119" transform="translate(-57.592 -91.146)" fill="#e1e1e1"/>
        <rect id="Rectángulo_43396" data-name="Rectángulo 43396" width="2.97" height="6.264" transform="translate(78.875 117.889)" fill="#fafafa"/>
        <path id="Trazado_168856" data-name="Trazado 168856" d="M147.087,227.864c0,.066-3.928.119-8.773.119s-8.774-.053-8.774-.119,3.928-.119,8.774-.119,8.773.053,8.773.119" transform="translate(-57.592 -101.253)" fill="#e1e1e1"/>
        <rect id="Rectángulo_43397" data-name="Rectángulo 43397" width="2.97" height="6.264" transform="translate(78.875 130.514)" fill="#fafafa"/>
        <rect id="Rectángulo_43398" data-name="Rectángulo 43398" width="35.095" height="111.222" transform="translate(106.855 79.476)" fill="#f5f5f5"/>
        <rect id="Rectángulo_43399" data-name="Rectángulo 43399" width="17.547" height="110.916" transform="translate(124.403 79.476)" fill="#ececec"/>
        <rect id="Rectángulo_43400" data-name="Rectángulo 43400" width="12.393" height="10.919" transform="translate(110.863 68.557)" fill="#f5f5f5"/>
        <rect id="Rectángulo_43401" data-name="Rectángulo 43401" width="2.954" height="10.919" transform="translate(120.302 68.557)" fill="#ececec"/>
        <path id="Trazado_168857" data-name="Trazado 168857" d="M187.125,142.585v-.637h39.046v.637" transform="translate(-83.194 -63.109)" fill="#e1e1e1"/>
        <rect id="Rectángulo_43402" data-name="Rectángulo 43402" width="2.97" height="6.264" transform="translate(113.783 84.238)" fill="#fafafa"/>
        <path id="Trazado_168858" data-name="Trazado 168858" d="M209.938,167.277c0,.066-3.928.119-8.773.119s-8.774-.053-8.774-.119,3.927-.119,8.774-.119,8.773.053,8.773.119" transform="translate(-85.535 -74.317)" fill="#e1e1e1"/>
        <rect id="Rectángulo_43403" data-name="Rectángulo 43403" width="2.97" height="6.264" transform="translate(131.483 84.238)" fill="#e1e1e1"/>
        <path id="Trazado_168859" data-name="Trazado 168859" d="M241.806,167.277c0,.066-3.928.119-8.773.119s-8.774-.053-8.774-.119,3.927-.119,8.774-.119,8.773.053,8.773.119" transform="translate(-99.704 -74.317)" fill="#e1e1e1"/>
        <rect id="Rectángulo_43404" data-name="Rectángulo 43404" width="2.97" height="6.264" transform="translate(131.483 96.675)" fill="#e1e1e1"/>
        <path id="Trazado_168860" data-name="Trazado 168860" d="M241.806,189.668c0,.066-3.928.119-8.773.119s-8.774-.053-8.774-.119,3.927-.119,8.774-.119,8.773.053,8.773.119" transform="translate(-99.704 -84.272)" fill="#e1e1e1"/>
        <rect id="Rectángulo_43405" data-name="Rectángulo 43405" width="2.97" height="6.264" transform="translate(131.483 109.486)" fill="#e1e1e1"/>
        <path id="Trazado_168861" data-name="Trazado 168861" d="M241.806,212.734c0,.066-3.928.119-8.773.119s-8.774-.053-8.774-.119,3.927-.119,8.774-.119,8.773.053,8.773.119" transform="translate(-99.704 -94.527)" fill="#e1e1e1"/>
        <rect id="Rectángulo_43406" data-name="Rectángulo 43406" width="2.97" height="6.264" transform="translate(131.483 122.297)" fill="#e1e1e1"/>
        <path id="Trazado_168862" data-name="Trazado 168862" d="M241.806,235.8c0,.066-3.928.119-8.773.119s-8.774-.053-8.774-.119,3.927-.119,8.774-.119,8.773.053,8.773.119" transform="translate(-99.704 -104.782)" fill="#e1e1e1"/>
        <rect id="Rectángulo_43407" data-name="Rectángulo 43407" width="2.97" height="6.264" transform="translate(131.483 134.742)" fill="#e1e1e1"/>
        <path id="Trazado_168863" data-name="Trazado 168863" d="M241.806,258.207c0,.066-3.928.119-8.773.119s-8.774-.053-8.774-.119,3.927-.119,8.774-.119,8.773.053,8.773.119" transform="translate(-99.704 -114.744)" fill="#e1e1e1"/>
        <rect id="Rectángulo_43408" data-name="Rectángulo 43408" width="2.97" height="6.264" transform="translate(131.483 147.237)" fill="#e1e1e1"/>
        <rect id="Rectángulo_43409" data-name="Rectángulo 43409" width="2.97" height="6.264" transform="translate(131.483 159.896)" fill="#e1e1e1"/>
        <path id="Trazado_168864" data-name="Trazado 168864" d="M241.806,280.7c0,.066-3.928.119-8.773.119s-8.774-.053-8.774-.119,3.927-.119,8.774-.119,8.773.053,8.773.119" transform="translate(-99.704 -124.746)" fill="#e1e1e1"/>
        <rect id="Rectángulo_43410" data-name="Rectángulo 43410" width="2.97" height="6.264" transform="translate(113.783 96.864)" fill="#fafafa"/>
        <path id="Trazado_168865" data-name="Trazado 168865" d="M209.938,190.01c0,.067-3.928.12-8.773.12s-8.774-.053-8.774-.12,3.927-.119,8.774-.119,8.773.053,8.773.119" transform="translate(-85.535 -84.424)" fill="#e1e1e1"/>
        <rect id="Rectángulo_43411" data-name="Rectángulo 43411" width="2.97" height="6.264" transform="translate(113.783 109.49)" fill="#fafafa"/>
        <path id="Trazado_168866" data-name="Trazado 168866" d="M209.938,212.742c0,.066-3.928.119-8.773.119s-8.774-.053-8.774-.119,3.927-.119,8.774-.119,8.773.053,8.773.119" transform="translate(-85.535 -94.53)" fill="#e1e1e1"/>
        <rect id="Rectángulo_43412" data-name="Rectángulo 43412" width="2.97" height="6.264" transform="translate(113.783 122.116)" fill="#fafafa"/>
        <path id="Trazado_168867" data-name="Trazado 168867" d="M209.938,235.474c0,.066-3.928.12-8.773.12s-8.774-.054-8.774-.12,3.927-.119,8.774-.119,8.773.054,8.773.119" transform="translate(-85.535 -104.637)" fill="#e1e1e1"/>
        <rect id="Rectángulo_43413" data-name="Rectángulo 43413" width="2.97" height="6.264" transform="translate(113.783 134.742)" fill="#fafafa"/>
        <path id="Trazado_168868" data-name="Trazado 168868" d="M209.938,258.207c0,.066-3.928.119-8.773.119s-8.774-.053-8.774-.119,3.927-.119,8.774-.119,8.773.053,8.773.119" transform="translate(-85.535 -114.744)" fill="#e1e1e1"/>
        <rect id="Rectángulo_43414" data-name="Rectángulo 43414" width="2.97" height="6.264" transform="translate(113.783 147.368)" fill="#fafafa"/>
        <path id="Trazado_168869" data-name="Trazado 168869" d="M209.938,280.94c0,.066-3.928.119-8.773.119s-8.774-.053-8.774-.119,3.927-.119,8.774-.119,8.773.053,8.773.119" transform="translate(-85.535 -124.85)" fill="#e1e1e1"/>
        <rect id="Rectángulo_43415" data-name="Rectángulo 43415" width="2.97" height="6.264" transform="translate(113.783 159.993)" fill="#fafafa"/>
        <path id="Trazado_168870" data-name="Trazado 168870" d="M115.773,269.705H64.131l-.225-81.617h51.642Z" transform="translate(-28.412 -83.622)" fill="#ececec"/>
        <rect id="Rectángulo_43416" data-name="Rectángulo 43416" width="25.822" height="81.617" transform="translate(61.315 104.466)" fill="#e1e1e1"/>
        <rect id="Rectángulo_43417" data-name="Rectángulo 43417" width="18.236" height="16.068" transform="translate(41.391 88.397)" fill="#ececec"/>
        <rect id="Rectángulo_43418" data-name="Rectángulo 43418" width="4.347" height="16.068" transform="translate(55.28 88.397)" fill="#e1e1e1"/>
        <rect id="Rectángulo_43419" data-name="Rectángulo 43419" width="57.458" height="0.937" transform="translate(31.19 103.528)" fill="#e1e1e1"/>
        <rect id="Rectángulo_43420" data-name="Rectángulo 43420" width="4.371" height="9.217" transform="translate(45.688 111.473)" fill="#fff"/>
        <path id="Trazado_168871" data-name="Trazado 168871" d="M89.727,223.672c0,.1-5.781.176-12.91.176s-12.911-.079-12.911-.176,5.779-.176,12.911-.176,12.91.079,12.91.176" transform="translate(-28.412 -99.364)" fill="#e1e1e1"/>
        <rect id="Rectángulo_43421" data-name="Rectángulo 43421" width="4.371" height="9.217" transform="translate(71.734 111.473)" fill="#f5f5f5"/>
        <path id="Trazado_168872" data-name="Trazado 168872" d="M136.623,223.672c0,.1-5.781.176-12.91.176s-12.912-.079-12.912-.176,5.78-.176,12.912-.176,12.91.079,12.91.176" transform="translate(-49.261 -99.364)" fill="#ececec"/>
        <rect id="Rectángulo_43422" data-name="Rectángulo 43422" width="4.371" height="9.217" transform="translate(71.734 129.774)" fill="#f5f5f5"/>
        <path id="Trazado_168873" data-name="Trazado 168873" d="M136.623,256.621c0,.1-5.781.176-12.91.176s-12.912-.079-12.912-.176,5.78-.176,12.912-.176,12.91.079,12.91.176" transform="translate(-49.261 -114.013)" fill="#ececec"/>
        <rect id="Rectángulo_43423" data-name="Rectángulo 43423" width="4.371" height="9.217" transform="translate(71.734 148.625)" fill="#f5f5f5"/>
        <path id="Trazado_168874" data-name="Trazado 168874" d="M136.623,290.564c0,.1-5.781.176-12.91.176s-12.912-.079-12.912-.176,5.78-.176,12.912-.176,12.91.079,12.91.176" transform="translate(-49.261 -129.104)" fill="#ececec"/>
        <rect id="Rectángulo_43424" data-name="Rectángulo 43424" width="4.371" height="9.217" transform="translate(71.734 167.477)" fill="#f5f5f5"/>
        <path id="Trazado_168875" data-name="Trazado 168875" d="M136.623,324.506c0,.1-5.781.176-12.91.176s-12.912-.079-12.912-.176,5.78-.176,12.912-.176,12.91.079,12.91.176" transform="translate(-49.261 -144.194)" fill="#ececec"/>
        <rect id="Rectángulo_43425" data-name="Rectángulo 43425" width="4.371" height="9.218" transform="translate(45.688 130.052)" fill="#fff"/>
        <path id="Trazado_168876" data-name="Trazado 168876" d="M89.727,257.124c0,.1-5.781.176-12.91.176s-12.911-.079-12.911-.176,5.779-.176,12.911-.176,12.91.079,12.91.176" transform="translate(-28.412 -114.237)" fill="#e1e1e1"/>
        <rect id="Rectángulo_43426" data-name="Rectángulo 43426" width="4.371" height="9.217" transform="translate(45.688 148.632)" fill="#fff"/>
        <path id="Trazado_168877" data-name="Trazado 168877" d="M89.727,290.575c0,.1-5.781.176-12.91.176s-12.911-.079-12.911-.176,5.779-.176,12.911-.176,12.91.079,12.91.176" transform="translate(-28.412 -129.109)" fill="#e1e1e1"/>
        <rect id="Rectángulo_43427" data-name="Rectángulo 43427" width="4.371" height="9.217" transform="translate(45.688 167.211)" fill="#fff"/>
        <path id="Trazado_168878" data-name="Trazado 168878" d="M89.727,324.027c0,.1-5.781.176-12.91.176s-12.911-.079-12.911-.176,5.779-.176,12.911-.176,12.91.079,12.91.176" transform="translate(-28.412 -143.981)" fill="#e1e1e1"/>
        <path id="Trazado_168879" data-name="Trazado 168879" d="M364.427,288.566H312.784l-.225-81.617H364.2Z" transform="translate(-138.961 -92.008)" fill="#ececec"/>
        <rect id="Rectángulo_43428" data-name="Rectángulo 43428" width="25.822" height="81.617" transform="translate(199.419 114.941)" fill="#e1e1e1"/>
        <rect id="Rectángulo_43429" data-name="Rectángulo 43429" width="18.236" height="16.068" transform="translate(179.495 98.873)" fill="#ececec"/>
        <rect id="Rectángulo_43430" data-name="Rectángulo 43430" width="4.347" height="16.068" transform="translate(193.385 98.873)" fill="#e1e1e1"/>
        <rect id="Rectángulo_43431" data-name="Rectángulo 43431" width="57.458" height="0.937" transform="translate(169.295 114.004)" fill="#e1e1e1"/>
        <rect id="Rectángulo_43432" data-name="Rectángulo 43432" width="4.371" height="9.217" transform="translate(183.793 121.949)" fill="#fff"/>
        <path id="Trazado_168880" data-name="Trazado 168880" d="M338.381,242.534c0,.1-5.781.176-12.91.176s-12.911-.079-12.911-.176,5.779-.176,12.911-.176,12.91.079,12.91.176" transform="translate(-138.961 -107.75)" fill="#e1e1e1"/>
        <rect id="Rectángulo_43433" data-name="Rectángulo 43433" width="4.371" height="9.217" transform="translate(209.839 121.949)" fill="#f5f5f5"/>
        <path id="Trazado_168881" data-name="Trazado 168881" d="M385.276,242.534c0,.1-5.781.176-12.91.176s-12.911-.079-12.911-.176,5.779-.176,12.911-.176,12.91.079,12.91.176" transform="translate(-159.81 -107.75)" fill="#ececec"/>
        <rect id="Rectángulo_43434" data-name="Rectángulo 43434" width="4.371" height="9.217" transform="translate(209.839 140.249)" fill="#f5f5f5"/>
        <path id="Trazado_168882" data-name="Trazado 168882" d="M385.276,275.482c0,.1-5.781.176-12.91.176s-12.911-.079-12.911-.176,5.779-.176,12.911-.176,12.91.079,12.91.176" transform="translate(-159.81 -122.399)" fill="#ececec"/>
        <rect id="Rectángulo_43435" data-name="Rectángulo 43435" width="4.371" height="9.217" transform="translate(209.839 159.101)" fill="#f5f5f5"/>
        <path id="Trazado_168883" data-name="Trazado 168883" d="M385.276,309.425c0,.1-5.781.176-12.91.176s-12.911-.079-12.911-.176,5.779-.176,12.911-.176,12.91.079,12.91.176" transform="translate(-159.81 -137.489)" fill="#ececec"/>
        <rect id="Rectángulo_43436" data-name="Rectángulo 43436" width="4.371" height="9.217" transform="translate(209.839 177.953)" fill="#f5f5f5"/>
        <path id="Trazado_168884" data-name="Trazado 168884" d="M385.276,343.368c0,.1-5.781.176-12.91.176s-12.911-.079-12.911-.176,5.779-.176,12.911-.176,12.91.079,12.91.176" transform="translate(-159.81 -152.58)" fill="#ececec"/>
        <rect id="Rectángulo_43437" data-name="Rectángulo 43437" width="4.371" height="9.218" transform="translate(183.793 140.528)" fill="#fff"/>
        <path id="Trazado_168885" data-name="Trazado 168885" d="M338.381,275.985c0,.1-5.781.176-12.91.176s-12.911-.079-12.911-.176,5.779-.176,12.911-.176,12.91.079,12.91.176" transform="translate(-138.961 -122.622)" fill="#e1e1e1"/>
        <rect id="Rectángulo_43438" data-name="Rectángulo 43438" width="4.371" height="9.217" transform="translate(183.793 159.107)" fill="#fff"/>
        <path id="Trazado_168886" data-name="Trazado 168886" d="M338.381,309.437c0,.1-5.781.177-12.91.177s-12.911-.079-12.911-.177,5.779-.176,12.911-.176,12.91.079,12.91.176" transform="translate(-138.961 -137.495)" fill="#e1e1e1"/>
        <rect id="Rectángulo_43439" data-name="Rectángulo 43439" width="4.371" height="9.217" transform="translate(183.793 177.687)" fill="#fff"/>
        <path id="Trazado_168887" data-name="Trazado 168887" d="M338.381,342.888c0,.1-5.781.176-12.91.176s-12.911-.079-12.911-.176,5.779-.176,12.911-.176,12.91.079,12.91.176" transform="translate(-138.961 -152.367)" fill="#e1e1e1"/>
        <path id="Trazado_168888" data-name="Trazado 168888" d="M80.734,85.873c.478-3.474-4.425-6.332-8.11-6.629-1.757-.142-3.582.127-5.246-.453-3.606-1.257-5.047-5.916-8.566-7.4-2.631-1.109-5.66-.122-8.21,1.162s-5.071,2.9-7.921,3.081c-2.478.159-5.17-.76-7.338.45-1.616.9-2.463,2.764-3.952,3.862a9.427,9.427,0,0,1-5.166,1.4,14.552,14.552,0,0,0-5.326.87c-1.646.754-3.008,2.494-2.666,4.273Z" transform="translate(-8.083 -31.526)" fill="#fff"/>
        <path id="Trazado_168889" data-name="Trazado 168889" d="M226.635,80.125l-4.888,90.143h30.007L246.9,80.125Z" transform="translate(-98.587 -35.623)" fill="#fff"/>
        <path id="Trazado_168890" data-name="Trazado 168890" d="M250.873,85.469H230.026l.29-5.344h20.348Z" transform="translate(-102.267 -35.623)" fill="#ff004c"/>
        <path id="Trazado_168891" data-name="Trazado 168891" d="M251.039,112.913H228.459l.388-7.159h21.807Z" transform="translate(-101.571 -47.017)" fill="#ff004c"/>
        <path id="Trazado_168892" data-name="Trazado 168892" d="M251.193,139.388H227.024l.388-7.159H250.88Z" transform="translate(-100.933 -58.788)" fill="#ff004c"/>
        <path id="Trazado_168893" data-name="Trazado 168893" d="M251.345,165.863H225.588l.388-7.159H250.96Z" transform="translate(-100.295 -70.558)" fill="#ff004c"/>
        <path id="Trazado_168894" data-name="Trazado 168894" d="M251.5,192.4l-27.349-.061.358-7.159h26.611Z" transform="translate(-99.656 -82.329)" fill="#ff004c"/>
        <path id="Trazado_168895" data-name="Trazado 168895" d="M251.658,218.935l-28.941-.122.388-7.159h28.161Z" transform="translate(-99.018 -94.099)" fill="#ff004c"/>
        <path id="Trazado_168896" data-name="Trazado 168896" d="M226.516,80.06s.111-.006.336-.008l1.01-.008,3.947-.02,14.977-.045h.077l0,.077c1.076,19.748,2.868,52.611,4.913,90.14l.008.152h-5.017l-25.143,0h-.149l.008-.149c1.426-25.824,2.67-48.372,3.559-64.472.453-8.03.815-14.451,1.064-18.871.128-2.2.226-3.9.293-5.054l.08-1.3c.019-.292.033-.436.033-.436s0,.157-.016.454-.035.744-.062,1.32c-.059,1.164-.145,2.874-.257,5.085-.231,4.429-.566,10.862-.985,18.907-.856,16.078-2.054,38.6-3.427,64.384l-.141-.149,25.143,0h4.864l-.144.152c-1.993-37.532-3.738-70.4-4.787-90.146l.082.077-14.93-.045-3.965-.02-1.023-.008c-.23,0-.352-.008-.352-.008" transform="translate(-98.468 -35.557)" fill="#1a2e35"/>
        <path id="Trazado_168897" data-name="Trazado 168897" d="M249.35,97.939H225.032a2.294,2.294,0,1,1,0-4.587H249.35a2.294,2.294,0,1,1,0,4.587" transform="translate(-99.027 -41.503)" fill="#e1e1e1"/>
        <path id="Trazado_168898" data-name="Trazado 168898" d="M249.234,97.823a4.8,4.8,0,0,0,.624-.118,2.3,2.3,0,0,0,1.35-1.122,2.263,2.263,0,0,0,.241-1.25,2.216,2.216,0,0,0-2.209-2l-2.034.01-22.288.042a2.171,2.171,0,0,0-1.4.516,2.133,2.133,0,0,0-.723,1.279,2.156,2.156,0,0,0,1.337,2.358,3.768,3.768,0,0,0,1.454.15l1.5,0,2.9.005,10.02.031,6.755.046,1.837.027.478.014a.685.685,0,0,1,.163.015.686.686,0,0,1-.163.015l-.478.014-1.837.027L240,97.925l-10.02.031-2.9,0-1.5,0c-.254,0-.5.005-.764,0a2.31,2.31,0,0,1-.793-.163,2.436,2.436,0,0,1,.885-4.706l22.288.043,2.034.011a2.363,2.363,0,0,1,2.067,3.492,2.323,2.323,0,0,1-1.433,1.125,1.759,1.759,0,0,1-.64.062" transform="translate(-98.911 -41.387)" fill="#1a2e35"/>
        <path id="Trazado_168899" data-name="Trazado 168899" d="M11.678,269.209H3.541A3.545,3.545,0,0,1,0,265.668v-49.5a3.545,3.545,0,0,1,3.541-3.541H14.059a3.545,3.545,0,0,1,3.541,3.541v7.318H16.489v-7.318a2.433,2.433,0,0,0-2.43-2.43H3.541a2.433,2.433,0,0,0-2.43,2.43v49.5a2.433,2.433,0,0,0,2.43,2.43h8.137Z" transform="translate(0 -94.534)" fill="#e1e1e1"/>
        <rect id="Rectángulo_43440" data-name="Rectángulo 43440" width="11.466" height="1.111" transform="translate(0.906 162.651)" fill="#e1e1e1"/>
        <rect id="Rectángulo_43441" data-name="Rectángulo 43441" width="11.466" height="1.111" transform="translate(0.906 153.131)" fill="#e1e1e1"/>
        <rect id="Rectángulo_43442" data-name="Rectángulo 43442" width="11.466" height="1.111" transform="translate(0.906 143.61)" fill="#e1e1e1"/>
        <rect id="Rectángulo_43443" data-name="Rectángulo 43443" width="11.466" height="1.111" transform="translate(0.906 134.09)" fill="#e1e1e1"/>
        <path id="Trazado_168900" data-name="Trazado 168900" d="M21.277,319.147V215.175l48.657-23.56v24.072l51.73-24.072V216.2h103.46V319.147Z" transform="translate(-9.46 -85.19)" fill="#febf10"/>
        <rect id="Rectángulo_43444" data-name="Rectángulo 43444" width="169.162" height="27.894" transform="translate(24.35 160.172)" fill="#fff"/>
        <path id="Trazado_168901" data-name="Trazado 168901" d="M218.887,313.382c0,.08-39.482.144-88.176.144-48.709,0-88.183-.064-88.183-.144s39.474-.144,88.183-.144c48.693,0,88.176.064,88.176.144" transform="translate(-18.908 -139.263)" fill="#ff735d"/>
        <path id="Trazado_168902" data-name="Trazado 168902" d="M61.969,314.679a1.637,1.637,0,0,1,.031.366c.007.274.017.624.028,1.06H61.91c-.05-2.463-.085-8.013-.085-14.46.016-4.371.031-8.325.042-11.235.019-1.408.034-2.562.046-3.4.011-.376.02-.683.027-.926a1.379,1.379,0,0,1,.029-.323,1.355,1.355,0,0,1,.029.323c.007.243.016.55.027.926.012.843.027,2,.046,3.4.011,2.91.026,6.865.042,11.235,0,6.447-.035,12-.085,14.46H61.91c.012-.436.021-.786.028-1.06a1.637,1.637,0,0,1,.031-.366" transform="translate(-27.487 -127.045)" fill="#ff735d"/>
        <path id="Trazado_168903" data-name="Trazado 168903" d="M83.994,314.238a1.636,1.636,0,0,1,.031.366c.007.274.017.624.028,1.06h-.119c-.05-2.463-.085-8.013-.085-14.46.016-4.371.031-8.325.042-11.235.019-1.408.034-2.562.046-3.4.011-.376.02-.683.027-.926a1.378,1.378,0,0,1,.029-.323,1.355,1.355,0,0,1,.029.323c.007.243.016.55.027.926.012.843.027,2,.046,3.4.011,2.91.026,6.865.042,11.235,0,6.447-.035,12-.085,14.46h-.119c.012-.436.021-.786.029-1.06a1.62,1.62,0,0,1,.031-.366" transform="translate(-37.279 -126.849)" fill="#ff735d"/>
        <path id="Trazado_168904" data-name="Trazado 168904" d="M106.019,315.209a1.455,1.455,0,0,1,.031.346c.008.261.017.592.029,1h-.119c-.051-2.328-.085-7.574-.085-13.667.016-4.128.031-7.864.042-10.619.019-1.327.034-2.417.046-3.218.011-.353.02-.643.027-.875a1.213,1.213,0,0,1,.029-.3,1.235,1.235,0,0,1,.029.3c.007.232.017.522.027.875.012.8.027,1.891.046,3.218.011,2.755.026,6.491.042,10.619,0,6.093-.035,11.339-.085,13.667h-.119c.012-.41.021-.741.028-1a1.467,1.467,0,0,1,.031-.346" transform="translate(-47.071 -127.986)" fill="#ff735d"/>
        <path id="Trazado_168905" data-name="Trazado 168905" d="M128.045,313.356a1.637,1.637,0,0,1,.031.366c.007.274.017.624.028,1.06h-.119c-.05-2.463-.085-8.013-.085-14.46.016-4.37.031-8.325.042-11.235.019-1.408.034-2.562.046-3.4.011-.376.02-.683.027-.926a1.379,1.379,0,0,1,.029-.323,1.356,1.356,0,0,1,.029.323c.007.243.016.55.027.926.012.843.027,2,.046,3.4.011,2.91.026,6.865.042,11.235,0,6.447-.035,12-.085,14.46h-.119c.012-.436.021-.786.029-1.06a1.619,1.619,0,0,1,.031-.366" transform="translate(-56.864 -126.457)" fill="#ff735d"/>
        <path id="Trazado_168906" data-name="Trazado 168906" d="M150.07,314.742a1.414,1.414,0,0,1,.031.34c.007.258.017.583.028.985h-.119c-.05-2.288-.085-7.445-.085-13.434.016-4.057.031-7.729.042-10.438.019-1.3.034-2.374.046-3.163.011-.346.02-.63.027-.86a1.2,1.2,0,0,1,.029-.3,1.175,1.175,0,0,1,.029.3c.007.229.016.513.027.86.012.789.027,1.859.046,3.163.011,2.709.026,6.381.042,10.438,0,5.989-.035,11.145-.085,13.434h-.119c.012-.4.021-.728.028-.985a1.416,1.416,0,0,1,.031-.34" transform="translate(-66.656 -127.986)" fill="#ff735d"/>
        <path id="Trazado_168907" data-name="Trazado 168907" d="M172.1,313.7a1.762,1.762,0,0,1,.031.38c.007.283.017.647.028,1.1h-.119c-.05-2.558-.085-8.32-.085-15.013.016-4.539.031-8.646.042-11.665.019-1.464.034-2.662.046-3.535.011-.392.02-.71.027-.961a1.485,1.485,0,0,1,.029-.335,1.459,1.459,0,0,1,.029.335c.007.251.016.569.027.961.012.873.027,2.071.046,3.535.011,3.019.026,7.126.042,11.665,0,6.693-.035,12.455-.085,15.013h-.119c.012-.455.021-.819.028-1.1a1.765,1.765,0,0,1,.031-.38" transform="translate(-76.448 -126.117)" fill="#ff735d"/>
        <path id="Trazado_168908" data-name="Trazado 168908" d="M194.12,314.374a1.378,1.378,0,0,1,.031.335c.007.255.017.575.028.972h-.119c-.05-2.257-.085-7.343-.085-13.25,0-4.021.016-7.661.042-10.3.019-1.285.034-2.34.046-3.12.011-.341.019-.622.027-.848a1.13,1.13,0,0,1,.029-.3,1.138,1.138,0,0,1,.029.3c.007.227.016.507.027.848.012.779.027,1.834.046,3.12.026,2.634.042,6.274.042,10.3,0,5.907-.035,10.993-.085,13.25h-.119c.012-.4.021-.717.029-.972a1.367,1.367,0,0,1,.031-.335" transform="translate(-86.24 -127.986)" fill="#ff735d"/>
        <path id="Trazado_168909" data-name="Trazado 168909" d="M216.146,315.675a1.5,1.5,0,0,1,.031.345c.007.261.017.591.028,1h-.119c-.05-2.324-.085-7.561-.085-13.643.017-4.122.031-7.851.042-10.6.019-1.326.034-2.413.046-3.212.011-.353.021-.641.028-.874a1.2,1.2,0,0,1,.029-.3,1.232,1.232,0,0,1,.029.3c.007.232.016.521.027.874.011.8.027,1.887.046,3.212.011,2.75.026,6.479.043,10.6,0,6.082-.034,11.319-.086,13.643h-.119c.012-.409.022-.739.029-1a1.386,1.386,0,0,1,.031-.345" transform="translate(-96.032 -128.214)" fill="#ff735d"/>
        <path id="Trazado_168910" data-name="Trazado 168910" d="M238.171,315.431a1.431,1.431,0,0,1,.031.342c.007.259.017.587.028.992h-.119c-.05-2.3-.085-7.494-.085-13.521.016-4.084.031-7.78.042-10.506.019-1.312.034-2.39.046-3.183.011-.349.02-.635.027-.866a1.209,1.209,0,0,1,.029-.3,1.186,1.186,0,0,1,.029.3c.007.23.016.517.027.866.012.793.027,1.871.046,3.183.011,2.727.026,6.422.042,10.506,0,6.028-.035,11.218-.085,13.521h-.119c.012-.405.021-.733.028-.992a1.435,1.435,0,0,1,.031-.342" transform="translate(-105.825 -128.214)" fill="#ff735d"/>
        <path id="Trazado_168911" data-name="Trazado 168911" d="M260.2,315.186a1.41,1.41,0,0,1,.031.339c.007.258.017.582.028.983h-.119c-.05-2.282-.085-7.426-.085-13.4.016-4.047.031-7.708.042-10.411.019-1.3.034-2.368.046-3.155.011-.345.019-.629.027-.858a.151.151,0,1,1,.058,0c.008.229.017.512.027.858.012.787.027,1.855.046,3.155.011,2.7.026,6.363.042,10.411,0,5.973-.035,11.117-.085,13.4h-.119c.012-.4.021-.725.028-.983a1.409,1.409,0,0,1,.031-.339" transform="translate(-115.617 -128.214)" fill="#ff735d"/>
        <path id="Trazado_168912" data-name="Trazado 168912" d="M282.221,314.943a1.389,1.389,0,0,1,.031.336c.007.256.017.577.028.974h-.119c-.05-2.262-.085-7.358-.085-13.277,0-4.029.016-7.676.042-10.316.019-1.288.034-2.346.046-3.126.011-.342.02-.623.027-.85a1.172,1.172,0,0,1,.029-.3,1.15,1.15,0,0,1,.029.3c.007.227.016.508.027.85.012.78.027,1.838.046,3.126.026,2.64.042,6.287.042,10.316,0,5.919-.034,11.015-.085,13.277h-.119c.012-.4.021-.718.029-.974a1.374,1.374,0,0,1,.031-.336" transform="translate(-125.409 -128.214)" fill="#ff735d"/>
        <path id="Trazado_168913" data-name="Trazado 168913" d="M304.246,314.7a1.359,1.359,0,0,1,.031.333c.007.254.017.572.028.965h-.119c-.05-2.241-.085-7.291-.085-13.155,0-3.992.016-7.605.042-10.221.019-1.275.034-2.323.046-3.1.011-.339.02-.617.027-.843a1.144,1.144,0,0,1,.029-.293,1.123,1.123,0,0,1,.029.293c.007.226.016.5.027.843.012.774.027,1.821.046,3.1.026,2.616.042,6.229.042,10.221,0,5.865-.035,10.914-.085,13.155h-.119c.012-.393.021-.711.028-.965a1.359,1.359,0,0,1,.031-.333" transform="translate(-135.201 -128.214)" fill="#ff735d"/>
        <path id="Trazado_168914" data-name="Trazado 168914" d="M326.272,314.5a1.339,1.339,0,0,1,.031.331c.007.252.017.568.028.958h-.119c-.05-2.224-.085-7.236-.085-13.058,0-3.962.016-7.549.042-10.145.019-1.266.034-2.306.046-3.075.011-.335.02-.612.027-.836a1.124,1.124,0,0,1,.029-.291,1.092,1.092,0,0,1,.029.291c.008.224.017.5.027.836.012.769.027,1.809.046,3.075.026,2.6.042,6.183.042,10.145,0,5.821-.034,10.834-.085,13.058h-.119c.012-.39.021-.705.028-.958a1.338,1.338,0,0,1,.031-.331" transform="translate(-144.994 -128.214)" fill="#ff735d"/>
        <g id="Grupo_118823" data-name="Grupo 118823" transform="translate(61.863 149.14)" opacity="0.3">
          <g id="Grupo_118822" data-name="Grupo 118822">
            <g id="Grupo_118821" data-name="Grupo 118821" clip-path="url(#clip-path-3)">
              <path id="Trazado_168915" data-name="Trazado 168915" d="M120.5,353.339h-9.121V273.083a4.561,4.561,0,1,1,9.121,0Z" transform="translate(-111.383 -268.522)"/>
            </g>
          </g>
        </g>
        <g id="Grupo_118826" data-name="Grupo 118826" transform="translate(85.628 149.14)" opacity="0.3">
          <g id="Grupo_118825" data-name="Grupo 118825">
            <g id="Grupo_118824" data-name="Grupo 118824" clip-path="url(#clip-path-3)">
              <path id="Trazado_168916" data-name="Trazado 168916" d="M163.292,353.339h-9.121V273.083a4.561,4.561,0,1,1,9.121,0Z" transform="translate(-154.171 -268.522)"/>
            </g>
          </g>
        </g>
        <path id="Trazado_168917" data-name="Trazado 168917" d="M111.548,349.358h-9.122v-85.23a4.561,4.561,0,0,1,9.122,0Z" transform="translate(-45.538 -115.401)" fill="#375a64"/>
        <path id="Trazado_168918" data-name="Trazado 168918" d="M152.881,349.358H143.76v-85.23a4.561,4.561,0,0,1,9.121,0Z" transform="translate(-63.914 -115.401)" fill="#375a64"/>
        <g id="Grupo_118829" data-name="Grupo 118829" transform="translate(12.373 106.425)" opacity="0.3">
          <g id="Grupo_118828" data-name="Grupo 118828">
            <g id="Grupo_118827" data-name="Grupo 118827" clip-path="url(#clip-path-5)">
              <path id="Trazado_168919" data-name="Trazado 168919" d="M22.277,215.175l48.1-19.915v-3.645Z" transform="translate(-22.277 -191.615)"/>
            </g>
          </g>
        </g>
        <g id="Grupo_118832" data-name="Grupo 118832" transform="translate(62.192 106.907)" opacity="0.3">
          <g id="Grupo_118831" data-name="Grupo 118831">
            <g id="Grupo_118830" data-name="Grupo 118830" clip-path="url(#clip-path-6)">
              <path id="Trazado_168920" data-name="Trazado 168920" d="M111.975,215.856l50.012-19.728v-3.645Z" transform="translate(-111.975 -192.483)"/>
            </g>
          </g>
        </g>
        <rect id="Rectángulo_43449" data-name="Rectángulo 43449" width="56.767" height="1.111" transform="matrix(0.899, -0.438, 0.438, 0.899, 11.574, 129.486)" fill="#1a2e35"/>
        <rect id="Rectángulo_43450" data-name="Rectángulo 43450" width="57.057" height="1.111" transform="translate(60.244 130.003) rotate(-24.975)" fill="#1a2e35"/>
        <g id="Grupo_118835" data-name="Grupo 118835" transform="translate(11.671 142.74)" opacity="0.3">
          <g id="Grupo_118834" data-name="Grupo 118834">
            <g id="Grupo_118833" data-name="Grupo 118833" clip-path="url(#clip-path-7)">
              <path id="Trazado_168921" data-name="Trazado 168921" d="M34.942,262.646a3.314,3.314,0,0,1-.021-.4c-.007-.279-.015-.643-.025-1.1-.013-.97-.032-2.318-.055-3.976l.1.1-13.781.044c-.13.129.175-.177.144-.144V258.6q0,.7,0,1.391c0,.914,0,1.8,0,2.658l-.139-.139,9.84.066,2.881.038.78.018a1.972,1.972,0,0,1,.282.017,1.235,1.235,0,0,1-.248.017l-.751.018-2.85.038-9.933.065h-.138v-.139c0-.854,0-1.743,0-2.658q0-.687,0-1.391v-1.421c-.032.031.274-.274.146-.145l13.781.044h.1v.1c-.023,1.683-.042,3.053-.055,4.037-.01.444-.018.8-.025,1.074a2.232,2.232,0,0,1-.021.358" transform="translate(-21.013 -257)"/>
            </g>
          </g>
        </g>
        <g id="Grupo_118838" data-name="Grupo 118838" transform="translate(18.04 137.472)" opacity="0.3">
          <g id="Grupo_118837" data-name="Grupo 118837">
            <g id="Grupo_118836" data-name="Grupo 118836" clip-path="url(#clip-path-8)">
              <rect id="Rectángulo_43452" data-name="Rectángulo 43452" width="13.782" height="5.47" transform="translate(0 -0.001)"/>
            </g>
          </g>
        </g>
        <g id="Grupo_118841" data-name="Grupo 118841" transform="translate(113.573 217.324)" opacity="0.3">
          <g id="Grupo_118840" data-name="Grupo 118840">
            <g id="Grupo_118839" data-name="Grupo 118839" clip-path="url(#clip-path-9)">
              <path id="Trazado_168922" data-name="Trazado 168922" d="M218.414,396.932a3.29,3.29,0,0,1-.021-.4c-.007-.279-.015-.643-.025-1.1-.013-.969-.032-2.318-.055-3.976l.1.1-13.781.044c-.13.129.175-.177.144-.144v1.421q0,.7,0,1.391c0,.914,0,1.8,0,2.658l-.139-.139,9.84.066,2.881.038.78.018a1.972,1.972,0,0,1,.282.017,1.235,1.235,0,0,1-.248.017l-.751.018-2.85.038-9.933.066h-.138v-.139c0-.854,0-1.743,0-2.658q0-.686,0-1.391,0-.352,0-.708v-.713c-.032.031.274-.274.146-.145l13.781.044h.1v.1c-.023,1.683-.042,3.053-.055,4.037-.01.444-.018.8-.025,1.074a2.223,2.223,0,0,1-.021.358" transform="translate(-204.485 -391.286)"/>
            </g>
          </g>
        </g>
        <g id="Grupo_118844" data-name="Grupo 118844" transform="translate(119.942 212.055)" opacity="0.3">
          <g id="Grupo_118843" data-name="Grupo 118843">
            <g id="Grupo_118842" data-name="Grupo 118842" clip-path="url(#clip-path-10)">
              <rect id="Rectángulo_43455" data-name="Rectángulo 43455" width="13.782" height="5.47" transform="translate(0 0)"/>
            </g>
          </g>
        </g>
        <g id="Grupo_118847" data-name="Grupo 118847" transform="translate(30.293 200.427)" opacity="0.3">
          <g id="Grupo_118846" data-name="Grupo 118846">
            <g id="Grupo_118845" data-name="Grupo 118845" clip-path="url(#clip-path-9)">
              <path id="Trazado_168923" data-name="Trazado 168923" d="M68.471,366.51a3.174,3.174,0,0,1-.021-.4c-.007-.279-.015-.643-.025-1.1-.013-.97-.032-2.318-.055-3.976l.1.1-13.781.044c-.13.129.175-.177.143-.144v1.421q0,.7,0,1.391c0,.914,0,1.8,0,2.658l-.139-.139,9.84.066,2.881.038.78.018a1.972,1.972,0,0,1,.282.017,1.235,1.235,0,0,1-.248.017l-.751.018-2.85.038-9.933.065H54.55v-.139c0-.854,0-1.743,0-2.658q0-.686,0-1.391v-1.421c-.032.031.274-.274.146-.145l13.781.044h.1l0,.1c-.023,1.683-.041,3.053-.054,4.037-.01.444-.018.8-.025,1.074a2.235,2.235,0,0,1-.021.359" transform="translate(-54.542 -360.864)"/>
            </g>
          </g>
        </g>
        <g id="Grupo_118850" data-name="Grupo 118850" transform="translate(88.399 133.63)" opacity="0.3">
          <g id="Grupo_118849" data-name="Grupo 118849">
            <g id="Grupo_118848" data-name="Grupo 118848" clip-path="url(#clip-path-9)">
              <path id="Trazado_168924" data-name="Trazado 168924" d="M173.089,246.243a3.131,3.131,0,0,1-.021-.4c-.007-.279-.015-.643-.025-1.1-.013-.969-.032-2.318-.055-3.976l.1.1-13.781.044c-.13.129.175-.177.143-.145v1.421q0,.7,0,1.391c0,.914,0,1.8,0,2.657l-.139-.139,9.84.066,2.881.038.78.018a2.15,2.15,0,0,1,.282.017,1.148,1.148,0,0,1-.248.018l-.751.018-2.85.038-9.934.065h-.138v-.14c0-.854,0-1.743,0-2.657q0-.686,0-1.391v-1.421c-.032.031.274-.274.146-.144l13.781.044h.1l0,.1c-.023,1.683-.041,3.053-.054,4.037-.01.443-.018.8-.025,1.074a2.214,2.214,0,0,1-.021.358" transform="translate(-159.16 -240.597)"/>
            </g>
          </g>
        </g>
        <g id="Grupo_118853" data-name="Grupo 118853" transform="translate(171.405 141.896)" opacity="0.3">
          <g id="Grupo_118852" data-name="Grupo 118852">
            <g id="Grupo_118851" data-name="Grupo 118851" clip-path="url(#clip-path-9)">
              <path id="Trazado_168925" data-name="Trazado 168925" d="M322.54,261.127a3.267,3.267,0,0,1-.021-.4c-.007-.279-.015-.643-.025-1.1-.013-.969-.032-2.318-.055-3.976l.1.1-13.781.044c-.13.129.175-.177.144-.145v1.421q0,.7,0,1.391c0,.914,0,1.8,0,2.657l-.139-.139,9.84.066,2.881.038.78.018a2.15,2.15,0,0,1,.282.017,1.148,1.148,0,0,1-.248.018l-.751.018-2.85.038-9.933.065h-.138v-.14c0-.854,0-1.743,0-2.657q0-.686,0-1.391v-1.421c-.032.031.274-.274.146-.144l13.781.044h.1v.1c-.023,1.683-.042,3.053-.055,4.037-.01.444-.018.8-.025,1.074a2.213,2.213,0,0,1-.021.358" transform="translate(-308.611 -255.481)"/>
            </g>
          </g>
        </g>
        <g id="Grupo_118856" data-name="Grupo 118856" transform="translate(193.147 193.446)" opacity="0.3">
          <g id="Grupo_118855" data-name="Grupo 118855">
            <g id="Grupo_118854" data-name="Grupo 118854" clip-path="url(#clip-path-7)">
              <path id="Trazado_168926" data-name="Trazado 168926" d="M361.686,353.941a3.3,3.3,0,0,1-.021-.4c-.007-.279-.015-.643-.025-1.1-.013-.969-.032-2.318-.055-3.976l.1.1-13.781.044c-.13.129.175-.177.143-.144v1.421q0,.7,0,1.391c0,.914,0,1.8,0,2.658l-.139-.139,9.84.066,2.881.038.78.018a1.963,1.963,0,0,1,.282.017,1.235,1.235,0,0,1-.248.017l-.751.018-2.85.038-9.933.066h-.138v-.139c0-.854,0-1.743,0-2.658q0-.686,0-1.391v-1.421c-.032.031.274-.274.146-.145l13.781.044h.1v.1c-.023,1.683-.042,3.052-.055,4.037-.01.444-.018.8-.025,1.074a2.238,2.238,0,0,1-.021.358" transform="translate(-347.756 -348.295)"/>
            </g>
          </g>
        </g>
        <g id="Grupo_118859" data-name="Grupo 118859" transform="translate(119.725 148.529)" opacity="0.3">
          <g id="Grupo_118858" data-name="Grupo 118858">
            <g id="Grupo_118857" data-name="Grupo 118857" clip-path="url(#clip-path-10)">
              <rect id="Rectángulo_43461" data-name="Rectángulo 43461" width="13.782" height="5.47"/>
            </g>
          </g>
        </g>
        <g id="Grupo_118862" data-name="Grupo 118862" transform="translate(185.334 136.74)" opacity="0.3">
          <g id="Grupo_118861" data-name="Grupo 118861">
            <g id="Grupo_118860" data-name="Grupo 118860" clip-path="url(#clip-path-10)">
              <rect id="Rectángulo_43463" data-name="Rectángulo 43463" width="13.782" height="5.47" transform="translate(0 0)"/>
            </g>
          </g>
        </g>
        <rect id="Rectángulo_43465" data-name="Rectángulo 43465" width="30.345" height="30.345" transform="translate(144.58 203.612)" fill="#1a2e35"/>
      </g>
    </g>
  </g>
</svg>
