<svg xmlns="http://www.w3.org/2000/svg" xmlns:xlink="http://www.w3.org/1999/xlink" width="104" height="104" viewBox="0 0 104 104">
  <defs>
    <clipPath id="clip-path">
      <rect id="Rectángulo_43271" data-name="Rectángulo 43271" width="68.922" height="68.922" fill="none"/>
    </clipPath>
  </defs>
  <g id="Grupo_129708" data-name="Grupo 129708" transform="translate(-747 -3624.431)">
    <g id="Dots_4" data-name="Dots 4" transform="translate(794.96 3636.147)">
      <circle id="Elipse_22" data-name="Elipse 22" cx="2.52" cy="2.52" r="2.52" transform="translate(0 10.74)" fill="#242ca3"/>
      <circle id="Elipse_23" data-name="Elipse 23" cx="2.5" cy="2.5" r="2.5" transform="translate(-0.143 -0.166)" fill="#242ca3"/>
      <circle id="Elipse_21" data-name="Elipse 21" cx="2.52" cy="2.52" r="2.52" transform="translate(0 21.481)" fill="#242ca3"/>
      <circle id="Elipse_20" data-name="Elipse 20" cx="2.52" cy="2.52" r="2.52" transform="translate(0 32.221)" fill="#242ca3"/>
    </g>
    <g id="Elipse_7125" data-name="Elipse 7125" transform="translate(747 3624.431)" fill="#fff" stroke="#2631a0" stroke-width="4">
      <circle cx="52" cy="52" r="52" stroke="none"/>
      <circle cx="52" cy="52" r="50" fill="none"/>
    </g>
    <g id="Grupo_129633" data-name="Grupo 129633" transform="translate(760.411 3641.569)">
      <g id="Grupo_118706" data-name="Grupo 118706" transform="translate(0 0)" clip-path="url(#clip-path)">
        <path id="Trazado_167783" data-name="Trazado 167783" d="M26.25,41.246l1.667,1.667L26.25,44.581v10H10.688v-9.36A6.684,6.684,0,0,1,15.6,38.789l4.568-1.245L21.8,45.692Z" transform="translate(3.764 13.223)" fill="#fece47"/>
        <path id="Trazado_167784" data-name="Trazado 167784" d="M31.09,54.586H22.2v-10l1.667-1.667,2.78,2.779,1.633-8.148,7.2,1.967,2.28,2.846V54.586Z" transform="translate(7.817 13.224)" fill="#fece47"/>
        <path id="Trazado_167785" data-name="Trazado 167785" d="M28.277,37.739l-1.633,8.148-2.78-2.779L22.2,41.441l3.335-4.447Z" transform="translate(7.818 13.03)" fill="#fece47"/>
        <path id="Trazado_167786" data-name="Trazado 167786" d="M20.446,36.994,23.78,41.44l-4.446,4.447L17.7,37.739Z" transform="translate(6.234 13.03)" fill="#fece47"/>
        <path id="Trazado_167787" data-name="Trazado 167787" d="M49.877,33.728a6.669,6.669,0,0,1,4.835,6.413v.679a3.482,3.482,0,0,0-3.49-3.49h-.055a3.61,3.61,0,0,0-1.69.433l-8.393,4.669a7.107,7.107,0,0,0-.778.5l-.045-.045-3.079-4.1a4.5,4.5,0,0,1,1.044-1.646l2.035-2.035,2.223,2.224,4.446-4.447Z" transform="translate(13.096 11.582)" fill="#fece47"/>
        <path id="Trazado_167788" data-name="Trazado 167788" d="M37.35,46.746a7.557,7.557,0,0,0,6.892-.178l8.715-4.757a3.478,3.478,0,0,0,1.823-3.057V54.16H36.994V46.546a2.194,2.194,0,0,0,.356.2" transform="translate(13.029 13.649)" fill="#fece47"/>
        <path id="Trazado_167789" data-name="Trazado 167789" d="M42.753,42.643a7.107,7.107,0,0,1,.778-.5l8.393-4.669a3.614,3.614,0,0,1,1.69-.433h.055a3.485,3.485,0,0,1,1.667,6.547l-8.715,4.757a7.623,7.623,0,0,1-3.613.924,7.705,7.705,0,0,1-3.279-.745,2.24,2.24,0,0,1-.356-.2,7.25,7.25,0,0,1-2.268-1.89l-2.18-2.723-2.278-2.845-2.412-3.013,5.8-4.147L39.63,38.5l3.079,4.1Z" transform="translate(10.649 11.871)" fill="#fece47"/>
        <path id="Trazado_167790" data-name="Trazado 167790" d="M19.73,37.77V34.791a7.639,7.639,0,0,0,3.335.756A7.793,7.793,0,0,0,26.4,34.8V37.77l-3.336,4.446Z" transform="translate(6.949 12.254)" fill="#f0d0b4"/>
        <path id="Trazado_167791" data-name="Trazado 167791" d="M27.5,9.622V18.56a10.872,10.872,0,0,0-5.658,2.178H13.05v3.068a1.374,1.374,0,0,1-2.6.622L8.6,20.738H3.045A2.23,2.23,0,0,1,.822,18.515V9.622A2.23,2.23,0,0,1,3.045,7.4H25.278A2.23,2.23,0,0,1,27.5,9.622" transform="translate(0.29 2.606)" fill="#c6c8e9"/>
        <path id="Trazado_167792" data-name="Trazado 167792" d="M25.485,11.938V3.045A2.23,2.23,0,0,1,27.708.822H49.941a2.23,2.23,0,0,1,2.223,2.223v8.893a2.23,2.23,0,0,1-2.223,2.223H34.378V17.23a1.374,1.374,0,0,1-2.6.623l-1.846-3.692H27.708a2.23,2.23,0,0,1-2.223-2.223" transform="translate(8.976 0.29)" fill="#c6c8e9"/>
        <path id="Trazado_167793" data-name="Trazado 167793" d="M16.489,28.959a3.294,3.294,0,0,0-2.69,1.367,11.174,11.174,0,0,1-.645-3.746,10.891,10.891,0,0,1,3.213-7.748,10.625,10.625,0,0,1,1.133-.99,10.881,10.881,0,0,1,5.659-2.178,8.9,8.9,0,0,1,.956-.045h2.534A10.955,10.955,0,0,1,37.61,26.581a11.208,11.208,0,0,1-.645,3.746,3.72,3.72,0,0,0-.334-.389,3.331,3.331,0,0,0-2.357-.978H33.162a18.756,18.756,0,0,1-7.781-4.446A18.765,18.765,0,0,1,17.6,28.959Z" transform="translate(4.633 5.502)" fill="#b27946"/>
        <path id="Trazado_167794" data-name="Trazado 167794" d="M55.939,25.891a10.242,10.242,0,0,1-4.3,8.359l-3.481,2.491V32.294l1.569-1.567a2.232,2.232,0,0,0,.656-1.578v-.189a2.181,2.181,0,0,0-.656-1.578,2.21,2.21,0,0,0-1.569-.645V24.513a2.223,2.223,0,0,0-2.223-2.224H38.153s-4.447,0-4.447-3.335a3.34,3.34,0,0,1,3.335-3.335h8.627A10.275,10.275,0,0,1,55.939,25.891Z" transform="translate(11.871 5.502)" fill="#656d78"/>
        <path id="Trazado_167795" data-name="Trazado 167795" d="M17.689,32.154h-1.2a3.332,3.332,0,0,1-2.69-5.3,3.294,3.294,0,0,1,2.69-1.368H17.6v5.559A6.127,6.127,0,0,0,17.689,32.154Z" transform="translate(4.633 8.976)" fill="#f0d0b4"/>
        <path id="Trazado_167796" data-name="Trazado 167796" d="M27.558,39.238a7.787,7.787,0,0,1-3.335.745,7.645,7.645,0,0,1-3.336-.756,7.728,7.728,0,0,1-4.357-5.915,6.117,6.117,0,0,1-.089-1.112V26.643A18.759,18.759,0,0,0,24.224,22.2,18.75,18.75,0,0,0,32,26.643V32.2a8.505,8.505,0,0,1-.088,1.2l-.234.234a2.674,2.674,0,0,0-.79,1.9V35.7a2.069,2.069,0,0,0,.045.445h-.011a7.786,7.786,0,0,1-2.791,2.779C27.948,39.038,27.759,39.138,27.558,39.238Z" transform="translate(5.791 7.818)" fill="#f0d0b4"/>
        <path id="Trazado_167797" data-name="Trazado 167797" d="M27.974,31.043V25.485h1.112a3.328,3.328,0,0,1,2.357.978,3.609,3.609,0,0,1,.334.389,3.336,3.336,0,0,1-.445,4.435,2.812,2.812,0,0,0-1.134-.245,2.679,2.679,0,0,0-1.9.79l-.411.411A8.5,8.5,0,0,0,27.974,31.043Z" transform="translate(9.821 8.976)" fill="#f0d0b4"/>
        <path id="Trazado_167798" data-name="Trazado 167798" d="M31.6,29.84l.767.545.323.322.433-.222a2.774,2.774,0,0,1,4.013,2.479v2.191l-5.8,4.146-3.613-4.524a2.62,2.62,0,0,1-.545-1.233,1.987,1.987,0,0,1-.045-.445V32.93a2.674,2.674,0,0,1,.79-1.9l.234-.234.411-.411a2.674,2.674,0,0,1,1.9-.79A2.812,2.812,0,0,1,31.6,29.84Z" transform="translate(9.555 10.424)" fill="#f0d0b4"/>
        <path id="Trazado_167799" data-name="Trazado 167799" d="M47.867,35v2.223l-4.446,4.447L41.2,39.449V36.081a3.783,3.783,0,0,1-3.335-3.756v-.656l-3.335-1.112a18.56,18.56,0,0,1,3.335-10h7.782a2.222,2.222,0,0,1,2.223,2.223V25a2.209,2.209,0,0,1,1.567.645,2.181,2.181,0,0,1,.656,1.578v.189a2.224,2.224,0,0,1-.656,1.578l-1.567,1.569Z" transform="translate(12.161 7.239)" fill="#f0d0b4"/>
        <path id="Trazado_167800" data-name="Trazado 167800" d="M38.928,23.84a1.112,1.112,0,1,1-1.112,1.112,1.111,1.111,0,0,1,1.112-1.112" transform="translate(13.319 8.397)"/>
        <path id="Trazado_167801" data-name="Trazado 167801" d="M63.279,41.921l-2.139-.613V40.5l3.013-2.153a11.386,11.386,0,0,0-6.618-20.651H48.912a4.451,4.451,0,0,0-4.447,4.446A4.1,4.1,0,0,0,47.409,26.1a7.145,7.145,0,0,0,.756.231,19.01,19.01,0,0,0-2.588,9.149v.8l3.336,1.113a4.934,4.934,0,0,0,1.436,3.318,4.864,4.864,0,0,0,1.9,1.16v2.04L50.54,45.618a5.527,5.527,0,0,0-.376.421L47.8,42.889V41.072a3.877,3.877,0,0,0-4.848-3.755,4.475,4.475,0,0,0,.4-1.838A4.387,4.387,0,0,0,42.8,33.37,12.059,12.059,0,0,0,31.283,17.692H28.9V9.911a3.339,3.339,0,0,0-3.335-3.335H3.335A3.339,3.339,0,0,0,0,9.911V18.8a3.338,3.338,0,0,0,3.335,3.335H8.205l1.537,3.074A2.485,2.485,0,0,0,14.451,24.1V22.138H19.4a12.012,12.012,0,0,0-2.722,7.624,12.163,12.163,0,0,0,.556,3.608,4.387,4.387,0,0,0-.556,2.109,4.451,4.451,0,0,0,4.446,4.446h.293a8.914,8.914,0,0,0,4.154,5.467v1.466l-6.495,1.771a7.8,7.8,0,0,0-5.733,7.507V66.6H46.689V56.434l.2.247a8.679,8.679,0,0,0,2.024,1.835V66.6H68.92V49.4A7.809,7.809,0,0,0,63.279,41.921ZM46.689,22.138a2.226,2.226,0,0,1,2.223-2.223h8.623a9.163,9.163,0,0,1,5.325,16.62l-1.72,1.229V35.938l1.245-1.245a3.31,3.31,0,0,0,.978-2.358v-.192A3.339,3.339,0,0,0,61.14,29V27.7a3.339,3.339,0,0,0-3.335-3.335H50.026C49.889,24.36,46.689,24.316,46.689,22.138Zm4.446,15.1V35.788l-3.31-1.1a17.761,17.761,0,0,1,2.787-8.1h7.194A1.112,1.112,0,0,1,58.917,27.7v3.335h1.112a1.113,1.113,0,0,1,1.112,1.112v.192a1.12,1.12,0,0,1-.326.786l-1.9,1.9v6.67l-3.336,3.336L54.469,43.91V42.147h2.223V39.924H53.819a2.665,2.665,0,0,1-1.9-.786A2.7,2.7,0,0,1,51.135,37.241Zm.976,9.948,1.247-1.245,2.223,2.224L60.351,43.4l2.316.663a5.507,5.507,0,0,1,2.472,1.512,4.759,4.759,0,0,0-.874-.088,4.591,4.591,0,0,0-2.232.58L53.666,50.71l-2.09-2.787A3.3,3.3,0,0,1,52.111,47.189ZM45.09,39.9a1.645,1.645,0,0,1,.487,1.171v1.617l-4.48,3.2-2.959-3.7a1.578,1.578,0,0,1-.345-.982v-.172a1.564,1.564,0,0,1,.46-1.112l.653-.652a1.573,1.573,0,0,1,2.223,0l.891.892,1.156-.576A1.65,1.65,0,0,1,45.09,39.9ZM33.785,48.977l1.011.276-1.018,5.091-2.3-2.295Zm.676-2.119V45.395a8.947,8.947,0,0,0,2.065-1.665L40.3,48.451Zm4.445-13.6h0A2.212,2.212,0,0,1,40.754,36.7a3.991,3.991,0,0,0-1.847.1ZM12.228,19.915V24.1a.272.272,0,0,1-.5.116l-2.15-4.3H3.335A1.112,1.112,0,0,1,2.223,18.8V9.911A1.113,1.113,0,0,1,3.335,8.8H25.567a1.113,1.113,0,0,1,1.112,1.112v7.973a12.01,12.01,0,0,0-4.891,2.032Zm16.516,0h2.539a9.858,9.858,0,0,1,9.847,9.847,10.123,10.123,0,0,1-.165,1.8,4.394,4.394,0,0,0-2.058-.529h-.961a17.739,17.739,0,0,1-7.146-4.12l-.786-.786-.786.786a17.738,17.738,0,0,1-7.145,4.12H21.12a4.393,4.393,0,0,0-2.057.529,10,10,0,0,1-.166-1.8A9.858,9.858,0,0,1,28.744,19.915ZM18.9,35.479a2.227,2.227,0,0,1,2.223-2.224V37.7A2.226,2.226,0,0,1,18.9,35.479M23.344,37.7V32.97a20.182,20.182,0,0,0,6.669-3.752,20.2,20.2,0,0,0,6.67,3.752V37.7a6.672,6.672,0,0,1-.055.718,3.765,3.765,0,0,0-1.056,2.617v.17c0,.046.009.093.012.139A6.66,6.66,0,0,1,23.344,37.7ZM30.013,46.6a8.779,8.779,0,0,0,2.223-.291v1.032L30.013,50.3,27.79,47.337V46.3a8.745,8.745,0,0,0,2.223.295m-3.77,2.381,2.3,3.072-2.3,2.295-1.018-5.091Zm18.221,15.4H40.018v-6.67H37.8v6.67H22.233v-6.67H20.008v6.67H15.562V56.137a5.571,5.571,0,0,1,4.1-5.363l3.424-.934,1.8,9.015,5.129-5.13,5.129,5.13,1.8-9.015L42.659,51.4l1.805,2.257ZM42.489,47.626l3.962-2.83,5.439,7.252-1.542,1.543,1.573,1.571L53.482,53.6a5.693,5.693,0,0,1,1.233-.93l8.4-4.664a2.438,2.438,0,0,1,1.209-.3,2.375,2.375,0,0,1,1.137,4.461l-8.718,4.756a6.444,6.444,0,0,1-8.117-1.631Zm8.646,16.755v-4.83a8.588,8.588,0,0,0,6.67-.675l8.719-4.756c.061-.034.116-.076.174-.111V64.381Z" transform="translate(0 2.316)"/>
        <path id="Trazado_167802" data-name="Trazado 167802" d="M27.8,29.595H25.578a2.224,2.224,0,0,1-4.447,0H18.908a4.447,4.447,0,0,0,8.893,0" transform="translate(6.659 10.424)"/>
        <path id="Trazado_167803" data-name="Trazado 167803" d="M24.953,26.307a1.112,1.112,0,1,1-1.112,1.112,1.111,1.111,0,0,1,1.112-1.112" transform="translate(8.397 9.266)"/>
        <path id="Trazado_167804" data-name="Trazado 167804" d="M20.02,26.307a1.112,1.112,0,1,1-1.112,1.112,1.111,1.111,0,0,1,1.112-1.112" transform="translate(6.659 9.266)"/>
        <rect id="Rectángulo_43263" data-name="Rectángulo 43263" width="2.223" height="2.223" transform="translate(28.902 62.251)"/>
        <rect id="Rectángulo_43264" data-name="Rectángulo 43264" width="2.223" height="2.223" transform="translate(28.902 57.805)"/>
        <rect id="Rectángulo_43265" data-name="Rectángulo 43265" width="2.223" height="2.223" transform="translate(37.795 4.447)"/>
        <rect id="Rectángulo_43266" data-name="Rectángulo 43266" width="15.562" height="2.223" transform="translate(42.243 4.447)"/>
        <rect id="Rectángulo_43267" data-name="Rectángulo 43267" width="20.01" height="2.223" transform="translate(37.795 8.893)"/>
        <path id="Trazado_167805" data-name="Trazado 167805" d="M28,15.562h1.536l1.536,3.072a2.486,2.486,0,0,0,4.71-1.112V15.562H50.23a3.339,3.339,0,0,0,3.335-3.335V3.335A3.338,3.338,0,0,0,50.23,0H28a3.338,3.338,0,0,0-3.335,3.335v8.893A3.339,3.339,0,0,0,28,15.562M26.886,3.335A1.112,1.112,0,0,1,28,2.223H50.23a1.112,1.112,0,0,1,1.112,1.112v8.893a1.112,1.112,0,0,1-1.112,1.112H33.556v4.184a.271.271,0,0,1-.5.116l-2.151-4.3H28a1.112,1.112,0,0,1-1.112-1.112Z" transform="translate(8.686 0)"/>
        <rect id="Rectángulo_43268" data-name="Rectángulo 43268" width="2.223" height="2.223" transform="translate(4.446 13.339)"/>
        <rect id="Rectángulo_43269" data-name="Rectángulo 43269" width="15.562" height="2.223" transform="translate(8.893 13.339)"/>
        <rect id="Rectángulo_43270" data-name="Rectángulo 43270" width="20.01" height="2.223" transform="translate(4.446 17.787)"/>
      </g>
    </g>
  </g>
</svg>
