<svg xmlns="http://www.w3.org/2000/svg" xmlns:xlink="http://www.w3.org/1999/xlink" width="506" height="269.5" viewBox="0 0 506 269.5">
  <defs>
    <clipPath id="clip-path">
      <rect id="Rectángulo_43327" data-name="Rectángulo 43327" width="210.612" height="210.612" fill="none"/>
    </clipPath>
  </defs>
  <g id="Grupo_129715" data-name="Grupo 129715" transform="translate(-180 -2401)">
    <g id="Grupo_119245" data-name="Grupo 119245">
      <path id="Rectángulo_42776" data-name="Rectángulo 42776" d="M0,0H473.5a0,0,0,0,1,0,0V224a20,20,0,0,1-20,20H0a0,0,0,0,1,0,0V0A0,0,0,0,1,0,0Z" transform="translate(212.5 2426.5)" fill="#fed563"/>
      <rect id="shutterstock_1916966165" width="475" height="243" rx="19" transform="translate(180 2401)" fill="#f3f3f3"/>
    </g>
    <g id="Grupo_118769" data-name="Grupo 118769" transform="translate(314 2419.5)">
      <g id="Grupo_118768" data-name="Grupo 118768" clip-path="url(#clip-path)">
        <path id="Trazado_168082" data-name="Trazado 168082" d="M105.307,0A105.306,105.306,0,1,0,210.612,105.307,105.306,105.306,0,0,0,105.307,0" transform="translate(0)" fill="#39b54a"/>
        <path id="Trazado_168083" data-name="Trazado 168083" d="M107.186,182.683a75.5,75.5,0,1,1,75.5-75.5,75.5,75.5,0,0,1-75.5,75.5" transform="translate(-1.879 -1.879)" fill="#fff"/>
        <path id="Trazado_168084" data-name="Trazado 168084" d="M125.792,17.684a4.756,4.756,0,0,1-1.745,3.078,4.682,4.682,0,0,1-3.439.885,4.757,4.757,0,0,1-3.563-1.923,6.039,6.039,0,0,1-1-4.294,6.673,6.673,0,0,1,.873-2.789,5.193,5.193,0,0,1,7.811-1.169,4.017,4.017,0,0,1,1.284,2.919l-1.9-.183a2.52,2.52,0,0,0-.773-1.63,2.828,2.828,0,0,0-1.726-.732,2.86,2.86,0,0,0-1.908.436,3.345,3.345,0,0,0-1.221,1.409,6.273,6.273,0,0,0-.463,3.449,4.634,4.634,0,0,0,.429,1.35,2.686,2.686,0,0,0,.914,1.04,3.012,3.012,0,0,0,1.446.5q2.441.236,3.062-2.525Z" transform="translate(-6.88 -0.604)" fill="#fff"/>
        <path id="Trazado_168085" data-name="Trazado 168085" d="M138.855,13.534l-.368,1.577-5.842-1.36-.66,2.838,5.421,1.262-.353,1.516-5.422-1.261-.734,3.153,5.931,1.381-.373,1.608-7.795-1.816,2.49-10.692Z" transform="translate(-7.631 -0.696)" fill="#fff"/>
        <path id="Trazado_168086" data-name="Trazado 168086" d="M143.41,14.9l4.862,1.834a4.507,4.507,0,0,1,2.237,1.626,2.647,2.647,0,0,1,.149,2.535,2.931,2.931,0,0,1-1.043,1.412,2.653,2.653,0,0,1-1.612.471,2.233,2.233,0,0,1,.552.5,1.7,1.7,0,0,1,.284.535,1.884,1.884,0,0,1,.056.615,3.949,3.949,0,0,1-.072.608q-.054.251-.172.652c-.016.071-.053.205-.11.4l-.116.393c-.019.065-.05.176-.094.336s-.072.272-.086.338-.032.165-.053.293-.035.23-.04.3-.007.151-.008.243a.958.958,0,0,0,.022.247,1.1,1.1,0,0,0,.07.208l-1.933-.729a.77.77,0,0,1-.027-.167,1.733,1.733,0,0,1,0-.2,1.511,1.511,0,0,1,.023-.19c.01-.056.025-.133.045-.23s.039-.175.055-.235l.076-.267.076-.268c.017-.059.048-.164.092-.311s.079-.25.1-.309a2.91,2.91,0,0,0,.123-1.923,2.569,2.569,0,0,0-1.547-1.118l-2.4-.9-1.6,4.242-1.789-.674Zm1.234,2.147-1.214,3.217,2.381.9a6.01,6.01,0,0,0,.9.275,3.464,3.464,0,0,0,.807.065,1.185,1.185,0,0,0,.751-.285,1.9,1.9,0,0,0,.526-.807,1.835,1.835,0,0,0,.135-.88,1.175,1.175,0,0,0-.315-.672,2.628,2.628,0,0,0-.582-.467,5.2,5.2,0,0,0-.779-.359Z" transform="translate(-8.276 -0.884)" fill="#fff"/>
        <path id="Trazado_168087" data-name="Trazado 168087" d="M163.353,23.848l-.783,1.47-3.089-1.645-4.376,8.222-1.7-.906,4.376-8.221-3.09-1.645.783-1.47Z" transform="translate(-9.098 -1.166)" fill="#fff"/>
        <rect id="Rectángulo_43317" data-name="Rectángulo 43317" width="10.979" height="1.943" transform="translate(150.932 33.642) rotate(-56.807)" fill="#fff"/>
        <path id="Trazado_168088" data-name="Trazado 168088" d="M177.858,34.41l-1.014,1.281-4.437-3.511-1.857,2.345,3.894,3.082-.966,1.22-3.894-3.081-2.976,3.761L165.084,38.3l6.812-8.609Z" transform="translate(-9.791 -1.761)" fill="#fff"/>
        <rect id="Rectángulo_43318" data-name="Rectángulo 43318" width="10.978" height="1.943" transform="translate(163.042 42.999) rotate(-46.517)" fill="#fff"/>
        <path id="Trazado_168089" data-name="Trazado 168089" d="M190.8,47.818l-1.218,1.066-3.95-4.514-2.194,1.918,3.666,4.191L185.934,51.5l-3.666-4.19-2.436,2.133,4.01,4.584L182.6,55.116l-5.269-6.023,8.264-7.228Z" transform="translate(-10.517 -2.483)" fill="#fff"/>
        <path id="Trazado_168090" data-name="Trazado 168090" d="M193.745,51.66l2.313,3.481a7.578,7.578,0,0,1,.911,1.8,3.957,3.957,0,0,1,.141,1.814,5.319,5.319,0,0,1-2.584,3.661A6.032,6.032,0,0,1,189.96,63.6a3.82,3.82,0,0,1-1.6-.7,6.655,6.655,0,0,1-1.381-1.591l-2.373-3.57Zm-.3,2.5-6.433,4.276,1.255,1.888a2.9,2.9,0,0,0,2.281,1.538,4.986,4.986,0,0,0,2.837-1,4.184,4.184,0,0,0,1.844-2.226,3.168,3.168,0,0,0-.6-2.694Z" transform="translate(-10.948 -3.064)" fill="#fff"/>
        <path id="Trazado_168091" data-name="Trazado 168091" d="M201.27,71.567a2.755,2.755,0,1,1-2.1.024,2.648,2.648,0,0,1,2.1-.024" transform="translate(-11.713 -4.232)" fill="#fff"/>
        <path id="Trazado_168092" data-name="Trazado 168092" d="M205.242,95.926a4.748,4.748,0,0,1-3.465-.709,4.677,4.677,0,0,1-1.9-3,4.755,4.755,0,0,1,.73-3.983,6.042,6.042,0,0,1,3.776-2.274,6.674,6.674,0,0,1,2.923-.031A5.2,5.2,0,0,1,210.825,93a4.017,4.017,0,0,1-2.382,2.122l-.413-1.867a2.52,2.52,0,0,0,1.313-1.238,2.829,2.829,0,0,0,.163-1.867,2.869,2.869,0,0,0-1-1.682,3.353,3.353,0,0,0-1.716-.725,5.918,5.918,0,0,0-1.988.117,5.993,5.993,0,0,0-1.435.507,4.679,4.679,0,0,0-1.152.824,2.716,2.716,0,0,0-.707,1.191,3,3,0,0,0-.024,1.53q.529,2.393,3.346,2.133Z" transform="translate(-11.846 -5.088)" fill="#fff"/>
        <path id="Trazado_168093" data-name="Trazado 168093" d="M213.185,107.13l-1.613.137-.51-5.976-2.9.247.472,5.546-1.551.133-.473-5.546-3.227.275.517,6.068-1.643.14-.68-7.973,10.939-.932Z" transform="translate(-11.955 -5.886)" fill="#fff"/>
        <path id="Trazado_168094" data-name="Trazado 168094" d="M213.294,111.929l-.23,5.192a4.509,4.509,0,0,1-.849,2.633,2.651,2.651,0,0,1-2.364.929,2.928,2.928,0,0,1-1.665-.552,2.653,2.653,0,0,1-.95-1.385,2.219,2.219,0,0,1-.308.68,1.708,1.708,0,0,1-.421.437,1.876,1.876,0,0,1-.567.246,3.987,3.987,0,0,1-.6.119c-.17.019-.4.031-.674.04-.072.008-.211.014-.417.021l-.41.012-.348.016c-.165.008-.281.016-.348.024s-.166.021-.3.04-.228.04-.3.056-.146.04-.234.068a1.013,1.013,0,0,0-.229.1,1.052,1.052,0,0,0-.175.132l.09-2.065a.774.774,0,0,1,.151-.078,1.7,1.7,0,0,1,.188-.061,1.675,1.675,0,0,1,.186-.038c.057-.008.134-.017.233-.029s.178-.017.24-.02l.278-.011.278-.01c.062,0,.169-.006.325-.008s.262,0,.324,0a2.914,2.914,0,0,0,1.865-.482,2.565,2.565,0,0,0,.582-1.818l.113-2.558-4.529-.2.084-1.91Zm-1.656,1.841-3.435-.151-.112,2.542a6.084,6.084,0,0,0,.02.943,3.534,3.534,0,0,0,.189.787,1.2,1.2,0,0,0,.505.625,1.911,1.911,0,0,0,.93.249,1.844,1.844,0,0,0,.879-.147,1.178,1.178,0,0,0,.54-.508,2.652,2.652,0,0,0,.262-.7,5.234,5.234,0,0,0,.1-.852Z" transform="translate(-11.975 -6.61)" fill="#fff"/>
        <path id="Trazado_168095" data-name="Trazado 168095" d="M210.957,133.554l-1.641-.284.6-3.449-9.176-1.589.329-1.9,9.176,1.589.6-3.45,1.641.284Z" transform="translate(-11.905 -7.382)" fill="#fff"/>
        <rect id="Rectángulo_43319" data-name="Rectángulo 43319" width="1.943" height="10.979" transform="translate(187.098 128.312) rotate(-74.978)" fill="#fff"/>
        <path id="Trazado_168096" data-name="Trazado 168096" d="M205.58,150.692l-1.533-.565L206,144.817l-2.807-1.036-1.717,4.659-1.461-.539,1.717-4.658-4.5-1.658.672-1.822,10.3,3.8Z" transform="translate(-11.698 -8.289)" fill="#fff"/>
        <rect id="Rectángulo_43320" data-name="Rectángulo 43320" width="1.943" height="10.979" transform="translate(181.639 142.615) rotate(-64.568)" fill="#fff"/>
        <path id="Trazado_168097" data-name="Trazado 168097" d="M196.707,167.132l-1.39-.829,3.07-5.152-2.5-1.492-2.849,4.782-1.339-.8,2.85-4.782-2.782-1.658-3.118,5.231-1.417-.845,4.1-6.874,9.43,5.621Z" transform="translate(-11.104 -9.176)" fill="#fff"/>
        <path id="Trazado_168098" data-name="Trazado 168098" d="M194.038,171.1l-2.594,3.276a7.57,7.57,0,0,1-1.432,1.422,3.96,3.96,0,0,1-1.681.7,5.32,5.32,0,0,1-4.281-1.325,6.036,6.036,0,0,1-2.536-3.975,3.819,3.819,0,0,1,.171-1.743,6.642,6.642,0,0,1,1.086-1.806l2.661-3.36Zm-2.468.484-6.056-4.8-1.407,1.777a2.9,2.9,0,0,0-.757,2.646,4.988,4.988,0,0,0,1.825,2.389,4.194,4.194,0,0,0,2.687,1.066,3.175,3.175,0,0,0,2.379-1.4Z" transform="translate(-10.764 -9.743)" fill="#fff"/>
        <path id="Trazado_168099" data-name="Trazado 168099" d="M177.751,184.359a2.754,2.754,0,1,1-.675-1.991,2.647,2.647,0,0,1,.675,1.991" transform="translate(-10.217 -10.76)" fill="#fff"/>
        <path id="Trazado_168100" data-name="Trazado 168100" d="M155.594,195.753a4.751,4.751,0,0,1-.407-3.514,4.674,4.674,0,0,1,2.254-2.743,4.757,4.757,0,0,1,4.012-.551,6.045,6.045,0,0,1,3.338,2.879,6.663,6.663,0,0,1,.942,2.768,5.2,5.2,0,0,1-5.616,5.554,4.017,4.017,0,0,1-2.759-1.6l1.644-.975a2.525,2.525,0,0,0,1.586.86,2.825,2.825,0,0,0,1.826-.428,2.857,2.857,0,0,0,1.283-1.478,3.341,3.341,0,0,0,.154-1.857,6.26,6.26,0,0,0-1.661-3.057,4.648,4.648,0,0,0-1.142-.838,2.718,2.718,0,0,0-1.352-.3,3.015,3.015,0,0,0-1.461.453q-2.11,1.25-.983,3.846Z" transform="translate(-9.194 -11.193)" fill="#fff"/>
        <path id="Trazado_168101" data-name="Trazado 168101" d="M147.456,206.722l-.634-1.489,5.52-2.348L151.2,200.2l-5.122,2.179-.61-1.433,5.122-2.18-1.268-2.979-5.6,2.384-.645-1.517,7.364-3.133,4.3,10.1Z" transform="translate(-8.485 -11.478)" fill="#fff"/>
        <path id="Trazado_168102" data-name="Trazado 168102" d="M142.868,208.333l-5.007,1.387a4.51,4.51,0,0,1-2.767.007,2.647,2.647,0,0,1-1.615-1.96,2.921,2.921,0,0,1,.01-1.754,2.646,2.646,0,0,1,1.023-1.332,2.224,2.224,0,0,1-.743-.082,1.681,1.681,0,0,1-.545-.265,1.828,1.828,0,0,1-.408-.463,4.018,4.018,0,0,1-.3-.532c-.07-.157-.151-.366-.246-.628-.028-.067-.078-.2-.148-.39s-.116-.323-.139-.386-.063-.172-.122-.326-.1-.262-.13-.325-.071-.151-.13-.267-.107-.205-.145-.263-.084-.127-.136-.2a.984.984,0,0,0-.164-.186,1.165,1.165,0,0,0-.179-.127l1.991-.551a.8.8,0,0,1,.121.119,1.763,1.763,0,0,1,.117.16,1.455,1.455,0,0,1,.093.166c.025.052.058.123.1.213s.072.164.094.222.054.146.1.262.074.2.1.262.057.16.108.306.086.248.1.309a2.908,2.908,0,0,0,1.035,1.625,2.567,2.567,0,0,0,1.91-.008l2.466-.683-1.211-4.37,1.843-.511Zm-2.262-1.006-.918-3.314-2.451.679a6.192,6.192,0,0,0-.891.31,3.6,3.6,0,0,0-.69.423,1.2,1.2,0,0,0-.437.674,1.9,1.9,0,0,0,.051.962,1.837,1.837,0,0,0,.411.79,1.172,1.172,0,0,0,.65.356,2.631,2.631,0,0,0,.746.034,5.269,5.269,0,0,0,.841-.169Z" transform="translate(-7.768 -11.728)" fill="#fff"/>
        <path id="Trazado_168103" data-name="Trazado 168103" d="M121.775,212.817l-.236-1.649,3.466-.495-1.318-9.22,1.908-.273,1.318,9.219,3.466-.495.235,1.649Z" transform="translate(-7.208 -11.932)" fill="#fff"/>
        <rect id="Rectángulo_43321" data-name="Rectángulo 43321" width="1.942" height="10.979" transform="matrix(0.999, -0.052, 0.052, 0.999, 108.843, 190.178)" fill="#fff"/>
        <path id="Trazado_168104" data-name="Trazado 168104" d="M103.707,213l.059-1.633,5.655.207.109-2.99-4.961-.182.057-1.556,4.961.182.176-4.793,1.942.072-.4,10.971Z" transform="translate(-6.151 -11.994)" fill="#fff"/>
        <rect id="Rectángulo_43322" data-name="Rectángulo 43322" width="10.978" height="1.943" transform="matrix(0.126, -0.992, 0.992, 0.126, 92.158, 200.333)" fill="#fff"/>
        <path id="Trazado_168105" data-name="Trazado 168105" d="M85.253,209.8l.354-1.579,5.853,1.308.637-2.844-5.432-1.214.34-1.52,5.432,1.214.706-3.16L87.2,200.678l.359-1.61,7.81,1.747-2.4,10.714Z" transform="translate(-5.056 -11.806)" fill="#fff"/>
        <path id="Trazado_168106" data-name="Trazado 168106" d="M80.56,208.476l-3.92-1.447a7.578,7.578,0,0,1-1.8-.918,3.946,3.946,0,0,1-1.183-1.383,5.318,5.318,0,0,1-.072-4.481,6.037,6.037,0,0,1,2.99-3.646,3.809,3.809,0,0,1,1.709-.379,6.627,6.627,0,0,1,2.054.47l4.021,1.484Zm-1.228-2.195,2.675-7.247-2.126-.785a2.9,2.9,0,0,0-2.75.1,4.975,4.975,0,0,0-1.7,2.478,4.18,4.18,0,0,0-.178,2.885,3.17,3.17,0,0,0,2.071,1.825Z" transform="translate(-4.337 -11.638)" fill="#fff"/>
        <path id="Trazado_168107" data-name="Trazado 168107" d="M63.245,197.036a2.753,2.753,0,1,1,1.685-1.257,2.642,2.642,0,0,1-1.685,1.257" transform="translate(-3.548 -11.365)" fill="#fff"/>
        <path id="Trazado_168108" data-name="Trazado 168108" d="M45.256,179.524a4.75,4.75,0,0,1,3.215-1.475,4.682,4.682,0,0,1,3.307,1.3,4.754,4.754,0,0,1,1.765,3.645,6.046,6.046,0,0,1-1.705,4.065A6.669,6.669,0,0,1,49.5,188.8a5.2,5.2,0,0,1-7.018-3.623,4.016,4.016,0,0,1,.668-3.119l1.436,1.263a2.517,2.517,0,0,0-.328,1.774,2.817,2.817,0,0,0,.972,1.6,2.857,2.857,0,0,0,1.8.764,3.343,3.343,0,0,0,1.814-.428,5.9,5.9,0,0,0,1.535-1.268,5.966,5.966,0,0,0,.859-1.257,4.7,4.7,0,0,0,.443-1.345,2.714,2.714,0,0,0-.133-1.379,3.012,3.012,0,0,0-.883-1.248q-1.841-1.618-3.96.255Z" transform="translate(-2.514 -10.56)" fill="#fff"/>
        <path id="Trazado_168109" data-name="Trazado 168109" d="M32.191,175.177l1.219-1.065,3.946,4.517,2.195-1.917L35.89,172.52l1.173-1.024,3.661,4.193,2.439-2.131-4.006-4.587,1.242-1.086,5.265,6.028-8.269,7.222Z" transform="translate(-1.909 -9.957)" fill="#fff"/>
        <path id="Trazado_168110" data-name="Trazado 168110" d="M29.306,171.309l-2.88-4.325a4.516,4.516,0,0,1-.868-2.626,2.647,2.647,0,0,1,1.359-2.146,2.927,2.927,0,0,1,1.671-.538,2.653,2.653,0,0,1,1.583.557,2.247,2.247,0,0,1-.153-.731,1.694,1.694,0,0,1,.082-.6,1.876,1.876,0,0,1,.312-.532,3.907,3.907,0,0,1,.413-.451q.19-.174.52-.43c.055-.048.163-.136.325-.262l.323-.252.272-.218c.128-.1.217-.179.267-.224s.121-.115.214-.208.162-.166.206-.219.094-.119.15-.193a.977.977,0,0,0,.126-.214,1.032,1.032,0,0,0,.065-.209l1.145,1.72a.786.786,0,0,1-.075.152,1.359,1.359,0,0,1-.116.16,1.388,1.388,0,0,1-.128.141c-.041.04-.1.093-.171.16s-.134.119-.182.159l-.218.172-.218.173c-.049.04-.135.105-.257.2s-.21.158-.262.192a2.909,2.909,0,0,0-1.221,1.49,2.564,2.564,0,0,0,.6,1.811l1.419,2.131,3.773-2.512,1.059,1.591Zm.249-2.463,2.863-1.906-1.41-2.118a6.076,6.076,0,0,0-.573-.749,3.487,3.487,0,0,0-.617-.524,1.188,1.188,0,0,0-.776-.206,1.892,1.892,0,0,0-.9.348,1.829,1.829,0,0,0-.623.637,1.177,1.177,0,0,0-.135.729,2.607,2.607,0,0,0,.2.719,5.155,5.155,0,0,0,.423.746Z" transform="translate(-1.516 -9.34)" fill="#fff"/>
        <path id="Trazado_168111" data-name="Trazado 168111" d="M18.411,152.769l1.493-.739,1.552,3.137,8.347-4.132.855,1.726-8.347,4.132,1.553,3.137-1.492.738Z" transform="translate(-1.092 -8.958)" fill="#fff"/>
        <rect id="Rectángulo_43323" data-name="Rectángulo 43323" width="10.978" height="1.942" transform="translate(15.462 138.975) rotate(-21.134)" fill="#fff"/>
        <path id="Trazado_168112" data-name="Trazado 168112" d="M12.661,135.621l1.572-.448,1.552,5.442,2.877-.821L17.3,135.019l1.5-.426,1.362,4.774,4.611-1.315.533,1.867-10.557,3.012Z" transform="translate(-0.751 -7.983)" fill="#fff"/>
        <rect id="Rectángulo_43324" data-name="Rectángulo 43324" width="10.979" height="1.943" transform="translate(10.885 122.295) rotate(-10.721)" fill="#fff"/>
        <path id="Trazado_168113" data-name="Trazado 168113" d="M10.014,117.082l1.611-.151.562,5.972,2.9-.273-.521-5.542,1.55-.146.521,5.542,3.224-.3-.57-6.064,1.642-.154.749,7.968-10.93,1.027Z" transform="translate(-0.594 -6.878)" fill="#fff"/>
        <path id="Trazado_168114" data-name="Trazado 168114" d="M9.878,112.2l.155-4.176a7.537,7.537,0,0,1,.313-1.993,3.967,3.967,0,0,1,.945-1.555,5.317,5.317,0,0,1,4.236-1.462,6.032,6.032,0,0,1,4.4,1.706,3.824,3.824,0,0,1,.893,1.507,6.654,6.654,0,0,1,.192,2.1l-.159,4.284Zm1.7-1.849,7.719.287.085-2.264a2.9,2.9,0,0,0-.953-2.582,4.994,4.994,0,0,0-2.885-.848,4.192,4.192,0,0,0-2.8.729,3.169,3.169,0,0,0-1.089,2.537Z" transform="translate(-0.586 -6.109)" fill="#fff"/>
        <path id="Trazado_168115" data-name="Trazado 168115" d="M15.647,92.14A2.748,2.748,0,0,1,20.288,89.2a2.748,2.748,0,0,1-4.641,2.942" transform="translate(-0.902 -5.214)" fill="#fff"/>
        <path id="Trazado_168116" data-name="Trazado 168116" d="M26.4,69.635a4.751,4.751,0,0,1,2.4,2.6,4.676,4.676,0,0,1-.205,3.545,4.754,4.754,0,0,1-2.917,2.808,6.041,6.041,0,0,1-4.393-.359,6.683,6.683,0,0,1-2.391-1.681,5.2,5.2,0,0,1,1.266-7.8,4.023,4.023,0,0,1,3.172-.333l-.754,1.757a2.528,2.528,0,0,0-1.789.239,2.83,2.83,0,0,0-1.223,1.422,2.862,2.862,0,0,0-.166,1.95,3.338,3.338,0,0,0,.97,1.591,5.919,5.919,0,0,0,1.682,1.067,5.984,5.984,0,0,0,1.461.426,4.707,4.707,0,0,0,1.417,0,2.734,2.734,0,0,0,1.27-.554,3.022,3.022,0,0,0,.912-1.228q.968-2.253-1.471-3.686Z" transform="translate(-1.045 -4.047)" fill="#fff"/>
        <path id="Trazado_168117" data-name="Trazado 168117" d="M26.383,55.895l1.39.831L24.7,61.875l2.5,1.494,2.855-4.779,1.337.8-2.854,4.779,2.78,1.661L34.439,60.6l1.417.847-4.1,6.87-9.425-5.63Z" transform="translate(-1.324 -3.315)" fill="#fff"/>
        <path id="Trazado_168118" data-name="Trazado 168118" d="M29.1,51.955,32.32,47.88a4.5,4.5,0,0,1,2.229-1.639,2.648,2.648,0,0,1,2.461.628,2.933,2.933,0,0,1,1.028,1.422A2.651,2.651,0,0,1,38,49.971a2.256,2.256,0,0,1,.648-.373,1.691,1.691,0,0,1,.6-.108,1.865,1.865,0,0,1,.6.133,4.141,4.141,0,0,1,.557.253q.223.128.569.362c.062.037.18.113.351.228l.34.23c.056.038.152.1.291.191s.237.151.3.185.147.08.263.139.207.1.273.127.141.053.229.083a1.05,1.05,0,0,0,.243.055,1.066,1.066,0,0,0,.219,0l-1.281,1.621a.809.809,0,0,1-.167-.024,1.668,1.668,0,0,1-.362-.139q-.076-.04-.206-.113t-.206-.124l-.232-.154-.232-.153c-.052-.034-.141-.1-.268-.182s-.215-.151-.263-.189a2.907,2.907,0,0,0-1.794-.7,2.568,2.568,0,0,0-1.536,1.134l-1.588,2.008,3.556,2.811-1.186,1.5Zm2.419-.524,2.7,2.133,1.578-2a6.035,6.035,0,0,0,.534-.775,3.424,3.424,0,0,0,.308-.75,1.186,1.186,0,0,0-.044-.8,1.891,1.891,0,0,0-.609-.747,1.823,1.823,0,0,0-.8-.4,1.173,1.173,0,0,0-.735.1,2.593,2.593,0,0,0-.622.413,5.076,5.076,0,0,0-.579.633Z" transform="translate(-1.726 -2.737)" fill="#fff"/>
        <path id="Trazado_168119" data-name="Trazado 168119" d="M43.622,35.747l1.165,1.191-2.5,2.448L48.8,46.042,47.422,47.39l-6.514-6.656-2.5,2.449-1.165-1.191Z" transform="translate(-2.209 -2.12)" fill="#fff"/>
        <rect id="Rectángulo_43325" data-name="Rectángulo 43325" width="1.942" height="10.978" transform="translate(43.913 31.601) rotate(-39.242)" fill="#fff"/>
        <path id="Trazado_168120" data-name="Trazado 168120" d="M58.137,24.96l.916,1.353-4.687,3.173,1.677,2.477,4.112-2.783.873,1.289-4.112,2.784,2.688,3.971L58,38.313l-6.155-9.092Z" transform="translate(-3.075 -1.48)" fill="#fff"/>
        <rect id="Rectángulo_43326" data-name="Rectángulo 43326" width="1.943" height="10.979" transform="translate(58.124 21.772) rotate(-28.926)" fill="#fff"/>
        <path id="Trazado_168121" data-name="Trazado 168121" d="M74.866,16.652l.647,1.484-5.5,2.4L71.18,23.2l5.1-2.224.622,1.428-5.1,2.224L73.095,27.6l5.584-2.434.659,1.513L72,29.878,67.615,19.813Z" transform="translate(-4.01 -0.988)" fill="#fff"/>
        <path id="Trazado_168122" data-name="Trazado 168122" d="M79.453,15.062l4.019-1.144a7.539,7.539,0,0,1,1.993-.319,3.931,3.931,0,0,1,1.77.418,5.312,5.312,0,0,1,2.7,3.575,6.035,6.035,0,0,1-.262,4.708,3.845,3.845,0,0,1-1.156,1.316,6.7,6.7,0,0,1-1.936.832L82.46,25.621Zm2.287,1.049,2.117,7.43,2.18-.621a2.9,2.9,0,0,0,2.16-1.705,4.989,4.989,0,0,0-.087-3.006,4.191,4.191,0,0,0-1.559-2.435,3.176,3.176,0,0,0-2.75-.251Z" transform="translate(-4.712 -0.807)" fill="#fff"/>
        <path id="Trazado_168123" data-name="Trazado 168123" d="M100.592,14.31a2.748,2.748,0,0,1,4.231,3.507,2.748,2.748,0,0,1-4.231-3.507" transform="translate(-5.929 -0.79)" fill="#fff"/>
        <path id="Trazado_168124" data-name="Trazado 168124" d="M161.345,60.172c-1.038-1.17-2.1-2.314-3.206-3.418h-.013a71.575,71.575,0,0,0-101.406,0h-.007c-1.1,1.1-2.175,2.248-3.194,3.418a71.546,71.546,0,0,0,0,94.5c1.019,1.17,2.089,2.314,3.194,3.418h.007a71.591,71.591,0,0,0,101.419,0c1.1-1.1,2.168-2.248,3.206-3.418a71.605,71.605,0,0,0,0-94.5M91.693,42.262c-6.4,5.666-11.755,14.729-15.5,26.054a103.644,103.644,0,0,1-15.576-8.826A66.925,66.925,0,0,1,91.693,42.262M60.621,155.343A104.773,104.773,0,0,1,76.2,146.53c3.741,11.325,9.1,20.389,15.5,26.054a66.948,66.948,0,0,1-31.072-17.242m65.363-13.407H60.343V119.141H154.5v22.795h-28.52ZM80.7,144.626c.04-.013.087-.033.126-.046H105.08v29.684C95.071,172.69,86.159,161.187,80.7,144.626m29.076,29.637h-.007V144.58h24.248c.04.013.087.033.126.046-5.461,16.561-14.372,28.064-24.368,29.637m13.38-1.679c6.393-5.653,11.747-14.729,15.483-26.067a105.369,105.369,0,0,1,15.595,8.826,66.813,66.813,0,0,1-31.078,17.242m34.317-20.646a114.1,114.1,0,0,0-12.323-7.358h11.993V116.5H144.17c.072-1.1.126-2.221.172-3.345a29.315,29.315,0,0,1-4.74.793c-.04.853-.092,1.706-.152,2.552H109.774v-5.712a20.315,20.315,0,0,1-4.694,2.129V116.5H75.4c-.079-1.1-.138-2.221-.185-3.345H70.5c.04,1.124.1,2.241.165,3.345H57.7V144.58H69.711a113.869,113.869,0,0,0-12.343,7.358,66.646,66.646,0,0,1-16.924-42.171H53.9v-4.694H40.444A66.651,66.651,0,0,1,57.368,62.9q4.692,3.2,9.382,5.791H81.227c5.487-15.734,14.154-26.575,23.852-28.1V68.76a22.1,22.1,0,0,1,4.694,1.99V40.583h.007c9.54,1.5,18.094,12.046,23.594,27.4a31.658,31.658,0,0,1,3.292-.165c.614,0,1.223.013,1.824.046-3.728-11.126-9.031-20.024-15.33-25.6a66.907,66.907,0,0,1,31.078,17.229,105.83,105.83,0,0,1-14.762,8.442,28.064,28.064,0,0,1,7.213,1.528,117.27,117.27,0,0,0,10.8-6.565,66.722,66.722,0,0,1,16.917,42.178H156.7a20.192,20.192,0,0,1-4.813,4.694h22.516a66.647,66.647,0,0,1-16.931,42.171" transform="translate(-2.117 -2.117)" fill="#39b54a"/>
        <path id="Trazado_168125" data-name="Trazado 168125" d="M121.346,109.447H119.9a13.844,13.844,0,0,1-3.914,4.694h10.188a20.232,20.232,0,0,1-4.826-4.694" transform="translate(-6.879 -6.491)" fill="#39b54a"/>
        <path id="Trazado_168126" data-name="Trazado 168126" d="M58.561,74.28v8.383h4.43V103.7h-4.43v8.435H78.242V103.7H73.753V82.663h4.489V74.28H58.561Z" transform="translate(-3.473 -4.405)" fill="#39b54a"/>
        <path id="Trazado_168127" data-name="Trazado 168127" d="M116.16,100.765c0-.079,0-.166-.007-.245a11.031,11.031,0,0,0-.813-4.172v-.007a9.452,9.452,0,0,0-2.724-3.656,14.825,14.825,0,0,0-4.694-2.526,32.968,32.968,0,0,0-7.225-1.454c-3.788-.376-6.386-1.084-6.386-3.623s3.246-3.193,5.249-3.193a17.107,17.107,0,0,1,4.813.595l.166,4.384h9.242V77.726c-.066-.053-.139-.105-.205-.158-.317-.251-.642-.483-.959-.7a19.921,19.921,0,0,0-4.694-2.42,24.816,24.816,0,0,0-8.363-1.262,21.891,21.891,0,0,0-8.634,1.732A13.621,13.621,0,0,0,86.212,78.2a9.976,9.976,0,0,0-2.6,6.882c0,9.354,7.841,11.523,15.522,12.224,4.159.429,6.38,1.407,6.38,3.245,0,2.162-2.433,3.4-6,3.4a18.387,18.387,0,0,1-6.492-1.19l-.159-4.383H83.607v9.467c.291.245.582.483.88.707.146.112.291.218.436.33.3.212.588.417.886.615s.595.383.892.562A20.038,20.038,0,0,0,91,111.99H91c.563.179,1.124.338,1.705.463a.886.886,0,0,0,.179.04q.4.09.794.159a1.687,1.687,0,0,0,.178.033c.285.053.569.1.86.133.39.059.786.105,1.19.145.3.026.6.053.912.066a.736.736,0,0,0,.132.008c.325.026.648.04.978.053.377.007.761.013,1.15.013h.371a25.645,25.645,0,0,0,7.49-1.111,14.028,14.028,0,0,0,7.14-4.694,10.613,10.613,0,0,0,2.076-6.531" transform="translate(-4.959 -4.34)" fill="#39b54a"/>
        <path id="Trazado_168128" data-name="Trazado 168128" d="M162.69,93.153c0-10.552-6.05-17.36-15.371-19.251a28.18,28.18,0,0,0-5.613-.542c-7.622,0-13.823,2.8-17.466,7.847a19.983,19.983,0,0,0-3.57,11.946c0,.839.04,1.653.112,2.439a21.641,21.641,0,0,0,.86,4.4,17.3,17.3,0,0,0,4.343,7.312A18.869,18.869,0,0,0,134.209,112a27,27,0,0,0,7.5,1,30.534,30.534,0,0,0,3.061-.152,20.391,20.391,0,0,0,12.647-5.54c3.352-3.352,5.276-8.125,5.276-14.154m-13.454,7.688a9.323,9.323,0,0,1-4.575,2.657,11.713,11.713,0,0,1-2.956.364c-6.055,0-10.333-4.384-10.333-10.71,0-6.221,4.218-10.657,10.333-10.657.073,0,.152,0,.225.007a10.884,10.884,0,0,1,5.163,1.269c3.081,1.692,4.886,4.991,4.886,9.382a11.05,11.05,0,0,1-2.744,7.688" transform="translate(-7.157 -4.351)" fill="#39b54a"/>
        <path id="Trazado_168129" data-name="Trazado 168129" d="M84.813,129.124v13.861H80.892V132.154H78.318v-3.03Z" transform="translate(-4.645 -7.658)" fill="#39b54a"/>
        <path id="Trazado_168130" data-name="Trazado 168130" d="M102.6,140.331h-2.059v2.654H96.717v-2.654H89.39v-2.554l6.218-8.653h4.06l-5.644,8.1h2.812v-2.356h3.7v2.356H102.6Z" transform="translate(-5.302 -7.658)" fill="#39b54a"/>
        <path id="Trazado_168131" data-name="Trazado 168131" d="M109.328,142.394a5.723,5.723,0,0,1-2.167-2.485,9.966,9.966,0,0,1,0-7.743,5.725,5.725,0,0,1,2.167-2.484,6.28,6.28,0,0,1,6.318,0,5.733,5.733,0,0,1,2.168,2.484,9.977,9.977,0,0,1,0,7.743,5.73,5.73,0,0,1-2.168,2.485,6.286,6.286,0,0,1-6.318,0m4.743-3.317a8.2,8.2,0,0,0,0-6.079,1.787,1.787,0,0,0-3.168,0,8.2,8.2,0,0,0,0,6.079,1.787,1.787,0,0,0,3.168,0" transform="translate(-6.309 -7.641)" fill="#39b54a"/>
        <path id="Trazado_168132" data-name="Trazado 168132" d="M125.852,142.394a5.723,5.723,0,0,1-2.167-2.485,9.966,9.966,0,0,1,0-7.743,5.725,5.725,0,0,1,2.167-2.484,6.28,6.28,0,0,1,6.318,0,5.733,5.733,0,0,1,2.168,2.484,9.977,9.977,0,0,1,0,7.743,5.73,5.73,0,0,1-2.168,2.485,6.286,6.286,0,0,1-6.318,0m4.743-3.317a8.2,8.2,0,0,0,0-6.079,1.787,1.787,0,0,0-3.168,0,8.2,8.2,0,0,0,0,6.079,1.787,1.787,0,0,0,3.168,0" transform="translate(-7.289 -7.641)" fill="#39b54a"/>
        <path id="Trazado_168133" data-name="Trazado 168133" d="M145.164,129.124v13.861h-3.921V132.154h-2.574v-3.03Z" transform="translate(-8.224 -7.658)" fill="#39b54a"/>
      </g>
    </g>
  </g>
</svg>
