<svg id="Grupo_118888" data-name="Grupo 118888" xmlns="http://www.w3.org/2000/svg" xmlns:xlink="http://www.w3.org/1999/xlink" width="235.408" height="226.153" viewBox="0 0 235.408 226.153">
  <defs>
    <clipPath id="clip-path">
      <rect id="Rectángulo_43475" data-name="Rectángulo 43475" width="235.408" height="226.153" fill="none"/>
    </clipPath>
    <clipPath id="clip-path-3">
      <rect id="Rectángulo_43468" data-name="Rectángulo 43468" width="15.546" height="1.38" fill="none"/>
    </clipPath>
    <clipPath id="clip-path-5">
      <rect id="Rectángulo_43470" data-name="Rectángulo 43470" width="10.624" height="33.054" fill="none"/>
    </clipPath>
    <clipPath id="clip-path-6">
      <rect id="Rectángulo_43471" data-name="Rectángulo 43471" width="19.284" height="20.595" fill="none"/>
    </clipPath>
    <clipPath id="clip-path-7">
      <rect id="Rectángulo_43472" data-name="Rectángulo 43472" width="21.77" height="10.749" fill="none"/>
    </clipPath>
    <clipPath id="clip-path-8">
      <rect id="Rectángulo_43473" data-name="Rectángulo 43473" width="11.585" height="4.185" fill="none"/>
    </clipPath>
  </defs>
  <g id="Grupo_118887" data-name="Grupo 118887" clip-path="url(#clip-path)">
    <g id="Grupo_118886" data-name="Grupo 118886">
      <g id="Grupo_118885" data-name="Grupo 118885" clip-path="url(#clip-path)">
        <path id="Trazado_168927" data-name="Trazado 168927" d="M394.191,132.343c.338-2.457-3.129-4.478-5.734-4.688a14.738,14.738,0,0,1-3.71-.321c-2.55-.888-3.569-4.183-6.057-5.233-1.861-.785-4-.086-5.806.821s-3.586,2.05-5.6,2.179c-1.753.112-3.656-.538-5.189.318-1.142.638-1.741,1.955-2.794,2.732a6.659,6.659,0,0,1-3.653.99,10.292,10.292,0,0,0-3.766.616A2.977,2.977,0,0,0,350,132.779Z" transform="translate(-179.68 -62.516)" fill="#fff"/>
        <path id="Trazado_168928" data-name="Trazado 168928" d="M174.438,85.994c.338-2.457-3.129-4.478-5.734-4.688a14.76,14.76,0,0,1-3.71-.321c-2.55-.888-3.568-4.183-6.057-5.233-1.861-.785-4-.086-5.806.821s-3.586,2.05-5.6,2.179c-1.753.112-3.656-.538-5.189.318-1.142.638-1.741,1.955-2.794,2.732a6.659,6.659,0,0,1-3.653.99,10.3,10.3,0,0,0-3.766.616,2.977,2.977,0,0,0-1.885,3.021Z" transform="translate(-66.851 -38.719)" fill="#fff"/>
        <path id="Trazado_168929" data-name="Trazado 168929" d="M76.549,244.122c.338-2.457-3.129-4.477-5.734-4.688a14.759,14.759,0,0,1-3.71-.321c-2.55-.888-3.568-4.183-6.057-5.233-1.861-.785-4-.086-5.806.821s-3.586,2.05-5.6,2.179c-1.753.112-3.656-.538-5.189.319-1.142.638-1.741,1.955-2.794,2.731a6.665,6.665,0,0,1-3.653.991,10.282,10.282,0,0,0-3.766.615,2.976,2.976,0,0,0-1.885,3.021Z" transform="translate(-16.593 -119.907)" fill="#fff"/>
        <path id="Trazado_168930" data-name="Trazado 168930" d="M276.667,180.214c.207-1.5-1.912-2.736-3.5-2.864a9.027,9.027,0,0,1-2.267-.2c-1.558-.544-2.18-2.556-3.7-3.2a4.349,4.349,0,0,0-3.548.5,9.266,9.266,0,0,1-3.422,1.331c-1.071.069-2.234-.328-3.171.195-.7.39-1.064,1.194-1.708,1.669a4.076,4.076,0,0,1-2.232.605,6.275,6.275,0,0,0-2.3.376,1.818,1.818,0,0,0-1.152,1.846Z" transform="translate(-128.172 -89.208)" fill="#fff"/>
        <path id="Trazado_168931" data-name="Trazado 168931" d="M236.655,464.4c0,.07-52.438.126-117.107.126-64.692,0-117.119-.056-117.119-.126s52.426-.127,117.119-.127c64.67,0,117.107.056,117.107.127" transform="translate(-1.247 -238.371)" fill="#1a2e35"/>
        <path id="Trazado_168932" data-name="Trazado 168932" d="M312.082,389.288l36.786,36.495,7.183-.019,2.554-36.475Z" transform="translate(-160.232 -199.872)" fill="#757ac6"/>
        <path id="Trazado_168933" data-name="Trazado 168933" d="M334.444,396.391l-37.067,33.039,25.892-.039,21.82-18.353Z" transform="translate(-152.683 -203.519)" fill="#757ac6"/>
        <path id="Trazado_168934" data-name="Trazado 168934" d="M366.392,200.69l45.691,42.351.805-43.93Z" transform="translate(-188.117 -102.23)" fill="#757ac6"/>
        <path id="Trazado_168935" data-name="Trazado 168935" d="M299.26,206.112l-123.578,125.6h24.352L310.4,220.388Z" transform="translate(-90.201 -105.824)" fill="#757ac6"/>
        <path id="Trazado_168936" data-name="Trazado 168936" d="M100.1,301.7l44.227,43.877,2.3-43.877Z" transform="translate(-51.393 -154.903)" fill="#757ac6"/>
        <path id="Trazado_168937" data-name="Trazado 168937" d="M79.408,307.6,0,383.823H25.587l64.467-61.574Z" transform="translate(0 -157.933)" fill="#757ac6"/>
        <path id="Trazado_168938" data-name="Trazado 168938" d="M179.343,270.743l63.14,62.641V270.743Z" transform="translate(-92.08 -139.008)" fill="#ff004c"/>
        <path id="Trazado_168939" data-name="Trazado 168939" d="M167.547,273.646c-1.429,1.143-92.322,92.743-92.322,92.743h39.159l71.456-71.877Z" transform="translate(-38.623 -140.498)" fill="#ff004c"/>
        <path id="Trazado_168940" data-name="Trazado 168940" d="M86.67,45.349A6.244,6.244,0,1,1,80.425,39.1a6.245,6.245,0,0,1,6.245,6.245" transform="translate(-38.087 -20.077)" fill="#febf10"/>
        <path id="Trazado_168941" data-name="Trazado 168941" d="M85.117,75.2a25.226,25.226,0,0,1-.066-2.575,25.232,25.232,0,0,1,.066-2.576,25.24,25.24,0,0,1,.066,2.576,25.234,25.234,0,0,1-.066,2.575" transform="translate(-43.668 -35.965)" fill="#febf10"/>
        <path id="Trazado_168942" data-name="Trazado 168942" d="M74.9,67.063c.032.018-.556,1.094-1.312,2.4S72.2,71.821,72.164,71.8s.556-1.094,1.312-2.4,1.394-2.355,1.426-2.337" transform="translate(-37.051 -34.432)" fill="#febf10"/>
        <path id="Trazado_168943" data-name="Trazado 168943" d="M67.036,62.336a14.124,14.124,0,0,1-1.459,1.244,13.961,13.961,0,0,1-1.54,1.14,27.992,27.992,0,0,1,3-2.384" transform="translate(-32.878 -32.005)" fill="#febf10"/>
        <path id="Trazado_168944" data-name="Trazado 168944" d="M96.765,70.878a3.71,3.71,0,0,1-.164-.633c-.09-.393-.217-.936-.377-1.529s-.322-1.126-.441-1.511a3.644,3.644,0,0,1-.176-.631,2.882,2.882,0,0,1,.263.6c.143.38.319.91.48,1.508s.274,1.145.341,1.544a2.894,2.894,0,0,1,.073.652" transform="translate(-49.086 -34.181)" fill="#febf10"/>
        <path id="Trazado_168945" data-name="Trazado 168945" d="M107.2,62.857a21.832,21.832,0,0,1-1.846-1.526,21.961,21.961,0,0,1-1.759-1.625,21.742,21.742,0,0,1,1.846,1.526,21.9,21.9,0,0,1,1.759,1.625" transform="translate(-53.189 -30.655)" fill="#febf10"/>
        <path id="Trazado_168946" data-name="Trazado 168946" d="M110.56,52.836a5.194,5.194,0,0,1-.753-.108c-.462-.077-1.1-.176-1.812-.258s-1.356-.129-1.824-.159a5.257,5.257,0,0,1-.758-.065,3.8,3.8,0,0,1,.762-.028c.471.006,1.121.04,1.835.122s1.355.2,1.815.3a3.809,3.809,0,0,1,.736.2" transform="translate(-54.122 -26.81)" fill="#febf10"/>
        <path id="Trazado_168947" data-name="Trazado 168947" d="M109.6,41c.009.036-1.343.4-3.019.8s-3.042.71-3.05.675,1.343-.4,3.019-.8,3.042-.71,3.05-.675" transform="translate(-53.158 -21.051)" fill="#febf10"/>
        <path id="Trazado_168948" data-name="Trazado 168948" d="M98.341,26.464c.03.02-.616,1.052-1.445,2.3S95.373,31.02,95.342,31s.616-1.051,1.445-2.3,1.524-2.252,1.554-2.232" transform="translate(-48.951 -13.587)" fill="#febf10"/>
        <path id="Trazado_168949" data-name="Trazado 168949" d="M86.967,23.426a6.04,6.04,0,0,1,.009.857c-.008.529-.018,1.259-.018,2.065s.013,1.537.022,2.065a6.14,6.14,0,0,1-.007.857,5.068,5.068,0,0,1-.086-.853c-.033-.529-.059-1.261-.06-2.069s.024-1.54.056-2.069a5.076,5.076,0,0,1,.084-.854" transform="translate(-44.58 -12.028)" fill="#febf10"/>
        <path id="Trazado_168950" data-name="Trazado 168950" d="M73.232,32.12c-.031.019-.689-1-1.469-2.278s-1.388-2.328-1.357-2.347.688,1,1.469,2.278,1.388,2.328,1.357,2.347" transform="translate(-36.148 -14.117)" fill="#febf10"/>
        <path id="Trazado_168951" data-name="Trazado 168951" d="M65.077,41.165a3.132,3.132,0,0,1-.664-.105c-.406-.086-.963-.222-1.57-.4s-1.15-.367-1.537-.516a3.071,3.071,0,0,1-.615-.272,3.765,3.765,0,0,1,.646.184c.394.126.938.3,1.543.478s1.156.328,1.555.436a3.726,3.726,0,0,1,.642.2" transform="translate(-31.161 -20.47)" fill="#febf10"/>
        <path id="Trazado_168952" data-name="Trazado 168952" d="M62.641,52.382a15.494,15.494,0,0,1-1.992.258,15.418,15.418,0,0,1-2.006.127,15.431,15.431,0,0,1,1.993-.257,15.362,15.362,0,0,1,2.005-.127" transform="translate(-30.109 -26.889)" fill="#febf10"/>
        <path id="Trazado_168953" data-name="Trazado 168953" d="M414.028,326.031c.254-1.849-2.356-3.371-4.317-3.53a11.127,11.127,0,0,1-2.793-.241c-1.92-.67-2.687-3.15-4.56-3.94-1.4-.591-3.013-.065-4.371.618a11.4,11.4,0,0,1-4.217,1.641c-1.32.085-2.753-.4-3.907.24-.86.48-1.311,1.471-2.1,2.056a5.019,5.019,0,0,1-2.75.746,7.738,7.738,0,0,0-2.835.463,2.24,2.24,0,0,0-1.42,2.275Z" transform="translate(-195.476 -163.304)" fill="#fff"/>
        <path id="Trazado_168954" data-name="Trazado 168954" d="M413.9,325.922a.978.978,0,0,1-.161.011l-.488.014-1.9.037-7.048.107-23.681.285h-.1l-.02-.1a2,2,0,0,1,.435-1.579,2.94,2.94,0,0,1,1.384-.966,24.138,24.138,0,0,1,3.713-.464,3.487,3.487,0,0,0,1.611-.669,11.721,11.721,0,0,0,1.2-1.305,3.56,3.56,0,0,1,.689-.6,2.665,2.665,0,0,1,.849-.35,6.134,6.134,0,0,1,1.761-.042,8.979,8.979,0,0,0,1.671.041,5.832,5.832,0,0,0,1.566-.411c1-.4,1.908-.967,2.86-1.4a6.181,6.181,0,0,1,2.959-.659,3.376,3.376,0,0,1,1.4.421,4.9,4.9,0,0,1,1.09.882c.631.659,1.127,1.373,1.706,1.949a3.5,3.5,0,0,0,1.976,1.1c.722.115,1.428.053,2.089.1a6.228,6.228,0,0,1,3.144,1.176,3.183,3.183,0,0,1,1.263,1.69,1.794,1.794,0,0,1,.026.742,2.853,2.853,0,0,0-.075-.728,3.183,3.183,0,0,0-1.272-1.624,6.181,6.181,0,0,0-3.095-1.115c-.648-.041-1.353.029-2.105-.083a3.672,3.672,0,0,1-2.077-1.13c-.6-.587-1.1-1.3-1.72-1.94a4.727,4.727,0,0,0-1.05-.841,3.167,3.167,0,0,0-1.319-.388,5.988,5.988,0,0,0-2.851.652c-.93.427-1.838,1-2.864,1.414a6.05,6.05,0,0,1-1.629.431,9.129,9.129,0,0,1-1.715-.036,5.922,5.922,0,0,0-1.689.04,2.6,2.6,0,0,0-1.408.882,11.765,11.765,0,0,1-1.23,1.334,3.726,3.726,0,0,1-1.724.722,24.841,24.841,0,0,0-3.674.456,2.686,2.686,0,0,0-1.267.882,1.744,1.744,0,0,0-.387,1.376l-.125-.1,23.6-.181,7.076-.032h1.922l.5,0a1.5,1.5,0,0,1,.177.008" transform="translate(-195.344 -163.195)" fill="#757ac6"/>
        <path id="Trazado_168955" data-name="Trazado 168955" d="M187.649,406.972c.338-2.457-3.129-4.478-5.734-4.688a14.758,14.758,0,0,1-3.71-.321c-2.55-.888-3.568-4.183-6.057-5.233-1.861-.785-4-.086-5.806.821s-3.586,2.05-5.6,2.179c-1.753.112-3.656-.538-5.189.319-1.142.638-1.741,1.955-2.794,2.731a6.665,6.665,0,0,1-3.653.991,10.286,10.286,0,0,0-3.766.615,2.977,2.977,0,0,0-1.885,3.021Z" transform="translate(-73.634 -203.519)" fill="#fff"/>
        <path id="Trazado_168956" data-name="Trazado 168956" d="M187.516,406.863s-.071.007-.216.011l-.651.016-2.523.043-9.365.13-31.439.362h-.1l-.02-.1a2.61,2.61,0,0,1,.57-2.064,3.864,3.864,0,0,1,1.819-1.269c1.642-.559,3.349-.323,4.925-.616a4.667,4.667,0,0,0,2.159-.9,15.674,15.674,0,0,0,1.6-1.739,4.682,4.682,0,0,1,.907-.8,3.5,3.5,0,0,1,1.113-.46,8.074,8.074,0,0,1,2.328-.055,11.975,11.975,0,0,0,2.227.053,7.783,7.783,0,0,0,2.091-.549c1.336-.535,2.538-1.288,3.8-1.863a8.186,8.186,0,0,1,3.912-.874,4.447,4.447,0,0,1,1.848.554,6.471,6.471,0,0,1,1.442,1.165c.836.872,1.5,1.82,2.267,2.587a4.684,4.684,0,0,0,2.642,1.465c.964.152,1.9.068,2.777.131a7.706,7.706,0,0,1,2.372.563,8.28,8.28,0,0,1,1.795.989,5.52,5.52,0,0,1,1.161,1.154,3.222,3.222,0,0,1,.519,1.081,2.258,2.258,0,0,1,.066.737c-.014.168-.023.246-.023.246s0-.092,0-.254a2.458,2.458,0,0,0-.091-.715,4.226,4.226,0,0,0-1.688-2.167,8.255,8.255,0,0,0-1.782-.957,7.619,7.619,0,0,0-2.336-.534c-.862-.056-1.8.036-2.794-.113a4.849,4.849,0,0,1-2.742-1.5c-.79-.778-1.456-1.725-2.282-2.577a6.289,6.289,0,0,0-1.4-1.124,4.245,4.245,0,0,0-1.765-.521,7.983,7.983,0,0,0-3.8.868c-1.239.568-2.445,1.328-3.8,1.877a8,8,0,0,1-2.153.569,12.162,12.162,0,0,1-2.27-.048,7.846,7.846,0,0,0-2.255.054,3.244,3.244,0,0,0-1.033.427,4.446,4.446,0,0,0-.858.756,15.651,15.651,0,0,1-1.629,1.766,4.918,4.918,0,0,1-2.271.95c-1.628.3-3.324.069-4.886.607a3.606,3.606,0,0,0-1.7,1.185,2.359,2.359,0,0,0-.523,1.861l-.125-.1,31.356-.258,9.393-.055,2.549-.007.666,0c.151,0,.232.007.232.007" transform="translate(-73.502 -203.411)" fill="#757ac6"/>
        <path id="Trazado_168957" data-name="Trazado 168957" d="M102.669,170.28c.284-2.062-2.626-3.758-4.813-3.934a12.377,12.377,0,0,1-3.114-.269c-2.14-.746-3-3.512-5.084-4.392-1.561-.659-3.359-.072-4.873.689s-3.009,1.72-4.7,1.829c-1.471.094-3.068-.452-4.355.267-.959.536-1.462,1.641-2.346,2.293a5.593,5.593,0,0,1-3.066.831,8.63,8.63,0,0,0-3.161.517,2.5,2.5,0,0,0-1.582,2.536Z" transform="translate(-33.652 -82.867)" fill="#fff"/>
        <path id="Trazado_168958" data-name="Trazado 168958" d="M102.537,170.171a1.262,1.262,0,0,1-.18.011l-.544.015-2.115.039-7.859.115-26.4.312h-.1l-.02-.1a2.209,2.209,0,0,1,.483-1.748,3.265,3.265,0,0,1,1.536-1.072c1.385-.471,2.818-.272,4.137-.517a3.9,3.9,0,0,0,1.8-.749,13.135,13.135,0,0,0,1.343-1.457,3.946,3.946,0,0,1,.765-.671,2.958,2.958,0,0,1,.941-.388,6.792,6.792,0,0,1,1.959-.047,9.983,9.983,0,0,0,1.865.045,6.5,6.5,0,0,0,1.75-.459c1.119-.448,2.129-1.08,3.188-1.562a6.887,6.887,0,0,1,3.292-.735,3.747,3.747,0,0,1,1.558.468,5.449,5.449,0,0,1,1.214.981c.7.734,1.256,1.529,1.9,2.172a3.916,3.916,0,0,0,2.209,1.227c.807.128,1.594.058,2.33.111a6.943,6.943,0,0,1,3.5,1.308,3.548,3.548,0,0,1,1.409,1.881,1.87,1.87,0,0,1,.054.62c-.012.142-.021.205-.021.205s0-.078,0-.214a2.081,2.081,0,0,0-.078-.6,3.548,3.548,0,0,0-1.418-1.814,6.892,6.892,0,0,0-3.453-1.247c-.723-.046-1.509.032-2.346-.093a4.086,4.086,0,0,1-2.31-1.258c-.665-.654-1.224-1.449-1.916-2.163a5.258,5.258,0,0,0-1.173-.94,3.546,3.546,0,0,0-1.475-.435,6.688,6.688,0,0,0-3.184.728c-1.038.476-2.05,1.115-3.193,1.576a6.753,6.753,0,0,1-1.812.479,10.21,10.21,0,0,1-1.909-.04,6.586,6.586,0,0,0-1.887.045,2.908,2.908,0,0,0-1.576.987,13.13,13.13,0,0,1-1.37,1.485,4.148,4.148,0,0,1-1.915.8c-1.37.25-2.793.058-4.1.508a3.006,3.006,0,0,0-1.419.988,1.961,1.961,0,0,0-.435,1.546l-.125-.1,26.312-.208,7.886-.04,2.142,0,.56,0a1.788,1.788,0,0,1,.2.007" transform="translate(-33.519 -82.758)" fill="#757ac6"/>
        <path id="Trazado_168959" data-name="Trazado 168959" d="M383.667,61.893c.223-1.621-2.065-2.954-3.784-3.093a9.719,9.719,0,0,1-2.447-.211c-1.683-.586-2.355-2.76-4-3.453a4.7,4.7,0,0,0-3.83.542,10,10,0,0,1-3.7,1.438c-1.156.074-2.412-.355-3.424.21-.754.421-1.149,1.29-1.844,1.8a4.395,4.395,0,0,1-2.41.653,6.793,6.793,0,0,0-2.485.406,1.964,1.964,0,0,0-1.244,1.993Z" transform="translate(-182.002 -28.193)" fill="#fff"/>
        <path id="Trazado_168960" data-name="Trazado 168960" d="M383.534,61.784a.733.733,0,0,1-.14.011l-.426.013-1.66.035-6.175.1-20.758.256h-.1l-.02-.1a1.764,1.764,0,0,1,.384-1.4,2.593,2.593,0,0,1,1.22-.852,21.155,21.155,0,0,1,3.256-.408,3.036,3.036,0,0,0,1.406-.583,10.325,10.325,0,0,0,1.053-1.142,2.509,2.509,0,0,1,1.355-.84,5.369,5.369,0,0,1,1.548-.037,7.816,7.816,0,0,0,1.461.036,5.1,5.1,0,0,0,1.369-.359c.877-.35,1.67-.847,2.5-1.227a5.436,5.436,0,0,1,2.6-.578,2.964,2.964,0,0,1,1.234.371,4.3,4.3,0,0,1,.959.776c.554.579.988,1.2,1.494,1.708a3.062,3.062,0,0,0,1.726.961c.631.1,1.25.047,1.829.09a5.458,5.458,0,0,1,2.758,1.034,2.792,2.792,0,0,1,1.106,1.485,1.529,1.529,0,0,1,.02.651,2.6,2.6,0,0,0-.069-.637,2.791,2.791,0,0,0-1.116-1.419,5.411,5.411,0,0,0-2.709-.973c-.567-.036-1.185.026-1.846-.072a3.229,3.229,0,0,1-1.826-.993c-.525-.515-.965-1.141-1.508-1.7a4.128,4.128,0,0,0-.918-.735,2.772,2.772,0,0,0-1.15-.339,5.24,5.24,0,0,0-2.492.572c-.814.374-1.61.876-2.511,1.241a5.329,5.329,0,0,1-1.431.379,8.053,8.053,0,0,1-1.505-.032,5.177,5.177,0,0,0-1.476.036,2.261,2.261,0,0,0-1.226.768,10.311,10.311,0,0,1-1.079,1.17,3.277,3.277,0,0,1-1.518.636,21.773,21.773,0,0,0-3.217.4,2.336,2.336,0,0,0-1.1.768,1.514,1.514,0,0,0-.337,1.193l-.125-.1,20.675-.153,6.2-.023,1.686,0,.442,0a1.088,1.088,0,0,1,.156.008" transform="translate(-181.87 -28.084)" fill="#757ac6"/>
        <path id="Trazado_168961" data-name="Trazado 168961" d="M231.892,244.943l-.35,8s8.016,3.043,8.1,4.528l-15.54-.121.034-12.49Z" transform="translate(-115.059 -125.72)" fill="#375a64"/>
        <path id="Trazado_168962" data-name="Trazado 168962" d="M229.05,259.987a.634.634,0,0,0-.445.721.61.61,0,0,0,.71.447.67.67,0,0,0,.467-.766.633.633,0,0,0-.791-.383" transform="translate(-117.367 -133.473)" fill="#e1e1e1"/>
        <g id="Grupo_118869" data-name="Grupo 118869" transform="translate(109.039 130.374)" opacity="0.6">
          <g id="Grupo_118868" data-name="Grupo 118868">
            <g id="Grupo_118867" data-name="Grupo 118867" clip-path="url(#clip-path-3)">
              <path id="Trazado_168963" data-name="Trazado 168963" d="M224.1,269.2l.053-1.259,14.879.587s.689.307.608.793Z" transform="translate(-224.098 -267.945)" fill="#fff"/>
            </g>
          </g>
        </g>
        <path id="Trazado_168964" data-name="Trazado 168964" d="M238.415,261.24c0,.076-.383.107-.758.348s-.577.559-.646.528c-.07-.015.047-.468.507-.752s.915-.194.9-.124" transform="translate(-121.679 -134.092)" fill="#1a2e35"/>
        <path id="Trazado_168965" data-name="Trazado 168965" d="M242.16,262.695c.017.073-.313.2-.573.519s-.337.658-.413.654c-.072.011-.121-.434.211-.824s.774-.422.775-.349" transform="translate(-123.799 -134.86)" fill="#1a2e35"/>
        <path id="Trazado_168966" data-name="Trazado 168966" d="M245.032,265.375c-.069.016-.172-.364.026-.779s.554-.577.586-.513-.19.284-.347.626-.19.658-.265.665" transform="translate(-125.761 -135.582)" fill="#1a2e35"/>
        <path id="Trazado_168967" data-name="Trazado 168967" d="M237.958,257.256c-.032.069-.38-.038-.809-.013s-.764.159-.8.093.285-.333.791-.357.86.217.822.276" transform="translate(-121.345 -131.94)" fill="#1a2e35"/>
        <path id="Trazado_168968" data-name="Trazado 168968" d="M281.514,244.943l-.35,8s8.016,3.043,8.1,4.528l-15.54-.121.034-12.49Z" transform="translate(-140.536 -125.72)" fill="#375a64"/>
        <path id="Trazado_168969" data-name="Trazado 168969" d="M278.673,259.987a.634.634,0,0,0-.444.721.61.61,0,0,0,.71.447.67.67,0,0,0,.467-.766.633.633,0,0,0-.791-.383" transform="translate(-142.845 -133.473)" fill="#e1e1e1"/>
        <g id="Grupo_118872" data-name="Grupo 118872" transform="translate(133.184 130.374)" opacity="0.6">
          <g id="Grupo_118871" data-name="Grupo 118871">
            <g id="Grupo_118870" data-name="Grupo 118870" clip-path="url(#clip-path-3)">
              <path id="Trazado_168970" data-name="Trazado 168970" d="M273.72,269.2l.053-1.259,14.879.587s.689.307.608.793Z" transform="translate(-273.72 -267.945)" fill="#fff"/>
            </g>
          </g>
        </g>
        <path id="Trazado_168971" data-name="Trazado 168971" d="M288.037,261.24c0,.076-.383.107-.758.348s-.577.559-.646.528c-.07-.015.047-.468.507-.752s.915-.194.9-.124" transform="translate(-147.156 -134.092)" fill="#1a2e35"/>
        <path id="Trazado_168972" data-name="Trazado 168972" d="M291.782,262.695c.017.073-.313.2-.573.519s-.337.658-.413.654c-.072.011-.121-.434.211-.824s.774-.422.775-.349" transform="translate(-149.277 -134.86)" fill="#1a2e35"/>
        <path id="Trazado_168973" data-name="Trazado 168973" d="M294.655,265.375c-.069.016-.172-.364.026-.779s.554-.577.586-.513-.19.284-.347.626-.19.658-.265.665" transform="translate(-151.239 -135.582)" fill="#1a2e35"/>
        <path id="Trazado_168974" data-name="Trazado 168974" d="M287.58,257.256c-.032.069-.38-.038-.809-.013s-.764.159-.8.093.285-.333.791-.357.86.217.822.276" transform="translate(-146.823 -131.94)" fill="#1a2e35"/>
        <path id="Trazado_168975" data-name="Trazado 168975" d="M222.6,17.418a27.644,27.644,0,0,1-1.369-4.572,9.666,9.666,0,0,1,.208-4.725c.076-.229.738-1.773.979-1.757.172.011-.218,1.442-.126,1.588a8.2,8.2,0,0,1,1.093,4.741,21.585,21.585,0,0,1-.785,4.725" transform="translate(-113.488 -3.267)" fill="#1a2e35"/>
        <path id="Trazado_168976" data-name="Trazado 168976" d="M224.66,23.11l-.581-14.456c-.274-3.986,1.511-7.562,5.5-7.725l.434.007a7.074,7.074,0,0,1,6.937,6.626c.219,3.472.419,7.328.363,9.19-.114,3.832-3.958,4.361-3.958,4.361s.164,2.778.193,3.9c0,0-.406.3-3.975.422a5.293,5.293,0,0,1-4.914-2.328" transform="translate(-115.035 -0.477)" fill="#ffc09d"/>
        <path id="Trazado_168977" data-name="Trazado 168977" d="M237.937,40.764a9.258,9.258,0,0,1-4.964-1.562,4.792,4.792,0,0,0,5,2.53Z" transform="translate(-119.616 -20.128)" fill="#ff9b6c"/>
        <path id="Trazado_168978" data-name="Trazado 168978" d="M246.7,21.182a.547.547,0,0,1-.537.543.523.523,0,0,1-.556-.5.547.547,0,0,1,.537-.543.524.524,0,0,1,.556.5" transform="translate(-126.105 -10.617)" fill="#1a2e35"/>
        <path id="Trazado_168979" data-name="Trazado 168979" d="M246.293,18.276c-.069.07-.478-.244-1.068-.253s-1.026.278-1.088.2c-.031-.032.041-.16.231-.294a1.507,1.507,0,0,1,.873-.253,1.446,1.446,0,0,1,.848.29c.179.143.238.272.2.3" transform="translate(-125.344 -9.078)" fill="#1a2e35"/>
        <path id="Trazado_168980" data-name="Trazado 168980" d="M235.229,21.272c-.069.07-.479-.244-1.068-.253s-1.026.278-1.088.2c-.031-.032.04-.16.231-.293a1.5,1.5,0,0,1,.873-.253,1.453,1.453,0,0,1,.848.29c.178.143.237.272.2.3" transform="translate(-119.663 -10.616)" fill="#1a2e35"/>
        <path id="Trazado_168981" data-name="Trazado 168981" d="M241,23.258a3.879,3.879,0,0,1,.959-.156c.151-.013.294-.04.321-.143a.763.763,0,0,0-.092-.448l-.425-1.153a19.7,19.7,0,0,1-.947-3.013A19.656,19.656,0,0,1,242,21.275l.406,1.159a.87.87,0,0,1,.068.592.376.376,0,0,1-.251.216,1.009,1.009,0,0,1-.256.031,3.842,3.842,0,0,1-.969-.016" transform="translate(-123.636 -9.419)" fill="#1a2e35"/>
        <path id="Trazado_168982" data-name="Trazado 168982" d="M234.717,18.094c-.072.154-.651.026-1.347.047s-1.27.158-1.348.007c-.035-.072.076-.214.314-.348a2.342,2.342,0,0,1,2.053-.041c.244.125.36.261.328.335" transform="translate(-119.124 -9.007)" fill="#1a2e35"/>
        <path id="Trazado_168983" data-name="Trazado 168983" d="M246.62,13.963c-.09.156-.58.121-1.136.235-.559.1-1,.31-1.142.2-.062-.056-.017-.2.162-.371a1.8,1.8,0,0,1,.874-.415,1.779,1.779,0,0,1,.961.067c.225.092.319.213.281.288" transform="translate(-125.439 -6.969)" fill="#1a2e35"/>
        <path id="Trazado_168984" data-name="Trazado 168984" d="M221.92,22.449c-.065-.03-2.62-.825-2.582,1.8A1.971,1.971,0,0,0,222,26.213c0-.075-.084-3.765-.084-3.765" transform="translate(-112.615 -11.456)" fill="#ffc09d"/>
        <path id="Trazado_168985" data-name="Trazado 168985" d="M221.8,26.152c-.012-.008-.045.033-.122.069a.456.456,0,0,1-.341.012,1.131,1.131,0,0,1-.538-1.007,1.507,1.507,0,0,1,.118-.655.528.528,0,0,1,.339-.356.233.233,0,0,1,.271.121c.036.073.02.126.034.13s.055-.045.033-.153a.293.293,0,0,0-.106-.163.344.344,0,0,0-.253-.063.641.641,0,0,0-.471.413,1.552,1.552,0,0,0-.147.733,1.186,1.186,0,0,0,.683,1.123.489.489,0,0,0,.417-.075c.08-.066.093-.125.084-.129" transform="translate(-113.272 -12.366)" fill="#ff9b6c"/>
        <path id="Trazado_168986" data-name="Trazado 168986" d="M233.735,2.845c.419-.244-.887-1.588-1.94-2.037a9.316,9.316,0,0,0-5.452-.616,6.318,6.318,0,0,0-4.011,3.054A10.309,10.309,0,0,0,221.3,8.536a3.13,3.13,0,0,0,.406,1.593c.38.571,1.091.92,1.079,1.72a1.1,1.1,0,0,0,.291.794c.491.5,1.067.006,1.326-.481a7.592,7.592,0,0,0,.611-3.445,7.666,7.666,0,0,0-.224-2.489c-.138-.434-.354-.842-.468-1.283a1.574,1.574,0,0,1,.155-1.313,1.641,1.641,0,0,1,.208-.22,2.734,2.734,0,0,1,2.7-.58c1.488.488,4.027,1.209,4.674.693A4.04,4.04,0,0,0,233.2,2.307Z" transform="translate(-113.612 0)" fill="#1a2e35"/>
        <path id="Trazado_168987" data-name="Trazado 168987" d="M239.532,30.557c.01.042-.134.127-.4.16a1.936,1.936,0,0,1-1.78-.847c-.14-.225-.165-.39-.126-.409.088-.046.406.471,1.049.765.634.313,1.235.233,1.255.33" transform="translate(-121.792 -15.125)" fill="#1a2e35"/>
        <path id="Trazado_168988" data-name="Trazado 168988" d="M315.53,17.958s-.1-.613-.4-.613a1.073,1.073,0,0,0-.959.613c-.2.447,1.363,0,1.363,0" transform="translate(-161.294 -8.905)" fill="#ffc09d"/>
        <path id="Trazado_168989" data-name="Trazado 168989" d="M300.434,27.508l.3-4.833L301.7,17.7s.757-.81,1.161-.621.252.853.252.853,1.06-1.145,1.464-.881.252.881.252.881.959-1.27,1.413-.921,0,.921,0,.921a48.264,48.264,0,0,1,.3,7.567,3.691,3.691,0,0,1-2,2.731l-.805,3.135-3.954-2.152Z" transform="translate(-153.915 -8.703)" fill="#ffc09d"/>
        <path id="Trazado_168990" data-name="Trazado 168990" d="M283.438,22.954l-21.478-.238V21l21.478-.6Z" transform="translate(-134.499 -10.471)" fill="#ff004c"/>
        <path id="Trazado_168991" data-name="Trazado 168991" d="M320.379,22.86l-30.348-1.282a5.123,5.123,0,0,1-.022-3.353l30.157-1.33a5.088,5.088,0,0,1,.214,5.965" transform="translate(-148.761 -8.674)" fill="#ff004c"/>
        <path id="Trazado_168992" data-name="Trazado 168992" d="M351.173,17.465a3.7,3.7,0,0,0-.879,2.72,3.608,3.608,0,0,0,.954,2.647,3.968,3.968,0,0,0,.85-2.92,3.474,3.474,0,0,0-.925-2.447" transform="translate(-179.851 -8.967)" fill="#e1e1e1"/>
        <path id="Trazado_168993" data-name="Trazado 168993" d="M348.355,22.934a2.146,2.146,0,0,1-.59-.737,4.234,4.234,0,0,1-.6-2.2,4.857,4.857,0,0,1,.532-2.218,1.836,1.836,0,0,1,.591-.738c.033.027-.2.3-.43.817A5.513,5.513,0,0,0,347.42,20a4.662,4.662,0,0,0,.5,2.113c.25.509.464.8.432.821" transform="translate(-178.246 -8.748)" fill="#1a2e35"/>
        <path id="Trazado_168994" data-name="Trazado 168994" d="M351.176,17.034c.033.026-.19.31-.432.827a4.774,4.774,0,0,0,.081,4.264,2.364,2.364,0,0,0,.539.732c-.005.014-.1,0-.241-.1a1.838,1.838,0,0,1-.454-.542,4.407,4.407,0,0,1-.084-4.435,2.02,2.02,0,0,1,.591-.744" transform="translate(-179.715 -8.745)" fill="#1a2e35"/>
        <path id="Trazado_168995" data-name="Trazado 168995" d="M352.493,19.847a.76.76,0,0,0-.162-.266.325.325,0,0,0-.285-.1.3.3,0,0,0-.211.208.44.44,0,0,0,.033.3c.11.219.29.423.284.642a5.938,5.938,0,0,0-.043.655.459.459,0,0,0,.071.227.225.225,0,0,0,.205.1c.13-.018.195-.165.224-.292a2.464,2.464,0,0,0-.116-1.482" transform="translate(-180.636 -10)" fill="#fff"/>
        <path id="Trazado_168996" data-name="Trazado 168996" d="M289.892,23.08a2.851,2.851,0,0,1-.415-1.743,2.852,2.852,0,0,1,.473-1.728c.072.028-.21.773-.22,1.732s.233,1.713.161,1.739" transform="translate(-148.626 -10.067)" fill="#1a2e35"/>
        <path id="Trazado_168997" data-name="Trazado 168997" d="M261.523,23.393h0a.328.328,0,0,1-.328-.328V21.248a.328.328,0,1,1,.656,0v1.817a.328.328,0,0,1-.328.328" transform="translate(-134.106 -10.741)" fill="#ff735d"/>
        <path id="Trazado_168998" data-name="Trazado 168998" d="M261.39,23.259c0-.021.086-.023.176-.112a.284.284,0,0,0,.08-.194c-.006-.113-.012-.226-.017-.342-.009-.294-.018-.595-.027-.905,0-.175,0-.353-.007-.534a.21.21,0,1,0-.408,0c0,.182,0,.359-.007.535-.009.31-.018.611-.027.905-.006.115-.012.229-.018.342a.284.284,0,0,0,.08.194c.089.089.178.091.176.112s-.092.054-.238-.036a.371.371,0,0,1-.159-.258c-.007-.117-.014-.234-.02-.354-.009-.294-.018-.595-.027-.905,0-.176,0-.353-.007-.535a.5.5,0,0,1,.1-.345.453.453,0,0,1,.7,0,.5.5,0,0,1,.1.345c0,.181,0,.359-.007.534-.009.31-.018.611-.027.905q-.01.179-.02.354a.373.373,0,0,1-.159.258c-.145.09-.242.047-.238.036" transform="translate(-133.973 -10.607)" fill="#1a2e35"/>
        <path id="Trazado_168999" data-name="Trazado 168999" d="M268.708,24.5s-.456-5.639-.321-6.134a5.545,5.545,0,0,1,2.236-2.3c.544-.06.6.544.6.544a3.348,3.348,0,0,1,1.511-.548.826.826,0,0,1,.9.674,1.628,1.628,0,0,1,1.2-.189c.32.057.688.626.688.626s.8-.344,1.176.012a1.9,1.9,0,0,1,.471,1.247,2.383,2.383,0,0,0-1.41.449,30.247,30.247,0,0,1-.486,3.653c-.3,1.209-1.5,2.207-1.9,2.833l-.318,4.171-5.133-2.719Z" transform="translate(-137.562 -8.247)" fill="#ffc09d"/>
        <path id="Trazado_169000" data-name="Trazado 169000" d="M271.873,19.16A1.9,1.9,0,0,1,272.3,17.7a1.9,1.9,0,0,1,1.229-.9c.036.067-.566.381-1.021,1.045a9.082,9.082,0,0,0-.632,1.317" transform="translate(-139.571 -8.619)" fill="#ff9b6c"/>
        <path id="Trazado_169001" data-name="Trazado 169001" d="M276.991,19.31a1.481,1.481,0,0,1,.212-1.338,1.518,1.518,0,0,1,.753-.641c.244-.086.405-.066.408-.037.019.07-.59.2-.946.811a6.291,6.291,0,0,0-.428,1.2" transform="translate(-142.178 -8.867)" fill="#ff9b6c"/>
        <path id="Trazado_169002" data-name="Trazado 169002" d="M280.827,19.565c-.066-.012.044-.548.525-.98s1.02-.5,1.026-.43-.436.229-.855.617-.625.819-.695.793" transform="translate(-144.176 -9.31)" fill="#ff9b6c"/>
        <path id="Trazado_169003" data-name="Trazado 169003" d="M304.792,29.137c.858-1.01.2-3.715.2-3.715a2.47,2.47,0,0,0,1.514-1.615c.3-1.211-.3-1.413-.3-1.413-.2.1-2.069,1.312-3.028,1.817s-1.262,5.645-1.262,5.645" transform="translate(-155.014 -11.497)" fill="#ffc09d"/>
        <path id="Trazado_169004" data-name="Trazado 169004" d="M301.9,29.707a3.051,3.051,0,0,1,0-.674c.022-.433.066-1.059.162-1.829a10.9,10.9,0,0,1,.6-2.673,1.808,1.808,0,0,1,.206-.36.924.924,0,0,1,.345-.275c.232-.127.467-.265.706-.407l1.465-.9c.252-.155.484-.306.748-.456l.049-.028.048.021a.748.748,0,0,1,.4.473,1.461,1.461,0,0,1,.062.557,2.551,2.551,0,0,1-.267,1.005,2.626,2.626,0,0,1-1.417,1.213l.069-.125a7.527,7.527,0,0,1,.138,2.789,2.271,2.271,0,0,1-.265.74c-.106.149-.173.217-.18.211a1.077,1.077,0,0,1,.124-.242,2.6,2.6,0,0,0,.2-.728,8.078,8.078,0,0,0-.224-2.72l-.02-.09.09-.036a2.438,2.438,0,0,0,1.272-1.12,2.339,2.339,0,0,0,.232-.91.8.8,0,0,0-.3-.778l.1-.007c-.228.131-.481.294-.726.446-.5.312-.992.615-1.472.9-.24.142-.479.278-.717.406a.666.666,0,0,0-.273.208,1.628,1.628,0,0,0-.182.31,11.57,11.57,0,0,0-.635,2.6c-.117.762-.189,1.383-.241,1.812a3.912,3.912,0,0,1-.1.666" transform="translate(-154.999 -11.349)" fill="#ff9b6c"/>
        <path id="Trazado_169005" data-name="Trazado 169005" d="M223.651,126.413s.6,24.489,0,27.476-1.593,15.33-1.593,24.489.384,11.246.384,11.246h8.892s.614-17.413,3.358-27.485c2.55-9.356,5.484-23.581,5.484-29.753v-8.362H224.448Z" transform="translate(-114.012 -63.678)" fill="#12263f"/>
        <path id="Trazado_169006" data-name="Trazado 169006" d="M262.172,124.024s9.328,25.883,9.925,33.449.627,32.151.627,32.151h-9.206l-1.23-29.7-7.085-19.24V124.024Z" transform="translate(-131.029 -63.678)" fill="#12263f"/>
        <path id="Trazado_169007" data-name="Trazado 169007" d="M255.462,152.667a3.847,3.847,0,0,1-.114.705c-.1.5-.22,1.138-.37,1.907-.317,1.658-.74,3.861-1.206,6.3-.476,2.459-.924,4.682-1.28,6.285-.178.8-.333,1.448-.449,1.893a3.831,3.831,0,0,1-.21.683,3.877,3.877,0,0,1,.114-.7l.369-1.907c.318-1.657.74-3.861,1.206-6.3.476-2.458.923-4.682,1.28-6.285.178-.8.333-1.448.449-1.893a3.83,3.83,0,0,1,.21-.683" transform="translate(-129.298 -78.384)" fill="#375a64"/>
        <path id="Trazado_169008" data-name="Trazado 169008" d="M260.356,96.579h1.972s.452-6.828-.688-11.429-6.956-24.641-6.956-24.641l-6.443-10.648-3.453-1.551,11.348,38.043Z" transform="translate(-125.682 -24.804)" fill="#febf10"/>
        <g id="Grupo_118875" data-name="Grupo 118875" transform="translate(125.328 38.722)" opacity="0.3">
          <g id="Grupo_118874" data-name="Grupo 118874">
            <g id="Grupo_118873" data-name="Grupo 118873" clip-path="url(#clip-path-5)">
              <path id="Trazado_169009" data-name="Trazado 169009" d="M259.746,79.581s5.966,17.676,6.954,22.31a104.063,104.063,0,0,1,1.5,10.744h-1.278L262.238,100.3s-4.883-19.622-4.655-19.573a13.339,13.339,0,0,0,2.163-1.141" transform="translate(-257.576 -79.581)"/>
            </g>
          </g>
        </g>
        <path id="Trazado_169010" data-name="Trazado 169010" d="M222.531,43.89l.536-3.387,9.514,4.271V42.7l4.2,7.013,9.249,26.3c.3.81.658,3.51.119,4.185l-.756.948-10.023,1.3-9.507-34.32Z" transform="translate(-114.254 -20.796)" fill="#e1e1e1"/>
        <g id="Grupo_118878" data-name="Grupo 118878" transform="translate(109.829 54.457)" opacity="0.3">
          <g id="Grupo_118877" data-name="Grupo 118877">
            <g id="Grupo_118876" data-name="Grupo 118876" clip-path="url(#clip-path-6)">
              <path id="Trazado_169011" data-name="Trazado 169011" d="M225.742,131.746s12.729,1.429,15.338.391a4.409,4.409,0,0,0,2.733-3.7s1.277-9.039,1.188-11.031a39.394,39.394,0,0,0-.826-5.487L225.72,130.151Z" transform="translate(-225.72 -111.92)"/>
            </g>
          </g>
        </g>
        <path id="Trazado_169012" data-name="Trazado 169012" d="M245.47,55.166s4.35,14.81,4.314,14.92,4.825,15.168,4.825,15.168l.956-4.527L248.8,58.152l-2.72-3.332Z" transform="translate(-126.032 -28.146)" fill="#ff004c"/>
        <path id="Trazado_169013" data-name="Trazado 169013" d="M212.6,45.808c-4.463,2.718-4.695,6.94-2.709,11.774.329.8.961,2.182,1.4,3.116,1.92,4.081,5.905,10.742,5.9,12.3,0,3.665-3.284,20.682-3.284,20.682s17.8,2.161,19.4.48S236.161,82,235.645,77.306c-.57-5.176-3.237-13.931-4.317-17.172a38.428,38.428,0,0,0-5.359-9.988,29.2,29.2,0,0,0-6.751-6.115l-3.787-2.482-.781,2.627a13.713,13.713,0,0,1-2.046,1.633" transform="translate(-107.154 -21.332)" fill="#febf10"/>
        <path id="Trazado_169014" data-name="Trazado 169014" d="M252.32,48.123c.367-.02,16.633,5.315,15.693,4.922l.434-.453,5.862-8.836,5.34,3.166s-5.3,10.123-6.173,11.709a4.861,4.861,0,0,1-4.316,2.556c-1.193,0-11.38-1.7-11.38-1.7Z" transform="translate(-129.549 -22.466)" fill="#febf10"/>
        <path id="Trazado_169015" data-name="Trazado 169015" d="M265.767,37.883l1.259-2.228,5.666,3.223-.883,2.454Z" transform="translate(-136.453 -18.306)" fill="#e1e1e1"/>
        <g id="Grupo_118881" data-name="Grupo 118881" transform="translate(104.395 34.488)" opacity="0.3">
          <g id="Grupo_118880" data-name="Grupo 118880">
            <g id="Grupo_118879" data-name="Grupo 118879" clip-path="url(#clip-path-7)">
              <path id="Trazado_169016" data-name="Trazado 169016" d="M214.553,72.814s10.945,6.1,14.414,6.9,7.356,1.915,7.356,1.915l-1.561-4.972-9.5-5.777Z" transform="translate(-214.553 -70.881)"/>
            </g>
          </g>
        </g>
        <path id="Trazado_169017" data-name="Trazado 169017" d="M211.669,56.931c-.135-.1,16.406,5.78,19.775,4.72s4.464-4.4,5.669-6.458c2.206-3.763,6.114-11.242,6.114-11.242l-7.016-4-6.97,11.662s-12.313-5.077-13.448-5.408a5.121,5.121,0,0,0-6.357,3.313c-1.9,4.541,2.233,7.419,2.233,7.419" transform="translate(-107.274 -20.51)" fill="#febf10"/>
        <path id="Trazado_169018" data-name="Trazado 169018" d="M211.61,56.75a.873.873,0,0,1-.124-.081c-.079-.057-.2-.146-.34-.273A7.4,7.4,0,0,1,210,55.145a6.188,6.188,0,0,1-1.087-2.481,5.129,5.129,0,0,1-.091-.83c-.017-.288.026-.585.038-.892.068-.3.1-.617.2-.927a7.693,7.693,0,0,1,.351-.939,6.361,6.361,0,0,1,1.178-1.809,4.8,4.8,0,0,1,1.984-1.279,5.407,5.407,0,0,1,2.545-.2,5.546,5.546,0,0,1,1.3.371l1.288.5c3.474,1.368,7.342,2.949,11.515,4.659l-.147.049L236.043,39.7l.064-.107.108.062,2.522,1.439,4.493,2.565.106.06-.056.108c-1.378,2.626-2.736,5.168-4.07,7.6-.669,1.215-1.33,2.4-2,3.552s-1.188,2.339-1.892,3.405a7.851,7.851,0,0,1-2.621,2.62,5.536,5.536,0,0,1-1.673.649,7.691,7.691,0,0,1-1.727-.011,42.742,42.742,0,0,1-6.086-1.246c-3.656-.98-6.545-1.934-8.534-2.591s-3.065-1.057-3.065-1.057a.688.688,0,0,1,.205.049l.6.186,2.293.735c2,.63,4.893,1.558,8.549,2.515a43.131,43.131,0,0,0,6.061,1.211,7.5,7.5,0,0,0,1.678,0,5.382,5.382,0,0,0,1.6-.629,7.64,7.64,0,0,0,2.539-2.557c.689-1.05,1.208-2.242,1.878-3.4s1.326-2.336,1.992-3.55c1.329-2.432,2.684-4.976,4.059-7.6l.049.167-4.494-2.564-2.522-1.44.171-.045-6.976,11.658-.053.088-.095-.039c-4.168-1.719-8.033-3.311-11.5-4.692l-1.283-.5a5.363,5.363,0,0,0-1.26-.367,5.237,5.237,0,0,0-2.461.177,4.638,4.638,0,0,0-1.922,1.223,6.226,6.226,0,0,0-1.161,1.758,7.571,7.571,0,0,0-.351.918c-.1.3-.138.613-.207.905-.015.3-.06.59-.046.871a5.063,5.063,0,0,0,.081.813,6.169,6.169,0,0,0,1.039,2.456,7.933,7.933,0,0,0,1.105,1.267c.14.131.251.225.326.288l.111.1" transform="translate(-107.215 -20.329)" fill="#1a2e35"/>
        <path id="Trazado_169019" data-name="Trazado 169019" d="M230.9,122.807l1.533-3.1,10.723.188-1.192,3.21Z" transform="translate(-118.551 -61.46)" fill="#febf10"/>
        <path id="Trazado_169020" data-name="Trazado 169020" d="M230.9,122.72a1.944,1.944,0,0,1,.234-.006l.637,0,2.336.029c1.979.027,4.718.067,7.861.145l-.119.08c.362-.977.743-2.007,1.135-3.066.019-.049.037-.1.054-.145l.117.171c-4.316-.076-8.172-.161-10.722-.233l.075-.046-1.159,2.234-.324.612c-.075.141-.117.217-.124.221a1.144,1.144,0,0,1,.084-.2c.073-.161.165-.362.279-.607l1.1-2.333.022-.046h.054c2.551.018,6.407.069,10.723.144l.179,0-.062.168-.054.144c-.395,1.058-.778,2.088-1.141,3.064l-.032.083-.088,0c-3.2-.091-6-.2-7.962-.277l-2.3-.095-.6-.029a1.054,1.054,0,0,1-.2-.018" transform="translate(-118.55 -61.372)" fill="#1a2e35"/>
        <path id="Trazado_169021" data-name="Trazado 169021" d="M232.937,53.833c-.035.061-2.752-1.432-6.068-3.333s-5.978-3.493-5.943-3.554,2.752,1.432,6.069,3.334,5.977,3.493,5.942,3.553" transform="translate(-113.429 -24.103)" fill="#1a2e35"/>
        <path id="Trazado_169022" data-name="Trazado 169022" d="M241.073,108.422c0,.07-2.588-.039-5.769-.242s-5.758-.426-5.753-.5,2.587.039,5.769.243,5.758.426,5.753.5" transform="translate(-117.859 -55.277)" fill="#1a2e35"/>
        <path id="Trazado_169023" data-name="Trazado 169023" d="M298.2,42.321l1.077-1.818,4.284,2.5-.833,1.974Z" transform="translate(-153.105 -20.795)" fill="#e1e1e1"/>
        <path id="Trazado_169024" data-name="Trazado 169024" d="M285.478,66.685a4.435,4.435,0,0,1-1.256-3.648c.077,0,.1.879.451,1.885s.867,1.717.806,1.763" transform="translate(-145.898 -32.365)" fill="#1a2e35"/>
        <path id="Trazado_169025" data-name="Trazado 169025" d="M265.326,74.1a20.331,20.331,0,0,1,1.009,3.038,20.315,20.315,0,0,1,.765,3.109,20.3,20.3,0,0,1-1.009-3.039,20.3,20.3,0,0,1-.765-3.108" transform="translate(-136.222 -38.046)" fill="#1a2e35"/>
        <path id="Trazado_169026" data-name="Trazado 169026" d="M250.9,67.555a3.678,3.678,0,0,1-.628-3.732,12.435,12.435,0,0,0,.047,1.911,12.54,12.54,0,0,0,.58,1.821" transform="translate(-128.364 -32.768)" fill="#1a2e35"/>
        <g id="Grupo_118884" data-name="Grupo 118884" transform="translate(113.019 58.433)" opacity="0.3">
          <g id="Grupo_118883" data-name="Grupo 118883">
            <g id="Grupo_118882" data-name="Grupo 118882" clip-path="url(#clip-path-8)">
              <path id="Trazado_169027" data-name="Trazado 169027" d="M232.466,123.024l-.189.94,11.1.313.482-4.185-1.192,3.21Z" transform="translate(-232.277 -120.091)"/>
            </g>
          </g>
        </g>
        <path id="Trazado_169028" data-name="Trazado 169028" d="M242.7,51.718l.117.126,1.23.866.613-.346-.4-1.357-1.3-.971Z" transform="translate(-124.611 -25.69)" fill="#ff004c"/>
        <path id="Trazado_169029" data-name="Trazado 169029" d="M240.845,49.8a5.871,5.871,0,0,1,.274,1.172l.039.207-.177-.124c-.429-.3-.983-.7-1.6-1.158l.193-.078-.184,1.207c-.04.251-.079.5-.117.734l-.027.167-.151-.074c-.933-.458-1.748-.87-2.328-1.175a4.843,4.843,0,0,1-.908-.531,4.834,4.834,0,0,1,.979.383c.6.265,1.428.65,2.365,1.1l-.178.093.113-.735.194-1.206.032-.2.161.123c.613.467,1.152.887,1.561,1.214l-.138.083a5.865,5.865,0,0,1-.1-1.2" transform="translate(-121.096 -25.458)" fill="#1a2e35"/>
      </g>
    </g>
  </g>
</svg>
