<svg xmlns="http://www.w3.org/2000/svg" xmlns:xlink="http://www.w3.org/1999/xlink" width="400" height="313.632" viewBox="0 0 400 313.632">
  <defs>
    <clipPath id="clip-path">
      <rect id="Rectángulo_43296" data-name="Rectángulo 43296" width="80.339" height="81.86" fill="none"/>
    </clipPath>
    <clipPath id="clip-path-3">
      <rect id="Rectángulo_43286" data-name="Rectángulo 43286" width="6.82" height="6.819" fill="none"/>
    </clipPath>
    <clipPath id="clip-path-6">
      <rect id="Rectángulo_43289" data-name="Rectángulo 43289" width="20.734" height="20.742" fill="none"/>
    </clipPath>
    <clipPath id="clip-path-7">
      <rect id="Rectángulo_43290" data-name="Rectángulo 43290" width="13.059" height="11.825" fill="none"/>
    </clipPath>
    <clipPath id="clip-path-8">
      <rect id="Rectángulo_43291" data-name="Rectángulo 43291" width="9.565" height="8.959" fill="none"/>
    </clipPath>
    <clipPath id="clip-path-9">
      <rect id="Rectángulo_43292" data-name="Rectángulo 43292" width="8.779" height="8.341" fill="none"/>
    </clipPath>
  </defs>
  <g id="Grupo_129717" data-name="Grupo 129717" transform="translate(-391 -2824)">
    <rect id="Rectángulo_4912" data-name="Rectángulo 4912" width="400" height="313.632" rx="21" transform="translate(391 2824)" fill="#22b5ed" opacity="0.25"/>
    <g id="Grupo_119249" data-name="Grupo 119249" transform="translate(0 101.422)">
      <g id="Elipse_6016" data-name="Elipse 6016" transform="translate(529 2762)" fill="#fff" stroke="#2631a0" stroke-width="4">
        <circle cx="62" cy="62" r="62" stroke="none"/>
        <circle cx="62" cy="62" r="60" fill="none"/>
      </g>
      <g id="Grupo_118757" data-name="Grupo 118757" transform="translate(555 2783.069)">
        <g id="Grupo_118756" data-name="Grupo 118756" clip-path="url(#clip-path)">
          <g id="Grupo_118755" data-name="Grupo 118755">
            <g id="Grupo_118754" data-name="Grupo 118754" clip-path="url(#clip-path)">
              <path id="Trazado_167930" data-name="Trazado 167930" d="M7.489,12.594A5.1,5.1,0,0,1,12.581,7.5H54.84V6.213a5.078,5.078,0,0,0-5.092-5.092H6.226A5.1,5.1,0,0,0,1.121,6.213V69.574a5.094,5.094,0,0,0,5.092,5.092H7.489Z" transform="translate(-0.154 -0.154)" fill="#bec6d0"/>
              <path id="Trazado_167931" data-name="Trazado 167931" d="M57.131,8.5H13.609a5.1,5.1,0,0,0-5.092,5.092V76.955a5.1,5.1,0,0,0,5.092,5.093H57.144a5.1,5.1,0,0,0,5.092-5.093V13.607A5.1,5.1,0,0,0,57.131,8.5Z" transform="translate(-1.169 -1.167)" fill="#fff"/>
              <rect id="Rectángulo_43282" data-name="Rectángulo 43282" width="10.687" height="10.687" transform="translate(12.724 33.273)" fill="#ef4a51"/>
              <rect id="Rectángulo_43283" data-name="Rectángulo 43283" width="10.687" height="10.687" transform="translate(12.724 48.588)" fill="#ffab03"/>
              <rect id="Rectángulo_43284" data-name="Rectángulo 43284" width="10.687" height="10.687" transform="translate(12.724 63.916)" fill="#7cb5e8"/>
              <rect id="Rectángulo_43285" data-name="Rectángulo 43285" width="10.687" height="10.687" transform="translate(12.724 63.916)" fill="#7cb5e8"/>
              <g id="Grupo_118729" data-name="Grupo 118729" transform="translate(16.591 63.916)" opacity="0.3">
                <g id="Grupo_118728" data-name="Grupo 118728">
                  <g id="Grupo_118727" data-name="Grupo 118727" clip-path="url(#clip-path-3)">
                    <path id="Trazado_167932" data-name="Trazado 167932" d="M19.23,78.323A2.585,2.585,0,0,0,21.808,80.9h4.241V74.082H19.23Z" transform="translate(-19.23 -74.082)" fill="#fff"/>
                  </g>
                </g>
              </g>
              <g id="Grupo_118732" data-name="Grupo 118732" transform="translate(16.591 48.588)" opacity="0.3">
                <g id="Grupo_118731" data-name="Grupo 118731">
                  <g id="Grupo_118730" data-name="Grupo 118730" clip-path="url(#clip-path-3)">
                    <path id="Trazado_167933" data-name="Trazado 167933" d="M19.23,60.557a2.585,2.585,0,0,0,2.578,2.578h4.241V56.316H19.23Z" transform="translate(-19.23 -56.316)" fill="#fff"/>
                  </g>
                </g>
              </g>
              <g id="Grupo_118735" data-name="Grupo 118735" transform="translate(16.591 33.26)" opacity="0.3">
                <g id="Grupo_118734" data-name="Grupo 118734">
                  <g id="Grupo_118733" data-name="Grupo 118733" clip-path="url(#clip-path-3)">
                    <path id="Trazado_167934" data-name="Trazado 167934" d="M19.23,42.791a2.585,2.585,0,0,0,2.578,2.578h4.241V38.55H19.23Z" transform="translate(-19.23 -38.55)" fill="#fff"/>
                  </g>
                </g>
              </g>
              <path id="Trazado_167935" data-name="Trazado 167935" d="M56.772,34.815A16.579,16.579,0,1,1,40.194,51.393,16.578,16.578,0,0,1,56.772,34.815" transform="translate(-5.516 -4.778)" fill="#fff"/>
              <path id="Trazado_167936" data-name="Trazado 167936" d="M57.442,64.452a12.376,12.376,0,1,0-8.754-3.623,12.3,12.3,0,0,0,8.754,3.623" transform="translate(-6.185 -5.448)" fill="#7cb5e8"/>
              <g id="Grupo_118738" data-name="Grupo 118738" transform="translate(42.91 34.239)" opacity="0.3">
                <g id="Grupo_118737" data-name="Grupo 118737">
                  <g id="Grupo_118736" data-name="Grupo 118736" clip-path="url(#clip-path-6)">
                    <path id="Trazado_167937" data-name="Trazado 167937" d="M58.082,39.686a12.292,12.292,0,0,0-6.5,1.857,12.369,12.369,0,0,0,17.03,17.029A12.369,12.369,0,0,0,58.082,39.686Z" transform="translate(-49.736 -39.686)" fill="#fff"/>
                  </g>
                </g>
              </g>
              <path id="Trazado_167938" data-name="Trazado 167938" d="M78.229,69.3,74.7,72.835a3.817,3.817,0,0,1-.735.555l9.759,9.759a3.41,3.41,0,0,0,4.822-4.822l-9.759-9.759a3.457,3.457,0,0,1-.555.735" transform="translate(-10.15 -9.41)" fill="#ef4a51"/>
              <g id="Grupo_118741" data-name="Grupo 118741" transform="translate(65.785 59.172)" opacity="0.3">
                <g id="Grupo_118740" data-name="Grupo 118740">
                  <g id="Grupo_118739" data-name="Grupo 118739" clip-path="url(#clip-path-7)">
                    <path id="Trazado_167939" data-name="Trazado 167939" d="M79.1,68.583a4.173,4.173,0,0,1-.555.735l-2.294,2.294,7.8,7.8a3.415,3.415,0,0,0,4.821,0,4.122,4.122,0,0,0,.438-.528,3.357,3.357,0,0,0-.438-.529Z" transform="translate(-76.249 -68.583)" fill="#e2e2e2"/>
                  </g>
                </g>
              </g>
              <path id="Trazado_167940" data-name="Trazado 167940" d="M72.147,66.768a16.259,16.259,0,0,0,3.6-5.4l1.5,1.5a3.867,3.867,0,0,1,0,5.466L73.707,71.86a3.867,3.867,0,0,1-5.466,0l-1.5-1.5A16.792,16.792,0,0,0,72.147,66.768Z" transform="translate(-9.16 -8.421)" fill="#4e6575"/>
              <g id="Grupo_118744" data-name="Grupo 118744" transform="translate(59.391 52.932)" opacity="0.3">
                <g id="Grupo_118743" data-name="Grupo 118743">
                  <g id="Grupo_118742" data-name="Grupo 118742" clip-path="url(#clip-path-8)">
                    <path id="Trazado_167941" data-name="Trazado 167941" d="M73.981,69.189l3.532-3.532a3.878,3.878,0,0,0,.89-1.405,3.882,3.882,0,0,0-.89-1.4l-1.5-1.5a16.8,16.8,0,0,1-3.6,5.4,16.3,16.3,0,0,1-3.584,2.707A3.867,3.867,0,0,0,73.981,69.189Z" transform="translate(-68.837 -61.351)" fill="#e2e2e2"/>
                  </g>
                </g>
              </g>
              <path id="Trazado_167942" data-name="Trazado 167942" d="M38.7,12.984l1.844,3.725,4.112.594-2.977,2.9.7,4.1L38.7,22.37,35.022,24.3l.7-4.1-2.964-2.9,4.1-.594Z" transform="translate(-4.495 -1.782)" fill="#ffab03"/>
              <g id="Grupo_118747" data-name="Grupo 118747" transform="translate(31.352 11.203)" opacity="0.3">
                <g id="Grupo_118746" data-name="Grupo 118746">
                  <g id="Grupo_118745" data-name="Grupo 118745" clip-path="url(#clip-path-9)">
                    <path id="Trazado_167943" data-name="Trazado 167943" d="M41.031,16.71l-1.845-3.725L37.344,16.71l-1.006.141A5.973,5.973,0,0,0,42.1,21.325c.078,0,.154-.026.232-.026l-.192-1.1,2.977-2.9Z" transform="translate(-36.339 -12.985)" fill="#fff"/>
                  </g>
                </g>
              </g>
              <path id="Trazado_167944" data-name="Trazado 167944" d="M23.647,18.244l1.831,3.725,4.112.594-2.977,2.9.708,4.1-3.674-1.933L19.96,29.563l.708-4.1-2.977-2.9,4.112-.594Z" transform="translate(-2.428 -2.504)" fill="#ffab03"/>
              <g id="Grupo_118750" data-name="Grupo 118750" transform="translate(18.357 15.74)" opacity="0.3">
                <g id="Grupo_118749" data-name="Grupo 118749">
                  <g id="Grupo_118748" data-name="Grupo 118748" clip-path="url(#clip-path-9)">
                    <path id="Trazado_167945" data-name="Trazado 167945" d="M25.97,21.969l-1.844-3.725-1.843,3.725-1.006.141a5.972,5.972,0,0,0,5.762,4.473c.078,0,.154-.026.232-.026l-.193-1.1,2.978-2.9Z" transform="translate(-21.277 -18.244)" fill="#fff"/>
                  </g>
                </g>
              </g>
              <path id="Trazado_167946" data-name="Trazado 167946" d="M53.755,18.244l1.831,3.725,4.112.594-2.977,2.9.708,4.1-3.674-1.933-3.687,1.933.708-4.1-2.977-2.9,4.112-.594Z" transform="translate(-6.56 -2.504)" fill="#ffab03"/>
              <g id="Grupo_118753" data-name="Grupo 118753" transform="translate(44.334 15.74)" opacity="0.3">
                <g id="Grupo_118752" data-name="Grupo 118752">
                  <g id="Grupo_118751" data-name="Grupo 118751" clip-path="url(#clip-path-9)">
                    <path id="Trazado_167947" data-name="Trazado 167947" d="M56.078,21.969l-1.844-3.725-1.843,3.725-1.006.141a5.972,5.972,0,0,0,5.762,4.473c.078,0,.154-.026.232-.026l-.193-1.1,2.978-2.9Z" transform="translate(-51.385 -18.244)" fill="#fff"/>
                  </g>
                </g>
              </g>
              <path id="Trazado_167948" data-name="Trazado 167948" d="M56.62,68.788a17.532,17.532,0,1,1,12.4-5.131,17.5,17.5,0,0,1-12.4,5.131m0-33.144a15.6,15.6,0,1,0,11.035,4.563A15.557,15.557,0,0,0,56.62,35.644" transform="translate(-5.364 -4.627)"/>
              <path id="Trazado_167949" data-name="Trazado 167949" d="M57.285,65.265a13.35,13.35,0,0,1-11.86-19.479.966.966,0,0,1,1.715.89A11.388,11.388,0,1,0,49.2,43.853a.966.966,0,0,1-1.366-1.367,13.345,13.345,0,1,1,9.449,22.779Z" transform="translate(-6.029 -5.294)"/>
              <path id="Trazado_167950" data-name="Trazado 167950" d="M85.979,84.983a4.294,4.294,0,0,1-3.094-1.29l-9.759-9.759a.957.957,0,0,1-.271-.8.988.988,0,0,1,.451-.709,2.8,2.8,0,0,0,.541-.412l3.532-3.532a2.7,2.7,0,0,0,.413-.542.965.965,0,0,1,1.508-.193l9.759,9.759a4.384,4.384,0,0,1-3.081,7.478ZM75.253,73.342l9,9a2.492,2.492,0,0,0,3.455,0,2.442,2.442,0,0,0,0-3.455l-9-9Z" transform="translate(-9.997 -9.259)"/>
              <path id="Trazado_167951" data-name="Trazado 167951" d="M70.8,73.791a4.8,4.8,0,0,1-3.416-1.418l-1.5-1.5A1,1,0,0,1,65.623,70a.986.986,0,0,1,.58-.709,15.613,15.613,0,0,0,8.47-8.469.982.982,0,0,1,.709-.581.965.965,0,0,1,.877.271l1.5,1.5a4.839,4.839,0,0,1,0,6.832l-3.532,3.533A4.778,4.778,0,0,1,70.8,73.791ZM68.252,70.5l.516.516a2.967,2.967,0,0,0,4.1,0L76.4,67.488a2.9,2.9,0,0,0,0-4.1l-.515-.516a17.976,17.976,0,0,1-3.21,4.422,17.07,17.07,0,0,1-4.422,3.21" transform="translate(-9.004 -8.265)"/>
              <path id="Trazado_167952" data-name="Trazado 167952" d="M44.272,81.872H33.958a.967.967,0,0,1,0-1.933H44.272a.967.967,0,1,1,0,1.933" transform="translate(-4.528 -10.97)"/>
              <path id="Trazado_167953" data-name="Trazado 167953" d="M53.845,81.872H51.4a.967.967,0,1,1,0-1.933h2.45a.967.967,0,0,1,0,1.933" transform="translate(-6.92 -10.97)"/>
              <path id="Trazado_167954" data-name="Trazado 167954" d="M44.272,87.281H33.958a.967.967,0,0,1,0-1.933H44.272a.967.967,0,1,1,0,1.933" transform="translate(-4.528 -11.712)"/>
              <path id="Trazado_167955" data-name="Trazado 167955" d="M53.845,87.281H51.4a.967.967,0,1,1,0-1.933h2.45a.967.967,0,0,1,0,1.933" transform="translate(-6.92 -11.712)"/>
              <path id="Trazado_167956" data-name="Trazado 167956" d="M56.977,84.7H13.455A6.069,6.069,0,0,1,7.4,78.641V21.661a.967.967,0,0,1,1.934,0v56.98a4.129,4.129,0,0,0,4.125,4.126H56.99a4.129,4.129,0,0,0,4.125-4.126v-8.7a.967.967,0,0,1,1.934,0v8.7A6.072,6.072,0,0,1,56.977,84.7Z" transform="translate(-1.015 -2.84)"/>
              <path id="Trazado_167957" data-name="Trazado 167957" d="M62.082,32.135a.974.974,0,0,1-.967-.967V13.455A4.128,4.128,0,0,0,56.99,9.33H13.455A4.128,4.128,0,0,0,9.33,13.455v1.857a.967.967,0,0,1-1.934,0V13.455A6.069,6.069,0,0,1,13.455,7.4H56.99a6.069,6.069,0,0,1,6.059,6.059V31.181a.963.963,0,0,1-.967.954" transform="translate(-1.015 -1.015)"/>
              <path id="Trazado_167958" data-name="Trazado 167958" d="M7.337,85.835H6.074A6.069,6.069,0,0,1,.015,79.776V76.334a.974.974,0,0,1,.967-.967.974.974,0,0,1,.966.967v3.442A4.13,4.13,0,0,0,6.074,83.9H7.35a.967.967,0,1,1-.013,1.933" transform="translate(-0.002 -10.343)"/>
              <path id="Trazado_167959" data-name="Trazado 167959" d="M.967,63.658A.974.974,0,0,1,0,62.69V6.059A6.069,6.069,0,0,1,6.059,0H49.594a6.069,6.069,0,0,1,6.059,6.059V7.335a.967.967,0,0,1-1.934,0V6.059a4.129,4.129,0,0,0-4.125-4.126H6.072A4.129,4.129,0,0,0,1.947,6.059V62.69a.985.985,0,0,1-.98.967"/>
              <path id="Trazado_167960" data-name="Trazado 167960" d="M19.8,30.384a.987.987,0,0,1-.568-.181.962.962,0,0,1-.387-.94l.619-3.6-2.617-2.54a.978.978,0,0,1-.245-.992.964.964,0,0,1,.786-.657L21,20.947l1.612-3.274a1,1,0,0,1,1.727,0l1.612,3.274,3.61.529a.966.966,0,0,1,.541,1.65l-2.617,2.54.619,3.6a.95.95,0,0,1-.387.94.97.97,0,0,1-1.018.078l-3.223-1.7-3.222,1.7A1.1,1.1,0,0,1,19.8,30.384Zm3.687-3.868a.946.946,0,0,1,.451.116l1.946,1.019-.374-2.166a.957.957,0,0,1,.284-.852L27.372,23.1l-2.179-.322a.963.963,0,0,1-.721-.529L23.5,20.276l-.967,1.972a.986.986,0,0,1-.721.529l-2.179.322,1.573,1.534a.957.957,0,0,1,.284.852L21.12,27.65l1.946-1.019A.784.784,0,0,1,23.492,26.516Z" transform="translate(-2.273 -2.358)"/>
              <path id="Trazado_167961" data-name="Trazado 167961" d="M34.867,25.124a.985.985,0,0,1-.568-.181.961.961,0,0,1-.387-.94l.619-3.6-2.617-2.54a.978.978,0,0,1-.245-.993.963.963,0,0,1,.786-.657l3.61-.529,1.612-3.274a1,1,0,0,1,1.727,0l1.612,3.274,3.61.529a.967.967,0,0,1,.541,1.65l-2.617,2.54.619,3.6a.95.95,0,0,1-.387.94.969.969,0,0,1-1.019.078l-3.222-1.7-3.222,1.7A1.1,1.1,0,0,1,34.867,25.124Zm3.674-3.868a.947.947,0,0,1,.451.116l1.946,1.019-.374-2.166a.958.958,0,0,1,.284-.852l1.573-1.534-2.179-.322a.963.963,0,0,1-.721-.529l-.967-1.972-.967,1.972a.986.986,0,0,1-.721.529l-2.179.322,1.573,1.534a.958.958,0,0,1,.284.852l-.374,2.166,1.946-1.019A.784.784,0,0,1,38.541,21.256Z" transform="translate(-4.34 -1.636)"/>
              <path id="Trazado_167962" data-name="Trazado 167962" d="M49.913,30.384a.987.987,0,0,1-.568-.181.962.962,0,0,1-.387-.94l.619-3.6-2.617-2.54a.978.978,0,0,1-.245-.992.964.964,0,0,1,.786-.657l3.61-.529,1.612-3.274a1,1,0,0,1,1.727,0l1.612,3.274,3.61.529a.966.966,0,0,1,.541,1.65L57.6,25.665l.619,3.6a.95.95,0,0,1-.387.94.97.97,0,0,1-1.018.078l-3.223-1.7-3.222,1.7A1.1,1.1,0,0,1,49.913,30.384ZM53.6,26.516a.946.946,0,0,1,.451.116L56,27.65l-.387-2.166a.957.957,0,0,1,.284-.852L57.467,23.1l-2.179-.322a.963.963,0,0,1-.721-.529L53.6,20.276l-.967,1.972a.986.986,0,0,1-.721.529l-2.179.322L51.3,24.633a.957.957,0,0,1,.284.852l-.374,2.166,1.946-1.019a.862.862,0,0,1,.438-.116" transform="translate(-6.404 -2.358)"/>
              <path id="Trazado_167963" data-name="Trazado 167963" d="M25.281,50.05H14.594a.974.974,0,0,1-.966-.967V38.4a.974.974,0,0,1,.966-.967H25.281a.974.974,0,0,1,.966.967v7.67a.967.967,0,1,1-1.933,0V39.375H15.561v8.754h9.72a.974.974,0,0,1,.966.966.955.955,0,0,1-.966.954" transform="translate(-1.87 -5.136)"/>
              <path id="Trazado_167964" data-name="Trazado 167964" d="M19.58,46.906a.957.957,0,0,1-.683-.284l-1.534-1.534a.966.966,0,0,1,1.367-1.367l.838.839,2.514-2.514a.966.966,0,1,1,1.367,1.367l-3.2,3.2A.874.874,0,0,1,19.58,46.906Z" transform="translate(-2.344 -5.732)"/>
              <path id="Trazado_167965" data-name="Trazado 167965" d="M25.28,67.816H14.594a.974.974,0,0,1-.967-.966V56.162a.974.974,0,0,1,.967-.967H25.28a.974.974,0,0,1,.967.967V66.849a.957.957,0,0,1-.967.966m-9.72-1.933h8.754V57.128H15.56Z" transform="translate(-1.87 -7.574)"/>
              <path id="Trazado_167966" data-name="Trazado 167966" d="M19.58,64.672a.966.966,0,0,1-.683-.284l-1.534-1.534a.966.966,0,0,1,1.367-1.367l.838.839,2.514-2.514a.966.966,0,0,1,1.367,1.367l-3.2,3.2a.88.88,0,0,1-.67.3" transform="translate(-2.344 -8.17)"/>
              <path id="Trazado_167967" data-name="Trazado 167967" d="M25.281,85.582h-7.71a.967.967,0,0,1,0-1.933h6.743V74.894H15.561v9.72a.967.967,0,1,1-1.933,0V73.928a.974.974,0,0,1,.966-.967H25.281a.974.974,0,0,1,.966.967V84.614a.965.965,0,0,1-.966.967" transform="translate(-1.87 -10.013)"/>
              <path id="Trazado_167968" data-name="Trazado 167968" d="M19.58,82.438a.966.966,0,0,1-.683-.284l-1.534-1.534a.966.966,0,0,1,1.367-1.367l.838.839,2.514-2.514a.966.966,0,0,1,1.367,1.367l-3.2,3.2a.88.88,0,0,1-.67.3" transform="translate(-2.344 -10.608)"/>
              <path id="Trazado_167969" data-name="Trazado 167969" d="M55.945,58.165a.957.957,0,0,1-.683-.284L52.3,54.917a.966.966,0,0,1,1.367-1.367l2.282,2.282,7.181-7.181a.966.966,0,1,1,1.366,1.367l-7.863,7.863A.966.966,0,0,1,55.945,58.165Z" transform="translate(-7.138 -6.638)"/>
            </g>
          </g>
        </g>
      </g>
    </g>
  </g>
</svg>
