<svg id="Grupo_118901" data-name="Grupo 118901" xmlns="http://www.w3.org/2000/svg" xmlns:xlink="http://www.w3.org/1999/xlink" width="250.064" height="222.977" viewBox="0 0 250.064 222.977">
  <defs>
    <clipPath id="clip-path">
      <rect id="Rectángulo_43481" data-name="Rectángulo 43481" width="250.064" height="222.977" fill="none"/>
    </clipPath>
    <clipPath id="clip-path-3">
      <rect id="Rectángulo_43477" data-name="Rectángulo 43477" width="14.487" height="19.167" fill="none"/>
    </clipPath>
    <clipPath id="clip-path-4">
      <rect id="Rectángulo_43478" data-name="Rectángulo 43478" width="16.264" height="16.456" fill="none"/>
    </clipPath>
    <clipPath id="clip-path-5">
      <rect id="Rectángulo_43479" data-name="Rectángulo 43479" width="34.734" height="12.161" fill="none"/>
    </clipPath>
  </defs>
  <g id="Grupo_118900" data-name="Grupo 118900" clip-path="url(#clip-path)">
    <g id="Grupo_118899" data-name="Grupo 118899">
      <g id="Grupo_118898" data-name="Grupo 118898" clip-path="url(#clip-path)">
        <path id="Trazado_169030" data-name="Trazado 169030" d="M305.465,25.619H344.3a3.061,3.061,0,0,1,3.061,3.061V54.414a3.062,3.062,0,0,1-3.061,3.061H323.849L314.128,67.2V57.475h-8.663a2.27,2.27,0,0,1-2.27-2.27V27.889a2.27,2.27,0,0,1,2.27-2.27" transform="translate(-131.687 -11.127)" fill="#242ca3"/>
        <path id="Trazado_169031" data-name="Trazado 169031" d="M326.477,52.976a2.285,2.285,0,1,1-2.285-2.285,2.286,2.286,0,0,1,2.285,2.285" transform="translate(-139.814 -22.017)" fill="#fafafa"/>
        <path id="Trazado_169032" data-name="Trazado 169032" d="M342.456,52.976a2.285,2.285,0,1,1-2.285-2.285,2.286,2.286,0,0,1,2.285,2.285" transform="translate(-146.754 -22.017)" fill="#fafafa"/>
        <path id="Trazado_169033" data-name="Trazado 169033" d="M358.434,52.976a2.285,2.285,0,1,1-2.285-2.285,2.286,2.286,0,0,1,2.285,2.285" transform="translate(-153.694 -22.017)" fill="#fafafa"/>
        <path id="Trazado_169034" data-name="Trazado 169034" d="M115.434,29.439,110.69,33.4l-2.308-1.028-.476-1.955s5.1-3.761,4.907-3.961a2.962,2.962,0,0,0-1.751-.8,4.682,4.682,0,0,0-3.436.923l-.9.667a5.5,5.5,0,0,0-2.166,5.337c.02.113.035.175.035.175L90.528,44.447a4.537,4.537,0,1,0,2.99,3.318l13.911-11.679a2.97,2.97,0,0,0,2,.727,5.187,5.187,0,0,0,3.773-1.53l1.174-1.149a4.719,4.719,0,0,0,1.058-4.7m-27.175,21.2A2.075,2.075,0,1,1,91,49.588a2.075,2.075,0,0,1-2.74,1.051" transform="translate(-36.733 -11.124)" fill="#ff004c"/>
        <path id="Trazado_169035" data-name="Trazado 169035" d="M126.823,45.3l-15.153,1.269.055-.028a28.145,28.145,0,0,1-21.069,10.1,29.415,29.415,0,0,1-9.822-1.553,28.119,28.119,0,0,1-9.3-5.368,28.328,28.328,0,0,1-9.757-20.761,10.422,10.422,0,0,1,.015-1.549q.039-.776.078-1.557a13.144,13.144,0,0,1,.195-1.553q.119-.776.238-1.555c.107-.514.255-1.021.381-1.534.141-.508.24-1.031.418-1.53l.548-1.5.275-.751c.09-.251.225-.484.335-.726A28.7,28.7,0,0,1,71.47,7a28.284,28.284,0,0,1,44.147,9.147,14.933,14.933,0,0,1,.836,1.924c.233.649.476,1.286.691,1.92a30.42,30.42,0,0,1,.85,3.8c.085.623.2,1.231.258,1.836l.087,1.788q.021.439.042.869c-.005.287-.025.571-.037.852l-.08,1.654-.011-.05,8.57,14.557-8.716-14.471-.013-.021v-.029q.036-.805.072-1.644c.011-.279.029-.562.033-.847q-.022-.428-.045-.864l-.093-1.776c-.054-.6-.175-1.2-.262-1.823a30.432,30.432,0,0,0-.856-3.771c-.216-.629-.459-1.26-.692-1.9a14.834,14.834,0,0,0-.835-1.907,27.98,27.98,0,0,0-43.751-9.02,28.418,28.418,0,0,0-7.131,9.6c-.109.24-.242.471-.331.719l-.272.742-.542,1.481c-.176.494-.273,1.011-.414,1.514-.125.507-.272,1.008-.378,1.517q-.118.771-.235,1.539a12.841,12.841,0,0,0-.193,1.536q-.039.772-.078,1.541a10.354,10.354,0,0,0-.015,1.533A28.061,28.061,0,0,0,80.92,54.836a29.224,29.224,0,0,0,9.732,1.559,28.094,28.094,0,0,0,8.829-1.586A28.419,28.419,0,0,0,111.6,46.436l.022-.026.033,0L126.823,45.3" transform="translate(-26.822 0)" fill="#1a2e35"/>
        <path id="Trazado_169036" data-name="Trazado 169036" d="M239.062,273.337H24.733a8.24,8.24,0,0,1-8.24-8.24V128.945a8.24,8.24,0,0,1,8.24-8.24H239.062a8.24,8.24,0,0,1,8.24,8.24V265.1a8.24,8.24,0,0,1-8.24,8.24" transform="translate(-7.163 -52.426)" fill="#3d4e63"/>
        <path id="Trazado_169037" data-name="Trazado 169037" d="M240,383.929H10.068A10.067,10.067,0,0,1,0,373.861v-3.287H250.064v3.287A10.068,10.068,0,0,1,240,383.929" transform="translate(0 -160.952)" fill="#3d4e63"/>
        <rect id="Rectángulo_43476" data-name="Rectángulo 43476" width="217.772" height="128.895" transform="translate(15.848 74.343)" fill="#fff"/>
        <path id="Trazado_169038" data-name="Trazado 169038" d="M180.854,370.459s.077-.005.24-.007l.732-.007,2.844-.016,10.552-.043,35.281-.076h.26l-.131.225-1.4,2.4-1.481,2.536-.043.074h-.086l-43.664-.082h-.038l-.02-.032-2.286-3.719-.575-.942c-.127-.209-.184-.311-.184-.311s.078.113.217.327l.611.944,2.333,3.629-.057-.032,43.664-.081-.129.074,1.481-2.537,1.4-2.4.129.225-35.137-.076-10.6-.043-2.888-.016-.756-.007c-.172,0-.266-.007-.266-.007" transform="translate(-78.55 -160.837)" fill="#1a2e35"/>
        <path id="Trazado_169039" data-name="Trazado 169039" d="M166.633,170.4a7.411,7.411,0,0,1,1.384-1.412l-.329-1.8,2.79-1.19,1.074,1.485a7.433,7.433,0,0,1,1.977-.021l1.042-1.508,2.815,1.131-.291,1.809a7.413,7.413,0,0,1,1.412,1.384l1.8-.329,1.191,2.789-1.485,1.075a7.433,7.433,0,0,1,.022,1.977l1.507,1.042-1.131,2.815-1.809-.291a7.413,7.413,0,0,1-1.384,1.412l.329,1.8-2.789,1.19-1.075-1.485a7.433,7.433,0,0,1-1.977.021l-1.042,1.508-2.815-1.131.291-1.809a7.414,7.414,0,0,1-1.412-1.384l-1.8.329-1.19-2.789,1.485-1.075a7.433,7.433,0,0,1-.021-1.977l-1.508-1.042,1.131-2.815Zm3.018,3.135a3.254,3.254,0,1,0,4.232-1.806,3.254,3.254,0,0,0-4.232,1.806" transform="translate(-71.097 -72.075)" fill="#757ac6" fill-rule="evenodd"/>
        <path id="Trazado_169040" data-name="Trazado 169040" d="M142.361,267.328a21.531,21.531,0,0,1,4.009-4.093l-.954-5.226,8.084-3.449,3.113,4.3a21.521,21.521,0,0,1,5.729-.063l3.02-4.368,8.155,3.277-.842,5.242a21.524,21.524,0,0,1,4.093,4.01l5.226-.954,3.449,8.083-4.3,3.113a21.518,21.518,0,0,1,.063,5.729l4.368,3.02-3.276,8.155-5.243-.842a21.524,21.524,0,0,1-4.01,4.093l.954,5.226-8.083,3.449-3.113-4.3a21.565,21.565,0,0,1-5.729.063l-3.02,4.368-8.155-3.277.842-5.242a21.524,21.524,0,0,1-4.093-4.01l-5.226.954-3.449-8.083,4.3-3.113a21.541,21.541,0,0,1-.062-5.729l-4.369-3.02,3.276-8.155Zm8.745,9.083a9.428,9.428,0,1,0,12.263-5.234,9.427,9.427,0,0,0-12.263,5.234" transform="translate(-58.131 -110.508)" fill="#ff004c" fill-rule="evenodd"/>
        <path id="Trazado_169041" data-name="Trazado 169041" d="M84.9,302.76a3.941,3.941,0,0,1,.579-1.155,5.192,5.192,0,0,1,2.85-2.026,5.253,5.253,0,0,1,2.452-.109,5.34,5.34,0,0,1,2.526,1.248,5.344,5.344,0,0,1,1.622,2.655,5.322,5.322,0,0,1-2.363,5.882,5.348,5.348,0,0,1-3.008.795,5.343,5.343,0,0,1-2.688-.846,5.261,5.261,0,0,1-1.695-1.776,5.2,5.2,0,0,1-.656-3.435,3.951,3.951,0,0,1,.381-1.234c.035.011-.163.436-.266,1.25a5.2,5.2,0,0,0,.722,3.311,5.1,5.1,0,0,0,4.21,2.454,5.1,5.1,0,0,0,2.845-.769,5.053,5.053,0,0,0,2.234-5.561,5.1,5.1,0,0,0-1.522-2.522,5.093,5.093,0,0,0-4.737-1.141,5.2,5.2,0,0,0-2.813,1.89c-.489.66-.64,1.1-.673,1.087" transform="translate(-36.682 -130.027)" fill="#ff004c"/>
        <path id="Trazado_169042" data-name="Trazado 169042" d="M73,290.891a1.1,1.1,0,0,1-.182-.018l-.552-.077-2.174-.324.051-.029-1.786,4.522-.027-.09,2.423,1.661.044.03-.006.053a11.889,11.889,0,0,0,.045,3.145l.008.058-.048.035-2.376,1.729.035-.128c.6,1.407,1.246,2.9,1.919,4.468l-.13-.07,2.89-.533.074-.014.046.059A11.836,11.836,0,0,0,75.5,307.56l.062.046-.012.077-.462,2.9L75,310.439l4.513,1.807-.166.05c.52-.753,1.091-1.58,1.668-2.418l.049-.071.085.011a11.863,11.863,0,0,0,3.131-.037l.087-.013.051.071,1.724,2.38-.176-.049,4.472-1.91-.088.163-.529-2.891-.016-.089.072-.055a11.84,11.84,0,0,0,2.189-2.234l0,0,.055-.072.089.014,2.9.466-.162.092,1.814-4.511.053.177L94.4,299.646l-.073-.05.011-.088a11.779,11.779,0,0,0-.032-3.13l-.012-.087.071-.051,2.383-1.72-.048.171-1.9-4.473.152.081-2.892.524-.08.015-.05-.064a11.786,11.786,0,0,0-2.236-2.2l-.063-.047.012-.077c.162-.994.318-1.958.471-2.9l.076.135-4.508-1.822.137-.041-1.676,2.413-.037.054-.064-.008a11.871,11.871,0,0,0-3.142.025l-.059.009-.035-.048-1.714-2.387.106.029-4.48,1.888.039-.074.51,2.895.005.029-.023.018a12.389,12.389,0,0,0-1.738,1.629l-.382.45a1.116,1.116,0,0,1-.128.148,1.511,1.511,0,0,1,.109-.163c.077-.1.195-.264.364-.466a11.49,11.49,0,0,1,1.716-1.673l-.018.046-.547-2.888-.01-.053.049-.021,4.464-1.928.064-.028.042.057,1.73,2.376-.093-.04a12.005,12.005,0,0,1,3.2-.044l-.1.045,1.664-2.421.051-.075.085.034,4.515,1.8.092.037-.015.1c-.15.942-.3,1.906-.461,2.9l-.05-.124a12.052,12.052,0,0,1,2.293,2.239l-.13-.049,2.89-.531.109-.02.043.1,1.913,4.47.045.1-.092.067-2.38,1.724.058-.138a12.053,12.053,0,0,1,.037,3.208l-.062-.139,2.417,1.669.1.067-.044.11-1.812,4.512-.044.11-.118-.019-2.9-.466.143-.058,0,0a12.07,12.07,0,0,1-2.245,2.29l.055-.144.527,2.891.021.117-.109.046-4.473,1.906-.108.046-.068-.1-1.721-2.382.138.058a12.125,12.125,0,0,1-3.208.032l.134-.06-1.673,2.415-.063.092-.1-.041-4.51-1.819-.1-.04.017-.105c.163-1.009.325-2,.47-2.9l.05.124a12.034,12.034,0,0,1-2.285-2.246l.119.045-2.892.522-.093.017-.037-.087-1.9-4.476-.033-.079.069-.05,2.386-1.716-.04.093a12.009,12.009,0,0,1-.024-3.194l.037.083L68.242,295l-.05-.035.023-.056,1.839-4.5.014-.036.037.006,2.148.371.555.1a1.53,1.53,0,0,1,.191.042" transform="translate(-29.618 -123.184)" fill="#ff004c"/>
        <path id="Trazado_169043" data-name="Trazado 169043" d="M50.723,170.92a29.67,29.67,0,0,1,3.689-6.986L51.1,157.4l9.327-7.738,5.807,4.465a29.689,29.689,0,0,1,7.548-2.336l2.273-6.96,12.067,1.125.948,7.259a29.691,29.691,0,0,1,6.987,3.691l6.532-3.315,7.737,9.328-4.465,5.807a29.7,29.7,0,0,1,2.335,7.547l6.961,2.273-1.125,12.067-7.26.948a29.655,29.655,0,0,1-3.691,6.986l3.315,6.532-9.327,7.737-5.807-4.465a29.721,29.721,0,0,1-7.547,2.335l-2.273,6.961-12.067-1.125-.948-7.26a29.711,29.711,0,0,1-6.987-3.69l-6.532,3.315-7.737-9.328,4.465-5.807a29.676,29.676,0,0,1-2.335-7.547l-6.961-2.273,1.125-12.067Zm15.129,8.567A13,13,0,1,0,80,167.749a13,13,0,0,0-14.151,11.738" transform="translate(-18.389 -62.906)" fill="#757ac6" fill-rule="evenodd"/>
        <line id="Línea_466" data-name="Línea 466" x2="230.809" transform="translate(9.329 209.622)" fill="#1a2e35"/>
        <path id="Trazado_169044" data-name="Trazado 169044" d="M247.3,370.466c0,.077-51.673.14-115.4.14-63.749,0-115.41-.063-115.41-.14s51.661-.14,115.41-.14c63.726,0,115.4.063,115.4.14" transform="translate(-7.163 -160.844)" fill="#1a2e35"/>
        <path id="Trazado_169045" data-name="Trazado 169045" d="M188.212,64c-3.559,1.562-5.631,5.4-6.407,9.206s-.522,7.745-.859,11.618-1.4,7.92-4.225,10.588c-2.634,2.487-6.513,3.5-8.757,6.342a7.978,7.978,0,0,0,4.548,12.734c-1.775,2.811-.886,6.735,1.384,9.164s5.606,3.585,8.893,4.085a24.164,24.164,0,0,0,16.83-3.309,18.046,18.046,0,0,0,8.289-14.653" transform="translate(-72.214 -27.799)" fill="#1a2e35"/>
        <path id="Trazado_169046" data-name="Trazado 169046" d="M177.049,142.633a4.669,4.669,0,0,1-.627-1.26,7.585,7.585,0,0,1-.227-3.818,10.5,10.5,0,0,1,.816-2.535,14.042,14.042,0,0,1,1.634-2.581,47.27,47.27,0,0,1,4.894-4.952,51.263,51.263,0,0,0,4.758-5.036,23.515,23.515,0,0,0,3.044-4.741,16.608,16.608,0,0,0,1.236-3.592c.106-.437.137-.787.187-1.02a1.768,1.768,0,0,1,.077-.356,1.734,1.734,0,0,1-.021.363c-.032.235-.045.59-.136,1.034a15.434,15.434,0,0,1-1.163,3.655,22.908,22.908,0,0,1-3.022,4.82,49.218,49.218,0,0,1-4.766,5.077,49.3,49.3,0,0,0-4.884,4.908,14.07,14.07,0,0,0-1.627,2.521,10.493,10.493,0,0,0-.831,2.471,7.726,7.726,0,0,0,.136,3.748,13.188,13.188,0,0,0,.523,1.294" transform="translate(-76.467 -48.967)" fill="#375a64"/>
        <path id="Trazado_169047" data-name="Trazado 169047" d="M266.592,86.592c0,5.228,2.412,10.019,4.581,11.781,3.069,2.492,7.57,3.7,10.537,4.526a11.717,11.717,0,0,1,8.483,9.445c.54,4.454-2.373,9.216-6.718,10.336,2.731,2.789,1.918,7.584-.33,10.775-4.261,6.047-12.763,8.371-19.815,6.135s-12.455-8.485-14.559-15.577" transform="translate(-108.049 -37.61)" fill="#1a2e35"/>
        <path id="Trazado_169048" data-name="Trazado 169048" d="M288.734,149.324a4.653,4.653,0,0,0,1.661-.731A4.878,4.878,0,0,0,291.788,147a5.8,5.8,0,0,0,.744-2.691,6.587,6.587,0,0,0-.875-3.261,10.553,10.553,0,0,0-2.54-2.979c-2.141-1.8-5.054-2.932-7.871-4.552a15.436,15.436,0,0,1-3.738-2.935,8.989,8.989,0,0,1-1.307-1.863,8.27,8.27,0,0,1-.731-2.057,13.951,13.951,0,0,1-.183-4c.094-1.25.253-2.4.363-3.457a15.4,15.4,0,0,0-.078-4.98l-.205-.757c-.065-.217-.152-.39-.2-.537a3.291,3.291,0,0,1-.163-.449,2.908,2.908,0,0,1,.214.427c.062.144.158.316.232.532s.146.477.233.759a14.867,14.867,0,0,1,.169,5.025c-.1,1.059-.245,2.212-.329,3.453a13.872,13.872,0,0,0,.2,3.929,8.123,8.123,0,0,0,1.99,3.792,15.274,15.274,0,0,0,3.675,2.876c2.786,1.6,5.719,2.745,7.9,4.6a10.714,10.714,0,0,1,2.579,3.066,6.749,6.749,0,0,1,.868,3.378,5.9,5.9,0,0,1-.807,2.763,4.895,4.895,0,0,1-1.466,1.606,4.06,4.06,0,0,1-1.251.57,2.966,2.966,0,0,1-.473.072" transform="translate(-119.44 -48.853)" fill="#375a64"/>
        <path id="Trazado_169049" data-name="Trazado 169049" d="M299.711,126.1a2.8,2.8,0,0,0,.528-1.453,3.512,3.512,0,0,0-.4-1.763,4.416,4.416,0,0,0-1.6-1.771,7.841,7.841,0,0,0-2.78-.938c-1.053-.183-2.2-.249-3.406-.436a18.291,18.291,0,0,1-7.317-2.894,17.988,17.988,0,0,1-5.406-5.718,18.191,18.191,0,0,1-2.22-6.041,17.372,17.372,0,0,1-.231-4.336c.04-.512.087-.907.136-1.173a2.223,2.223,0,0,1,.079-.4c.033,0-.064.564-.106,1.584A18.6,18.6,0,0,0,279.545,111a17.938,17.938,0,0,0,5.341,5.618,18.265,18.265,0,0,0,7.2,2.871c1.186.192,2.338.267,3.405.462a7.957,7.957,0,0,1,2.845,1,4.542,4.542,0,0,1,1.639,1.87,3.566,3.566,0,0,1,.372,1.84,2.524,2.524,0,0,1-.372,1.126,3.066,3.066,0,0,1-.191.243c-.045.053-.07.079-.074.075" transform="translate(-120.234 -43.075)" fill="#375a64"/>
        <path id="Trazado_169050" data-name="Trazado 169050" d="M202.347,137.351c.744-7.811,1.385-16.049,1.385-16.049s-9.9-2.66-10.688-15.991C192.289,92.6,197.2,63.9,197.2,63.9a37.9,37.9,0,0,1,41.01,13.744l-7.093,63.344c-.823,7.354-7.8,12.5-15.669,11.561-7.945-.951-13.806-7.75-13.1-15.193" transform="translate(-83.811 -27.089)" fill="#c78976"/>
        <path id="Trazado_169051" data-name="Trazado 169051" d="M203.087,104.578a1.692,1.692,0,0,0,1.456,1.858,1.617,1.617,0,0,0,1.884-1.347,1.692,1.692,0,0,0-1.454-1.859,1.62,1.62,0,0,0-1.886,1.348" transform="translate(-88.201 -44.827)" fill="#1a2e35"/>
        <path id="Trazado_169052" data-name="Trazado 169052" d="M198.586,100.695c.187.24,1.556-.578,3.366-.395,1.811.157,3.049,1.22,3.267,1.017.106-.089-.067-.506-.6-.984a4.644,4.644,0,0,0-2.589-1.086,4.457,4.457,0,0,0-2.706.589c-.6.373-.826.751-.734.859" transform="translate(-86.243 -43.097)" fill="#1a2e35"/>
        <path id="Trazado_169053" data-name="Trazado 169053" d="M235.813,108.369a1.692,1.692,0,0,0,1.456,1.858,1.617,1.617,0,0,0,1.884-1.347,1.693,1.693,0,0,0-1.454-1.859,1.619,1.619,0,0,0-1.886,1.348" transform="translate(-102.415 -46.474)" fill="#1a2e35"/>
        <path id="Trazado_169054" data-name="Trazado 169054" d="M231.884,105.146c.187.24,1.557-.578,3.366-.395,1.812.157,3.049,1.22,3.268,1.017.106-.089-.066-.506-.605-.984a4.644,4.644,0,0,0-2.589-1.086,4.459,4.459,0,0,0-2.707.589c-.6.373-.826.751-.734.859" transform="translate(-100.706 -45.03)" fill="#1a2e35"/>
        <path id="Trazado_169055" data-name="Trazado 169055" d="M214.49,117.351a12.042,12.042,0,0,0-2.89-.82c-.458-.093-.886-.229-.933-.552a2.367,2.367,0,0,1,.443-1.341q.818-1.615,1.715-3.387c2.393-4.828,4.174-8.816,3.979-8.911s-2.294,3.742-4.687,8.57q-.868,1.787-1.659,3.414a2.688,2.688,0,0,0-.419,1.791,1.166,1.166,0,0,0,.694.751,3.136,3.136,0,0,0,.775.187,11.836,11.836,0,0,0,2.982.3" transform="translate(-91.208 -44.449)" fill="#1a2e35"/>
        <path id="Trazado_169056" data-name="Trazado 169056" d="M211.9,164.281a33.558,33.558,0,0,0,18.04-2.959s-5.152,8.6-18.168,6.075Z" transform="translate(-91.98 -70.067)" fill="#bf654e"/>
        <path id="Trazado_169057" data-name="Trazado 169057" d="M218.366,135.964a3.279,3.279,0,0,1,3.046-.924,2.994,2.994,0,0,1,1.949,1.306,1.9,1.9,0,0,1-.068,2.173,2.2,2.2,0,0,1-2.434.367,6.878,6.878,0,0,1-2.179-1.609,2.011,2.011,0,0,1-.465-.587.608.608,0,0,1,.07-.674" transform="translate(-94.748 -58.622)" fill="#bf654e"/>
        <path id="Trazado_169058" data-name="Trazado 169058" d="M222.35,132.019c-.293-.046-.49,1.92-2.31,3.15s-3.892.808-3.935,1.081c-.039.12.429.428,1.312.539A4.921,4.921,0,0,0,220.69,136a4.285,4.285,0,0,0,1.811-2.654c.156-.814-.015-1.323-.151-1.325" transform="translate(-93.86 -57.34)" fill="#1a2e35"/>
        <path id="Trazado_169059" data-name="Trazado 169059" d="M260.6,114.088a7.865,7.865,0,0,1,4.2.686,5.49,5.49,0,0,1,2.816,3.111,5.736,5.736,0,0,1-.377,4.2,9.711,9.711,0,0,1-2.738,3.294,6.577,6.577,0,0,1-2.715,1.44,3.143,3.143,0,0,1-2.879-.741" transform="translate(-112.452 -49.534)" fill="#c78976"/>
        <path id="Trazado_169060" data-name="Trazado 169060" d="M261.77,124.242c-.166.036.361.945,1.678.726a2.779,2.779,0,0,0,1.722-1.229,6.272,6.272,0,0,0,.928-2.26,3.685,3.685,0,0,0-.35-2.53,2.454,2.454,0,0,0-1.737-1.27c-1.317-.159-1.816.715-1.669.756.1.118.653-.3,1.5-.011a2.378,2.378,0,0,1,1.2,2.855c-.3,1.429-.984,2.7-1.785,2.95-.839.329-1.381-.1-1.48.012" transform="translate(-113.682 -51.103)" fill="#bf654e"/>
        <path id="Trazado_169061" data-name="Trazado 169061" d="M203.131,65.667A16.079,16.079,0,0,1,192.3,74.789a39.144,39.144,0,0,1,.059-9.732,15.39,15.39,0,0,1,4.177-8.634,9.67,9.67,0,0,1,8.953-2.633" transform="translate(-83.402 -23.246)" fill="#1a2e35"/>
        <path id="Trazado_169062" data-name="Trazado 169062" d="M212.582,57.837a12.91,12.91,0,0,0,13.345,17.608,5.539,5.539,0,0,1,2.57.049,4.571,4.571,0,0,1,1.945,1.913c2.092,3.126,4.3,6.376,7.6,8.187s8.018,1.633,10.223-1.415A11.285,11.285,0,0,0,249.9,79c.836-6.095,1.178-12.635-1.725-18.058a20.644,20.644,0,0,0-10.141-8.84,39.522,39.522,0,0,0-13.345-2.819,17.829,17.829,0,0,0-7.853.839c-2.458,1-4.581,3.237-4.721,5.889" transform="translate(-91.948 -21.37)" fill="#1a2e35"/>
        <path id="Trazado_169063" data-name="Trazado 169063" d="M251.654,82.867a2.924,2.924,0,0,1-.161-.446c-.089-.3-.241-.73-.443-1.284a23.819,23.819,0,0,0-2.232-4.447,23.208,23.208,0,0,0-4.9-5.473,31.958,31.958,0,0,0-7.855-4.423c-2.967-1.243-5.869-2.268-8.408-3.456a29.4,29.4,0,0,1-6.339-3.871,16.565,16.565,0,0,1-3.362-3.709,11.522,11.522,0,0,1-.673-1.186,3.018,3.018,0,0,1-.2-.432,3.056,3.056,0,0,1,.248.4c.145.275.389.662.714,1.152a17.267,17.267,0,0,0,3.4,3.616,29.97,29.97,0,0,0,6.322,3.79c2.529,1.169,5.429,2.186,8.408,3.432a31.658,31.658,0,0,1,7.909,4.481,22.932,22.932,0,0,1,4.91,5.568,22.336,22.336,0,0,1,2.167,4.516c.187.562.322,1,.395,1.3a3.113,3.113,0,0,1,.106.463" transform="translate(-94.283 -23.515)" fill="#375a64"/>
        <path id="Trazado_169064" data-name="Trazado 169064" d="M247.573,82.4a2.566,2.566,0,0,1-.223-.372,11.857,11.857,0,0,0-.674-1.039,13.844,13.844,0,0,0-3.257-3.144,31.752,31.752,0,0,0-5.972-3.136c-1.171-.506-2.409-1.024-3.667-1.623s-2.536-1.27-3.8-2.03a33.385,33.385,0,0,1-6.588-5.08,25.415,25.415,0,0,1-4.113-5.407,20.94,20.94,0,0,1-1.81-4.207c-.148-.521-.257-.927-.31-1.207a2.466,2.466,0,0,1-.077-.428,2.591,2.591,0,0,1,.132.414c.071.274.2.674.359,1.187a22.5,22.5,0,0,0,1.878,4.142,25.9,25.9,0,0,0,4.124,5.322,33.814,33.814,0,0,0,6.549,5.022c1.259.755,2.53,1.422,3.778,2.023s2.482,1.12,3.651,1.634a30.871,30.871,0,0,1,5.985,3.212,13.327,13.327,0,0,1,3.231,3.242A9.247,9.247,0,0,1,247.4,82a2.546,2.546,0,0,1,.173.4" transform="translate(-94.283 -23.771)" fill="#375a64"/>
        <path id="Trazado_169065" data-name="Trazado 169065" d="M191.808,80.047a1.434,1.434,0,0,1-.127-.3c-.073-.2-.187-.5-.31-.889a15.563,15.563,0,0,1-.567-3.416,16.376,16.376,0,0,1,3.388-10.717,15.053,15.053,0,0,1,2.275-2.349,29.084,29.084,0,0,1,2.469-1.768,25.957,25.957,0,0,0,4.084-3.037,9.089,9.089,0,0,0,2-2.753c.328-.74.4-1.191.433-1.183a1.473,1.473,0,0,1-.05.325,5.91,5.91,0,0,1-.282.9,8.744,8.744,0,0,1-1.96,2.85,24.92,24.92,0,0,1-4.081,3.112,29.853,29.853,0,0,0-2.437,1.764,15.007,15.007,0,0,0-2.228,2.309,16.089,16.089,0,0,0-2.78,5.514A16.382,16.382,0,0,0,191,75.432a17.1,17.1,0,0,0,.474,3.395l.258.9a1.485,1.485,0,0,1,.074.321" transform="translate(-82.865 -23.295)" fill="#375a64"/>
        <path id="Trazado_169066" data-name="Trazado 169066" d="M243.448,133.625a12.613,12.613,0,0,1-8.4-3.082l.36-.4a11.916,11.916,0,0,0,19.059-13.22l.5-.2a12.9,12.9,0,0,1-4.491,14.792,12.343,12.343,0,0,1-7.024,2.108" transform="translate(-102.087 -50.697)" fill="#ff004c"/>
        <path id="Trazado_169067" data-name="Trazado 169067" d="M238.167,140.53a2.606,2.606,0,1,1-2.606-2.606,2.606,2.606,0,0,1,2.606,2.606" transform="translate(-101.179 -59.905)" fill="#ff004c"/>
        <path id="Trazado_169068" data-name="Trazado 169068" d="M274.969,112.407a8.729,8.729,0,1,1-8.728-8.729,8.729,8.729,0,0,1,8.728,8.729" transform="translate(-111.845 -45.031)" fill="#ff2f6d"/>
        <path id="Trazado_169069" data-name="Trazado 169069" d="M246.723,89.5a11.211,11.211,0,0,1,.05-2.214c.028-.717.063-1.583.1-2.585.01-1.008.043-2.154,0-3.42,0-.633-.043-1.294-.081-1.983s-.1-1.4-.173-2.142-.2-1.5-.295-2.279q-.109-.582-.221-1.179c-.068-.4-.153-.8-.26-1.2a23.081,23.081,0,0,0-4.569-9.625,21.234,21.234,0,0,0-8.7-6.1,38.174,38.174,0,0,0-8.568-2.154c-2.507-.35-4.56-.456-5.977-.556a11.383,11.383,0,0,1-2.207-.181,11.069,11.069,0,0,1,2.214-.146,53.493,53.493,0,0,1,6.044.292,36.275,36.275,0,0,1,8.774,2.022,21.529,21.529,0,0,1,9.067,6.282,23.282,23.282,0,0,1,4.679,9.989c.1.414.184.826.249,1.235s.139.811.206,1.208c.088.8.217,1.572.258,2.325s.119,1.478.127,2.177.046,1.369.028,2.009c0,1.28-.073,2.435-.128,3.448-.084,1.011-.164,1.881-.246,2.59a11.164,11.164,0,0,1-.377,2.186" transform="translate(-93.741 -23.339)" fill="#ff004c"/>
        <path id="Trazado_169070" data-name="Trazado 169070" d="M274.759,114.5a6.008,6.008,0,1,1-6.008-6.008,6.008,6.008,0,0,1,6.008,6.008" transform="translate(-114.118 -47.12)" fill="#ff004c"/>
        <path id="Trazado_169071" data-name="Trazado 169071" d="M267.953,108.853a1.176,1.176,0,0,1,.268-.14,4.06,4.06,0,0,1,.834-.247,4.74,4.74,0,0,1,3.116.533,4.2,4.2,0,0,1,1.6,1.535,4.646,4.646,0,0,1,.643,2.464,4.541,4.541,0,0,1-6.43,4.021,4.44,4.44,0,0,1-2-1.975,4.661,4.661,0,0,1-.512-2.5,4.714,4.714,0,0,1,.741-2.091,4.371,4.371,0,0,1,2.489-1.938,2.844,2.844,0,0,1,.864-.1,1.189,1.189,0,0,1,.3.043,4.3,4.3,0,0,0-1.135.161,4.353,4.353,0,0,0-2.35,1.937,4.559,4.559,0,0,0-.678,2.005,4.438,4.438,0,0,0,.51,2.358,4.2,4.2,0,0,0,1.891,1.846,4.226,4.226,0,0,0,6.054-3.778,4.43,4.43,0,0,0-.585-2.34,4.026,4.026,0,0,0-1.5-1.481,4.75,4.75,0,0,0-3-.6,8.44,8.44,0,0,0-1.119.278" transform="translate(-115.295 -47.081)" fill="#1a2e35"/>
        <path id="Trazado_169072" data-name="Trazado 169072" d="M273.057,127.38a4.836,4.836,0,0,1-.118-2.852,15.739,15.739,0,0,1,.118,2.852" transform="translate(-118.475 -54.086)" fill="#1a2e35"/>
        <path id="Trazado_169073" data-name="Trazado 169073" d="M278.361,125.562a6.652,6.652,0,0,1-.987-2.532,6.651,6.651,0,0,1,.987,2.532" transform="translate(-120.465 -53.435)" fill="#1a2e35"/>
        <path id="Trazado_169074" data-name="Trazado 169074" d="M281.807,121.731c-.052.057-.464-.232-.92-.647s-.783-.8-.731-.854.464.232.92.647.783.8.731.854" transform="translate(-121.678 -52.217)" fill="#1a2e35"/>
        <path id="Trazado_169075" data-name="Trazado 169075" d="M282.407,116.07c-.027.073-.325.032-.667-.092s-.6-.283-.572-.355.325-.032.667.092.6.283.572.356" transform="translate(-122.119 -50.203)" fill="#1a2e35"/>
        <path id="Trazado_169076" data-name="Trazado 169076" d="M266.323,125.227a4.65,4.65,0,0,1,1.307-2.551,18.91,18.91,0,0,1-1.307,2.551" transform="translate(-115.665 -53.281)" fill="#1a2e35"/>
        <path id="Trazado_169077" data-name="Trazado 169077" d="M263.165,120.476c-.054-.055.288-.479.764-.945s.906-.8.96-.745-.288.479-.764.945-.906.8-.96.745" transform="translate(-114.298 -51.59)" fill="#1a2e35"/>
        <path id="Trazado_169078" data-name="Trazado 169078" d="M264.755,114.382c.02.075-.224.2-.544.29s-.6.093-.617.019.224-.2.544-.29.6-.093.617-.019" transform="translate(-114.487 -49.657)" fill="#1a2e35"/>
        <path id="Trazado_169079" data-name="Trazado 169079" d="M338.021,174.374a10.373,10.373,0,0,0-2.746-5.842,16.084,16.084,0,0,0-2.764-2.378,16.829,16.829,0,0,0-4.1-1.97c-1.365-.3-1.7-2.07-.554-2.575s4.922.218,8.556,2.891,1.8-4.1,1.171-6.576-2.2-10.227-1.586-11c.9-1.137,2.32-.364,2.887,2.124.574,2.518,2.8,9.843,4.095,9.483,1.28-.353-2.077-12.931-2.077-12.931s-1.155-2.583.332-3.048c2.681-.838,5.261,12.768,5.474,14.068.148.9,1.575.565,1.364-.4-.217-.992-3.642-12.476-.921-13.355,2.088-.675,2.227,11.175,4.266,13.2s-1.028-9,1-9.562c.752-.209,1.347-.261,2.191,6.3.453,3.525.159,8.384,1.534,15.111" transform="translate(-142.098 -61.897)" fill="#c78976"/>
        <path id="Trazado_169080" data-name="Trazado 169080" d="M319.271,216.693l12.364,17.745L325.7,188.674l17.678-6.971s22.309,85.526-7.612,86.729c0,0-20.7-.567-36.159-36.412Z" transform="translate(-130.127 -78.919)" fill="#c78976"/>
        <path id="Trazado_169081" data-name="Trazado 169081" d="M362.458,181.1c.032.046-.387.324-.93.933a6.245,6.245,0,0,0-1.45,2.852l-.069.334-.246-.246a7.658,7.658,0,0,0-.914-.8,7.812,7.812,0,0,0-3.759-1.458c-1.046-.113-1.7,0-1.712-.063a3.816,3.816,0,0,1,1.734-.2,7.269,7.269,0,0,1,4.92,2.272l-.315.088a5.9,5.9,0,0,1,1.638-2.94,2.867,2.867,0,0,1,1.1-.768" transform="translate(-153.483 -78.658)" fill="#bf654e"/>
        <path id="Trazado_169082" data-name="Trazado 169082" d="M222.333,255.5,207.37,236.516l-3.888,19.413a40.215,40.215,0,0,0,2.331,23.416l1.931,4.618H138.458l1.732-6.169c.977-7.557-.331-15.447-.1-26.271l-1.925-12.2-10.481,44.641H96.868s16.914-69.289,27.508-83c13.358-17.285,36.694-15,36.694-15l14.3,22.411,13.963-20.207s24-5.1,42.729,27.154L242.086,232.5l-4.654-35.37,21.694-5.008s7.835,34.751,7.32,53.358c-.46,16.621-7.533,25.34-17.337,26.2-15.41,1.348-26.775-16.181-26.775-16.181" transform="translate(-42.073 -80.725)" fill="#febf10"/>
        <path id="Trazado_169083" data-name="Trazado 169083" d="M206.194,183.894l.244-2.792s10.591,2.354,14.142,20.845c0,0,3.563-17.066,14.97-18.785l1.924,4.916-7,18.235-12.3,3.6-11.967-3.6-5.442-10.808Z" transform="translate(-87.196 -78.658)" fill="#febf10"/>
        <path id="Trazado_169084" data-name="Trazado 169084" d="M158.188,199.038a3.135,3.135,0,0,1,.054.479q.037.507.1,1.376c.077,1.195.2,2.923.373,5.058.341,4.268.927,10.156,1.849,16.623s2.016,12.286,2.884,16.478c.434,2.1.8,3.791,1.059,4.959q.182.85.29,1.349a3.229,3.229,0,0,1,.083.475,3.076,3.076,0,0,1-.138-.462l-.341-1.337c-.294-1.161-.688-2.85-1.147-4.943-.92-4.185-2.04-10-2.969-16.479s-1.479-12.373-1.769-16.648c-.146-2.138-.242-3.869-.285-5.067q-.03-.869-.048-1.379a3.127,3.127,0,0,1,0-.481" transform="translate(-68.703 -86.448)" fill="#1a2e35"/>
        <path id="Trazado_169085" data-name="Trazado 169085" d="M252.374,188.769a1.253,1.253,0,0,1-.151.267l-.476.735-1.764,2.694c-1.481,2.28-3.483,5.458-5.562,9.047l-.24.413-.135.232-.114-.242a8.285,8.285,0,0,0-1.522-2.448,2.761,2.761,0,0,0-2.358-.882,3.228,3.228,0,0,0-1.945,1.276,5.936,5.936,0,0,0-.971,1.865c-.4,1.24-.633,2.288-.928,2.966a6.162,6.162,0,0,1-.371.763,1.224,1.224,0,0,1-.169.243c-.022-.012.194-.357.439-1.044.262-.682.461-1.721.843-2.989a6.05,6.05,0,0,1,.975-1.945,3.441,3.441,0,0,1,2.084-1.388,3.011,3.011,0,0,1,2.59.939,8.429,8.429,0,0,1,1.585,2.523l-.248-.01.24-.414c2.082-3.594,4.114-6.761,5.639-9.015.763-1.128,1.394-2.03,1.84-2.647l.52-.705a1.243,1.243,0,0,1,.2-.235" transform="translate(-102.358 -81.988)" fill="#1a2e35"/>
        <path id="Trazado_169086" data-name="Trazado 169086" d="M236.821,206.185a.977.977,0,0,1-.114.239l-.374.656-1.421,2.384-2.139,3.517-1.271,2.071-.682,1.1a.97.97,0,0,1-.268.27.515.515,0,0,1-.431.059,1.092,1.092,0,0,1-.539-.514c-1.99-2.99-3.47-5.877-4.631-7.909-.572-1.022-1.043-1.844-1.375-2.408a7.863,7.863,0,0,1-.5-.89.919.919,0,0,1,.165.207c.1.142.247.35.424.626.361.548.859,1.356,1.454,2.367,1.206,2.01,2.715,4.883,4.691,7.852.124.193.236.357.388.4.137.05.272-.055.39-.223l.676-1.083,1.285-2.063,2.189-3.486,1.5-2.337.419-.628a.929.929,0,0,1,.162-.209" transform="translate(-96.891 -88.933)" fill="#1a2e35"/>
        <path id="Trazado_169087" data-name="Trazado 169087" d="M305.344,210.179a2.167,2.167,0,0,1-.161.37l-.51,1.034c-.452.893-1.085,2.195-1.844,3.815s-1.621,3.567-2.527,5.751-1.825,4.616-2.717,7.195-1.642,5.07-2.285,7.345-1.151,4.345-1.546,6.089-.7,3.16-.893,4.142l-.235,1.128a2.149,2.149,0,0,1-.1.39,2.217,2.217,0,0,1,.045-.4c.046-.287.107-.665.183-1.139.159-.989.432-2.413.807-4.164s.873-3.827,1.491-6.115,1.384-4.779,2.269-7.368,1.836-5.014,2.743-7.2,1.8-4.127,2.587-5.737,1.444-2.9,1.926-3.78q.346-.63.557-1.01a2.156,2.156,0,0,1,.21-.343" transform="translate(-127.052 -91.287)" fill="#1a2e35"/>
        <path id="Trazado_169088" data-name="Trazado 169088" d="M228.049,325.194a2.521,2.521,0,0,1-.433-.015l-1.237-.1c-.537-.042-1.194-.1-1.953-.2s-1.627-.179-2.58-.328c-1.91-.261-4.172-.654-6.668-1.171-2.492-.535-5.215-1.2-8.036-2.037s-5.466-1.772-7.846-2.685c-2.373-.931-4.483-1.838-6.225-2.663-.878-.4-1.653-.8-2.34-1.135s-1.27-.644-1.743-.9l-1.089-.594a2.413,2.413,0,0,1-.371-.224,2.568,2.568,0,0,1,.4.174l1.113.547c.48.243,1.069.537,1.763.859s1.471.712,2.354,1.1c1.749.8,3.862,1.686,6.234,2.6,2.379.9,5.022,1.815,7.833,2.658s5.528,1.505,8.01,2.053c2.487.53,4.741.942,6.643,1.227.948.161,1.813.262,2.57.368s1.41.185,1.945.244l1.231.15a2.511,2.511,0,0,1,.428.071" transform="translate(-81.45 -136.008)" fill="#1a2e35"/>
        <path id="Trazado_169089" data-name="Trazado 169089" d="M231.661,336.586a1.167,1.167,0,0,1-.285.074l-.827.157c-.718.133-1.763.3-3.057.476-2.589.359-6.186.723-10.174.864s-7.6.022-10.211-.156c-1.3-.088-2.357-.179-3.083-.262l-.835-.1a1.17,1.17,0,0,1-.29-.053,1.149,1.149,0,0,1,.295,0l.839.046c.729.049,1.783.111,3.086.173,2.605.127,6.211.209,10.189.074s7.568-.473,10.158-.781c1.3-.153,2.344-.287,3.066-.387l.834-.1a1.157,1.157,0,0,1,.294-.018" transform="translate(-88.125 -146.188)" fill="#1a2e35"/>
        <path id="Trazado_169090" data-name="Trazado 169090" d="M297.088,251.668a2.3,2.3,0,0,1,.081-.407q.109-.434.287-1.152l1.076-4.233c.908-3.574,2.116-8.525,3.6-13.956.748-2.715,1.513-5.287,2.254-7.613s1.476-4.4,2.143-6.119c.318-.867.644-1.636.92-2.315s.525-1.259.739-1.729l.492-1.082a2.287,2.287,0,0,1,.189-.369,2.32,2.32,0,0,1-.137.392l-.444,1.1c-.2.475-.436,1.059-.694,1.745s-.574,1.457-.879,2.325c-.643,1.727-1.343,3.807-2.083,6.128s-1.483,4.9-2.23,7.608c-1.483,5.426-2.72,10.369-3.678,13.931-.477,1.782-.872,3.221-1.162,4.211l-.337,1.139a2.254,2.254,0,0,1-.136.392" transform="translate(-129.034 -92.38)" fill="#1a2e35"/>
        <path id="Trazado_169091" data-name="Trazado 169091" d="M161.88,247.293a2.657,2.657,0,0,1-.295-.341c-.18-.234-.471-.562-.79-1.024a29.757,29.757,0,0,1-2.471-4.063,39,39,0,0,1-2.593-6.559,57.577,57.577,0,0,1-1.8-8.445c-.825-6.079-.96-11.629-1.209-15.627-.112-2-.217-3.619-.3-4.737q-.059-.808-.094-1.287a2.658,2.658,0,0,1-.015-.451,2.7,2.7,0,0,1,.071.445c.036.293.092.725.147,1.283.118,1.116.253,2.733.391,4.734.3,4,.467,9.545,1.289,15.6a59.445,59.445,0,0,0,1.773,8.41,40.347,40.347,0,0,0,2.523,6.544,32.848,32.848,0,0,0,2.383,4.089c.3.47.58.807.745,1.052a2.721,2.721,0,0,1,.25.376" transform="translate(-66.15 -88.934)" fill="#1a2e35"/>
        <path id="Trazado_169092" data-name="Trazado 169092" d="M162.143,257.915c.016.083-.8.26-1.672.777s-1.432,1.134-1.5,1.079a3.924,3.924,0,0,1,3.168-1.856" transform="translate(-69.046 -112.01)" fill="#1a2e35"/>
        <path id="Trazado_169093" data-name="Trazado 169093" d="M160.623,245.061a8.125,8.125,0,0,0-3.935,2.07,4.479,4.479,0,0,1,3.935-2.07" transform="translate(-68.052 -106.422)" fill="#1a2e35"/>
        <path id="Trazado_169094" data-name="Trazado 169094" d="M158.423,233.306a15.251,15.251,0,0,0-1.677.566,15.221,15.221,0,0,0-1.464.993,3.22,3.22,0,0,1,3.141-1.559" transform="translate(-67.441 -101.308)" fill="#1a2e35"/>
        <path id="Trazado_169095" data-name="Trazado 169095" d="M157.174,221.2c.011.081-.708.219-1.523.571s-1.415.769-1.467.7a3.921,3.921,0,0,1,2.99-1.276" transform="translate(-66.965 -96.061)" fill="#1a2e35"/>
        <path id="Trazado_169096" data-name="Trazado 169096" d="M156.405,211.4c.011.082-.718.213-1.527.6s-1.38.853-1.437.792a3.651,3.651,0,0,1,2.964-1.391" transform="translate(-66.642 -91.804)" fill="#1a2e35"/>
        <path id="Trazado_169097" data-name="Trazado 169097" d="M297.813,265.745c-.067.048-.436-.449-1.11-.714a7.574,7.574,0,0,0-1.294-.264,1.5,1.5,0,0,1,1.4,0c.768.307,1.076.95,1,.973" transform="translate(-128.305 -114.93)" fill="#1a2e35"/>
        <path id="Trazado_169098" data-name="Trazado 169098" d="M301.078,255.036a3.643,3.643,0,0,0-3-1.939c-.005-.032.21-.106.573-.1a2.75,2.75,0,0,1,2.279,1.472c.16.326.18.553.149.561" transform="translate(-129.464 -109.886)" fill="#1a2e35"/>
        <path id="Trazado_169099" data-name="Trazado 169099" d="M303.748,244.481a3.8,3.8,0,0,0-3.154-1.25c-.01-.032.179-.132.517-.18a2.713,2.713,0,0,1,2.384.945c.214.266.283.469.253.485" transform="translate(-130.557 -105.555)" fill="#1a2e35"/>
        <path id="Trazado_169100" data-name="Trazado 169100" d="M307.691,233.994c-.072.037-.367-.517-1.02-.851a5.8,5.8,0,0,0-1.278-.363c-.006-.034.145-.1.41-.119a2.021,2.021,0,0,1,1.755.927c.137.227.165.392.133.406" transform="translate(-132.642 -101.051)" fill="#1a2e35"/>
        <path id="Trazado_169101" data-name="Trazado 169101" d="M311.273,224.214a2.824,2.824,0,0,0-2.638-1.22c-.012-.031.148-.135.449-.185a2.1,2.1,0,0,1,2.04.944c.156.261.18.45.149.462" transform="translate(-134.05 -96.763)" fill="#1a2e35"/>
        <path id="Trazado_169102" data-name="Trazado 169102" d="M238.058,211.43a1.117,1.117,0,0,1-.122.262l-.4.723c-.351.624-.87,1.522-1.526,2.622s-1.447,2.4-2.355,3.836c-.455.715-.938,1.462-1.457,2.225a24.877,24.877,0,0,1-1.711,2.3,2.391,2.391,0,0,1-.581.519.383.383,0,0,1-.247.049.785.785,0,0,1-.217-.068,1.864,1.864,0,0,1-.321-.218,8.155,8.155,0,0,1-.99-1.033c-.592-.714-1.114-1.437-1.6-2.13-.973-1.39-1.8-2.674-2.482-3.758s-1.216-1.974-1.578-2.592c-.165-.288-.3-.526-.408-.717a1.063,1.063,0,0,1-.124-.26,1.2,1.2,0,0,1,.173.231l.453.69,1.652,2.542c.7,1.069,1.545,2.34,2.526,3.716.492.686,1.017,1.4,1.6,2.1a7.907,7.907,0,0,0,.954.992c.169.136.384.287.489.2a2.293,2.293,0,0,0,.493-.454,25.648,25.648,0,0,0,1.694-2.269c.519-.759,1.006-1.5,1.466-2.211.919-1.42,1.726-2.712,2.4-3.8.661-1.061,1.2-1.932,1.6-2.575l.443-.7a1.1,1.1,0,0,1,.171-.234" transform="translate(-96.394 -91.83)" fill="#1a2e35"/>
        <path id="Trazado_169103" data-name="Trazado 169103" d="M229.068,223.745c-.032,0-.1-.19-.075-.516a2.27,2.27,0,0,1,1.5-1.9c.312-.1.516-.079.52-.047a2.973,2.973,0,0,0-1.946,2.464" transform="translate(-99.457 -96.098)" fill="#1a2e35"/>
        <path id="Trazado_169104" data-name="Trazado 169104" d="M235.49,230.117a9.805,9.805,0,0,1-.031-4.461,108.66,108.66,0,0,1,.031,4.461" transform="translate(-102.162 -98.009)" fill="#1a2e35"/>
        <path id="Trazado_169105" data-name="Trazado 169105" d="M241.58,222.14c-.079.022-.255-.6-.842-1.082a5.688,5.688,0,0,0-1.214-.637c0-.035.168-.072.438-.029a2.09,2.09,0,0,1,1.57,1.311c.09.258.083.43.049.437" transform="translate(-104.032 -95.715)" fill="#1a2e35"/>
        <path id="Trazado_169106" data-name="Trazado 169106" d="M246.638,213.833a5.694,5.694,0,0,0-.7-1.167c-.506-.555-1.135-.695-1.118-.774.005-.035.174-.051.436.023a2.07,2.07,0,0,1,1.385,1.482c.057.266.029.433-.006.436" transform="translate(-106.334 -92.018)" fill="#1a2e35"/>
        <path id="Trazado_169107" data-name="Trazado 169107" d="M224.054,215.641c-.032.007-.122-.213-.136-.592a2.954,2.954,0,0,1,1.337-2.509c.323-.2.555-.248.567-.217a3.907,3.907,0,0,0-1.768,3.318" transform="translate(-97.254 -92.215)" fill="#1a2e35"/>
        <g id="Grupo_118891" data-name="Grupo 118891" transform="translate(118.853 105.192)" opacity="0.4">
          <g id="Grupo_118890" data-name="Grupo 118890">
            <g id="Grupo_118889" data-name="Grupo 118889" clip-path="url(#clip-path-3)">
              <path id="Trazado_169108" data-name="Trazado 169108" d="M210.111,185.962c1.212,4.649,3.235,12.22,5.426,18.145a1.923,1.923,0,0,0,.417.752c.556.529,1.512.2,2.036-.357a13.689,13.689,0,0,0,1.194-1.823,2.352,2.352,0,0,1,1.734-1.187,2.044,2.044,0,0,1,1.54.773,8.5,8.5,0,0,1,.943,1.506c.156.278.356.578.669.642a.4.4,0,0,0,.478-.562l-1.937-5.023s-.888-3.684-3.968-3.111c-3.443.641-1.882,6.295-1.882,6.295s-6.7-16.248-6.649-16.051" transform="translate(-210.11 -185.96)"/>
            </g>
          </g>
        </g>
        <path id="Trazado_169109" data-name="Trazado 169109" d="M224.752,204.091a1.823,1.823,0,0,1-.166-.329c-.1-.219-.239-.546-.414-.97l-1.428-3.6c-.153-.378-.315-.775-.494-1.181a3.657,3.657,0,0,0-.7-1.144,3.368,3.368,0,0,0-2.682-1,2.6,2.6,0,0,0-1.414.634,3.548,3.548,0,0,0-.764,1.463,4.157,4.157,0,0,0-.117,1.72,14.065,14.065,0,0,0,.318,1.8c.055.221.109.441.16.645l-.268.08c-.794-2.28-1.706-4.39-2.538-6.3s-1.6-3.624-2.2-5.078-1.041-2.647-1.307-3.482c-.141-.415-.228-.745-.29-.967a1.661,1.661,0,0,1-.079-.343,1.687,1.687,0,0,1,.132.326c.079.216.183.539.339.948.3.822.761,2,1.385,3.442s1.4,3.145,2.252,5.05,1.769,4.019,2.57,6.313l-.268.08-.161-.651a14.157,14.157,0,0,1-.324-1.837,4.412,4.412,0,0,1,.134-1.833,3.78,3.78,0,0,1,.839-1.569,2.837,2.837,0,0,1,1.571-.7,3.6,3.6,0,0,1,2.878,1.1,3.861,3.861,0,0,1,.735,1.218c.177.413.333.813.481,1.2l1.345,3.634.365.988a1.8,1.8,0,0,1,.114.35" transform="translate(-91.368 -80.802)" fill="#1a2e35"/>
        <g id="Grupo_118894" data-name="Grupo 118894" transform="translate(133.604 107.337)" opacity="0.4">
          <g id="Grupo_118893" data-name="Grupo 118893">
            <g id="Grupo_118892" data-name="Grupo 118892" clip-path="url(#clip-path-4)">
              <path id="Trazado_169110" data-name="Trazado 169110" d="M236.242,205.567c-.117.08-.031.288.107.318a.5.5,0,0,0,.388-.139,8.534,8.534,0,0,0,1.63-2.175,2.857,2.857,0,0,1,2.161-1.485,2.807,2.807,0,0,1,2.222,1.648,10.571,10.571,0,0,0,1.493,2.475,67.937,67.937,0,0,0,8.207-16.456,9.821,9.821,0,0,0-2.591,3.195l-5.51,9.19a7.153,7.153,0,0,0-1.552-2.45,3.025,3.025,0,0,0-2.671-.855,3.976,3.976,0,0,0-2.34,2.19,13.127,13.127,0,0,0-1.472,4.579" transform="translate(-236.187 -189.753)"/>
            </g>
          </g>
        </g>
        <path id="Trazado_169111" data-name="Trazado 169111" d="M359.274,284.662a3.49,3.49,0,0,1-.367-.618c-.222-.406-.524-1-.882-1.748a64.173,64.173,0,0,1-4.351-12.149c-.2-.8-.342-1.456-.428-1.911a3.55,3.55,0,0,1-.109-.711,3.457,3.457,0,0,1,.215.686c.136.5.308,1.13.514,1.885.44,1.589,1.1,3.771,1.942,6.14s1.729,4.469,2.4,5.976L359,284a3.561,3.561,0,0,1,.269.666" transform="translate(-153.376 -116.195)" fill="#1a2e35"/>
        <path id="Trazado_169112" data-name="Trazado 169112" d="M353.142,283.238a2.969,2.969,0,0,1-.227-.619c-.131-.4-.3-.994-.475-1.73a37.666,37.666,0,0,1-.928-11.764c.062-.755.132-1.364.2-1.783a2.971,2.971,0,0,1,.127-.647,2.948,2.948,0,0,1-.019.658c-.033.421-.072,1.031-.109,1.784a45.438,45.438,0,0,0,.924,11.708c.154.738.289,1.334.387,1.745a2.944,2.944,0,0,1,.122.647" transform="translate(-152.622 -115.834)" fill="#1a2e35"/>
        <path id="Trazado_169113" data-name="Trazado 169113" d="M368.219,208.4a1.985,1.985,0,0,1,.433.166l.085.037-.09.032a76.2,76.2,0,0,1-10.8,2.762c-3.157.582-6.046.919-8.141,1.087-1.048.085-1.9.136-2.484.156a5.663,5.663,0,0,1-.914,0,5.708,5.708,0,0,1,.906-.114l2.473-.244c2.086-.218,4.961-.585,8.108-1.165,5.247-.953,9.564-2.228,10.825-2.557l-.005.07a1.97,1.97,0,0,1-.4-.233" transform="translate(-150.414 -90.514)" fill="#1a2e35"/>
        <path id="Trazado_169114" data-name="Trazado 169114" d="M375.928,203.831c-.007-.008.056-.093.231-.143a.9.9,0,0,1,.725.161,1.038,1.038,0,0,1,.467,1.007.835.835,0,0,1-.415.568,1.152,1.152,0,0,1-.724.133,1.2,1.2,0,0,1-.667-.309.893.893,0,0,1-.265-.649,1.131,1.131,0,0,1,.6-.929,1.023,1.023,0,0,1,.731-.117c.173.045.243.122.236.131a1.208,1.208,0,0,0-.864.155.952.952,0,0,0-.448.76.739.739,0,0,0,.71.68.724.724,0,0,0,.85-.477.926.926,0,0,0-.921-1.006c-.153.011-.236.059-.249.035" transform="translate(-162.996 -88.399)" fill="#1a2e35"/>
        <path id="Trazado_169115" data-name="Trazado 169115" d="M198.594,225.168a2.262,2.262,0,0,1-.309.27c-.213.163-.508.433-.933.717a21.059,21.059,0,0,1-3.763,2.14,22.9,22.9,0,0,1-6.175,1.756,23.645,23.645,0,0,1-3.8.2,23.328,23.328,0,0,1-4.052-.5c-2.736-.618-5.2-1.627-7.525-2.249a20.305,20.305,0,0,0-3.336-.657,13.7,13.7,0,0,0-2.954.029,9.047,9.047,0,0,0-4,1.41,14.305,14.305,0,0,0-1.225.992,5.427,5.427,0,0,1,1.163-1.081,8.893,8.893,0,0,1,4.039-1.517,13.666,13.666,0,0,1,3-.064,20.187,20.187,0,0,1,3.382.64c2.344.614,4.815,1.616,7.518,2.225a23.469,23.469,0,0,0,4,.5,23.906,23.906,0,0,0,3.754-.186,23.325,23.325,0,0,0,6.13-1.682,22.9,22.9,0,0,0,3.78-2.048c.433-.269.737-.524.961-.672a2.26,2.26,0,0,1,.344-.225" transform="translate(-69.719 -97.797)" fill="#fafafa"/>
        <path id="Trazado_169116" data-name="Trazado 169116" d="M237.424,262.9a1,1,0,0,1-.172-.079l-.489-.254c-.216-.11-.494-.221-.816-.367-.334-.115-.709-.278-1.155-.391a17.822,17.822,0,0,0-7.706-.28,44.668,44.668,0,0,0-5.241,1.19c-1.868.51-3.857,1.1-6,1.538a21.993,21.993,0,0,1-6.835.417,32.712,32.712,0,0,1-7.159-1.685c-2.388-.8-4.675-1.7-6.92-2.451a35.052,35.052,0,0,0-6.605-1.621,30.928,30.928,0,0,0-11.448.623,33.75,33.75,0,0,0-4.217,1.361c-.6.261-1.161.492-1.665.735s-.964.466-1.366.69l-1.067.6-.763.471-.471.287a.922.922,0,0,1-.166.09.977.977,0,0,1,.15-.114l.456-.311c.2-.133.449-.307.751-.494l1.058-.621c.4-.233.863-.453,1.36-.715s1.065-.49,1.664-.759a33.05,33.05,0,0,1,4.228-1.409,30.808,30.808,0,0,1,11.531-.687,35.068,35.068,0,0,1,6.658,1.616c2.255.748,4.543,1.644,6.922,2.445a32.669,32.669,0,0,0,7.1,1.677,21.861,21.861,0,0,0,6.756-.4c2.13-.427,4.118-1.008,5.99-1.509a44.109,44.109,0,0,1,5.273-1.162,17.588,17.588,0,0,1,7.765.372c.447.123.823.295,1.156.419.321.155.6.275.81.393l.477.279a.979.979,0,0,1,.157.1" transform="translate(-72.604 -112.231)" fill="#fafafa"/>
        <path id="Trazado_169117" data-name="Trazado 169117" d="M240.981,221.869a12.9,12.9,0,0,0,1.446.317,10.415,10.415,0,0,0,3.989-.32,48.149,48.149,0,0,0,5.619-2.1,18.657,18.657,0,0,1,3.424-1.021,16.277,16.277,0,0,1,3.832-.221,22.272,22.272,0,0,1,7.177,1.723,38.75,38.75,0,0,1,5.353,2.775c1.464.9,2.612,1.674,3.4,2.213l.906.631a1.922,1.922,0,0,1,.3.236,2.063,2.063,0,0,1-.336-.189l-.934-.587c-.811-.511-1.974-1.264-3.447-2.134a40.641,40.641,0,0,0-5.349-2.706,22.424,22.424,0,0,0-7.1-1.682,16.208,16.208,0,0,0-3.767.211,18.662,18.662,0,0,0-3.38.992,45.222,45.222,0,0,1-5.665,2.053,10.1,10.1,0,0,1-4.053.235,4.932,4.932,0,0,1-1.43-.425" transform="translate(-104.666 -94.898)" fill="#fafafa"/>
        <path id="Trazado_169118" data-name="Trazado 169118" d="M283.411,198.014a4.821,4.821,0,0,1-.8.244c-.261.073-.581.154-.959.228s-.8.176-1.282.244a29.831,29.831,0,0,1-3.38.364,30.758,30.758,0,0,1-8.282-.7,29.984,29.984,0,0,1-3.27-.93c-.462-.148-.865-.319-1.224-.458s-.662-.27-.907-.386a4.859,4.859,0,0,1-.751-.377,4.809,4.809,0,0,1,.793.276c.251.1.558.219.921.34s.768.281,1.229.416c.915.3,2.022.6,3.263.865a33.077,33.077,0,0,0,8.216.7c1.269-.057,2.41-.162,3.362-.3.478-.055.9-.141,1.282-.2s.7-.124.964-.18a4.864,4.864,0,0,1,.829-.138" transform="translate(-114.034 -85.232)" fill="#fafafa"/>
        <path id="Trazado_169119" data-name="Trazado 169119" d="M158.6,198.882a1.455,1.455,0,0,1,.247-.218c.168-.135.415-.335.742-.581.65-.5,1.605-1.2,2.821-2.014a39.5,39.5,0,0,1,10.241-5.057A24.112,24.112,0,0,1,184,190.22a17.649,17.649,0,0,1,3.338.955c.385.141.666.294.864.38a1.437,1.437,0,0,1,.291.154c-.011.023-.427-.157-1.193-.433a19.684,19.684,0,0,0-3.335-.862,24.711,24.711,0,0,0-11.233.865,41.609,41.609,0,0,0-10.214,4.954c-1.226.793-2.2,1.467-2.866,1.937l-.772.538a1.444,1.444,0,0,1-.281.173" transform="translate(-68.884 -82.466)" fill="#fafafa"/>
        <path id="Trazado_169120" data-name="Trazado 169120" d="M236.565,307.786a.713.713,0,0,1-.159.044l-.474.1a5.056,5.056,0,0,1-.779.118l-.5.054-.574.016a20.929,20.929,0,0,1-6.72-1.237c-1.38-.43-2.872-.958-4.5-1.439a27.364,27.364,0,0,0-5.289-1.026,45.88,45.88,0,0,0-12.314.883c-4.331.78-8.426,1.763-12.23,2.216a38.248,38.248,0,0,1-10.145.066,21.124,21.124,0,0,1-6.541-1.976c-.359-.188-.68-.35-.952-.5l-.665-.424-.405-.264a.718.718,0,0,1-.133-.1.766.766,0,0,1,.149.074l.419.241.676.4.959.476a21.709,21.709,0,0,0,6.521,1.877A38.74,38.74,0,0,0,193,307.261c3.784-.464,7.87-1.454,12.213-2.236a45.531,45.531,0,0,1,12.388-.864,27.282,27.282,0,0,1,5.331,1.06c1.63.494,3.117,1.032,4.49,1.473a21.5,21.5,0,0,0,6.658,1.316l.569,0,.5-.04a5.557,5.557,0,0,0,.778-.091l.477-.074a.719.719,0,0,1,.165-.016" transform="translate(-75.655 -132.047)" fill="#fafafa"/>
        <g id="Grupo_118897" data-name="Grupo 118897" transform="translate(111.072 179.635)" opacity="0.3">
          <g id="Grupo_118896" data-name="Grupo 118896">
            <g id="Grupo_118895" data-name="Grupo 118895" clip-path="url(#clip-path-5)">
              <path id="Trazado_169121" data-name="Trazado 169121" d="M196.356,317.563c2.564,6.4,7.525,10.941,14.352,11.88s13.733-.624,20.382-2.433c-12.089-1.691-22.782-3.366-34.734-9.447" transform="translate(-196.356 -317.563)"/>
            </g>
          </g>
        </g>
        <path id="Trazado_169122" data-name="Trazado 169122" d="M238.286,343.763a.822.822,0,0,1-.168-.061l-.479-.2-1.829-.812c-1.591-.7-3.869-1.772-6.717-3.006a29.384,29.384,0,0,0-4.791-1.621,15.363,15.363,0,0,0-5.748-.268,20.637,20.637,0,0,0-3.053.694,30.922,30.922,0,0,0-3.063,1.159c-2.043.89-4.073,2-6.163,3.12a49.1,49.1,0,0,1-6.29,2.927,19.541,19.541,0,0,1-6.332,1.289,14.222,14.222,0,0,1-5.731-1.125,37.859,37.859,0,0,1-4.541-2.309c-1.35-.769-2.566-1.473-3.675-2.01a19.662,19.662,0,0,0-2.919-1.189,10.66,10.66,0,0,0-1.11-.3,6.231,6.231,0,0,0-.828-.16l-.513-.082a.83.83,0,0,1-.175-.038.853.853,0,0,1,.177.009l.519.054a5.73,5.73,0,0,1,.837.134,10.213,10.213,0,0,1,1.125.276,18.959,18.959,0,0,1,2.956,1.153c1.121.527,2.348,1.221,3.7,1.979a38.431,38.431,0,0,0,4.53,2.266,14.045,14.045,0,0,0,5.64,1.082,19.363,19.363,0,0,0,6.242-1.289,49.41,49.41,0,0,0,6.251-2.916c2.088-1.119,4.127-2.232,6.186-3.125a31.008,31.008,0,0,1,3.094-1.163,20.872,20.872,0,0,1,3.1-.693,15.516,15.516,0,0,1,5.836.3,29.079,29.079,0,0,1,4.816,1.665c2.846,1.261,5.106,2.359,6.684,3.089l1.808.86.467.23a.847.847,0,0,1,.156.087" transform="translate(-75.644 -146.537)" fill="#fafafa"/>
      </g>
    </g>
  </g>
</svg>
