<svg xmlns="http://www.w3.org/2000/svg" xmlns:xlink="http://www.w3.org/1999/xlink" width="400" height="313.632" viewBox="0 0 400 313.632">
  <defs>
    <clipPath id="clip-path">
      <rect id="Rect치ngulo_43281" data-name="Rect치ngulo 43281" width="91.071" height="91.042" fill="none"/>
    </clipPath>
  </defs>
  <g id="Grupo_129716" data-name="Grupo 129716" transform="translate(-811 -2824)">
    <rect id="Rect치ngulo_43698" data-name="Rect치ngulo 43698" width="400" height="313.632" rx="21" transform="translate(811 2824)" fill="#22b5ed" opacity="0.25"/>
    <g id="Grupo_119248" data-name="Grupo 119248" transform="translate(0 101.422)">
      <g id="Elipse_6018" data-name="Elipse 6018" transform="translate(949 2762)" fill="#fff" stroke="#2631a0" stroke-width="4">
        <circle cx="62" cy="62" r="62" stroke="none"/>
        <circle cx="62" cy="62" r="60" fill="none"/>
      </g>
      <g id="Grupo_118726" data-name="Grupo 118726" transform="translate(965.464 2778.479)">
        <g id="Grupo_118725" data-name="Grupo 118725" clip-path="url(#clip-path)">
          <path id="Trazado_167911" data-name="Trazado 167911" d="M71.816,39.256A3.041,3.041,0,0,0,68.775,42.3V57.5h6.082V42.3a3.041,3.041,0,0,0-3.041-3.041" transform="translate(5.649 3.224)" fill="#fdf5af"/>
          <path id="Trazado_167912" data-name="Trazado 167912" d="M12.8,39.256A3.041,3.041,0,0,1,15.842,42.3V57.5H9.76V42.3A3.041,3.041,0,0,1,12.8,39.256" transform="translate(0.802 3.224)" fill="#fdf5af"/>
          <path id="Trazado_167913" data-name="Trazado 167913" d="M44.386,15.369a30.411,30.411,0,1,1-30.41,30.41,30.41,30.41,0,0,1,30.41-30.41" transform="translate(1.148 1.262)" fill="#72ccc5"/>
          <path id="Trazado_167914" data-name="Trazado 167914" d="M44.386,15.369a30.411,30.411,0,1,1-30.41,30.41,30.41,30.41,0,0,1,30.41-30.41" transform="translate(1.148 1.262)" fill="#757ac6"/>
          <path id="Trazado_167915" data-name="Trazado 167915" d="M38.439,24.491l1.52,4.561,4.561,1.52v6.083L41.48,41.217v4.562l7.6,1.52v4.561l7.6,7.6h3.042l1.52-7.6V45.778l4.561-1.52H70.37l2.272-5.3A30.43,30.43,0,0,0,30.836,17.9v5.07Z" transform="translate(2.533 1.262)" fill="#fec62c"/>
          <path id="Trazado_167916" data-name="Trazado 167916" d="M35.263,66.94,39.824,63.9l1.52-6.083v-7.6l-4.561-1.521-4.561-4.561L29.18,39.57H23.1l-3.041,6.082-1.52-4.561V36.529l-3.3-1.1a30.436,30.436,0,0,0,21.715,38.2l-.173-.6Z" transform="translate(1.148 2.91)" fill="#fec62c"/>
          <path id="Trazado_167917" data-name="Trazado 167917" d="M82.408,35.043c-1.636.077-2.531,1.527-2.894,3.124-.887,3.905-3.042,13.6-3.042,13.6l-9.122,7.6H62.788l3.687-6.99a3.041,3.041,0,1,0-4.333-4.268S54.31,59.85,50.786,64.814A9.136,9.136,0,0,0,49.1,70.1V86.738H62.788V77.614L81.035,57.848,85.6,38.081a3.041,3.041,0,0,0-3.188-3.038" transform="translate(4.033 2.878)" fill="#fdf5af"/>
          <path id="Trazado_167918" data-name="Trazado 167918" d="M4.517,35.043a3.1,3.1,0,0,1,2.894,3.124l3.042,13.6,9.122,7.6h4.562l-3.687-6.99a3.041,3.041,0,1,1,4.333-4.268s7.831,11.739,11.356,16.7A9.136,9.136,0,0,1,37.822,70.1V86.738H24.137V77.614L5.89,57.848,1.329,38.081a3.041,3.041,0,0,1,3.188-3.038" transform="translate(0.109 2.878)" fill="#fdf5af"/>
          <path id="Trazado_167919" data-name="Trazado 167919" d="M73.452,15.485c-3.041-3.041-6.083-1-6.083,1.52,0,4.561,6.083,7.6,6.083,7.6s6.083-3.042,6.083-7.6c0-2.519-3.042-4.561-6.083-1.52" transform="translate(5.533 1.147)" fill="#ff004c"/>
          <path id="Trazado_167920" data-name="Trazado 167920" d="M11.627,15.485c3.041-3.041,6.083-1,6.083,1.52,0,4.561-6.083,7.6-6.083,7.6S5.544,21.566,5.544,17c0-2.519,3.042-4.561,6.083-1.52" transform="translate(0.455 1.147)" fill="#ff004c"/>
          <path id="Trazado_167921" data-name="Trazado 167921" d="M42.54,2.841c-3.041-3.041-6.083-1-6.083,1.52,0,4.561,6.083,7.6,6.083,7.6s6.083-3.042,6.083-7.6c0-2.519-3.042-4.561-6.083-1.52" transform="translate(2.994 0.108)" fill="#ff004c"/>
          <path id="Trazado_167922" data-name="Trazado 167922" d="M50.753,22.5a1.425,1.425,0,0,0-1.425-1.425h-1.52a1.425,1.425,0,1,0,0,2.85h1.52A1.425,1.425,0,0,0,50.753,22.5" transform="translate(3.809 1.731)"/>
          <path id="Trazado_167923" data-name="Trazado 167923" d="M59.3,29.528A1.425,1.425,0,0,0,57.873,28.1H54.831a1.425,1.425,0,1,0,0,2.85h3.042A1.425,1.425,0,0,0,59.3,29.528" transform="translate(4.386 2.308)"/>
          <path id="Trazado_167924" data-name="Trazado 167924" d="M50.732,36.533h-1.52a1.426,1.426,0,0,0,0,2.851h1.52a1.426,1.426,0,0,0,0-2.851" transform="translate(3.925 3.001)"/>
          <path id="Trazado_167925" data-name="Trazado 167925" d="M71.15,63.174l-10.34,11.2a1.421,1.421,0,0,0-.378.966v9.123a1.425,1.425,0,0,0,2.85,0V75.9l9.962-10.792a1.426,1.426,0,0,0-2.1-1.934" transform="translate(4.964 5.151)"/>
          <path id="Trazado_167926" data-name="Trazado 167926" d="M89.671,36.573a4.429,4.429,0,0,0-3.3-1.229,4.5,4.5,0,0,0-4.25,4.376l-.616,2.753a4.509,4.509,0,0,0-4.7-2.525,31.888,31.888,0,0,0-31.278-25.9,31.566,31.566,0,0,0-19.1,6.367A1.425,1.425,0,1,0,28.143,22.7a29.259,29.259,0,0,1,3.8-2.422v2.8a1.426,1.426,0,0,0,1.146,1.4l6.791,1.358,1.26,3.777a1.426,1.426,0,0,0,.9.9l3.587,1.2v4.623l-2.8,4.2a1.424,1.424,0,0,0-.239.79v4.562a1.424,1.424,0,0,0,1.145,1.4l6.457,1.292v3.392a1.426,1.426,0,0,0,.418,1.009l7.008,7.008c-1.491,2.188-2.917,4.261-3.958,5.728a10.5,10.5,0,0,0-1.947,6.113V74.21a29.4,29.4,0,0,1-12.354,0V71.826a10.548,10.548,0,0,0-.457-3.078l2.862-1.909a1.423,1.423,0,0,0,.593-.84l1.52-6.083a1.422,1.422,0,0,0,.042-.345v-7.6a1.424,1.424,0,0,0-.975-1.352L38.7,49.2l-4.224-4.224-2.963-4.444a1.427,1.427,0,0,0-1.186-.635H24.246a1.425,1.425,0,0,0-1.275.788l-1.5,3-.359-1.077V38.284a1.424,1.424,0,0,0-.975-1.352l-1.947-.649a28.942,28.942,0,0,1,5.257-9.165,1.426,1.426,0,0,0-2.172-1.847,31.836,31.836,0,0,0-7.015,14.681A4.554,4.554,0,0,0,13.6,39.9a4.469,4.469,0,0,0-4.081,2.656c-.235-1.093-.444-2.1-.6-2.93-.482-2.541-2.1-4.182-4.228-4.282a4.433,4.433,0,0,0-3.3,1.229A4.5,4.5,0,0,0,.318,38.187,3.552,3.552,0,0,0,.05,40.126L4.611,59.893a1.439,1.439,0,0,0,.342.646L22.821,79.9v8.566a1.426,1.426,0,0,0,2.851,0V79.339a1.423,1.423,0,0,0-.379-.966L7.3,58.883,2.87,39.667a1.632,1.632,0,0,1,1.69-1.476c1.112.053,1.475,1.517,1.56,1.965.82,4.333,2.964,13.288,3.055,13.666a1.433,1.433,0,0,0,.474.763l9.123,7.6a1.42,1.42,0,0,0,.912.331h4.561a1.44,1.44,0,0,0,1.26-2.094c-.025-.047-2.482-4.679-3.683-6.98-.983-1.886-.437-2.424-.232-2.626a1.618,1.618,0,0,1,2.2-.062c.871,1.3,8,11.964,11.292,16.606a7.669,7.669,0,0,1,1.42,4.463V88.463a1.426,1.426,0,0,0,2.851,0V77.121a31.979,31.979,0,0,0,12.354,0V88.463a1.426,1.426,0,0,0,2.851,0V71.826a7.669,7.669,0,0,1,1.42-4.463c3.3-4.642,10.421-15.3,11.292-16.606a1.617,1.617,0,0,1,2.2.062c.192.188.774.762-.222,2.609-.854,1.584-3.666,6.949-3.694,7a1.439,1.439,0,0,0,1.263,2.087h4.561a1.42,1.42,0,0,0,.912-.331l9.123-7.6a1.448,1.448,0,0,0,.485-.809L84.939,40.2a1.421,1.421,0,0,0,.034-.311,1.68,1.68,0,0,1,1.536-1.7,1.631,1.631,0,0,1,1.69,1.476L83.764,58.883,81.04,61.834a1.426,1.426,0,0,0,2.1,1.934l2.98-3.229a1.423,1.423,0,0,0,.342-.646l4.561-19.766a3.4,3.4,0,0,0-.268-1.939,4.509,4.509,0,0,0-1.079-1.613M21.879,59.667H20.2l-8.213-6.845V44.367a1.609,1.609,0,0,1,1.866-1.6c-.1,1.032-.156,2.071-.156,3.115a31.949,31.949,0,0,0,1,7.95,1.425,1.425,0,0,0,2.761-.71,29.073,29.073,0,0,1-.083-14.11l.883.294v3.534a1.428,1.428,0,0,0,.074.451l1.52,4.561a1.387,1.387,0,0,0,.278.482,4.464,4.464,0,0,0-.54.447c-1.028,1.013-1.914,2.872-.3,5.976.682,1.306,1.765,3.359,2.583,4.9m4.2-10.623a1.433,1.433,0,0,0-.17-.209,4.448,4.448,0,0,0-3.158-1.329l2.376-4.755h4.439l2.618,3.927a1.42,1.42,0,0,0,.177.216l4.562,4.562a1.432,1.432,0,0,0,.557.344L41.067,53v6.4l-1.344,5.377L37.69,66.129c-.09-.14-11.533-16.967-11.611-17.085m26.964,2.335V47.408a1.424,1.424,0,0,0-1.146-1.4l-6.457-1.292V41.758l2.8-4.2a1.428,1.428,0,0,0,.239-.791V30.682a1.426,1.426,0,0,0-.974-1.353l-3.886-1.3-1.3-3.885a1.422,1.422,0,0,0-1.072-.947l-6.457-1.292V19.024c0-.025,0-.049,0-.073a29.023,29.023,0,0,1,38.9,20.064,1.408,1.408,0,0,0-.176.3l-1.554,3.625H68.342a1.417,1.417,0,0,0-.451.073l-4.561,1.52a1.426,1.426,0,0,0-.975,1.353v6.652a1.446,1.446,0,0,0,.049.365c-.928,1.383-2.027,3.013-3.157,4.68Zm17.825,8.288H69.18c.892-1.7,2.082-3.956,2.584-4.887,1.748-3.245.57-5.148-.287-5.993a4.47,4.47,0,0,0-6.271.005V46.915l3.368-1.123H72.9a1.425,1.425,0,0,0,1.31-.864l.263-.612c.027.521.042,1.044.042,1.571a29.172,29.172,0,0,1-.765,6.649,1.425,1.425,0,0,0,1.062,1.714,1.44,1.44,0,0,0,1.714-1.062,32,32,0,0,0,.841-7.3c0-1.052-.053-2.091-.153-3.117a1.714,1.714,0,0,1,.248-.019,1.618,1.618,0,0,1,1.616,1.616v8.456Z" transform="translate(0 1.154)"/>
          <path id="Trazado_167927" data-name="Trazado 167927" d="M72.922,25.991a1.435,1.435,0,0,0,1.275,0c.281-.142,6.87-3.5,6.87-8.878a4.449,4.449,0,0,0-2.726-4.14,4.826,4.826,0,0,0-4.782.749,4.824,4.824,0,0,0-4.781-.749,4.449,4.449,0,0,0-2.726,4.14c0,5.381,6.589,8.736,6.869,8.878M69.87,15.607a1.471,1.471,0,0,1,.57-.11,3.189,3.189,0,0,1,2.111,1.1,1.426,1.426,0,0,0,2.016,0c.946-.947,1.924-1.308,2.683-.994a1.628,1.628,0,0,1,.966,1.506c0,2.629-2.932,4.937-4.648,5.968-1.4-.854-4.665-3.144-4.665-5.968a1.628,1.628,0,0,1,.966-1.506" transform="translate(5.425 1.039)"/>
          <path id="Trazado_167928" data-name="Trazado 167928" d="M11.1,25.991a1.435,1.435,0,0,0,1.275,0c.28-.142,6.87-3.5,6.87-8.878a4.449,4.449,0,0,0-2.727-4.14,4.824,4.824,0,0,0-4.781.749,4.824,4.824,0,0,0-4.781-.749,4.449,4.449,0,0,0-2.727,4.14c0,5.381,6.59,8.736,6.87,8.878M8.045,15.607a1.471,1.471,0,0,1,.57-.11,3.193,3.193,0,0,1,2.112,1.1,1.425,1.425,0,0,0,2.015,0c.947-.947,1.924-1.308,2.683-.994a1.628,1.628,0,0,1,.966,1.506c0,2.629-2.932,4.937-4.648,5.968-1.4-.854-4.665-3.144-4.665-5.968a1.628,1.628,0,0,1,.966-1.506" transform="translate(0.347 1.039)"/>
          <path id="Trazado_167929" data-name="Trazado 167929" d="M42.01,13.347a1.435,1.435,0,0,0,1.275,0c.28-.141,6.87-3.5,6.87-8.878A4.449,4.449,0,0,0,47.429.329a4.824,4.824,0,0,0-4.781.749A4.824,4.824,0,0,0,37.867.329a4.449,4.449,0,0,0-2.727,4.14c0,5.381,6.59,8.738,6.87,8.878M38.958,2.963a1.471,1.471,0,0,1,.57-.11,3.193,3.193,0,0,1,2.112,1.1,1.426,1.426,0,0,0,2.016,0c.946-.947,1.923-1.308,2.682-.994A1.628,1.628,0,0,1,47.3,4.469c0,2.629-2.93,4.937-4.648,5.968-1.4-.854-4.665-3.144-4.665-5.968a1.628,1.628,0,0,1,.966-1.506" transform="translate(2.886 0)"/>
        </g>
      </g>
    </g>
  </g>
</svg>
